mtllib Spring.mtl
o Spring
usemtl SpringWhite
v -0.460000 -0.500000 -0.460000
v 0.460000 -0.500000 -0.460000
v 0.460000 -0.380000 -0.460000
v -0.460000 -0.380000 -0.460000
v -0.460000 -0.500000 0.460000
v 0.460000 -0.500000 0.460000
v 0.460000 -0.380000 0.460000
v -0.460000 -0.380000 0.460000
v -0.460000 0.380000 -0.460000
v 0.460000 0.380000 -0.460000
v 0.460000 0.500000 -0.460000
v -0.460000 0.500000 -0.460000
v -0.460000 0.380000 0.460000
v 0.460000 0.380000 0.460000
v 0.460000 0.500000 0.460000
v -0.460000 0.500000 0.460000
v 0.345000 -0.360000 0.000000
v 0.325962 -0.314349 -0.005338
v 0.280000 -0.295440 -0.007549
v 0.234038 -0.314349 -0.005338
v 0.215000 -0.360000 -0.000000
v 0.234038 -0.405651 0.005338
v 0.280000 -0.424560 0.007549
v 0.325962 -0.405651 0.005338
v 0.328114 -0.349714 0.106611
v 0.311658 -0.304063 0.095651
v 0.268629 -0.285154 0.079345
v 0.224233 -0.304063 0.067245
v 0.204477 -0.349714 0.066439
v 0.220934 -0.395365 0.077398
v 0.263963 -0.414274 0.093704
v 0.308359 -0.395365 0.105804
v 0.279111 -0.339429 0.202786
v 0.266846 -0.293778 0.187277
v 0.230962 -0.274868 0.158473
v 0.192478 -0.293778 0.133246
v 0.173939 -0.339429 0.126374
v 0.186203 -0.385079 0.141883
v 0.222088 -0.403989 0.170687
v 0.260571 -0.385079 0.195914
v 0.202786 -0.329143 0.279111
v 0.195914 -0.283492 0.260571
v 0.170687 -0.264583 0.222088
v 0.141883 -0.283492 0.186203
v 0.126374 -0.329143 0.173939
v 0.133246 -0.374794 0.192478
v 0.158473 -0.393703 0.230962
v 0.187277 -0.374794 0.266846
v 0.106611 -0.318857 0.328114
v 0.105804 -0.273206 0.308359
v 0.093704 -0.254297 0.263963
v 0.077398 -0.273206 0.220934
v 0.066439 -0.318857 0.204477
v 0.067245 -0.364508 0.224233
v 0.079345 -0.383417 0.268629
v 0.095651 -0.364508 0.311658
v 0.000000 -0.308571 0.345000
v 0.005338 -0.262921 0.325962
v 0.007549 -0.244011 0.280000
v 0.005338 -0.262921 0.234038
v 0.000000 -0.308571 0.215000
v -0.005338 -0.354222 0.234038
v -0.007549 -0.373132 0.280000
v -0.005338 -0.354222 0.325962
v -0.106611 -0.298286 0.328114
v -0.095651 -0.252635 0.311658
v -0.079345 -0.233726 0.268629
v -0.067245 -0.252635 0.224233
v -0.066439 -0.298286 0.204477
v -0.077398 -0.343937 0.220934
v -0.093704 -0.362846 0.263963
v -0.105804 -0.343937 0.308359
v -0.202786 -0.288000 0.279111
v -0.187277 -0.242349 0.266846
v -0.158473 -0.223440 0.230962
v -0.133246 -0.242349 0.192478
v -0.126374 -0.288000 0.173939
v -0.141883 -0.333651 0.186203
v -0.170687 -0.352560 0.222088
v -0.195914 -0.333651 0.260571
v -0.279111 -0.277714 0.202786
v -0.260571 -0.232063 0.195914
v -0.222088 -0.213154 0.170687
v -0.186203 -0.232063 0.141883
v -0.173939 -0.277714 0.126374
v -0.192478 -0.323365 0.133246
v -0.230962 -0.342274 0.158473
v -0.266846 -0.323365 0.187277
v -0.328114 -0.267429 0.106611
v -0.308359 -0.221778 0.105804
v -0.263963 -0.202868 0.093704
v -0.220934 -0.221778 0.077398
v -0.204477 -0.267429 0.066439
v -0.224233 -0.313079 0.067245
v -0.268629 -0.331989 0.079345
v -0.311658 -0.313079 0.095651
v -0.345000 -0.257143 0.000000
v -0.325962 -0.211492 0.005338
v -0.280000 -0.192583 0.007549
v -0.234038 -0.211492 0.005338
v -0.215000 -0.257143 0.000000
v -0.234038 -0.302794 -0.005338
v -0.280000 -0.321703 -0.007549
v -0.325962 -0.302794 -0.005338
v -0.328114 -0.246857 -0.106611
v -0.311658 -0.201206 -0.095651
v -0.268629 -0.182297 -0.079345
v -0.224233 -0.201206 -0.067245
v -0.204477 -0.246857 -0.066439
v -0.220934 -0.292508 -0.077398
v -0.263963 -0.311417 -0.093704
v -0.308359 -0.292508 -0.105804
v -0.279111 -0.236571 -0.202786
v -0.266846 -0.190921 -0.187277
v -0.230962 -0.172011 -0.158473
v -0.192478 -0.190921 -0.133246
v -0.173939 -0.236571 -0.126374
v -0.186203 -0.282222 -0.141883
v -0.222088 -0.301132 -0.170687
v -0.260571 -0.282222 -0.195914
v -0.202786 -0.226286 -0.279111
v -0.195914 -0.180635 -0.260571
v -0.170687 -0.161726 -0.222088
v -0.141883 -0.180635 -0.186203
v -0.126374 -0.226286 -0.173939
v -0.133246 -0.271937 -0.192478
v -0.158473 -0.290846 -0.230962
v -0.187277 -0.271937 -0.266846
v -0.106611 -0.216000 -0.328114
v -0.105804 -0.170349 -0.308359
v -0.093704 -0.151440 -0.263963
v -0.077398 -0.170349 -0.220934
v -0.066439 -0.216000 -0.204477
v -0.067245 -0.261651 -0.224233
v -0.079345 -0.280560 -0.268629
v -0.095651 -0.261651 -0.311658
v -0.000000 -0.205714 -0.345000
v -0.005338 -0.160063 -0.325962
v -0.007549 -0.141154 -0.280000
v -0.005338 -0.160063 -0.234038
v -0.000000 -0.205714 -0.215000
v 0.005338 -0.251365 -0.234038
v 0.007549 -0.270274 -0.280000
v 0.005338 -0.251365 -0.325962
v 0.106611 -0.195429 -0.328114
v 0.095651 -0.149778 -0.311658
v 0.079345 -0.130868 -0.268629
v 0.067245 -0.149778 -0.224233
v 0.066439 -0.195429 -0.204477
v 0.077398 -0.241079 -0.220934
v 0.093704 -0.259989 -0.263963
v 0.105804 -0.241079 -0.308359
v 0.202786 -0.185143 -0.279111
v 0.187277 -0.139492 -0.266846
v 0.158473 -0.120583 -0.230962
v 0.133246 -0.139492 -0.192478
v 0.126374 -0.185143 -0.173939
v 0.141883 -0.230794 -0.186203
v 0.170687 -0.249703 -0.222088
v 0.195914 -0.230794 -0.260571
v 0.279111 -0.174857 -0.202786
v 0.260571 -0.129206 -0.195914
v 0.222088 -0.110297 -0.170687
v 0.186203 -0.129206 -0.141883
v 0.173939 -0.174857 -0.126374
v 0.192478 -0.220508 -0.133246
v 0.230962 -0.239417 -0.158473
v 0.266846 -0.220508 -0.187277
v 0.328114 -0.164571 -0.106611
v 0.308359 -0.118921 -0.105804
v 0.263963 -0.100011 -0.093704
v 0.220934 -0.118921 -0.077398
v 0.204477 -0.164571 -0.066439
v 0.224233 -0.210222 -0.067245
v 0.268629 -0.229132 -0.079345
v 0.311658 -0.210222 -0.095651
v 0.345000 -0.154286 -0.000000
v 0.325962 -0.108635 -0.005338
v 0.280000 -0.089726 -0.007549
v 0.234038 -0.108635 -0.005338
v 0.215000 -0.154286 -0.000000
v 0.234038 -0.199937 0.005338
v 0.280000 -0.218846 0.007549
v 0.325962 -0.199937 0.005338
v 0.328114 -0.144000 0.106611
v 0.311658 -0.098349 0.095651
v 0.268629 -0.079440 0.079345
v 0.224233 -0.098349 0.067245
v 0.204477 -0.144000 0.066439
v 0.220934 -0.189651 0.077398
v 0.263963 -0.208560 0.093704
v 0.308359 -0.189651 0.105804
v 0.279111 -0.133714 0.202786
v 0.266846 -0.088063 0.187277
v 0.230962 -0.069154 0.158473
v 0.192478 -0.088063 0.133246
v 0.173939 -0.133714 0.126374
v 0.186203 -0.179365 0.141883
v 0.222088 -0.198274 0.170687
v 0.260571 -0.179365 0.195914
v 0.202786 -0.123429 0.279111
v 0.195914 -0.077778 0.260571
v 0.170687 -0.058868 0.222088
v 0.141883 -0.077778 0.186203
v 0.126374 -0.123429 0.173939
v 0.133246 -0.169079 0.192478
v 0.158473 -0.187989 0.230962
v 0.187277 -0.169079 0.266846
v 0.106611 -0.113143 0.328114
v 0.105804 -0.067492 0.308359
v 0.093704 -0.048583 0.263963
v 0.077398 -0.067492 0.220934
v 0.066439 -0.113143 0.204477
v 0.067245 -0.158794 0.224233
v 0.079345 -0.177703 0.268629
v 0.095651 -0.158794 0.311658
v 0.000000 -0.102857 0.345000
v 0.005338 -0.057206 0.325962
v 0.007549 -0.038297 0.280000
v 0.005338 -0.057206 0.234038
v 0.000000 -0.102857 0.215000
v -0.005338 -0.148508 0.234038
v -0.007549 -0.167417 0.280000
v -0.005338 -0.148508 0.325962
v -0.106611 -0.092571 0.328114
v -0.095651 -0.046921 0.311658
v -0.079345 -0.028011 0.268629
v -0.067245 -0.046921 0.224233
v -0.066439 -0.092571 0.204477
v -0.077398 -0.138222 0.220934
v -0.093704 -0.157132 0.263963
v -0.105804 -0.138222 0.308359
v -0.202786 -0.082286 0.279111
v -0.187277 -0.036635 0.266846
v -0.158473 -0.017726 0.230962
v -0.133246 -0.036635 0.192478
v -0.126374 -0.082286 0.173939
v -0.141883 -0.127937 0.186203
v -0.170687 -0.146846 0.222088
v -0.195914 -0.127937 0.260571
v -0.279111 -0.072000 0.202786
v -0.260571 -0.026349 0.195914
v -0.222088 -0.007440 0.170687
v -0.186203 -0.026349 0.141883
v -0.173939 -0.072000 0.126374
v -0.192478 -0.117651 0.133246
v -0.230962 -0.136560 0.158473
v -0.266846 -0.117651 0.187277
v -0.328114 -0.061714 0.106611
v -0.308359 -0.016063 0.105804
v -0.263963 0.002846 0.093704
v -0.220934 -0.016063 0.077398
v -0.204477 -0.061714 0.066439
v -0.224233 -0.107365 0.067245
v -0.268629 -0.126274 0.079345
v -0.311658 -0.107365 0.095651
v -0.345000 -0.051429 0.000000
v -0.325962 -0.005778 0.005338
v -0.280000 0.013132 0.007549
v -0.234038 -0.005778 0.005338
v -0.215000 -0.051429 0.000000
v -0.234038 -0.097079 -0.005338
v -0.280000 -0.115989 -0.007549
v -0.325962 -0.097079 -0.005338
v -0.328114 -0.041143 -0.106611
v -0.311658 0.004508 -0.095651
v -0.268629 0.023417 -0.079345
v -0.224233 0.004508 -0.067245
v -0.204477 -0.041143 -0.066439
v -0.220934 -0.086794 -0.077398
v -0.263963 -0.105703 -0.093704
v -0.308359 -0.086794 -0.105804
v -0.279111 -0.030857 -0.202786
v -0.266846 0.014794 -0.187277
v -0.230962 0.033703 -0.158473
v -0.192478 0.014794 -0.133246
v -0.173939 -0.030857 -0.126374
v -0.186203 -0.076508 -0.141883
v -0.222088 -0.095417 -0.170687
v -0.260571 -0.076508 -0.195914
v -0.202786 -0.020571 -0.279111
v -0.195914 0.025079 -0.260571
v -0.170687 0.043989 -0.222088
v -0.141883 0.025079 -0.186203
v -0.126374 -0.020571 -0.173939
v -0.133246 -0.066222 -0.192478
v -0.158473 -0.085132 -0.230962
v -0.187277 -0.066222 -0.266846
v -0.106611 -0.010286 -0.328114
v -0.105804 0.035365 -0.308359
v -0.093704 0.054274 -0.263963
v -0.077398 0.035365 -0.220934
v -0.066439 -0.010286 -0.204477
v -0.067245 -0.055937 -0.224233
v -0.079345 -0.074846 -0.268629
v -0.095651 -0.055937 -0.311658
v -0.000000 0.000000 -0.345000
v -0.005338 0.045651 -0.325962
v -0.007549 0.064560 -0.280000
v -0.005338 0.045651 -0.234038
v -0.000000 0.000000 -0.215000
v 0.005338 -0.045651 -0.234038
v 0.007549 -0.064560 -0.280000
v 0.005338 -0.045651 -0.325962
v 0.106611 0.010286 -0.328114
v 0.095651 0.055937 -0.311658
v 0.079345 0.074846 -0.268629
v 0.067245 0.055937 -0.224233
v 0.066439 0.010286 -0.204477
v 0.077398 -0.035365 -0.220934
v 0.093704 -0.054274 -0.263963
v 0.105804 -0.035365 -0.308359
v 0.202786 0.020571 -0.279111
v 0.187277 0.066222 -0.266846
v 0.158473 0.085132 -0.230962
v 0.133246 0.066222 -0.192478
v 0.126374 0.020571 -0.173939
v 0.141883 -0.025079 -0.186203
v 0.170687 -0.043989 -0.222088
v 0.195914 -0.025079 -0.260571
v 0.279111 0.030857 -0.202786
v 0.260571 0.076508 -0.195914
v 0.222088 0.095417 -0.170687
v 0.186203 0.076508 -0.141883
v 0.173939 0.030857 -0.126374
v 0.192478 -0.014794 -0.133246
v 0.230962 -0.033703 -0.158473
v 0.266846 -0.014794 -0.187277
v 0.328114 0.041143 -0.106611
v 0.308359 0.086794 -0.105804
v 0.263963 0.105703 -0.093704
v 0.220934 0.086794 -0.077398
v 0.204477 0.041143 -0.066439
v 0.224233 -0.004508 -0.067245
v 0.268629 -0.023417 -0.079345
v 0.311658 -0.004508 -0.095651
v 0.345000 0.051429 -0.000000
v 0.325962 0.097079 -0.005338
v 0.280000 0.115989 -0.007549
v 0.234038 0.097079 -0.005338
v 0.215000 0.051429 -0.000000
v 0.234038 0.005778 0.005338
v 0.280000 -0.013132 0.007549
v 0.325962 0.005778 0.005338
v 0.328114 0.061714 0.106611
v 0.311658 0.107365 0.095651
v 0.268629 0.126274 0.079345
v 0.224233 0.107365 0.067245
v 0.204477 0.061714 0.066439
v 0.220934 0.016063 0.077398
v 0.263963 -0.002846 0.093704
v 0.308359 0.016063 0.105804
v 0.279111 0.072000 0.202786
v 0.266846 0.117651 0.187277
v 0.230962 0.136560 0.158473
v 0.192478 0.117651 0.133246
v 0.173939 0.072000 0.126374
v 0.186203 0.026349 0.141883
v 0.222088 0.007440 0.170687
v 0.260571 0.026349 0.195914
v 0.202786 0.082286 0.279111
v 0.195914 0.127937 0.260571
v 0.170687 0.146846 0.222088
v 0.141883 0.127937 0.186203
v 0.126374 0.082286 0.173939
v 0.133246 0.036635 0.192478
v 0.158473 0.017726 0.230962
v 0.187277 0.036635 0.266846
v 0.106611 0.092571 0.328114
v 0.105804 0.138222 0.308359
v 0.093704 0.157132 0.263963
v 0.077398 0.138222 0.220934
v 0.066439 0.092571 0.204477
v 0.067245 0.046921 0.224233
v 0.079345 0.028011 0.268629
v 0.095651 0.046921 0.311658
v 0.000000 0.102857 0.345000
v 0.005338 0.148508 0.325962
v 0.007549 0.167417 0.280000
v 0.005338 0.148508 0.234038
v 0.000000 0.102857 0.215000
v -0.005338 0.057206 0.234038
v -0.007549 0.038297 0.280000
v -0.005338 0.057206 0.325962
v -0.106611 0.113143 0.328114
v -0.095651 0.158794 0.311658
v -0.079345 0.177703 0.268629
v -0.067245 0.158794 0.224233
v -0.066439 0.113143 0.204477
v -0.077398 0.067492 0.220934
v -0.093704 0.048583 0.263963
v -0.105804 0.067492 0.308359
v -0.202786 0.123429 0.279111
v -0.187277 0.169079 0.266846
v -0.158473 0.187989 0.230962
v -0.133246 0.169079 0.192478
v -0.126374 0.123429 0.173939
v -0.141883 0.077778 0.186203
v -0.170687 0.058868 0.222088
v -0.195914 0.077778 0.260571
v -0.279111 0.133714 0.202786
v -0.260571 0.179365 0.195914
v -0.222088 0.198274 0.170687
v -0.186203 0.179365 0.141883
v -0.173939 0.133714 0.126374
v -0.192478 0.088063 0.133246
v -0.230962 0.069154 0.158473
v -0.266846 0.088063 0.187277
v -0.328114 0.144000 0.106611
v -0.308359 0.189651 0.105804
v -0.263963 0.208560 0.093704
v -0.220934 0.189651 0.077398
v -0.204477 0.144000 0.066439
v -0.224233 0.098349 0.067245
v -0.268629 0.079440 0.079345
v -0.311658 0.098349 0.095651
v -0.345000 0.154286 0.000000
v -0.325962 0.199937 0.005338
v -0.280000 0.218846 0.007549
v -0.234038 0.199937 0.005338
v -0.215000 0.154286 0.000000
v -0.234038 0.108635 -0.005338
v -0.280000 0.089726 -0.007549
v -0.325962 0.108635 -0.005338
v -0.328114 0.164571 -0.106611
v -0.311658 0.210222 -0.095651
v -0.268629 0.229132 -0.079345
v -0.224233 0.210222 -0.067245
v -0.204477 0.164571 -0.066439
v -0.220934 0.118921 -0.077398
v -0.263963 0.100011 -0.093704
v -0.308359 0.118921 -0.105804
v -0.279111 0.174857 -0.202786
v -0.266846 0.220508 -0.187277
v -0.230962 0.239417 -0.158473
v -0.192478 0.220508 -0.133246
v -0.173939 0.174857 -0.126374
v -0.186203 0.129206 -0.141883
v -0.222088 0.110297 -0.170687
v -0.260571 0.129206 -0.195914
v -0.202786 0.185143 -0.279111
v -0.195914 0.230794 -0.260571
v -0.170687 0.249703 -0.222088
v -0.141883 0.230794 -0.186203
v -0.126374 0.185143 -0.173939
v -0.133246 0.139492 -0.192478
v -0.158473 0.120583 -0.230962
v -0.187277 0.139492 -0.266846
v -0.106611 0.195429 -0.328114
v -0.105804 0.241079 -0.308359
v -0.093704 0.259989 -0.263963
v -0.077398 0.241079 -0.220934
v -0.066439 0.195429 -0.204477
v -0.067245 0.149778 -0.224233
v -0.079345 0.130868 -0.268629
v -0.095651 0.149778 -0.311658
v -0.000000 0.205714 -0.345000
v -0.005338 0.251365 -0.325962
v -0.007549 0.270274 -0.280000
v -0.005338 0.251365 -0.234038
v -0.000000 0.205714 -0.215000
v 0.005338 0.160063 -0.234038
v 0.007549 0.141154 -0.280000
v 0.005338 0.160063 -0.325962
v 0.106611 0.216000 -0.328114
v 0.095651 0.261651 -0.311658
v 0.079345 0.280560 -0.268629
v 0.067245 0.261651 -0.224233
v 0.066439 0.216000 -0.204477
v 0.077398 0.170349 -0.220934
v 0.093704 0.151440 -0.263963
v 0.105804 0.170349 -0.308359
v 0.202786 0.226286 -0.279111
v 0.187277 0.271937 -0.266846
v 0.158473 0.290846 -0.230962
v 0.133246 0.271937 -0.192478
v 0.126374 0.226286 -0.173939
v 0.141883 0.180635 -0.186203
v 0.170687 0.161726 -0.222088
v 0.195914 0.180635 -0.260571
v 0.279111 0.236571 -0.202786
v 0.260571 0.282222 -0.195914
v 0.222088 0.301132 -0.170687
v 0.186203 0.282222 -0.141883
v 0.173939 0.236571 -0.126374
v 0.192478 0.190921 -0.133246
v 0.230962 0.172011 -0.158473
v 0.266846 0.190921 -0.187277
v 0.328114 0.246857 -0.106611
v 0.308359 0.292508 -0.105804
v 0.263963 0.311417 -0.093704
v 0.220934 0.292508 -0.077398
v 0.204477 0.246857 -0.066439
v 0.224233 0.201206 -0.067245
v 0.268629 0.182297 -0.079345
v 0.311658 0.201206 -0.095651
v 0.345000 0.257143 -0.000000
v 0.325962 0.302794 -0.005338
v 0.280000 0.321703 -0.007549
v 0.234038 0.302794 -0.005338
v 0.215000 0.257143 -0.000000
v 0.234038 0.211492 0.005338
v 0.280000 0.192583 0.007549
v 0.325962 0.211492 0.005338
v 0.328114 0.267429 0.106611
v 0.311658 0.313079 0.095651
v 0.268629 0.331989 0.079345
v 0.224233 0.313079 0.067245
v 0.204477 0.267429 0.066439
v 0.220934 0.221778 0.077398
v 0.263963 0.202868 0.093704
v 0.308359 0.221778 0.105804
v 0.279111 0.277714 0.202786
v 0.266846 0.323365 0.187277
v 0.230962 0.342274 0.158473
v 0.192478 0.323365 0.133246
v 0.173939 0.277714 0.126374
v 0.186203 0.232063 0.141883
v 0.222088 0.213154 0.170687
v 0.260571 0.232063 0.195914
v 0.202786 0.288000 0.279111
v 0.195914 0.333651 0.260571
v 0.170687 0.352560 0.222088
v 0.141883 0.333651 0.186203
v 0.126374 0.288000 0.173939
v 0.133246 0.242349 0.192478
v 0.158473 0.223440 0.230962
v 0.187277 0.242349 0.266846
v 0.106611 0.298286 0.328114
v 0.105804 0.343937 0.308359
v 0.093704 0.362846 0.263963
v 0.077398 0.343937 0.220934
v 0.066439 0.298286 0.204477
v 0.067245 0.252635 0.224233
v 0.079345 0.233726 0.268629
v 0.095651 0.252635 0.311658
v -0.000000 0.308571 0.345000
v 0.005338 0.354222 0.325962
v 0.007549 0.373132 0.280000
v 0.005338 0.354222 0.234038
v -0.000000 0.308571 0.215000
v -0.005338 0.262921 0.234038
v -0.007549 0.244011 0.280000
v -0.005338 0.262921 0.325962
v -0.106611 0.318857 0.328114
v -0.095651 0.364508 0.311658
v -0.079345 0.383417 0.268629
v -0.067245 0.364508 0.224233
v -0.066439 0.318857 0.204477
v -0.077398 0.273206 0.220934
v -0.093704 0.254297 0.263963
v -0.105804 0.273206 0.308359
v -0.202786 0.329143 0.279111
v -0.187277 0.374794 0.266846
v -0.158473 0.393703 0.230962
v -0.133246 0.374794 0.192478
v -0.126374 0.329143 0.173939
v -0.141883 0.283492 0.186203
v -0.170687 0.264583 0.222088
v -0.195914 0.283492 0.260571
v -0.279111 0.339429 0.202786
v -0.260571 0.385079 0.195914
v -0.222088 0.403989 0.170687
v -0.186203 0.385079 0.141883
v -0.173939 0.339429 0.126374
v -0.192478 0.293778 0.133246
v -0.230962 0.274868 0.158473
v -0.266846 0.293778 0.187277
v -0.328114 0.349714 0.106611
v -0.308359 0.395365 0.105804
v -0.263963 0.414274 0.093704
v -0.220934 0.395365 0.077398
v -0.204477 0.349714 0.066439
v -0.224233 0.304063 0.067245
v -0.268629 0.285154 0.079345
v -0.311658 0.304063 0.095651
v -0.345000 0.360000 0.000000
v -0.325962 0.405651 0.005338
v -0.280000 0.424560 0.007549
v -0.234038 0.405651 0.005338
v -0.215000 0.360000 0.000000
v -0.234038 0.314349 -0.005338
v -0.280000 0.295440 -0.007549
v -0.325962 0.314349 -0.005338
vn 0.000000 0.000000 -1.000000
vn 0.000000 0.000000 1.000000
vn -1.000000 0.000000 0.000000
vn 1.000000 0.000000 0.000000
vn 0.000000 1.000000 0.000000
vn 0.000000 -1.000000 0.000000
vn 0.000000 0.000000 -1.000000
vn 0.000000 0.000000 1.000000
vn -1.000000 0.000000 0.000000
vn 1.000000 0.000000 0.000000
vn 0.000000 1.000000 0.000000
vn 0.000000 -1.000000 0.000000
vn 0.915464 0.392271 0.089714
vn 0.382236 0.922171 -0.059137
vn -0.381648 0.906606 -0.180031
vn -0.912426 0.357151 -0.199806
vn -0.912747 -0.393489 -0.109817
vn -0.381789 -0.923419 0.039177
vn 0.382138 -0.910125 0.160135
vn 0.915213 -0.360658 0.179751
vn 0.842935 0.392271 0.368217
vn 0.381802 0.922171 0.061875
vn -0.307336 0.906606 -0.289155
vn -0.806025 0.357151 -0.471982
vn -0.834138 -0.393489 -0.386496
vn -0.375209 -0.923419 -0.080720
vn 0.313951 -0.910125 0.270384
vn 0.814873 -0.360658 0.453770
vn 0.687893 0.392271 0.610677
vn 0.343995 0.922171 0.176830
vn -0.202940 0.906606 -0.369975
vn -0.620725 0.357151 -0.697957
vn -0.673879 -0.393489 -0.625343
vn -0.331901 -0.923419 -0.192715
vn 0.215032 -0.910125 0.354167
vn 0.634768 -0.360658 0.683371
vn 0.465516 0.392271 0.793359
vn 0.272515 0.922171 0.274475
vn -0.078679 0.906606 -0.414579
vn -0.374664 0.357151 -0.855611
vn -0.447655 -0.393489 -0.802976
vn -0.256105 -0.923419 -0.285846
vn 0.095064 -0.910125 0.403281
vn 0.392527 -0.360658 0.846078
vn 0.197570 0.392271 0.898381
vn 0.174360 0.922171 0.345253
vn 0.053284 0.906606 -0.418601
vn -0.091928 0.357151 -0.929512
vn -0.177612 -0.393489 -0.902009
vn -0.155239 -0.923419 -0.350997
vn -0.034210 -0.910125 0.412920
vn 0.111863 -0.360658 0.925966
vn -0.089714 0.392271 0.915464
vn 0.059137 0.922171 0.382236
vn 0.180031 0.906606 -0.381648
vn 0.199806 0.357151 -0.912426
vn 0.109817 -0.393489 -0.912747
vn -0.039177 -0.923419 -0.381789
vn -0.160135 -0.910125 0.382138
vn -0.179751 -0.360658 0.915213
vn -0.368217 0.392271 0.842935
vn -0.061875 0.922171 0.381802
vn 0.289155 0.906606 -0.307336
vn 0.471982 0.357151 -0.806025
vn 0.386496 -0.393489 -0.834138
vn 0.080720 -0.923419 -0.375209
vn -0.270384 -0.910125 0.313951
vn -0.453770 -0.360658 0.814873
vn -0.610677 0.392271 0.687893
vn -0.176830 0.922171 0.343995
vn 0.369975 0.906606 -0.202940
vn 0.697957 0.357151 -0.620725
vn 0.625343 -0.393489 -0.673879
vn 0.192715 -0.923419 -0.331901
vn -0.354167 -0.910125 0.215032
vn -0.683371 -0.360658 0.634768
vn -0.793359 0.392271 0.465516
vn -0.274475 0.922171 0.272515
vn 0.414579 0.906606 -0.078679
vn 0.855611 0.357151 -0.374664
vn 0.802976 -0.393489 -0.447655
vn 0.285846 -0.923419 -0.256105
vn -0.403281 -0.910125 0.095064
vn -0.846078 -0.360658 0.392527
vn -0.898381 0.392271 0.197570
vn -0.345253 0.922171 0.174360
vn 0.418601 0.906606 0.053284
vn 0.929512 0.357151 -0.091928
vn 0.902009 -0.393489 -0.177612
vn 0.350997 -0.923419 -0.155239
vn -0.412920 -0.910125 -0.034210
vn -0.925966 -0.360658 0.111863
vn -0.915464 0.392271 -0.089714
vn -0.382236 0.922171 0.059137
vn 0.381648 0.906606 0.180031
vn 0.912426 0.357151 0.199806
vn 0.912747 -0.393489 0.109817
vn 0.381789 -0.923419 -0.039177
vn -0.382138 -0.910125 -0.160135
vn -0.915213 -0.360658 -0.179751
vn -0.842935 0.392271 -0.368217
vn -0.381802 0.922171 -0.061875
vn 0.307336 0.906606 0.289155
vn 0.806025 0.357151 0.471982
vn 0.834138 -0.393489 0.386496
vn 0.375209 -0.923419 0.080720
vn -0.313951 -0.910125 -0.270384
vn -0.814873 -0.360658 -0.453770
vn -0.687893 0.392271 -0.610677
vn -0.343995 0.922171 -0.176830
vn 0.202940 0.906606 0.369975
vn 0.620725 0.357151 0.697957
vn 0.673879 -0.393489 0.625343
vn 0.331901 -0.923419 0.192715
vn -0.215032 -0.910125 -0.354167
vn -0.634768 -0.360658 -0.683371
vn -0.465516 0.392271 -0.793359
vn -0.272515 0.922171 -0.274475
vn 0.078679 0.906606 0.414579
vn 0.374664 0.357151 0.855611
vn 0.447655 -0.393489 0.802976
vn 0.256105 -0.923419 0.285846
vn -0.095064 -0.910125 -0.403281
vn -0.392527 -0.360658 -0.846078
vn -0.197570 0.392271 -0.898381
vn -0.174360 0.922171 -0.345253
vn -0.053284 0.906606 0.418601
vn 0.091928 0.357151 0.929512
vn 0.177612 -0.393489 0.902009
vn 0.155239 -0.923419 0.350997
vn 0.034210 -0.910125 -0.412920
vn -0.111863 -0.360658 -0.925966
vn 0.089714 0.392271 -0.915464
vn -0.059137 0.922171 -0.382236
vn -0.180031 0.906606 0.381648
vn -0.199806 0.357151 0.912426
vn -0.109817 -0.393489 0.912747
vn 0.039177 -0.923419 0.381789
vn 0.160135 -0.910125 -0.382138
vn 0.179751 -0.360658 -0.915213
vn 0.368217 0.392271 -0.842935
vn 0.061875 0.922171 -0.381802
vn -0.289155 0.906606 0.307336
vn -0.471982 0.357151 0.806025
vn -0.386496 -0.393489 0.834138
vn -0.080720 -0.923419 0.375209
vn 0.270384 -0.910125 -0.313951
vn 0.453770 -0.360658 -0.814873
vn 0.610677 0.392271 -0.687893
vn 0.176830 0.922171 -0.343995
vn -0.369975 0.906606 0.202940
vn -0.697957 0.357151 0.620725
vn -0.625343 -0.393489 0.673879
vn -0.192715 -0.923419 0.331901
vn 0.354167 -0.910125 -0.215032
vn 0.683371 -0.360658 -0.634768
vn 0.793359 0.392271 -0.465516
vn 0.274475 0.922171 -0.272515
vn -0.414579 0.906606 0.078679
vn -0.855611 0.357151 0.374664
vn -0.802976 -0.393489 0.447655
vn -0.285846 -0.923419 0.256105
vn 0.403281 -0.910125 -0.095064
vn 0.846078 -0.360658 -0.392527
vn 0.898381 0.392271 -0.197570
vn 0.345253 0.922171 -0.174360
vn -0.418601 0.906606 -0.053284
vn -0.929512 0.357151 0.091928
vn -0.902009 -0.393489 0.177612
vn -0.350997 -0.923419 0.155239
vn 0.412920 -0.910125 0.034210
vn 0.925966 -0.360658 -0.111863
vn 0.915464 0.392271 0.089714
vn 0.382236 0.922171 -0.059137
vn -0.381648 0.906606 -0.180031
vn -0.912426 0.357151 -0.199806
vn -0.912747 -0.393489 -0.109817
vn -0.381789 -0.923419 0.039177
vn 0.382138 -0.910125 0.160135
vn 0.915213 -0.360658 0.179751
vn 0.842935 0.392271 0.368217
vn 0.381802 0.922171 0.061875
vn -0.307336 0.906606 -0.289155
vn -0.806025 0.357151 -0.471982
vn -0.834138 -0.393489 -0.386496
vn -0.375209 -0.923419 -0.080720
vn 0.313951 -0.910125 0.270384
vn 0.814873 -0.360658 0.453770
vn 0.687893 0.392271 0.610677
vn 0.343995 0.922171 0.176830
vn -0.202940 0.906606 -0.369975
vn -0.620725 0.357151 -0.697957
vn -0.673879 -0.393489 -0.625343
vn -0.331901 -0.923419 -0.192715
vn 0.215032 -0.910125 0.354167
vn 0.634768 -0.360658 0.683371
vn 0.465516 0.392271 0.793359
vn 0.272515 0.922171 0.274475
vn -0.078679 0.906606 -0.414579
vn -0.374664 0.357151 -0.855611
vn -0.447655 -0.393489 -0.802976
vn -0.256105 -0.923419 -0.285846
vn 0.095064 -0.910125 0.403281
vn 0.392527 -0.360658 0.846078
vn 0.197570 0.392271 0.898381
vn 0.174360 0.922171 0.345253
vn 0.053284 0.906606 -0.418601
vn -0.091928 0.357151 -0.929512
vn -0.177612 -0.393489 -0.902009
vn -0.155239 -0.923419 -0.350997
vn -0.034210 -0.910125 0.412920
vn 0.111863 -0.360658 0.925966
vn -0.089714 0.392271 0.915464
vn 0.059137 0.922171 0.382236
vn 0.180031 0.906606 -0.381648
vn 0.199806 0.357151 -0.912426
vn 0.109817 -0.393489 -0.912747
vn -0.039177 -0.923419 -0.381789
vn -0.160135 -0.910125 0.382138
vn -0.179751 -0.360658 0.915213
vn -0.368217 0.392271 0.842935
vn -0.061875 0.922171 0.381802
vn 0.289155 0.906606 -0.307336
vn 0.471982 0.357151 -0.806025
vn 0.386496 -0.393489 -0.834138
vn 0.080720 -0.923419 -0.375209
vn -0.270384 -0.910125 0.313951
vn -0.453770 -0.360658 0.814873
vn -0.610677 0.392271 0.687893
vn -0.176830 0.922171 0.343995
vn 0.369975 0.906606 -0.202940
vn 0.697957 0.357151 -0.620725
vn 0.625343 -0.393489 -0.673879
vn 0.192715 -0.923419 -0.331901
vn -0.354167 -0.910125 0.215032
vn -0.683371 -0.360658 0.634768
vn -0.793359 0.392271 0.465516
vn -0.274475 0.922171 0.272515
vn 0.414579 0.906606 -0.078679
vn 0.855611 0.357151 -0.374664
vn 0.802976 -0.393489 -0.447655
vn 0.285846 -0.923419 -0.256105
vn -0.403281 -0.910125 0.095064
vn -0.846078 -0.360658 0.392527
vn -0.898381 0.392271 0.197570
vn -0.345253 0.922171 0.174360
vn 0.418601 0.906606 0.053284
vn 0.929512 0.357151 -0.091928
vn 0.902009 -0.393489 -0.177612
vn 0.350997 -0.923419 -0.155239
vn -0.412920 -0.910125 -0.034210
vn -0.925966 -0.360658 0.111863
vn -0.915464 0.392271 -0.089714
vn -0.382236 0.922171 0.059137
vn 0.381648 0.906606 0.180031
vn 0.912426 0.357151 0.199806
vn 0.912747 -0.393489 0.109817
vn 0.381789 -0.923419 -0.039177
vn -0.382138 -0.910125 -0.160135
vn -0.915213 -0.360658 -0.179751
vn -0.842935 0.392271 -0.368217
vn -0.381802 0.922171 -0.061875
vn 0.307336 0.906606 0.289155
vn 0.806025 0.357151 0.471982
vn 0.834138 -0.393489 0.386496
vn 0.375209 -0.923419 0.080720
vn -0.313951 -0.910125 -0.270384
vn -0.814873 -0.360658 -0.453770
vn -0.687893 0.392271 -0.610677
vn -0.343995 0.922171 -0.176830
vn 0.202940 0.906606 0.369975
vn 0.620725 0.357151 0.697957
vn 0.673879 -0.393489 0.625343
vn 0.331901 -0.923419 0.192715
vn -0.215032 -0.910125 -0.354167
vn -0.634768 -0.360658 -0.683371
vn -0.465516 0.392271 -0.793359
vn -0.272515 0.922171 -0.274475
vn 0.078679 0.906606 0.414579
vn 0.374664 0.357151 0.855611
vn 0.447655 -0.393489 0.802976
vn 0.256105 -0.923419 0.285846
vn -0.095064 -0.910125 -0.403281
vn -0.392527 -0.360658 -0.846078
vn -0.197570 0.392271 -0.898381
vn -0.174360 0.922171 -0.345253
vn -0.053284 0.906606 0.418601
vn 0.091928 0.357151 0.929512
vn 0.177612 -0.393489 0.902009
vn 0.155239 -0.923419 0.350997
vn 0.034210 -0.910125 -0.412920
vn -0.111863 -0.360658 -0.925966
vn 0.089714 0.392271 -0.915464
vn -0.059137 0.922171 -0.382236
vn -0.180031 0.906606 0.381648
vn -0.199806 0.357151 0.912426
vn -0.109817 -0.393489 0.912747
vn 0.039177 -0.923419 0.381789
vn 0.160135 -0.910125 -0.382138
vn 0.179751 -0.360658 -0.915213
vn 0.368217 0.392271 -0.842935
vn 0.061875 0.922171 -0.381802
vn -0.289155 0.906606 0.307336
vn -0.471982 0.357151 0.806025
vn -0.386496 -0.393489 0.834138
vn -0.080720 -0.923419 0.375209
vn 0.270384 -0.910125 -0.313951
vn 0.453770 -0.360658 -0.814873
vn 0.610677 0.392271 -0.687893
vn 0.176830 0.922171 -0.343995
vn -0.369975 0.906606 0.202940
vn -0.697957 0.357151 0.620725
vn -0.625343 -0.393489 0.673879
vn -0.192715 -0.923419 0.331901
vn 0.354167 -0.910125 -0.215032
vn 0.683371 -0.360658 -0.634768
vn 0.793359 0.392271 -0.465516
vn 0.274475 0.922171 -0.272515
vn -0.414579 0.906606 0.078679
vn -0.855611 0.357151 0.374664
vn -0.802976 -0.393489 0.447655
vn -0.285846 -0.923419 0.256105
vn 0.403281 -0.910125 -0.095064
vn 0.846078 -0.360658 -0.392527
vn 0.898381 0.392271 -0.197570
vn 0.345253 0.922171 -0.174360
vn -0.418601 0.906606 -0.053284
vn -0.929512 0.357151 0.091928
vn -0.902009 -0.393489 0.177612
vn -0.350997 -0.923419 0.155239
vn 0.412920 -0.910125 0.034210
vn 0.925966 -0.360658 -0.111863
vn 0.915464 0.392271 0.089714
vn 0.382236 0.922171 -0.059137
vn -0.381648 0.906606 -0.180031
vn -0.912426 0.357151 -0.199806
vn -0.912747 -0.393489 -0.109817
vn -0.381789 -0.923419 0.039177
vn 0.382138 -0.910125 0.160135
vn 0.915213 -0.360658 0.179751
vn 0.842935 0.392271 0.368217
vn 0.381802 0.922171 0.061875
vn -0.307336 0.906606 -0.289155
vn -0.806025 0.357151 -0.471982
vn -0.834138 -0.393489 -0.386496
vn -0.375209 -0.923419 -0.080720
vn 0.313951 -0.910125 0.270384
vn 0.814873 -0.360658 0.453770
vn 0.687893 0.392271 0.610677
vn 0.343995 0.922171 0.176830
vn -0.202940 0.906606 -0.369975
vn -0.620725 0.357151 -0.697957
vn -0.673879 -0.393489 -0.625343
vn -0.331901 -0.923419 -0.192715
vn 0.215032 -0.910125 0.354167
vn 0.634768 -0.360658 0.683371
vn 0.465516 0.392271 0.793359
vn 0.272515 0.922171 0.274475
vn -0.078679 0.906606 -0.414579
vn -0.374664 0.357151 -0.855611
vn -0.447655 -0.393489 -0.802976
vn -0.256105 -0.923419 -0.285846
vn 0.095064 -0.910125 0.403281
vn 0.392527 -0.360658 0.846078
vn 0.197570 0.392271 0.898381
vn 0.174360 0.922171 0.345253
vn 0.053284 0.906606 -0.418601
vn -0.091928 0.357151 -0.929512
vn -0.177612 -0.393489 -0.902009
vn -0.155239 -0.923419 -0.350997
vn -0.034210 -0.910125 0.412920
vn 0.111863 -0.360658 0.925966
vn -0.089714 0.392271 0.915464
vn 0.059137 0.922171 0.382236
vn 0.180031 0.906606 -0.381648
vn 0.199806 0.357151 -0.912426
vn 0.109817 -0.393489 -0.912747
vn -0.039177 -0.923419 -0.381789
vn -0.160135 -0.910125 0.382138
vn -0.179751 -0.360658 0.915213
vn -0.368217 0.392271 0.842935
vn -0.061875 0.922171 0.381802
vn 0.289155 0.906606 -0.307336
vn 0.471982 0.357151 -0.806025
vn 0.386496 -0.393489 -0.834138
vn 0.080720 -0.923419 -0.375209
vn -0.270384 -0.910125 0.313951
vn -0.453770 -0.360658 0.814873
vn -0.610677 0.392271 0.687893
vn -0.176830 0.922171 0.343995
vn 0.369975 0.906606 -0.202940
vn 0.697957 0.357151 -0.620725
vn 0.625343 -0.393489 -0.673879
vn 0.192715 -0.923419 -0.331901
vn -0.354167 -0.910125 0.215032
vn -0.683371 -0.360658 0.634768
vn -0.793359 0.392271 0.465516
vn -0.274475 0.922171 0.272515
vn 0.414579 0.906606 -0.078679
vn 0.855611 0.357151 -0.374664
vn 0.802976 -0.393489 -0.447655
vn 0.285846 -0.923419 -0.256105
vn -0.403281 -0.910125 0.095064
vn -0.846078 -0.360658 0.392527
vn -0.898381 0.392271 0.197570
vn -0.345253 0.922171 0.174360
vn 0.418601 0.906606 0.053284
vn 0.929512 0.357151 -0.091928
vn 0.902009 -0.393489 -0.177612
vn 0.350997 -0.923419 -0.155239
vn -0.412920 -0.910125 -0.034210
vn -0.925966 -0.360658 0.111863
vn -0.915464 0.392271 -0.089714
vn -0.382236 0.922171 0.059137
vn 0.381648 0.906606 0.180031
vn 0.912426 0.357151 0.199806
vn 0.912747 -0.393489 0.109817
vn 0.381789 -0.923419 -0.039177
vn -0.382138 -0.910125 -0.160135
vn -0.915213 -0.360658 -0.179751
vn -0.842935 0.392271 -0.368217
vn -0.381802 0.922171 -0.061875
vn 0.307336 0.906606 0.289155
vn 0.806025 0.357151 0.471982
vn 0.834138 -0.393489 0.386496
vn 0.375209 -0.923419 0.080720
vn -0.313951 -0.910125 -0.270384
vn -0.814873 -0.360658 -0.453770
vn -0.687893 0.392271 -0.610677
vn -0.343995 0.922171 -0.176830
vn 0.202940 0.906606 0.369975
vn 0.620725 0.357151 0.697957
vn 0.673879 -0.393489 0.625343
vn 0.331901 -0.923419 0.192715
vn -0.215032 -0.910125 -0.354167
vn -0.634768 -0.360658 -0.683371
vn -0.465516 0.392271 -0.793359
vn -0.272515 0.922171 -0.274475
vn 0.078679 0.906606 0.414579
vn 0.374664 0.357151 0.855611
vn 0.447655 -0.393489 0.802976
vn 0.256105 -0.923419 0.285846
vn -0.095064 -0.910125 -0.403281
vn -0.392527 -0.360658 -0.846078
vn -0.197570 0.392271 -0.898381
vn -0.174360 0.922171 -0.345253
vn -0.053284 0.906606 0.418601
vn 0.091928 0.357151 0.929512
vn 0.177612 -0.393489 0.902009
vn 0.155239 -0.923419 0.350997
vn 0.034210 -0.910125 -0.412920
vn -0.111863 -0.360658 -0.925966
vn 0.089714 0.392271 -0.915464
vn -0.059137 0.922171 -0.382236
vn -0.180031 0.906606 0.381648
vn -0.199806 0.357151 0.912426
vn -0.109817 -0.393489 0.912747
vn 0.039177 -0.923419 0.381789
vn 0.160135 -0.910125 -0.382138
vn 0.179751 -0.360658 -0.915213
vn 0.368217 0.392271 -0.842935
vn 0.061875 0.922171 -0.381802
vn -0.289155 0.906606 0.307336
vn -0.471982 0.357151 0.806025
vn -0.386496 -0.393489 0.834138
vn -0.080720 -0.923419 0.375209
vn 0.270384 -0.910125 -0.313951
vn 0.453770 -0.360658 -0.814873
vn 0.610677 0.392271 -0.687893
vn 0.176830 0.922171 -0.343995
vn -0.369975 0.906606 0.202940
vn -0.697957 0.357151 0.620725
vn -0.625343 -0.393489 0.673879
vn -0.192715 -0.923419 0.331901
vn 0.354167 -0.910125 -0.215032
vn 0.683371 -0.360658 -0.634768
vn 0.793359 0.392271 -0.465516
vn 0.274475 0.922171 -0.272515
vn -0.414579 0.906606 0.078679
vn -0.855611 0.357151 0.374664
vn -0.802976 -0.393489 0.447655
vn -0.285846 -0.923419 0.256105
vn 0.403281 -0.910125 -0.095064
vn 0.846078 -0.360658 -0.392527
vn 0.898381 0.392271 -0.197570
vn 0.345253 0.922171 -0.174360
vn -0.418601 0.906606 -0.053284
vn -0.929512 0.357151 0.091928
vn -0.902009 -0.393489 0.177612
vn -0.350997 -0.923419 0.155239
vn 0.412920 -0.910125 0.034210
vn 0.925966 -0.360658 -0.111863
vn 0.915464 0.392271 0.089714
vn 0.382236 0.922171 -0.059137
vn -0.381648 0.906606 -0.180031
vn -0.912426 0.357151 -0.199806
vn -0.912747 -0.393489 -0.109817
vn -0.381789 -0.923419 0.039177
vn 0.382138 -0.910125 0.160135
vn 0.915213 -0.360658 0.179751
vn 0.842935 0.392271 0.368217
vn 0.381802 0.922171 0.061875
vn -0.307336 0.906606 -0.289155
vn -0.806025 0.357151 -0.471982
vn -0.834138 -0.393489 -0.386496
vn -0.375209 -0.923419 -0.080720
vn 0.313951 -0.910125 0.270384
vn 0.814873 -0.360658 0.453770
vn 0.687893 0.392271 0.610677
vn 0.343995 0.922171 0.176830
vn -0.202940 0.906606 -0.369975
vn -0.620725 0.357151 -0.697957
vn -0.673879 -0.393489 -0.625343
vn -0.331901 -0.923419 -0.192715
vn 0.215032 -0.910125 0.354167
vn 0.634768 -0.360658 0.683371
vn 0.465516 0.392271 0.793359
vn 0.272515 0.922171 0.274475
vn -0.078679 0.906606 -0.414579
vn -0.374664 0.357151 -0.855611
vn -0.447655 -0.393489 -0.802976
vn -0.256105 -0.923419 -0.285846
vn 0.095064 -0.910125 0.403281
vn 0.392527 -0.360658 0.846078
vn 0.197570 0.392271 0.898381
vn 0.174360 0.922171 0.345253
vn 0.053284 0.906606 -0.418601
vn -0.091928 0.357151 -0.929512
vn -0.177612 -0.393489 -0.902009
vn -0.155239 -0.923419 -0.350997
vn -0.034210 -0.910125 0.412920
vn 0.111863 -0.360658 0.925966
vn -0.089714 0.392271 0.915464
vn 0.059137 0.922171 0.382236
vn 0.180031 0.906606 -0.381648
vn 0.199806 0.357151 -0.912426
vn 0.109817 -0.393489 -0.912747
vn -0.039177 -0.923419 -0.381789
vn -0.160135 -0.910125 0.382138
vn -0.179751 -0.360658 0.915213
vn -0.368217 0.392271 0.842935
vn -0.061875 0.922171 0.381802
vn 0.289155 0.906606 -0.307336
vn 0.471982 0.357151 -0.806025
vn 0.386496 -0.393489 -0.834138
vn 0.080720 -0.923419 -0.375209
vn -0.270384 -0.910125 0.313951
vn -0.453770 -0.360658 0.814873
vn -0.610677 0.392271 0.687893
vn -0.176830 0.922171 0.343995
vn 0.369975 0.906606 -0.202940
vn 0.697957 0.357151 -0.620725
vn 0.625343 -0.393489 -0.673879
vn 0.192715 -0.923419 -0.331901
vn -0.354167 -0.910125 0.215032
vn -0.683371 -0.360658 0.634768
vn -0.793359 0.392271 0.465516
vn -0.274475 0.922171 0.272515
vn 0.414579 0.906606 -0.078679
vn 0.855611 0.357151 -0.374664
vn 0.802976 -0.393489 -0.447655
vn 0.285846 -0.923419 -0.256105
vn -0.403281 -0.910125 0.095064
vn -0.846078 -0.360658 0.392527
vn -0.898381 0.392271 0.197570
vn -0.345253 0.922171 0.174360
vn 0.418601 0.906606 0.053284
vn 0.929512 0.357151 -0.091928
vn 0.902009 -0.393489 -0.177612
vn 0.350997 -0.923419 -0.155239
vn -0.412920 -0.910125 -0.034210
vn -0.925966 -0.360658 0.111863
f 1//1 4//1 3//1 2//1
f 5//2 6//2 7//2 8//2
f 1//3 5//3 8//3 4//3
f 2//4 3//4 7//4 6//4
f 4//5 8//5 7//5 3//5
f 1//6 2//6 6//6 5//6
f 9//7 12//7 11//7 10//7
f 13//8 14//8 15//8 16//8
f 9//9 13//9 16//9 12//9
f 10//10 11//10 15//10 14//10
f 12//11 16//11 15//11 11//11
f 9//12 10//12 14//12 13//12
f 17//13 18//13 26//13 25//13
f 18//14 19//14 27//14 26//14
f 19//15 20//15 28//15 27//15
f 20//16 21//16 29//16 28//16
f 21//17 22//17 30//17 29//17
f 22//18 23//18 31//18 30//18
f 23//19 24//19 32//19 31//19
f 24//20 17//20 25//20 32//20
f 25//21 26//21 34//21 33//21
f 26//22 27//22 35//22 34//22
f 27//23 28//23 36//23 35//23
f 28//24 29//24 37//24 36//24
f 29//25 30//25 38//25 37//25
f 30//26 31//26 39//26 38//26
f 31//27 32//27 40//27 39//27
f 32//28 25//28 33//28 40//28
f 33//29 34//29 42//29 41//29
f 34//30 35//30 43//30 42//30
f 35//31 36//31 44//31 43//31
f 36//32 37//32 45//32 44//32
f 37//33 38//33 46//33 45//33
f 38//34 39//34 47//34 46//34
f 39//35 40//35 48//35 47//35
f 40//36 33//36 41//36 48//36
f 41//37 42//37 50//37 49//37
f 42//38 43//38 51//38 50//38
f 43//39 44//39 52//39 51//39
f 44//40 45//40 53//40 52//40
f 45//41 46//41 54//41 53//41
f 46//42 47//42 55//42 54//42
f 47//43 48//43 56//43 55//43
f 48//44 41//44 49//44 56//44
f 49//45 50//45 58//45 57//45
f 50//46 51//46 59//46 58//46
f 51//47 52//47 60//47 59//47
f 52//48 53//48 61//48 60//48
f 53//49 54//49 62//49 61//49
f 54//50 55//50 63//50 62//50
f 55//51 56//51 64//51 63//51
f 56//52 49//52 57//52 64//52
f 57//53 58//53 66//53 65//53
f 58//54 59//54 67//54 66//54
f 59//55 60//55 68//55 67//55
f 60//56 61//56 69//56 68//56
f 61//57 62//57 70//57 69//57
f 62//58 63//58 71//58 70//58
f 63//59 64//59 72//59 71//59
f 64//60 57//60 65//60 72//60
f 65//61 66//61 74//61 73//61
f 66//62 67//62 75//62 74//62
f 67//63 68//63 76//63 75//63
f 68//64 69//64 77//64 76//64
f 69//65 70//65 78//65 77//65
f 70//66 71//66 79//66 78//66
f 71//67 72//67 80//67 79//67
f 72//68 65//68 73//68 80//68
f 73//69 74//69 82//69 81//69
f 74//70 75//70 83//70 82//70
f 75//71 76//71 84//71 83//71
f 76//72 77//72 85//72 84//72
f 77//73 78//73 86//73 85//73
f 78//74 79//74 87//74 86//74
f 79//75 80//75 88//75 87//75
f 80//76 73//76 81//76 88//76
f 81//77 82//77 90//77 89//77
f 82//78 83//78 91//78 90//78
f 83//79 84//79 92//79 91//79
f 84//80 85//80 93//80 92//80
f 85//81 86//81 94//81 93//81
f 86//82 87//82 95//82 94//82
f 87//83 88//83 96//83 95//83
f 88//84 81//84 89//84 96//84
f 89//85 90//85 98//85 97//85
f 90//86 91//86 99//86 98//86
f 91//87 92//87 100//87 99//87
f 92//88 93//88 101//88 100//88
f 93//89 94//89 102//89 101//89
f 94//90 95//90 103//90 102//90
f 95//91 96//91 104//91 103//91
f 96//92 89//92 97//92 104//92
f 97//93 98//93 106//93 105//93
f 98//94 99//94 107//94 106//94
f 99//95 100//95 108//95 107//95
f 100//96 101//96 109//96 108//96
f 101//97 102//97 110//97 109//97
f 102//98 103//98 111//98 110//98
f 103//99 104//99 112//99 111//99
f 104//100 97//100 105//100 112//100
f 105//101 106//101 114//101 113//101
f 106//102 107//102 115//102 114//102
f 107//103 108//103 116//103 115//103
f 108//104 109//104 117//104 116//104
f 109//105 110//105 118//105 117//105
f 110//106 111//106 119//106 118//106
f 111//107 112//107 120//107 119//107
f 112//108 105//108 113//108 120//108
f 113//109 114//109 122//109 121//109
f 114//110 115//110 123//110 122//110
f 115//111 116//111 124//111 123//111
f 116//112 117//112 125//112 124//112
f 117//113 118//113 126//113 125//113
f 118//114 119//114 127//114 126//114
f 119//115 120//115 128//115 127//115
f 120//116 113//116 121//116 128//116
f 121//117 122//117 130//117 129//117
f 122//118 123//118 131//118 130//118
f 123//119 124//119 132//119 131//119
f 124//120 125//120 133//120 132//120
f 125//121 126//121 134//121 133//121
f 126//122 127//122 135//122 134//122
f 127//123 128//123 136//123 135//123
f 128//124 121//124 129//124 136//124
f 129//125 130//125 138//125 137//125
f 130//126 131//126 139//126 138//126
f 131//127 132//127 140//127 139//127
f 132//128 133//128 141//128 140//128
f 133//129 134//129 142//129 141//129
f 134//130 135//130 143//130 142//130
f 135//131 136//131 144//131 143//131
f 136//132 129//132 137//132 144//132
f 137//133 138//133 146//133 145//133
f 138//134 139//134 147//134 146//134
f 139//135 140//135 148//135 147//135
f 140//136 141//136 149//136 148//136
f 141//137 142//137 150//137 149//137
f 142//138 143//138 151//138 150//138
f 143//139 144//139 152//139 151//139
f 144//140 137//140 145//140 152//140
f 145//141 146//141 154//141 153//141
f 146//142 147//142 155//142 154//142
f 147//143 148//143 156//143 155//143
f 148//144 149//144 157//144 156//144
f 149//145 150//145 158//145 157//145
f 150//146 151//146 159//146 158//146
f 151//147 152//147 160//147 159//147
f 152//148 145//148 153//148 160//148
f 153//149 154//149 162//149 161//149
f 154//150 155//150 163//150 162//150
f 155//151 156//151 164//151 163//151
f 156//152 157//152 165//152 164//152
f 157//153 158//153 166//153 165//153
f 158//154 159//154 167//154 166//154
f 159//155 160//155 168//155 167//155
f 160//156 153//156 161//156 168//156
f 161//157 162//157 170//157 169//157
f 162//158 163//158 171//158 170//158
f 163//159 164//159 172//159 171//159
f 164//160 165//160 173//160 172//160
f 165//161 166//161 174//161 173//161
f 166//162 167//162 175//162 174//162
f 167//163 168//163 176//163 175//163
f 168//164 161//164 169//164 176//164
f 169//165 170//165 178//165 177//165
f 170//166 171//166 179//166 178//166
f 171//167 172//167 180//167 179//167
f 172//168 173//168 181//168 180//168
f 173//169 174//169 182//169 181//169
f 174//170 175//170 183//170 182//170
f 175//171 176//171 184//171 183//171
f 176//172 169//172 177//172 184//172
f 177//173 178//173 186//173 185//173
f 178//174 179//174 187//174 186//174
f 179//175 180//175 188//175 187//175
f 180//176 181//176 189//176 188//176
f 181//177 182//177 190//177 189//177
f 182//178 183//178 191//178 190//178
f 183//179 184//179 192//179 191//179
f 184//180 177//180 185//180 192//180
f 185//181 186//181 194//181 193//181
f 186//182 187//182 195//182 194//182
f 187//183 188//183 196//183 195//183
f 188//184 189//184 197//184 196//184
f 189//185 190//185 198//185 197//185
f 190//186 191//186 199//186 198//186
f 191//187 192//187 200//187 199//187
f 192//188 185//188 193//188 200//188
f 193//189 194//189 202//189 201//189
f 194//190 195//190 203//190 202//190
f 195//191 196//191 204//191 203//191
f 196//192 197//192 205//192 204//192
f 197//193 198//193 206//193 205//193
f 198//194 199//194 207//194 206//194
f 199//195 200//195 208//195 207//195
f 200//196 193//196 201//196 208//196
f 201//197 202//197 210//197 209//197
f 202//198 203//198 211//198 210//198
f 203//199 204//199 212//199 211//199
f 204//200 205//200 213//200 212//200
f 205//201 206//201 214//201 213//201
f 206//202 207//202 215//202 214//202
f 207//203 208//203 216//203 215//203
f 208//204 201//204 209//204 216//204
f 209//205 210//205 218//205 217//205
f 210//206 211//206 219//206 218//206
f 211//207 212//207 220//207 219//207
f 212//208 213//208 221//208 220//208
f 213//209 214//209 222//209 221//209
f 214//210 215//210 223//210 222//210
f 215//211 216//211 224//211 223//211
f 216//212 209//212 217//212 224//212
f 217//213 218//213 226//213 225//213
f 218//214 219//214 227//214 226//214
f 219//215 220//215 228//215 227//215
f 220//216 221//216 229//216 228//216
f 221//217 222//217 230//217 229//217
f 222//218 223//218 231//218 230//218
f 223//219 224//219 232//219 231//219
f 224//220 217//220 225//220 232//220
f 225//221 226//221 234//221 233//221
f 226//222 227//222 235//222 234//222
f 227//223 228//223 236//223 235//223
f 228//224 229//224 237//224 236//224
f 229//225 230//225 238//225 237//225
f 230//226 231//226 239//226 238//226
f 231//227 232//227 240//227 239//227
f 232//228 225//228 233//228 240//228
f 233//229 234//229 242//229 241//229
f 234//230 235//230 243//230 242//230
f 235//231 236//231 244//231 243//231
f 236//232 237//232 245//232 244//232
f 237//233 238//233 246//233 245//233
f 238//234 239//234 247//234 246//234
f 239//235 240//235 248//235 247//235
f 240//236 233//236 241//236 248//236
f 241//237 242//237 250//237 249//237
f 242//238 243//238 251//238 250//238
f 243//239 244//239 252//239 251//239
f 244//240 245//240 253//240 252//240
f 245//241 246//241 254//241 253//241
f 246//242 247//242 255//242 254//242
f 247//243 248//243 256//243 255//243
f 248//244 241//244 249//244 256//244
f 249//245 250//245 258//245 257//245
f 250//246 251//246 259//246 258//246
f 251//247 252//247 260//247 259//247
f 252//248 253//248 261//248 260//248
f 253//249 254//249 262//249 261//249
f 254//250 255//250 263//250 262//250
f 255//251 256//251 264//251 263//251
f 256//252 249//252 257//252 264//252
f 257//253 258//253 266//253 265//253
f 258//254 259//254 267//254 266//254
f 259//255 260//255 268//255 267//255
f 260//256 261//256 269//256 268//256
f 261//257 262//257 270//257 269//257
f 262//258 263//258 271//258 270//258
f 263//259 264//259 272//259 271//259
f 264//260 257//260 265//260 272//260
f 265//261 266//261 274//261 273//261
f 266//262 267//262 275//262 274//262
f 267//263 268//263 276//263 275//263
f 268//264 269//264 277//264 276//264
f 269//265 270//265 278//265 277//265
f 270//266 271//266 279//266 278//266
f 271//267 272//267 280//267 279//267
f 272//268 265//268 273//268 280//268
f 273//269 274//269 282//269 281//269
f 274//270 275//270 283//270 282//270
f 275//271 276//271 284//271 283//271
f 276//272 277//272 285//272 284//272
f 277//273 278//273 286//273 285//273
f 278//274 279//274 287//274 286//274
f 279//275 280//275 288//275 287//275
f 280//276 273//276 281//276 288//276
f 281//277 282//277 290//277 289//277
f 282//278 283//278 291//278 290//278
f 283//279 284//279 292//279 291//279
f 284//280 285//280 293//280 292//280
f 285//281 286//281 294//281 293//281
f 286//282 287//282 295//282 294//282
f 287//283 288//283 296//283 295//283
f 288//284 281//284 289//284 296//284
f 289//285 290//285 298//285 297//285
f 290//286 291//286 299//286 298//286
f 291//287 292//287 300//287 299//287
f 292//288 293//288 301//288 300//288
f 293//289 294//289 302//289 301//289
f 294//290 295//290 303//290 302//290
f 295//291 296//291 304//291 303//291
f 296//292 289//292 297//292 304//292
f 297//293 298//293 306//293 305//293
f 298//294 299//294 307//294 306//294
f 299//295 300//295 308//295 307//295
f 300//296 301//296 309//296 308//296
f 301//297 302//297 310//297 309//297
f 302//298 303//298 311//298 310//298
f 303//299 304//299 312//299 311//299
f 304//300 297//300 305//300 312//300
f 305//301 306//301 314//301 313//301
f 306//302 307//302 315//302 314//302
f 307//303 308//303 316//303 315//303
f 308//304 309//304 317//304 316//304
f 309//305 310//305 318//305 317//305
f 310//306 311//306 319//306 318//306
f 311//307 312//307 320//307 319//307
f 312//308 305//308 313//308 320//308
f 313//309 314//309 322//309 321//309
f 314//310 315//310 323//310 322//310
f 315//311 316//311 324//311 323//311
f 316//312 317//312 325//312 324//312
f 317//313 318//313 326//313 325//313
f 318//314 319//314 327//314 326//314
f 319//315 320//315 328//315 327//315
f 320//316 313//316 321//316 328//316
f 321//317 322//317 330//317 329//317
f 322//318 323//318 331//318 330//318
f 323//319 324//319 332//319 331//319
f 324//320 325//320 333//320 332//320
f 325//321 326//321 334//321 333//321
f 326//322 327//322 335//322 334//322
f 327//323 328//323 336//323 335//323
f 328//324 321//324 329//324 336//324
f 329//325 330//325 338//325 337//325
f 330//326 331//326 339//326 338//326
f 331//327 332//327 340//327 339//327
f 332//328 333//328 341//328 340//328
f 333//329 334//329 342//329 341//329
f 334//330 335//330 343//330 342//330
f 335//331 336//331 344//331 343//331
f 336//332 329//332 337//332 344//332
f 337//333 338//333 346//333 345//333
f 338//334 339//334 347//334 346//334
f 339//335 340//335 348//335 347//335
f 340//336 341//336 349//336 348//336
f 341//337 342//337 350//337 349//337
f 342//338 343//338 351//338 350//338
f 343//339 344//339 352//339 351//339
f 344//340 337//340 345//340 352//340
f 345//341 346//341 354//341 353//341
f 346//342 347//342 355//342 354//342
f 347//343 348//343 356//343 355//343
f 348//344 349//344 357//344 356//344
f 349//345 350//345 358//345 357//345
f 350//346 351//346 359//346 358//346
f 351//347 352//347 360//347 359//347
f 352//348 345//348 353//348 360//348
f 353//349 354//349 362//349 361//349
f 354//350 355//350 363//350 362//350
f 355//351 356//351 364//351 363//351
f 356//352 357//352 365//352 364//352
f 357//353 358//353 366//353 365//353
f 358//354 359//354 367//354 366//354
f 359//355 360//355 368//355 367//355
f 360//356 353//356 361//356 368//356
f 361//357 362//357 370//357 369//357
f 362//358 363//358 371//358 370//358
f 363//359 364//359 372//359 371//359
f 364//360 365//360 373//360 372//360
f 365//361 366//361 374//361 373//361
f 366//362 367//362 375//362 374//362
f 367//363 368//363 376//363 375//363
f 368//364 361//364 369//364 376//364
f 369//365 370//365 378//365 377//365
f 370//366 371//366 379//366 378//366
f 371//367 372//367 380//367 379//367
f 372//368 373//368 381//368 380//368
f 373//369 374//369 382//369 381//369
f 374//370 375//370 383//370 382//370
f 375//371 376//371 384//371 383//371
f 376//372 369//372 377//372 384//372
f 377//373 378//373 386//373 385//373
f 378//374 379//374 387//374 386//374
f 379//375 380//375 388//375 387//375
f 380//376 381//376 389//376 388//376
f 381//377 382//377 390//377 389//377
f 382//378 383//378 391//378 390//378
f 383//379 384//379 392//379 391//379
f 384//380 377//380 385//380 392//380
f 385//381 386//381 394//381 393//381
f 386//382 387//382 395//382 394//382
f 387//383 388//383 396//383 395//383
f 388//384 389//384 397//384 396//384
f 389//385 390//385 398//385 397//385
f 390//386 391//386 399//386 398//386
f 391//387 392//387 400//387 399//387
f 392//388 385//388 393//388 400//388
f 393//389 394//389 402//389 401//389
f 394//390 395//390 403//390 402//390
f 395//391 396//391 404//391 403//391
f 396//392 397//392 405//392 404//392
f 397//393 398//393 406//393 405//393
f 398//394 399//394 407//394 406//394
f 399//395 400//395 408//395 407//395
f 400//396 393//396 401//396 408//396
f 401//397 402//397 410//397 409//397
f 402//398 403//398 411//398 410//398
f 403//399 404//399 412//399 411//399
f 404//400 405//400 413//400 412//400
f 405//401 406//401 414//401 413//401
f 406//402 407//402 415//402 414//402
f 407//403 408//403 416//403 415//403
f 408//404 401//404 409//404 416//404
f 409//405 410//405 418//405 417//405
f 410//406 411//406 419//406 418//406
f 411//407 412//407 420//407 419//407
f 412//408 413//408 421//408 420//408
f 413//409 414//409 422//409 421//409
f 414//410 415//410 423//410 422//410
f 415//411 416//411 424//411 423//411
f 416//412 409//412 417//412 424//412
f 417//413 418//413 426//413 425//413
f 418//414 419//414 427//414 426//414
f 419//415 420//415 428//415 427//415
f 420//416 421//416 429//416 428//416
f 421//417 422//417 430//417 429//417
f 422//418 423//418 431//418 430//418
f 423//419 424//419 432//419 431//419
f 424//420 417//420 425//420 432//420
f 425//421 426//421 434//421 433//421
f 426//422 427//422 435//422 434//422
f 427//423 428//423 436//423 435//423
f 428//424 429//424 437//424 436//424
f 429//425 430//425 438//425 437//425
f 430//426 431//426 439//426 438//426
f 431//427 432//427 440//427 439//427
f 432//428 425//428 433//428 440//428
f 433//429 434//429 442//429 441//429
f 434//430 435//430 443//430 442//430
f 435//431 436//431 444//431 443//431
f 436//432 437//432 445//432 444//432
f 437//433 438//433 446//433 445//433
f 438//434 439//434 447//434 446//434
f 439//435 440//435 448//435 447//435
f 440//436 433//436 441//436 448//436
f 441//437 442//437 450//437 449//437
f 442//438 443//438 451//438 450//438
f 443//439 444//439 452//439 451//439
f 444//440 445//440 453//440 452//440
f 445//441 446//441 454//441 453//441
f 446//442 447//442 455//442 454//442
f 447//443 448//443 456//443 455//443
f 448//444 441//444 449//444 456//444
f 449//445 450//445 458//445 457//445
f 450//446 451//446 459//446 458//446
f 451//447 452//447 460//447 459//447
f 452//448 453//448 461//448 460//448
f 453//449 454//449 462//449 461//449
f 454//450 455//450 463//450 462//450
f 455//451 456//451 464//451 463//451
f 456//452 449//452 457//452 464//452
f 457//453 458//453 466//453 465//453
f 458//454 459//454 467//454 466//454
f 459//455 460//455 468//455 467//455
f 460//456 461//456 469//456 468//456
f 461//457 462//457 470//457 469//457
f 462//458 463//458 471//458 470//458
f 463//459 464//459 472//459 471//459
f 464//460 457//460 465//460 472//460
f 465//461 466//461 474//461 473//461
f 466//462 467//462 475//462 474//462
f 467//463 468//463 476//463 475//463
f 468//464 469//464 477//464 476//464
f 469//465 470//465 478//465 477//465
f 470//466 471//466 479//466 478//466
f 471//467 472//467 480//467 479//467
f 472//468 465//468 473//468 480//468
f 473//469 474//469 482//469 481//469
f 474//470 475//470 483//470 482//470
f 475//471 476//471 484//471 483//471
f 476//472 477//472 485//472 484//472
f 477//473 478//473 486//473 485//473
f 478//474 479//474 487//474 486//474
f 479//475 480//475 488//475 487//475
f 480//476 473//476 481//476 488//476
f 481//477 482//477 490//477 489//477
f 482//478 483//478 491//478 490//478
f 483//479 484//479 492//479 491//479
f 484//480 485//480 493//480 492//480
f 485//481 486//481 494//481 493//481
f 486//482 487//482 495//482 494//482
f 487//483 488//483 496//483 495//483
f 488//484 481//484 489//484 496//484
f 489//485 490//485 498//485 497//485
f 490//486 491//486 499//486 498//486
f 491//487 492//487 500//487 499//487
f 492//488 493//488 501//488 500//488
f 493//489 494//489 502//489 501//489
f 494//490 495//490 503//490 502//490
f 495//491 496//491 504//491 503//491
f 496//492 489//492 497//492 504//492
f 497//493 498//493 506//493 505//493
f 498//494 499//494 507//494 506//494
f 499//495 500//495 508//495 507//495
f 500//496 501//496 509//496 508//496
f 501//497 502//497 510//497 509//497
f 502//498 503//498 511//498 510//498
f 503//499 504//499 512//499 511//499
f 504//500 497//500 505//500 512//500
f 505//501 506//501 514//501 513//501
f 506//502 507//502 515//502 514//502
f 507//503 508//503 516//503 515//503
f 508//504 509//504 517//504 516//504
f 509//505 510//505 518//505 517//505
f 510//506 511//506 519//506 518//506
f 511//507 512//507 520//507 519//507
f 512//508 505//508 513//508 520//508
f 513//509 514//509 522//509 521//509
f 514//510 515//510 523//510 522//510
f 515//511 516//511 524//511 523//511
f 516//512 517//512 525//512 524//512
f 517//513 518//513 526//513 525//513
f 518//514 519//514 527//514 526//514
f 519//515 520//515 528//515 527//515
f 520//516 513//516 521//516 528//516
f 521//517 522//517 530//517 529//517
f 522//518 523//518 531//518 530//518
f 523//519 524//519 532//519 531//519
f 524//520 525//520 533//520 532//520
f 525//521 526//521 534//521 533//521
f 526//522 527//522 535//522 534//522
f 527//523 528//523 536//523 535//523
f 528//524 521//524 529//524 536//524
f 529//525 530//525 538//525 537//525
f 530//526 531//526 539//526 538//526
f 531//527 532//527 540//527 539//527
f 532//528 533//528 541//528 540//528
f 533//529 534//529 542//529 541//529
f 534//530 535//530 543//530 542//530
f 535//531 536//531 544//531 543//531
f 536//532 529//532 537//532 544//532
f 537//533 538//533 546//533 545//533
f 538//534 539//534 547//534 546//534
f 539//535 540//535 548//535 547//535
f 540//536 541//536 549//536 548//536
f 541//537 542//537 550//537 549//537
f 542//538 543//538 551//538 550//538
f 543//539 544//539 552//539 551//539
f 544//540 537//540 545//540 552//540
f 545//541 546//541 554//541 553//541
f 546//542 547//542 555//542 554//542
f 547//543 548//543 556//543 555//543
f 548//544 549//544 557//544 556//544
f 549//545 550//545 558//545 557//545
f 550//546 551//546 559//546 558//546
f 551//547 552//547 560//547 559//547
f 552//548 545//548 553//548 560//548
f 553//549 554//549 562//549 561//549
f 554//550 555//550 563//550 562//550
f 555//551 556//551 564//551 563//551
f 556//552 557//552 565//552 564//552
f 557//553 558//553 566//553 565//553
f 558//554 559//554 567//554 566//554
f 559//555 560//555 568//555 567//555
f 560//556 553//556 561//556 568//556
f 561//557 562//557 570//557 569//557
f 562//558 563//558 571//558 570//558
f 563//559 564//559 572//559 571//559
f 564//560 565//560 573//560 572//560
f 565//561 566//561 574//561 573//561
f 566//562 567//562 575//562 574//562
f 567//563 568//563 576//563 575//563
f 568//564 561//564 569//564 576//564
f 569//565 570//565 578//565 577//565
f 570//566 571//566 579//566 578//566
f 571//567 572//567 580//567 579//567
f 572//568 573//568 581//568 580//568
f 573//569 574//569 582//569 581//569
f 574//570 575//570 583//570 582//570
f 575//571 576//571 584//571 583//571
f 576//572 569//572 577//572 584//572
