# Blender 4.5.8 LTS
# www.blender.org
mtllib Gear.mtl
o Gear
v 0.000000 0.375000 -0.150000
v 0.000000 0.050000 -0.450000
v 0.000000 0.416701 -0.150000
v 0.009755 0.049039 -0.450000
v 0.073159 0.367794 -0.150000
v 0.019134 0.046194 -0.450000
v 0.027779 0.041573 -0.450000
v 0.081294 0.408695 -0.150000
v 0.143506 0.346455 -0.150000
v 0.035355 0.035355 -0.450000
v 0.041573 0.027779 -0.450000
v 0.159465 0.384982 -0.150000
v 0.046194 0.019134 -0.450000
v 0.208339 0.311801 -0.150000
v 0.049039 0.009755 -0.450000
v 0.231507 0.346475 -0.150000
v 0.050000 -0.000000 -0.450000
v 0.265165 0.265165 -0.150000
v 0.049039 -0.009755 -0.450000
v 0.294652 0.294652 -0.150000
v 0.046194 -0.019134 -0.450000
v 0.311801 0.208339 -0.150000
v 0.041573 -0.027779 -0.450000
v 0.346475 0.231507 -0.150000
v 0.346455 0.143506 -0.150000
v 0.035355 -0.035355 -0.450000
v 0.384982 0.159465 -0.150000
v 0.027779 -0.041573 -0.450000
v 0.408695 0.081294 -0.150000
v 0.019134 -0.046194 -0.450000
v 0.009755 -0.049039 -0.450000
v 0.367794 0.073159 -0.150000
v 0.000000 -0.050000 -0.450000
v 0.416701 -0.000000 -0.150000
v -0.009755 -0.049039 -0.450000
v 0.375000 -0.000000 -0.150000
v -0.019134 -0.046194 -0.450000
v 0.367794 -0.073159 -0.150000
v 0.408695 -0.081294 -0.150000
v -0.027779 -0.041573 -0.450000
v 0.346455 -0.143506 -0.150000
v -0.035355 -0.035355 -0.450000
v -0.041573 -0.027779 -0.450000
v 0.384982 -0.159465 -0.150000
v -0.046194 -0.019134 -0.450000
v 0.346475 -0.231507 -0.150000
v -0.049039 -0.009755 -0.450000
v 0.311801 -0.208339 -0.150000
v -0.050000 -0.000000 -0.450000
v 0.265165 -0.265165 -0.150000
v 0.294652 -0.294652 -0.150000
v -0.049039 0.009755 -0.450000
v -0.046194 0.019134 -0.450000
v 0.208339 -0.311801 -0.150000
v -0.041573 0.027779 -0.450000
v 0.231507 -0.346475 -0.150000
v 0.143506 -0.346455 -0.150000
v -0.035355 0.035355 -0.450000
v -0.027779 0.041573 -0.450000
v 0.159465 -0.384982 -0.150000
v 0.081294 -0.408695 -0.150000
v -0.019134 0.046194 -0.450000
v 0.073159 -0.367794 -0.150000
v -0.009755 0.049039 -0.450000
v 0.000000 -0.375000 -0.150000
v 0.000000 -0.000000 -0.450000
v 0.000000 0.050000 0.450000
v 0.000000 -0.416701 -0.150000
v 0.009755 0.049039 0.450000
v -0.073159 -0.367794 -0.150000
v -0.081294 -0.408695 -0.150000
v 0.019134 0.046194 0.450000
v -0.143506 -0.346455 -0.150000
v 0.027779 0.041573 0.450000
v -0.159465 -0.384982 -0.150000
v 0.035355 0.035355 0.450000
v -0.231507 -0.346475 -0.150000
v 0.041573 0.027779 0.450000
v -0.208339 -0.311801 -0.150000
v 0.046194 0.019134 0.450000
v -0.265165 -0.265165 -0.150000
v 0.049039 0.009755 0.450000
v 0.050000 0.000000 0.450000
v -0.294652 -0.294652 -0.150000
v 0.049039 -0.009755 0.450000
v -0.311801 -0.208339 -0.150000
v -0.346475 -0.231507 -0.150000
v 0.046194 -0.019134 0.450000
v -0.384982 -0.159465 -0.150000
v 0.041573 -0.027779 0.450000
v 0.035355 -0.035355 0.450000
v -0.346455 -0.143506 -0.150000
v -0.367794 -0.073159 -0.150000
v 0.027779 -0.041573 0.450000
v 0.019134 -0.046194 0.450000
v -0.408695 -0.081294 -0.150000
v 0.009755 -0.049039 0.450000
v -0.416701 -0.000000 -0.150000
v 0.000000 -0.050000 0.450000
v -0.375000 -0.000000 -0.150000
v -0.009755 -0.049039 0.450000
v -0.367794 0.073159 -0.150000
v -0.019134 -0.046194 0.450000
v -0.408695 0.081294 -0.150000
v -0.027779 -0.041573 0.450000
v -0.346455 0.143506 -0.150000
v -0.035355 -0.035355 0.450000
v -0.384982 0.159465 -0.150000
v -0.041573 -0.027779 0.450000
v -0.311801 0.208339 -0.150000
v -0.346475 0.231507 -0.150000
v -0.046194 -0.019134 0.450000
v -0.265165 0.265165 -0.150000
v -0.049039 -0.009755 0.450000
v -0.294652 0.294652 -0.150000
v -0.050000 0.000000 0.450000
v -0.049039 0.009755 0.450000
v -0.231507 0.346475 -0.150000
v -0.208339 0.311801 -0.150000
v -0.046194 0.019134 0.450000
v -0.159465 0.384982 -0.150000
v -0.041573 0.027779 0.450000
v -0.035355 0.035355 0.450000
v -0.143506 0.346455 -0.150000
v -0.027779 0.041573 0.450000
v -0.073159 0.367794 -0.150000
v -0.081294 0.408695 -0.150000
v -0.019134 0.046194 0.450000
v -0.009755 0.049039 0.450000
v 0.000000 0.416701 0.150000
v 0.000000 0.000000 0.450000
v 0.000000 0.375000 0.150000
v 0.081294 0.408695 0.150000
v 0.073159 0.367794 0.150000
v 0.143506 0.346455 0.150000
v 0.159465 0.384982 0.150000
v 0.208339 0.311801 0.150000
v 0.231507 0.346475 0.150000
v 0.265165 0.265165 0.150000
v 0.294652 0.294652 0.150000
v 0.311801 0.208339 0.150000
v 0.346475 0.231507 0.150000
v 0.346455 0.143506 0.150000
v 0.384982 0.159465 0.150000
v 0.367794 0.073159 0.150000
v 0.408695 0.081294 0.150000
v 0.375000 0.000000 0.150000
v 0.416701 0.000000 0.150000
v 0.408695 -0.081294 0.150000
v 0.367794 -0.073159 0.150000
v 0.384982 -0.159465 0.150000
v 0.346455 -0.143506 0.150000
v 0.346475 -0.231507 0.150000
v 0.311801 -0.208339 0.150000
v 0.294652 -0.294652 0.150000
v 0.265165 -0.265165 0.150000
v 0.231507 -0.346475 0.150000
v 0.208339 -0.311801 0.150000
v 0.143506 -0.346455 0.150000
v 0.159465 -0.384982 0.150000
v 0.081294 -0.408695 0.150000
v 0.073159 -0.367794 0.150000
v 0.000000 -0.375000 0.150000
v 0.000000 -0.416701 0.150000
v -0.073159 -0.367794 0.150000
v -0.081294 -0.408695 0.150000
v -0.143506 -0.346455 0.150000
v -0.159465 -0.384982 0.150000
v -0.208339 -0.311801 0.150000
v -0.231507 -0.346475 0.150000
v -0.265165 -0.265165 0.150000
v -0.294652 -0.294652 0.150000
v -0.311801 -0.208339 0.150000
v -0.346475 -0.231507 0.150000
v -0.346455 -0.143506 0.150000
v -0.384982 -0.159465 0.150000
v -0.367794 -0.073159 0.150000
v -0.408695 -0.081294 0.150000
v -0.416701 0.000000 0.150000
v -0.375000 0.000000 0.150000
v -0.408695 0.081294 0.150000
v -0.367794 0.073159 0.150000
v -0.384982 0.159465 0.150000
v -0.346455 0.143506 0.150000
v -0.311801 0.208339 0.150000
v -0.346475 0.231507 0.150000
v -0.265165 0.265165 0.150000
v -0.294652 0.294652 0.150000
v -0.231507 0.346475 0.150000
v -0.208339 0.311801 0.150000
v -0.143506 0.346455 0.150000
v -0.159465 0.384982 0.150000
v -0.073159 0.367794 0.150000
v -0.081294 0.408695 0.150000
v -0.105592 0.488792 -0.150000
v -0.183762 0.465079 -0.150000
v -0.183762 0.465079 0.150000
v -0.105592 0.488792 0.150000
v 0.411177 0.284607 -0.150000
v 0.359355 0.347752 -0.150000
v 0.359355 0.347752 0.150000
v 0.411177 0.284607 0.150000
v -0.270964 -0.420293 -0.150000
v -0.198921 -0.458800 -0.150000
v -0.198921 -0.458800 0.150000
v -0.270964 -0.420293 0.150000
v 0.488792 0.105592 -0.150000
v 0.465079 0.183762 -0.150000
v 0.465079 0.183762 0.150000
v 0.488792 0.105592 0.150000
v -0.411177 -0.284607 -0.150000
v -0.359355 -0.347752 -0.150000
v -0.359355 -0.347752 0.150000
v -0.411177 -0.284607 0.150000
v 0.491993 -0.089499 -0.150000
v 0.500000 -0.008204 -0.150000
v 0.500000 -0.008204 0.150000
v 0.491993 -0.089499 0.150000
v -0.488792 -0.105592 -0.150000
v -0.465079 -0.183762 -0.150000
v -0.465079 -0.183762 0.150000
v -0.488792 -0.105592 0.150000
v 0.420293 -0.270964 -0.150000
v 0.458800 -0.198921 -0.150000
v 0.458800 -0.198921 0.150000
v 0.420293 -0.270964 0.150000
v -0.491993 0.089499 -0.150000
v -0.500000 0.008204 -0.150000
v -0.500000 0.008204 0.150000
v -0.491993 0.089499 0.150000
v 0.284607 -0.411177 -0.150000
v 0.347752 -0.359355 -0.150000
v 0.347752 -0.359355 0.150000
v 0.284607 -0.411177 0.150000
v -0.420293 0.270964 -0.150000
v -0.458800 0.198921 -0.150000
v -0.458800 0.198921 0.150000
v -0.420293 0.270964 0.150000
v 0.089499 0.491993 -0.150000
v 0.008204 0.500000 -0.150000
v 0.008204 0.500000 0.150000
v 0.089499 0.491993 0.150000
v 0.105592 -0.488792 -0.150000
v 0.183762 -0.465079 -0.150000
v 0.183762 -0.465079 0.150000
v 0.105592 -0.488792 0.150000
v -0.284607 0.411177 -0.150000
v -0.347752 0.359355 -0.150000
v -0.347752 0.359355 0.150000
v -0.284607 0.411177 0.150000
v 0.270964 0.420293 -0.150000
v 0.198921 0.458800 -0.150000
v 0.198921 0.458800 0.150000
v 0.270964 0.420293 0.150000
v -0.089499 -0.491993 -0.150000
v -0.008204 -0.500000 -0.150000
v -0.008204 -0.500000 0.150000
v -0.089499 -0.491993 0.150000
v -0.392314 0.078036 -0.150000
v -0.400000 -0.000000 -0.150000
v -0.369552 0.153073 -0.150000
v -0.332588 0.222228 -0.150000
v -0.282843 0.282843 -0.150000
v -0.222228 0.332588 -0.150000
v -0.153073 0.369552 -0.150000
v -0.078036 0.392314 -0.150000
v 0.000000 0.400000 -0.150000
v 0.078036 0.392314 -0.150000
v 0.153073 0.369552 -0.150000
v 0.222228 0.332588 -0.150000
v 0.282843 0.282843 -0.150000
v 0.332588 0.222228 -0.150000
v 0.369552 0.153073 -0.150000
v 0.392314 0.078036 -0.150000
v 0.400000 -0.000000 -0.150000
v 0.392314 -0.078036 -0.150000
v 0.369552 -0.153073 -0.150000
v 0.332588 -0.222228 -0.150000
v 0.282843 -0.282843 -0.150000
v 0.222228 -0.332588 -0.150000
v 0.153073 -0.369552 -0.150000
v 0.078036 -0.392314 -0.150000
v 0.000000 -0.400000 -0.150000
v -0.078036 -0.392314 -0.150000
v -0.153073 -0.369552 -0.150000
v -0.222228 -0.332588 -0.150000
v -0.282843 -0.282843 -0.150000
v -0.332588 -0.222228 -0.150000
v -0.369552 -0.153073 -0.150000
v -0.392314 -0.078036 -0.150000
v -0.392314 0.078036 0.150000
v -0.369552 0.153073 0.150000
v -0.332588 0.222228 0.150000
v -0.282843 0.282843 0.150000
v -0.222228 0.332588 0.150000
v -0.153073 0.369552 0.150000
v -0.078036 0.392314 0.150000
v 0.000000 0.400000 0.150000
v 0.078036 0.392314 0.150000
v 0.153073 0.369552 0.150000
v 0.222228 0.332588 0.150000
v 0.282843 0.282843 0.150000
v 0.332588 0.222228 0.150000
v 0.369552 0.153073 0.150000
v 0.392314 0.078036 0.150000
v 0.400000 0.000000 0.150000
v 0.392314 -0.078036 0.150000
v 0.369552 -0.153073 0.150000
v 0.332588 -0.222228 0.150000
v 0.282843 -0.282843 0.150000
v 0.222228 -0.332588 0.150000
v 0.153073 -0.369552 0.150000
v 0.078036 -0.392314 0.150000
v 0.000000 -0.400000 0.150000
v -0.078036 -0.392314 0.150000
v -0.153073 -0.369552 0.150000
v -0.222228 -0.332588 0.150000
v -0.282843 -0.282843 0.150000
v -0.332588 -0.222228 0.150000
v -0.369552 -0.153073 0.150000
v -0.392314 -0.078036 0.150000
v -0.400000 0.000000 0.150000
v 0.222228 0.332588 -0.120000
v 0.222228 0.332588 0.120000
v 0.282843 0.282843 0.120000
v 0.282843 0.282843 -0.120000
v -0.078036 0.392314 0.120000
v -0.078036 0.392314 -0.120000
v -0.153073 0.369552 -0.120000
v -0.153073 0.369552 0.120000
v -0.153073 -0.369552 -0.120000
v -0.153073 -0.369552 0.120000
v -0.078036 -0.392314 0.120000
v -0.078036 -0.392314 -0.120000
v 0.332588 0.222228 -0.120000
v 0.332588 0.222228 0.120000
v 0.000000 0.400000 -0.120000
v 0.000000 0.400000 0.120000
v -0.222228 -0.332588 -0.120000
v -0.222228 -0.332588 0.120000
v 0.369552 0.153073 -0.120000
v 0.369552 0.153073 0.120000
v -0.282843 -0.282843 -0.120000
v -0.282843 -0.282843 0.120000
v 0.392314 0.078036 -0.120000
v 0.392314 0.078036 0.120000
v -0.332588 -0.222228 -0.120000
v -0.332588 -0.222228 0.120000
v 0.393083 0.070233 -0.120000
v 0.399231 0.007804 0.120000
v -0.369552 -0.153073 -0.120000
v -0.369552 -0.153073 0.120000
v 0.400000 -0.000000 -0.120000
v 0.400000 0.000000 0.120000
v -0.392314 -0.078036 -0.120000
v -0.392314 -0.078036 0.120000
v 0.369552 -0.153073 -0.120000
v 0.369552 -0.153073 0.120000
v 0.392314 -0.078036 -0.120000
v 0.392314 -0.078036 0.120000
v -0.400000 -0.000000 -0.120000
v -0.400000 0.000000 0.120000
v 0.332588 -0.222228 -0.120000
v 0.332588 -0.222228 0.120000
v -0.392314 0.078036 0.120000
v -0.392314 0.078036 -0.120000
v 0.282843 -0.282843 -0.120000
v 0.282843 -0.282843 0.120000
v -0.369552 0.153073 0.120000
v -0.369552 0.153073 -0.120000
v 0.222228 -0.332588 0.120000
v 0.222228 -0.332588 -0.120000
v -0.332588 0.222228 0.120000
v -0.332588 0.222228 -0.120000
v 0.153073 -0.369552 0.120000
v 0.153073 -0.369552 -0.120000
v 0.078036 0.392314 0.120000
v -0.282843 0.282843 -0.120000
v -0.282843 0.282843 0.120000
v 0.078036 -0.392314 0.120000
v 0.078036 -0.392314 -0.120000
v 0.078036 0.392314 -0.120000
v 0.153073 0.369552 -0.120000
v 0.153073 0.369552 0.120000
v -0.222228 0.332588 -0.120000
v -0.222228 0.332588 0.120000
v 0.000000 -0.400000 -0.120000
v 0.000000 -0.400000 0.120000
v -0.367794 0.073159 -0.120000
v -0.375000 -0.000000 -0.120000
v -0.346455 0.143506 -0.120000
v -0.311801 0.208339 -0.120000
v -0.265165 0.265165 -0.120000
v -0.208339 0.311801 -0.120000
v -0.143506 0.346455 -0.120000
v 0.000000 0.375000 -0.120000
v -0.073159 0.367794 -0.120000
v 0.073159 0.367794 -0.120000
v 0.143506 0.346455 -0.120000
v 0.208339 0.311801 -0.120000
v 0.265165 0.265165 -0.120000
v 0.311801 0.208339 -0.120000
v 0.346455 0.143506 -0.120000
v 0.367794 0.073159 -0.120000
v 0.375000 -0.000000 -0.120000
v 0.367794 -0.073159 -0.120000
v 0.346455 -0.143506 -0.120000
v 0.311801 -0.208339 -0.120000
v 0.265165 -0.265165 -0.120000
v 0.208339 -0.311801 -0.120000
v 0.143506 -0.346455 -0.120000
v 0.000000 -0.375000 -0.120000
v 0.073159 -0.367794 -0.120000
v -0.073159 -0.367794 -0.120000
v -0.143506 -0.346455 -0.120000
v -0.208339 -0.311801 -0.120000
v -0.265165 -0.265165 -0.120000
v -0.311801 -0.208339 -0.120000
v -0.346455 -0.143506 -0.120000
v -0.367794 -0.073159 -0.120000
v -0.375000 0.000000 0.120000
v -0.367794 0.073159 0.120000
v -0.346455 0.143506 0.120000
v -0.311801 0.208339 0.120000
v -0.265165 0.265165 0.120000
v -0.208339 0.311801 0.120000
v -0.143506 0.346455 0.120000
v -0.073159 0.367794 0.120000
v 0.000000 0.375000 0.120000
v 0.073159 0.367794 0.120000
v 0.143506 0.346455 0.120000
v 0.208339 0.311801 0.120000
v 0.265165 0.265165 0.120000
v 0.311801 0.208339 0.120000
v 0.346455 0.143506 0.120000
v 0.367794 0.073159 0.120000
v 0.375000 0.000000 0.120000
v 0.367794 -0.073159 0.120000
v 0.346455 -0.143506 0.120000
v 0.311801 -0.208339 0.120000
v 0.265165 -0.265165 0.120000
v 0.208339 -0.311801 0.120000
v 0.143506 -0.346455 0.120000
v 0.073159 -0.367794 0.120000
v 0.000000 -0.375000 0.120000
v -0.073159 -0.367794 0.120000
v -0.143506 -0.346455 0.120000
v -0.208339 -0.311801 0.120000
v -0.265165 -0.265165 0.120000
v -0.311801 -0.208339 0.120000
v -0.367794 -0.073159 0.120000
v -0.346455 -0.143506 0.120000
v -0.049039 0.009755 -0.150000
v -0.050000 -0.000000 -0.150000
v -0.046194 0.019134 -0.150000
v -0.035355 0.035355 -0.150000
v -0.041573 0.027779 -0.150000
v -0.027779 0.041573 -0.150000
v -0.019134 0.046194 -0.150000
v -0.009755 0.049039 -0.150000
v 0.000000 0.050000 -0.150000
v 0.009755 0.049039 -0.150000
v 0.019134 0.046194 -0.150000
v 0.027779 0.041573 -0.150000
v 0.035355 0.035355 -0.150000
v 0.041573 0.027779 -0.150000
v 0.046194 0.019134 -0.150000
v 0.049039 0.009755 -0.150000
v 0.050000 -0.000000 -0.150000
v 0.049039 -0.009755 -0.150000
v 0.046194 -0.019134 -0.150000
v 0.041573 -0.027779 -0.150000
v 0.035355 -0.035355 -0.150000
v 0.027779 -0.041573 -0.150000
v 0.019134 -0.046194 -0.150000
v 0.009755 -0.049039 -0.150000
v 0.000000 -0.050000 -0.150000
v -0.009755 -0.049039 -0.150000
v -0.019134 -0.046194 -0.150000
v -0.027779 -0.041573 -0.150000
v -0.035355 -0.035355 -0.150000
v -0.041573 -0.027779 -0.150000
v -0.046194 -0.019134 -0.150000
v -0.049039 -0.009755 -0.150000
v -0.049039 0.009755 0.150000
v -0.046194 0.019134 0.150000
v -0.041573 0.027779 0.150000
v -0.035355 0.035355 0.150000
v -0.027779 0.041573 0.150000
v -0.019134 0.046194 0.150000
v -0.009755 0.049039 0.150000
v 0.000000 0.050000 0.150000
v 0.009755 0.049039 0.150000
v 0.019134 0.046194 0.150000
v 0.027779 0.041573 0.150000
v 0.035355 0.035355 0.150000
v 0.041573 0.027779 0.150000
v 0.046194 0.019134 0.150000
v 0.049039 0.009755 0.150000
v 0.049039 -0.009755 0.150000
v 0.050000 0.000000 0.150000
v 0.046194 -0.019134 0.150000
v 0.035355 -0.035355 0.150000
v 0.041573 -0.027779 0.150000
v 0.027779 -0.041573 0.150000
v 0.019134 -0.046194 0.150000
v 0.009755 -0.049039 0.150000
v 0.000000 -0.050000 0.150000
v -0.009755 -0.049039 0.150000
v -0.019134 -0.046194 0.150000
v -0.027779 -0.041573 0.150000
v -0.035355 -0.035355 0.150000
v -0.041573 -0.027779 0.150000
v -0.046194 -0.019134 0.150000
v -0.049039 -0.009755 0.150000
v -0.050000 0.000000 0.150000
v -0.200000 -0.000000 -0.150000
v -0.300000 -0.000000 -0.150000
v -0.212132 0.212132 -0.150000
v -0.141421 0.141421 -0.150000
v -0.111114 0.166294 -0.150000
v -0.166671 0.249441 -0.150000
v -0.114805 0.277164 -0.150000
v -0.076537 0.184776 -0.150000
v -0.058527 0.294236 -0.150000
v -0.039018 0.196157 -0.150000
v 0.000000 0.200000 -0.150000
v 0.000000 0.300000 -0.150000
v 0.212132 0.212132 -0.150000
v 0.141421 0.141421 -0.150000
v 0.249441 0.166671 -0.150000
v 0.166294 0.111114 -0.150000
v 0.277164 0.114805 -0.150000
v 0.184776 0.076537 -0.150000
v 0.294236 0.058527 -0.150000
v 0.196157 0.039018 -0.150000
v 0.300000 -0.000000 -0.150000
v 0.200000 -0.000000 -0.150000
v 0.212132 -0.212132 -0.150000
v 0.141421 -0.141421 -0.150000
v 0.166671 -0.249441 -0.150000
v 0.111114 -0.166294 -0.150000
v 0.076537 -0.184776 -0.150000
v 0.114805 -0.277164 -0.150000
v 0.058527 -0.294236 -0.150000
v 0.039018 -0.196157 -0.150000
v 0.000000 -0.300000 -0.150000
v 0.000000 -0.200000 -0.150000
v -0.212132 -0.212132 -0.150000
v -0.141421 -0.141421 -0.150000
v -0.249441 -0.166671 -0.150000
v -0.166294 -0.111114 -0.150000
v -0.277164 -0.114805 -0.150000
v -0.196157 -0.039018 -0.150000
v -0.294236 -0.058527 -0.150000
v -0.184776 -0.076537 -0.150000
v -0.212132 0.212132 0.150000
v -0.141421 0.141421 0.150000
v -0.111114 0.166294 0.150000
v -0.076537 0.184776 0.150000
v -0.114805 0.277164 0.150000
v -0.166671 0.249441 0.150000
v -0.039018 0.196157 0.150000
v -0.058527 0.294236 0.150000
v 0.000000 0.200000 0.150000
v 0.000000 0.300000 0.150000
v 0.212132 0.212132 0.150000
v 0.141421 0.141421 0.150000
v 0.249441 0.166671 0.150000
v 0.166294 0.111114 0.150000
v 0.277164 0.114805 0.150000
v 0.294236 0.058527 0.150000
v 0.184776 0.076537 0.150000
v 0.300000 0.000000 0.150000
v 0.196157 0.039018 0.150000
v 0.200000 0.000000 0.150000
v 0.141421 -0.141421 0.150000
v 0.212132 -0.212132 0.150000
v 0.111114 -0.166294 0.150000
v 0.114805 -0.277164 0.150000
v 0.166671 -0.249441 0.150000
v 0.058527 -0.294236 0.150000
v 0.076537 -0.184776 0.150000
v 0.000000 -0.300000 0.150000
v 0.000000 -0.200000 0.150000
v 0.039018 -0.196157 0.150000
v -0.212132 -0.212132 0.150000
v -0.141421 -0.141421 0.150000
v -0.166294 -0.111114 0.150000
v -0.184776 -0.076537 0.150000
v -0.277164 -0.114805 0.150000
v -0.249441 -0.166671 0.150000
v -0.294236 -0.058527 0.150000
v -0.200000 0.000000 0.150000
v -0.300000 0.000000 0.150000
v -0.196157 -0.039018 0.150000
vn -0.0000 -0.0000 -1.0000
vn -0.0000 -0.0000 1.0000
vn 0.6344 0.7730 -0.0000
vn -0.2903 -0.9569 -0.0000
vn -0.0980 0.9952 -0.0000
vn 0.8819 0.4714 -0.0000
vn -0.6344 -0.7730 -0.0000
vn 0.9952 0.0980 -0.0000
vn -0.8819 -0.4714 -0.0000
vn 0.9569 -0.2903 -0.0000
vn -0.9952 -0.0980 -0.0000
vn 0.7730 -0.6344 -0.0000
vn 0.4714 -0.8819 -0.0000
vn -0.7730 0.6344 -0.0000
vn 0.2903 0.9569 -0.0000
vn 0.0980 -0.9952 -0.0000
vn -0.4714 0.8819 -0.0000
vn -0.2903 0.9569 -0.0000
vn -0.9569 -0.2903 -0.0000
vn 0.9569 0.2903 -0.0000
vn 0.7730 0.6344 -0.0000
vn -0.6344 0.7730 -0.0000
vn 0.6344 -0.7730 -0.0000
vn -0.4714 -0.8819 -0.0000
vn 0.8819 -0.4714 -0.0000
vn -0.8819 0.4714 -0.0000
vn 0.2903 -0.9569 -0.0000
vn -0.7730 -0.6344 -0.0000
vn 0.9952 -0.0980 -0.0000
vn 0.0980 0.9952 -0.0000
vn -0.0980 -0.9952 -0.0000
vn 0.4714 0.8819 -0.0000
vn -0.9952 0.0980 -0.0000
vn -0.9569 0.2903 -0.0000
vn -0.0000 -1.0000 -0.0000
vn -0.7071 0.7071 -0.0000
vn 1.0000 -0.0000 -0.0000
vn -0.7071 -0.7071 -0.0000
vn 0.7071 -0.7071 -0.0000
vn -1.0000 -0.0000 -0.0000
vn 0.7071 0.7071 -0.0000
vn -0.0000 1.0000 -0.0000
vt 0.761608 0.962573
vt 0.742209 0.956487
vt 0.744541 0.953080
vt 0.729750 0.940754
vt 0.714077 0.928204
vt 0.717405 0.925935
vt 0.707945 0.908753
vt 0.704105 0.910377
vt 0.702210 0.889985
vt 0.698247 0.890782
vt 0.700288 0.870715
vt 0.696206 0.870770
vt 0.701898 0.851303
vt 0.703604 0.830857
vt 0.707452 0.832409
vt 0.716724 0.814972
vt 0.713262 0.812678
vt 0.729320 0.799831
vt 0.742270 0.783735
vt 0.744552 0.787159
vt 0.762110 0.777932
vt 0.760529 0.774047
vt 0.780892 0.772345
vt 0.800318 0.766389
vt 0.800328 0.770512
vt 0.819894 0.772514
vt 0.840430 0.774704
vt 0.838762 0.778478
vt 0.858001 0.784774
vt 0.870453 0.800612
vt 0.855701 0.788075
vt 0.886184 0.813353
vt 0.882816 0.815609
vt 0.892118 0.832915
vt 0.895988 0.831341
vt 0.897562 0.851803
vt 0.901535 0.851080
vt 0.899075 0.871053
vt 0.903128 0.871067
vt 0.897233 0.890219
vt 0.895106 0.910187
vt 0.891368 0.908618
vt 0.882186 0.925554
vt 0.885564 0.927809
vt 0.869837 0.940494
vt 0.857138 0.956173
vt 0.854889 0.952849
vt 0.837911 0.962083
vt 0.839520 0.965870
vt 0.819451 0.967909
vt 0.800121 0.974096
vt 0.800056 0.969978
vt 0.780485 0.968241
vt 0.760022 0.966328
vt 0.231433 0.318869
vt 0.223668 0.337619
vt 0.227428 0.318464
vt 0.231603 0.298789
vt 0.227523 0.299117
vt 0.224040 0.279832
vt 0.228068 0.278681
vt 0.216758 0.261479
vt 0.220415 0.259537
vt 0.209030 0.242562
vt 0.205901 0.245119
vt 0.192169 0.231498
vt 0.194804 0.228331
vt 0.178228 0.216926
vt 0.176268 0.220515
vt 0.159524 0.208808
vt 0.158313 0.212750
vt 0.138989 0.208875
vt 0.139398 0.204825
vt 0.119405 0.208838
vt 0.119046 0.204755
vt 0.100328 0.212531
vt 0.099162 0.208566
vt 0.082340 0.219729
vt 0.080450 0.216113
vt 0.063445 0.227021
vt 0.065964 0.230192
vt 0.051891 0.243909
vt 0.048733 0.241238
vt 0.040898 0.260210
vt 0.037218 0.258242
vt 0.029581 0.277093
vt 0.029622 0.297340
vt 0.033451 0.278259
vt 0.025580 0.317019
vt 0.029636 0.316688
vt 0.033031 0.335729
vt 0.029036 0.336850
vt 0.040133 0.354040
vt 0.036461 0.355940
vt 0.047632 0.373133
vt 0.050822 0.370576
vt 0.064671 0.384581
vt 0.062006 0.387815
vt 0.079142 0.399104
vt 0.081058 0.395458
vt 0.097874 0.406822
vt 0.099053 0.402893
vt 0.118193 0.406807
vt 0.117805 0.410898
vt 0.138206 0.410806
vt 0.137823 0.406758
vt 0.157081 0.403084
vt 0.158265 0.407065
vt 0.175072 0.395674
vt 0.176987 0.399259
vt 0.193665 0.388304
vt 0.191162 0.385200
vt 0.204847 0.371616
vt 0.208000 0.374276
vt 0.219571 0.357635
vt 0.215965 0.355665
vt 0.903431 0.753807
vt 0.875339 0.756439
vt 0.888350 0.741053
vt 0.475971 0.392298
vt 0.447879 0.394930
vt 0.460891 0.379544
vt 0.048512 0.030789
vt 0.020419 0.033421
vt 0.033431 0.018035
vt 0.842365 0.702163
vt 0.814273 0.704795
vt 0.827285 0.689409
vt 0.414906 0.340654
vt 0.386813 0.343286
vt 0.399825 0.327900
vt 0.781300 0.650519
vt 0.753207 0.653151
vt 0.766219 0.637765
vt 0.353840 0.289010
vt 0.325748 0.291642
vt 0.338759 0.276256
vt 0.720234 0.598875
vt 0.692142 0.601507
vt 0.705153 0.586121
vt 0.277694 0.224612
vt 0.279763 0.252751
vt 0.264682 0.239997
vt 0.659168 0.547231
vt 0.631076 0.549862
vt 0.644088 0.534477
vt 0.731146 0.939362
vt 0.598103 0.495587
vt 0.570010 0.498218
vt 0.583022 0.482833
vt 0.170643 0.134077
vt 0.142551 0.136709
vt 0.155562 0.121323
vt 0.964497 0.805451
vt 0.936404 0.808083
vt 0.949416 0.792698
vt 0.537037 0.443942
vt 0.508945 0.446574
vt 0.521956 0.431188
vt 0.109577 0.082433
vt 0.081485 0.085065
vt 0.094497 0.069679
vt 0.079044 0.056611
vt 0.050952 0.059243
vt 0.063964 0.043857
vt 0.675501 0.869089
vt 0.697847 0.850563
vt 0.066033 0.071997
vt 0.206491 0.211346
vt 0.035500 0.046175
vt 0.872898 0.727985
vt 0.844806 0.730617
vt 0.857818 0.715231
vt 0.774299 0.748284
vt 0.780124 0.768362
vt 0.859886 0.743371
vt 0.052268 0.209597
vt 0.829354 0.717549
vt 0.445439 0.366476
vt 0.417346 0.369108
vt 0.430358 0.353722
vt 0.885825 0.959411
vt 0.872751 0.943414
vt 0.432427 0.381862
vt 0.162097 0.427618
vt 0.401894 0.356040
vt 0.811832 0.676341
vt 0.783740 0.678973
vt 0.796752 0.663587
vt 0.802376 0.745455
vt 0.820749 0.768398
vt 0.798821 0.691727
vt 0.031310 0.229439
vt 0.768288 0.665905
vt 0.384373 0.314832
vt 0.356280 0.317464
vt 0.369292 0.302078
vt 0.826401 0.991579
vt 0.820270 0.971853
vt 0.371361 0.330217
vt 0.204890 0.405394
vt 0.340828 0.304395
vt 0.750767 0.624697
vt 0.722674 0.627329
vt 0.735686 0.611943
vt 0.850749 0.756699
vt 0.025573 0.296917
vt 0.009268 0.272985
vt 0.707222 0.614260
vt 0.323307 0.263188
vt 0.295215 0.265819
vt 0.308227 0.250434
vt 0.798338 0.995033
vt 0.779687 0.972356
vt 0.310295 0.278573
vt 0.225051 0.386132
vt 0.292774 0.237366
vt 0.689701 0.573053
vt 0.661609 0.575684
vt 0.674621 0.560299
vt 0.873391 0.797717
vt 0.902206 0.800245
vt 0.676689 0.588438
vt 0.008716 0.340392
vt 0.646156 0.562616
vt 0.262242 0.211544
vt 0.234149 0.214175
vt 0.247161 0.198790
vt 0.749938 0.984581
vt 0.249230 0.226929
vt 0.248034 0.342736
vt 0.227601 0.338810
vt 0.218697 0.201107
vt 0.231709 0.185721
vt 0.628635 0.521409
vt 0.600543 0.524040
vt 0.613555 0.508655
vt 0.921760 0.845396
vt 0.615624 0.536794
vt 0.030015 0.384579
vt 0.585091 0.510972
vt 0.201176 0.159899
vt 0.173083 0.162531
vt 0.186095 0.147146
vt 0.711095 0.956699
vt 0.726865 0.943596
vt 0.188164 0.175285
vt 0.216628 0.172968
vt 0.203616 0.188353
vt 0.248672 0.275060
vt 0.157631 0.149463
vt 0.995030 0.831273
vt 0.966937 0.833905
vt 0.979949 0.818520
vt 0.684976 0.820960
vt 0.004967 0.020353
vt 0.143479 0.184203
vt 0.951485 0.820837
vt 0.567570 0.469764
vt 0.539477 0.472396
vt 0.552489 0.457011
vt 0.923573 0.873039
vt 0.901203 0.891020
vt 0.554558 0.485150
vt 0.050438 0.405373
vt 0.524025 0.459328
vt 0.140110 0.108255
vt 0.112018 0.110887
vt 0.125030 0.095501
vt 0.678168 0.896785
vt 0.127098 0.123641
vt 0.226423 0.230895
vt 0.096565 0.097819
vt 0.933964 0.779629
vt 0.905871 0.782261
vt 0.918883 0.766875
vt 0.712908 0.780534
vt 0.726347 0.796850
vt 0.920952 0.795015
vt 0.095257 0.188192
vt 0.890419 0.769193
vt 0.506504 0.418120
vt 0.478412 0.420752
vt 0.491424 0.405366
vt 0.913162 0.919964
vt 0.493492 0.433506
vt 0.113628 0.431320
vt 0.462959 0.407684
vt 0.762872 0.779797
vt 0.083250 0.221493
vt 0.175271 0.222315
vt 0.190904 0.233019
vt 0.702344 0.870696
vt 0.703935 0.851682
vt 0.118401 0.404749
vt 0.880495 0.924407
vt 0.868393 0.939043
vt 0.157693 0.214729
vt 0.853745 0.951150
vt 0.137629 0.404689
vt 0.067248 0.231812
vt 0.781289 0.774374
vt 0.174152 0.393922
vt 0.156474 0.401040
vt 0.837138 0.960264
vt 0.800323 0.772582
vt 0.819458 0.774593
vt 0.189887 0.383615
vt 0.821271 0.775072
vt 0.837916 0.780416
vt 0.042698 0.261175
vt 0.036050 0.277137
vt 0.819029 0.965899
vt 0.800034 0.967907
vt 0.203280 0.370296
vt 0.854564 0.789706
vt 0.035395 0.278869
vt 0.780877 0.966196
vt 0.214158 0.354663
vt 0.031611 0.316515
vt 0.031728 0.297551
vt 0.868994 0.802054
vt 0.762440 0.960596
vt 0.221693 0.337006
vt 0.745699 0.951389
vt 0.225385 0.318254
vt 0.035016 0.335173
vt 0.881097 0.816764
vt 0.225470 0.299295
vt 0.895533 0.852171
vt 0.890131 0.833724
vt 0.041986 0.353096
vt 0.719105 0.924774
vt 0.222038 0.280402
vt 0.897099 0.871037
vt 0.052452 0.369273
vt 0.138772 0.211012
vt 0.709387 0.833194
vt 0.709852 0.907943
vt 0.214852 0.262476
vt 0.895172 0.889795
vt 0.082028 0.393631
vt 0.066039 0.382922
vt 0.718460 0.816129
vt 0.730798 0.801310
vt 0.119600 0.210891
vt 0.204309 0.246426
vt 0.704228 0.889573
vt 0.889490 0.907817
vt 0.099635 0.400986
vt 0.100910 0.214496
vt 0.745755 0.788961
vt 0.764789 0.954973
vt 0.749117 0.946376
vt 0.735439 0.935102
vt 0.724159 0.921346
vt 0.715583 0.905521
vt 0.710182 0.888343
vt 0.708286 0.870658
vt 0.709912 0.852821
vt 0.715072 0.835507
vt 0.723685 0.819605
vt 0.735061 0.805592
vt 0.749158 0.794113
vt 0.765253 0.785617
vt 0.782470 0.780380
vt 0.800301 0.778701
vt 0.818300 0.780494
vt 0.835454 0.786063
vt 0.851082 0.794695
vt 0.864787 0.806217
vt 0.876019 0.820167
vt 0.884347 0.836071
vt 0.889556 0.853264
vt 0.891176 0.871013
vt 0.889171 0.888572
vt 0.875500 0.921026
vt 0.884072 0.905506
vt 0.864118 0.934765
vt 0.850347 0.946119
vt 0.834724 0.954577
vt 0.817792 0.959956
vt 0.799975 0.961947
vt 0.782024 0.960197
vt 0.215757 0.335174
vt 0.219329 0.317621
vt 0.219539 0.299836
vt 0.216154 0.282080
vt 0.209416 0.265316
vt 0.199619 0.250268
vt 0.187001 0.237685
vt 0.172339 0.227653
vt 0.155840 0.220674
vt 0.138151 0.216979
vt 0.120153 0.216958
vt 0.102626 0.220310
vt 0.086047 0.226890
vt 0.071020 0.236581
vt 0.058243 0.249243
vt 0.053539 0.245288
vt 0.048134 0.264071
vt 0.037748 0.298159
vt 0.041220 0.280600
vt 0.037523 0.315990
vt 0.040865 0.333505
vt 0.047433 0.350306
vt 0.057252 0.365463
vt 0.069945 0.378197
vt 0.084891 0.388229
vt 0.101403 0.395139
vt 0.119022 0.398549
vt 0.137094 0.398714
vt 0.154750 0.395223
vt 0.171337 0.388557
vt 0.186049 0.378835
vt 0.198734 0.366486
vt 0.208816 0.351751
vt 0.772508 0.936669
vt 0.750207 0.944768
vt 0.781640 0.914661
vt 0.005940 0.201765
vt 0.026090 0.187545
vt 0.026090 0.201765
vt 0.736856 0.933687
vt 0.793237 0.880441
vt 0.791394 0.878932
vt 0.725833 0.920219
vt 0.789882 0.877092
vt 0.755725 0.888774
vt 0.788782 0.875022
vt 0.788105 0.872776
vt 0.752981 0.879830
vt 0.717510 0.904706
vt 0.729638 0.884566
vt 0.733813 0.897970
vt 0.787878 0.870438
vt 0.752032 0.870525
vt 0.712160 0.887931
vt 0.728168 0.870656
vt 0.710236 0.870646
vt 0.729476 0.856679
vt 0.752913 0.861204
vt 0.711964 0.853219
vt 0.733516 0.843139
vt 0.788793 0.865850
vt 0.755596 0.852228
vt 0.716950 0.836286
vt 0.725378 0.820736
vt 0.791408 0.861928
vt 0.789899 0.863775
vt 0.750325 0.795879
vt 0.736457 0.806993
vt 0.766028 0.787502
vt 0.786129 0.799958
vt 0.772655 0.804019
vt 0.795335 0.859320
vt 0.790717 0.823408
vt 0.797588 0.858644
vt 0.782859 0.782369
vt 0.800117 0.798619
vt 0.799928 0.858419
vt 0.800052 0.822526
vt 0.800293 0.780664
vt 0.814139 0.800069
vt 0.809384 0.823483
vt 0.802266 0.858653
vt 0.818348 0.826241
vt 0.817871 0.782555
vt 0.827617 0.804268
vt 0.806581 0.860454
vt 0.863343 0.807630
vt 0.808422 0.861969
vt 0.874330 0.821278
vt 0.844071 0.888756
vt 0.865919 0.897865
vt 0.873841 0.919898
vt 0.811695 0.868138
vt 0.844202 0.852388
vt 0.846857 0.861320
vt 0.882536 0.836809
vt 0.870135 0.856816
vt 0.866145 0.843409
vt 0.811915 0.870473
vt 0.847727 0.870595
vt 0.887512 0.853657
vt 0.871438 0.870704
vt 0.811677 0.872806
vt 0.846784 0.879856
vt 0.889171 0.870994
vt 0.870004 0.884540
vt 0.810991 0.875050
vt 0.887286 0.888184
vt 0.882230 0.904733
vt 0.809882 0.877118
vt 0.862694 0.933343
vt 0.808376 0.878951
vt 0.849220 0.944454
vt 0.806537 0.880450
vt 0.765572 0.953113
vt 0.833939 0.952736
vt 0.813904 0.940599
vt 0.827225 0.936491
vt 0.804467 0.881552
vt 0.809188 0.917333
vt 0.802221 0.882231
vt 0.817375 0.957986
vt 0.799980 0.942044
vt 0.799886 0.882459
vt 0.799896 0.918258
vt 0.782417 0.958207
vt 0.785990 0.940725
vt 0.797551 0.882229
vt 0.790591 0.917358
vt 0.799962 0.959851
vt 0.217388 0.317414
vt 0.140534 0.306782
vt 0.217523 0.300016
vt 0.140094 0.304439
vt 0.214138 0.282666
vt 0.170881 0.285599
vt 0.184240 0.262832
vt 0.207675 0.266223
vt 0.191948 0.274578
vt 0.137915 0.300306
vt 0.165744 0.277797
vt 0.185760 0.239179
vt 0.174411 0.252874
vt 0.136266 0.298634
vt 0.159186 0.271147
vt 0.162881 0.245036
vt 0.151463 0.265899
vt 0.149933 0.239566
vt 0.171371 0.229417
vt 0.134327 0.297313
vt 0.142862 0.262249
vt 0.129874 0.295912
vt 0.120333 0.218904
vt 0.137932 0.219071
vt 0.127491 0.295898
vt 0.103189 0.222242
vt 0.086968 0.228682
vt 0.095208 0.244379
vt 0.122974 0.297235
vt 0.098428 0.270622
vt 0.106237 0.265475
vt 0.083468 0.252073
vt 0.072322 0.238207
vt 0.059748 0.250499
vt 0.073462 0.261930
vt 0.119337 0.300172
vt 0.091762 0.277194
vt 0.065565 0.273541
vt 0.049906 0.265037
vt 0.118016 0.302114
vt 0.086501 0.284935
vt 0.117100 0.304276
vt 0.116623 0.306575
vt 0.082847 0.293545
vt 0.060103 0.286493
vt 0.116596 0.308958
vt 0.039751 0.298368
vt 0.042807 0.332947
vt 0.039529 0.315817
vt 0.072780 0.352904
vt 0.049301 0.349347
vt 0.065070 0.341073
vt 0.117921 0.313472
vt 0.091361 0.337913
vt 0.086223 0.330076
vt 0.071192 0.376686
vt 0.082682 0.362942
vt 0.119211 0.315433
vt 0.097931 0.344590
vt 0.085851 0.386444
vt 0.094319 0.370777
vt 0.120858 0.317106
vt 0.105671 0.349846
vt 0.107251 0.376198
vt 0.122798 0.318428
vt 0.114279 0.353488
vt 0.155235 0.222605
vt 0.119228 0.396466
vt 0.129631 0.319848
vt 0.136903 0.396686
vt 0.131969 0.319396
vt 0.134151 0.318510
vt 0.158758 0.345105
vt 0.150994 0.350255
vt 0.170405 0.386785
vt 0.173694 0.363560
vt 0.184843 0.377337
vt 0.137791 0.315570
vt 0.165389 0.338544
vt 0.197196 0.365193
vt 0.183617 0.353784
vt 0.139113 0.313628
vt 0.170633 0.330817
vt 0.191486 0.342217
vt 0.207046 0.350785
vt 0.154174 0.393288
vt 0.043151 0.281192
vt 0.834675 0.787854
vt 0.849898 0.796410
vt 0.213765 0.334559
vt 0.058831 0.364191
vt 0.198005 0.251579
vt 0.101991 0.393206
vt 0.072643 0.168717
vt 0.070273 0.168717
vt 0.071458 0.156686
vt 0.067949 0.168255
vt 0.065759 0.167348
vt 0.063789 0.166031
vt 0.062113 0.164355
vt 0.060796 0.162385
vt 0.059890 0.160195
vt 0.059427 0.157871
vt 0.059427 0.155501
vt 0.059890 0.153177
vt 0.060796 0.150987
vt 0.062113 0.149017
vt 0.063789 0.147341
vt 0.065759 0.146025
vt 0.067949 0.145118
vt 0.070273 0.144655
vt 0.072643 0.144655
vt 0.074967 0.145118
vt 0.077157 0.146025
vt 0.079127 0.147341
vt 0.080803 0.149017
vt 0.082120 0.150987
vt 0.083026 0.153177
vt 0.083489 0.155501
vt 0.083489 0.157871
vt 0.083026 0.160195
vt 0.082120 0.162385
vt 0.080803 0.164355
vt 0.079127 0.166031
vt 0.077157 0.167348
vt 0.074967 0.168255
vt 0.169029 0.062613
vt 0.167844 0.050583
vt 0.171354 0.062151
vt 0.173543 0.061244
vt 0.175514 0.059928
vt 0.177189 0.058252
vt 0.178506 0.056281
vt 0.179413 0.054092
vt 0.179875 0.051768
vt 0.179875 0.049398
vt 0.179413 0.047073
vt 0.178506 0.044884
vt 0.177189 0.042913
vt 0.175514 0.041238
vt 0.173543 0.039921
vt 0.171354 0.039014
vt 0.169029 0.038552
vt 0.166659 0.038552
vt 0.164335 0.039014
vt 0.162146 0.039921
vt 0.160175 0.041238
vt 0.158500 0.042913
vt 0.157183 0.044884
vt 0.156276 0.047073
vt 0.155814 0.049398
vt 0.155814 0.051768
vt 0.156276 0.054092
vt 0.157183 0.056281
vt 0.158500 0.058252
vt 0.160175 0.059928
vt 0.162146 0.061244
vt 0.164335 0.062151
vt 0.166659 0.062613
vt 0.179875 0.118124
vt 0.200025 0.115754
vt 0.200025 0.118124
vt 0.059427 0.148392
vt 0.039277 0.150762
vt 0.039277 0.148392
vt 0.179875 0.054137
vt 0.200025 0.051768
vt 0.200025 0.054137
vt 0.039277 0.084405
vt 0.059427 0.086775
vt 0.039277 0.086775
vt 0.179875 0.082576
vt 0.200025 0.084946
vt 0.179875 0.084946
vt 0.059427 0.115214
vt 0.039277 0.117583
vt 0.039277 0.115214
vt 0.179875 0.115754
vt 0.200025 0.113384
vt 0.059427 0.146022
vt 0.039277 0.146022
vt 0.200025 0.049398
vt 0.059427 0.082035
vt 0.039277 0.082035
vt 0.200025 0.080206
vt 0.200025 0.082576
vt 0.059427 0.112844
vt 0.039277 0.112844
vt 0.179875 0.113384
vt 0.200025 0.111014
vt 0.059427 0.143652
vt 0.179875 0.077836
vt 0.179875 0.080206
vt 0.039277 0.110474
vt 0.059427 0.110474
vt 0.179875 0.108644
vt 0.200025 0.108644
vt 0.039277 0.143652
vt 0.059427 0.141282
vt 0.179875 0.075466
vt 0.200025 0.077836
vt 0.039277 0.108104
vt 0.059427 0.108104
vt 0.200025 0.106274
vt 0.179875 0.106274
vt 0.039277 0.138912
vt 0.039277 0.141282
vt 0.200025 0.073096
vt 0.200025 0.075466
vt 0.039277 0.105734
vt 0.059427 0.105734
vt 0.179875 0.103904
vt 0.200025 0.103904
vt 0.059427 0.136542
vt 0.059427 0.138912
vt 0.179875 0.070726
vt 0.200025 0.070726
vt 0.039277 0.103364
vt 0.179875 0.101535
vt 0.200025 0.101535
vt 0.039277 0.134172
vt 0.039277 0.136542
vt 0.179875 0.068357
vt 0.200025 0.068357
vt 0.039277 0.100994
vt 0.059427 0.103364
vt 0.179875 0.099165
vt 0.200025 0.099165
vt 0.059427 0.131803
vt 0.039277 0.131803
vt 0.200025 0.065987
vt 0.179875 0.065987
vt 0.059427 0.098625
vt 0.039277 0.098625
vt 0.200025 0.096795
vt 0.059427 0.129433
vt 0.039277 0.129433
vt 0.179875 0.063617
vt 0.200025 0.063617
vt 0.039277 0.096255
vt 0.179875 0.096795
vt 0.200025 0.094425
vt 0.059427 0.127063
vt 0.039277 0.127063
vt 0.179875 0.061247
vt 0.039277 0.093885
vt 0.059427 0.096255
vt 0.179875 0.092055
vt 0.179875 0.094425
vt 0.039277 0.124693
vt 0.059427 0.124693
vt 0.179875 0.125233
vt 0.200025 0.122863
vt 0.200025 0.125233
vt 0.039277 0.157871
vt 0.039277 0.155501
vt 0.179875 0.058877
vt 0.200025 0.061247
vt 0.059427 0.093885
vt 0.039277 0.091515
vt 0.059427 0.091515
vt 0.200025 0.089685
vt 0.200025 0.092055
vt 0.059427 0.122323
vt 0.039277 0.122323
vt 0.179875 0.120494
vt 0.200025 0.120494
vt 0.059427 0.153131
vt 0.039277 0.153131
vt 0.200025 0.056507
vt 0.200025 0.058877
vt 0.059427 0.089145
vt 0.039277 0.089145
vt 0.179875 0.087315
vt 0.179875 0.089685
vt 0.039277 0.119953
vt 0.059427 0.119953
vt 0.059427 0.150762
vt 0.179875 0.056507
vt 0.200025 0.087315
vt 0.059427 0.117583
vt 0.026090 0.173326
vt 0.005940 0.187545
vt 0.005940 0.173326
vt 0.026090 0.159107
vt 0.026090 0.082792
vt 0.005940 0.058614
vt 0.026090 0.058614
vt 0.005940 0.092272
vt 0.005940 0.082792
vt 0.026090 0.101751
vt 0.026090 0.092272
vt 0.005940 0.111230
vt 0.026090 0.111230
vt 0.005940 0.120710
vt 0.026090 0.120710
vt 0.026090 0.144888
vt 0.005940 0.144888
vt 0.005940 0.159107
vt 0.269599 0.125406
vt 0.249449 0.149584
vt 0.249449 0.125406
vt 0.269599 0.115927
vt 0.249449 0.115927
vt 0.249449 0.106447
vt 0.269599 0.096968
vt 0.249449 0.096968
vt 0.249449 0.087488
vt 0.269599 0.063310
vt 0.249449 0.063310
vt 0.269599 0.049091
vt 0.249449 0.049091
vt 0.249449 0.034872
vt 0.249449 0.020653
vt 0.269599 0.034872
vt 0.249449 0.006434
vt 0.269599 0.020653
vt 0.171586 0.026090
vt 0.162106 0.005940
vt 0.171586 0.005940
vt 0.152627 0.005940
vt 0.162106 0.026090
vt 0.152627 0.026090
vt 0.143147 0.026090
vt 0.118969 0.005940
vt 0.143147 0.005940
vt 0.104750 0.005940
vt 0.118969 0.026090
vt 0.104750 0.026090
vt 0.090531 0.026090
vt 0.076312 0.005940
vt 0.090531 0.005940
vt 0.236552 0.045309
vt 0.216402 0.035830
vt 0.236552 0.035830
vt 0.216402 0.011652
vt 0.236552 0.011652
vt 0.216402 0.154802
vt 0.236552 0.140583
vt 0.236552 0.154802
vt 0.216402 0.140583
vt 0.236552 0.126364
vt 0.216402 0.126364
vt 0.236552 0.112145
vt 0.216402 0.112145
vt 0.236552 0.097925
vt 0.236552 0.073747
vt 0.216402 0.097925
vt 0.216402 0.073747
vt 0.216402 0.064268
vt 0.236552 0.064268
vt 0.236552 0.054789
vt 0.216402 0.045309
vt 0.216402 0.054789
vt 0.196940 0.329277
vt 0.140032 0.311465
vt 0.174284 0.322217
vt 0.062093 0.005940
vt 0.076312 0.026090
vt 0.062093 0.026090
vt 0.205243 0.005940
vt 0.181065 0.026090
vt 0.181065 0.005940
vt 0.125152 0.296352
vt 0.804513 0.859341
vt 0.781736 0.826091
vt 0.793257 0.860422
vt 0.795306 0.881548
vt 0.818109 0.914627
vt 0.809929 0.863814
vt 0.132169 0.296393
vt 0.139208 0.302266
vt 0.140511 0.309165
vt 0.162069 0.371229
vt 0.124957 0.319349
vt 0.127252 0.319831
vt 0.117037 0.311298
vt 0.811024 0.865889
vt 0.677142 0.848881
vt 0.189914 0.199940
vt 0.754704 0.753969
vt 0.069273 0.198689
vt 0.870212 0.972171
vt 0.142039 0.431359
vt 0.822807 0.747463
vt 0.019795 0.246443
vt 0.845651 0.985595
vt 0.188212 0.416349
vt 0.737755 0.640082
vt 0.868320 0.766770
vt 0.005260 0.292809
vt 0.777905 0.993293
vt 0.236623 0.369491
vt 0.889414 0.784609
vt 0.005260 0.320560
vt 0.732125 0.974740
vt 0.251866 0.322795
vt 0.916214 0.825657
vt 0.018844 0.367386
vt 0.698306 0.941308
vt 0.252206 0.295168
vt 0.982018 0.846659
vt 0.694635 0.802781
vt 0.017979 0.004967
vt 0.163605 0.188186
vt 0.921648 0.892992
vt 0.067574 0.416663
vt 0.684027 0.916380
vt 0.237809 0.247871
vt 0.728832 0.767419
vt 0.115141 0.184381
vt 0.903621 0.937586
vt 0.093698 0.427244
vt 0.788110 0.868100
vt 0.121011 0.298525
vt 0.136116 0.317219
vt 0.059427 0.084405
vt 0.179875 0.111014
vt 0.179875 0.073096
vt 0.059427 0.134172
vt 0.059427 0.100994
vt 0.179875 0.122863
vt 0.005940 0.101751
vt 0.269599 0.149584
vt 0.269599 0.106447
vt 0.269599 0.087488
vt 0.269599 0.006434
vt 0.205243 0.026090
s 0
usemtl マテリアル.001
f 260/1/1 104/2/1 259/3/1
f 104/2/1 261/4/1 259/3/1
f 261/4/1 111/5/1 262/6/1
f 111/5/1 263/7/1 262/6/1
f 115/8/1 264/9/1 263/7/1
f 118/10/1 265/11/1 264/9/1
f 121/12/1 266/13/1 265/11/1
f 266/13/1 3/14/1 267/15/1
f 3/14/1 268/16/1 267/15/1
f 8/17/1 269/18/1 268/16/1
f 269/18/1 16/19/1 270/20/1
f 16/19/1 271/21/1 270/20/1
f 20/22/1 272/23/1 271/21/1
f 272/23/1 27/24/1 273/25/1
f 27/24/1 274/26/1 273/25/1
f 274/26/1 34/27/1 275/28/1
f 39/29/1 275/28/1 34/27/1
f 39/29/1 277/30/1 276/31/1
f 277/30/1 46/32/1 278/33/1
f 46/32/1 279/34/1 278/33/1
f 51/35/1 280/36/1 279/34/1
f 56/37/1 281/38/1 280/36/1
f 60/39/1 282/40/1 281/38/1
f 282/40/1 68/41/1 283/42/1
f 68/41/1 284/43/1 283/42/1
f 71/44/1 285/45/1 284/43/1
f 285/45/1 77/46/1 286/47/1
f 77/46/1 287/48/1 286/47/1
f 84/49/1 288/50/1 287/48/1
f 288/50/1 89/51/1 289/52/1
f 290/53/1 98/54/1 260/1/1
f 89/51/1 290/53/1 289/52/1
f 181/55/2 322/56/2 291/57/2
f 183/58/2 291/57/2 292/59/2
f 183/58/2 293/60/2 186/61/2
f 186/61/2 294/62/2 188/63/2
f 189/64/2 294/62/2 295/65/2
f 189/64/2 296/66/2 192/67/2
f 194/68/2 296/66/2 297/69/2
f 130/70/2 297/69/2 298/71/2
f 130/70/2 299/72/2 133/73/2
f 133/73/2 300/74/2 136/75/2
f 136/75/2 301/76/2 138/77/2
f 138/77/2 302/78/2 140/79/2
f 142/80/2 302/78/2 303/81/2
f 142/80/2 304/82/2 144/83/2
f 144/83/2 305/84/2 146/85/2
f 305/84/2 148/86/2 146/85/2
f 307/87/2 148/86/2 306/88/2
f 151/89/2 307/87/2 308/90/2
f 151/89/2 309/91/2 153/92/2
f 153/92/2 310/93/2 155/94/2
f 157/95/2 310/93/2 311/96/2
f 157/95/2 312/97/2 160/98/2
f 161/99/2 312/97/2 313/100/2
f 164/101/2 313/100/2 314/102/2
f 164/101/2 315/103/2 166/104/2
f 168/105/2 315/103/2 316/106/2
f 168/105/2 317/107/2 170/108/2
f 170/108/2 318/109/2 172/110/2
f 174/111/2 318/109/2 319/112/2
f 174/111/2 320/113/2 176/114/2
f 322/56/2 178/115/2 321/116/2
f 176/114/2 321/116/2 178/115/2
f 16/117/3 140/118/3 20/119/3
f 71/120/4 168/121/4 75/122/4
f 127/123/5 130/124/5 3/125/5
f 24/126/6 144/127/6 27/128/6
f 77/129/7 172/130/7 84/131/7
f 29/132/8 148/133/8 34/134/8
f 87/135/9 176/136/9 89/137/9
f 39/138/10 151/139/10 44/140/10
f 98/141/11 178/142/11 179/143/11
f 46/144/12 155/145/12 51/146/12
f 370/147/10 259/3/10 261/4/10
f 56/148/13 160/149/13 60/150/13
f 111/151/14 188/152/14 115/153/14
f 8/154/15 136/155/15 12/156/15
f 61/157/16 164/158/16 68/159/16
f 118/160/17 192/161/17 121/162/17
f 196/163/18 198/164/18 195/165/18
f 196/166/1 127/167/1 121/12/1
f 197/168/19 121/162/19 192/161/19
f 194/68/2 197/169/2 192/67/2
f 195/165/20 194/170/20 127/123/20
f 200/171/21 202/172/21 199/173/21
f 20/22/1 199/174/1 24/175/1
f 201/176/22 20/119/22 140/118/22
f 202/177/2 140/79/2 142/80/2
f 199/173/23 142/178/23 24/126/23
f 204/179/24 206/180/24 203/181/24
f 204/182/1 77/46/1 75/183/1
f 205/184/25 75/122/25 168/121/25
f 206/185/2 168/105/2 170/108/2
f 203/181/26 170/186/26 77/129/26
f 208/187/20 210/188/20 207/189/20
f 208/190/1 29/191/1 27/24/1
f 209/192/18 27/128/18 144/127/18
f 146/85/2 209/193/2 144/83/2
f 207/189/27 146/194/27 29/132/27
f 212/195/28 214/196/28 211/197/28
f 84/49/1 211/198/1 87/199/1
f 213/200/23 84/131/23 172/130/23
f 214/201/2 172/110/2 174/111/2
f 211/197/22 174/202/22 87/135/22
f 216/203/29 218/204/29 215/205/29
f 216/206/1 39/29/1 34/27/1
f 148/133/30 216/203/30 34/134/30
f 149/207/2 217/208/2 148/86/2
f 215/205/31 149/209/31 39/138/31
f 220/210/19 222/211/19 219/212/19
f 220/213/1 96/214/1 89/51/1
f 221/215/27 89/137/27 176/136/27
f 178/115/2 221/216/2 176/114/2
f 219/212/18 178/142/18 96/217/18
f 224/218/25 226/219/25 223/220/25
f 44/221/1 223/222/1 46/32/1
f 225/223/32 44/140/32 151/139/32
f 226/224/2 151/89/2 153/92/2
f 223/220/24 153/225/24 46/144/24
f 228/226/33 230/227/33 227/228/33
f 228/229/1 104/2/1 98/54/1
f 229/230/31 98/141/31 179/143/31
f 181/55/2 229/231/2 179/232/2
f 227/228/30 181/233/30 104/234/30
f 232/235/23 234/236/23 231/237/23
f 51/35/1 231/238/1 56/37/1
f 233/239/21 51/146/21 155/145/21
f 234/240/2 155/94/2 157/95/2
f 231/237/28 157/241/28 56/148/28
f 236/242/26 238/243/26 235/244/26
f 236/245/1 111/5/1 108/246/1
f 237/247/24 108/248/24 183/249/24
f 238/250/2 183/58/2 186/61/2
f 111/151/32 238/243/32 186/251/32
f 240/252/30 242/253/30 239/254/30
f 240/255/1 8/17/1 3/14/1
f 241/256/33 3/125/33 130/124/33
f 242/257/2 130/70/2 133/73/2
f 239/254/29 133/258/29 8/154/29
f 244/259/27 246/260/27 243/261/27
f 244/262/1 61/263/1 60/39/1
f 245/264/20 60/150/20 160/149/20
f 161/99/2 245/265/2 160/98/2
f 243/261/19 161/266/19 61/157/19
f 248/267/22 250/268/22 247/269/22
f 115/8/1 247/270/1 118/10/1
f 249/271/28 115/153/28 188/152/28
f 250/272/2 188/63/2 189/64/2
f 247/269/21 189/273/21 118/160/21
f 252/274/32 254/275/32 251/276/32
f 252/277/1 16/19/1 12/278/1
f 253/279/26 12/156/26 136/155/26
f 254/280/2 136/75/2 138/77/2
f 251/276/25 138/281/25 16/117/25
f 256/282/31 258/283/31 255/284/31
f 256/285/1 71/44/1 68/41/1
f 257/286/29 68/159/29 164/158/29
f 258/287/2 164/101/2 166/104/2
f 255/284/33 166/288/33 71/120/33
f 326/289/7 270/20/7 271/21/7
f 301/76/7 325/290/7 302/78/7
f 327/291/27 296/66/27 330/292/27
f 329/293/27 266/13/27 328/294/27
f 333/295/15 316/106/15 315/103/15
f 334/296/15 285/45/15 331/297/15
f 325/290/28 303/81/28 302/78/28
f 272/23/28 326/289/28 271/21/28
f 298/71/16 327/291/16 338/298/16
f 267/15/16 328/294/16 266/13/16
f 285/45/32 339/299/32 331/297/32
f 332/300/32 317/107/32 316/106/32
f 336/301/9 304/82/9 303/81/9
f 273/25/9 335/302/9 272/23/9
f 344/303/3 317/107/3 340/304/3
f 286/47/3 343/305/3 339/299/3
f 341/306/19 274/26/19 345/307/19
f 288/50/21 343/305/21 287/48/21
f 319/112/21 344/303/21 348/308/21
f 349/309/11 274/26/11 353/310/11
f 306/88/11 346/311/11 350/312/11
f 347/313/6 289/52/6 351/314/6
f 320/113/6 348/308/6 352/315/6
f 353/310/33 276/31/33 359/316/33
f 354/317/33 307/87/33 306/88/33
f 351/314/20 290/53/20 355/318/20
f 321/116/20 352/315/20 356/319/20
f 358/320/34 307/87/34 360/321/34
f 276/31/34 357/322/34 359/316/34
f 290/53/8 361/323/8 355/318/8
f 322/56/8 356/319/8 362/324/8
f 358/320/26 309/91/26 308/90/26
f 278/33/26 357/322/26 277/30/26
f 260/1/29 366/325/29 361/323/29
f 365/326/29 322/56/29 362/324/29
f 364/327/14 310/93/14 309/91/14
f 279/34/14 363/328/14 278/33/14
f 291/57/10 369/329/10 292/59/10
f 279/34/22 372/330/22 367/331/22
f 368/332/22 311/96/22 310/93/22
f 370/147/25 262/6/25 374/333/25
f 293/60/25 369/329/25 373/334/25
f 280/36/17 376/335/17 372/330/17
f 371/336/17 312/97/17 311/96/17
f 299/72/31 338/298/31 377/337/31
f 268/16/31 337/338/31 267/15/31
f 374/333/12 263/7/12 378/339/12
f 294/62/12 373/334/12 379/340/12
f 381/341/18 281/38/18 282/40/18
f 380/342/18 312/97/18 375/343/18
f 382/344/4 269/18/4 383/345/4
f 384/346/4 299/72/4 377/337/4
f 294/62/23 386/347/23 295/65/23
f 378/339/23 264/9/23 385/348/23
f 282/40/5 387/349/5 381/341/5
f 314/102/5 380/342/5 388/350/5
f 300/74/24 324/351/24 301/76/24
f 383/345/24 270/20/24 323/352/24
f 295/65/13 330/292/13 296/66/13
f 385/348/13 265/11/13 329/293/13
f 283/42/30 334/296/30 387/349/30
f 315/103/30 388/350/30 333/295/30
f 390/353/1 366/325/1 389/354/1
f 366/325/1 391/355/1 389/354/1
f 370/147/1 392/356/1 391/355/1
f 374/333/1 393/357/1 392/356/1
f 393/357/1 385/348/1 394/358/1
f 385/348/1 395/359/1 394/358/1
f 395/359/1 328/294/1 397/360/1
f 328/294/1 396/361/1 397/360/1
f 337/338/1 398/362/1 396/361/1
f 399/363/1 382/344/1 383/345/1
f 383/345/1 400/364/1 399/363/1
f 323/352/1 401/365/1 400/364/1
f 401/365/1 335/302/1 402/366/1
f 402/366/1 341/306/1 403/367/1
f 341/306/1 404/368/1 403/367/1
f 345/307/1 353/310/1 405/369/1
f 359/316/1 405/369/1 353/310/1
f 406/370/1 357/322/1 407/371/1
f 357/322/1 408/372/1 407/371/1
f 363/328/1 409/373/1 408/372/1
f 409/373/1 372/330/1 410/374/1
f 372/330/1 411/375/1 410/374/1
f 376/335/1 413/376/1 411/375/1
f 387/349/1 413/376/1 381/341/1
f 387/349/1 414/377/1 412/378/1
f 334/296/1 415/379/1 414/377/1
f 331/297/1 416/380/1 415/379/1
f 339/299/1 417/381/1 416/380/1
f 417/381/1 347/313/1 418/382/1
f 347/313/1 419/383/1 418/382/1
f 355/318/1 390/353/1 420/384/1
f 351/314/1 420/384/1 419/383/1
f 365/326/2 421/385/2 422/386/2
f 369/329/2 422/386/2 423/387/2
f 369/329/2 424/388/2 373/334/2
f 373/334/2 425/389/2 379/340/2
f 379/340/2 426/390/2 386/347/2
f 386/347/2 427/391/2 330/292/2
f 428/392/2 330/292/2 427/391/2
f 327/291/2 429/393/2 338/298/2
f 377/337/2 429/393/2 430/394/2
f 384/346/2 430/394/2 431/395/2
f 384/346/2 432/396/2 324/351/2
f 324/351/2 433/397/2 325/290/2
f 325/290/2 434/398/2 336/301/2
f 336/301/2 435/399/2 342/400/2
f 436/401/2 342/400/2 435/399/2
f 350/312/2 436/401/2 354/317/2
f 438/402/2 354/317/2 437/403/2
f 358/320/2 438/402/2 439/404/2
f 358/320/2 440/405/2 364/327/2
f 364/327/2 441/406/2 368/332/2
f 368/332/2 442/407/2 371/336/2
f 371/336/2 443/408/2 375/343/2
f 444/409/2 375/343/2 443/408/2
f 380/342/2 445/410/2 388/350/2
f 446/411/2 388/350/2 445/410/2
f 332/300/2 446/411/2 447/412/2
f 332/300/2 448/413/2 340/304/2
f 340/304/2 449/414/2 344/303/2
f 344/303/2 450/415/2 348/308/2
f 352/315/2 450/415/2 452/416/2
f 352/315/2 451/417/2 356/319/2
f 518/418/1 102/419/1 517/420/1
f 595/421/8 555/422/8 518/423/8
f 106/424/1 453/425/1 102/419/1
f 455/426/1 110/427/1 457/428/1
f 457/428/1 520/429/1 456/430/1
f 458/431/1 520/429/1 521/432/1
f 113/433/1 522/434/1 519/435/1
f 459/436/1 521/432/1 524/437/1
f 119/438/1 523/439/1 522/434/1
f 124/440/1 525/441/1 523/439/1
f 526/442/1 459/436/1 524/437/1
f 126/443/1 528/444/1 525/441/1
f 461/445/1 526/442/1 527/446/1
f 528/444/1 1/447/1 5/448/1
f 5/448/1 463/449/1 462/450/1
f 14/451/1 463/449/1 9/452/1
f 18/453/1 531/454/1 529/455/1
f 465/456/1 532/457/1 466/458/1
f 22/459/1 533/460/1 531/454/1
f 467/461/1 532/457/1 534/462/1
f 25/463/1 535/464/1 533/460/1
f 467/461/1 536/465/1 468/466/1
f 538/467/1 468/466/1 536/465/1
f 32/468/1 537/469/1 535/464/1
f 470/470/1 41/471/1 471/472/1
f 48/473/1 471/472/1 41/471/1
f 548/474/1 547/475/1 70/476/1
f 474/477/1 540/478/1 542/479/1
f 50/480/1 541/481/1 539/482/1
f 475/483/1 542/479/1 543/484/1
f 54/485/1 544/486/1 541/481/1
f 476/487/1 543/484/1 546/488/1
f 57/489/1 545/490/1 544/486/1
f 477/491/1 546/488/1 548/474/1
f 63/492/1 547/475/1 545/490/1
f 547/475/1 65/493/1 70/476/1
f 478/494/1 73/495/1 479/496/1
f 479/496/1 79/497/1 480/498/1
f 518/418/1 100/499/1 102/419/1
f 81/500/1 551/501/1 549/502/1
f 481/503/1 552/504/1 482/505/1
f 86/506/1 553/507/1 551/501/1
f 483/508/1 552/504/1 556/509/1
f 93/510/1 518/418/1 555/511/1
f 517/420/1 484/512/1 554/513/1
f 92/514/1 555/511/1 553/507/1
f 484/512/1 556/509/1 554/513/1
f 182/515/2 486/516/2 184/517/2
f 487/518/2 184/517/2 486/516/2
f 185/519/2 487/518/2 558/520/2
f 562/521/2 187/522/2 557/523/2
f 558/520/2 489/524/2 559/525/2
f 191/526/2 562/521/2 561/527/2
f 559/525/2 490/528/2 560/529/2
f 564/530/2 191/526/2 561/527/2
f 490/528/2 563/531/2 560/529/2
f 566/532/2 193/533/2 564/530/2
f 491/534/2 565/535/2 563/531/2
f 558/520/2 557/523/2 185/519/2
f 493/536/2 135/537/2 134/538/2
f 494/539/2 137/540/2 135/537/2
f 139/541/2 137/540/2 567/542/2
f 496/543/2 570/544/2 568/545/2
f 139/541/2 569/546/2 141/547/2
f 143/548/2 569/546/2 571/549/2
f 570/544/2 498/550/2 573/551/2
f 143/548/2 572/552/2 145/553/2
f 573/551/2 499/554/2 575/555/2
f 501/556/2 500/557/2 576/558/2
f 574/559/2 145/553/2 572/552/2
f 502/560/2 150/561/2 500/557/2
f 502/560/2 154/562/2 152/563/2
f 187/522/2 185/519/2 557/523/2
f 581/564/2 156/565/2 578/566/2
f 503/567/2 579/568/2 577/569/2
f 159/570/2 581/564/2 580/571/2
f 505/572/2 583/573/2 579/568/2
f 162/574/2 580/571/2 582/575/2
f 506/576/2 586/577/2 583/573/2
f 584/578/2 162/574/2 582/575/2
f 507/579/2 585/580/2 586/577/2
f 566/532/2 134/538/2 132/581/2
f 165/582/2 510/583/2 167/584/2
f 511/585/2 167/584/2 510/583/2
f 565/535/2 134/538/2 566/532/2
f 512/586/2 589/587/2 588/588/2
f 171/589/2 592/590/2 173/591/2
f 589/587/2 514/592/2 590/593/2
f 175/594/2 592/590/2 591/595/2
f 590/593/2 515/596/2 596/597/2
f 175/594/2 593/598/2 177/599/2
f 137/540/3 433/397/3 432/396/3
f 18/453/3 400/364/3 401/365/3
f 428/392/18 191/526/18 193/533/18
f 397/360/18 124/440/18 395/359/18
f 167/584/4 446/411/4 165/582/4
f 415/379/4 70/476/4 414/377/4
f 139/541/21 434/398/21 433/397/21
f 22/459/21 401/365/21 402/366/21
f 193/533/5 429/393/5 428/392/5
f 1/447/5 397/360/5 396/361/5
f 169/600/24 447/412/24 167/584/24
f 416/380/24 73/495/24 415/379/24
f 434/398/6 143/548/6 435/399/6
f 25/463/6 402/366/6 403/367/6
f 171/589/7 448/413/7 169/600/7
f 79/497/7 417/381/7 81/500/7
f 435/399/20 145/553/20 436/401/20
f 404/368/20 25/463/20 403/367/20
f 173/591/28 449/414/28 171/589/28
f 81/500/28 418/382/28 86/506/28
f 437/403/8 145/553/8 147/601/8
f 36/602/8 404/368/8 405/369/8
f 173/591/9 452/416/9 450/415/9
f 92/514/9 418/382/9 419/383/9
f 150/561/29 437/403/29 147/601/29
f 406/370/29 36/602/29 405/369/29
f 175/594/19 451/417/19 452/416/19
f 93/510/19 419/383/19 420/384/19
f 150/561/10 439/404/10 438/402/10
f 406/370/10 41/471/10 38/603/10
f 177/599/11 421/385/11 451/417/11
f 100/499/11 420/384/11 390/353/11
f 152/563/25 440/405/25 439/404/25
f 48/473/25 407/371/25 408/372/25
f 182/515/33 421/385/33 180/604/33
f 100/499/33 389/354/33 102/419/33
f 154/562/12 441/406/12 440/405/12
f 50/480/12 408/372/12 409/373/12
f 182/515/34 423/387/34 422/386/34
f 391/355/34 102/419/34 389/354/34
f 158/605/23 441/406/23 156/565/23
f 50/480/23 410/374/23 54/485/23
f 184/517/26 424/388/26 423/387/26
f 392/356/26 106/424/26 391/355/26
f 443/408/13 158/605/13 159/570/13
f 411/375/13 54/485/13 410/374/13
f 132/581/30 430/394/30 429/393/30
f 5/448/30 396/361/30 398/362/30
f 187/522/14 424/388/14 185/519/14
f 110/427/14 393/357/14 113/433/14
f 444/409/27 159/570/27 162/574/27
f 63/492/27 411/375/27 413/376/27
f 430/394/15 135/537/15 431/395/15
f 398/362/15 9/452/15 5/448/15
f 187/522/22 426/390/22 425/389/22
f 119/438/22 393/357/22 394/358/22
f 162/574/16 445/410/16 444/409/16
f 63/492/16 412/378/16 65/493/16
f 431/395/32 137/540/32 432/396/32
f 399/363/32 14/451/32 9/452/32
f 427/391/17 190/606/17 191/526/17
f 395/359/17 119/438/17 394/358/17
f 163/607/31 446/411/31 445/410/31
f 65/493/31 414/377/31 70/476/31
f 104/234/34 183/249/34 108/248/34
f 49/608/1 52/609/1 66/610/1
f 52/609/1 53/611/1 66/610/1
f 53/611/1 55/612/1 66/610/1
f 55/612/1 58/613/1 66/610/1
f 58/613/1 59/614/1 66/610/1
f 59/614/1 62/615/1 66/610/1
f 62/615/1 64/616/1 66/610/1
f 64/616/1 2/617/1 66/610/1
f 2/617/1 4/618/1 66/610/1
f 4/618/1 6/619/1 66/610/1
f 6/619/1 7/620/1 66/610/1
f 7/620/1 10/621/1 66/610/1
f 10/621/1 11/622/1 66/610/1
f 11/622/1 13/623/1 66/610/1
f 13/623/1 15/624/1 66/610/1
f 15/624/1 17/625/1 66/610/1
f 17/625/1 19/626/1 66/610/1
f 19/626/1 21/627/1 66/610/1
f 21/627/1 23/628/1 66/610/1
f 23/628/1 26/629/1 66/610/1
f 26/629/1 28/630/1 66/610/1
f 28/630/1 30/631/1 66/610/1
f 30/631/1 31/632/1 66/610/1
f 31/632/1 33/633/1 66/610/1
f 33/633/1 35/634/1 66/610/1
f 35/634/1 37/635/1 66/610/1
f 37/635/1 40/636/1 66/610/1
f 40/636/1 42/637/1 66/610/1
f 42/637/1 43/638/1 66/610/1
f 43/638/1 45/639/1 66/610/1
f 49/608/1 66/610/1 47/640/1
f 45/639/1 47/640/1 66/610/1
f 116/641/2 131/642/2 117/643/2
f 117/643/2 131/642/2 120/644/2
f 120/644/2 131/642/2 122/645/2
f 122/645/2 131/642/2 123/646/2
f 123/646/2 131/642/2 125/647/2
f 125/647/2 131/642/2 128/648/2
f 128/648/2 131/642/2 129/649/2
f 129/649/2 131/642/2 67/650/2
f 67/650/2 131/642/2 69/651/2
f 69/651/2 131/642/2 72/652/2
f 72/652/2 131/642/2 74/653/2
f 74/653/2 131/642/2 76/654/2
f 76/654/2 131/642/2 78/655/2
f 78/655/2 131/642/2 80/656/2
f 80/656/2 131/642/2 82/657/2
f 82/657/2 131/642/2 83/658/2
f 83/658/2 131/642/2 85/659/2
f 85/659/2 131/642/2 88/660/2
f 88/660/2 131/642/2 90/661/2
f 90/661/2 131/642/2 91/662/2
f 91/662/2 131/642/2 94/663/2
f 94/663/2 131/642/2 95/664/2
f 95/664/2 131/642/2 97/665/2
f 97/665/2 131/642/2 99/666/2
f 99/666/2 131/642/2 101/667/2
f 101/667/2 131/642/2 103/668/2
f 103/668/2 131/642/2 105/669/2
f 105/669/2 131/642/2 107/670/2
f 107/670/2 131/642/2 109/671/2
f 109/671/2 131/642/2 112/672/2
f 116/641/2 114/673/2 131/642/2
f 112/672/2 131/642/2 114/673/2
f 74/674/3 496/675/3 495/676/3
f 10/677/3 464/678/3 465/679/3
f 128/680/18 491/681/18 490/682/18
f 460/683/18 62/684/18 459/685/18
f 103/686/4 509/687/4 101/688/4
f 37/689/4 478/690/4 479/691/4
f 76/692/21 497/693/21 496/675/21
f 11/694/21 465/679/21 466/695/21
f 129/649/5 492/696/5 491/681/5
f 2/697/5 460/683/5 461/698/5
f 103/686/24 511/699/24 510/700/24
f 40/701/24 479/691/24 480/702/24
f 78/703/6 498/704/6 497/693/6
f 466/695/6 13/705/6 11/694/6
f 107/706/7 511/699/7 105/707/7
f 40/701/7 481/708/7 42/709/7
f 498/704/20 82/710/20 499/711/20
f 467/712/20 15/713/20 13/705/20
f 109/714/28 512/715/28 107/706/28
f 42/709/28 482/716/28 43/717/28
f 501/718/8 82/710/8 83/719/8
f 469/720/8 15/713/8 468/721/8
f 109/714/9 514/722/9 513/723/9
f 43/717/9 483/724/9 45/725/9
f 501/718/29 85/726/29 500/727/29
f 469/720/29 19/728/29 17/729/29
f 514/722/19 114/730/19 515/731/19
f 484/732/19 45/725/19 483/724/19
f 500/727/10 88/733/10 502/734/10
f 471/735/10 19/728/10 470/736/10
f 515/731/11 116/737/11 516/738/11
f 454/739/11 47/740/11 484/732/11
f 502/734/25 90/741/25 504/742/25
f 23/743/25 471/735/25 472/744/25
f 485/745/33 116/737/33 117/746/33
f 52/747/33 454/739/33 453/748/33
f 90/741/12 503/749/12 504/742/12
f 26/750/12 472/744/12 473/751/12
f 485/745/34 120/752/34 486/753/34
f 455/754/34 52/747/34 453/748/34
f 91/755/23 505/756/23 503/749/23
f 28/757/23 473/751/23 474/758/23
f 122/759/26 486/753/26 120/752/26
f 457/760/26 53/761/26 455/754/26
f 95/762/13 505/756/13 94/763/13
f 28/757/13 475/764/13 30/765/13
f 67/766/30 493/767/30 492/768/30
f 4/618/30 461/769/30 462/770/30
f 123/771/14 487/772/14 122/759/14
f 55/773/14 456/774/14 58/775/14
f 95/762/27 507/776/27 506/777/27
f 31/778/27 475/764/27 476/779/27
f 493/767/15 72/780/15 494/781/15
f 6/782/15 462/770/15 463/783/15
f 123/771/22 489/784/22 488/785/22
f 59/786/22 456/774/22 458/787/22
f 99/788/16 507/776/16 97/789/16
f 31/778/16 477/790/16 33/791/16
f 72/780/32 495/676/32 494/781/32
f 7/792/32 463/783/32 464/678/32
f 125/793/17 490/682/17 489/784/17
f 62/684/17 458/787/17 459/685/17
f 99/788/31 509/687/31 508/794/31
f 33/791/31 478/690/31 35/795/31
f 304/82/19 346/311/19 305/84/19
f 553/796/20 593/797/20 591/798/20
f 591/798/6 551/799/6 553/796/6
f 517/800/35 595/801/35 518/802/35
f 517/800/11 596/803/11 594/804/11
f 556/805/19 596/803/19 554/806/19
f 589/807/9 556/805/9 552/808/9
f 588/809/28 552/808/28 550/810/28
f 549/811/36 588/809/36 550/810/36
f 587/812/21 551/799/21 592/813/21
f 585/814/37 547/815/37 548/816/37
f 586/817/16 548/816/16 546/818/16
f 543/819/27 586/817/27 546/818/27
f 579/820/13 543/819/13 542/821/13
f 540/822/23 579/820/23 542/821/23
f 578/823/38 540/822/38 539/824/38
f 581/825/22 539/824/22 541/826/22
f 544/827/17 581/825/17 541/826/17
f 545/828/18 580/829/18 544/827/18
f 547/830/5 582/831/5 545/828/5
f 536/832/20 573/833/20 575/834/20
f 570/835/6 534/836/6 532/837/6
f 530/838/21 570/835/21 532/837/21
f 530/838/39 567/839/39 568/840/39
f 569/841/28 529/842/28 531/843/28
f 533/844/9 569/841/9 531/843/9
f 533/844/19 572/845/19 571/846/19
f 526/847/5 565/848/5 527/849/5
f 527/849/40 566/850/40 528/851/40
f 566/852/16 525/853/16 528/854/16
f 564/855/27 523/856/27 525/853/27
f 561/857/13 522/858/13 523/856/13
f 562/859/23 519/860/23 522/858/23
f 520/861/41 557/862/41 558/863/41
f 520/861/22 559/864/22 521/865/22
f 524/866/18 563/867/18 526/847/18
f 560/868/17 521/865/17 559/864/17
f 595/869/2 177/599/2 593/598/2
f 493/536/2 134/538/2 565/535/2
f 596/597/2 516/870/2 594/871/2
f 576/558/2 499/554/2 501/556/2
f 574/872/11 535/873/11 537/874/11
f 574/875/42 538/876/42 576/877/42
f 500/557/2 150/561/2 576/558/2
f 574/559/2 576/558/2 150/561/2
f 574/559/2 150/561/2 147/601/2
f 568/545/2 567/542/2 137/540/2
f 137/540/2 495/878/2 568/545/2
f 496/543/2 568/545/2 495/878/2
f 38/603/1 537/469/1 36/602/1
f 537/469/1 38/603/1 538/467/1
f 38/603/1 470/470/1 538/467/1
f 538/467/1 470/470/1 469/879/1
f 18/453/1 529/455/1 14/451/1
f 529/455/1 530/880/1 14/451/1
f 14/451/1 530/880/1 464/881/1
f 465/456/1 464/881/1 530/880/1
f 528/444/1 5/448/1 527/446/1
f 5/448/1 462/450/1 527/446/1
f 527/446/1 462/450/1 461/445/1
f 113/433/1 519/435/1 110/427/1
f 519/435/1 520/429/1 110/427/1
f 520/429/1 457/428/1 110/427/1
f 102/419/1 453/425/1 517/420/1
f 517/420/1 453/425/1 454/882/1
f 81/500/1 549/502/1 79/497/1
f 549/502/1 550/883/1 79/497/1
f 79/497/1 550/883/1 480/498/1
f 481/503/1 480/498/1 550/883/1
f 70/476/1 478/494/1 548/474/1
f 548/474/1 478/494/1 477/491/1
f 50/480/1 539/482/1 48/473/1
f 539/482/1 540/478/1 48/473/1
f 48/473/1 540/478/1 472/884/1
f 565/535/2 492/885/2 493/536/2
f 488/886/2 558/520/2 487/518/2
f 182/515/2 180/604/2 595/869/2
f 595/869/2 594/871/2 182/515/2
f 485/887/2 182/515/2 594/871/2
f 594/871/2 516/870/2 485/887/2
f 171/589/2 169/600/2 587/888/2
f 588/588/2 587/888/2 169/600/2
f 169/600/2 511/585/2 588/588/2
f 512/586/2 588/588/2 511/585/2
f 585/580/2 508/889/2 509/890/2
f 509/890/2 165/582/2 585/580/2
f 585/580/2 165/582/2 584/578/2
f 584/578/2 165/582/2 163/607/2
f 156/565/2 154/562/2 578/566/2
f 578/566/2 154/562/2 577/569/2
f 577/569/2 154/562/2 504/891/2
f 504/891/2 503/567/2 577/569/2
f 473/892/1 472/884/1 540/478/1
f 356/319/2 421/385/2 362/324/2
f 576/877/8 536/832/8 575/834/8
f 260/1/1 98/54/1 104/2/1
f 104/2/1 108/246/1 261/4/1
f 261/4/1 108/246/1 111/5/1
f 111/5/1 115/8/1 263/7/1
f 115/8/1 118/10/1 264/9/1
f 118/10/1 121/12/1 265/11/1
f 121/12/1 127/167/1 266/13/1
f 266/13/1 127/167/1 3/14/1
f 3/14/1 8/17/1 268/16/1
f 8/17/1 12/278/1 269/18/1
f 269/18/1 12/278/1 16/19/1
f 16/19/1 20/22/1 271/21/1
f 20/22/1 24/175/1 272/23/1
f 272/23/1 24/175/1 27/24/1
f 27/24/1 29/191/1 274/26/1
f 274/26/1 29/191/1 34/27/1
f 39/29/1 276/31/1 275/28/1
f 39/29/1 44/221/1 277/30/1
f 277/30/1 44/221/1 46/32/1
f 46/32/1 51/35/1 279/34/1
f 51/35/1 56/37/1 280/36/1
f 56/37/1 60/39/1 281/38/1
f 60/39/1 61/263/1 282/40/1
f 282/40/1 61/263/1 68/41/1
f 68/41/1 71/44/1 284/43/1
f 71/44/1 75/183/1 285/45/1
f 285/45/1 75/183/1 77/46/1
f 77/46/1 84/49/1 287/48/1
f 84/49/1 87/199/1 288/50/1
f 288/50/1 87/199/1 89/51/1
f 290/53/1 96/214/1 98/54/1
f 89/51/1 96/214/1 290/53/1
f 181/55/2 179/232/2 322/56/2
f 183/58/2 181/55/2 291/57/2
f 183/58/2 292/59/2 293/60/2
f 186/61/2 293/60/2 294/62/2
f 189/64/2 188/63/2 294/62/2
f 189/64/2 295/65/2 296/66/2
f 194/68/2 192/67/2 296/66/2
f 130/70/2 194/68/2 297/69/2
f 130/70/2 298/71/2 299/72/2
f 133/73/2 299/72/2 300/74/2
f 136/75/2 300/74/2 301/76/2
f 138/77/2 301/76/2 302/78/2
f 142/80/2 140/79/2 302/78/2
f 142/80/2 303/81/2 304/82/2
f 144/83/2 304/82/2 305/84/2
f 305/84/2 306/88/2 148/86/2
f 307/87/2 149/207/2 148/86/2
f 151/89/2 149/207/2 307/87/2
f 151/89/2 308/90/2 309/91/2
f 153/92/2 309/91/2 310/93/2
f 157/95/2 155/94/2 310/93/2
f 157/95/2 311/96/2 312/97/2
f 161/99/2 160/98/2 312/97/2
f 164/101/2 161/99/2 313/100/2
f 164/101/2 314/102/2 315/103/2
f 168/105/2 166/104/2 315/103/2
f 168/105/2 316/106/2 317/107/2
f 170/108/2 317/107/2 318/109/2
f 174/111/2 172/110/2 318/109/2
f 174/111/2 319/112/2 320/113/2
f 322/56/2 179/232/2 178/115/2
f 176/114/2 320/113/2 321/116/2
f 16/117/3 138/281/3 140/118/3
f 71/120/4 166/288/4 168/121/4
f 127/123/5 194/170/5 130/124/5
f 24/126/6 142/178/6 144/127/6
f 77/129/7 170/186/7 172/130/7
f 29/132/8 146/194/8 148/133/8
f 87/135/9 174/202/9 176/136/9
f 39/138/10 149/209/10 151/139/10
f 98/141/11 96/217/11 178/142/11
f 46/144/12 153/225/12 155/145/12
f 370/147/10 366/325/10 259/3/10
f 56/148/13 157/241/13 160/149/13
f 111/151/14 186/251/14 188/152/14
f 8/154/15 133/258/15 136/155/15
f 61/157/16 161/266/16 164/158/16
f 118/160/17 189/273/17 192/161/17
f 196/163/18 197/168/18 198/164/18
f 196/166/1 195/893/1 127/167/1
f 197/168/19 196/163/19 121/162/19
f 194/68/2 198/894/2 197/169/2
f 195/165/20 198/164/20 194/170/20
f 200/171/21 201/176/21 202/172/21
f 20/22/1 200/895/1 199/174/1
f 201/176/22 200/171/22 20/119/22
f 202/177/2 201/896/2 140/79/2
f 199/173/23 202/172/23 142/178/23
f 204/179/24 205/184/24 206/180/24
f 204/182/1 203/897/1 77/46/1
f 205/184/25 204/179/25 75/122/25
f 206/185/2 205/898/2 168/105/2
f 203/181/26 206/180/26 170/186/26
f 208/187/20 209/192/20 210/188/20
f 208/190/1 207/899/1 29/191/1
f 209/192/18 208/187/18 27/128/18
f 146/85/2 210/900/2 209/193/2
f 207/189/27 210/188/27 146/194/27
f 212/195/28 213/200/28 214/196/28
f 84/49/1 212/901/1 211/198/1
f 213/200/23 212/195/23 84/131/23
f 214/201/2 213/902/2 172/110/2
f 211/197/22 214/196/22 174/202/22
f 216/203/29 217/903/29 218/204/29
f 216/206/1 215/904/1 39/29/1
f 148/133/30 217/903/30 216/203/30
f 149/207/2 218/905/2 217/208/2
f 215/205/31 218/204/31 149/209/31
f 220/210/19 221/215/19 222/211/19
f 220/213/1 219/906/1 96/214/1
f 221/215/27 220/210/27 89/137/27
f 178/115/2 222/907/2 221/216/2
f 219/212/18 222/211/18 178/142/18
f 224/218/25 225/223/25 226/219/25
f 44/221/1 224/908/1 223/222/1
f 225/223/32 224/218/32 44/140/32
f 226/224/2 225/909/2 151/89/2
f 223/220/24 226/219/24 153/225/24
f 228/226/33 229/230/33 230/227/33
f 228/229/1 227/910/1 104/2/1
f 229/230/31 228/226/31 98/141/31
f 181/55/2 230/911/2 229/231/2
f 227/228/30 230/227/30 181/233/30
f 232/235/23 233/239/23 234/236/23
f 51/35/1 232/912/1 231/238/1
f 233/239/21 232/235/21 51/146/21
f 234/240/2 233/913/2 155/94/2
f 231/237/28 234/236/28 157/241/28
f 236/242/26 237/247/26 238/243/26
f 236/245/1 235/914/1 111/5/1
f 237/247/24 236/242/24 108/248/24
f 238/250/2 237/915/2 183/58/2
f 111/151/32 235/244/32 238/243/32
f 240/252/30 241/916/30 242/253/30
f 240/255/1 239/917/1 8/17/1
f 241/256/33 240/918/33 3/125/33
f 242/257/2 241/919/2 130/70/2
f 239/254/29 242/253/29 133/258/29
f 244/259/27 245/264/27 246/260/27
f 244/262/1 243/920/1 61/263/1
f 245/264/20 244/259/20 60/150/20
f 161/99/2 246/921/2 245/265/2
f 243/261/19 246/260/19 161/266/19
f 248/267/22 249/271/22 250/268/22
f 115/8/1 248/922/1 247/270/1
f 249/271/28 248/267/28 115/153/28
f 250/272/2 249/923/2 188/63/2
f 247/269/21 250/268/21 189/273/21
f 252/274/32 253/279/32 254/275/32
f 252/277/1 251/924/1 16/19/1
f 253/279/26 252/274/26 12/156/26
f 254/280/2 253/925/2 136/75/2
f 251/276/25 254/275/25 138/281/25
f 256/282/31 257/286/31 258/283/31
f 256/285/1 255/926/1 71/44/1
f 257/286/29 256/282/29 68/159/29
f 258/287/2 257/927/2 164/101/2
f 255/284/33 258/283/33 166/288/33
f 326/289/7 323/352/7 270/20/7
f 301/76/7 324/351/7 325/290/7
f 327/291/27 297/69/27 296/66/27
f 329/293/27 265/11/27 266/13/27
f 333/295/15 332/300/15 316/106/15
f 334/296/15 284/43/15 285/45/15
f 325/290/28 336/301/28 303/81/28
f 272/23/28 335/302/28 326/289/28
f 298/71/16 297/69/16 327/291/16
f 267/15/16 337/338/16 328/294/16
f 285/45/32 286/47/32 339/299/32
f 332/300/32 340/304/32 317/107/32
f 336/301/9 342/400/9 304/82/9
f 273/25/9 341/306/9 335/302/9
f 344/303/3 318/109/3 317/107/3
f 286/47/3 287/48/3 343/305/3
f 341/306/19 273/25/19 274/26/19
f 288/50/21 347/313/21 343/305/21
f 319/112/21 318/109/21 344/303/21
f 349/309/11 345/307/11 274/26/11
f 274/26/11 275/28/11 353/310/11
f 350/312/11 354/317/11 306/88/11
f 306/88/11 305/84/11 346/311/11
f 347/313/6 288/50/6 289/52/6
f 320/113/6 319/112/6 348/308/6
f 353/310/33 275/28/33 276/31/33
f 354/317/33 360/321/33 307/87/33
f 351/314/20 289/52/20 290/53/20
f 321/116/20 320/113/20 352/315/20
f 358/320/34 308/90/34 307/87/34
f 276/31/34 277/30/34 357/322/34
f 290/53/8 260/1/8 361/323/8
f 322/56/8 321/116/8 356/319/8
f 358/320/26 364/327/26 309/91/26
f 278/33/26 363/328/26 357/322/26
f 260/1/29 259/3/29 366/325/29
f 365/326/29 291/57/29 322/56/29
f 364/327/14 368/332/14 310/93/14
f 279/34/14 367/331/14 363/328/14
f 291/57/10 365/326/10 369/329/10
f 279/34/22 280/36/22 372/330/22
f 368/332/22 371/336/22 311/96/22
f 370/147/25 261/4/25 262/6/25
f 293/60/25 292/59/25 369/329/25
f 280/36/17 281/38/17 376/335/17
f 371/336/17 375/343/17 312/97/17
f 299/72/31 298/71/31 338/298/31
f 268/16/31 382/344/31 337/338/31
f 374/333/12 262/6/12 263/7/12
f 294/62/12 293/60/12 373/334/12
f 381/341/18 376/335/18 281/38/18
f 380/342/18 313/100/18 312/97/18
f 382/344/4 268/16/4 269/18/4
f 384/346/4 300/74/4 299/72/4
f 294/62/23 379/340/23 386/347/23
f 378/339/23 263/7/23 264/9/23
f 282/40/5 283/42/5 387/349/5
f 314/102/5 313/100/5 380/342/5
f 300/74/24 384/346/24 324/351/24
f 383/345/24 269/18/24 270/20/24
f 295/65/13 386/347/13 330/292/13
f 385/348/13 264/9/13 265/11/13
f 283/42/30 284/43/30 334/296/30
f 315/103/30 314/102/30 388/350/30
f 390/353/1 361/323/1 366/325/1
f 366/325/1 370/147/1 391/355/1
f 370/147/1 374/333/1 392/356/1
f 374/333/1 378/339/1 393/357/1
f 393/357/1 378/339/1 385/348/1
f 385/348/1 329/293/1 395/359/1
f 395/359/1 329/293/1 328/294/1
f 328/294/1 337/338/1 396/361/1
f 337/338/1 382/344/1 398/362/1
f 399/363/1 398/362/1 382/344/1
f 383/345/1 323/352/1 400/364/1
f 323/352/1 326/289/1 401/365/1
f 401/365/1 326/289/1 335/302/1
f 402/366/1 335/302/1 341/306/1
f 341/306/1 345/307/1 404/368/1
f 405/369/1 404/368/1 345/307/1
f 345/307/40 349/309/40 353/310/40
f 359/316/1 406/370/1 405/369/1
f 406/370/1 359/316/1 357/322/1
f 357/322/1 363/328/1 408/372/1
f 363/328/1 367/331/1 409/373/1
f 409/373/1 367/331/1 372/330/1
f 372/330/1 376/335/1 411/375/1
f 376/335/1 381/341/1 413/376/1
f 387/349/1 412/378/1 413/376/1
f 387/349/1 334/296/1 414/377/1
f 334/296/1 331/297/1 415/379/1
f 331/297/1 339/299/1 416/380/1
f 339/299/1 343/305/1 417/381/1
f 417/381/1 343/305/1 347/313/1
f 347/313/1 351/314/1 419/383/1
f 355/318/1 361/323/1 390/353/1
f 351/314/1 355/318/1 420/384/1
f 365/326/2 362/324/2 421/385/2
f 369/329/2 365/326/2 422/386/2
f 369/329/2 423/387/2 424/388/2
f 373/334/2 424/388/2 425/389/2
f 379/340/2 425/389/2 426/390/2
f 386/347/2 426/390/2 427/391/2
f 428/392/2 327/291/2 330/292/2
f 327/291/2 428/392/2 429/393/2
f 377/337/2 338/298/2 429/393/2
f 384/346/2 377/337/2 430/394/2
f 384/346/2 431/395/2 432/396/2
f 324/351/2 432/396/2 433/397/2
f 325/290/2 433/397/2 434/398/2
f 336/301/2 434/398/2 435/399/2
f 436/401/2 346/311/2 342/400/2
f 350/312/2 346/311/2 436/401/2
f 436/401/2 437/403/2 354/317/2
f 438/402/2 360/321/2 354/317/2
f 358/320/2 360/321/2 438/402/2
f 358/320/2 439/404/2 440/405/2
f 364/327/2 440/405/2 441/406/2
f 368/332/2 441/406/2 442/407/2
f 371/336/2 442/407/2 443/408/2
f 444/409/2 380/342/2 375/343/2
f 380/342/2 444/409/2 445/410/2
f 446/411/2 333/295/2 388/350/2
f 332/300/2 333/295/2 446/411/2
f 332/300/2 447/412/2 448/413/2
f 340/304/2 448/413/2 449/414/2
f 344/303/2 449/414/2 450/415/2
f 352/315/2 348/308/2 450/415/2
f 352/315/2 452/416/2 451/417/2
f 595/421/8 593/797/8 555/422/8
f 106/424/1 455/426/1 453/425/1
f 455/426/1 106/424/1 110/427/1
f 458/431/1 456/430/1 520/429/1
f 113/433/1 119/438/1 522/434/1
f 459/436/1 458/431/1 521/432/1
f 119/438/1 124/440/1 523/439/1
f 124/440/1 126/443/1 525/441/1
f 526/442/1 460/928/1 459/436/1
f 126/443/1 1/447/1 528/444/1
f 461/445/1 460/928/1 526/442/1
f 5/448/1 9/452/1 463/449/1
f 14/451/1 464/881/1 463/449/1
f 18/453/1 22/459/1 531/454/1
f 465/456/1 530/880/1 532/457/1
f 22/459/1 25/463/1 533/460/1
f 467/461/1 466/458/1 532/457/1
f 25/463/1 32/468/1 535/464/1
f 467/461/1 534/462/1 536/465/1
f 538/467/1 469/879/1 468/466/1
f 32/468/1 36/602/1 537/469/1
f 470/470/1 38/603/1 41/471/1
f 48/473/1 472/884/1 471/472/1
f 474/477/1 473/892/1 540/478/1
f 50/480/1 54/485/1 541/481/1
f 475/483/1 474/477/1 542/479/1
f 54/485/1 57/489/1 544/486/1
f 476/487/1 475/483/1 543/484/1
f 57/489/1 63/492/1 545/490/1
f 477/491/1 476/487/1 546/488/1
f 63/492/1 65/493/1 547/475/1
f 478/494/1 70/476/1 73/495/1
f 479/496/1 73/495/1 79/497/1
f 81/500/1 86/506/1 551/501/1
f 481/503/1 550/883/1 552/504/1
f 86/506/1 92/514/1 553/507/1
f 483/508/1 482/505/1 552/504/1
f 93/510/1 100/499/1 518/418/1
f 517/420/1 454/882/1 484/512/1
f 92/514/1 93/510/1 555/511/1
f 484/512/1 483/508/1 556/509/1
f 182/515/2 485/887/2 486/516/2
f 487/518/2 185/519/2 184/517/2
f 562/521/2 190/606/2 187/522/2
f 558/520/2 488/886/2 489/524/2
f 191/526/2 190/606/2 562/521/2
f 559/525/2 489/524/2 490/528/2
f 564/530/2 193/533/2 191/526/2
f 490/528/2 491/534/2 563/531/2
f 566/532/2 132/581/2 193/533/2
f 491/534/2 492/885/2 565/535/2
f 493/536/2 494/539/2 135/537/2
f 494/539/2 495/878/2 137/540/2
f 496/543/2 497/929/2 570/544/2
f 139/541/2 567/542/2 569/546/2
f 143/548/2 141/547/2 569/546/2
f 570/544/2 497/929/2 498/550/2
f 143/548/2 571/549/2 572/552/2
f 573/551/2 498/550/2 499/554/2
f 574/559/2 147/601/2 145/553/2
f 502/560/2 152/563/2 150/561/2
f 502/560/2 504/891/2 154/562/2
f 581/564/2 158/605/2 156/565/2
f 503/567/2 505/572/2 579/568/2
f 159/570/2 158/605/2 581/564/2
f 505/572/2 506/576/2 583/573/2
f 162/574/2 159/570/2 580/571/2
f 506/576/2 507/579/2 586/577/2
f 584/578/2 163/607/2 162/574/2
f 507/579/2 508/889/2 585/580/2
f 165/582/2 509/890/2 510/583/2
f 511/585/2 169/600/2 167/584/2
f 512/586/2 513/930/2 589/587/2
f 171/589/2 587/888/2 592/590/2
f 589/587/2 513/930/2 514/592/2
f 175/594/2 173/591/2 592/590/2
f 590/593/2 514/592/2 515/596/2
f 175/594/2 591/595/2 593/598/2
f 137/540/3 139/541/3 433/397/3
f 18/453/3 14/451/3 400/364/3
f 428/392/18 427/391/18 191/526/18
f 397/360/18 126/443/18 124/440/18
f 167/584/4 447/412/4 446/411/4
f 415/379/4 73/495/4 70/476/4
f 139/541/21 141/547/21 434/398/21
f 22/459/21 18/453/21 401/365/21
f 193/533/5 132/581/5 429/393/5
f 1/447/5 126/443/5 397/360/5
f 169/600/24 448/413/24 447/412/24
f 416/380/24 79/497/24 73/495/24
f 434/398/6 141/547/6 143/548/6
f 25/463/6 22/459/6 402/366/6
f 171/589/7 449/414/7 448/413/7
f 79/497/7 416/380/7 417/381/7
f 435/399/20 143/548/20 145/553/20
f 404/368/20 32/468/20 25/463/20
f 173/591/28 450/415/28 449/414/28
f 81/500/28 417/381/28 418/382/28
f 437/403/8 436/401/8 145/553/8
f 36/602/8 32/468/8 404/368/8
f 173/591/9 175/594/9 452/416/9
f 92/514/9 86/506/9 418/382/9
f 150/561/29 438/402/29 437/403/29
f 406/370/29 38/603/29 36/602/29
f 175/594/19 177/599/19 451/417/19
f 93/510/19 92/514/19 419/383/19
f 150/561/10 152/563/10 439/404/10
f 406/370/10 407/371/10 41/471/10
f 177/599/11 180/604/11 421/385/11
f 100/499/11 93/510/11 420/384/11
f 152/563/25 154/562/25 440/405/25
f 48/473/25 41/471/25 407/371/25
f 182/515/33 422/386/33 421/385/33
f 100/499/33 390/353/33 389/354/33
f 154/562/12 156/565/12 441/406/12
f 50/480/12 48/473/12 408/372/12
f 182/515/34 184/517/34 423/387/34
f 391/355/34 106/424/34 102/419/34
f 158/605/23 442/407/23 441/406/23
f 50/480/23 409/373/23 410/374/23
f 184/517/26 185/519/26 424/388/26
f 392/356/26 110/427/26 106/424/26
f 443/408/13 442/407/13 158/605/13
f 411/375/13 57/489/13 54/485/13
f 132/581/30 134/538/30 430/394/30
f 5/448/30 1/447/30 396/361/30
f 187/522/14 425/389/14 424/388/14
f 110/427/14 392/356/14 393/357/14
f 444/409/27 443/408/27 159/570/27
f 63/492/27 57/489/27 411/375/27
f 430/394/15 134/538/15 135/537/15
f 398/362/15 399/363/15 9/452/15
f 187/522/22 190/606/22 426/390/22
f 119/438/22 113/433/22 393/357/22
f 162/574/16 163/607/16 445/410/16
f 63/492/16 413/376/16 412/378/16
f 431/395/32 135/537/32 137/540/32
f 399/363/32 400/364/32 14/451/32
f 427/391/17 426/390/17 190/606/17
f 395/359/17 124/440/17 119/438/17
f 163/607/31 165/582/31 446/411/31
f 65/493/31 412/378/31 414/377/31
f 104/234/34 181/233/34 183/249/34
f 74/674/3 76/692/3 496/675/3
f 10/677/3 7/792/3 464/678/3
f 128/680/18 129/649/18 491/681/18
f 460/683/18 64/931/18 62/684/18
f 103/686/4 510/700/4 509/687/4
f 37/689/4 35/795/4 478/690/4
f 76/692/21 78/703/21 497/693/21
f 11/694/21 10/677/21 465/679/21
f 129/649/5 67/650/5 492/696/5
f 2/697/5 64/931/5 460/683/5
f 103/686/24 105/707/24 511/699/24
f 40/701/24 37/689/24 479/691/24
f 78/703/6 80/932/6 498/704/6
f 466/695/6 467/712/6 13/705/6
f 107/706/7 512/715/7 511/699/7
f 40/701/7 480/702/7 481/708/7
f 498/704/20 80/932/20 82/710/20
f 467/712/20 468/721/20 15/713/20
f 109/714/28 513/723/28 512/715/28
f 42/709/28 481/708/28 482/716/28
f 501/718/8 499/711/8 82/710/8
f 469/720/8 17/729/8 15/713/8
f 109/714/9 112/933/9 514/722/9
f 43/717/9 482/716/9 483/724/9
f 501/718/29 83/719/29 85/726/29
f 469/720/29 470/736/29 19/728/29
f 514/722/19 112/933/19 114/730/19
f 484/732/19 47/740/19 45/725/19
f 500/727/10 85/726/10 88/733/10
f 471/735/10 21/934/10 19/728/10
f 515/731/11 114/730/11 116/737/11
f 454/739/11 49/935/11 47/740/11
f 502/734/25 88/733/25 90/741/25
f 23/743/25 21/934/25 471/735/25
f 485/745/33 516/738/33 116/737/33
f 52/747/33 49/935/33 454/739/33
f 90/741/12 91/755/12 503/749/12
f 26/750/12 23/743/12 472/744/12
f 485/745/34 117/746/34 120/752/34
f 455/754/34 53/761/34 52/747/34
f 91/755/23 94/763/23 505/756/23
f 28/757/23 26/750/23 473/751/23
f 122/759/26 487/772/26 486/753/26
f 457/760/26 55/773/26 53/761/26
f 95/762/13 506/777/13 505/756/13
f 28/757/13 474/758/13 475/764/13
f 67/766/30 69/936/30 493/767/30
f 4/618/30 2/617/30 461/769/30
f 123/771/14 488/785/14 487/772/14
f 55/773/14 457/760/14 456/774/14
f 95/762/27 97/789/27 507/776/27
f 31/778/27 30/765/27 475/764/27
f 493/767/15 69/936/15 72/780/15
f 6/782/15 4/618/15 462/770/15
f 123/771/22 125/793/22 489/784/22
f 59/786/22 58/775/22 456/774/22
f 99/788/16 508/794/16 507/776/16
f 31/778/16 476/779/16 477/790/16
f 72/780/32 74/674/32 495/676/32
f 7/792/32 6/782/32 463/783/32
f 125/793/17 128/680/17 490/682/17
f 62/684/17 59/786/17 458/787/17
f 99/788/31 101/688/31 509/687/31
f 33/791/31 477/790/31 478/690/31
f 304/82/19 342/400/19 346/311/19
f 553/796/20 555/422/20 593/797/20
f 591/798/6 592/813/6 551/799/6
f 517/800/35 594/804/35 595/801/35
f 517/800/11 554/806/11 596/803/11
f 556/805/19 590/937/19 596/803/19
f 589/807/9 590/937/9 556/805/9
f 588/809/28 589/807/28 552/808/28
f 549/811/36 587/812/36 588/809/36
f 587/812/21 549/811/21 551/799/21
f 585/814/37 584/938/37 547/815/37
f 586/817/16 585/814/16 548/816/16
f 543/819/27 583/939/27 586/817/27
f 579/820/13 583/939/13 543/819/13
f 540/822/23 577/940/23 579/820/23
f 578/823/38 577/940/38 540/822/38
f 581/825/22 578/823/22 539/824/22
f 544/827/17 580/829/17 581/825/17
f 545/828/18 582/831/18 580/829/18
f 547/830/5 584/941/5 582/831/5
f 536/832/20 534/836/20 573/833/20
f 570/835/6 573/833/6 534/836/6
f 530/838/21 568/840/21 570/835/21
f 530/838/39 529/842/39 567/839/39
f 569/841/28 567/839/28 529/842/28
f 533/844/9 571/846/9 569/841/9
f 533/844/19 535/873/19 572/845/19
f 526/847/5 563/867/5 565/848/5
f 527/849/40 565/848/40 566/850/40
f 566/852/16 564/855/16 525/853/16
f 564/855/27 561/857/27 523/856/27
f 561/857/13 562/859/13 522/858/13
f 562/859/23 557/862/23 519/860/23
f 520/861/41 519/860/41 557/862/41
f 520/861/22 558/863/22 559/864/22
f 524/866/18 560/868/18 563/867/18
f 560/868/17 524/866/17 521/865/17
f 595/869/2 180/604/2 177/599/2
f 596/597/2 515/596/2 516/870/2
f 576/558/2 575/555/2 499/554/2
f 574/872/11 572/845/11 535/873/11
f 574/875/42 537/942/42 538/876/42
f 356/319/2 451/417/2 421/385/2
f 576/877/8 538/876/8 536/832/8
