# Blender 4.4.3
# www.blender.org
mtllib Bonfire.mtl
o bonfire
v -0.000708 0.104979 -0.155538
v -0.000708 0.126538 -0.139830
v -0.000708 0.250907 -0.248458
v -0.000708 0.250907 -0.223458
v 0.029937 0.104979 -0.152520
v 0.026873 0.126538 -0.137114
v 0.059405 0.104979 -0.143581
v 0.053393 0.126538 -0.129069
v 0.094963 0.250907 -0.229428
v 0.085396 0.250907 -0.206331
v 0.086562 0.104979 -0.129066
v 0.077835 0.126538 -0.116005
v 0.110365 0.104979 -0.109531
v 0.099258 0.126538 -0.098423
v 0.158391 0.250907 -0.157557
v 0.176069 0.250907 -0.175235
v 0.129900 0.104979 -0.085727
v 0.116839 0.126538 -0.077000
v 0.144416 0.104979 -0.058570
v 0.129904 0.126538 -0.052559
v 0.207165 0.250907 -0.084562
v 0.230262 0.250907 -0.094129
v 0.153355 0.104979 -0.029103
v 0.137948 0.126538 -0.026038
v 0.140665 0.126538 0.001542
v 0.156373 0.104979 0.001542
v 0.249292 0.250907 0.001542
v 0.224292 0.250907 0.001542
v -0.000708 0.126538 -0.155538
v 0.029937 0.126538 -0.152520
v 0.059405 0.126538 -0.143581
v 0.086562 0.126538 -0.129066
v 0.110365 0.126538 -0.109531
v 0.129900 0.126538 -0.085727
v 0.144416 0.126538 -0.058570
v 0.153355 0.126538 -0.029103
v 0.156373 0.126538 0.001542
v -0.000708 0.126538 0.001542
v -0.000708 0.104979 0.001542
v 0.154864 0.126538 -0.013780
v 0.246891 0.250907 -0.022844
v 0.222131 0.250907 -0.020405
v 0.154864 0.104979 -0.013780
v 0.139307 0.126538 -0.012248
v 0.148885 0.126538 -0.043836
v 0.237375 0.250907 -0.070680
v 0.213567 0.250907 -0.063457
v 0.148885 0.104979 -0.043836
v 0.133926 0.126538 -0.039298
v 0.137158 0.126538 -0.072149
v 0.218711 0.250907 -0.115740
v 0.196769 0.250907 -0.104011
v 0.137158 0.104979 -0.072149
v 0.123371 0.126538 -0.064779
v 0.120133 0.126538 -0.097629
v 0.191614 0.250907 -0.156292
v 0.172382 0.250907 -0.140509
v 0.120133 0.104979 -0.097629
v 0.108049 0.126538 -0.087712
v 0.098463 0.126538 -0.119298
v 0.157127 0.250907 -0.190780
v 0.141344 0.250907 -0.171548
v 0.098463 0.104979 -0.119298
v 0.088546 0.126538 -0.107214
v 0.072983 0.126538 -0.136323
v 0.116574 0.250907 -0.217876
v 0.104846 0.250907 -0.195935
v 0.072983 0.104979 -0.136323
v 0.065614 0.126538 -0.122537
v 0.044671 0.126538 -0.148051
v 0.071514 0.250907 -0.236541
v 0.064292 0.250907 -0.212733
v 0.044671 0.104979 -0.148051
v 0.040133 0.126538 -0.133091
v 0.014615 0.126538 -0.154029
v 0.023679 0.250907 -0.246056
v 0.021240 0.250907 -0.221296
v 0.014615 0.104979 -0.154029
v 0.013083 0.126538 -0.138472
v 0.071514 0.268063 -0.236541
v 0.094963 0.268063 -0.229428
v 0.157127 0.268063 -0.190780
v 0.176069 0.268063 -0.175235
v 0.218711 0.268063 -0.115740
v 0.230262 0.268063 -0.094129
v 0.246891 0.268063 -0.022844
v 0.249292 0.268063 0.001542
v 0.064292 0.268063 -0.212733
v 0.085396 0.268063 -0.206331
v -0.000708 0.268063 -0.248458
v -0.000708 0.268063 -0.223458
v 0.141344 0.268063 -0.171548
v 0.158391 0.268063 -0.157557
v 0.196769 0.268063 -0.104011
v 0.207165 0.268063 -0.084562
v 0.222131 0.268063 -0.020405
v 0.224292 0.268063 0.001542
v 0.237375 0.268063 -0.070680
v 0.213567 0.268063 -0.063457
v 0.191614 0.268063 -0.156292
v 0.172382 0.268063 -0.140509
v 0.116574 0.268063 -0.217876
v 0.104846 0.268063 -0.195935
v 0.023679 0.268063 -0.246056
v 0.021240 0.268063 -0.221296
v -0.031353 0.104979 -0.152520
v -0.028288 0.126538 -0.137114
v -0.060820 0.104979 -0.143581
v -0.054809 0.126538 -0.129069
v -0.096378 0.250907 -0.229428
v -0.086811 0.250907 -0.206331
v -0.087977 0.104979 -0.129066
v -0.079250 0.126538 -0.116005
v -0.111780 0.104979 -0.109531
v -0.100673 0.126538 -0.098423
v -0.159807 0.250907 -0.157557
v -0.177484 0.250907 -0.175235
v -0.131315 0.104979 -0.085727
v -0.118255 0.126538 -0.077000
v -0.145831 0.104979 -0.058570
v -0.131319 0.126538 -0.052559
v -0.208580 0.250907 -0.084562
v -0.231677 0.250907 -0.094129
v -0.154770 0.104979 -0.029103
v -0.139364 0.126538 -0.026038
v -0.142080 0.126538 0.001542
v -0.157788 0.104979 0.001542
v -0.250708 0.250907 0.001542
v -0.225708 0.250907 0.001542
v -0.031353 0.126538 -0.152520
v -0.060820 0.126538 -0.143581
v -0.087977 0.126538 -0.129066
v -0.111780 0.126538 -0.109531
v -0.131315 0.126538 -0.085727
v -0.145831 0.126538 -0.058570
v -0.154770 0.126538 -0.029103
v -0.157788 0.126538 0.001542
v -0.156279 0.126538 -0.013780
v -0.248306 0.250907 -0.022844
v -0.223546 0.250907 -0.020405
v -0.156279 0.104979 -0.013780
v -0.140722 0.126538 -0.012248
v -0.150301 0.126538 -0.043836
v -0.238791 0.250907 -0.070680
v -0.214982 0.250907 -0.063457
v -0.150301 0.104979 -0.043836
v -0.135341 0.126538 -0.039298
v -0.138573 0.126538 -0.072149
v -0.220126 0.250907 -0.115740
v -0.198184 0.250907 -0.104011
v -0.138573 0.104979 -0.072149
v -0.124787 0.126538 -0.064779
v -0.121548 0.126538 -0.097629
v -0.193030 0.250907 -0.156292
v -0.173797 0.250907 -0.140509
v -0.121548 0.104979 -0.097629
v -0.109464 0.126538 -0.087712
v -0.099879 0.126538 -0.119298
v -0.158542 0.250907 -0.190780
v -0.142759 0.250907 -0.171548
v -0.099879 0.104979 -0.119298
v -0.089962 0.126538 -0.107214
v -0.074398 0.126538 -0.136323
v -0.117989 0.250907 -0.217876
v -0.106261 0.250907 -0.195935
v -0.074398 0.104979 -0.136323
v -0.067029 0.126538 -0.122537
v -0.046086 0.126538 -0.148051
v -0.072929 0.250907 -0.236541
v -0.065707 0.250907 -0.212733
v -0.046086 0.104979 -0.148051
v -0.041548 0.126538 -0.133091
v -0.016030 0.126538 -0.154029
v -0.025094 0.250907 -0.246056
v -0.022655 0.250907 -0.221296
v -0.016030 0.104979 -0.154029
v -0.014498 0.126538 -0.138472
v -0.072929 0.268063 -0.236541
v -0.096378 0.268063 -0.229428
v -0.158542 0.268063 -0.190780
v -0.177484 0.268063 -0.175235
v -0.220126 0.268063 -0.115740
v -0.231677 0.268063 -0.094129
v -0.248306 0.268063 -0.022844
v -0.250708 0.268063 0.001542
v -0.065707 0.268063 -0.212733
v -0.086811 0.268063 -0.206331
v -0.142759 0.268063 -0.171548
v -0.159807 0.268063 -0.157557
v -0.198184 0.268063 -0.104011
v -0.208580 0.268063 -0.084562
v -0.223546 0.268063 -0.020405
v -0.225708 0.268063 0.001542
v -0.238791 0.268063 -0.070680
v -0.214982 0.268063 -0.063457
v -0.193030 0.268063 -0.156292
v -0.173797 0.268063 -0.140509
v -0.117989 0.268063 -0.217876
v -0.106261 0.268063 -0.195935
v -0.025094 0.268063 -0.246056
v -0.022655 0.268063 -0.221296
v -0.000708 0.104979 0.158623
v -0.000708 0.126538 0.142915
v -0.000708 0.250907 0.251542
v -0.000708 0.250907 0.226542
v 0.029937 0.104979 0.155605
v 0.026873 0.126538 0.140198
v 0.059405 0.104979 0.146666
v 0.053393 0.126538 0.132153
v 0.094963 0.250907 0.232512
v 0.085396 0.250907 0.209415
v 0.086562 0.104979 0.132150
v 0.077835 0.126538 0.119089
v 0.110365 0.104979 0.112615
v 0.099258 0.126538 0.101508
v 0.158391 0.250907 0.160641
v 0.176069 0.250907 0.178319
v 0.129900 0.104979 0.088811
v 0.116839 0.126538 0.080085
v 0.144416 0.104979 0.061654
v 0.129904 0.126538 0.055643
v 0.207165 0.250907 0.087646
v 0.230262 0.250907 0.097213
v 0.153355 0.104979 0.032187
v 0.137948 0.126538 0.029123
v -0.000708 0.126538 0.158623
v 0.029937 0.126538 0.155605
v 0.059405 0.126538 0.146666
v 0.086562 0.126538 0.132150
v 0.110365 0.126538 0.112615
v 0.129900 0.126538 0.088811
v 0.144416 0.126538 0.061654
v 0.153355 0.126538 0.032187
v 0.154864 0.126538 0.016865
v 0.246891 0.250907 0.025928
v 0.222131 0.250907 0.023490
v 0.154864 0.104979 0.016865
v 0.139307 0.126538 0.015332
v 0.148885 0.126538 0.046921
v 0.237375 0.250907 0.073764
v 0.213567 0.250907 0.066542
v 0.148885 0.104979 0.046921
v 0.133926 0.126538 0.042383
v 0.137158 0.126538 0.075233
v 0.218711 0.250907 0.118824
v 0.196769 0.250907 0.107096
v 0.137158 0.104979 0.075233
v 0.123371 0.126538 0.067864
v 0.120133 0.126538 0.100713
v 0.191614 0.250907 0.159377
v 0.172382 0.250907 0.143593
v 0.120133 0.104979 0.100713
v 0.108049 0.126538 0.090796
v 0.098463 0.126538 0.122382
v 0.157127 0.250907 0.193864
v 0.141344 0.250907 0.174632
v 0.098463 0.104979 0.122382
v 0.088546 0.126538 0.110298
v 0.072983 0.126538 0.139408
v 0.116574 0.250907 0.220961
v 0.104846 0.250907 0.199019
v 0.072983 0.104979 0.139408
v 0.065614 0.126538 0.125621
v 0.044671 0.126538 0.151135
v 0.071514 0.250907 0.239625
v 0.064292 0.250907 0.215817
v 0.044671 0.104979 0.151135
v 0.040133 0.126538 0.136176
v 0.014615 0.126538 0.157114
v 0.023679 0.250907 0.249140
v 0.021240 0.250907 0.224381
v 0.014615 0.104979 0.157114
v 0.013083 0.126538 0.141557
v 0.071514 0.268063 0.239625
v 0.094963 0.268063 0.232512
v 0.157127 0.268063 0.193864
v 0.176069 0.268063 0.178319
v 0.218711 0.268063 0.118824
v 0.230262 0.268063 0.097213
v 0.246891 0.268063 0.025928
v 0.064292 0.268063 0.215817
v 0.085396 0.268063 0.209415
v -0.000708 0.268063 0.251542
v -0.000708 0.268063 0.226542
v 0.141344 0.268063 0.174632
v 0.158391 0.268063 0.160641
v 0.196769 0.268063 0.107096
v 0.207165 0.268063 0.087646
v 0.222131 0.268063 0.023490
v 0.237375 0.268063 0.073764
v 0.213567 0.268063 0.066542
v 0.191614 0.268063 0.159377
v 0.172382 0.268063 0.143593
v 0.116574 0.268063 0.220961
v 0.104846 0.268063 0.199019
v 0.023679 0.268063 0.249140
v 0.021240 0.268063 0.224381
v -0.031353 0.104979 0.155605
v -0.028288 0.126538 0.140198
v -0.060820 0.104979 0.146666
v -0.054809 0.126538 0.132153
v -0.096378 0.250907 0.232512
v -0.086811 0.250907 0.209415
v -0.087977 0.104979 0.132150
v -0.079250 0.126538 0.119089
v -0.111780 0.104979 0.112615
v -0.100673 0.126538 0.101508
v -0.159807 0.250907 0.160641
v -0.177484 0.250907 0.178319
v -0.131315 0.104979 0.088811
v -0.118255 0.126538 0.080085
v -0.145831 0.104979 0.061654
v -0.131319 0.126538 0.055643
v -0.208580 0.250907 0.087646
v -0.231677 0.250907 0.097213
v -0.154770 0.104979 0.032187
v -0.139364 0.126538 0.029123
v -0.031353 0.126538 0.155605
v -0.060820 0.126538 0.146666
v -0.087977 0.126538 0.132150
v -0.111780 0.126538 0.112615
v -0.131315 0.126538 0.088811
v -0.145831 0.126538 0.061654
v -0.154770 0.126538 0.032187
v -0.156279 0.126538 0.016865
v -0.248306 0.250907 0.025928
v -0.223546 0.250907 0.023490
v -0.156279 0.104979 0.016865
v -0.140722 0.126538 0.015332
v -0.150301 0.126538 0.046921
v -0.238791 0.250907 0.073764
v -0.214982 0.250907 0.066542
v -0.150301 0.104979 0.046921
v -0.135341 0.126538 0.042383
v -0.138573 0.126538 0.075233
v -0.220126 0.250907 0.118824
v -0.198184 0.250907 0.107096
v -0.138573 0.104979 0.075233
v -0.124787 0.126538 0.067864
v -0.121548 0.126538 0.100713
v -0.193030 0.250907 0.159377
v -0.173797 0.250907 0.143593
v -0.121548 0.104979 0.100713
v -0.109464 0.126538 0.090796
v -0.099879 0.126538 0.122382
v -0.158542 0.250907 0.193864
v -0.142759 0.250907 0.174632
v -0.099879 0.104979 0.122382
v -0.089962 0.126538 0.110298
v -0.074398 0.126538 0.139408
v -0.117989 0.250907 0.220961
v -0.106261 0.250907 0.199019
v -0.074398 0.104979 0.139408
v -0.067029 0.126538 0.125621
v -0.046086 0.126538 0.151135
v -0.072929 0.250907 0.239625
v -0.065707 0.250907 0.215817
v -0.046086 0.104979 0.151135
v -0.041548 0.126538 0.136176
v -0.016030 0.126538 0.157114
v -0.025094 0.250907 0.249140
v -0.022655 0.250907 0.224381
v -0.016030 0.104979 0.157114
v -0.014498 0.126538 0.141557
v -0.072929 0.268063 0.239625
v -0.096378 0.268063 0.232512
v -0.158542 0.268063 0.193864
v -0.177484 0.268063 0.178319
v -0.220126 0.268063 0.118824
v -0.231677 0.268063 0.097213
v -0.248306 0.268063 0.025928
v -0.065707 0.268063 0.215817
v -0.086811 0.268063 0.209415
v -0.142759 0.268063 0.174632
v -0.159807 0.268063 0.160641
v -0.198184 0.268063 0.107096
v -0.208580 0.268063 0.087646
v -0.223546 0.268063 0.023490
v -0.238791 0.268063 0.073764
v -0.214982 0.268063 0.066542
v -0.193030 0.268063 0.159377
v -0.173797 0.268063 0.143593
v -0.117989 0.268063 0.220961
v -0.106261 0.268063 0.199019
v -0.025094 0.268063 0.249140
v -0.022655 0.268063 0.224381
v -0.119248 -0.493214 0.160755
v 0.118679 0.293066 -0.278793
v -0.116697 -0.494552 0.157052
v 0.121229 0.291728 -0.282496
v -0.113400 -0.495839 0.153949
v 0.124527 0.290441 -0.285599
v -0.109482 -0.497025 0.151565
v 0.128444 0.289255 -0.287983
v -0.105095 -0.498064 0.149991
v 0.132831 0.288216 -0.289557
v -0.100407 -0.498918 0.149288
v 0.137520 0.287363 -0.290260
v -0.095598 -0.499551 0.149484
v 0.142329 0.286729 -0.290065
v -0.090853 -0.499942 0.150569
v 0.147074 0.286338 -0.288979
v -0.086354 -0.500074 0.152504
v 0.151573 0.286207 -0.287044
v -0.082274 -0.499942 0.155213
v 0.155652 0.286338 -0.284335
v -0.078771 -0.499551 0.158592
v 0.159156 0.286729 -0.280956
v -0.075978 -0.498918 0.162512
v 0.161949 0.287363 -0.277036
v -0.074002 -0.498064 0.166821
v 0.163924 0.288216 -0.272727
v -0.072921 -0.497025 0.171355
v 0.165005 0.289255 -0.268193
v -0.072775 -0.495839 0.175939
v 0.165151 0.290441 -0.263609
v -0.073571 -0.494552 0.180396
v 0.164356 0.291728 -0.259152
v -0.075276 -0.493214 0.184556
v 0.162650 0.293066 -0.254992
v -0.077827 -0.491875 0.188259
v 0.160100 0.294405 -0.251289
v -0.081124 -0.490589 0.191362
v 0.156802 0.295692 -0.248186
v -0.085042 -0.489403 0.193747
v 0.152885 0.296878 -0.245802
v -0.089429 -0.488363 0.195320
v 0.148498 0.297917 -0.244228
v -0.094117 -0.487510 0.196023
v 0.143809 0.298770 -0.243525
v -0.098926 -0.486876 0.195828
v 0.139000 0.299404 -0.243721
v -0.103671 -0.486486 0.194742
v 0.134255 0.299794 -0.244806
v -0.108170 -0.486354 0.192807
v 0.129756 0.299926 -0.246741
v -0.112250 -0.486486 0.190098
v 0.125677 0.299794 -0.249450
v -0.115753 -0.486876 0.186719
v 0.122173 0.299404 -0.252829
v -0.118546 -0.487510 0.182799
v 0.119380 0.298770 -0.256749
v -0.120521 -0.488363 0.178490
v 0.117405 0.297917 -0.261058
v -0.121603 -0.489403 0.173956
v 0.116324 0.296878 -0.265592
v -0.121748 -0.490589 0.169372
v 0.116178 0.295692 -0.270176
v -0.120953 -0.491875 0.164915
v 0.116973 0.294405 -0.274633
v -0.096931 -0.493214 -0.175824
v 0.211432 0.293066 0.217526
v -0.094551 -0.494552 -0.172009
v 0.213812 0.291728 0.221341
v -0.093019 -0.495839 -0.167748
v 0.215344 0.290441 0.225601
v -0.092393 -0.497025 -0.163205
v 0.215970 0.289255 0.230145
v -0.092697 -0.498064 -0.158554
v 0.215666 0.288216 0.234795
v -0.093920 -0.498917 -0.153974
v 0.214442 0.287363 0.239376
v -0.096015 -0.499551 -0.149641
v 0.212347 0.286729 0.243709
v -0.098902 -0.499942 -0.145722
v 0.209461 0.286338 0.247628
v -0.102469 -0.500074 -0.142366
v 0.205894 0.286207 0.250984
v -0.106579 -0.499942 -0.139704
v 0.201784 0.286338 0.253646
v -0.111074 -0.499551 -0.137836
v 0.197289 0.286729 0.255514
v -0.115782 -0.498917 -0.136836
v 0.192581 0.287363 0.256514
v -0.120522 -0.498064 -0.136742
v 0.187841 0.288216 0.256608
v -0.125111 -0.497025 -0.137556
v 0.183252 0.289255 0.255794
v -0.129373 -0.495839 -0.139249
v 0.178990 0.290441 0.254101
v -0.133145 -0.494552 -0.141754
v 0.175218 0.291728 0.251596
v -0.136281 -0.493214 -0.144976
v 0.172082 0.293066 0.248374
v -0.138661 -0.491875 -0.148790
v 0.169702 0.294405 0.244560
v -0.140193 -0.490589 -0.153051
v 0.168169 0.295692 0.240299
v -0.140819 -0.489403 -0.157594
v 0.167543 0.296878 0.235756
v -0.140515 -0.488363 -0.162245
v 0.167848 0.297917 0.231105
v -0.139291 -0.487510 -0.166825
v 0.169071 0.298770 0.226525
v -0.137196 -0.486876 -0.171158
v 0.171166 0.299404 0.222192
v -0.134310 -0.486486 -0.175078
v 0.174053 0.299794 0.218272
v -0.130743 -0.486354 -0.178433
v 0.177619 0.299926 0.214916
v -0.126633 -0.486486 -0.181096
v 0.181729 0.299794 0.212254
v -0.122138 -0.486876 -0.182963
v 0.186225 0.299404 0.210387
v -0.117430 -0.487510 -0.183963
v 0.190933 0.298770 0.209387
v -0.112690 -0.488363 -0.184058
v 0.195672 0.297917 0.209292
v -0.108101 -0.489403 -0.183243
v 0.200262 0.296878 0.210107
v -0.103839 -0.490589 -0.181551
v 0.204524 0.295692 0.211799
v -0.100067 -0.491875 -0.179046
v 0.208296 0.294405 0.214304
v 0.194897 -0.493214 0.026542
v -0.304915 0.293066 0.026542
v 0.190426 -0.494552 0.026062
v -0.309385 0.291728 0.026062
v 0.186128 -0.495839 0.024639
v -0.313684 0.290441 0.024639
v 0.182166 -0.497025 0.022329
v -0.317645 0.289255 0.022329
v 0.178694 -0.498064 0.019220
v -0.321118 0.288216 0.019220
v 0.175844 -0.498918 0.015431
v -0.323968 0.287363 0.015431
v 0.173726 -0.499551 0.011109
v -0.326085 0.286729 0.011109
v 0.172422 -0.499942 0.006419
v -0.327389 0.286338 0.006419
v 0.171982 -0.500074 0.001542
v -0.327829 0.286207 0.001542
v 0.172422 -0.499942 -0.003335
v -0.327389 0.286338 -0.003335
v 0.173726 -0.499551 -0.008025
v -0.326085 0.286729 -0.008025
v 0.175844 -0.498918 -0.012347
v -0.323968 0.287363 -0.012347
v 0.178694 -0.498064 -0.016136
v -0.321118 0.288216 -0.016136
v 0.182166 -0.497025 -0.019245
v -0.317646 0.289255 -0.019245
v 0.186128 -0.495839 -0.021555
v -0.313684 0.290441 -0.021555
v 0.190426 -0.494552 -0.022977
v -0.309385 0.291728 -0.022977
v 0.194897 -0.493214 -0.023458
v -0.304915 0.293066 -0.023458
v 0.199367 -0.491875 -0.022978
v -0.300444 0.294405 -0.022977
v 0.203666 -0.490589 -0.021555
v -0.296146 0.295692 -0.021555
v 0.207627 -0.489403 -0.019245
v -0.292184 0.296878 -0.019245
v 0.211100 -0.488363 -0.016136
v -0.288712 0.297917 -0.016136
v 0.213950 -0.487510 -0.012347
v -0.285862 0.298770 -0.012347
v 0.216067 -0.486876 -0.008025
v -0.283744 0.299404 -0.008025
v 0.217371 -0.486486 -0.003335
v -0.282441 0.299794 -0.003335
v 0.217811 -0.486354 0.001542
v -0.282000 0.299926 0.001542
v 0.217371 -0.486486 0.006419
v -0.282441 0.299794 0.006419
v 0.216067 -0.486876 0.011109
v -0.283744 0.299404 0.011109
v 0.213950 -0.487510 0.015431
v -0.285862 0.298770 0.015431
v 0.211100 -0.488363 0.019220
v -0.288712 0.297917 0.019220
v 0.207627 -0.489403 0.022329
v -0.292184 0.296878 0.022329
v 0.203666 -0.490589 0.024639
v -0.296146 0.295692 0.024639
v 0.199367 -0.491875 0.026062
v -0.300444 0.294405 0.026062
vn 0.2329 -0.5967 -0.7679
vn 0.5091 -0.5967 -0.6203
vn 0.7077 -0.5967 -0.3783
vn 0.7986 -0.5967 -0.0787
vn -0.0000 -0.0000 1.0000
vn 0.9952 -0.0000 -0.0980
vn 0.9569 -0.0000 -0.2903
vn 0.8819 -0.0000 -0.4714
vn 0.7730 -0.0000 -0.6344
vn 0.6344 -0.0000 -0.7730
vn 0.4714 -0.0000 -0.8819
vn 0.2903 -0.0000 -0.9569
vn 0.0980 -0.0000 -0.9952
vn -0.0815 0.5561 0.8271
vn -0.2413 0.5561 0.7953
vn -0.7330 0.5561 0.3918
vn -0.8271 0.5561 0.0815
vn -0.0000 1.0000 -0.0000
vn -0.6344 -0.0000 0.7730
vn -0.4714 -0.0000 0.8819
vn -0.0000 -1.0000 -0.0000
vn -0.8315 -0.0000 0.5556
vn -0.7953 0.5561 0.2413
vn 0.7679 -0.5967 -0.2329
vn -0.6424 0.5561 0.5272
vn 0.6203 -0.5967 -0.5091
vn -1.0000 -0.0000 -0.0000
vn -0.5272 0.5561 0.6424
vn -0.3918 0.5561 0.7330
vn 0.3783 -0.5967 -0.7077
vn 0.0787 -0.5967 -0.7986
vn 0.9952 -0.0000 0.0980
vn -0.9569 -0.0000 -0.2903
vn 0.8819 -0.0000 0.4714
vn -0.7730 -0.0000 -0.6344
vn 0.6344 -0.0000 0.7730
vn -0.4714 -0.0000 -0.8819
vn 0.2903 -0.0000 0.9569
vn -0.0980 -0.0000 -0.9952
vn 0.9808 -0.0000 -0.1951
vn -0.7730 -0.0000 0.6344
vn -0.2903 -0.0000 0.9569
vn 0.8315 -0.0000 -0.5556
vn -0.0980 -0.0000 0.9952
vn -0.8819 -0.0000 0.4714
vn -0.5556 -0.0000 0.8315
vn -0.9952 -0.0000 0.0980
vn 0.5556 -0.0000 -0.8315
vn -0.1951 -0.0000 0.9808
vn 0.1951 -0.0000 -0.9808
vn -0.9569 -0.0000 0.2903
vn -0.9808 -0.0000 0.1951
vn -0.2329 -0.5967 -0.7679
vn -0.5091 -0.5967 -0.6203
vn -0.7077 -0.5967 -0.3783
vn -0.7986 -0.5967 -0.0787
vn -0.9952 -0.0000 -0.0980
vn -0.8819 -0.0000 -0.4714
vn -0.6344 -0.0000 -0.7730
vn -0.2903 -0.0000 -0.9569
vn 0.0815 0.5561 0.8271
vn 0.2413 0.5561 0.7953
vn 0.7330 0.5561 0.3918
vn 0.8271 0.5561 0.0815
vn 0.4714 -0.0000 0.8819
vn 0.8315 -0.0000 0.5556
vn 0.7953 0.5561 0.2413
vn -0.7679 -0.5967 -0.2329
vn 0.6424 0.5561 0.5272
vn -0.6203 -0.5967 -0.5091
vn 0.5272 0.5561 0.6424
vn 0.3918 0.5561 0.7330
vn -0.3783 -0.5967 -0.7077
vn -0.0787 -0.5967 -0.7986
vn -0.9808 -0.0000 -0.1951
vn 0.7730 -0.0000 0.6344
vn -0.8315 -0.0000 -0.5556
vn 0.0980 -0.0000 0.9952
vn 0.5556 -0.0000 0.8315
vn -0.5556 -0.0000 -0.8315
vn 0.1951 -0.0000 0.9808
vn -0.1951 -0.0000 -0.9808
vn 0.9569 -0.0000 0.2903
vn 0.9808 -0.0000 0.1951
vn 0.2329 -0.5967 0.7679
vn 0.5091 -0.5967 0.6203
vn 0.7077 -0.5967 0.3783
vn 0.7986 -0.5967 0.0787
vn -0.0815 0.5561 -0.8271
vn -0.2413 0.5561 -0.7953
vn -0.7330 0.5561 -0.3918
vn -0.8271 0.5561 -0.0815
vn -0.7953 0.5561 -0.2413
vn 0.7679 -0.5967 0.2329
vn -0.6424 0.5561 -0.5272
vn 0.6203 -0.5967 0.5091
vn -0.5272 0.5561 -0.6424
vn -0.3918 0.5561 -0.7330
vn 0.3783 -0.5967 0.7077
vn 0.0787 -0.5967 0.7986
vn -0.2329 -0.5967 0.7679
vn -0.5091 -0.5967 0.6203
vn -0.7077 -0.5967 0.3783
vn -0.7986 -0.5967 0.0787
vn 0.0815 0.5561 -0.8271
vn 0.2413 0.5561 -0.7953
vn 0.7330 0.5561 -0.3918
vn 0.8271 0.5561 -0.0815
vn 0.7953 0.5561 -0.2413
vn -0.7679 -0.5967 0.2329
vn 0.6424 0.5561 -0.5272
vn -0.6203 -0.5967 0.5091
vn 0.5272 0.5561 -0.6424
vn 0.3918 0.5561 -0.7330
vn -0.3783 -0.5967 0.7077
vn -0.0787 -0.5967 0.7986
vn -0.8317 -0.0571 -0.5523
vn -0.7096 -0.1679 -0.6844
vn -0.5589 -0.2693 -0.7843
vn -0.3892 -0.3569 -0.8492
vn -0.2097 -0.4280 -0.8791
vn -0.0279 -0.4813 -0.8761
vn 0.1504 -0.5167 -0.8429
vn 0.3207 -0.5343 -0.7821
vn 0.4795 -0.5343 -0.6962
vn 0.6235 -0.5167 -0.5868
vn 0.7488 -0.4813 -0.4557
vn 0.8507 -0.4280 -0.3052
vn 0.9238 -0.3569 -0.1385
vn 0.9623 -0.2693 0.0391
vn 0.9610 -0.1679 0.2199
vn 0.9172 -0.0571 0.3944
vn 0.8317 0.0571 0.5523
vn 0.7096 0.1679 0.6844
vn 0.5589 0.2693 0.7843
vn 0.3892 0.3569 0.8492
vn 0.2097 0.4280 0.8791
vn 0.0279 0.4813 0.8761
vn -0.1504 0.5167 0.8429
vn -0.3207 0.5343 0.7821
vn -0.4795 0.5343 0.6962
vn -0.6235 0.5167 0.5868
vn -0.7488 0.4813 0.4557
vn -0.8507 0.4280 0.3052
vn -0.9238 0.3569 0.1385
vn -0.9623 0.2693 -0.0391
vn 0.1365 0.9580 -0.2522
vn -0.9610 0.1679 -0.2199
vn -0.9172 0.0571 -0.3944
vn -0.1365 -0.9580 0.2522
vn 0.8379 -0.0571 -0.5428
vn 0.9104 -0.1679 -0.3781
vn 0.9420 -0.2693 -0.2001
vn 0.9339 -0.3570 -0.0186
vn 0.8899 -0.4280 0.1580
vn 0.8147 -0.4813 0.3235
vn 0.7132 -0.5167 0.4737
vn 0.5896 -0.5343 0.6057
vn 0.4475 -0.5343 0.7172
vn 0.2898 -0.5167 0.8057
vn 0.1197 -0.4813 0.8683
vn -0.0590 -0.4280 0.9018
vn -0.2410 -0.3570 0.9025
vn -0.4192 -0.2693 0.8670
vn -0.5846 -0.1679 0.7938
vn -0.7271 -0.0571 0.6841
vn -0.8379 0.0571 0.5428
vn -0.9104 0.1679 0.3781
vn -0.9420 0.2693 0.2001
vn -0.9339 0.3569 0.0186
vn -0.8899 0.4280 -0.1580
vn -0.8147 0.4813 -0.3235
vn -0.7132 0.5167 -0.4737
vn -0.5896 0.5343 -0.6057
vn -0.4475 0.5343 -0.7172
vn -0.2898 0.5167 -0.8057
vn -0.1197 0.4813 -0.8683
vn 0.0590 0.4280 -0.9018
vn 0.2410 0.3569 -0.9025
vn 0.4192 0.2693 -0.8670
vn 0.1769 0.9580 0.2257
vn 0.5846 0.1679 -0.7938
vn 0.7271 0.0571 -0.6841
vn -0.1769 -0.9580 -0.2257
vn -0.0898 -0.0571 0.9943
vn -0.2641 -0.1679 0.9498
vn -0.4237 -0.2693 0.8648
vn -0.5615 -0.3569 0.7465
vn -0.6733 -0.4280 0.6029
vn -0.7572 -0.4813 0.4416
vn -0.8128 -0.5167 0.2690
vn -0.8405 -0.5343 0.0903
vn -0.8405 -0.5343 -0.0903
vn -0.8128 -0.5167 -0.2690
vn -0.7572 -0.4813 -0.4416
vn -0.6733 -0.4280 -0.6029
vn -0.5615 -0.3570 -0.7465
vn -0.4237 -0.2693 -0.8648
vn -0.2641 -0.1679 -0.9498
vn -0.0898 -0.0571 -0.9943
vn 0.0898 0.0571 -0.9943
vn 0.2641 0.1679 -0.9498
vn 0.4237 0.2693 -0.8648
vn 0.5615 0.3569 -0.7465
vn 0.6733 0.4280 -0.6029
vn 0.7572 0.4813 -0.4416
vn 0.8128 0.5167 -0.2690
vn 0.8405 0.5343 -0.0903
vn 0.8405 0.5343 0.0903
vn 0.8128 0.5167 0.2690
vn 0.7572 0.4813 0.4416
vn 0.6733 0.4280 0.6029
vn 0.5615 0.3569 0.7465
vn 0.4237 0.2693 0.8648
vn -0.2868 0.9580 -0.0000
vn 0.2641 0.1679 0.9498
vn 0.0898 0.0571 0.9943
vn 0.2868 -0.9580 -0.0000
vn 0.4795 -0.5343 -0.6961
vn -0.4795 0.5343 0.6961
vn 0.1366 0.9580 -0.2522
vn -0.1366 -0.9580 0.2522
vn -0.1364 -0.9580 0.2522
vn 0.9339 -0.3569 -0.0186
vn 0.2898 -0.5167 0.8056
vn 0.1196 -0.4813 0.8683
vn -0.5845 -0.1679 0.7938
vn 0.2411 0.3569 -0.9025
vn 0.1770 0.9580 0.2257
vn 0.1769 0.9580 0.2256
vn 0.7272 0.0571 -0.6841
vn -0.1771 -0.9580 -0.2256
vn -0.1768 -0.9580 -0.2257
vn -0.1770 -0.9580 -0.2258
vn -0.1770 -0.9580 -0.2257
vn -0.1770 -0.9580 -0.2256
vn -0.1768 -0.9580 -0.2258
vn -0.1768 -0.9580 -0.2256
vn -0.1769 -0.9580 -0.2256
vn -0.5615 -0.3569 -0.7465
vn -0.2868 0.9580 -0.0001
vn -0.2869 0.9580 -0.0000
vn -0.2868 0.9580 0.0001
vn 0.2867 -0.9580 -0.0000
vn 0.2869 -0.9579 -0.0000
vn 0.2866 -0.9580 -0.0001
vn 0.2869 -0.9580 -0.0001
vn 0.2865 -0.9581 -0.0000
vn 0.2869 -0.9580 0.0001
vt 0.015153 0.566847
vt 0.008031 0.535410
vt 0.007275 0.527983
vt 0.014547 0.657305
vt 0.008450 0.569347
vt 0.007356 0.562580
vt 0.014949 0.758094
vt 0.009776 0.596209
vt 0.008206 0.591030
vt 0.009416 0.879437
vt 0.011633 0.609058
vt 0.010246 0.607109
vt 0.708065 0.469750
vt 0.699896 0.477919
vt 0.699896 0.469750
vt 0.011986 0.601017
vt 0.013056 0.599769
vt 0.010210 0.599296
vt 0.014175 0.597643
vt 0.015169 0.594260
vt 0.016072 0.590486
vt 0.016832 0.585202
vt 0.008413 0.574934
vt 0.017644 0.579314
vt 0.018248 0.572601
vt 0.018819 0.565968
vt 0.019278 0.558436
vt 0.007632 0.542311
vt 0.019810 0.550471
vt 0.020108 0.542054
vt 0.020432 0.533928
vt 0.020670 0.525389
vt 0.007551 0.505962
vt 0.020987 0.516472
vt 0.021060 0.507414
vt 0.009930 0.515515
vt 0.003145 0.498492
vt 0.003302 0.505745
vt 0.003130 0.534345
vt 0.009729 0.565083
vt 0.003117 0.527103
vt 0.007319 0.753231
vt 0.006472 0.592491
vt 0.002759 0.776215
vt 0.010718 0.862657
vt 0.011471 0.603650
vt 0.010980 0.868753
vt 0.012818 0.499966
vt 0.003657 0.541012
vt 0.002714 0.551087
vt 0.003653 0.560544
vt 0.004070 0.567117
vt 0.005120 0.572411
vt 0.004572 0.580582
vt 0.005487 0.587573
vt 0.008327 0.595216
vt 0.008650 0.599518
vt 0.009505 0.601917
vt 0.004989 0.674306
vt 0.011261 0.654504
vt 0.008930 0.654324
vt 0.018365 0.496738
vt 0.014569 0.516962
vt 0.015930 0.514906
vt 0.008725 0.602156
vt 0.010678 0.584356
vt 0.005943 0.583495
vt 0.012818 0.499966
vt 0.021191 0.498715
vt 0.012915 0.697504
vt 0.014381 0.696207
vt 0.010519 0.601849
vt 0.006380 0.799489
vt 0.014326 0.803851
vt 0.013989 0.780716
vt 0.018805 0.780131
vt 0.008929 0.582048
vt 0.008252 0.694621
vt 0.699896 0.478425
vt 0.708065 0.486594
vt 0.699896 0.486594
vt 0.008311 0.551933
vt 0.015383 0.602618
vt 0.008310 0.516822
vt 0.014754 0.584617
vt 0.018509 0.584459
vt 0.008237 0.498510
vt 0.002185 0.516510
vt 0.014026 0.603690
vt 0.010421 0.871397
vt 0.009984 0.675889
vt 0.011967 0.564696
vt 0.012287 0.500520
vt 0.012138 0.518100
vt 0.011077 0.604406
vt 0.010787 0.697922
vt 0.012689 0.806324
vt 0.008564 0.779326
vt 0.009028 0.805179
vt 0.009740 0.887167
vt 0.007360 0.894083
vt 0.005925 0.945561
vt 0.013366 0.756965
vt 0.013225 0.656225
vt 0.014065 0.676471
vt 0.013874 0.565955
vt 0.009907 0.754498
vt 0.007916 0.496648
vt 0.018036 0.676215
vt 0.000354 0.904327
vt 0.008883 0.461729
vt 0.016742 0.426419
vt 0.007943 0.469109
vt 0.010058 0.428191
vt 0.018940 0.335601
vt 0.008782 0.434861
vt 0.012044 0.402169
vt 0.020533 0.233370
vt 0.010342 0.407105
vt 0.014046 0.390872
vt 0.022728 0.114122
vt 0.012675 0.392507
vt 0.699896 0.495775
vt 0.708065 0.503943
vt 0.699896 0.503943
vt 0.013803 0.398916
vt 0.014860 0.399841
vt 0.015959 0.401633
vt 0.012561 0.399362
vt 0.016922 0.404698
vt 0.017782 0.408197
vt 0.018462 0.413250
vt 0.019174 0.418932
vt 0.010157 0.422732
vt 0.019663 0.425465
vt 0.020119 0.431946
vt 0.020441 0.439367
vt 0.020828 0.447227
vt 0.008663 0.454905
vt 0.020970 0.455561
vt 0.021138 0.463613
vt 0.021207 0.472111
vt 0.021346 0.480992
vt 0.007736 0.491064
vt 0.021236 0.490031
vt 0.010369 0.477829
vt 0.011385 0.428134
vt 0.003981 0.462769
vt 0.003783 0.469982
vt 0.013941 0.238225
vt 0.008767 0.405945
vt 0.007628 0.410639
vt 0.018905 0.132372
vt 0.014144 0.396279
vt 0.012062 0.397715
vt 0.003488 0.491268
vt 0.004681 0.456201
vt 0.003966 0.446211
vt 0.005094 0.436910
vt 0.005680 0.430428
vt 0.006895 0.425300
vt 0.006569 0.417336
vt 0.010727 0.403536
vt 0.011183 0.399656
vt 0.014808 0.338290
vt 0.008526 0.318121
vt 0.012054 0.338553
vt 0.015043 0.476411
vt 0.016355 0.478499
vt 0.012792 0.408820
vt 0.011658 0.391014
vt 0.008188 0.409586
vt 0.018288 0.294619
vt 0.019820 0.295869
vt 0.012857 0.397315
vt 0.013448 0.192053
vt 0.009536 0.215157
vt 0.021853 0.187360
vt 0.025355 0.211321
vt 0.020503 0.210206
vt 0.010825 0.415905
vt 0.012173 0.297508
vt 0.022929 0.316404
vt 0.009515 0.445439
vt 0.017423 0.390694
vt 0.020358 0.408883
vt 0.008729 0.480283
vt 0.016747 0.408643
vt 0.002617 0.480500
vt 0.016434 0.389531
vt 0.015048 0.118071
vt 0.013935 0.316535
vt 0.013589 0.428546
vt 0.012383 0.492825
vt 0.014577 0.493448
vt 0.018625 0.316044
vt 0.020004 0.183519
vt 0.015140 0.211671
vt 0.000253 0.098659
vt 0.019938 0.092851
vt 0.018694 0.000253
vt 0.018910 0.234366
vt 0.017198 0.336597
vt 0.015472 0.427305
vt 0.015608 0.185361
vt 0.014900 0.294115
vt 0.013700 0.388736
vt 0.012642 0.475238
vt 0.016465 0.236855
vt 0.014967 0.131185
vt 0.025777 0.095613
vt 0.016748 0.538769
vt 0.009576 0.579261
vt 0.017677 0.531305
vt 0.015586 0.572349
vt 0.007692 0.668352
vt 0.016849 0.565698
vt 0.013622 0.598127
vt 0.005570 0.768579
vt 0.015314 0.593245
vt 0.003356 0.886157
vt 0.012992 0.607497
vt 0.010925 0.600179
vt 0.009819 0.598475
vt 0.013093 0.600865
vt 0.008844 0.595496
vt 0.007970 0.592074
vt 0.007271 0.587087
vt 0.006537 0.581466
vt 0.015472 0.577768
vt 0.006021 0.574983
vt 0.005537 0.568536
vt 0.005182 0.561127
vt 0.004760 0.553259
vt 0.016964 0.545636
vt 0.004581 0.544897
vt 0.004372 0.536792
vt 0.004259 0.528208
vt 0.004074 0.519208
vt 0.017754 0.508978
vt 0.004152 0.510035
vt 0.014207 0.526149
vt 0.022542 0.501439
vt 0.010902 0.503249
vt 0.014576 0.577384
vt 0.021654 0.537631
vt 0.021875 0.530328
vt 0.012036 0.763709
vt 0.016842 0.594322
vt 0.017989 0.589676
vt 0.007083 0.867918
vt 0.013556 0.602282
vt 0.022145 0.508737
vt 0.020938 0.544242
vt 0.021662 0.554269
vt 0.020534 0.563573
vt 0.019925 0.570050
vt 0.018705 0.575145
vt 0.019035 0.583051
vt 0.014882 0.596667
vt 0.014423 0.600445
vt 0.011153 0.665671
vt 0.017165 0.685249
vt 0.013476 0.665343
vt 0.012845 0.534600
vt 0.015732 0.503388
vt 0.011743 0.525626
vt 0.013311 0.596901
vt 0.014862 0.613985
vt 0.017970 0.595701
vt 0.004185 0.501216
vt 0.007853 0.708389
vt 0.006380 0.707131
vt 0.012809 0.602796
vt 0.012525 0.809172
vt 0.016377 0.786422
vt 0.004247 0.813905
vt 0.000806 0.790280
vt 0.005586 0.791400
vt 0.014820 0.584509
vt 0.013760 0.705422
vt 0.003526 0.687014
vt 0.708065 0.487100
vt 0.699896 0.495269
vt 0.699896 0.487100
vt 0.016109 0.555087
vt 0.008312 0.614498
vt 0.005747 0.596541
vt 0.016823 0.519933
vt 0.009418 0.597065
vt 0.017213 0.501421
vt 0.023038 0.519668
vt 0.009620 0.615672
vt 0.010985 0.882269
vt 0.012038 0.686912
vt 0.012383 0.578083
vt 0.007732 0.529313
vt 0.018646 0.527792
vt 0.007593 0.687415
vt 0.006070 0.817729
vt 0.010868 0.789929
vt 0.025777 0.901351
vt 0.006122 0.907469
vt 0.007369 0.999747
vt 0.007167 0.767608
vt 0.009054 0.667369
vt 0.010858 0.579180
vt 0.010412 0.815862
vt 0.011119 0.708859
vt 0.012493 0.616399
vt 0.012007 0.536173
vt 0.009564 0.765131
vt 0.010970 0.427486
vt 0.017624 0.463957
vt 0.018374 0.471477
vt 0.011125 0.338946
vt 0.017263 0.429975
vt 0.018359 0.436753
vt 0.011743 0.239676
vt 0.015907 0.403351
vt 0.017466 0.408461
vt 0.016681 0.120162
vt 0.015424 0.392746
vt 0.012733 0.400077
vt 0.015456 0.400336
vt 0.011613 0.402114
vt 0.010612 0.405411
vt 0.009701 0.409107
vt 0.008929 0.414322
vt 0.017292 0.424411
vt 0.008104 0.420150
vt 0.007482 0.426814
vt 0.006886 0.433416
vt 0.006393 0.440939
vt 0.018004 0.457036
vt 0.005818 0.448911
vt 0.005474 0.457355
vt 0.005103 0.465531
vt 0.004816 0.474156
vt 0.017934 0.493867
vt 0.004446 0.483190
vt 0.004334 0.492382
vt 0.014373 0.480518
vt 0.022335 0.494119
vt 0.022528 0.465116
vt 0.016721 0.429358
vt 0.022558 0.472456
vt 0.018185 0.244501
vt 0.019153 0.407097
vt 0.022928 0.222028
vt 0.015272 0.136929
vt 0.021991 0.458423
vt 0.022959 0.448318
vt 0.022036 0.438851
vt 0.021606 0.432265
vt 0.020541 0.426992
vt 0.021076 0.418874
vt 0.020158 0.411958
vt 0.017294 0.404438
vt 0.016963 0.400238
vt 0.016116 0.397943
vt 0.021526 0.322253
vt 0.015029 0.341662
vt 0.017700 0.341995
vt 0.013687 0.472169
vt 0.012629 0.481151
vt 0.017012 0.392927
vt 0.015498 0.409962
vt 0.020105 0.411118
vt 0.013080 0.299207
vt 0.011231 0.300388
vt 0.015154 0.397900
vt 0.019555 0.199169
vt 0.011879 0.194779
vt 0.012241 0.217492
vt 0.007668 0.218122
vt 0.016761 0.417385
vt 0.018424 0.302179
vt 0.017359 0.447424
vt 0.011333 0.392445
vt 0.017254 0.482832
vt 0.011628 0.409741
vt 0.007968 0.410120
vt 0.023481 0.483192
vt 0.012350 0.391283
vt 0.015618 0.128135
vt 0.016272 0.320601
vt 0.014227 0.428700
vt 0.008378 0.477233
vt 0.012722 0.470518
vt 0.015046 0.390576
vt 0.015491 0.298873
vt 0.013456 0.192290
vt 0.017416 0.218875
vt 0.016995 0.193453
vt 0.016333 0.112388
vt 0.018671 0.105780
vt 0.020139 0.054314
vt 0.012912 0.240790
vt 0.012798 0.339950
vt 0.011952 0.319985
vt 0.012551 0.427612
vt 0.016061 0.243243
vt 0.007731 0.320235
vt 0.260778 0.000253
vt 0.026283 0.014909
vt 0.026283 0.000253
vt 0.260778 0.029565
vt 0.026283 0.029565
vt 0.260778 0.044221
vt 0.026283 0.044221
vt 0.260778 0.058877
vt 0.026283 0.058877
vt 0.260778 0.073533
vt 0.026283 0.073533
vt 0.260778 0.088189
vt 0.026283 0.088189
vt 0.026283 0.102845
vt 0.260778 0.102845
vt 0.026283 0.117501
vt 0.260778 0.117501
vt 0.026283 0.132157
vt 0.260778 0.132157
vt 0.026283 0.146813
vt 0.260778 0.161469
vt 0.026283 0.161469
vt 0.260778 0.176125
vt 0.026283 0.176125
vt 0.026283 0.190781
vt 0.260778 0.205437
vt 0.026283 0.205437
vt 0.026283 0.220093
vt 0.260778 0.234748
vt 0.026283 0.234748
vt 0.026283 0.249404
vt 0.260778 0.264060
vt 0.026283 0.264060
vt 0.026283 0.278716
vt 0.260778 0.293372
vt 0.026283 0.293372
vt 0.260778 0.308028
vt 0.026283 0.308028
vt 0.026283 0.322684
vt 0.260778 0.337340
vt 0.026283 0.337340
vt 0.026283 0.351996
vt 0.260778 0.366652
vt 0.026283 0.366652
vt 0.260778 0.381308
vt 0.026283 0.381308
vt 0.026283 0.395964
vt 0.260778 0.410620
vt 0.026283 0.410620
vt 0.026283 0.425276
vt 0.260778 0.439932
vt 0.026283 0.439932
vt 0.105625 0.698593
vt 0.246010 0.773630
vt 0.170973 0.914015
vt 0.026283 0.454588
vt 0.260778 0.469244
vt 0.026283 0.469244
vt 0.250315 0.570733
vt 0.127266 0.469750
vt 0.026283 0.592798
vt 0.495780 0.000253
vt 0.261285 0.014909
vt 0.261285 0.000253
vt 0.495780 0.014909
vt 0.261285 0.029565
vt 0.495780 0.044221
vt 0.261285 0.044221
vt 0.261285 0.058877
vt 0.495780 0.073533
vt 0.261285 0.073533
vt 0.261285 0.088189
vt 0.495780 0.088189
vt 0.261285 0.102845
vt 0.495780 0.102845
vt 0.261285 0.117501
vt 0.495780 0.117501
vt 0.261285 0.132157
vt 0.495780 0.132157
vt 0.261285 0.146813
vt 0.495780 0.146813
vt 0.261285 0.161469
vt 0.495780 0.161469
vt 0.261285 0.176125
vt 0.495780 0.176125
vt 0.261285 0.190781
vt 0.495780 0.190781
vt 0.261285 0.205437
vt 0.495780 0.205437
vt 0.261285 0.220093
vt 0.495780 0.234748
vt 0.261285 0.234748
vt 0.261285 0.249404
vt 0.495780 0.249404
vt 0.261285 0.264060
vt 0.495780 0.278716
vt 0.261285 0.278716
vt 0.261285 0.293372
vt 0.495780 0.308028
vt 0.261285 0.308028
vt 0.495780 0.322684
vt 0.261285 0.322684
vt 0.261285 0.337340
vt 0.495780 0.337340
vt 0.261285 0.351996
vt 0.495780 0.366652
vt 0.261285 0.366652
vt 0.261285 0.381308
vt 0.495780 0.381308
vt 0.261285 0.395964
vt 0.495780 0.395964
vt 0.261285 0.410620
vt 0.495780 0.425276
vt 0.261285 0.425276
vt 0.261285 0.439932
vt 0.330163 0.698593
vt 0.470548 0.773630
vt 0.395510 0.914015
vt 0.495780 0.439932
vt 0.261285 0.454588
vt 0.495780 0.454588
vt 0.261285 0.469244
vt 0.474852 0.570733
vt 0.351804 0.469750
vt 0.250821 0.592798
vt 0.496286 0.000253
vt 0.730782 0.014909
vt 0.496286 0.014909
vt 0.496286 0.029565
vt 0.730782 0.029565
vt 0.496286 0.044221
vt 0.730782 0.044221
vt 0.496286 0.058877
vt 0.730782 0.073533
vt 0.496286 0.073533
vt 0.496286 0.088189
vt 0.730782 0.102845
vt 0.496286 0.102845
vt 0.496286 0.117501
vt 0.730782 0.132157
vt 0.496286 0.132157
vt 0.730782 0.146813
vt 0.496286 0.146813
vt 0.730782 0.161469
vt 0.496286 0.161469
vt 0.730782 0.176125
vt 0.496286 0.176125
vt 0.730782 0.190781
vt 0.496286 0.190781
vt 0.730782 0.205437
vt 0.496286 0.205437
vt 0.730782 0.220092
vt 0.496286 0.220093
vt 0.730782 0.234748
vt 0.496286 0.234748
vt 0.730782 0.249404
vt 0.496286 0.249404
vt 0.496286 0.264060
vt 0.730782 0.264060
vt 0.496286 0.278716
vt 0.730782 0.293372
vt 0.496286 0.293372
vt 0.496286 0.308028
vt 0.730782 0.308028
vt 0.496286 0.322684
vt 0.730782 0.337340
vt 0.496286 0.337340
vt 0.730782 0.351996
vt 0.496286 0.351996
vt 0.496286 0.366652
vt 0.730782 0.381308
vt 0.496286 0.381308
vt 0.496286 0.395964
vt 0.730782 0.410620
vt 0.496286 0.410620
vt 0.496286 0.425276
vt 0.730782 0.439932
vt 0.496286 0.439932
vt 0.554701 0.698593
vt 0.695085 0.773630
vt 0.620048 0.914015
vt 0.730782 0.454588
vt 0.496286 0.454588
vt 0.730782 0.469244
vt 0.496286 0.469244
vt 0.699390 0.570733
vt 0.576342 0.469750
vt 0.475359 0.592798
vt 0.708065 0.477919
vt 0.014500 0.499932
vt 0.708065 0.478425
vt 0.708065 0.495775
vt 0.708065 0.495269
vt 0.019297 0.479080
vt 0.260778 0.014909
vt 0.260778 0.146813
vt 0.260778 0.190781
vt 0.260778 0.220093
vt 0.260778 0.249404
vt 0.260778 0.278716
vt 0.260778 0.322684
vt 0.260778 0.351996
vt 0.260778 0.395964
vt 0.260778 0.425276
vt 0.149331 0.918319
vt 0.127266 0.918319
vt 0.105625 0.914015
vt 0.085239 0.905571
vt 0.066893 0.893312
vt 0.051291 0.877710
vt 0.039032 0.859363
vt 0.030588 0.838977
vt 0.026283 0.817336
vt 0.026283 0.795271
vt 0.030588 0.773630
vt 0.039032 0.753244
vt 0.051291 0.734898
vt 0.066893 0.719295
vt 0.085240 0.707037
vt 0.127266 0.694288
vt 0.149331 0.694288
vt 0.170973 0.698593
vt 0.191358 0.707037
vt 0.209705 0.719295
vt 0.225307 0.734898
vt 0.237566 0.753244
vt 0.250315 0.795271
vt 0.250315 0.817336
vt 0.246010 0.838978
vt 0.237566 0.859363
vt 0.225307 0.877710
vt 0.209705 0.893312
vt 0.191358 0.905571
vt 0.260778 0.454588
vt 0.030588 0.614440
vt 0.039032 0.634825
vt 0.051291 0.653172
vt 0.066893 0.668774
vt 0.085239 0.681033
vt 0.105625 0.689477
vt 0.127266 0.693782
vt 0.149331 0.693782
vt 0.170973 0.689477
vt 0.191358 0.681033
vt 0.209705 0.668774
vt 0.225307 0.653172
vt 0.237566 0.634825
vt 0.246010 0.614440
vt 0.250315 0.592798
vt 0.246010 0.549092
vt 0.237566 0.528706
vt 0.225307 0.510360
vt 0.209705 0.494757
vt 0.191358 0.482499
vt 0.170973 0.474055
vt 0.149331 0.469750
vt 0.105625 0.474055
vt 0.085239 0.482499
vt 0.066893 0.494758
vt 0.051291 0.510360
vt 0.039032 0.528706
vt 0.030588 0.549092
vt 0.026283 0.570733
vt 0.495780 0.029565
vt 0.495780 0.058877
vt 0.495780 0.220093
vt 0.495780 0.264060
vt 0.495780 0.293372
vt 0.495780 0.351996
vt 0.495780 0.410620
vt 0.373869 0.918319
vt 0.351804 0.918319
vt 0.330163 0.914015
vt 0.309777 0.905571
vt 0.291431 0.893312
vt 0.275828 0.877710
vt 0.263570 0.859363
vt 0.255126 0.838977
vt 0.250821 0.817336
vt 0.250821 0.795271
vt 0.255126 0.773630
vt 0.263570 0.753244
vt 0.275828 0.734898
vt 0.291431 0.719295
vt 0.309777 0.707037
vt 0.351804 0.694288
vt 0.373869 0.694288
vt 0.395510 0.698593
vt 0.415896 0.707037
vt 0.434243 0.719295
vt 0.449845 0.734898
vt 0.462104 0.753244
vt 0.474852 0.795271
vt 0.474852 0.817336
vt 0.470548 0.838977
vt 0.462104 0.859363
vt 0.449845 0.877710
vt 0.434243 0.893312
vt 0.415896 0.905571
vt 0.495780 0.469244
vt 0.255126 0.614440
vt 0.263570 0.634825
vt 0.275828 0.653172
vt 0.291431 0.668774
vt 0.309777 0.681033
vt 0.330163 0.689477
vt 0.351804 0.693782
vt 0.373869 0.693782
vt 0.395510 0.689477
vt 0.415896 0.681033
vt 0.434243 0.668774
vt 0.449845 0.653172
vt 0.462104 0.634825
vt 0.470548 0.614440
vt 0.474852 0.592798
vt 0.470548 0.549092
vt 0.462104 0.528706
vt 0.449845 0.510360
vt 0.434242 0.494757
vt 0.415896 0.482499
vt 0.395510 0.474055
vt 0.373869 0.469750
vt 0.330163 0.474055
vt 0.309777 0.482499
vt 0.291431 0.494758
vt 0.275828 0.510360
vt 0.263570 0.528706
vt 0.255126 0.549092
vt 0.250821 0.570733
vt 0.730782 0.000253
vt 0.730782 0.058877
vt 0.730782 0.088189
vt 0.730782 0.117501
vt 0.730782 0.278716
vt 0.730782 0.322684
vt 0.730782 0.366652
vt 0.730782 0.395964
vt 0.730782 0.425276
vt 0.598407 0.918319
vt 0.576342 0.918319
vt 0.554701 0.914015
vt 0.534315 0.905571
vt 0.515969 0.893312
vt 0.500366 0.877710
vt 0.488107 0.859363
vt 0.479663 0.838977
vt 0.475359 0.817336
vt 0.475359 0.795271
vt 0.479663 0.773630
vt 0.488107 0.753244
vt 0.500366 0.734898
vt 0.515969 0.719295
vt 0.534315 0.707037
vt 0.576342 0.694288
vt 0.598407 0.694288
vt 0.620048 0.698593
vt 0.640434 0.707037
vt 0.658780 0.719295
vt 0.674383 0.734898
vt 0.686642 0.753244
vt 0.699390 0.795271
vt 0.699390 0.817336
vt 0.695085 0.838978
vt 0.686641 0.859363
vt 0.674383 0.877710
vt 0.658780 0.893312
vt 0.640434 0.905571
vt 0.479663 0.614440
vt 0.488107 0.634825
vt 0.500366 0.653172
vt 0.515969 0.668774
vt 0.534315 0.681033
vt 0.554701 0.689477
vt 0.576342 0.693782
vt 0.598407 0.693782
vt 0.620048 0.689477
vt 0.640434 0.681033
vt 0.658780 0.668774
vt 0.674383 0.653172
vt 0.686642 0.634825
vt 0.695085 0.614440
vt 0.699390 0.592798
vt 0.695085 0.549092
vt 0.686642 0.528706
vt 0.674383 0.510360
vt 0.658780 0.494758
vt 0.640434 0.482499
vt 0.620048 0.474055
vt 0.598407 0.469750
vt 0.554701 0.474055
vt 0.534315 0.482499
vt 0.515969 0.494758
vt 0.500366 0.510360
vt 0.488107 0.528706
vt 0.479663 0.549092
vt 0.475359 0.570733
s 0
usemtl マテリアル
f 71/1/1 31/2/1 70/3/1
f 61/4/2 33/5/2 60/6/2
f 51/7/3 35/8/3 50/9/3
f 41/10/4 37/11/4 40/12/4
f 27/13/5 97/14/5 28/15/5
f 40/12/6 26/16/6 43/17/6
f 45/18/7 23/19/7 48/20/7
f 50/9/8 19/21/8 53/22/8
f 55/23/9 17/24/9 58/25/9
f 60/6/10 13/26/10 63/27/10
f 65/28/11 11/29/11 68/30/11
f 70/3/12 7/31/12 73/32/12
f 75/33/13 5/34/13 78/35/13
f 77/36/14 2/37/14 79/38/14
f 8/39/15 72/40/15 74/41/15
f 52/42/16 20/43/16 21/44/16
f 42/45/17 25/46/17 28/47/17
f 38/48/18 79/38/18 2/37/18
f 74/41/18 38/48/18 8/39/18
f 69/49/18 38/48/18 12/50/18
f 64/51/18 38/48/18 14/52/18
f 59/53/18 38/48/18 18/54/18
f 54/55/18 38/48/18 20/43/18
f 49/56/18 38/48/18 24/57/18
f 44/58/18 38/48/18 25/46/18
f 15/59/19 92/60/19 62/61/19
f 3/62/13 104/63/13 76/64/13
f 67/65/20 89/66/20 10/67/20
f 78/35/21 39/68/21 1/69/21
f 39/68/21 73/32/21 7/31/21
f 39/68/21 68/30/21 11/29/21
f 39/68/21 63/27/21 13/26/21
f 39/68/21 58/25/21 17/24/21
f 39/68/21 53/22/21 19/21/21
f 39/68/21 48/20/21 23/19/21
f 39/68/21 43/17/21 26/16/21
f 51/7/22 100/70/22 56/71/22
f 36/72/6 43/17/6 23/19/6
f 20/43/23 47/73/23 21/44/23
f 35/8/7 48/20/7 19/21/7
f 35/8/24 46/74/24 45/18/24
f 51/7/8 85/75/8 22/76/8
f 34/77/8 53/22/8 17/24/8
f 14/52/25 57/78/25 15/59/25
f 33/5/9 58/25/9 13/26/9
f 33/5/26 56/71/26 55/23/26
f 4/79/27 90/80/27 3/81/27
f 62/61/28 14/52/28 15/59/28
f 32/82/10 63/27/10 11/29/10
f 8/39/29 67/65/29 10/67/29
f 31/2/11 68/30/11 7/31/11
f 31/2/30 66/83/30 65/28/30
f 30/84/12 73/32/12 5/34/12
f 71/1/12 81/85/12 9/86/12
f 29/87/13 78/35/13 1/69/13
f 29/87/31 76/64/31 75/33/31
f 75/33/32 77/36/32 79/38/32
f 75/33/18 6/88/18 30/84/18
f 70/3/18 6/88/18 74/41/18
f 72/40/33 70/3/33 74/41/33
f 67/65/34 65/28/34 66/83/34
f 65/28/18 12/50/18 32/82/18
f 60/6/18 12/50/18 64/51/18
f 62/61/35 60/6/35 64/51/35
f 57/78/36 55/23/36 56/71/36
f 55/23/18 18/54/18 34/77/18
f 50/9/18 18/54/18 54/55/18
f 52/42/37 50/9/37 54/55/37
f 47/73/38 45/18/38 46/74/38
f 40/12/18 24/57/18 44/58/18
f 42/45/39 40/12/39 44/58/39
f 9/86/11 102/89/11 66/83/11
f 47/73/40 96/90/40 42/45/40
f 57/78/41 93/91/41 15/59/41
f 10/67/42 88/92/42 72/40/42
f 104/63/18 91/93/18 105/94/18
f 102/89/18 89/66/18 103/95/18
f 100/70/18 93/91/18 101/96/18
f 98/97/18 95/98/18 99/99/18
f 86/100/18 97/101/18 87/102/18
f 84/103/18 95/98/18 85/75/18
f 82/104/18 93/91/18 83/105/18
f 80/106/18 89/66/18 81/85/18
f 86/100/21 99/99/21 98/97/21
f 100/70/21 94/107/21 101/96/21
f 82/104/21 103/95/21 102/89/21
f 80/106/21 105/94/21 104/63/21
f 57/78/43 94/107/43 52/42/43
f 77/36/44 91/93/44 4/108/44
f 21/44/45 94/107/45 52/42/45
f 61/4/46 102/89/46 66/83/46
f 28/47/47 96/90/47 42/45/47
f 67/65/48 92/60/48 62/61/48
f 61/4/10 83/105/10 16/109/10
f 41/10/6 87/102/6 27/110/6
f 71/1/49 104/63/49 76/64/49
f 22/76/7 98/97/7 46/74/7
f 77/36/50 88/92/50 72/40/50
f 47/73/51 95/98/51 21/44/51
f 16/109/9 100/70/9 56/71/9
f 41/10/52 98/97/52 46/74/52
f 131/111/53 169/112/53 168/113/53
f 133/114/54 159/115/54 158/116/54
f 135/117/55 149/118/55 148/119/55
f 137/120/56 139/121/56 138/122/56
f 193/123/5 128/124/5 129/125/5
f 127/126/57 138/122/57 141/127/57
f 124/128/33 143/129/33 146/130/33
f 120/131/58 148/119/58 151/132/58
f 118/133/35 153/134/35 156/135/35
f 114/136/59 158/116/59 161/137/59
f 112/138/37 163/139/37 166/140/37
f 108/141/60 168/113/60 171/142/60
f 106/143/39 173/144/39 176/145/39
f 175/146/61 2/37/61 4/108/61
f 170/147/62 109/148/62 172/149/62
f 150/150/63 121/151/63 152/152/63
f 140/153/64 126/154/64 142/155/64
f 177/156/18 38/48/18 2/37/18
f 38/48/18 172/149/18 109/148/18
f 38/48/18 167/157/18 113/158/18
f 38/48/18 162/159/18 115/160/18
f 38/48/18 157/161/18 119/162/18
f 38/48/18 152/152/18 121/151/18
f 38/48/18 147/163/18 125/164/18
f 38/48/18 142/155/18 126/154/18
f 188/165/36 116/166/36 160/167/36
f 200/168/39 3/62/39 174/169/39
f 187/170/65 165/171/65 111/172/65
f 39/68/21 176/145/21 1/69/21
f 171/142/21 39/68/21 108/141/21
f 166/140/21 39/68/21 112/138/21
f 161/137/21 39/68/21 114/136/21
f 156/135/21 39/68/21 118/133/21
f 151/132/21 39/68/21 120/131/21
f 146/130/21 39/68/21 124/128/21
f 141/127/21 39/68/21 127/126/21
f 196/173/66 149/118/66 154/174/66
f 141/127/57 136/175/57 124/128/57
f 145/176/67 121/151/67 122/177/67
f 146/130/33 135/117/33 120/131/33
f 135/117/68 144/178/68 123/179/68
f 183/180/58 149/118/58 123/179/58
f 151/132/58 134/181/58 118/133/58
f 155/182/69 115/160/69 116/166/69
f 156/135/35 133/114/35 114/136/35
f 133/114/70 154/174/70 117/183/70
f 115/160/71 160/167/71 116/166/71
f 161/137/59 132/184/59 112/138/59
f 165/171/72 109/148/72 111/172/72
f 166/140/37 131/111/37 108/141/37
f 131/111/73 164/185/73 110/186/73
f 171/142/60 130/187/60 106/143/60
f 179/188/60 169/112/60 110/186/60
f 176/145/39 29/87/39 1/69/39
f 29/87/74 174/169/74 3/62/74
f 175/146/47 173/144/47 177/156/47
f 107/189/18 173/144/18 130/187/18
f 168/113/18 107/189/18 130/187/18
f 168/113/7 170/147/7 172/149/7
f 163/139/45 165/171/45 164/185/45
f 113/158/18 163/139/18 132/184/18
f 158/116/18 113/158/18 132/184/18
f 160/167/9 158/116/9 159/115/9
f 153/134/19 155/182/19 154/174/19
f 119/162/18 153/134/18 134/181/18
f 148/119/18 119/162/18 134/181/18
f 150/150/11 148/119/11 149/118/11
f 143/129/42 145/176/42 144/178/42
f 138/122/18 125/164/18 136/175/18
f 140/153/13 138/122/13 139/121/13
f 198/190/37 110/186/37 164/185/37
f 192/191/75 145/176/75 140/153/75
f 189/192/76 155/182/76 116/166/76
f 186/193/38 111/172/38 170/147/38
f 200/168/18 91/194/18 90/195/18
f 198/190/18 187/170/18 179/188/18
f 196/173/18 189/192/18 181/196/18
f 194/197/18 191/198/18 183/180/18
f 193/199/18 184/200/18 185/201/18
f 191/198/18 182/202/18 183/180/18
f 189/192/18 180/203/18 181/196/18
f 187/170/18 178/204/18 179/188/18
f 195/205/21 184/200/21 194/197/21
f 197/206/21 182/202/21 196/173/21
f 199/207/21 180/203/21 198/190/21
f 201/208/21 178/204/21 200/168/21
f 190/209/77 155/182/77 150/150/77
f 91/194/78 175/146/78 4/108/78
f 190/209/34 122/177/34 150/150/34
f 198/190/79 159/115/79 164/185/79
f 192/191/32 129/210/32 140/153/32
f 188/165/80 165/171/80 160/167/80
f 181/196/59 159/115/59 117/183/59
f 185/201/57 139/121/57 128/211/57
f 200/168/81 169/112/81 174/169/81
f 194/197/33 123/179/33 144/178/33
f 186/193/82 175/146/82 170/147/82
f 191/198/83 145/176/83 122/177/83
f 196/173/35 117/183/35 154/174/35
f 194/197/84 139/121/84 144/178/84
f 228/212/85 265/213/85 264/214/85
f 230/215/86 255/216/86 254/217/86
f 232/218/87 245/219/87 244/220/87
f 37/11/88 235/221/88 234/222/88
f 26/16/32 234/222/32 237/223/32
f 224/224/83 239/225/83 242/226/83
f 220/227/34 244/220/34 247/228/34
f 218/229/76 249/230/76 252/231/76
f 214/232/36 254/217/36 257/233/36
f 212/234/65 259/235/65 262/236/65
f 208/237/38 264/214/38 267/238/38
f 206/239/78 269/240/78 272/241/78
f 271/242/89 203/243/89 205/244/89
f 266/245/90 209/246/90 268/247/90
f 246/248/91 221/249/91 248/250/91
f 236/251/92 25/46/92 238/252/92
f 273/253/18 38/48/18 203/243/18
f 38/48/18 268/247/18 209/246/18
f 38/48/18 263/254/18 213/255/18
f 38/48/18 258/256/18 215/257/18
f 38/48/18 253/258/18 219/259/18
f 38/48/18 248/250/18 221/249/18
f 38/48/18 243/260/18 225/261/18
f 38/48/18 238/252/18 25/46/18
f 285/262/59 216/263/59 256/264/59
f 296/265/78 204/266/78 270/267/78
f 282/268/37 261/269/37 211/270/37
f 39/68/21 272/241/21 202/271/21
f 267/238/21 39/68/21 208/237/21
f 262/236/21 39/68/21 212/234/21
f 257/233/21 39/68/21 214/232/21
f 252/231/21 39/68/21 218/229/21
f 247/228/21 39/68/21 220/227/21
f 242/226/21 39/68/21 224/224/21
f 237/223/21 39/68/21 26/16/21
f 292/272/77 245/219/77 250/273/77
f 237/223/32 233/274/32 224/224/32
f 241/275/93 221/249/93 222/276/93
f 242/226/83 232/218/83 220/227/83
f 232/218/94 240/277/94 223/278/94
f 279/279/34 245/219/34 223/278/34
f 247/228/34 231/280/34 218/229/34
f 251/281/95 215/257/95 216/263/95
f 252/231/76 230/215/76 214/232/76
f 230/215/96 250/273/96 217/282/96
f 283/283/27 205/284/27 204/285/27
f 215/257/97 256/264/97 216/263/97
f 257/233/36 229/286/36 212/234/36
f 261/269/98 209/246/98 211/270/98
f 262/236/65 228/212/65 208/237/65
f 228/212/99 260/287/99 210/288/99
f 267/238/38 227/289/38 206/239/38
f 275/290/38 265/213/38 210/288/38
f 272/241/78 226/291/78 202/271/78
f 226/291/100 270/267/100 204/266/100
f 271/242/6 269/240/6 273/253/6
f 207/292/18 269/240/18 227/289/18
f 264/214/18 207/292/18 227/289/18
f 264/214/51 266/245/51 268/247/51
f 259/235/8 261/269/8 260/287/8
f 213/255/18 259/235/18 229/286/18
f 254/217/18 213/255/18 229/286/18
f 256/264/41 254/217/41 255/216/41
f 249/230/10 251/281/10 250/273/10
f 219/259/18 249/230/18 231/280/18
f 244/220/18 219/259/18 231/280/18
f 246/248/20 244/220/20 245/219/20
f 239/225/12 241/275/12 240/277/12
f 234/222/18 225/261/18 233/274/18
f 236/251/44 234/222/44 235/221/44
f 294/293/65 210/288/65 260/287/65
f 289/294/84 241/275/84 236/251/84
f 286/295/35 251/281/35 216/263/35
f 281/296/60 211/270/60 266/245/60
f 296/265/18 284/297/18 283/298/18
f 294/293/18 282/268/18 275/290/18
f 292/272/18 286/295/18 277/299/18
f 290/300/18 288/301/18 279/279/18
f 97/302/18 280/303/18 87/304/18
f 288/301/18 278/305/18 279/279/18
f 286/295/18 276/306/18 277/299/18
f 282/268/18 274/307/18 275/290/18
f 291/308/21 280/303/21 290/300/21
f 293/309/21 278/305/21 292/272/21
f 295/310/21 276/306/21 294/293/21
f 297/311/21 274/307/21 296/265/21
f 287/312/66 251/281/66 246/248/66
f 284/297/39 271/242/39 205/244/39
f 287/312/58 222/276/58 246/248/58
f 294/293/80 255/216/80 260/287/80
f 289/294/57 28/47/57 236/251/57
f 285/262/79 261/269/79 256/264/79
f 277/299/36 255/216/36 217/282/36
f 87/304/32 235/221/32 27/110/32
f 296/265/82 265/213/82 270/267/82
f 290/300/83 223/278/83 240/277/83
f 281/296/81 271/242/81 266/245/81
f 288/301/33 241/275/33 222/276/33
f 292/272/76 217/282/76 250/273/76
f 290/300/75 235/221/75 240/277/75
f 356/313/101 319/314/101 355/315/101
f 346/316/102 321/317/102 345/318/102
f 336/319/103 323/320/103 335/321/103
f 326/322/104 137/120/104 325/323/104
f 325/323/47 127/126/47 328/324/47
f 330/325/51 316/326/51 333/327/51
f 335/321/45 312/328/45 338/329/45
f 340/330/41 310/331/41 343/332/41
f 345/318/19 306/333/19 348/334/19
f 350/335/20 304/336/20 353/337/20
f 355/315/42 300/338/42 358/339/42
f 360/340/44 298/341/44 363/342/44
f 362/343/105 203/243/105 364/344/105
f 301/345/106 357/346/106 359/347/106
f 337/348/107 313/349/107 314/350/107
f 327/351/108 126/154/108 129/210/108
f 38/48/18 364/344/18 203/243/18
f 359/347/18 38/48/18 301/345/18
f 354/352/18 38/48/18 305/353/18
f 349/354/18 38/48/18 307/355/18
f 344/356/18 38/48/18 311/357/18
f 339/358/18 38/48/18 313/349/18
f 334/359/18 38/48/18 317/360/18
f 329/361/18 38/48/18 126/154/18
f 308/362/10 374/363/10 347/364/10
f 204/266/44 385/365/44 361/366/44
f 352/367/11 373/368/11 303/369/11
f 363/342/21 39/68/21 202/271/21
f 39/68/21 358/339/21 300/338/21
f 39/68/21 353/337/21 304/336/21
f 39/68/21 348/334/21 306/333/21
f 39/68/21 343/332/21 310/331/21
f 39/68/21 338/329/21 312/328/21
f 39/68/21 333/327/21 316/326/21
f 39/68/21 328/324/21 127/126/21
f 336/319/43 381/370/43 341/371/43
f 324/372/47 328/324/47 316/326/47
f 313/349/109 332/373/109 314/350/109
f 323/320/51 333/327/51 312/328/51
f 323/320/110 331/374/110 330/325/110
f 336/319/45 370/375/45 315/376/45
f 322/377/45 338/329/45 310/331/45
f 307/355/111 342/378/111 308/362/111
f 321/317/41 343/332/41 306/333/41
f 321/317/112 341/371/112 340/330/112
f 347/364/113 307/355/113 308/362/113
f 320/379/19 348/334/19 304/336/19
f 301/345/114 352/367/114 303/369/114
f 319/314/20 353/337/20 300/338/20
f 319/314/115 351/380/115 350/335/115
f 318/381/42 358/339/42 298/341/42
f 356/313/42 366/382/42 302/383/42
f 226/291/44 363/342/44 202/271/44
f 226/291/116 361/366/116 360/340/116
f 360/340/57 362/343/57 364/344/57
f 360/340/18 299/384/18 318/381/18
f 355/315/18 299/384/18 359/347/18
f 357/346/83 355/315/83 359/347/83
f 352/367/58 350/335/58 351/380/58
f 350/335/18 305/353/18 320/379/18
f 345/318/18 305/353/18 349/354/18
f 347/364/76 345/318/76 349/354/76
f 342/378/59 340/330/59 341/371/59
f 340/330/18 311/357/18 322/377/18
f 335/321/18 311/357/18 339/358/18
f 337/348/65 335/321/65 339/358/65
f 332/373/60 330/325/60 331/374/60
f 325/323/18 317/360/18 329/361/18
f 327/351/78 325/323/78 329/361/78
f 302/383/20 383/385/20 351/380/20
f 332/373/52 378/386/52 327/351/52
f 342/378/9 375/387/9 308/362/9
f 303/369/12 372/388/12 357/346/12
f 385/365/18 284/389/18 386/390/18
f 383/385/18 373/368/18 384/391/18
f 381/370/18 375/387/18 382/392/18
f 379/393/18 377/394/18 380/395/18
f 371/396/18 193/397/18 185/398/18
f 369/399/18 377/394/18 370/375/18
f 367/400/18 375/387/18 368/401/18
f 365/402/18 373/368/18 366/382/18
f 371/396/21 380/395/21 379/393/21
f 381/370/21 376/403/21 382/392/21
f 367/400/21 384/391/21 383/385/21
f 365/402/21 386/390/21 385/365/21
f 342/378/22 376/403/22 337/348/22
f 362/343/13 284/389/13 205/244/13
f 314/350/8 376/403/8 337/348/8
f 346/316/48 383/385/48 351/380/48
f 129/210/6 378/386/6 327/351/6
f 352/367/46 374/363/46 347/364/46
f 346/316/19 368/401/19 309/404/19
f 326/322/47 185/398/47 128/211/47
f 356/313/50 385/365/50 361/366/50
f 315/376/51 379/393/51 331/374/51
f 362/343/49 372/388/49 357/346/49
f 332/373/7 377/394/7 314/350/7
f 309/404/41 381/370/41 341/371/41
f 326/322/40 379/393/40 331/374/40
f 388/405/117 389/406/117 387/407/117
f 389/406/118 392/408/118 391/409/118
f 391/409/119 394/410/119 393/411/119
f 393/411/120 396/412/120 395/413/120
f 395/413/121 398/414/121 397/415/121
f 397/415/122 400/416/122 399/417/122
f 400/416/123 401/418/123 399/417/123
f 402/419/124 403/420/124 401/418/124
f 404/421/125 405/422/125 403/420/125
f 406/423/126 407/424/126 405/422/126
f 407/424/127 410/425/127 409/426/127
f 409/426/128 412/427/128 411/428/128
f 412/427/129 413/429/129 411/428/129
f 413/429/130 416/430/130 415/431/130
f 416/430/131 417/432/131 415/431/131
f 417/432/132 420/433/132 419/434/132
f 420/433/133 421/435/133 419/434/133
f 421/435/134 424/436/134 423/437/134
f 424/436/135 425/438/135 423/437/135
f 425/438/136 428/439/136 427/440/136
f 427/440/137 430/441/137 429/442/137
f 430/441/138 431/443/138 429/442/138
f 431/443/139 434/444/139 433/445/139
f 434/444/140 435/446/140 433/445/140
f 435/446/141 438/447/141 437/448/141
f 437/448/142 440/449/142 439/450/142
f 440/449/143 441/451/143 439/450/143
f 441/451/144 444/452/144 443/453/144
f 444/452/145 445/454/145 443/453/145
f 445/454/146 448/455/146 447/456/146
f 424/457/147 408/458/147 392/459/147
f 448/455/148 449/460/148 447/456/148
f 449/460/149 388/461/149 387/462/149
f 417/463/150 433/464/150 449/465/150
f 452/466/151 453/467/151 451/468/151
f 454/469/152 455/470/152 453/467/152
f 455/470/153 458/471/153 457/472/153
f 458/471/154 459/473/154 457/472/154
f 459/473/155 462/474/155 461/475/155
f 462/474/156 463/476/156 461/475/156
f 464/477/157 465/478/157 463/476/157
f 466/479/158 467/480/158 465/478/158
f 468/481/159 469/482/159 467/480/159
f 470/483/160 471/484/160 469/482/160
f 472/485/161 473/486/161 471/484/161
f 474/487/162 475/488/162 473/486/162
f 476/489/163 477/490/163 475/488/163
f 478/491/164 479/492/164 477/490/164
f 480/493/165 481/494/165 479/492/165
f 481/494/166 484/495/166 483/496/166
f 484/495/167 485/497/167 483/496/167
f 486/498/168 487/499/168 485/497/168
f 487/499/169 490/500/169 489/501/169
f 490/500/170 491/502/170 489/501/170
f 491/502/171 494/503/171 493/504/171
f 493/504/172 496/505/172 495/506/172
f 496/505/173 497/507/173 495/506/173
f 498/508/174 499/509/174 497/507/174
f 499/509/175 502/510/175 501/511/175
f 502/510/176 503/512/176 501/511/176
f 504/513/177 505/514/177 503/512/177
f 506/515/178 507/516/178 505/514/178
f 507/516/179 510/517/179 509/518/179
f 510/517/180 511/519/180 509/518/180
f 488/520/181 472/521/181 456/522/181
f 512/523/182 513/524/182 511/519/182
f 514/525/183 451/526/183 513/524/183
f 481/527/184 497/528/184 513/529/184
f 515/530/185 518/531/185 517/532/185
f 518/531/186 519/533/186 517/532/186
f 520/534/187 521/535/187 519/533/187
f 522/536/188 523/537/188 521/535/188
f 523/537/189 526/538/189 525/539/189
f 526/538/190 527/540/190 525/539/190
f 527/540/191 530/541/191 529/542/191
f 530/541/192 531/543/192 529/542/192
f 531/543/193 534/544/193 533/545/193
f 533/545/194 536/546/194 535/547/194
f 535/547/195 538/548/195 537/549/195
f 537/549/196 540/550/196 539/551/196
f 539/551/197 542/552/197 541/553/197
f 541/553/198 544/554/198 543/555/198
f 543/555/199 546/556/199 545/557/199
f 545/557/200 548/558/200 547/559/200
f 547/559/201 550/560/201 549/561/201
f 550/560/202 551/562/202 549/561/202
f 552/563/203 553/564/203 551/562/203
f 553/564/204 556/565/204 555/566/204
f 556/565/205 557/567/205 555/566/205
f 558/568/206 559/569/206 557/567/206
f 559/569/207 562/570/207 561/571/207
f 561/571/208 564/572/208 563/573/208
f 564/572/209 565/574/209 563/573/209
f 565/574/210 568/575/210 567/576/210
f 568/575/211 569/577/211 567/576/211
f 569/577/212 572/578/212 571/579/212
f 572/578/213 573/580/213 571/579/213
f 573/580/214 576/581/214 575/582/214
f 552/583/215 536/584/215 520/585/215
f 575/582/216 578/586/216 577/587/216
f 577/587/217 516/588/217 515/589/217
f 545/590/218 561/591/218 577/592/218
f 71/1/1 9/86/1 31/2/1
f 61/4/2 16/109/2 33/5/2
f 51/7/3 22/76/3 35/8/3
f 41/10/4 27/110/4 37/11/4
f 27/13/5 87/593/5 97/14/5
f 40/12/6 37/11/6 26/16/6
f 45/18/7 36/72/7 23/19/7
f 50/9/8 35/8/8 19/21/8
f 55/23/9 34/77/9 17/24/9
f 60/6/10 33/5/10 13/26/10
f 65/28/11 32/82/11 11/29/11
f 70/3/12 31/2/12 7/31/12
f 75/33/13 30/84/13 5/34/13
f 77/36/14 4/108/14 2/37/14
f 8/39/15 10/67/15 72/40/15
f 52/42/16 54/55/16 20/43/16
f 42/45/17 44/58/17 25/46/17
f 38/48/18 6/88/18 79/38/18
f 74/41/18 6/88/18 38/48/18
f 69/49/18 8/39/18 38/48/18
f 64/51/18 12/50/18 38/48/18
f 59/53/18 14/52/18 38/48/18
f 54/55/18 18/54/18 38/48/18
f 49/56/18 20/43/18 38/48/18
f 44/58/18 24/57/18 38/48/18
f 15/59/19 93/91/19 92/60/19
f 3/62/13 90/594/13 104/63/13
f 67/65/20 103/95/20 89/66/20
f 78/35/21 5/34/21 39/68/21
f 39/68/21 5/34/21 73/32/21
f 39/68/21 7/31/21 68/30/21
f 39/68/21 11/29/21 63/27/21
f 39/68/21 13/26/21 58/25/21
f 39/68/21 17/24/21 53/22/21
f 39/68/21 19/21/21 48/20/21
f 39/68/21 23/19/21 43/17/21
f 51/7/22 84/103/22 100/70/22
f 36/72/6 40/12/6 43/17/6
f 20/43/23 49/56/23 47/73/23
f 35/8/7 45/18/7 48/20/7
f 35/8/24 22/76/24 46/74/24
f 51/7/8 84/103/8 85/75/8
f 34/77/8 50/9/8 53/22/8
f 14/52/25 59/53/25 57/78/25
f 33/5/9 55/23/9 58/25/9
f 33/5/26 16/109/26 56/71/26
f 4/79/27 91/595/27 90/80/27
f 62/61/28 64/51/28 14/52/28
f 32/82/10 60/6/10 63/27/10
f 8/39/29 69/49/29 67/65/29
f 31/2/11 65/28/11 68/30/11
f 31/2/30 9/86/30 66/83/30
f 30/84/12 70/3/12 73/32/12
f 71/1/12 80/106/12 81/85/12
f 29/87/13 75/33/13 78/35/13
f 29/87/31 3/62/31 76/64/31
f 75/33/32 76/64/32 77/36/32
f 75/33/18 79/38/18 6/88/18
f 70/3/18 30/84/18 6/88/18
f 72/40/33 71/1/33 70/3/33
f 67/65/34 69/49/34 65/28/34
f 65/28/18 69/49/18 12/50/18
f 60/6/18 32/82/18 12/50/18
f 62/61/35 61/4/35 60/6/35
f 57/78/36 59/53/36 55/23/36
f 55/23/18 59/53/18 18/54/18
f 50/9/18 34/77/18 18/54/18
f 52/42/37 51/7/37 50/9/37
f 47/73/38 49/56/38 45/18/38
f 40/12/18 36/72/18 24/57/18
f 42/45/39 41/10/39 40/12/39
f 9/86/11 81/85/11 102/89/11
f 47/73/40 99/99/40 96/90/40
f 57/78/41 101/96/41 93/91/41
f 10/67/42 89/66/42 88/92/42
f 104/63/18 90/594/18 91/93/18
f 102/89/18 81/85/18 89/66/18
f 100/70/18 83/105/18 93/91/18
f 98/97/18 85/75/18 95/98/18
f 86/100/18 96/90/18 97/101/18
f 84/103/18 94/107/18 95/98/18
f 82/104/18 92/60/18 93/91/18
f 80/106/18 88/92/18 89/66/18
f 86/100/21 96/90/21 99/99/21
f 100/70/21 84/103/21 94/107/21
f 82/104/21 92/60/21 103/95/21
f 80/106/21 88/92/21 105/94/21
f 57/78/43 101/96/43 94/107/43
f 77/36/44 105/94/44 91/93/44
f 21/44/45 95/98/45 94/107/45
f 61/4/46 82/104/46 102/89/46
f 28/47/47 97/101/47 96/90/47
f 67/65/48 103/95/48 92/60/48
f 61/4/10 82/104/10 83/105/10
f 41/10/6 86/100/6 87/102/6
f 71/1/49 80/106/49 104/63/49
f 22/76/7 85/75/7 98/97/7
f 77/36/50 105/94/50 88/92/50
f 47/73/51 99/99/51 95/98/51
f 16/109/9 83/105/9 100/70/9
f 41/10/52 86/100/52 98/97/52
f 131/111/53 110/186/53 169/112/53
f 133/114/54 117/183/54 159/115/54
f 135/117/55 123/179/55 149/118/55
f 137/120/56 128/211/56 139/121/56
f 193/123/5 185/596/5 128/124/5
f 127/126/57 137/120/57 138/122/57
f 124/128/33 136/175/33 143/129/33
f 120/131/58 135/117/58 148/119/58
f 118/133/35 134/181/35 153/134/35
f 114/136/59 133/114/59 158/116/59
f 112/138/37 132/184/37 163/139/37
f 108/141/60 131/111/60 168/113/60
f 106/143/39 130/187/39 173/144/39
f 175/146/61 177/156/61 2/37/61
f 170/147/62 111/172/62 109/148/62
f 150/150/63 122/177/63 121/151/63
f 140/153/64 129/210/64 126/154/64
f 177/156/18 107/189/18 38/48/18
f 38/48/18 107/189/18 172/149/18
f 38/48/18 109/148/18 167/157/18
f 38/48/18 113/158/18 162/159/18
f 38/48/18 115/160/18 157/161/18
f 38/48/18 119/162/18 152/152/18
f 38/48/18 121/151/18 147/163/18
f 38/48/18 125/164/18 142/155/18
f 188/165/36 189/192/36 116/166/36
f 200/168/39 90/195/39 3/62/39
f 187/170/65 199/207/65 165/171/65
f 39/68/21 106/143/21 176/145/21
f 171/142/21 106/143/21 39/68/21
f 166/140/21 108/141/21 39/68/21
f 161/137/21 112/138/21 39/68/21
f 156/135/21 114/136/21 39/68/21
f 151/132/21 118/133/21 39/68/21
f 146/130/21 120/131/21 39/68/21
f 141/127/21 124/128/21 39/68/21
f 196/173/66 182/202/66 149/118/66
f 141/127/57 138/122/57 136/175/57
f 145/176/67 147/163/67 121/151/67
f 146/130/33 143/129/33 135/117/33
f 135/117/68 143/129/68 144/178/68
f 183/180/58 182/202/58 149/118/58
f 151/132/58 148/119/58 134/181/58
f 155/182/69 157/161/69 115/160/69
f 156/135/35 153/134/35 133/114/35
f 133/114/70 153/134/70 154/174/70
f 115/160/71 162/159/71 160/167/71
f 161/137/59 158/116/59 132/184/59
f 165/171/72 167/157/72 109/148/72
f 166/140/37 163/139/37 131/111/37
f 131/111/73 163/139/73 164/185/73
f 171/142/60 168/113/60 130/187/60
f 179/188/60 178/204/60 169/112/60
f 176/145/39 173/144/39 29/87/39
f 29/87/74 173/144/74 174/169/74
f 175/146/47 174/169/47 173/144/47
f 107/189/18 177/156/18 173/144/18
f 168/113/18 172/149/18 107/189/18
f 168/113/7 169/112/7 170/147/7
f 163/139/45 167/157/45 165/171/45
f 113/158/18 167/157/18 163/139/18
f 158/116/18 162/159/18 113/158/18
f 160/167/9 162/159/9 158/116/9
f 153/134/19 157/161/19 155/182/19
f 119/162/18 157/161/18 153/134/18
f 148/119/18 152/152/18 119/162/18
f 150/150/11 152/152/11 148/119/11
f 143/129/42 147/163/42 145/176/42
f 138/122/18 142/155/18 125/164/18
f 140/153/13 142/155/13 138/122/13
f 198/190/37 179/188/37 110/186/37
f 192/191/75 195/205/75 145/176/75
f 189/192/76 197/206/76 155/182/76
f 186/193/38 187/170/38 111/172/38
f 200/168/18 201/208/18 91/194/18
f 198/190/18 199/207/18 187/170/18
f 196/173/18 197/206/18 189/192/18
f 194/197/18 195/205/18 191/198/18
f 193/199/18 192/191/18 184/200/18
f 191/198/18 190/209/18 182/202/18
f 189/192/18 188/165/18 180/203/18
f 187/170/18 186/193/18 178/204/18
f 195/205/21 192/191/21 184/200/21
f 197/206/21 190/209/21 182/202/21
f 199/207/21 188/165/21 180/203/21
f 201/208/21 186/193/21 178/204/21
f 190/209/77 197/206/77 155/182/77
f 91/194/78 201/208/78 175/146/78
f 190/209/34 191/198/34 122/177/34
f 198/190/79 180/203/79 159/115/79
f 192/191/32 193/199/32 129/210/32
f 188/165/80 199/207/80 165/171/80
f 181/196/59 180/203/59 159/115/59
f 185/201/57 184/200/57 139/121/57
f 200/168/81 178/204/81 169/112/81
f 194/197/33 183/180/33 123/179/33
f 186/193/82 201/208/82 175/146/82
f 191/198/83 195/205/83 145/176/83
f 196/173/35 181/196/35 117/183/35
f 194/197/84 184/200/84 139/121/84
f 228/212/85 210/288/85 265/213/85
f 230/215/86 217/282/86 255/216/86
f 232/218/87 223/278/87 245/219/87
f 37/11/88 27/110/88 235/221/88
f 26/16/32 37/11/32 234/222/32
f 224/224/83 233/274/83 239/225/83
f 220/227/34 232/218/34 244/220/34
f 218/229/76 231/280/76 249/230/76
f 214/232/36 230/215/36 254/217/36
f 212/234/65 229/286/65 259/235/65
f 208/237/38 228/212/38 264/214/38
f 206/239/78 227/289/78 269/240/78
f 271/242/89 273/253/89 203/243/89
f 266/245/90 211/270/90 209/246/90
f 246/248/91 222/276/91 221/249/91
f 236/251/92 28/47/92 25/46/92
f 273/253/18 207/292/18 38/48/18
f 38/48/18 207/292/18 268/247/18
f 38/48/18 209/246/18 263/254/18
f 38/48/18 213/255/18 258/256/18
f 38/48/18 215/257/18 253/258/18
f 38/48/18 219/259/18 248/250/18
f 38/48/18 221/249/18 243/260/18
f 38/48/18 225/261/18 238/252/18
f 285/262/59 286/295/59 216/263/59
f 296/265/78 283/298/78 204/266/78
f 282/268/37 295/310/37 261/269/37
f 39/68/21 206/239/21 272/241/21
f 267/238/21 206/239/21 39/68/21
f 262/236/21 208/237/21 39/68/21
f 257/233/21 212/234/21 39/68/21
f 252/231/21 214/232/21 39/68/21
f 247/228/21 218/229/21 39/68/21
f 242/226/21 220/227/21 39/68/21
f 237/223/21 224/224/21 39/68/21
f 292/272/77 278/305/77 245/219/77
f 237/223/32 234/222/32 233/274/32
f 241/275/93 243/260/93 221/249/93
f 242/226/83 239/225/83 232/218/83
f 232/218/94 239/225/94 240/277/94
f 279/279/34 278/305/34 245/219/34
f 247/228/34 244/220/34 231/280/34
f 251/281/95 253/258/95 215/257/95
f 252/231/76 249/230/76 230/215/76
f 230/215/96 249/230/96 250/273/96
f 283/283/27 284/597/27 205/284/27
f 215/257/97 258/256/97 256/264/97
f 257/233/36 254/217/36 229/286/36
f 261/269/98 263/254/98 209/246/98
f 262/236/65 259/235/65 228/212/65
f 228/212/99 259/235/99 260/287/99
f 267/238/38 264/214/38 227/289/38
f 275/290/38 274/307/38 265/213/38
f 272/241/78 269/240/78 226/291/78
f 226/291/100 269/240/100 270/267/100
f 271/242/6 270/267/6 269/240/6
f 207/292/18 273/253/18 269/240/18
f 264/214/18 268/247/18 207/292/18
f 264/214/51 265/213/51 266/245/51
f 259/235/8 263/254/8 261/269/8
f 213/255/18 263/254/18 259/235/18
f 254/217/18 258/256/18 213/255/18
f 256/264/41 258/256/41 254/217/41
f 249/230/10 253/258/10 251/281/10
f 219/259/18 253/258/18 249/230/18
f 244/220/18 248/250/18 219/259/18
f 246/248/20 248/250/20 244/220/20
f 239/225/12 243/260/12 241/275/12
f 234/222/18 238/252/18 225/261/18
f 236/251/44 238/252/44 234/222/44
f 294/293/65 275/290/65 210/288/65
f 289/294/84 291/308/84 241/275/84
f 286/295/35 293/309/35 251/281/35
f 281/296/60 282/268/60 211/270/60
f 296/265/18 297/311/18 284/297/18
f 294/293/18 295/310/18 282/268/18
f 292/272/18 293/309/18 286/295/18
f 290/300/18 291/308/18 288/301/18
f 97/302/18 289/294/18 280/303/18
f 288/301/18 287/312/18 278/305/18
f 286/295/18 285/262/18 276/306/18
f 282/268/18 281/296/18 274/307/18
f 291/308/21 289/294/21 280/303/21
f 293/309/21 287/312/21 278/305/21
f 295/310/21 285/262/21 276/306/21
f 297/311/21 281/296/21 274/307/21
f 287/312/66 293/309/66 251/281/66
f 284/297/39 297/311/39 271/242/39
f 287/312/58 288/301/58 222/276/58
f 294/293/80 276/306/80 255/216/80
f 289/294/57 97/302/57 28/47/57
f 285/262/79 295/310/79 261/269/79
f 277/299/36 276/306/36 255/216/36
f 87/304/32 280/303/32 235/221/32
f 296/265/82 274/307/82 265/213/82
f 290/300/83 279/279/83 223/278/83
f 281/296/81 297/311/81 271/242/81
f 288/301/33 291/308/33 241/275/33
f 292/272/76 277/299/76 217/282/76
f 290/300/75 280/303/75 235/221/75
f 356/313/101 302/383/101 319/314/101
f 346/316/102 309/404/102 321/317/102
f 336/319/103 315/376/103 323/320/103
f 326/322/104 128/211/104 137/120/104
f 325/323/47 137/120/47 127/126/47
f 330/325/51 324/372/51 316/326/51
f 335/321/45 323/320/45 312/328/45
f 340/330/41 322/377/41 310/331/41
f 345/318/19 321/317/19 306/333/19
f 350/335/20 320/379/20 304/336/20
f 355/315/42 319/314/42 300/338/42
f 360/340/44 318/381/44 298/341/44
f 362/343/105 205/244/105 203/243/105
f 301/345/106 303/369/106 357/346/106
f 337/348/107 339/358/107 313/349/107
f 327/351/108 329/361/108 126/154/108
f 38/48/18 299/384/18 364/344/18
f 359/347/18 299/384/18 38/48/18
f 354/352/18 301/345/18 38/48/18
f 349/354/18 305/353/18 38/48/18
f 344/356/18 307/355/18 38/48/18
f 339/358/18 311/357/18 38/48/18
f 334/359/18 313/349/18 38/48/18
f 329/361/18 317/360/18 38/48/18
f 308/362/10 375/387/10 374/363/10
f 204/266/44 283/598/44 385/365/44
f 352/367/11 384/391/11 373/368/11
f 363/342/21 298/341/21 39/68/21
f 39/68/21 298/341/21 358/339/21
f 39/68/21 300/338/21 353/337/21
f 39/68/21 304/336/21 348/334/21
f 39/68/21 306/333/21 343/332/21
f 39/68/21 310/331/21 338/329/21
f 39/68/21 312/328/21 333/327/21
f 39/68/21 316/326/21 328/324/21
f 336/319/43 369/399/43 381/370/43
f 324/372/47 325/323/47 328/324/47
f 313/349/109 334/359/109 332/373/109
f 323/320/51 330/325/51 333/327/51
f 323/320/110 315/376/110 331/374/110
f 336/319/45 369/399/45 370/375/45
f 322/377/45 335/321/45 338/329/45
f 307/355/111 344/356/111 342/378/111
f 321/317/41 340/330/41 343/332/41
f 321/317/112 309/404/112 341/371/112
f 347/364/113 349/354/113 307/355/113
f 320/379/19 345/318/19 348/334/19
f 301/345/114 354/352/114 352/367/114
f 319/314/20 350/335/20 353/337/20
f 319/314/115 302/383/115 351/380/115
f 318/381/42 355/315/42 358/339/42
f 356/313/42 365/402/42 366/382/42
f 226/291/44 360/340/44 363/342/44
f 226/291/116 204/266/116 361/366/116
f 360/340/57 361/366/57 362/343/57
f 360/340/18 364/344/18 299/384/18
f 355/315/18 318/381/18 299/384/18
f 357/346/83 356/313/83 355/315/83
f 352/367/58 354/352/58 350/335/58
f 350/335/18 354/352/18 305/353/18
f 345/318/18 320/379/18 305/353/18
f 347/364/76 346/316/76 345/318/76
f 342/378/59 344/356/59 340/330/59
f 340/330/18 344/356/18 311/357/18
f 335/321/18 322/377/18 311/357/18
f 337/348/65 336/319/65 335/321/65
f 332/373/60 334/359/60 330/325/60
f 325/323/18 324/372/18 317/360/18
f 327/351/78 326/322/78 325/323/78
f 302/383/20 366/382/20 383/385/20
f 332/373/52 380/395/52 378/386/52
f 342/378/9 382/392/9 375/387/9
f 303/369/12 373/368/12 372/388/12
f 385/365/18 283/598/18 284/389/18
f 383/385/18 366/382/18 373/368/18
f 381/370/18 368/401/18 375/387/18
f 379/393/18 370/375/18 377/394/18
f 371/396/18 378/386/18 193/397/18
f 369/399/18 376/403/18 377/394/18
f 367/400/18 374/363/18 375/387/18
f 365/402/18 372/388/18 373/368/18
f 371/396/21 378/386/21 380/395/21
f 381/370/21 369/399/21 376/403/21
f 367/400/21 374/363/21 384/391/21
f 365/402/21 372/388/21 386/390/21
f 342/378/22 382/392/22 376/403/22
f 362/343/13 386/390/13 284/389/13
f 314/350/8 377/394/8 376/403/8
f 346/316/48 367/400/48 383/385/48
f 129/210/6 193/397/6 378/386/6
f 352/367/46 384/391/46 374/363/46
f 346/316/19 367/400/19 368/401/19
f 326/322/47 371/396/47 185/398/47
f 356/313/50 365/402/50 385/365/50
f 315/376/51 370/375/51 379/393/51
f 362/343/49 386/390/49 372/388/49
f 332/373/7 380/395/7 377/394/7
f 309/404/41 368/401/41 381/370/41
f 326/322/40 371/396/40 379/393/40
f 388/405/117 390/599/117 389/406/117
f 389/406/118 390/599/118 392/408/118
f 391/409/119 392/408/119 394/410/119
f 393/411/120 394/410/120 396/412/120
f 395/413/121 396/412/121 398/414/121
f 397/415/122 398/414/122 400/416/122
f 400/416/123 402/419/123 401/418/123
f 402/419/124 404/421/124 403/420/124
f 404/421/219 406/423/219 405/422/219
f 406/423/126 408/600/126 407/424/126
f 407/424/127 408/600/127 410/425/127
f 409/426/128 410/425/128 412/427/128
f 412/427/129 414/601/129 413/429/129
f 413/429/130 414/601/130 416/430/130
f 416/430/131 418/602/131 417/432/131
f 417/432/132 418/602/132 420/433/132
f 420/433/133 422/603/133 421/435/133
f 421/435/134 422/603/134 424/436/134
f 424/436/135 426/604/135 425/438/135
f 425/438/136 426/604/136 428/439/136
f 427/440/137 428/439/137 430/441/137
f 430/441/138 432/605/138 431/443/138
f 431/443/139 432/605/139 434/444/139
f 434/444/140 436/606/140 435/446/140
f 435/446/220 436/606/220 438/447/220
f 437/448/142 438/447/142 440/449/142
f 440/449/143 442/607/143 441/451/143
f 441/451/144 442/607/144 444/452/144
f 444/452/145 446/608/145 445/454/145
f 445/454/146 446/608/146 448/455/146
f 392/459/147 390/609/147 388/610/147
f 388/610/147 450/611/147 448/612/147
f 448/612/221 446/613/221 444/614/221
f 444/614/221 442/615/221 440/616/221
f 440/616/147 438/617/147 436/618/147
f 436/618/147 434/619/147 432/620/147
f 432/620/147 430/621/147 428/622/147
f 428/622/147 426/623/147 424/457/147
f 424/457/147 422/624/147 420/625/147
f 420/625/147 418/626/147 416/627/147
f 416/627/147 414/628/147 412/629/147
f 412/629/221 410/630/221 408/458/221
f 408/458/147 406/631/147 404/632/147
f 404/632/147 402/633/147 400/634/147
f 400/634/147 398/635/147 396/636/147
f 396/636/147 394/637/147 392/459/147
f 392/459/147 388/610/147 448/612/147
f 448/612/147 444/614/147 440/616/147
f 440/616/147 436/618/147 432/620/147
f 432/620/147 428/622/147 424/457/147
f 424/457/147 420/625/147 416/627/147
f 416/627/147 412/629/147 408/458/147
f 408/458/147 404/632/147 400/634/147
f 400/634/147 396/636/147 392/459/147
f 392/459/147 448/612/147 440/616/147
f 440/616/147 432/620/147 424/457/147
f 424/457/147 416/627/147 408/458/147
f 408/458/147 400/634/147 392/459/147
f 392/459/147 440/616/147 424/457/147
f 448/455/148 450/638/148 449/460/148
f 449/460/149 450/638/149 388/461/149
f 449/465/222 387/639/222 389/640/222
f 389/640/150 391/641/150 393/642/150
f 393/642/222 395/643/222 397/644/222
f 397/644/150 399/645/150 401/646/150
f 401/646/223 403/647/223 405/648/223
f 405/648/222 407/649/222 409/650/222
f 409/650/222 411/651/222 413/652/222
f 413/652/150 415/653/150 417/463/150
f 417/463/223 419/654/223 421/655/223
f 421/655/150 423/656/150 425/657/150
f 425/657/150 427/658/150 429/659/150
f 429/659/150 431/660/150 433/464/150
f 433/464/223 435/661/223 437/662/223
f 437/662/223 439/663/223 441/664/223
f 441/664/222 443/665/222 445/666/222
f 445/666/223 447/667/223 449/465/223
f 449/465/150 389/640/150 393/642/150
f 393/642/150 397/644/150 401/646/150
f 401/646/150 405/648/150 409/650/150
f 409/650/150 413/652/150 417/463/150
f 417/463/150 421/655/150 425/657/150
f 425/657/150 429/659/150 433/464/150
f 433/464/150 437/662/150 441/664/150
f 441/664/150 445/666/150 449/465/150
f 449/465/150 393/642/150 401/646/150
f 401/646/150 409/650/150 417/463/150
f 417/463/150 425/657/150 433/464/150
f 433/464/150 441/664/150 449/465/150
f 449/465/150 401/646/150 417/463/150
f 452/466/151 454/469/151 453/467/151
f 454/469/152 456/668/152 455/470/152
f 455/470/153 456/668/153 458/471/153
f 458/471/224 460/669/224 459/473/224
f 459/473/155 460/669/155 462/474/155
f 462/474/156 464/477/156 463/476/156
f 464/477/157 466/479/157 465/478/157
f 466/479/158 468/481/158 467/480/158
f 468/481/159 470/483/159 469/482/159
f 470/483/225 472/485/225 471/484/225
f 472/485/226 474/487/226 473/486/226
f 474/487/162 476/489/162 475/488/162
f 476/489/163 478/491/163 477/490/163
f 478/491/164 480/493/164 479/492/164
f 480/493/227 482/670/227 481/494/227
f 481/494/166 482/670/166 484/495/166
f 484/495/167 486/498/167 485/497/167
f 486/498/168 488/671/168 487/499/168
f 487/499/169 488/671/169 490/500/169
f 490/500/170 492/672/170 491/502/170
f 491/502/171 492/672/171 494/503/171
f 493/504/172 494/503/172 496/505/172
f 496/505/173 498/508/173 497/507/173
f 498/508/174 500/673/174 499/509/174
f 499/509/175 500/673/175 502/510/175
f 502/510/176 504/513/176 503/512/176
f 504/513/177 506/515/177 505/514/177
f 506/515/178 508/674/178 507/516/178
f 507/516/228 508/674/228 510/517/228
f 510/517/180 512/523/180 511/519/180
f 456/522/229 454/675/229 452/676/229
f 452/676/229 514/677/229 512/678/229
f 512/678/181 510/679/181 508/680/181
f 508/680/230 506/681/230 504/682/230
f 504/682/181 502/683/181 500/684/181
f 500/684/181 498/685/181 496/686/181
f 496/686/181 494/687/181 492/688/181
f 492/688/181 490/689/181 488/520/181
f 488/520/229 486/690/229 484/691/229
f 484/691/181 482/692/181 480/693/181
f 480/693/230 478/694/230 476/695/230
f 476/695/181 474/696/181 472/521/181
f 472/521/181 470/697/181 468/698/181
f 468/698/229 466/699/229 464/700/229
f 464/700/181 462/701/181 460/702/181
f 460/702/229 458/703/229 456/522/229
f 456/522/181 452/676/181 512/678/181
f 512/678/181 508/680/181 504/682/181
f 504/682/181 500/684/181 496/686/181
f 496/686/229 492/688/229 488/520/229
f 488/520/181 484/691/181 480/693/181
f 480/693/181 476/695/181 472/521/181
f 472/521/181 468/698/181 464/700/181
f 464/700/181 460/702/181 456/522/181
f 456/522/181 512/678/181 504/682/181
f 504/682/181 496/686/181 488/520/181
f 488/520/181 480/693/181 472/521/181
f 472/521/181 464/700/181 456/522/181
f 456/522/181 504/682/181 488/520/181
f 512/523/182 514/525/182 513/524/182
f 514/525/231 452/704/231 451/526/231
f 513/529/232 451/705/232 453/706/232
f 453/706/233 455/707/233 457/708/233
f 457/708/233 459/709/233 461/710/233
f 461/710/234 463/711/234 465/712/234
f 465/712/184 467/713/184 469/714/184
f 469/714/235 471/715/235 473/716/235
f 473/716/184 475/717/184 477/718/184
f 477/718/236 479/719/236 481/527/236
f 481/527/237 483/720/237 485/721/237
f 485/721/184 487/722/184 489/723/184
f 489/723/184 491/724/184 493/725/184
f 493/725/238 495/726/238 497/528/238
f 497/528/234 499/727/234 501/728/234
f 501/728/239 503/729/239 505/730/239
f 505/730/184 507/731/184 509/732/184
f 509/732/184 511/733/184 513/529/184
f 513/529/184 453/706/184 457/708/184
f 457/708/184 461/710/184 465/712/184
f 465/712/184 469/714/184 473/716/184
f 473/716/184 477/718/184 481/527/184
f 481/527/235 485/721/235 489/723/235
f 489/723/235 493/725/235 497/528/235
f 497/528/184 501/728/184 505/730/184
f 505/730/184 509/732/184 513/529/184
f 513/529/184 457/708/184 465/712/184
f 465/712/184 473/716/184 481/527/184
f 481/527/184 489/723/184 497/528/184
f 497/528/184 505/730/184 513/529/184
f 513/529/184 465/712/184 481/527/184
f 515/530/185 516/734/185 518/531/185
f 518/531/186 520/534/186 519/533/186
f 520/534/187 522/536/187 521/535/187
f 522/536/188 524/735/188 523/537/188
f 523/537/189 524/735/189 526/538/189
f 526/538/190 528/736/190 527/540/190
f 527/540/191 528/736/191 530/541/191
f 530/541/192 532/737/192 531/543/192
f 531/543/193 532/737/193 534/544/193
f 533/545/194 534/544/194 536/546/194
f 535/547/195 536/546/195 538/548/195
f 537/549/196 538/548/196 540/550/196
f 539/551/240 540/550/240 542/552/240
f 541/553/198 542/552/198 544/554/198
f 543/555/199 544/554/199 546/556/199
f 545/557/200 546/556/200 548/558/200
f 547/559/201 548/558/201 550/560/201
f 550/560/202 552/563/202 551/562/202
f 552/563/203 554/738/203 553/564/203
f 553/564/204 554/738/204 556/565/204
f 556/565/205 558/568/205 557/567/205
f 558/568/206 560/739/206 559/569/206
f 559/569/207 560/739/207 562/570/207
f 561/571/208 562/570/208 564/572/208
f 564/572/209 566/740/209 565/574/209
f 565/574/210 566/740/210 568/575/210
f 568/575/211 570/741/211 569/577/211
f 569/577/212 570/741/212 572/578/212
f 572/578/213 574/742/213 573/580/213
f 573/580/214 574/742/214 576/581/214
f 520/585/215 518/743/215 516/744/215
f 516/744/241 578/745/241 576/746/241
f 576/746/241 574/747/241 572/748/241
f 572/748/215 570/749/215 568/750/215
f 568/750/215 566/751/215 564/752/215
f 564/752/242 562/753/242 560/754/242
f 560/754/215 558/755/215 556/756/215
f 556/756/215 554/757/215 552/583/215
f 552/583/243 550/758/243 548/759/243
f 548/759/215 546/760/215 544/761/215
f 544/761/215 542/762/215 540/763/215
f 540/763/215 538/764/215 536/584/215
f 536/584/215 534/765/215 532/766/215
f 532/766/242 530/767/242 528/768/242
f 528/768/215 526/769/215 524/770/215
f 524/770/215 522/771/215 520/585/215
f 520/585/215 516/744/215 576/746/215
f 576/746/215 572/748/215 568/750/215
f 568/750/215 564/752/215 560/754/215
f 560/754/215 556/756/215 552/583/215
f 552/583/215 548/759/215 544/761/215
f 544/761/215 540/763/215 536/584/215
f 536/584/215 532/766/215 528/768/215
f 528/768/215 524/770/215 520/585/215
f 520/585/215 576/746/215 568/750/215
f 568/750/215 560/754/215 552/583/215
f 552/583/215 544/761/215 536/584/215
f 536/584/215 528/768/215 520/585/215
f 520/585/215 568/750/215 552/583/215
f 575/582/216 576/581/216 578/586/216
f 577/587/217 578/586/217 516/588/217
f 577/592/218 515/772/218 517/773/218
f 517/773/218 519/774/218 521/775/218
f 521/775/244 523/776/244 525/777/244
f 525/777/218 527/778/218 529/779/218
f 529/779/245 531/780/245 533/781/245
f 533/781/218 535/782/218 537/783/218
f 537/783/246 539/784/246 541/785/246
f 541/785/218 543/786/218 545/590/218
f 545/590/218 547/787/218 549/788/218
f 549/788/218 551/789/218 553/790/218
f 553/790/247 555/791/247 557/792/247
f 557/792/248 559/793/248 561/591/248
f 561/591/218 563/794/218 565/795/218
f 565/795/218 567/796/218 569/797/218
f 569/797/249 571/798/249 573/799/249
f 573/799/249 575/800/249 577/592/249
f 577/592/218 517/773/218 521/775/218
f 521/775/218 525/777/218 529/779/218
f 529/779/218 533/781/218 537/783/218
f 537/783/218 541/785/218 545/590/218
f 545/590/218 549/788/218 553/790/218
f 553/790/218 557/792/218 561/591/218
f 561/591/218 565/795/218 569/797/218
f 569/797/218 573/799/218 577/592/218
f 577/592/218 521/775/218 529/779/218
f 529/779/218 537/783/218 545/590/218
f 545/590/218 553/790/218 561/591/218
f 561/591/218 569/797/218 577/592/218
f 577/592/218 529/779/218 545/590/218
