# Y up, meters; preview-only model
mtllib nature.mtl
o grass_clump
v 0.100000 0.018000 0.063930
v 0.118000 0.018000 0.000000
v 0.100000 0.018000 -0.063930
v 0.082000 0.018000 0.000000
v 0.109070 0.166182 0.123319
v 0.125398 0.166182 0.000000
v 0.109070 0.166182 -0.123319
v 0.092741 0.166182 0.000000
v 0.136279 0.314365 0.164376
v 0.150936 0.314365 0.000000
v 0.136279 0.314365 -0.164376
v 0.121622 0.314365 0.000000
v 0.181628 0.462547 0.180165
v 0.194614 0.462547 0.000000
v 0.181628 0.462547 -0.180165
v 0.168643 0.462547 0.000000
v 0.245117 0.610729 0.169567
v 0.256431 0.610729 0.000000
v 0.245117 0.610729 -0.169567
v 0.233803 0.610729 0.000000
v 0.326746 0.758911 0.136980
v 0.336388 0.758911 0.000000
v 0.326746 0.758911 -0.136980
v 0.317103 0.758911 0.000000
v 0.426514 0.907094 0.090866
v 0.434485 0.907094 0.000000
v 0.426514 0.907094 -0.090866
v 0.418542 0.907094 0.000000
v 0.544421 1.055276 0.000000
v -0.176573 0.018000 0.103333
v -0.160746 0.018000 0.147257
v -0.118373 0.018000 0.166864
v -0.134201 0.018000 0.122940
v -0.212325 0.151348 0.081811
v -0.168232 0.151348 0.154115
v -0.100059 0.151348 0.204360
v -0.144152 0.151348 0.132056
v -0.257169 0.284695 0.085372
v -0.193156 0.284695 0.176948
v -0.107527 0.284695 0.248721
v -0.171540 0.284695 0.157146
v -0.307949 0.418043 0.117462
v -0.235516 0.418043 0.215754
v -0.143933 0.418043 0.296502
v -0.216366 0.418043 0.198210
v -0.364156 0.551391 0.178638
v -0.295315 0.551391 0.270534
v -0.209788 0.551391 0.347145
v -0.278629 0.551391 0.255249
v -0.427790 0.684738 0.266713
v -0.372550 0.684738 0.341288
v -0.303089 0.684738 0.402837
v -0.358329 0.684738 0.328261
v -0.502706 0.818086 0.377483
v -0.467223 0.818086 0.428017
v -0.419984 0.818086 0.467782
v -0.455467 0.818086 0.417248
v -0.574687 0.951434 0.526464
v 0.066380 0.018000 -0.295328
v 0.027799 0.018000 -0.316783
v -0.013929 0.018000 -0.302375
v 0.024652 0.018000 -0.280920
v 0.104261 0.148310 -0.298654
v 0.028232 0.148310 -0.321717
v -0.050651 0.148310 -0.312249
v 0.025378 0.148310 -0.289185
v 0.131786 0.278619 -0.316191
v 0.029824 0.278619 -0.339852
v -0.074701 0.278619 -0.334311
v 0.027261 0.278619 -0.310650
v 0.144599 0.408929 -0.348321
v 0.032574 0.408929 -0.371187
v -0.081722 0.408929 -0.368181
v 0.030303 0.408929 -0.345315
v 0.141997 0.539239 -0.395104
v 0.036482 0.539239 -0.415722
v -0.071011 0.539239 -0.413797
v 0.034504 0.539239 -0.393180
v 0.126742 0.669548 -0.456300
v 0.041548 0.669548 -0.473456
v -0.045331 0.669548 -0.471400
v 0.039862 0.669548 -0.454244
v 0.104149 0.799858 -0.531441
v 0.047773 0.799858 -0.544390
v -0.009997 0.799858 -0.541458
v 0.046379 0.799858 -0.528509
v 0.054606 0.930168 -0.622249
v 0.207944 0.018000 0.344606
v 0.254331 0.018000 0.331723
v 0.278814 0.018000 0.290270
v 0.232427 0.018000 0.303153
v 0.179602 0.120837 0.375812
v 0.257890 0.120837 0.336365
v 0.316307 0.120837 0.271001
v 0.238020 0.120837 0.310448
v 0.170574 0.223674 0.411165
v 0.270601 0.223674 0.352944
v 0.352792 0.223674 0.271459
v 0.252765 0.223674 0.329680
v 0.184703 0.326511 0.447718
v 0.292464 0.326511 0.381460
v 0.384424 0.326511 0.294592
v 0.276662 0.326511 0.360850
v 0.222609 0.429349 0.484994
v 0.323480 0.429349 0.421914
v 0.410582 0.429349 0.340876
v 0.309712 0.429349 0.403956
v 0.281856 0.532186 0.524863
v 0.363648 0.532186 0.474304
v 0.433705 0.532186 0.408441
v 0.351913 0.532186 0.458999
v 0.357752 0.635023 0.570921
v 0.412968 0.635023 0.538632
v 0.458482 0.635023 0.493692
v 0.403267 0.635023 0.525980
v 0.467606 0.737860 0.609897
v -0.090691 0.018000 -0.061409
v -0.116196 0.018000 -0.020552
v -0.106253 0.018000 0.026575
v -0.080747 0.018000 -0.014282
v -0.092492 0.153281 -0.103873
v -0.123580 0.153281 -0.021858
v -0.122511 0.153281 0.065844
v -0.091422 0.153281 -0.016170
v -0.114585 0.288561 -0.136916
v -0.149024 0.288561 -0.026358
v -0.154597 0.288561 0.089305
v -0.120158 0.288561 -0.021253
v -0.157813 0.423842 -0.155767
v -0.192528 0.423842 -0.034053
v -0.201669 0.423842 0.092184
v -0.166954 0.423842 -0.029530
v -0.222312 0.559123 -0.159654
v -0.254092 0.559123 -0.044942
v -0.263588 0.559123 0.073712
v -0.231809 0.559123 -0.041001
v -0.307548 0.694403 -0.151605
v -0.333715 0.694403 -0.059025
v -0.340891 0.694403 0.036913
v -0.314724 0.694403 -0.055666
v -0.412489 0.829684 -0.137442
v -0.431398 0.829684 -0.076303
v -0.434608 0.829684 -0.012387
v -0.415699 0.829684 -0.073526
v -0.540938 0.964965 -0.095677
v 0.199799 0.018000 -0.058540
v 0.183937 0.018000 -0.117010
v 0.137700 0.018000 -0.156157
v 0.153562 0.018000 -0.097687
v 0.235447 0.158693 -0.017528
v 0.189332 0.158693 -0.120442
v 0.115662 0.158693 -0.205827
v 0.161777 0.158693 -0.102913
v 0.275802 0.299386 0.000831
v 0.208337 0.299386 -0.132531
v 0.116137 0.299386 -0.250160
v 0.183603 0.299386 -0.116797
v 0.317496 0.440079 -0.008760
v 0.240952 0.440079 -0.153279
v 0.142494 0.440079 -0.283859
v 0.219039 0.440079 -0.139339
v 0.359985 0.580772 -0.047154
v 0.287177 0.580772 -0.182685
v 0.195277 0.580772 -0.306071
v 0.268084 0.580772 -0.170539
v 0.405404 0.721465 -0.110994
v 0.347013 0.721465 -0.220749
v 0.272349 0.721465 -0.320153
v 0.330741 0.721465 -0.210398
v 0.457864 0.862158 -0.193819
v 0.420459 0.862158 -0.267471
v 0.369602 0.862158 -0.332566
v 0.407007 0.862158 -0.258914
v 0.502199 1.002851 -0.319469
v -0.120783 0.018000 0.278182
v -0.082548 0.018000 0.307099
v -0.034968 0.018000 0.301250
v -0.073203 0.018000 0.272333
v -0.162387 0.141129 0.273958
v -0.083859 0.141129 0.311974
v 0.003146 0.141129 0.318453
v -0.075381 0.141129 0.280437
v -0.195176 0.264257 0.286020
v -0.088658 0.264257 0.329829
v 0.025469 0.264257 0.345329
v -0.081049 0.264257 0.301520
v -0.214495 0.387386 0.315620
v -0.096946 0.387386 0.360663
v 0.027344 0.387386 0.380626
v -0.090204 0.387386 0.335582
v -0.219593 0.510515 0.362959
v -0.108723 0.510515 0.404477
v 0.008020 0.510515 0.424141
v -0.102849 0.510515 0.382624
v -0.213421 0.633644 0.427245
v -0.123989 0.633644 0.461269
v -0.029551 0.633644 0.476669
v -0.118983 0.633644 0.442644
v -0.201660 0.756772 0.506950
v -0.142744 0.756772 0.531041
v -0.079689 0.756772 0.539736
v -0.138605 0.756772 0.515645
v -0.163352 0.879901 0.607708
v -0.136079 0.018000 -0.380058
v -0.192668 0.018000 -0.370949
v -0.232663 0.018000 -0.329893
v -0.176074 0.018000 -0.339001
v -0.095720 0.179257 -0.412028
v -0.196400 0.179257 -0.378135
v -0.282027 0.179257 -0.315262
v -0.181347 0.179257 -0.349154
v -0.078215 0.340514 -0.454145
v -0.209138 0.340514 -0.402661
v -0.326550 0.340514 -0.325162
v -0.195626 0.340514 -0.376646
v -0.088802 0.501770 -0.503687
v -0.230882 0.501770 -0.444525
v -0.360991 0.501770 -0.362315
v -0.218911 0.501770 -0.421477
v -0.128328 0.663027 -0.560215
v -0.261632 0.663027 -0.503728
v -0.384505 0.663027 -0.427159
v -0.251201 0.663027 -0.483646
v -0.193469 0.824284 -0.625456
v -0.301387 0.824284 -0.580270
v -0.400415 0.824284 -0.517970
v -0.292498 0.824284 -0.563155
v -0.277834 0.985541 -0.702728
v -0.350148 0.985541 -0.674151
v -0.415113 0.985541 -0.631426
v -0.342799 0.985541 -0.660003
v -0.405011 1.146798 -0.779781
v 0.078906 0.018000 0.075451
v 0.110841 0.018000 0.040476
v 0.108960 0.018000 -0.006849
v 0.077025 0.018000 0.028127
v 0.073437 0.155123 0.116778
v 0.117761 0.155123 0.043003
v 0.131409 0.155123 -0.041975
v 0.087085 0.155123 0.031801
v 0.089257 0.292247 0.152506
v 0.141661 0.292247 0.051730
v 0.166529 0.292247 -0.059101
v 0.114125 0.292247 0.041675
v 0.127996 0.429370 0.178171
v 0.182541 0.429370 0.066658
v 0.212691 0.429370 -0.053762
v 0.158146 0.429370 0.057750
v 0.189918 0.566494 0.193051
v 0.240402 0.566494 0.087787
v 0.269630 0.566494 -0.025239
v 0.219146 0.566494 0.080025
v 0.273987 0.703617 0.199979
v 0.315242 0.703617 0.115117
v 0.338381 0.703617 0.023639
v 0.297126 0.703617 0.108501
v 0.378217 0.840741 0.204400
v 0.407063 0.840741 0.148647
v 0.420933 0.840741 0.087425
v 0.392087 0.840741 0.143178
v 0.509945 0.977864 0.186216
v -0.208138 0.018000 0.019944
v -0.201505 0.018000 0.083185
v -0.161595 0.018000 0.132689
v -0.168229 0.018000 0.069448
v -0.239163 0.164504 -0.028539
v -0.209367 0.164504 0.086431
v -0.149384 0.164504 0.188939
v -0.179181 0.164504 0.073969
v -0.282329 0.311008 -0.053092
v -0.236042 0.311008 0.097443
v -0.162659 0.311008 0.236792
v -0.208946 0.311008 0.086257
v -0.335110 0.457513 -0.047598
v -0.281531 0.457513 0.116222
v -0.203946 0.457513 0.270131
v -0.257525 0.457513 0.106311
v -0.397100 0.604017 -0.011070
v -0.345834 0.604017 0.142767
v -0.273651 0.604017 0.287969
v -0.324917 0.604017 0.134132
v -0.469899 0.750521 0.052614
v -0.428950 0.750521 0.177079
v -0.370174 0.750521 0.294185
v -0.411123 0.750521 0.169720
v -0.556588 0.897025 0.135992
v -0.530880 0.897025 0.219157
v -0.490435 0.897025 0.296239
v -0.516143 0.897025 0.213074
v -0.645800 1.043529 0.266599
v 0.171415 0.018000 -0.251010
v 0.134774 0.018000 -0.288028
v 0.082875 0.018000 -0.292439
v 0.119516 0.018000 -0.255421
v 0.215001 0.146682 -0.237027
v 0.136527 0.146682 -0.291775
v 0.044212 0.146682 -0.316943
v 0.122686 0.146682 -0.262195
v 0.250817 0.275365 -0.239506
v 0.143203 0.275365 -0.306042
v 0.023166 0.275365 -0.346028
v 0.130779 0.275365 -0.279491
v 0.274058 0.404047 -0.260692
v 0.154802 0.404047 -0.330831
v 0.024540 0.404047 -0.377447
v 0.143795 0.404047 -0.307308
v 0.283949 0.532729 -0.300950
v 0.171325 0.532729 -0.366141
v 0.049109 0.532729 -0.410837
v 0.161734 0.532729 -0.345646
v 0.283538 0.661411 -0.358854
v 0.192770 0.661411 -0.411973
v 0.093828 0.661411 -0.447623
v 0.184596 0.661411 -0.394505
v 0.278682 0.790094 -0.431662
v 0.219138 0.790094 -0.468325
v 0.152837 0.790094 -0.490547
v 0.212381 0.790094 -0.453885
v 0.247759 0.918776 -0.529492
v 0.074706 0.018000 0.395784
v 0.125115 0.018000 0.398836
v 0.164748 0.018000 0.367538
v 0.114339 0.018000 0.364487
v 0.035750 0.150731 0.418038
v 0.127480 0.150731 0.406376
v 0.209435 0.150731 0.363553
v 0.117705 0.150731 0.375216
v 0.015434 0.283462 0.454512
v 0.135576 0.283462 0.432185
v 0.246945 0.283462 0.381887
v 0.126802 0.283462 0.404215
v 0.018642 0.416194 0.503673
v 0.149404 0.416194 0.476263
v 0.272391 0.416194 0.424072
v 0.141630 0.416194 0.451482
v 0.046164 0.548925 0.565274
v 0.168962 0.548925 0.538610
v 0.284987 0.548925 0.490355
v 0.162189 0.548925 0.517019
v 0.094902 0.681656 0.640286
v 0.194251 0.681656 0.619227
v 0.287828 0.681656 0.579765
v 0.188479 0.681656 0.600825
v 0.158896 0.814387 0.730580
v 0.225272 0.814387 0.718112
v 0.286875 0.814387 0.690433
v 0.220500 0.814387 0.702900
v 0.260137 0.947118 0.829256
v -0.055616 0.018000 -0.103474
v -0.102097 0.018000 -0.059162
v -0.117430 0.018000 0.003200
v -0.070949 0.018000 -0.041113
v -0.034280 0.140062 -0.157296
v -0.108027 0.140062 -0.062598
v -0.153517 0.140062 0.048473
v -0.079771 0.140062 -0.046225
v -0.036558 0.262124 -0.204371
v -0.128707 0.262124 -0.074582
v -0.195493 0.262124 0.069905
v -0.103344 0.262124 -0.059884
v -0.065803 0.384187 -0.238914
v -0.164139 0.384187 -0.095113
v -0.240004 0.384187 0.061708
v -0.141668 0.384187 -0.082092
v -0.122555 0.506249 -0.259989
v -0.214322 0.506249 -0.124193
v -0.286509 0.506249 0.022949
v -0.194743 0.506249 -0.112847
v -0.204690 0.628311 -0.271267
v -0.279256 0.628311 -0.161820
v -0.337135 0.628311 -0.042703
v -0.262569 0.628311 -0.152151
v -0.308114 0.750373 -0.279808
v -0.358941 0.750373 -0.207995
v -0.395973 0.750373 -0.128189
v -0.345146 0.750373 -0.200002
v -0.447926 0.872436 -0.259559
vt 0.5 0.5
vn 0.000000 -1.000000 0.000000
vn 0.000000 -1.000000 -0.000000
vn 0.961464 -0.048004 0.270706
vn 0.985047 -0.112565 0.130430
vn 0.949343 -0.165232 -0.267293
vn 0.990135 -0.049435 -0.131103
vn -0.960240 0.069605 -0.270361
vn -0.991315 0.008070 -0.131260
vn -0.961387 -0.049641 0.270684
vn -0.988798 0.071675 0.130926
vn 0.977188 -0.168411 0.129389
vn 0.975273 -0.203176 0.086964
vn 0.968518 -0.213373 -0.128241
vn 0.981689 -0.169186 -0.087536
vn -0.973345 0.189706 -0.128880
vn -0.983800 0.156341 -0.087724
vn -0.980995 0.144142 0.129893
vn -0.977793 0.190573 0.087188
vn 0.955710 -0.281702 0.085219
vn 0.951901 -0.298626 0.068610
vn 0.950222 -0.299830 -0.084730
vn 0.956915 -0.282057 -0.068971
vn -0.949740 0.301367 -0.084687
vn -0.955981 0.285223 -0.068904
vn -0.955251 0.283266 0.085178
vn -0.950923 0.301743 0.068540
vn 0.920876 -0.384163 0.066374
vn 0.919036 -0.389375 0.061322
vn 0.918873 -0.388955 -0.066230
vn 0.921167 -0.384284 -0.061465
vn -0.913420 0.401658 -0.065836
vn -0.915878 0.396779 -0.061112
vn -0.915465 0.396951 0.065984
vn -0.913703 0.401783 0.060967
vn 0.878545 -0.474050 0.058621
vn 0.879908 -0.471089 0.061942
vn 0.879785 -0.471733 -0.058703
vn 0.878374 -0.473958 -0.061834
vn -0.870237 0.489199 -0.058066
vn -0.868514 0.491879 -0.061140
vn -0.868979 0.491441 0.057982
vn -0.870071 0.489106 0.061250
vn 0.832409 -0.551055 0.058598
vn 0.837712 -0.541145 0.073490
vn 0.836464 -0.544849 -0.058884
vn 0.831620 -0.550532 -0.072955
vn -0.823785 0.563929 -0.057991
vn -0.816903 0.572305 -0.071664
vn -0.819716 0.569855 0.057705
vn -0.823020 0.563405 0.072201
vn 0.801126 -0.594355 0.070280
vn 0.801126 -0.594355 -0.070280
vn -0.760434 0.645980 -0.066711
vn -0.760434 0.645980 0.066711
vn 0.000000 -1.000000 0.000000
vn 0.000000 -1.000000 0.000000
vn -0.938474 -0.070078 0.338164
vn -0.844951 -0.143374 0.515268
vn -0.411983 -0.193774 0.890349
vn -0.591641 -0.074500 0.802752
vn 0.936712 0.092977 -0.337529
vn 0.853410 0.029131 -0.520426
vn 0.419702 -0.033866 -0.907030
vn 0.590386 0.098820 -0.801049
vn -0.828529 -0.241368 0.505253
vn -0.786979 -0.279349 0.550117
vn -0.568108 -0.288247 0.770822
vn -0.623012 -0.243710 0.743277
vn 0.823564 0.263649 -0.502226
vn 0.797606 0.230148 -0.557546
vn 0.579309 0.215809 -0.786020
vn 0.619207 0.266177 -0.738737
vn -0.753740 -0.392773 0.526883
vn -0.734307 -0.409852 0.541123
vn -0.585804 -0.410356 0.698886
vn -0.607912 -0.393767 0.689485
vn 0.746872 0.411841 -0.522082
vn 0.738921 0.396850 -0.544524
vn 0.590338 0.394295 -0.704295
vn 0.602345 0.412864 -0.683171
vn -0.688869 -0.517457 0.507639
vn -0.682524 -0.522248 0.511290
vn -0.564219 -0.521678 0.639929
vn -0.570820 -0.517764 0.637248
vn 0.681238 0.532818 -0.502016
vn 0.679311 0.528748 -0.508883
vn 0.561354 0.528698 -0.636679
vn 0.564489 0.533127 -0.630181
vn -0.630556 -0.615854 0.472359
vn -0.634653 -0.613364 0.470107
vn -0.526631 -0.614014 0.587918
vn -0.522610 -0.615644 0.589797
vn 0.622942 0.627835 -0.466655
vn 0.624166 0.629810 -0.462339
vn 0.518374 0.629600 -0.578699
vn 0.516303 0.627626 -0.582680
vn -0.580365 -0.691641 0.429894
vn -0.597163 -0.683798 0.419304
vn -0.481801 -0.687177 0.543742
vn -0.465779 -0.690567 0.553324
vn 0.573178 0.700861 -0.424570
vn 0.579479 0.706150 -0.406886
vn 0.470282 0.705087 -0.530742
vn 0.460029 0.699799 -0.546493
vn -0.554977 -0.734947 0.389683
vn -0.436707 -0.734947 0.518787
vn 0.523322 0.768837 -0.367455
vn 0.411797 0.768837 -0.489196
vn 0.000000 -1.000000 0.000000
vn -0.000000 -1.000000 0.000000
vn 0.485714 -0.034692 -0.873429
vn 0.288584 -0.108176 -0.951324
vn -0.322081 -0.161445 -0.932845
vn -0.119099 -0.037179 -0.992186
vn -0.485188 0.058038 0.872482
vn -0.290275 -0.009299 0.956898
vn 0.325549 -0.070566 0.942888
vn 0.118950 0.062190 0.990951
vn 0.287612 -0.135459 -0.948119
vn 0.222521 -0.176050 -0.958901
vn -0.117084 -0.186756 -0.975404
vn -0.052436 -0.137021 -0.989179
vn -0.286560 0.159747 0.944650
vn -0.224355 0.122283 0.966805
vn 0.118487 0.107812 0.987085
vn 0.052240 0.161575 0.985477
vn 0.219859 -0.232462 -0.947430
vn 0.193500 -0.252763 -0.947981
vn -0.051202 -0.253814 -0.965897
vn -0.025562 -0.233213 -0.972090
vn -0.218541 0.255625 0.941751
vn -0.194299 0.236947 0.951895
vn 0.051462 0.234303 0.970801
vn 0.025408 0.256441 0.966226
vn 0.189300 -0.322626 -0.927404
vn 0.181087 -0.329111 -0.926765
vn -0.024829 -0.328476 -0.944186
vn -0.016943 -0.322893 -0.946284
vn -0.187790 0.343985 0.920005
vn -0.180473 0.338153 0.923625
vn 0.024738 0.338237 0.940736
vn 0.016808 0.344265 0.938722
vn 0.175382 -0.404492 -0.897568
vn 0.180879 -0.400637 -0.898205
vn -0.016396 -0.401550 -0.915690
vn -0.021637 -0.404280 -0.914379
vn -0.173703 0.423728 0.888978
vn -0.178510 0.427031 0.886442
vn 0.016192 0.426574 0.904308
vn 0.021430 0.423510 0.905638
vn 0.173483 -0.477236 -0.861481
vn 0.198359 -0.463574 -0.863570
vn -0.020893 -0.469024 -0.882938
vn -0.044585 -0.475987 -0.878322
vn -0.171615 0.494261 0.852205
vn -0.193258 0.504740 0.841361
vn 0.020458 0.502090 0.864573
vn 0.044107 0.492994 0.868914
vn 0.192467 -0.510736 -0.837917
vn -0.043585 -0.510736 -0.858632
vn -0.182086 0.581752 0.792723
vn 0.041235 0.581752 0.812321
vn 0.000000 -1.000000 0.000000
vn 0.000000 -1.000000 0.000000
vn 0.267232 -0.052682 0.962191
vn 0.445198 -0.145420 0.883545
vn 0.841164 -0.213590 0.496813
vn 0.744454 -0.055799 0.665338
vn -0.266688 0.082621 -0.960235
vn -0.449979 -0.003274 -0.893033
vn -0.858085 -0.082691 -0.506807
vn -0.742757 0.087486 -0.663821
vn 0.441278 -0.195734 0.875764
vn 0.487686 -0.245226 0.837870
vn 0.720290 -0.258416 0.643742
vn 0.690176 -0.197543 0.696157
vn -0.438385 0.225565 -0.870023
vn -0.494888 0.179366 -0.850243
vn -0.735831 0.161477 -0.657631
vn -0.685568 0.227622 -0.691509
vn 0.475305 -0.327491 0.816600
vn 0.490460 -0.350916 0.797689
vn 0.658938 -0.352196 0.664649
vn 0.648634 -0.328307 0.686650
vn -0.470419 0.354277 -0.808204
vn -0.493940 0.332644 -0.803350
vn -0.664700 0.329633 -0.670460
vn -0.641933 0.355142 -0.679556
vn 0.469767 -0.442233 0.764035
vn 0.473713 -0.449195 0.757509
vn 0.613746 -0.448533 0.649718
vn 0.610843 -0.442501 0.656554
vn -0.463666 0.465113 -0.754111
vn -0.471097 0.458878 -0.753325
vn -0.610090 0.458990 -0.645847
vn -0.602900 0.465388 -0.648016
vn 0.446780 -0.538483 0.714440
vn 0.444330 -0.534667 0.718820
vn 0.575238 -0.535561 0.618285
vn 0.577261 -0.538288 0.614017
vn -0.440202 0.557420 -0.703921
vn -0.435383 0.560658 -0.704346
vn -0.564246 0.560197 -0.606470
vn -0.568768 0.557224 -0.604983
vn 0.413736 -0.617109 0.669327
vn 0.402063 -0.604666 0.687549
vn 0.542976 -0.609603 0.577548
vn 0.553448 -0.616049 0.560517
vn -0.407260 0.632500 -0.658850
vn -0.387055 0.641949 -0.661884
vn -0.526593 0.639501 -0.560123
vn -0.544813 0.631448 -0.551772
vn 0.381518 -0.654825 0.652417
vn 0.531015 -0.654825 0.537798
vn -0.353353 0.714156 -0.604253
vn -0.491814 0.714156 -0.498096
vn 0.000000 -1.000000 0.000000
vn 0.000000 -1.000000 0.000000
vn -0.847157 -0.051346 -0.528856
vn -0.928002 -0.122776 -0.351765
vn -0.963394 -0.174788 0.203277
vn -0.998446 -0.054381 0.012180
vn 0.845942 0.074130 0.528097
vn 0.935034 0.009489 0.354431
vn 0.977147 -0.051704 -0.206180
vn 0.996840 0.078497 -0.012160
vn -0.919033 -0.184443 -0.348365
vn -0.930747 -0.222820 -0.289932
vn -0.972473 -0.232715 0.011863
vn -0.981382 -0.186154 -0.047287
vn 0.914757 0.207335 0.346744
vn 0.940478 0.172262 0.292963
vn 0.987318 0.158297 -0.012044
vn 0.976731 0.209241 0.047062
vn -0.908281 -0.308179 -0.282934
vn -0.908927 -0.326565 -0.259243
vn -0.943783 -0.327424 -0.045475
vn -0.948593 -0.308956 -0.068686
vn 0.901582 0.329053 0.280847
vn 0.913543 0.312325 0.260560
vn 0.949686 0.309841 0.045759
vn 0.941561 0.329871 0.068177
vn -0.873747 -0.417684 -0.249209
vn -0.873130 -0.423243 -0.241888
vn -0.903917 -0.422671 -0.065451
vn -0.905577 -0.417944 -0.072480
vn 0.865497 0.435863 0.246856
vn 0.869628 0.430937 0.240918
vn 0.900006 0.430979 0.065168
vn 0.897016 0.436129 0.071794
vn -0.828186 -0.511338 -0.229437
vn -0.828753 -0.508229 -0.234245
vn -0.858032 -0.508984 -0.068674
vn -0.857100 -0.511146 -0.064113
vn 0.819197 0.526699 0.226947
vn 0.816443 0.529309 0.230765
vn 0.845938 0.528966 0.067706
vn 0.847804 0.526504 0.063417
vn -0.777387 -0.589397 -0.219726
vn -0.778918 -0.579011 -0.240902
vn -0.810037 -0.583240 -0.060592
vn -0.807602 -0.588332 -0.040557
vn 0.768296 0.602134 0.217156
vn 0.757135 0.609847 0.234165
vn 0.791741 0.607979 0.059224
vn 0.798190 0.601070 0.040084
vn -0.740235 -0.632170 -0.228939
vn -0.773854 -0.632170 -0.038862
vn 0.698595 0.682116 0.216061
vn 0.730324 0.682116 0.036676
vn 0.000000 -1.000000 0.000000
vn 0.000000 -1.000000 0.000000
vn 0.964210 -0.043353 -0.261571
vn 0.906898 -0.111328 -0.406377
vn 0.637221 -0.165888 -0.752616
vn 0.756376 -0.044921 -0.652593
vn -0.963017 0.065937 0.261248
vn -0.912570 0.001419 0.408919
vn -0.645062 -0.058643 0.761877
vn -0.755371 0.068316 0.651726
vn 0.901332 -0.156459 -0.403883
vn 0.875483 -0.193327 -0.442892
vn 0.741216 -0.204015 -0.639513
vn 0.777238 -0.157341 -0.609216
vn -0.897835 0.178982 0.402316
vn -0.883051 0.143744 0.446720
vn -0.750636 0.130799 0.647640
vn -0.774189 0.179983 0.606826
vn 0.860723 -0.263743 -0.435425
vn 0.847869 -0.281874 -0.449071
vn 0.754838 -0.283126 -0.591658
vn 0.770102 -0.264153 -0.580660
vn -0.855372 0.284770 0.432718
vn -0.851489 0.267539 0.450988
vn -0.758813 0.265415 0.594775
vn -0.765299 0.285207 0.577039
vn 0.823814 -0.361865 -0.436330
vn 0.819282 -0.367524 -0.440118
vn 0.742729 -0.367057 -0.560020
vn 0.747595 -0.362006 -0.556824
vn -0.817114 0.380822 0.432781
vn -0.816453 0.375546 0.438599
vn -0.739962 0.375721 0.557934
vn -0.741510 0.380968 0.552292
vn 0.787084 -0.449133 -0.422822
vn 0.790226 -0.445868 -0.420410
vn 0.717573 -0.446585 -0.534463
vn 0.714434 -0.449023 -0.536621
vn -0.779534 0.465793 0.418766
vn -0.779846 0.468730 0.414888
vn -0.708631 0.468257 0.527804
vn -0.707584 0.465681 0.531475
vn 0.751387 -0.524995 -0.399747
vn 0.764874 -0.513878 -0.388454
vn 0.683908 -0.518064 -0.513692
vn 0.670989 -0.524364 -0.524229
vn -0.743410 0.539369 0.395503
vn -0.745421 0.548662 0.378574
vn -0.669880 0.545981 0.503155
vn -0.663883 0.538734 0.518677
vn 0.735452 -0.565331 -0.373512
vn 0.650004 -0.565331 -0.507834
vn -0.696854 0.623813 0.353909
vn -0.615891 0.623813 0.481182
vn 0.000000 -1.000000 0.000000
vn 0.000000 -1.000000 0.000000
vn -0.602768 -0.037975 0.797013
vn -0.432819 -0.115569 0.894042
vn 0.120163 -0.173764 0.977429
vn -0.074199 -0.040245 0.996431
vn 0.602003 0.063039 -0.796002
vn 0.435720 -0.009123 -0.900036
vn -0.121675 -0.075069 -0.989727
vn 0.074093 0.066798 -0.995012
vn -0.431074 -0.145924 0.890439
vn -0.373557 -0.188453 0.908262
vn -0.072758 -0.200080 0.977074
vn -0.133109 -0.147311 0.980093
vn 0.429276 0.171589 -0.886724
vn 0.377057 0.131750 -0.916772
vn 0.073752 0.116664 -0.990429
vn 0.132544 0.173206 -0.975926
vn -0.368383 -0.249095 0.895682
vn -0.344513 -0.270185 0.899061
vn -0.129526 -0.271421 0.953705
vn -0.153555 -0.249753 0.956057
vn 0.365890 0.273312 -0.889621
vn 0.346118 0.253659 -0.903249
vn 0.130269 0.251022 -0.959176
vn 0.152510 0.274025 -0.949553
vn -0.335968 -0.344115 0.876761
vn -0.328408 -0.350773 0.876987
vn -0.148540 -0.350162 0.924836
vn -0.155946 -0.344346 0.925800
vn 0.332970 0.366173 -0.868935
vn 0.327163 0.360110 -0.873662
vn 0.147933 0.360243 -0.921054
vn 0.154552 0.366414 -0.917526
vn -0.316718 -0.429375 0.845770
vn -0.321794 -0.425477 0.845824
vn -0.150249 -0.426373 0.891982
vn -0.145365 -0.429194 0.891438
vn 0.313359 0.448969 -0.836799
vn 0.317123 0.452363 -0.833547
vn 0.148179 0.451863 -0.879695
vn 0.143825 0.448784 -0.881991
vn -0.307087 -0.504162 0.807167
vn -0.329803 -0.490608 0.806557
vn -0.139759 -0.495898 0.857061
vn -0.118053 -0.503109 0.856122
vn 0.303457 0.521254 -0.797626
vn 0.320489 0.531956 -0.783779
vn 0.136570 0.529096 -0.837500
vn 0.116663 0.520191 -0.846044
vn -0.318832 -0.538865 0.779725
vn -0.115071 -0.538865 0.834496
vn 0.300153 0.609170 -0.734044
vn 0.108329 0.609170 -0.785606
vn 0.000000 -1.000000 0.000000
vn 0.000000 -1.000000 0.000000
vn -0.158737 -0.047622 -0.986172
vn -0.317198 -0.107421 -0.942256
vn -0.707744 -0.154100 -0.689457
vn -0.591128 -0.049558 -0.805054
vn 0.158558 0.067205 0.985060
vn 0.319022 0.011676 0.947675
vn 0.715701 -0.040896 0.697208
vn 0.590407 0.069931 0.804071
vn -0.314565 -0.166965 -0.934436
vn -0.358622 -0.199256 -0.911969
vn -0.578882 -0.208229 -0.788376
vn -0.543046 -0.168023 -0.822721
vn 0.313446 0.186495 0.931113
vn 0.361466 0.156233 0.919203
vn 0.585624 0.144732 0.797557
vn 0.541090 0.187668 0.819758
vn -0.351389 -0.279365 -0.893578
vn -0.367287 -0.295103 -0.882051
vn -0.526183 -0.296047 -0.797175
vn -0.512818 -0.279851 -0.811604
vn 0.349394 0.297463 0.888504
vn 0.368718 0.282763 0.885490
vn 0.528713 0.280803 0.801007
vn 0.509896 0.297974 0.806981
vn -0.355394 -0.381116 -0.853490
vn -0.359930 -0.385977 -0.849395
vn -0.492867 -0.385535 -0.780029
vn -0.488918 -0.381282 -0.784591
vn 0.352772 0.397260 0.847193
vn 0.358803 0.392809 0.846735
vn 0.491201 0.392913 0.777394
vn 0.485308 0.397431 0.778797
vn -0.344278 -0.470517 -0.812457
vn -0.341363 -0.467740 -0.815286
vn -0.467272 -0.468377 -0.749853
vn -0.469911 -0.470391 -0.746938
vn 0.341306 0.484534 0.805443
vn 0.337327 0.486976 0.805646
vn 0.462031 0.486611 0.741443
vn 0.465856 0.484406 0.740493
vn -0.323258 -0.547220 -0.772046
vn -0.309842 -0.537814 -0.784063
vn -0.447684 -0.541475 -0.711607
vn -0.460165 -0.546501 -0.699703
vn 0.320195 0.559163 0.764730
vn 0.302803 0.566717 0.766252
vn 0.439483 0.564671 0.698571
vn 0.455816 0.558442 0.693090
vn -0.296242 -0.591835 -0.749648
vn -0.442912 -0.591835 -0.673469
vn 0.282441 0.639842 0.714723
vn 0.422277 0.639842 0.642093
vn 0.000000 -1.000000 0.000000
vn 0.000000 -1.000000 -0.000000
vn 0.737573 -0.049633 0.673441
vn 0.850984 -0.120146 0.511265
vn 0.984460 -0.171195 -0.039134
vn 0.985976 -0.052676 0.158354
vn -0.736563 0.072055 -0.672520
vn -0.857163 0.008412 -0.514977
vn -0.997872 -0.051754 0.039667
vn -0.984457 0.076461 -0.158110
vn 0.843312 -0.179234 0.506656
vn 0.866024 -0.217250 0.450338
vn 0.961574 -0.226993 0.154435
vn 0.959629 -0.180965 0.215322
vn -0.839544 0.201876 -0.504392
vn -0.874721 0.167226 -0.454860
vn -0.975663 0.153389 -0.156697
vn -0.955259 0.203808 -0.214341
vn 0.846290 -0.300212 0.440076
vn 0.851509 -0.318517 0.416509
vn 0.924646 -0.319351 0.207472
vn 0.925070 -0.301003 0.231608
vn -0.840271 0.320972 -0.436946
vn -0.855679 0.304352 -0.418548
vn -0.930222 0.301864 -0.208723
vn -0.918457 0.321806 -0.229952
vn 0.820170 -0.407893 0.401179
vn 0.820985 -0.413464 0.393741
vn 0.883513 -0.412885 0.221203
vn 0.883836 -0.408159 0.228560
vn -0.812668 0.426096 -0.397510
vn -0.817795 0.421168 -0.392211
vn -0.879810 0.421204 -0.220276
vn -0.875741 0.426369 -0.226467
vn 0.780542 -0.500620 0.374345
vn 0.780171 -0.497481 0.379271
vn 0.839422 -0.498246 0.217075
vn 0.839347 -0.500421 0.212311
vn -0.772295 0.516113 -0.370390
vn -0.768889 0.518742 -0.373786
vn -0.827903 0.518401 -0.214096
vn -0.830485 0.515912 -0.210070
vn 0.733620 -0.578454 0.356641
vn 0.731058 -0.567884 0.378235
vn 0.795071 -0.572203 0.201112
vn 0.796319 -0.577345 0.180410
vn -0.725228 0.591392 -0.352561
vn -0.711062 0.599206 -0.367889
vn -0.777505 0.597334 -0.196668
vn -0.787244 0.590285 -0.178354
vn 0.696154 -0.621002 0.360176
vn 0.764436 -0.621002 0.173186
vn -0.657674 0.672073 -0.340268
vn -0.722183 0.672073 -0.163614
vn 0.000000 -1.000000 0.000000
vn 0.000000 -1.000000 0.000000
vn -0.993005 -0.055595 0.104160
vn -0.960897 -0.121073 0.249035
vn -0.766715 -0.173421 0.618120
vn -0.861673 -0.057410 0.504207
vn 0.991565 0.077333 -0.104009
vn 0.967900 0.015638 -0.250849
vn 0.777798 -0.042803 -0.627055
vn 0.860340 0.079849 -0.503427
vn -0.950102 -0.191503 0.246237
vn -0.931030 -0.226339 0.286275
vn -0.838657 -0.236284 0.490739
vn -0.868268 -0.192463 0.457241
vn 0.945861 0.212731 -0.245138
vn 0.940287 0.179638 -0.289121
vn 0.850936 0.167269 -0.497924
vn 0.864353 0.213788 -0.455179
vn -0.906479 -0.317185 0.278726
vn -0.895950 -0.333775 0.293032
vn -0.833727 -0.334865 0.439051
vn -0.846721 -0.317614 0.426831
vn 0.900141 0.336362 -0.276778
vn 0.900252 0.320705 -0.294439
vn 0.838669 0.318712 -0.441653
vn 0.840785 0.336811 -0.423838
vn -0.859027 -0.427945 0.280955
vn -0.855197 -0.432915 0.284996
vn -0.805126 -0.432489 0.405863
vn -0.809258 -0.428087 0.402297
vn 0.851389 0.444521 -0.278457
vn 0.851969 0.439929 -0.283920
vn 0.801846 0.440064 -0.404210
vn 0.802058 0.444666 -0.398718
vn -0.809095 -0.522173 0.269632
vn -0.811710 -0.519431 0.267055
vn -0.764845 -0.520044 0.380219
vn -0.762279 -0.522068 0.382590
vn 0.800868 0.536078 -0.266891
vn 0.800409 0.538516 -0.263337
vn 0.754744 0.538133 -0.375198
vn 0.754532 0.535973 -0.378702
vn -0.759688 -0.600337 0.249940
vn -0.770410 -0.591399 0.238151
vn -0.718451 -0.594811 0.360593
vn -0.708563 -0.599763 0.371783
vn 0.751400 0.611788 -0.247213
vn 0.750266 0.619122 -0.231924
vn 0.703308 0.617052 -0.352993
vn 0.700847 0.611215 -0.367735
vn -0.729728 -0.645456 0.225576
vn -0.676349 -0.645456 0.354880
vn 0.691476 0.690051 -0.213751
vn 0.640895 0.690051 -0.336278
vn 0.000000 -1.000000 0.000000
vn 0.000000 -1.000000 0.000000
vn 0.710393 -0.030151 -0.703159
vn 0.569057 -0.104115 -0.815680
vn 0.083573 -0.162115 -0.983226
vn 0.262902 -0.031658 -0.964303
vn -0.709661 0.054461 0.702435
vn -0.572095 -0.015738 0.820036
vn -0.084426 -0.079331 0.993267
vn -0.262603 0.057177 0.963208
vn 0.568049 -0.119750 -0.814236
vn 0.519062 -0.160636 -0.839506
vn 0.259094 -0.172422 -0.950337
vn 0.313725 -0.120701 -0.941811
vn -0.566147 0.144677 0.811509
vn -0.522948 0.105638 0.845793
vn -0.261933 0.091406 0.960748
vn -0.312658 0.145817 0.938607
vn 0.514535 -0.206689 -0.832186
vn 0.493682 -0.227365 -0.839395
vn 0.307653 -0.228786 -0.923584
vn 0.329624 -0.207151 -0.921106
vn -0.511710 0.230661 0.827616
vn -0.495544 0.211010 0.842562
vn -0.309083 0.208593 0.927877
vn -0.327806 0.231171 0.916026
vn 0.485363 -0.288765 -0.825250
vn 0.478596 -0.295462 -0.826830
vn 0.321947 -0.294909 -0.899655
vn 0.328813 -0.288932 -0.899111
vn -0.481784 0.311214 0.819164
vn -0.477098 0.304964 0.824242
vn -0.320860 0.305169 0.896616
vn -0.326385 0.311391 0.892473
vn 0.466450 -0.364743 -0.805845
vn 0.471077 -0.360709 -0.804969
vn 0.320221 -0.361594 -0.875619
vn 0.315648 -0.364608 -0.876029
vn -0.462272 0.385357 0.798627
vn -0.465300 0.388993 0.795098
vn -0.316495 0.388410 0.865430
vn -0.312823 0.385217 0.868188
vn 0.455083 -0.433794 -0.777639
vn 0.475965 -0.419410 -0.773015
vn 0.306875 -0.424816 -0.851680
vn 0.286467 -0.432977 -0.854674
vn -0.450430 0.452428 0.769689
vn -0.464322 0.464468 0.754106
vn -0.300813 0.461008 0.834856
vn -0.283549 0.451594 0.845969
vn 0.464912 -0.462314 -0.755065
vn 0.281799 -0.462314 -0.840747
vn -0.440714 0.541712 0.715764
vn -0.267131 0.541712 0.796987
vn 0.000000 -1.000000 0.000000
vn 0.000000 -1.000000 0.000000
vn -0.060337 -0.055538 0.996632
vn 0.125083 -0.128239 0.983824
vn 0.609398 -0.182002 0.771693
vn 0.462310 -0.058498 0.884786
vn 0.060242 0.078908 -0.995060
vn -0.126115 0.012679 -0.991935
vn -0.618966 -0.050250 -0.783809
vn -0.461502 0.083100 -0.883239
vn 0.123661 -0.196668 0.972640
vn 0.177578 -0.235396 0.955539
vn 0.448926 -0.245540 0.859171
vn 0.403428 -0.198299 0.893265
vn -0.123039 0.219860 -0.967741
vn -0.179584 0.184227 -0.966338
vn -0.456351 0.170149 -0.873380
vn -0.401362 0.221665 -0.888692
vn 0.172693 -0.326583 0.929258
vn 0.192571 -0.344911 0.918669
vn 0.386206 -0.345821 0.855133
vn 0.369123 -0.327313 0.869836
vn -0.171329 0.347448 -0.921914
vn -0.193619 0.330681 -0.923667
vn -0.388796 0.328246 -0.860867
vn -0.366193 0.348212 -0.862932
vn 0.184235 -0.439990 0.878901
vn 0.189976 -0.445445 0.874922
vn 0.349850 -0.444898 0.824421
vn 0.344800 -0.440230 0.829042
vn -0.182391 0.457872 -0.870107
vn -0.189169 0.453012 -0.871203
vn -0.348246 0.453070 -0.820641
vn -0.341347 0.458116 -0.820739
vn 0.179212 -0.535432 0.825346
vn 0.175531 -0.532434 0.828072
vn 0.324883 -0.533153 0.781153
vn 0.328215 -0.535257 0.778315
vn -0.177174 0.550288 -0.815961
vn -0.172800 0.552822 -0.815186
vn -0.320086 0.552479 -0.769618
vn -0.324485 0.550112 -0.769471
vn 0.163726 -0.613693 0.772382
vn 0.147146 -0.603862 0.783389
vn 0.308545 -0.607830 0.731671
vn 0.323895 -0.612742 0.720860
vn -0.161742 0.625811 -0.763021
vn -0.142881 0.633207 -0.760680
vn -0.301324 0.631367 -0.714549
vn -0.319981 0.624864 -0.712150
vn 0.139173 -0.656991 0.740941
vn 0.308982 -0.656991 0.687672
vn -0.131141 0.703807 -0.698181
vn -0.291151 0.703807 -0.647986
vn 0.000000 -1.000000 0.000000
vn 0.000000 -1.000000 0.000000
vn -0.689018 -0.053815 -0.722744
vn -0.782091 -0.131850 -0.609057
vn -0.952488 -0.194734 -0.234190
vn -0.923967 -0.055535 -0.378420
vn 0.687810 0.079925 0.721477
vn 0.788967 0.005363 0.614412
vn 0.969067 -0.064327 0.238266
vn 0.922242 0.082471 0.377714
vn -0.774539 -0.190445 -0.603176
vn -0.793144 -0.231979 -0.563124
vn -0.897408 -0.244073 -0.367543
vn -0.890944 -0.191380 -0.411817
vn 0.770369 0.215912 0.599928
vn 0.802664 0.175965 0.569883
vn 0.913277 0.161298 0.374042
vn 0.886100 0.216960 0.409578
vn -0.773375 -0.316851 -0.549087
vn -0.777271 -0.336642 -0.531528
vn -0.854286 -0.338040 -0.394873
vn -0.853688 -0.317271 -0.412984
vn 0.766861 0.339830 0.544463
vn 0.781772 0.320980 0.534606
vn 0.860394 0.318684 0.397696
vn 0.846479 0.340272 0.409497
vn -0.745946 -0.428202 -0.510106
vn -0.746404 -0.434129 -0.504393
vn -0.811150 -0.433650 -0.392406
vn -0.811248 -0.428341 -0.397996
vn 0.737965 0.448036 0.504649
vn 0.743013 0.442522 0.502102
vn 0.807173 0.442715 0.390482
vn 0.802563 0.448179 0.393736
vn -0.706280 -0.522850 -0.477279
vn -0.706115 -0.519586 -0.481074
vn -0.766689 -0.520297 -0.376136
vn -0.766761 -0.522748 -0.372574
vn 0.697650 0.539466 0.471447
vn 0.694304 0.542389 0.473028
vn 0.754524 0.541912 0.370168
vn 0.757395 0.539363 0.368023
vn -0.660347 -0.601280 -0.449893
vn -0.658631 -0.590683 -0.466154
vn -0.723133 -0.594655 -0.351375
vn -0.725190 -0.600719 -0.336507
vn 0.651697 0.614943 0.443999
vn 0.637987 0.623764 0.451543
vn 0.704852 0.621194 0.342492
vn 0.715708 0.614383 0.332107
vn -0.625279 -0.642789 -0.442548
vn -0.694877 -0.642789 -0.322441
vn 0.586134 0.695954 0.414843
vn 0.651376 0.695954 0.302255
g part_0
usemtl green_1
f 1/1/1 3/1/1 2/1/1
f 1/1/2 4/1/2 3/1/2
f 1/1/3 2/1/3 6/1/3
f 1/1/4 6/1/4 5/1/4
f 2/1/5 3/1/5 7/1/5
f 2/1/6 7/1/6 6/1/6
f 3/1/7 4/1/7 8/1/7
f 3/1/8 8/1/8 7/1/8
f 4/1/9 1/1/9 5/1/9
f 4/1/10 5/1/10 8/1/10
f 5/1/11 6/1/11 10/1/11
f 5/1/12 10/1/12 9/1/12
f 6/1/13 7/1/13 11/1/13
f 6/1/14 11/1/14 10/1/14
f 7/1/15 8/1/15 12/1/15
f 7/1/16 12/1/16 11/1/16
f 8/1/17 5/1/17 9/1/17
f 8/1/18 9/1/18 12/1/18
f 9/1/19 10/1/19 14/1/19
f 9/1/20 14/1/20 13/1/20
f 10/1/21 11/1/21 15/1/21
f 10/1/22 15/1/22 14/1/22
f 11/1/23 12/1/23 16/1/23
f 11/1/24 16/1/24 15/1/24
f 12/1/25 9/1/25 13/1/25
f 12/1/26 13/1/26 16/1/26
f 13/1/27 14/1/27 18/1/27
f 13/1/28 18/1/28 17/1/28
f 14/1/29 15/1/29 19/1/29
f 14/1/30 19/1/30 18/1/30
f 15/1/31 16/1/31 20/1/31
f 15/1/32 20/1/32 19/1/32
f 16/1/33 13/1/33 17/1/33
f 16/1/34 17/1/34 20/1/34
f 17/1/35 18/1/35 22/1/35
f 17/1/36 22/1/36 21/1/36
f 18/1/37 19/1/37 23/1/37
f 18/1/38 23/1/38 22/1/38
f 19/1/39 20/1/39 24/1/39
f 19/1/40 24/1/40 23/1/40
f 20/1/41 17/1/41 21/1/41
f 20/1/42 21/1/42 24/1/42
f 21/1/43 22/1/43 26/1/43
f 21/1/44 26/1/44 25/1/44
f 22/1/45 23/1/45 27/1/45
f 22/1/46 27/1/46 26/1/46
f 23/1/47 24/1/47 28/1/47
f 23/1/48 28/1/48 27/1/48
f 24/1/49 21/1/49 25/1/49
f 24/1/50 25/1/50 28/1/50
f 25/1/51 26/1/51 29/1/51
f 26/1/52 27/1/52 29/1/52
f 27/1/53 28/1/53 29/1/53
f 28/1/54 25/1/54 29/1/54
g part_1
usemtl green_2
f 30/1/55 32/1/55 31/1/55
f 30/1/56 33/1/56 32/1/56
f 30/1/57 31/1/57 35/1/57
f 30/1/58 35/1/58 34/1/58
f 31/1/59 32/1/59 36/1/59
f 31/1/60 36/1/60 35/1/60
f 32/1/61 33/1/61 37/1/61
f 32/1/62 37/1/62 36/1/62
f 33/1/63 30/1/63 34/1/63
f 33/1/64 34/1/64 37/1/64
f 34/1/65 35/1/65 39/1/65
f 34/1/66 39/1/66 38/1/66
f 35/1/67 36/1/67 40/1/67
f 35/1/68 40/1/68 39/1/68
f 36/1/69 37/1/69 41/1/69
f 36/1/70 41/1/70 40/1/70
f 37/1/71 34/1/71 38/1/71
f 37/1/72 38/1/72 41/1/72
f 38/1/73 39/1/73 43/1/73
f 38/1/74 43/1/74 42/1/74
f 39/1/75 40/1/75 44/1/75
f 39/1/76 44/1/76 43/1/76
f 40/1/77 41/1/77 45/1/77
f 40/1/78 45/1/78 44/1/78
f 41/1/79 38/1/79 42/1/79
f 41/1/80 42/1/80 45/1/80
f 42/1/81 43/1/81 47/1/81
f 42/1/82 47/1/82 46/1/82
f 43/1/83 44/1/83 48/1/83
f 43/1/84 48/1/84 47/1/84
f 44/1/85 45/1/85 49/1/85
f 44/1/86 49/1/86 48/1/86
f 45/1/87 42/1/87 46/1/87
f 45/1/88 46/1/88 49/1/88
f 46/1/89 47/1/89 51/1/89
f 46/1/90 51/1/90 50/1/90
f 47/1/91 48/1/91 52/1/91
f 47/1/92 52/1/92 51/1/92
f 48/1/93 49/1/93 53/1/93
f 48/1/94 53/1/94 52/1/94
f 49/1/95 46/1/95 50/1/95
f 49/1/96 50/1/96 53/1/96
f 50/1/97 51/1/97 55/1/97
f 50/1/98 55/1/98 54/1/98
f 51/1/99 52/1/99 56/1/99
f 51/1/100 56/1/100 55/1/100
f 52/1/101 53/1/101 57/1/101
f 52/1/102 57/1/102 56/1/102
f 53/1/103 50/1/103 54/1/103
f 53/1/104 54/1/104 57/1/104
f 54/1/105 55/1/105 58/1/105
f 55/1/106 56/1/106 58/1/106
f 56/1/107 57/1/107 58/1/107
f 57/1/108 54/1/108 58/1/108
g part_2
usemtl green_3
f 59/1/109 61/1/109 60/1/109
f 59/1/110 62/1/110 61/1/110
f 59/1/111 60/1/111 64/1/111
f 59/1/112 64/1/112 63/1/112
f 60/1/113 61/1/113 65/1/113
f 60/1/114 65/1/114 64/1/114
f 61/1/115 62/1/115 66/1/115
f 61/1/116 66/1/116 65/1/116
f 62/1/117 59/1/117 63/1/117
f 62/1/118 63/1/118 66/1/118
f 63/1/119 64/1/119 68/1/119
f 63/1/120 68/1/120 67/1/120
f 64/1/121 65/1/121 69/1/121
f 64/1/122 69/1/122 68/1/122
f 65/1/123 66/1/123 70/1/123
f 65/1/124 70/1/124 69/1/124
f 66/1/125 63/1/125 67/1/125
f 66/1/126 67/1/126 70/1/126
f 67/1/127 68/1/127 72/1/127
f 67/1/128 72/1/128 71/1/128
f 68/1/129 69/1/129 73/1/129
f 68/1/130 73/1/130 72/1/130
f 69/1/131 70/1/131 74/1/131
f 69/1/132 74/1/132 73/1/132
f 70/1/133 67/1/133 71/1/133
f 70/1/134 71/1/134 74/1/134
f 71/1/135 72/1/135 76/1/135
f 71/1/136 76/1/136 75/1/136
f 72/1/137 73/1/137 77/1/137
f 72/1/138 77/1/138 76/1/138
f 73/1/139 74/1/139 78/1/139
f 73/1/140 78/1/140 77/1/140
f 74/1/141 71/1/141 75/1/141
f 74/1/142 75/1/142 78/1/142
f 75/1/143 76/1/143 80/1/143
f 75/1/144 80/1/144 79/1/144
f 76/1/145 77/1/145 81/1/145
f 76/1/146 81/1/146 80/1/146
f 77/1/147 78/1/147 82/1/147
f 77/1/148 82/1/148 81/1/148
f 78/1/149 75/1/149 79/1/149
f 78/1/150 79/1/150 82/1/150
f 79/1/151 80/1/151 84/1/151
f 79/1/152 84/1/152 83/1/152
f 80/1/153 81/1/153 85/1/153
f 80/1/154 85/1/154 84/1/154
f 81/1/155 82/1/155 86/1/155
f 81/1/156 86/1/156 85/1/156
f 82/1/157 79/1/157 83/1/157
f 82/1/158 83/1/158 86/1/158
f 83/1/159 84/1/159 87/1/159
f 84/1/160 85/1/160 87/1/160
f 85/1/161 86/1/161 87/1/161
f 86/1/162 83/1/162 87/1/162
g part_3
usemtl green_1
f 88/1/163 90/1/163 89/1/163
f 88/1/164 91/1/164 90/1/164
f 88/1/165 89/1/165 93/1/165
f 88/1/166 93/1/166 92/1/166
f 89/1/167 90/1/167 94/1/167
f 89/1/168 94/1/168 93/1/168
f 90/1/169 91/1/169 95/1/169
f 90/1/170 95/1/170 94/1/170
f 91/1/171 88/1/171 92/1/171
f 91/1/172 92/1/172 95/1/172
f 92/1/173 93/1/173 97/1/173
f 92/1/174 97/1/174 96/1/174
f 93/1/175 94/1/175 98/1/175
f 93/1/176 98/1/176 97/1/176
f 94/1/177 95/1/177 99/1/177
f 94/1/178 99/1/178 98/1/178
f 95/1/179 92/1/179 96/1/179
f 95/1/180 96/1/180 99/1/180
f 96/1/181 97/1/181 101/1/181
f 96/1/182 101/1/182 100/1/182
f 97/1/183 98/1/183 102/1/183
f 97/1/184 102/1/184 101/1/184
f 98/1/185 99/1/185 103/1/185
f 98/1/186 103/1/186 102/1/186
f 99/1/187 96/1/187 100/1/187
f 99/1/188 100/1/188 103/1/188
f 100/1/189 101/1/189 105/1/189
f 100/1/190 105/1/190 104/1/190
f 101/1/191 102/1/191 106/1/191
f 101/1/192 106/1/192 105/1/192
f 102/1/193 103/1/193 107/1/193
f 102/1/194 107/1/194 106/1/194
f 103/1/195 100/1/195 104/1/195
f 103/1/196 104/1/196 107/1/196
f 104/1/197 105/1/197 109/1/197
f 104/1/198 109/1/198 108/1/198
f 105/1/199 106/1/199 110/1/199
f 105/1/200 110/1/200 109/1/200
f 106/1/201 107/1/201 111/1/201
f 106/1/202 111/1/202 110/1/202
f 107/1/203 104/1/203 108/1/203
f 107/1/204 108/1/204 111/1/204
f 108/1/205 109/1/205 113/1/205
f 108/1/206 113/1/206 112/1/206
f 109/1/207 110/1/207 114/1/207
f 109/1/208 114/1/208 113/1/208
f 110/1/209 111/1/209 115/1/209
f 110/1/210 115/1/210 114/1/210
f 111/1/211 108/1/211 112/1/211
f 111/1/212 112/1/212 115/1/212
f 112/1/213 113/1/213 116/1/213
f 113/1/214 114/1/214 116/1/214
f 114/1/215 115/1/215 116/1/215
f 115/1/216 112/1/216 116/1/216
g part_4
usemtl green_2
f 117/1/217 119/1/217 118/1/217
f 117/1/218 120/1/218 119/1/218
f 117/1/219 118/1/219 122/1/219
f 117/1/220 122/1/220 121/1/220
f 118/1/221 119/1/221 123/1/221
f 118/1/222 123/1/222 122/1/222
f 119/1/223 120/1/223 124/1/223
f 119/1/224 124/1/224 123/1/224
f 120/1/225 117/1/225 121/1/225
f 120/1/226 121/1/226 124/1/226
f 121/1/227 122/1/227 126/1/227
f 121/1/228 126/1/228 125/1/228
f 122/1/229 123/1/229 127/1/229
f 122/1/230 127/1/230 126/1/230
f 123/1/231 124/1/231 128/1/231
f 123/1/232 128/1/232 127/1/232
f 124/1/233 121/1/233 125/1/233
f 124/1/234 125/1/234 128/1/234
f 125/1/235 126/1/235 130/1/235
f 125/1/236 130/1/236 129/1/236
f 126/1/237 127/1/237 131/1/237
f 126/1/238 131/1/238 130/1/238
f 127/1/239 128/1/239 132/1/239
f 127/1/240 132/1/240 131/1/240
f 128/1/241 125/1/241 129/1/241
f 128/1/242 129/1/242 132/1/242
f 129/1/243 130/1/243 134/1/243
f 129/1/244 134/1/244 133/1/244
f 130/1/245 131/1/245 135/1/245
f 130/1/246 135/1/246 134/1/246
f 131/1/247 132/1/247 136/1/247
f 131/1/248 136/1/248 135/1/248
f 132/1/249 129/1/249 133/1/249
f 132/1/250 133/1/250 136/1/250
f 133/1/251 134/1/251 138/1/251
f 133/1/252 138/1/252 137/1/252
f 134/1/253 135/1/253 139/1/253
f 134/1/254 139/1/254 138/1/254
f 135/1/255 136/1/255 140/1/255
f 135/1/256 140/1/256 139/1/256
f 136/1/257 133/1/257 137/1/257
f 136/1/258 137/1/258 140/1/258
f 137/1/259 138/1/259 142/1/259
f 137/1/260 142/1/260 141/1/260
f 138/1/261 139/1/261 143/1/261
f 138/1/262 143/1/262 142/1/262
f 139/1/263 140/1/263 144/1/263
f 139/1/264 144/1/264 143/1/264
f 140/1/265 137/1/265 141/1/265
f 140/1/266 141/1/266 144/1/266
f 141/1/267 142/1/267 145/1/267
f 142/1/268 143/1/268 145/1/268
f 143/1/269 144/1/269 145/1/269
f 144/1/270 141/1/270 145/1/270
g part_5
usemtl green_3
f 146/1/271 148/1/271 147/1/271
f 146/1/272 149/1/272 148/1/272
f 146/1/273 147/1/273 151/1/273
f 146/1/274 151/1/274 150/1/274
f 147/1/275 148/1/275 152/1/275
f 147/1/276 152/1/276 151/1/276
f 148/1/277 149/1/277 153/1/277
f 148/1/278 153/1/278 152/1/278
f 149/1/279 146/1/279 150/1/279
f 149/1/280 150/1/280 153/1/280
f 150/1/281 151/1/281 155/1/281
f 150/1/282 155/1/282 154/1/282
f 151/1/283 152/1/283 156/1/283
f 151/1/284 156/1/284 155/1/284
f 152/1/285 153/1/285 157/1/285
f 152/1/286 157/1/286 156/1/286
f 153/1/287 150/1/287 154/1/287
f 153/1/288 154/1/288 157/1/288
f 154/1/289 155/1/289 159/1/289
f 154/1/290 159/1/290 158/1/290
f 155/1/291 156/1/291 160/1/291
f 155/1/292 160/1/292 159/1/292
f 156/1/293 157/1/293 161/1/293
f 156/1/294 161/1/294 160/1/294
f 157/1/295 154/1/295 158/1/295
f 157/1/296 158/1/296 161/1/296
f 158/1/297 159/1/297 163/1/297
f 158/1/298 163/1/298 162/1/298
f 159/1/299 160/1/299 164/1/299
f 159/1/300 164/1/300 163/1/300
f 160/1/301 161/1/301 165/1/301
f 160/1/302 165/1/302 164/1/302
f 161/1/303 158/1/303 162/1/303
f 161/1/304 162/1/304 165/1/304
f 162/1/305 163/1/305 167/1/305
f 162/1/306 167/1/306 166/1/306
f 163/1/307 164/1/307 168/1/307
f 163/1/308 168/1/308 167/1/308
f 164/1/309 165/1/309 169/1/309
f 164/1/310 169/1/310 168/1/310
f 165/1/311 162/1/311 166/1/311
f 165/1/312 166/1/312 169/1/312
f 166/1/313 167/1/313 171/1/313
f 166/1/314 171/1/314 170/1/314
f 167/1/315 168/1/315 172/1/315
f 167/1/316 172/1/316 171/1/316
f 168/1/317 169/1/317 173/1/317
f 168/1/318 173/1/318 172/1/318
f 169/1/319 166/1/319 170/1/319
f 169/1/320 170/1/320 173/1/320
f 170/1/321 171/1/321 174/1/321
f 171/1/322 172/1/322 174/1/322
f 172/1/323 173/1/323 174/1/323
f 173/1/324 170/1/324 174/1/324
g part_6
usemtl green_1
f 175/1/325 177/1/325 176/1/325
f 175/1/326 178/1/326 177/1/326
f 175/1/327 176/1/327 180/1/327
f 175/1/328 180/1/328 179/1/328
f 176/1/329 177/1/329 181/1/329
f 176/1/330 181/1/330 180/1/330
f 177/1/331 178/1/331 182/1/331
f 177/1/332 182/1/332 181/1/332
f 178/1/333 175/1/333 179/1/333
f 178/1/334 179/1/334 182/1/334
f 179/1/335 180/1/335 184/1/335
f 179/1/336 184/1/336 183/1/336
f 180/1/337 181/1/337 185/1/337
f 180/1/338 185/1/338 184/1/338
f 181/1/339 182/1/339 186/1/339
f 181/1/340 186/1/340 185/1/340
f 182/1/341 179/1/341 183/1/341
f 182/1/342 183/1/342 186/1/342
f 183/1/343 184/1/343 188/1/343
f 183/1/344 188/1/344 187/1/344
f 184/1/345 185/1/345 189/1/345
f 184/1/346 189/1/346 188/1/346
f 185/1/347 186/1/347 190/1/347
f 185/1/348 190/1/348 189/1/348
f 186/1/349 183/1/349 187/1/349
f 186/1/350 187/1/350 190/1/350
f 187/1/351 188/1/351 192/1/351
f 187/1/352 192/1/352 191/1/352
f 188/1/353 189/1/353 193/1/353
f 188/1/354 193/1/354 192/1/354
f 189/1/355 190/1/355 194/1/355
f 189/1/356 194/1/356 193/1/356
f 190/1/357 187/1/357 191/1/357
f 190/1/358 191/1/358 194/1/358
f 191/1/359 192/1/359 196/1/359
f 191/1/360 196/1/360 195/1/360
f 192/1/361 193/1/361 197/1/361
f 192/1/362 197/1/362 196/1/362
f 193/1/363 194/1/363 198/1/363
f 193/1/364 198/1/364 197/1/364
f 194/1/365 191/1/365 195/1/365
f 194/1/366 195/1/366 198/1/366
f 195/1/367 196/1/367 200/1/367
f 195/1/368 200/1/368 199/1/368
f 196/1/369 197/1/369 201/1/369
f 196/1/370 201/1/370 200/1/370
f 197/1/371 198/1/371 202/1/371
f 197/1/372 202/1/372 201/1/372
f 198/1/373 195/1/373 199/1/373
f 198/1/374 199/1/374 202/1/374
f 199/1/375 200/1/375 203/1/375
f 200/1/376 201/1/376 203/1/376
f 201/1/377 202/1/377 203/1/377
f 202/1/378 199/1/378 203/1/378
g part_7
usemtl green_2
f 204/1/379 206/1/379 205/1/379
f 204/1/380 207/1/380 206/1/380
f 204/1/381 205/1/381 209/1/381
f 204/1/382 209/1/382 208/1/382
f 205/1/383 206/1/383 210/1/383
f 205/1/384 210/1/384 209/1/384
f 206/1/385 207/1/385 211/1/385
f 206/1/386 211/1/386 210/1/386
f 207/1/387 204/1/387 208/1/387
f 207/1/388 208/1/388 211/1/388
f 208/1/389 209/1/389 213/1/389
f 208/1/390 213/1/390 212/1/390
f 209/1/391 210/1/391 214/1/391
f 209/1/392 214/1/392 213/1/392
f 210/1/393 211/1/393 215/1/393
f 210/1/394 215/1/394 214/1/394
f 211/1/395 208/1/395 212/1/395
f 211/1/396 212/1/396 215/1/396
f 212/1/397 213/1/397 217/1/397
f 212/1/398 217/1/398 216/1/398
f 213/1/399 214/1/399 218/1/399
f 213/1/400 218/1/400 217/1/400
f 214/1/401 215/1/401 219/1/401
f 214/1/402 219/1/402 218/1/402
f 215/1/403 212/1/403 216/1/403
f 215/1/404 216/1/404 219/1/404
f 216/1/405 217/1/405 221/1/405
f 216/1/406 221/1/406 220/1/406
f 217/1/407 218/1/407 222/1/407
f 217/1/408 222/1/408 221/1/408
f 218/1/409 219/1/409 223/1/409
f 218/1/410 223/1/410 222/1/410
f 219/1/411 216/1/411 220/1/411
f 219/1/412 220/1/412 223/1/412
f 220/1/413 221/1/413 225/1/413
f 220/1/414 225/1/414 224/1/414
f 221/1/415 222/1/415 226/1/415
f 221/1/416 226/1/416 225/1/416
f 222/1/417 223/1/417 227/1/417
f 222/1/418 227/1/418 226/1/418
f 223/1/419 220/1/419 224/1/419
f 223/1/420 224/1/420 227/1/420
f 224/1/421 225/1/421 229/1/421
f 224/1/422 229/1/422 228/1/422
f 225/1/423 226/1/423 230/1/423
f 225/1/424 230/1/424 229/1/424
f 226/1/425 227/1/425 231/1/425
f 226/1/426 231/1/426 230/1/426
f 227/1/427 224/1/427 228/1/427
f 227/1/428 228/1/428 231/1/428
f 228/1/429 229/1/429 232/1/429
f 229/1/430 230/1/430 232/1/430
f 230/1/431 231/1/431 232/1/431
f 231/1/432 228/1/432 232/1/432
g part_8
usemtl green_3
f 233/1/433 235/1/433 234/1/433
f 233/1/434 236/1/434 235/1/434
f 233/1/435 234/1/435 238/1/435
f 233/1/436 238/1/436 237/1/436
f 234/1/437 235/1/437 239/1/437
f 234/1/438 239/1/438 238/1/438
f 235/1/439 236/1/439 240/1/439
f 235/1/440 240/1/440 239/1/440
f 236/1/441 233/1/441 237/1/441
f 236/1/442 237/1/442 240/1/442
f 237/1/443 238/1/443 242/1/443
f 237/1/444 242/1/444 241/1/444
f 238/1/445 239/1/445 243/1/445
f 238/1/446 243/1/446 242/1/446
f 239/1/447 240/1/447 244/1/447
f 239/1/448 244/1/448 243/1/448
f 240/1/449 237/1/449 241/1/449
f 240/1/450 241/1/450 244/1/450
f 241/1/451 242/1/451 246/1/451
f 241/1/452 246/1/452 245/1/452
f 242/1/453 243/1/453 247/1/453
f 242/1/454 247/1/454 246/1/454
f 243/1/455 244/1/455 248/1/455
f 243/1/456 248/1/456 247/1/456
f 244/1/457 241/1/457 245/1/457
f 244/1/458 245/1/458 248/1/458
f 245/1/459 246/1/459 250/1/459
f 245/1/460 250/1/460 249/1/460
f 246/1/461 247/1/461 251/1/461
f 246/1/462 251/1/462 250/1/462
f 247/1/463 248/1/463 252/1/463
f 247/1/464 252/1/464 251/1/464
f 248/1/465 245/1/465 249/1/465
f 248/1/466 249/1/466 252/1/466
f 249/1/467 250/1/467 254/1/467
f 249/1/468 254/1/468 253/1/468
f 250/1/469 251/1/469 255/1/469
f 250/1/470 255/1/470 254/1/470
f 251/1/471 252/1/471 256/1/471
f 251/1/472 256/1/472 255/1/472
f 252/1/473 249/1/473 253/1/473
f 252/1/474 253/1/474 256/1/474
f 253/1/475 254/1/475 258/1/475
f 253/1/476 258/1/476 257/1/476
f 254/1/477 255/1/477 259/1/477
f 254/1/478 259/1/478 258/1/478
f 255/1/479 256/1/479 260/1/479
f 255/1/480 260/1/480 259/1/480
f 256/1/481 253/1/481 257/1/481
f 256/1/482 257/1/482 260/1/482
f 257/1/483 258/1/483 261/1/483
f 258/1/484 259/1/484 261/1/484
f 259/1/485 260/1/485 261/1/485
f 260/1/486 257/1/486 261/1/486
g part_9
usemtl green_1
f 262/1/487 264/1/487 263/1/487
f 262/1/488 265/1/488 264/1/488
f 262/1/489 263/1/489 267/1/489
f 262/1/490 267/1/490 266/1/490
f 263/1/491 264/1/491 268/1/491
f 263/1/492 268/1/492 267/1/492
f 264/1/493 265/1/493 269/1/493
f 264/1/494 269/1/494 268/1/494
f 265/1/495 262/1/495 266/1/495
f 265/1/496 266/1/496 269/1/496
f 266/1/497 267/1/497 271/1/497
f 266/1/498 271/1/498 270/1/498
f 267/1/499 268/1/499 272/1/499
f 267/1/500 272/1/500 271/1/500
f 268/1/501 269/1/501 273/1/501
f 268/1/502 273/1/502 272/1/502
f 269/1/503 266/1/503 270/1/503
f 269/1/504 270/1/504 273/1/504
f 270/1/505 271/1/505 275/1/505
f 270/1/506 275/1/506 274/1/506
f 271/1/507 272/1/507 276/1/507
f 271/1/508 276/1/508 275/1/508
f 272/1/509 273/1/509 277/1/509
f 272/1/510 277/1/510 276/1/510
f 273/1/511 270/1/511 274/1/511
f 273/1/512 274/1/512 277/1/512
f 274/1/513 275/1/513 279/1/513
f 274/1/514 279/1/514 278/1/514
f 275/1/515 276/1/515 280/1/515
f 275/1/516 280/1/516 279/1/516
f 276/1/517 277/1/517 281/1/517
f 276/1/518 281/1/518 280/1/518
f 277/1/519 274/1/519 278/1/519
f 277/1/520 278/1/520 281/1/520
f 278/1/521 279/1/521 283/1/521
f 278/1/522 283/1/522 282/1/522
f 279/1/523 280/1/523 284/1/523
f 279/1/524 284/1/524 283/1/524
f 280/1/525 281/1/525 285/1/525
f 280/1/526 285/1/526 284/1/526
f 281/1/527 278/1/527 282/1/527
f 281/1/528 282/1/528 285/1/528
f 282/1/529 283/1/529 287/1/529
f 282/1/530 287/1/530 286/1/530
f 283/1/531 284/1/531 288/1/531
f 283/1/532 288/1/532 287/1/532
f 284/1/533 285/1/533 289/1/533
f 284/1/534 289/1/534 288/1/534
f 285/1/535 282/1/535 286/1/535
f 285/1/536 286/1/536 289/1/536
f 286/1/537 287/1/537 290/1/537
f 287/1/538 288/1/538 290/1/538
f 288/1/539 289/1/539 290/1/539
f 289/1/540 286/1/540 290/1/540
g part_10
usemtl green_2
f 291/1/541 293/1/541 292/1/541
f 291/1/542 294/1/542 293/1/542
f 291/1/543 292/1/543 296/1/543
f 291/1/544 296/1/544 295/1/544
f 292/1/545 293/1/545 297/1/545
f 292/1/546 297/1/546 296/1/546
f 293/1/547 294/1/547 298/1/547
f 293/1/548 298/1/548 297/1/548
f 294/1/549 291/1/549 295/1/549
f 294/1/550 295/1/550 298/1/550
f 295/1/551 296/1/551 300/1/551
f 295/1/552 300/1/552 299/1/552
f 296/1/553 297/1/553 301/1/553
f 296/1/554 301/1/554 300/1/554
f 297/1/555 298/1/555 302/1/555
f 297/1/556 302/1/556 301/1/556
f 298/1/557 295/1/557 299/1/557
f 298/1/558 299/1/558 302/1/558
f 299/1/559 300/1/559 304/1/559
f 299/1/560 304/1/560 303/1/560
f 300/1/561 301/1/561 305/1/561
f 300/1/562 305/1/562 304/1/562
f 301/1/563 302/1/563 306/1/563
f 301/1/564 306/1/564 305/1/564
f 302/1/565 299/1/565 303/1/565
f 302/1/566 303/1/566 306/1/566
f 303/1/567 304/1/567 308/1/567
f 303/1/568 308/1/568 307/1/568
f 304/1/569 305/1/569 309/1/569
f 304/1/570 309/1/570 308/1/570
f 305/1/571 306/1/571 310/1/571
f 305/1/572 310/1/572 309/1/572
f 306/1/573 303/1/573 307/1/573
f 306/1/574 307/1/574 310/1/574
f 307/1/575 308/1/575 312/1/575
f 307/1/576 312/1/576 311/1/576
f 308/1/577 309/1/577 313/1/577
f 308/1/578 313/1/578 312/1/578
f 309/1/579 310/1/579 314/1/579
f 309/1/580 314/1/580 313/1/580
f 310/1/581 307/1/581 311/1/581
f 310/1/582 311/1/582 314/1/582
f 311/1/583 312/1/583 316/1/583
f 311/1/584 316/1/584 315/1/584
f 312/1/585 313/1/585 317/1/585
f 312/1/586 317/1/586 316/1/586
f 313/1/587 314/1/587 318/1/587
f 313/1/588 318/1/588 317/1/588
f 314/1/589 311/1/589 315/1/589
f 314/1/590 315/1/590 318/1/590
f 315/1/591 316/1/591 319/1/591
f 316/1/592 317/1/592 319/1/592
f 317/1/593 318/1/593 319/1/593
f 318/1/594 315/1/594 319/1/594
g part_11
usemtl green_3
f 320/1/595 322/1/595 321/1/595
f 320/1/596 323/1/596 322/1/596
f 320/1/597 321/1/597 325/1/597
f 320/1/598 325/1/598 324/1/598
f 321/1/599 322/1/599 326/1/599
f 321/1/600 326/1/600 325/1/600
f 322/1/601 323/1/601 327/1/601
f 322/1/602 327/1/602 326/1/602
f 323/1/603 320/1/603 324/1/603
f 323/1/604 324/1/604 327/1/604
f 324/1/605 325/1/605 329/1/605
f 324/1/606 329/1/606 328/1/606
f 325/1/607 326/1/607 330/1/607
f 325/1/608 330/1/608 329/1/608
f 326/1/609 327/1/609 331/1/609
f 326/1/610 331/1/610 330/1/610
f 327/1/611 324/1/611 328/1/611
f 327/1/612 328/1/612 331/1/612
f 328/1/613 329/1/613 333/1/613
f 328/1/614 333/1/614 332/1/614
f 329/1/615 330/1/615 334/1/615
f 329/1/616 334/1/616 333/1/616
f 330/1/617 331/1/617 335/1/617
f 330/1/618 335/1/618 334/1/618
f 331/1/619 328/1/619 332/1/619
f 331/1/620 332/1/620 335/1/620
f 332/1/621 333/1/621 337/1/621
f 332/1/622 337/1/622 336/1/622
f 333/1/623 334/1/623 338/1/623
f 333/1/624 338/1/624 337/1/624
f 334/1/625 335/1/625 339/1/625
f 334/1/626 339/1/626 338/1/626
f 335/1/627 332/1/627 336/1/627
f 335/1/628 336/1/628 339/1/628
f 336/1/629 337/1/629 341/1/629
f 336/1/630 341/1/630 340/1/630
f 337/1/631 338/1/631 342/1/631
f 337/1/632 342/1/632 341/1/632
f 338/1/633 339/1/633 343/1/633
f 338/1/634 343/1/634 342/1/634
f 339/1/635 336/1/635 340/1/635
f 339/1/636 340/1/636 343/1/636
f 340/1/637 341/1/637 345/1/637
f 340/1/638 345/1/638 344/1/638
f 341/1/639 342/1/639 346/1/639
f 341/1/640 346/1/640 345/1/640
f 342/1/641 343/1/641 347/1/641
f 342/1/642 347/1/642 346/1/642
f 343/1/643 340/1/643 344/1/643
f 343/1/644 344/1/644 347/1/644
f 344/1/645 345/1/645 348/1/645
f 345/1/646 346/1/646 348/1/646
f 346/1/647 347/1/647 348/1/647
f 347/1/648 344/1/648 348/1/648
g part_12
usemtl green_1
f 349/1/649 351/1/649 350/1/649
f 349/1/650 352/1/650 351/1/650
f 349/1/651 350/1/651 354/1/651
f 349/1/652 354/1/652 353/1/652
f 350/1/653 351/1/653 355/1/653
f 350/1/654 355/1/654 354/1/654
f 351/1/655 352/1/655 356/1/655
f 351/1/656 356/1/656 355/1/656
f 352/1/657 349/1/657 353/1/657
f 352/1/658 353/1/658 356/1/658
f 353/1/659 354/1/659 358/1/659
f 353/1/660 358/1/660 357/1/660
f 354/1/661 355/1/661 359/1/661
f 354/1/662 359/1/662 358/1/662
f 355/1/663 356/1/663 360/1/663
f 355/1/664 360/1/664 359/1/664
f 356/1/665 353/1/665 357/1/665
f 356/1/666 357/1/666 360/1/666
f 357/1/667 358/1/667 362/1/667
f 357/1/668 362/1/668 361/1/668
f 358/1/669 359/1/669 363/1/669
f 358/1/670 363/1/670 362/1/670
f 359/1/671 360/1/671 364/1/671
f 359/1/672 364/1/672 363/1/672
f 360/1/673 357/1/673 361/1/673
f 360/1/674 361/1/674 364/1/674
f 361/1/675 362/1/675 366/1/675
f 361/1/676 366/1/676 365/1/676
f 362/1/677 363/1/677 367/1/677
f 362/1/678 367/1/678 366/1/678
f 363/1/679 364/1/679 368/1/679
f 363/1/680 368/1/680 367/1/680
f 364/1/681 361/1/681 365/1/681
f 364/1/682 365/1/682 368/1/682
f 365/1/683 366/1/683 370/1/683
f 365/1/684 370/1/684 369/1/684
f 366/1/685 367/1/685 371/1/685
f 366/1/686 371/1/686 370/1/686
f 367/1/687 368/1/687 372/1/687
f 367/1/688 372/1/688 371/1/688
f 368/1/689 365/1/689 369/1/689
f 368/1/690 369/1/690 372/1/690
f 369/1/691 370/1/691 374/1/691
f 369/1/692 374/1/692 373/1/692
f 370/1/693 371/1/693 375/1/693
f 370/1/694 375/1/694 374/1/694
f 371/1/695 372/1/695 376/1/695
f 371/1/696 376/1/696 375/1/696
f 372/1/697 369/1/697 373/1/697
f 372/1/698 373/1/698 376/1/698
f 373/1/699 374/1/699 377/1/699
f 374/1/700 375/1/700 377/1/700
f 375/1/701 376/1/701 377/1/701
f 376/1/702 373/1/702 377/1/702
