# Y-up low-poly ground rock
mtllib nature.mtl
o ground_rock
v 0.000000 0.780000 0.000000
v 0.727890 0.808328 0.000000
v 0.539629 0.808328 0.231441
v 0.285631 0.808328 0.367512
v 0.000000 0.808328 0.426270
v -0.331543 0.808328 0.426586
v -0.604433 0.808328 0.259234
v -0.506459 0.808328 0.000000
v -0.529348 0.808328 -0.227032
v -0.331543 0.808328 -0.426586
v -0.000000 0.808328 -0.490675
v 0.285631 0.808328 -0.367512
v 0.464545 0.808328 -0.199238
v 1.186556 0.568328 0.000000
v 0.765608 0.568328 0.328361
v 0.457758 0.568328 0.588982
v 0.000000 0.568328 0.781956
v -0.540851 0.568328 0.695895
v -0.870462 0.568328 0.373331
v -0.810662 0.568328 0.000000
v -0.964034 0.568328 -0.413463
v -0.540851 0.568328 -0.695895
v -0.000000 0.568328 -0.701692
v 0.457758 0.568328 -0.588982
v 0.859180 0.568328 -0.368493
v 1.086832 0.271672 0.000000
v 0.701092 0.271672 0.300691
v 0.507620 0.271672 0.653138
v 0.000000 0.271672 0.837296
v -0.490989 0.271672 0.631739
v -0.805946 0.271672 0.345661
v -0.910387 0.271672 0.000000
v -1.028550 0.271672 -0.441133
v -0.490989 0.271672 -0.631739
v -0.000000 0.271672 -0.646352
v 0.507620 0.271672 -0.653138
v 0.923696 0.271672 -0.396163
v 0.599656 0.031672 0.000000
v 0.456670 0.031672 0.195860
v 0.349748 0.031672 0.450009
v 0.000000 0.031672 0.497431
v -0.267427 0.031672 0.344089
v -0.521473 0.031672 0.223654
v -0.634693 0.031672 0.000000
v -0.612308 0.031672 -0.262612
v -0.267427 0.031672 -0.344089
v -0.000000 0.031672 -0.419514
v 0.349748 0.031672 -0.450009
v 0.547505 0.031672 -0.234819
v 0.000000 0.000000 0.000000
vt 0.5 0.5
vn -0.038869 0.998744 -0.031617
vn -0.029099 0.998100 -0.054318
vn -0.013639 0.997706 -0.066304
vn -0.000063 0.997799 -0.066310
vn 0.027541 0.998611 -0.044909
vn 0.055834 0.998217 0.021102
vn 0.055846 0.998424 -0.005630
vn 0.037499 0.998605 0.037170
vn 0.011141 0.998276 0.057633
vn -0.024845 0.998029 0.057619
vn -0.041804 0.998137 0.044447
vn -0.038837 0.997926 0.051334
vn 0.398543 0.761659 0.510920
vn 0.552601 0.701840 0.449502
vn 0.476316 0.675698 0.562632
vn 0.309541 0.755198 0.577807
vn 0.257574 0.748556 0.610998
vn 0.114307 0.823511 0.555665
vn -0.088651 0.825680 0.557129
vn 0.000635 0.746318 0.665589
vn -0.404241 0.816063 0.413073
vn -0.372492 0.701652 0.607399
vn -0.691497 0.713837 -0.110763
vn -0.603085 0.764420 -0.227927
vn -0.603660 0.765149 0.223924
vn -0.499189 0.865030 0.050329
vn -0.287523 0.855413 -0.430812
vn -0.410984 0.815557 -0.407381
vn -0.007098 0.749278 -0.662217
vn -0.143667 0.653455 -0.743207
vn 0.181830 0.649298 -0.738479
vn 0.262231 0.749263 -0.608145
vn 0.315263 0.755758 -0.573967
vn 0.356635 0.853832 -0.379186
vn 0.379429 0.861627 -0.337093
vn 0.395304 0.755468 -0.522497
vn 0.602071 -0.202393 0.772365
vn 0.602252 -0.202988 0.772068
vn 0.853262 -0.229252 0.468389
vn 0.623219 0.263954 0.736156
vn 0.330014 0.252196 0.909664
vn 0.382842 0.169411 0.908148
vn -0.380587 0.169582 0.909063
vn -0.152806 -0.233363 0.960308
vn -0.648603 -0.263447 0.714080
vn -0.683265 -0.213716 0.698193
vn -0.931841 -0.228914 0.281552
vn -0.937136 0.315028 -0.150109
vn -0.918726 0.308839 0.246092
vn -0.924088 0.168994 0.342785
vn -0.329962 0.158557 -0.930583
vn -0.535499 -0.263529 -0.802367
vn -0.029047 -0.215949 -0.975972
vn -0.010536 -0.183372 -0.982987
vn -0.013140 -0.183367 -0.982957
vn 0.231933 0.242697 -0.941969
vn 0.507011 0.262752 -0.820915
vn 0.473272 0.183293 -0.861637
vn 0.899825 0.230252 -0.370540
vn 0.725039 -0.243730 -0.644139
vn 0.420575 -0.853724 0.307038
vn 0.441159 -0.696486 0.565938
vn 0.617537 -0.742396 0.259801
vn 0.624862 -0.701350 0.343011
vn 0.098531 -0.679863 0.726690
vn 0.204832 -0.799541 0.564605
vn -0.314025 -0.775539 0.547656
vn -0.217689 -0.825982 0.519967
vn -0.239599 -0.828946 0.505412
vn -0.436142 -0.761063 0.480170
vn -0.547379 -0.789679 0.277098
vn -0.644042 -0.739827 0.194595
vn -0.655567 -0.753066 -0.055880
vn -0.540086 -0.829083 0.144669
vn -0.152926 -0.746724 -0.647316
vn -0.190537 -0.821543 -0.537366
vn -0.157302 -0.814985 -0.557724
vn -0.021625 -0.686737 -0.726585
vn -0.063239 -0.685522 -0.725300
vn -0.010248 -0.642069 -0.766579
vn 0.506014 -0.726435 -0.465019
vn 0.306058 -0.812873 -0.495546
vn 0.500211 -0.858747 -0.111094
vn 0.434780 -0.882560 -0.179039
vn 0.052704 -0.997869 0.038476
vn 0.058634 -0.997975 0.024668
vn 0.008615 -0.997942 0.063540
vn -0.036411 -0.997317 0.063500
vn -0.031799 -0.997241 0.067077
vn -0.049823 -0.998440 0.025222
vn -0.049839 -0.998748 -0.004248
vn -0.018314 -0.996823 -0.077520
vn -0.021228 -0.996938 -0.075265
vn -0.006564 -0.997141 -0.075281
vn 0.041428 -0.998416 -0.038071
vn 0.052740 -0.998540 -0.011713
usemtl green_0
s off
f 3/1/1 2/1/1 1/1/1
f 4/1/2 3/1/2 1/1/2
f 5/1/3 4/1/3 1/1/3
f 6/1/4 5/1/4 1/1/4
f 7/1/5 6/1/5 1/1/5
f 8/1/6 7/1/6 1/1/6
f 9/1/7 8/1/7 1/1/7
f 10/1/8 9/1/8 1/1/8
f 11/1/9 10/1/9 1/1/9
f 12/1/10 11/1/10 1/1/10
f 13/1/11 12/1/11 1/1/11
f 2/1/12 13/1/12 1/1/12
f 15/1/13 14/1/13 2/1/13
f 3/1/14 15/1/14 2/1/14
f 16/1/15 15/1/15 3/1/15
f 4/1/16 16/1/16 3/1/16
f 17/1/17 16/1/17 4/1/17
f 5/1/18 17/1/18 4/1/18
f 18/1/19 17/1/19 5/1/19
f 6/1/20 18/1/20 5/1/20
f 19/1/21 18/1/21 6/1/21
f 7/1/22 19/1/22 6/1/22
f 20/1/23 19/1/23 7/1/23
f 8/1/24 20/1/24 7/1/24
f 21/1/25 20/1/25 8/1/25
f 9/1/26 21/1/26 8/1/26
f 22/1/27 21/1/27 9/1/27
f 10/1/28 22/1/28 9/1/28
f 23/1/29 22/1/29 10/1/29
f 11/1/30 23/1/30 10/1/30
f 24/1/31 23/1/31 11/1/31
f 12/1/32 24/1/32 11/1/32
f 25/1/33 24/1/33 12/1/33
f 13/1/34 25/1/34 12/1/34
f 14/1/35 25/1/35 13/1/35
f 2/1/36 14/1/36 13/1/36
f 27/1/37 26/1/37 14/1/37
f 15/1/38 27/1/38 14/1/38
f 28/1/39 27/1/39 15/1/39
f 16/1/40 28/1/40 15/1/40
f 29/1/41 28/1/41 16/1/41
f 17/1/42 29/1/42 16/1/42
f 30/1/43 29/1/43 17/1/43
f 18/1/44 30/1/44 17/1/44
f 31/1/45 30/1/45 18/1/45
f 19/1/46 31/1/46 18/1/46
f 32/1/47 31/1/47 19/1/47
f 20/1/48 32/1/48 19/1/48
f 33/1/49 32/1/49 20/1/49
f 21/1/50 33/1/50 20/1/50
f 34/1/51 33/1/51 21/1/51
f 22/1/52 34/1/52 21/1/52
f 35/1/53 34/1/53 22/1/53
f 23/1/54 35/1/54 22/1/54
f 36/1/55 35/1/55 23/1/55
f 24/1/56 36/1/56 23/1/56
f 37/1/57 36/1/57 24/1/57
f 25/1/58 37/1/58 24/1/58
f 26/1/59 37/1/59 25/1/59
f 14/1/60 26/1/60 25/1/60
f 39/1/61 38/1/61 26/1/61
f 27/1/62 39/1/62 26/1/62
f 40/1/63 39/1/63 27/1/63
f 28/1/64 40/1/64 27/1/64
f 41/1/65 40/1/65 28/1/65
f 29/1/66 41/1/66 28/1/66
f 42/1/67 41/1/67 29/1/67
f 30/1/68 42/1/68 29/1/68
f 43/1/69 42/1/69 30/1/69
f 31/1/70 43/1/70 30/1/70
f 44/1/71 43/1/71 31/1/71
f 32/1/72 44/1/72 31/1/72
f 45/1/73 44/1/73 32/1/73
f 33/1/74 45/1/74 32/1/74
f 46/1/75 45/1/75 33/1/75
f 34/1/76 46/1/76 33/1/76
f 47/1/77 46/1/77 34/1/77
f 35/1/78 47/1/78 34/1/78
f 48/1/79 47/1/79 35/1/79
f 36/1/80 48/1/80 35/1/80
f 49/1/81 48/1/81 36/1/81
f 37/1/82 49/1/82 36/1/82
f 38/1/83 49/1/83 37/1/83
f 26/1/84 38/1/84 37/1/84
f 39/1/85 50/1/85 38/1/85
f 40/1/86 50/1/86 39/1/86
f 41/1/87 50/1/87 40/1/87
f 42/1/88 50/1/88 41/1/88
f 43/1/89 50/1/89 42/1/89
f 44/1/90 50/1/90 43/1/90
f 45/1/91 50/1/91 44/1/91
f 46/1/92 50/1/92 45/1/92
f 47/1/93 50/1/93 46/1/93
f 48/1/94 50/1/94 47/1/94
f 49/1/95 50/1/95 48/1/95
f 38/1/96 50/1/96 49/1/96
