# Low-poly distant mountain ridge
mtllib lowpoly_mountains.mtl
o mountain_peak_tall
usemtl mountain
s off
v 0.58861 -0.55000 0.00000
v -1.56974 2.23600 0.79715
v 0.18544 -0.55000 1.62991
vn 0.801486 0.564196 0.198250
f 1//1 2//1 3//1
v 0.58861 -0.55000 0.00000
v -1.04429 2.23600 -0.02798
v -1.56974 2.23600 0.79715
vn 0.754510 0.447050 0.480480
f 4//2 5//2 6//2
v -1.04429 2.23600 -0.02798
v -2.38861 3.74400 0.21260
v -1.56974 2.23600 0.79715
vn 0.701964 0.554455 0.447018
f 7//3 8//3 9//3
v -1.04429 2.23600 -0.02798
v -2.04239 3.74400 -0.20714
v -2.38861 3.74400 0.21260
vn 0.665523 0.505708 0.548943
f 10//4 11//4 12//4
v -2.04239 3.74400 -0.20714
v -3.43450 5.20000 -0.27536
v -2.38861 3.74400 0.21260
vn 0.612001 0.608799 0.504796
f 13//5 14//5 15//5
v 0.18544 -0.55000 1.62991
v -2.52927 2.23600 1.50034
v -2.11789 -0.55000 2.34392
vn 0.280930 0.315890 0.906251
f 16//6 17//6 18//6
v 0.18544 -0.55000 1.62991
v -1.56974 2.23600 0.79715
v -2.52927 2.23600 1.50034
vn 0.503848 0.522931 0.687518
f 19//7 20//7 21//7
v -1.56974 2.23600 0.79715
v -2.80020 3.74400 0.48039
v -2.52927 2.23600 1.50034
vn 0.495218 0.546015 0.675742
f 22//8 23//8 24//8
v -1.56974 2.23600 0.79715
v -2.38861 3.74400 0.21260
v -2.80020 3.74400 0.48039
vn 0.463277 0.527582 0.712061
f 25//9 26//9 27//9
v -2.38861 3.74400 0.21260
v -3.43450 5.20000 -0.27536
v -2.80020 3.74400 0.48039
vn 0.452503 0.558139 0.695502
f 28//10 29//10 30//10
v -2.11789 -0.55000 2.34392
v -4.03946 2.23600 1.74547
v -4.42615 -0.55000 2.77132
vn 0.172543 0.319177 0.931856
f 31//11 32//11 33//11
v -2.11789 -0.55000 2.34392
v -2.52927 2.23600 1.50034
v -4.03946 2.23600 1.74547
vn 0.152486 0.306969 0.939424
f 34//12 35//12 36//12
v -2.52927 2.23600 1.50034
v -3.46604 3.74400 0.50962
v -4.03946 2.23600 1.74547
vn 0.128299 0.598985 0.790415
f 37//13 38//13 39//13
v -2.52927 2.23600 1.50034
v -2.80020 3.74400 0.48039
v -3.46604 3.74400 0.50962
vn 0.036202 0.564333 0.824753
f 40//14 41//14 42//14
v -2.80020 3.74400 0.48039
v -3.43450 5.20000 -0.27536
v -3.46604 3.74400 0.50962
vn 0.038624 0.473555 0.879917
f 43//15 44//15 45//15
v -4.42615 -0.55000 2.77132
v -5.56661 2.23600 1.17047
v -6.96936 -0.55000 2.32758
vn -0.154001 0.444124 0.882631
f 46//16 47//16 48//16
v -4.42615 -0.55000 2.77132
v -4.03946 2.23600 1.74547
v -5.56661 2.23600 1.17047
vn -0.327897 0.366176 0.870861
f 49//17 50//17 51//17
v -4.03946 2.23600 1.74547
v -4.06902 3.74400 0.33786
v -5.56661 2.23600 1.17047
vn -0.266284 0.654924 0.707225
f 52//18 53//18 54//18
v -4.03946 2.23600 1.74547
v -3.46604 3.74400 0.50962
v -4.06902 3.74400 0.33786
vn -0.204399 0.665805 0.717582
f 55//19 56//19 57//19
v -3.46604 3.74400 0.50962
v -3.43450 5.20000 -0.27536
v -4.06902 3.74400 0.33786
vn -0.242608 0.464445 0.851723
f 58//20 59//20 60//20
v -6.96936 -0.55000 2.32758
v -6.40244 2.23600 0.38917
v -8.16317 -0.55000 0.81527
vn -0.675778 0.508674 0.533456
f 61//21 62//21 63//21
v -6.96936 -0.55000 2.32758
v -5.56661 2.23600 1.17047
v -6.40244 2.23600 0.38917
vn -0.573273 0.543359 0.613286
f 64//22 65//22 66//22
v -5.56661 2.23600 1.17047
v -4.28078 3.74400 -0.01347
v -6.40244 2.23600 0.38917
vn -0.446799 0.756241 0.477985
f 67//23 68//23 69//23
v -5.56661 2.23600 1.17047
v -4.06902 3.74400 0.33786
v -4.28078 3.74400 -0.01347
vn -0.566024 0.750482 0.341163
f 70//24 71//24 72//24
v -4.06902 3.74400 0.33786
v -3.43450 5.20000 -0.27536
v -4.28078 3.74400 -0.01347
vn -0.737429 0.508566 0.444475
f 73//25 74//25 75//25
v -8.16317 -0.55000 0.81527
v -5.99911 2.23600 -0.51989
v -7.82218 -0.55000 -0.75156
vn -0.816613 0.549144 -0.177718
f 76//26 77//26 78//26
v -8.16317 -0.55000 0.81527
v -6.40244 2.23600 0.38917
v -5.99911 2.23600 -0.51989
vn -0.812419 0.458312 -0.360452
f 79//27 80//27 81//27
v -6.40244 2.23600 0.38917
v -4.43235 3.74400 -0.42839
v -5.99911 2.23600 -0.51989
vn -0.654706 0.697841 -0.290478
f 82//28 83//28 84//28
v -6.40244 2.23600 0.38917
v -4.28078 3.74400 -0.01347
v -4.43235 3.74400 -0.42839
vn -0.542574 0.816289 0.198209
f 85//29 86//29 87//29
v -4.28078 3.74400 -0.01347
v -3.43450 5.20000 -0.27536
v -4.43235 3.74400 -0.42839
vn -0.802705 0.519304 0.293238
f 88//30 89//30 90//30
v -7.82218 -0.55000 -0.75156
v -5.34921 2.23600 -1.24984
v -6.36296 -0.55000 -1.88224
vn -0.568240 0.373233 -0.733349
f 91//31 92//31 93//31
v -7.82218 -0.55000 -0.75156
v -5.99911 2.23600 -0.51989
v -5.34921 2.23600 -1.24984
vn -0.656070 0.477884 -0.584123
f 94//32 95//32 96//32
v -5.99911 2.23600 -0.51989
v -4.08084 3.74400 -0.81988
v -5.34921 2.23600 -1.24984
vn -0.578161 0.633052 -0.514757
f 97//33 98//33 99//33
v -5.99911 2.23600 -0.51989
v -4.43235 3.74400 -0.42839
v -4.08084 3.74400 -0.81988
vn -0.577180 0.631113 -0.518228
f 100//34 101//34 102//34
v -4.43235 3.74400 -0.42839
v -3.43450 5.20000 -0.27536
v -4.08084 3.74400 -0.81988
vn -0.643611 0.501824 -0.577873
f 103//35 104//35 105//35
v -6.36296 -0.55000 -1.88224
v -4.09134 2.23600 -1.69732
v -4.42887 -0.55000 -2.78336
vn -0.391506 0.374998 -0.840297
f 106//36 107//36 108//36
v -6.36296 -0.55000 -1.88224
v -5.34921 2.23600 -1.24984
v -4.09134 2.23600 -1.69732
vn -0.317730 0.318351 -0.893141
f 109//37 110//37 111//37
v -5.34921 2.23600 -1.24984
v -3.46752 3.74400 -0.86436
v -4.09134 2.23600 -1.69732
vn -0.279855 0.550297 -0.786673
f 112//38 113//38 114//38
v -5.34921 2.23600 -1.24984
v -4.08084 3.74400 -0.81988
v -3.46752 3.74400 -0.86436
vn -0.068369 0.326309 -0.942787
f 115//39 116//39 117//39
v -4.08084 3.74400 -0.81988
v -3.43450 5.20000 -0.27536
v -3.46752 3.74400 -0.86436
vn -0.067036 0.375472 -0.924406
f 118//40 119//40 120//40
v -4.42887 -0.55000 -2.78336
v -2.57342 2.23600 -1.54606
v -1.92383 -0.55000 -2.61433
vn 0.062546 0.370004 -0.926922
f 121//41 122//41 123//41
v -4.42887 -0.55000 -2.78336
v -4.09134 2.23600 -1.69732
v -2.57342 2.23600 -1.54606
vn 0.092815 0.351853 -0.931442
f 124//42 125//42 126//42
v -4.09134 2.23600 -1.69732
v -2.80955 3.74400 -0.90298
v -2.57342 2.23600 -1.54606
vn 0.090763 0.402642 -0.910847
f 127//43 128//43 129//43
v -4.09134 2.23600 -1.69732
v -3.46752 3.74400 -0.86436
v -2.80955 3.74400 -0.90298
vn -0.050780 0.498894 -0.865174
f 130//44 131//44 132//44
v -3.46752 3.74400 -0.86436
v -3.43450 5.20000 -0.27536
v -2.80955 3.74400 -0.90298
vn -0.054304 0.375515 -0.925224
f 133//45 134//45 135//45
v -1.92383 -0.55000 -2.61433
v -1.74384 2.23600 -1.00751
v 0.24687 -0.55000 -1.65503
vn 0.361340 0.448224 -0.817636
f 136//46 137//46 138//46
v -1.92383 -0.55000 -2.61433
v -2.57342 2.23600 -1.54606
v -1.74384 2.23600 -1.00751
vn 0.496812 0.409281 -0.765289
f 139//47 140//47 141//47
v -2.57342 2.23600 -1.54606
v -2.37399 3.74400 -0.56744
v -1.74384 2.23600 -1.00751
vn 0.492353 0.427068 -0.758420
f 142//48 143//48 144//48
v -2.57342 2.23600 -1.54606
v -2.80955 3.74400 -0.90298
v -2.37399 3.74400 -0.56744
vn 0.559949 0.397651 -0.726864
f 145//49 146//49 147//49
v -2.80955 3.74400 -0.90298
v -3.43450 5.20000 -0.27536
v -2.37399 3.74400 -0.56744
vn 0.522514 0.516650 -0.678271
f 148//50 149//50 150//50
v 0.24687 -0.55000 -1.65503
v -1.04429 2.23600 -0.02798
v 0.58861 -0.55000 0.00000
vn 0.850108 0.496491 -0.175535
f 151//51 152//51 153//51
v 0.24687 -0.55000 -1.65503
v -1.74384 2.23600 -1.00751
v -1.04429 2.23600 -0.02798
vn 0.661489 0.582457 -0.472415
f 154//52 155//52 156//52
v -1.74384 2.23600 -1.00751
v -2.04239 3.74400 -0.20714
v -1.04429 2.23600 -0.02798
vn 0.736611 0.425043 -0.526064
f 157//53 158//53 159//53
v -1.74384 2.23600 -1.00751
v -2.37399 3.74400 -0.56744
v -2.04239 3.74400 -0.20714
vn 0.656778 0.450849 -0.604465
f 160//54 161//54 162//54
v -2.37399 3.74400 -0.56744
v -3.43450 5.20000 -0.27536
v -2.04239 3.74400 -0.20714
vn 0.610777 0.557640 -0.562129
f 163//55 164//55 165//55
v 5.52698 -0.55000 0.30000
v 3.71325 4.04200 1.19439
v 5.16012 -0.55000 2.16864
vn 0.926162 0.330397 0.181829
f 166//56 167//56 168//56
v 5.52698 -0.55000 0.30000
v 4.37043 4.04200 0.03247
v 3.71325 4.04200 1.19439
vn 0.844847 0.240625 0.477843
f 169//57 170//57 171//57
v 4.37043 4.04200 0.03247
v 1.81949 6.76800 0.60320
v 3.71325 4.04200 1.19439
vn 0.709240 0.579709 0.401144
f 172//58 173//58 174//58
v 4.37043 4.04200 0.03247
v 2.14272 6.76800 0.14299
v 1.81949 6.76800 0.60320
vn 0.687549 0.542294 0.482900
f 175//59 176//59 177//59
v 2.14272 6.76800 0.14299
v 0.41414 9.40000 0.03602
v 1.81949 6.76800 0.60320
vn 0.713752 0.489134 0.501304
f 178//60 179//60 180//60
v 5.16012 -0.55000 2.16864
v 2.15810 4.04200 1.76143
v 2.76057 -0.55000 3.58678
vn 0.470930 0.378532 0.796830
f 181//61 182//61 183//61
v 5.16012 -0.55000 2.16864
v 3.71325 4.04200 1.19439
v 2.15810 4.04200 1.76143
vn 0.327451 0.293709 0.898060
f 184//62 185//62 186//62
v 3.71325 4.04200 1.19439
v 1.33884 6.76800 0.87129
v 2.15810 4.04200 1.76143
vn 0.316983 0.379141 0.869353
f 187//63 188//63 189//63
v 3.71325 4.04200 1.19439
v 1.81949 6.76800 0.60320
v 1.33884 6.76800 0.87129
vn 0.430795 0.466777 0.772357
f 190//64 191//64 192//64
v 1.81949 6.76800 0.60320
v 0.41414 9.40000 0.03602
v 1.33884 6.76800 0.87129
vn 0.444497 0.409070 0.796922
f 193//65 194//65 195//65
v 2.76057 -0.55000 3.58678
v 0.32622 4.04200 1.94318
v -0.66347 -0.55000 3.82051
vn 0.063377 0.365929 0.928482
f 196//66 197//66 198//66
v 2.76057 -0.55000 3.58678
v 2.15810 4.04200 1.76143
v 0.32622 4.04200 1.94318
vn 0.091397 0.378180 0.921209
f 199//67 200//67 201//67
v 2.15810 4.04200 1.76143
v 0.45493 6.76800 1.03699
v 0.32622 4.04200 1.94318
vn 0.093863 0.310066 0.946070
f 202//68 203//68 204//68
v 2.15810 4.04200 1.76143
v 1.33884 6.76800 0.87129
v 0.45493 6.76800 1.03699
vn 0.172444 0.352207 0.919899
f 205//69 206//69 207//69
v 1.33884 6.76800 0.87129
v 0.41414 9.40000 0.03602
v 0.45493 6.76800 1.03699
vn 0.172425 0.352478 0.919798
f 208//70 209//70 210//70
v -0.66347 -0.55000 3.82051
v -1.38130 4.04200 1.62366
v -3.58273 -0.55000 2.85908
vn -0.289884 0.375780 0.880203
f 211//71 212//71 213//71
v -0.66347 -0.55000 3.82051
v 0.32622 4.04200 1.94318
v -1.38130 4.04200 1.62366
vn -0.168262 0.403883 0.899203
f 214//72 215//72 216//72
v 0.32622 4.04200 1.94318
v -0.46280 6.76800 0.89856
v -1.38130 4.04200 1.62366
vn -0.175005 0.307736 0.935239
f 217//73 218//73 219//73
v 0.32622 4.04200 1.94318
v 0.45493 6.76800 1.03699
v -0.46280 6.76800 0.89856
vn -0.141395 0.318288 0.937390
f 220//74 221//74 222//74
v 0.45493 6.76800 1.03699
v 0.41414 9.40000 0.03602
v -0.46280 6.76800 0.89856
vn -0.139713 0.350089 0.926238
f 223//75 224//75 225//75
v -3.58273 -0.55000 2.85908
v -2.31382 4.04200 0.60984
v -5.15278 -0.55000 1.22135
vn -0.635587 0.474088 0.609319
f 226//76 227//76 228//76
v -3.58273 -0.55000 2.85908
v -1.38130 4.04200 1.62366
v -2.31382 4.04200 0.60984
vn -0.648973 0.471716 0.596924
f 229//77 230//77 231//77
v -1.38130 4.04200 1.62366
v -0.70108 6.76800 0.36613
v -2.31382 4.04200 0.60984
vn -0.659368 0.444309 0.606485
f 232//78 233//78 234//78
v -1.38130 4.04200 1.62366
v -0.46280 6.76800 0.89856
v -0.70108 6.76800 0.36613
vn -0.842684 0.384253 0.377139
f 235//79 236//79 237//79
v -0.46280 6.76800 0.89856
v 0.41414 9.40000 0.03602
v -0.70108 6.76800 0.36613
vn -0.836081 0.401192 0.374184
f 238//80 239//80 240//80
v -5.15278 -0.55000 1.22135
v -2.81859 4.04200 -0.56379
v -5.70272 -0.55000 -0.71601
vn -0.826665 0.511430 0.234659
f 241//81 242//81 243//81
v -5.15278 -0.55000 1.22135
v -2.31382 4.04200 0.60984
v -2.81859 4.04200 -0.56379
vn -0.780557 0.527279 0.335719
f 244//82 245//82 246//82
v -2.31382 4.04200 0.60984
v -0.88075 6.76800 -0.13706
v -2.81859 4.04200 -0.56379
vn -0.790783 0.508904 0.340117
f 247//83 248//83 249//83
v -2.31382 4.04200 0.60984
v -0.70108 6.76800 0.36613
v -0.88075 6.76800 -0.13706
vn -0.812100 0.506371 0.289969
f 250//84 251//84 252//84
v -0.70108 6.76800 0.36613
v 0.41414 9.40000 0.03602
v -0.88075 6.76800 -0.13706
vn -0.861626 0.403671 0.307653
f 253//85 254//85 255//85
v -5.70272 -0.55000 -0.71601
v -1.57064 4.04200 -1.40557
v -3.37552 -0.55000 -2.11891
vn -0.489394 0.318469 -0.811832
f 256//86 257//86 258//86
v -5.70272 -0.55000 -0.71601
v -2.81859 4.04200 -0.56379
v -1.57064 4.04200 -1.40557
vn -0.522963 0.354162 -0.775293
f 259//87 260//87 261//87
v -2.81859 4.04200 -0.56379
v -0.27287 6.76800 -0.46860
v -1.57064 4.04200 -1.40557
vn -0.489745 0.482707 -0.726047
f 262//88 263//88 264//88
v -2.81859 4.04200 -0.56379
v -0.88075 6.76800 -0.13706
v -0.27287 6.76800 -0.46860
vn -0.432039 0.431124 -0.792133
f 265//89 266//89 267//89
v -0.88075 6.76800 -0.13706
v 0.41414 9.40000 0.03602
v -0.27287 6.76800 -0.46860
vn -0.459468 0.281445 -0.842424
f 268//90 269//90 270//90
v -3.37552 -0.55000 -2.11891
v 0.28042 4.04200 -1.98667
v -0.62828 -0.55000 -3.07701
vn -0.316322 0.277962 -0.907016
f 271//91 272//91 273//91
v -3.37552 -0.55000 -2.11891
v -1.57064 4.04200 -1.40557
v 0.28042 4.04200 -1.98667
vn -0.289454 0.257003 -0.922044
f 274//92 275//92 276//92
v -1.57064 4.04200 -1.40557
v 0.45979 6.76800 -0.78300
v 0.28042 4.04200 -1.98667
vn -0.274050 0.403496 -0.872976
f 277//93 278//93 279//93
v -1.57064 4.04200 -1.40557
v -0.27287 6.76800 -0.46860
v 0.45979 6.76800 -0.78300
vn -0.352201 0.449781 -0.820763
f 280//94 281//94 282//94
v -0.27287 6.76800 -0.46860
v 0.41414 9.40000 0.03602
v 0.45979 6.76800 -0.78300
vn -0.379822 0.268844 -0.885132
f 283//95 284//95 285//95
v -0.62828 -0.55000 -3.07701
v 2.22902 4.04200 -1.95220
v 2.77748 -0.55000 -3.00849
vn 0.019593 0.226354 -0.973848
f 286//96 287//96 288//96
v -0.62828 -0.55000 -3.07701
v 0.28042 4.04200 -1.98667
v 2.22902 4.04200 -1.95220
vn 0.017221 0.227760 -0.973565
f 289//97 290//97 291//97
v 0.28042 4.04200 -1.98667
v 1.34730 6.76800 -0.68918
v 2.22902 4.04200 -1.95220
vn 0.016013 0.424597 -0.905241
f 292//98 293//98 294//98
v 0.28042 4.04200 -1.98667
v 0.45979 6.76800 -0.78300
v 1.34730 6.76800 -0.68918
vn 0.096498 0.396720 -0.912853
f 295//99 296//99 297//99
v 0.45979 6.76800 -0.78300
v 0.41414 9.40000 0.03602
v 1.34730 6.76800 -0.68918
vn 0.100374 0.297211 -0.949521
f 298//100 299//100 300//100
v 2.77748 -0.55000 -3.00849
v 3.78245 4.04200 -1.10230
v 4.57965 -0.55000 -1.34996
vn 0.668956 0.155337 -0.726889
f 301//101 302//101 303//101
v 2.77748 -0.55000 -3.00849
v 2.22902 4.04200 -1.95220
v 3.78245 4.04200 -1.10230
vn 0.464625 0.250843 -0.849236
f 304//102 305//102 306//102
v 2.22902 4.04200 -1.95220
v 1.90927 6.76800 -0.40262
v 3.78245 4.04200 -1.10230
vn 0.419671 0.485262 -0.767070
f 307//103 308//103 309//103
v 2.22902 4.04200 -1.95220
v 1.34730 6.76800 -0.68918
v 1.90927 6.76800 -0.40262
vn 0.396407 0.488398 -0.777386
f 310//104 311//104 312//104
v 1.34730 6.76800 -0.68918
v 0.41414 9.40000 0.03602
v 1.90927 6.76800 -0.40262
vn 0.420828 0.376593 -0.825277
f 313//105 314//105 315//105
v 4.57965 -0.55000 -1.34996
v 4.37043 4.04200 0.03247
v 5.52698 -0.55000 0.30000
vn 0.852073 0.186104 -0.489221
f 316//106 317//106 318//106
v 4.57965 -0.55000 -1.34996
v 3.78245 4.04200 -1.10230
v 4.37043 4.04200 0.03247
vn 0.874007 0.176156 -0.452859
f 319//107 320//107 321//107
v 3.78245 4.04200 -1.10230
v 2.14272 6.76800 0.14299
v 4.37043 4.04200 0.03247
vn 0.712276 0.597040 -0.369060
f 322//108 323//108 324//108
v 3.78245 4.04200 -1.10230
v 1.90927 6.76800 -0.40262
v 2.14272 6.76800 0.14299
vn 0.741608 0.591043 -0.317309
f 325//109 326//109 327//109
v 1.90927 6.76800 -0.40262
v 0.41414 9.40000 0.03602
v 2.14272 6.76800 0.14299
vn 0.792588 0.506754 -0.339122
f 328//110 329//110 330//110
v 9.00843 -0.55000 -0.10000
v 7.59589 2.58000 1.09904
v 9.21979 -0.55000 1.65492
vn 0.890186 0.442803 -0.107212
f 331//111 332//111 333//111
v 9.00843 -0.55000 -0.10000
v 8.06484 2.58000 0.11931
v 7.59589 2.58000 1.09904
vn 0.876758 0.234910 0.419658
f 334//112 335//112 336//112
v 8.06484 2.58000 0.11931
v 5.92572 4.32000 0.33670
v 7.59589 2.58000 1.09904
vn 0.620530 0.725758 0.297015
f 337//113 338//113 339//113
v 8.06484 2.58000 0.11931
v 6.08158 4.32000 -0.06996
v 5.92572 4.32000 0.33670
vn 0.627107 0.740922 0.240358
f 340//114 341//114 342//114
v 6.08158 4.32000 -0.06996
v 5.12764 6.00000 -0.18173
v 5.92572 4.32000 0.33670
vn 0.816787 0.484617 0.313059
f 343//115 344//115 345//115
v 9.21979 -0.55000 1.65492
v 6.46550 2.58000 1.57552
v 6.93019 -0.55000 2.85041
vn 0.425238 0.394852 0.814411
f 346//116 347//116 348//116
v 9.21979 -0.55000 1.65492
v 7.59589 2.58000 1.09904
v 6.46550 2.58000 1.57552
vn 0.364860 0.343019 0.865572
f 349//117 350//117 351//117
v 7.59589 2.58000 1.09904
v 5.41618 4.32000 0.64282
v 6.46550 2.58000 1.57552
vn 0.313997 0.588657 0.744908
f 352//118 353//118 354//118
v 7.59589 2.58000 1.09904
v 5.92572 4.32000 0.33670
v 5.41618 4.32000 0.64282
vn 0.388552 0.656315 0.646745
f 355//119 356//119 357//119
v 5.92572 4.32000 0.33670
v 5.12764 6.00000 -0.18173
v 5.41618 4.32000 0.64282
vn 0.458924 0.453735 0.763880
f 358//120 359//120 360//120
v 6.93019 -0.55000 2.85041
v 4.82035 2.58000 1.92312
v 3.94341 -0.55000 3.07926
vn 0.072178 0.327731 0.942010
f 361//121 362//121 363//121
v 6.93019 -0.55000 2.85041
v 6.46550 2.58000 1.57552
v 4.82035 2.58000 1.92312
vn 0.189965 0.394411 0.899085
f 364//122 365//122 366//122
v 6.46550 2.58000 1.57552
v 4.69953 4.32000 0.76341
v 4.82035 2.58000 1.92312
vn 0.172020 0.554581 0.814155
f 367//123 368//123 369//123
v 6.46550 2.58000 1.57552
v 5.41618 4.32000 0.64282
v 4.69953 4.32000 0.76341
vn 0.140479 0.532234 0.834861
f 370//124 371//124 372//124
v 5.41618 4.32000 0.64282
v 5.12764 6.00000 -0.18173
v 4.69953 4.32000 0.76341
vn 0.147670 0.456091 0.877596
f 373//125 374//125 375//125
v 3.94341 -0.55000 3.07926
v 3.24478 2.58000 1.47981
v 1.32416 -0.55000 2.25379
vn -0.277103 0.387455 0.879257
f 376//126 377//126 378//126
v 3.94341 -0.55000 3.07926
v 4.82035 2.58000 1.92312
v 3.24478 2.58000 1.47981
vn -0.248688 0.396152 0.883865
f 379//127 380//127 381//127
v 4.82035 2.58000 1.92312
v 4.09866 4.32000 0.47251
v 3.24478 2.58000 1.47981
vn -0.222909 0.568031 0.792245
f 382//128 383//128 384//128
v 4.82035 2.58000 1.92312
v 4.69953 4.32000 0.76341
v 4.09866 4.32000 0.47251
vn -0.378632 0.494966 0.782078
f 385//129 386//129 387//129
v 4.69953 4.32000 0.76341
v 5.12764 6.00000 -0.18173
v 4.09866 4.32000 0.47251
vn -0.370778 0.525344 0.765857
f 388//130 389//130 390//130
v 1.32416 -0.55000 2.25379
v 2.67347 2.58000 0.63659
v -0.04907 -0.55000 0.74248
vn -0.615851 0.554612 0.559583
f 391//131 392//131 393//131
v 1.32416 -0.55000 2.25379
v 3.24478 2.58000 1.47981
v 2.67347 2.58000 0.63659
vn -0.695175 0.543039 0.471000
f 394//132 395//132 396//132
v 3.24478 2.58000 1.47981
v 3.66730 4.32000 0.15903
v 2.67347 2.58000 0.63659
vn -0.701469 0.531098 0.475264
f 397//133 398//133 399//133
v 3.24478 2.58000 1.47981
v 4.09866 4.32000 0.47251
v 3.66730 4.32000 0.15903
vn -0.468772 0.603467 0.645043
f 400//134 401//134 402//134
v 4.09866 4.32000 0.47251
v 5.12764 6.00000 -0.18173
v 3.66730 4.32000 0.15903
vn -0.487245 0.559529 0.670462
f 403//135 404//135 405//135
v -0.04907 -0.55000 0.74248
v 2.67235 2.58000 -0.31495
v 0.61744 -0.55000 -0.82424
vn -0.765239 0.555366 -0.325544
f 406//136 407//136 408//136
v -0.04907 -0.55000 0.74248
v 2.67347 2.58000 0.63659
v 2.67235 2.58000 -0.31495
vn -0.754495 0.656305 0.000889
f 409//137 410//137 411//137
v 2.67347 2.58000 0.63659
v 3.75282 4.32000 -0.26457
v 2.67235 2.58000 -0.31495
vn -0.849550 0.527508 0.001001
f 412//138 413//138 414//138
v 2.67347 2.58000 0.63659
v 3.66730 4.32000 0.15903
v 3.75282 4.32000 -0.26457
vn -0.874785 0.451180 -0.176602
f 415//139 416//139 417//139
v 3.66730 4.32000 0.15903
v 5.12764 6.00000 -0.18173
v 3.75282 4.32000 -0.26457
vn -0.760981 0.630323 -0.153627
f 418//140 419//140 420//140
v 0.61744 -0.55000 -0.82424
v 3.37852 2.58000 -1.08992
v 1.52682 -0.55000 -2.31248
vn -0.696273 0.578093 -0.425456
f 421//141 422//141 423//141
v 0.61744 -0.55000 -0.82424
v 2.67235 2.58000 -0.31495
v 3.37852 2.58000 -1.08992
vn -0.635258 0.511248 -0.578855
f 424//142 425//142 426//142
v 2.67235 2.58000 -0.31495
v 4.06098 4.32000 -0.66010
v 3.37852 2.58000 -1.08992
vn -0.672462 0.415120 -0.612756
f 427//143 428//143 429//143
v 2.67235 2.58000 -0.31495
v 3.75282 4.32000 -0.26457
v 4.06098 4.32000 -0.66010
vn -0.703399 0.452648 -0.548033
f 430//144 431//144 432//144
v 3.75282 4.32000 -0.26457
v 5.12764 6.00000 -0.18173
v 4.06098 4.32000 -0.66010
vn -0.653570 0.559957 -0.509210
f 433//145 434//145 435//145
v 1.52682 -0.55000 -2.31248
v 4.81325 2.58000 -1.56838
v 4.03352 -0.55000 -2.90058
vn -0.206613 0.426302 -0.880669
f 436//146 437//146 438//146
v 1.52682 -0.55000 -2.31248
v 3.37852 2.58000 -1.08992
v 4.81325 2.58000 -1.56838
vn -0.276293 0.487065 -0.828510
f 439//147 440//147 441//147
v 3.37852 2.58000 -1.08992
v 4.67863 4.32000 -0.77261
v 4.81325 2.58000 -1.56838
vn -0.292772 0.378859 -0.877924
f 442//148 443//148 444//148
v 3.37852 2.58000 -1.08992
v 4.06098 4.32000 -0.66010
v 4.67863 4.32000 -0.77261
vn -0.171009 0.298982 -0.938811
f 445//149 446//149 447//149
v 4.06098 4.32000 -0.66010
v 5.12764 6.00000 -0.18173
v 4.67863 4.32000 -0.77261
vn -0.166737 0.366506 -0.915354
f 448//150 449//150 450//150
v 4.03352 -0.55000 -2.90058
v 6.44778 2.58000 -1.56450
v 6.81378 -0.55000 -2.89640
vn 0.001383 0.391688 -0.920097
f 451//151 452//151 453//151
v 4.03352 -0.55000 -2.90058
v 4.81325 2.58000 -1.56838
v 6.44778 2.58000 -1.56450
vn 0.002186 0.391163 -0.920319
f 454//152 455//152 456//152
v 4.81325 2.58000 -1.56838
v 5.38607 4.32000 -0.83241
v 6.44778 2.58000 -1.56450
vn 0.002188 0.388945 -0.921258
f 457//153 458//153 459//153
v 4.81325 2.58000 -1.56838
v 4.67863 4.32000 -0.77261
v 5.38607 4.32000 -0.83241
vn -0.076838 0.409756 -0.908953
f 460//154 461//154 462//154
v 4.67863 4.32000 -0.77261
v 5.12764 6.00000 -0.18173
v 5.38607 4.32000 -0.83241
vn -0.078924 0.349461 -0.933621
f 463//155 464//155 465//155
v 6.81378 -0.55000 -2.89640
v 7.53361 2.58000 -0.78303
v 9.00237 -0.55000 -1.77050
vn 0.409946 0.443771 -0.796876
f 466//156 467//156 468//156
v 6.81378 -0.55000 -2.89640
v 6.44778 2.58000 -1.56450
v 7.53361 2.58000 -0.78303
vn 0.539782 0.382265 -0.750006
f 469//157 470//157 471//157
v 6.44778 2.58000 -1.56450
v 6.06307 4.32000 -0.45146
v 7.53361 2.58000 -0.78303
vn 0.490144 0.544014 -0.681035
f 472//158 473//158 474//158
v 6.44778 2.58000 -1.56450
v 5.38607 4.32000 -0.83241
v 6.06307 4.32000 -0.45146
vn 0.408178 0.554262 -0.725386
f 475//159 476//159 477//159
v 5.38607 4.32000 -0.83241
v 5.12764 6.00000 -0.18173
v 6.06307 4.32000 -0.45146
vn 0.453265 0.381707 -0.805513
f 478//160 479//160 480//160
v 9.00237 -0.55000 -1.77050
v 8.06484 2.58000 0.11931
v 9.00843 -0.55000 -0.10000
vn 0.957366 0.288858 -0.003473
f 481//161 482//161 483//161
v 9.00237 -0.55000 -1.77050
v 7.53361 2.58000 -0.78303
v 8.06484 2.58000 0.11931
vn 0.750460 0.491540 -0.441813
f 484//162 485//162 486//162
v 7.53361 2.58000 -0.78303
v 6.08158 4.32000 -0.06996
v 8.06484 2.58000 0.11931
vn 0.631968 0.679847 -0.372054
f 487//163 488//163 489//163
v 7.53361 2.58000 -0.78303
v 6.06307 4.32000 -0.45146
v 6.08158 4.32000 -0.06996
vn 0.759774 0.649141 -0.036872
f 490//164 491//164 492//164
v 6.06307 4.32000 -0.45146
v 5.12764 6.00000 -0.18173
v 6.08158 4.32000 -0.06996
vn 0.870019 0.491207 -0.042222
f 493//165 494//165 495//165
