# Low-poly distant mountain ridge
mtllib lowpoly_mountains.mtl
o mountain_ridge_wide
usemtl mountain
s off
v 1.68602 -0.55000 0.00000
v -0.96286 2.62300 0.91103
v 1.19122 -0.55000 1.86276
vn 0.779454 0.591257 0.207041
f 1//1 2//1 3//1
v 1.68602 -0.55000 0.00000
v -0.31799 2.62300 -0.03198
v -0.96286 2.62300 0.91103
vn 0.730239 0.466239 0.499372
f 4//2 5//2 6//2
v -0.31799 2.62300 -0.03198
v -1.96784 4.39200 0.24298
v -0.96286 2.62300 0.91103
vn 0.681914 0.563502 0.466325
f 7//3 8//3 9//3
v -0.31799 2.62300 -0.03198
v -1.54293 4.39200 -0.23673
v -1.96784 4.39200 0.24298
vn 0.643284 0.511392 0.569792
f 10//4 11//4 12//4
v -1.54293 4.39200 -0.23673
v -3.25144 6.10000 -0.31470
v -1.96784 4.39200 0.24298
vn 0.590521 0.614570 0.523057
f 13//5 14//5 15//5
v 1.19122 -0.55000 1.86276
v -2.14047 2.62300 1.71467
v -1.63559 -0.55000 2.67877
vn 0.262897 0.318548 0.910721
f 16//6 17//6 18//6
v 1.19122 -0.55000 1.86276
v -0.96286 2.62300 0.91103
v -2.14047 2.62300 1.71467
vn 0.476840 0.533298 0.698725
f 19//7 20//7 21//7
v -0.96286 2.62300 0.91103
v -2.47297 4.39200 0.54902
v -2.14047 2.62300 1.71467
vn 0.472573 0.545120 0.692473
f 22//8 23//8 24//8
v -0.96286 2.62300 0.91103
v -1.96784 4.39200 0.24298
v -2.47297 4.39200 0.54902
vn 0.440920 0.525320 0.727756
f 25//9 26//9 27//9
v -1.96784 4.39200 0.24298
v -3.25144 6.10000 -0.31470
v -2.47297 4.39200 0.54902
vn 0.430751 0.555855 0.710971
f 28//10 29//10 30//10
v -1.63559 -0.55000 2.67877
v -3.99388 2.62300 1.99482
v -4.46845 -0.55000 3.16723
vn 0.160937 0.320804 0.933372
f 31//11 32//11 33//11
v -1.63559 -0.55000 2.67877
v -2.14047 2.62300 1.71467
v -3.99388 2.62300 1.99482
vn 0.142171 0.308408 0.940570
f 34//12 35//12 36//12
v -2.14047 2.62300 1.71467
v -3.29014 4.39200 0.58242
v -3.99388 2.62300 1.99482
vn 0.120714 0.589609 0.798617
f 37//13 38//13 39//13
v -2.14047 2.62300 1.71467
v -2.47297 4.39200 0.54902
v -3.29014 4.39200 0.58242
vn 0.033992 0.554352 0.831588
f 40//14 41//14 42//14
v -2.47297 4.39200 0.54902
v -3.25144 6.10000 -0.31470
v -3.29014 4.39200 0.58242
vn 0.036178 0.464055 0.885067
f 43//15 44//15 45//15
v -4.46845 -0.55000 3.16723
v -5.86811 2.62300 1.33768
v -7.58966 -0.55000 2.66010
vn -0.143536 0.446061 0.883418
f 46//16 47//16 48//16
v -4.46845 -0.55000 3.16723
v -3.99388 2.62300 1.99482
v -5.86811 2.62300 1.33768
vn -0.307402 0.369923 0.876733
f 49//17 50//17 51//17
v -3.99388 2.62300 1.99482
v -4.03016 4.39200 0.38613
v -5.86811 2.62300 1.33768
vn -0.251934 0.648256 0.718535
f 52//18 53//18 54//18
v -3.99388 2.62300 1.99482
v -3.29014 4.39200 0.58242
v -4.03016 4.39200 0.38613
vn -0.193071 0.657962 0.727880
f 55//19 56//19 57//19
v -3.29014 4.39200 0.58242
v -3.25144 6.10000 -0.31470
v -4.03016 4.39200 0.38613
vn -0.228073 0.456792 0.859839
f 58//20 59//20 60//20
v -7.58966 -0.55000 2.66010
v -6.89390 2.62300 0.44477
v -9.05480 -0.55000 0.93174
vn -0.648678 0.526159 0.549886
f 61//21 62//21 63//21
v -7.58966 -0.55000 2.66010
v -5.86811 2.62300 1.33768
v -6.89390 2.62300 0.44477
vn -0.545306 0.556951 0.626456
f 64//22 65//22 66//22
v -5.86811 2.62300 1.33768
v -4.29005 4.39200 -0.01539
v -6.89390 2.62300 0.44477
vn -0.428141 0.758139 0.491855
f 67//23 68//23 69//23
v -5.86811 2.62300 1.33768
v -4.03016 4.39200 0.38613
v -4.29005 4.39200 -0.01539
vn -0.546922 0.758657 0.353999
f 70//24 71//24 72//24
v -4.03016 4.39200 0.38613
v -3.25144 6.10000 -0.31470
v -4.29005 4.39200 -0.01539
vn -0.718048 0.518078 0.464761
f 73//25 74//25 75//25
v -9.05480 -0.55000 0.93174
v -6.39891 2.62300 -0.59416
v -8.63631 -0.55000 -0.85892
vn -0.795628 0.576543 -0.185941
f 76//26 77//26 78//26
v -9.05480 -0.55000 0.93174
v -6.89390 2.62300 0.44477
v -6.39891 2.62300 -0.59416
vn -0.791423 0.481108 -0.377073
f 79//27 80//27 81//27
v -6.89390 2.62300 0.44477
v -4.47607 4.39200 -0.48958
v -6.39891 2.62300 -0.59416
vn -0.636218 0.709465 -0.303126
f 82//28 83//28 84//28
v -6.89390 2.62300 0.44477
v -4.29005 4.39200 -0.01539
v -4.47607 4.39200 -0.48958
vn -0.524769 0.825977 0.205864
f 85//29 86//29 87//29
v -4.29005 4.39200 -0.01539
v -3.25144 6.10000 -0.31470
v -4.47607 4.39200 -0.48958
vn -0.787623 0.533087 0.308981
f 88//30 89//30 90//30
v -8.63631 -0.55000 -0.85892
v -5.60130 2.62300 -1.42839
v -6.84545 -0.55000 -2.15114
vn -0.540608 0.382634 -0.749223
f 91//31 92//31 93//31
v -8.63631 -0.55000 -0.85892
v -6.39891 2.62300 -0.59416
v -5.60130 2.62300 -1.42839
vn -0.628667 0.493452 -0.601068
f 94//32 95//32 96//32
v -6.39891 2.62300 -0.59416
v -4.04467 4.39200 -0.93701
v -5.60130 2.62300 -1.42839
vn -0.556729 0.637748 -0.532288
f 97//33 98//33 99//33
v -6.39891 2.62300 -0.59416
v -4.47607 4.39200 -0.48958
v -4.04467 4.39200 -0.93701
vn -0.555702 0.635701 -0.535798
f 100//34 101//34 102//34
v -4.47607 4.39200 -0.48958
v -3.25144 6.10000 -0.31470
v -4.04467 4.39200 -0.93701
vn -0.620765 0.506373 -0.598530
f 103//35 104//35 105//35
v -6.84545 -0.55000 -2.15114
v -4.05756 2.62300 -1.93979
v -4.47179 -0.55000 -3.18099
vn -0.368163 0.379999 -0.848562
f 106//36 107//36 108//36
v -6.84545 -0.55000 -2.15114
v -5.60130 2.62300 -1.42839
v -4.05756 2.62300 -1.93979
vn -0.297774 0.321504 -0.898869
f 109//37 110//37 111//37
v -5.60130 2.62300 -1.42839
v -3.29195 4.39200 -0.98784
v -4.05756 2.62300 -1.93979
vn -0.264035 0.543174 -0.797024
f 112//38 113//38 114//38
v -5.60130 2.62300 -1.42839
v -4.04467 4.39200 -0.93701
v -3.29195 4.39200 -0.98784
vn -0.063859 0.318867 -0.945646
f 115//39 116//39 117//39
v -4.04467 4.39200 -0.93701
v -3.25144 6.10000 -0.31470
v -3.29195 4.39200 -0.98784
vn -0.062669 0.367229 -0.928017
f 118//40 119//40 120//40
v -4.47179 -0.55000 -3.18099
v -2.19465 2.62300 -1.76693
v -1.39743 -0.55000 -2.98781
vn 0.058231 0.371207 -0.926722
f 121//41 122//41 123//41
v -4.47179 -0.55000 -3.18099
v -4.05756 2.62300 -1.93979
v -2.19465 2.62300 -1.76693
vn 0.086443 0.353123 -0.931575
f 124//42 125//42 126//42
v -4.05756 2.62300 -1.93979
v -2.48445 4.39200 -1.03197
v -2.19465 2.62300 -1.76693
vn 0.084917 0.394114 -0.915130
f 127//43 128//43 129//43
v -4.05756 2.62300 -1.93979
v -3.29195 4.39200 -0.98784
v -2.48445 4.39200 -1.03197
vn -0.047597 0.489233 -0.870854
f 130//44 131//44 132//44
v -3.29195 4.39200 -0.98784
v -3.25144 6.10000 -0.31470
v -2.48445 4.39200 -1.03197
vn -0.050761 0.367232 -0.928743
f 133//45 134//45 135//45
v -1.39743 -0.55000 -2.98781
v -1.17653 2.62300 -1.15144
v 1.26661 -0.55000 -1.89146
vn 0.339201 0.453408 -0.824235
f 136//46 137//46 138//46
v -1.39743 -0.55000 -2.98781
v -2.19465 2.62300 -1.76693
v -1.17653 2.62300 -1.15144
vn 0.470133 0.417352 -0.777684
f 139//47 140//47 141//47
v -2.19465 2.62300 -1.76693
v -1.94990 4.39200 -0.64851
v -1.17653 2.62300 -1.15144
vn 0.468302 0.424973 -0.774656
f 142//48 143//48 144//48
v -2.19465 2.62300 -1.76693
v -2.48445 4.39200 -1.03197
v -1.94990 4.39200 -0.64851
vn 0.534893 0.397406 -0.745626
f 145//49 146//49 147//49
v -2.48445 4.39200 -1.03197
v -3.25144 6.10000 -0.31470
v -1.94990 4.39200 -0.64851
vn 0.499173 0.516374 -0.695833
f 148//50 149//50 150//50
v 1.26661 -0.55000 -1.89146
v -0.31799 2.62300 -0.03198
v 1.68602 -0.55000 0.00000
vn 0.831820 0.523503 -0.184445
f 151//51 152//51 153//51
v 1.26661 -0.55000 -1.89146
v -1.17653 2.62300 -1.15144
v -0.31799 2.62300 -0.03198
vn 0.633920 0.601489 -0.486165
f 154//52 155//52 156//52
v -1.17653 2.62300 -1.15144
v -1.54293 4.39200 -0.23673
v -0.31799 2.62300 -0.03198
vn 0.715638 0.432019 -0.548837
f 157//53 158//53 159//53
v -1.17653 2.62300 -1.15144
v -1.94990 4.39200 -0.64851
v -1.54293 4.39200 -0.23673
vn 0.633398 0.454888 -0.626006
f 160//54 161//54 162//54
v -1.94990 4.39200 -0.64851
v -3.25144 6.10000 -0.31470
v -1.54293 4.39200 -0.23673
vn 0.588320 0.561952 -0.581454
f 163//55 164//55 165//55
v 6.96989 -0.55000 0.20000
v 4.93726 3.22500 1.12069
v 6.55876 -0.55000 2.12360
vn 0.883130 0.429481 0.188754
f 166//56 167//56 168//56
v 6.96989 -0.55000 0.20000
v 5.67375 3.22500 -0.07540
v 4.93726 3.22500 1.12069
vn 0.808479 0.313907 0.497820
f 169//57 170//57 171//57
v 5.67375 3.22500 -0.07540
v 2.81494 5.40000 0.51212
v 4.93726 3.22500 1.12069
vn 0.608895 0.699054 0.374926
f 172//58 173//58 174//58
v 5.67375 3.22500 -0.07540
v 3.17718 5.40000 0.03837
v 2.81494 5.40000 0.51212
vn 0.596338 0.660656 0.455976
f 175//59 176//59 177//59
v 3.17718 5.40000 0.03837
v 1.23998 7.50000 -0.07175
v 2.81494 5.40000 0.51212
vn 0.631044 0.607425 0.482513
f 178//60 179//60 180//60
v 6.55876 -0.55000 2.12360
v 3.19442 3.22500 1.70441
v 3.86961 -0.55000 3.58345
vn 0.422807 0.463297 0.778839
f 181//61 182//61 183//61
v 6.55876 -0.55000 2.12360
v 4.93726 3.22500 1.12069
v 3.19442 3.22500 1.70441
vn 0.296045 0.361993 0.883922
f 184//62 185//62 186//62
v 4.93726 3.22500 1.12069
v 2.27628 5.40000 0.78809
v 3.19442 3.22500 1.70441
vn 0.280196 0.470736 0.836599
f 187//63 188//63 189//63
v 4.93726 3.22500 1.12069
v 2.81494 5.40000 0.51212
v 2.27628 5.40000 0.78809
vn 0.374611 0.570126 0.731179
f 190//64 191//64 192//64
v 2.81494 5.40000 0.51212
v 1.23998 7.50000 -0.07175
v 2.27628 5.40000 0.78809
vn 0.392818 0.507777 0.766718
f 193//65 194//65 195//65
v 3.86961 -0.55000 3.58345
v 1.14145 3.22500 1.89150
v 0.03232 -0.55000 3.82405
vn 0.056137 0.441855 0.895329
f 196//66 197//66 198//66
v 3.86961 -0.55000 3.58345
v 3.19442 3.22500 1.70441
v 1.14145 3.22500 1.89150
vn 0.080786 0.455695 0.886463
f 199//67 200//67 201//67
v 3.19442 3.22500 1.70441
v 1.28570 5.40000 0.95866
v 1.14145 3.22500 1.89150
vn 0.083643 0.388097 0.917815
f 202//68 203//68 204//68
v 3.19442 3.22500 1.70441
v 2.27628 5.40000 0.78809
v 1.28570 5.40000 0.95866
vn 0.152575 0.437708 0.886077
f 205//69 206//69 207//69
v 2.27628 5.40000 0.78809
v 1.23998 7.50000 -0.07175
v 1.28570 5.40000 0.95866
vn 0.152549 0.438019 0.885928
f 208//70 209//70 210//70
v 0.03232 -0.55000 3.82405
v -0.77215 3.22500 1.56259
v -3.23926 -0.55000 2.83435
vn -0.257769 0.455523 0.852088
f 211//71 212//71 213//71
v 0.03232 -0.55000 3.82405
v 1.14145 3.22500 1.89150
v -0.77215 3.22500 1.56259
vn -0.148159 0.484807 0.861981
f 214//72 215//72 216//72
v 1.14145 3.22500 1.89150
v 0.25721 5.40000 0.81616
v -0.77215 3.22500 1.56259
vn -0.156272 0.385975 0.909177
f 217//73 218//73 219//73
v 1.14145 3.22500 1.89150
v 1.28570 5.40000 0.95866
v 0.25721 5.40000 0.81616
vn -0.125900 0.398074 0.908673
f 220//74 221//74 222//74
v 1.28570 5.40000 0.95866
v 1.23998 7.50000 -0.07175
v 0.25721 5.40000 0.81616
vn -0.123580 0.434954 0.891932
f 223//75 224//75 225//75
v -3.23926 -0.55000 2.83435
v -1.81721 3.22500 0.51895
v -4.99880 -0.55000 1.14845
vn -0.565845 0.575377 0.590560
f 226//76 227//76 228//76
v -3.23926 -0.55000 2.83435
v -0.77215 3.22500 1.56259
v -1.81721 3.22500 0.51895
vn -0.578841 0.573565 0.579626
f 229//77 230//77 231//77
v -0.77215 3.22500 1.56259
v -0.00983 5.40000 0.26808
v -1.81721 3.22500 0.51895
vn -0.587369 0.555931 0.588165
f 232//78 233//78 234//78
v -0.77215 3.22500 1.56259
v 0.25721 5.40000 0.81616
v -0.00983 5.40000 0.26808
vn -0.779065 0.498974 0.379583
f 235//79 236//79 237//79
v 0.25721 5.40000 0.81616
v 1.23998 7.50000 -0.07175
v -0.00983 5.40000 0.26808
vn -0.768854 0.518202 0.374607
f 238//80 239//80 240//80
v -4.99880 -0.55000 1.14845
v -2.38290 3.22500 -0.68919
v -5.61512 -0.55000 -0.84589
vn -0.743952 0.627439 0.229905
f 241//81 242//81 243//81
v -4.99880 -0.55000 1.14845
v -1.81721 3.22500 0.51895
v -2.38290 3.22500 -0.68919
vn -0.695505 0.640482 0.325662
f 244//82 245//82 246//82
v -1.81721 3.22500 0.51895
v -0.21119 5.40000 -0.24991
v -2.38290 3.22500 -0.68919
vn -0.700772 0.633443 0.328128
f 247//83 248//83 249//83
v -1.81721 3.22500 0.51895
v -0.00983 5.40000 0.26808
v -0.21119 5.40000 -0.24991
vn -0.722035 0.632368 0.280671
f 250//84 251//84 252//84
v -0.00983 5.40000 0.26808
v 1.23998 7.50000 -0.07175
v -0.21119 5.40000 -0.24991
vn -0.794518 0.522834 0.308846
f 253//85 254//85 255//85
v -5.61512 -0.55000 -0.84589
v -0.98434 3.22500 -1.55573
v -3.00705 -0.55000 -2.29005
vn -0.445065 0.394823 -0.803761
f 256//86 257//86 258//86
v -5.61512 -0.55000 -0.84589
v -2.38290 3.22500 -0.68919
v -0.98434 3.22500 -1.55573
vn -0.473664 0.437292 -0.764472
f 259//87 260//87 261//87
v -2.38290 3.22500 -0.68919
v 0.47006 5.40000 -0.59121
v -0.98434 3.22500 -1.55573
vn -0.425572 0.589168 -0.686855
f 262//88 263//88 264//88
v -2.38290 3.22500 -0.68919
v -0.21119 5.40000 -0.24991
v 0.47006 5.40000 -0.59121
vn -0.379355 0.531714 -0.757212
f 265//89 266//89 267//89
v -0.21119 5.40000 -0.24991
v 1.23998 7.50000 -0.07175
v 0.47006 5.40000 -0.59121
vn -0.417958 0.359602 -0.834265
f 268//90 269//90 270//90
v -3.00705 -0.55000 -2.29005
v 1.09012 3.22500 -2.15392
v 0.07176 -0.55000 -3.27634
vn -0.286539 0.343250 -0.894469
f 271//91 272//91 273//91
v -3.00705 -0.55000 -2.29005
v -0.98434 3.22500 -1.55573
v 1.09012 3.22500 -2.15392
vn -0.262690 0.317960 -0.910986
f 274//92 275//92 276//92
v -0.98434 3.22500 -1.55573
v 1.29115 5.40000 -0.91485
v 1.09012 3.22500 -2.15392
vn -0.240401 0.497161 -0.833690
f 277//93 278//93 279//93
v -0.98434 3.22500 -1.55573
v 0.47006 5.40000 -0.59121
v 1.29115 5.40000 -0.91485
vn -0.306368 0.549549 -0.777261
f 280//94 281//94 282//94
v 0.47006 5.40000 -0.59121
v 1.23998 7.50000 -0.07175
v 1.29115 5.40000 -0.91485
vn -0.344523 0.342523 -0.874061
f 283//95 284//95 285//95
v 0.07176 -0.55000 -3.27634
v 3.27390 3.22500 -2.11844
v 3.88856 -0.55000 -3.20580
vn 0.017741 0.279412 -0.960007
f 286//96 287//96 288//96
v 0.07176 -0.55000 -3.27634
v 1.09012 3.22500 -2.15392
v 3.27390 3.22500 -2.11844
vn 0.015591 0.281097 -0.959553
f 289//97 290//97 291//97
v 1.09012 3.22500 -2.15392
v 2.28576 5.40000 -0.81828
v 3.27390 3.22500 -2.11844
vn 0.013900 0.517687 -0.855457
f 292//98 293//98 294//98
v 1.09012 3.22500 -2.15392
v 1.29115 5.40000 -0.91485
v 2.28576 5.40000 -0.81828
vn 0.084393 0.487331 -0.869130
f 295//99 296//99 297//99
v 1.29115 5.40000 -0.91485
v 1.23998 7.50000 -0.07175
v 2.28576 5.40000 -0.81828
vn 0.089673 0.372954 -0.923506
f 298//100 299//100 300//100
v 3.88856 -0.55000 -3.20580
v 5.01482 3.22500 -1.24354
v 5.90823 -0.55000 -1.49848
vn 0.632509 0.200224 -0.748227
f 301//101 302//101 303//101
v 3.88856 -0.55000 -3.20580
v 3.27390 3.22500 -2.11844
v 5.01482 3.22500 -1.24354
vn 0.426354 0.313792 -0.848385
f 304//102 305//102 306//102
v 3.27390 3.22500 -2.11844
v 2.91556 5.40000 -0.52329
v 5.01482 3.22500 -1.24354
vn 0.362802 0.589236 -0.721925
f 307//103 308//103 309//103
v 3.27390 3.22500 -2.11844
v 2.28576 5.40000 -0.81828
v 2.91556 5.40000 -0.52329
vn 0.341935 0.591735 -0.730020
f 310//104 311//104 312//104
v 2.28576 5.40000 -0.81828
v 1.23998 7.50000 -0.07175
v 2.91556 5.40000 -0.52329
vn 0.374293 0.470468 -0.799103
f 313//105 314//105 315//105
v 5.90823 -0.55000 -1.49848
v 5.67375 3.22500 -0.07540
v 6.96989 -0.55000 0.20000
vn 0.822173 0.244800 -0.513911
f 316//106 317//106 318//106
v 5.90823 -0.55000 -1.49848
v 5.01482 3.22500 -1.24354
v 5.67375 3.22500 -0.07540
vn 0.847067 0.232740 -0.477818
f 319//107 320//107 321//107
v 5.01482 3.22500 -1.24354
v 3.17718 5.40000 0.03837
v 5.67375 3.22500 -0.07540
vn 0.608090 0.715938 -0.343015
f 322//108 323//108 324//108
v 5.01482 3.22500 -1.24354
v 2.91556 5.40000 -0.52329
v 3.17718 5.40000 0.03837
vn 0.636272 0.712262 -0.296379
f 325//109 326//109 327//109
v 2.91556 5.40000 -0.52329
v 1.23998 7.50000 -0.07175
v 3.17718 5.40000 0.03837
vn 0.702993 0.631325 -0.327458
f 328//110 329//110 330//110
v 9.06987 -0.55000 -0.10000
v 7.83390 2.15000 1.01635
v 9.25481 -0.55000 1.53389
vn 0.888267 0.448189 -0.100543
f 331//111 332//111 333//111
v 9.06987 -0.55000 -0.10000
v 8.24423 2.15000 0.10418
v 7.83390 2.15000 1.01635
vn 0.885192 0.240574 0.398195
f 334//112 335//112 336//112
v 8.24423 2.15000 0.10418
v 6.37250 3.60000 0.30658
v 7.83390 2.15000 1.01635
vn 0.607403 0.745925 0.273234
f 337//113 338//113 339//113
v 8.24423 2.15000 0.10418
v 6.50889 3.60000 -0.07203
v 6.37250 3.60000 0.30658
vn 0.612132 0.759391 0.220498
f 340//114 341//114 342//114
v 6.50889 3.60000 -0.07203
v 5.67419 5.00000 -0.17610
v 6.37250 3.60000 0.30658
vn 0.811677 0.505664 0.292377
f 343//115 344//115 345//115
v 9.25481 -0.55000 1.53389
v 6.84481 2.15000 1.45997
v 7.25142 -0.55000 2.64694
vn 0.441647 0.415974 0.794930
f 346//116 347//116 348//116
v 9.25481 -0.55000 1.53389
v 7.83390 2.15000 1.01635
v 6.84481 2.15000 1.45997
vn 0.381237 0.363559 0.849990
f 349//117 350//117 351//117
v 7.83390 2.15000 1.01635
v 5.92666 3.60000 0.59159
v 6.84481 2.15000 1.45997
vn 0.318695 0.627337 0.710550
f 352//118 353//118 354//118
v 7.83390 2.15000 1.01635
v 6.37250 3.60000 0.30658
v 5.92666 3.60000 0.59159
vn 0.389465 0.690749 0.609248
f 355//119 356//119 357//119
v 6.37250 3.60000 0.30658
v 5.67419 5.00000 -0.17610
v 5.92666 3.60000 0.59159
vn 0.470110 0.488034 0.735404
f 358//120 359//120 360//120
v 7.25142 -0.55000 2.64694
v 5.40531 2.15000 1.78360
v 4.63798 -0.55000 2.86000
vn 0.076103 0.350513 0.933461
f 361//121 362//121 363//121
v 7.25142 -0.55000 2.64694
v 6.84481 2.15000 1.45997
v 5.40531 2.15000 1.78360
vn 0.199124 0.419360 0.885712
f 364//122 365//122 366//122
v 6.84481 2.15000 1.45997
v 5.29959 3.60000 0.70386
v 5.40531 2.15000 1.78360
vn 0.176106 0.596141 0.783328
f 367//123 368//123 369//123
v 6.84481 2.15000 1.45997
v 5.92666 3.60000 0.59159
v 5.29959 3.60000 0.70386
vn 0.144307 0.574070 0.805990
f 370//124 371//124 372//124
v 5.92666 3.60000 0.59159
v 5.67419 5.00000 -0.17610
v 5.29959 3.60000 0.70386
vn 0.153011 0.496217 0.854609
f 373//125 374//125 375//125
v 4.63798 -0.55000 2.86000
v 4.02668 2.15000 1.37086
v 2.34614 -0.55000 2.09146
vn -0.289833 0.411071 0.864301
f 376//126 377//126 378//126
v 4.63798 -0.55000 2.86000
v 5.40531 2.15000 1.78360
v 4.02668 2.15000 1.37086
vn -0.260220 0.420472 0.869189
f 379//127 380//127 381//127
v 5.40531 2.15000 1.78360
v 4.77383 3.60000 0.43302
v 4.02668 2.15000 1.37086
vn -0.227530 0.608796 0.759998
f 382//128 383//128 384//128
v 5.40531 2.15000 1.78360
v 5.29959 3.60000 0.70386
v 4.77383 3.60000 0.43302
vn -0.387713 0.532180 0.752638
f 385//129 386//129 387//129
v 5.29959 3.60000 0.70386
v 5.67419 5.00000 -0.17610
v 4.77383 3.60000 0.43302
vn -0.378461 0.563041 0.734678
f 388//130 389//130 390//130
v 2.34614 -0.55000 2.09146
v 3.52678 2.15000 0.58579
v 1.14456 -0.55000 0.68438
vn -0.624551 0.570519 0.533334
f 391//131 392//131 393//131
v 2.34614 -0.55000 2.09146
v 4.02668 2.15000 1.37086
v 3.52678 2.15000 0.58579
vn -0.701294 0.555681 0.446549
f 394//132 395//132 396//132
v 4.02668 2.15000 1.37086
v 4.39639 3.60000 0.14116
v 3.52678 2.15000 0.58579
vn -0.700580 0.556946 0.446094
f 397//133 398//133 399//133
v 4.02668 2.15000 1.37086
v 4.77383 3.60000 0.43302
v 4.39639 3.60000 0.14116
vn -0.471432 0.637235 0.609659
f 400//134 401//134 402//134
v 4.77383 3.60000 0.43302
v 5.67419 5.00000 -0.17610
v 4.39639 3.60000 0.14116
vn -0.492290 0.593589 0.636634
f 403//135 404//135 405//135
v 1.14456 -0.55000 0.68438
v 3.52580 2.15000 -0.30012
v 1.72776 -0.55000 -0.77430
vn -0.766564 0.564312 -0.306481
f 406//136 407//136 408//136
v 1.14456 -0.55000 0.68438
v 3.52678 2.15000 0.58579
v 3.52580 2.15000 -0.30012
vn -0.749841 0.661618 0.000831
f 409//137 410//137 411//137
v 3.52678 2.15000 0.58579
v 4.47122 3.60000 -0.25322
v 3.52580 2.15000 -0.30012
vn -0.837687 0.546149 0.000928
f 412//138 413//138 414//138
v 3.52678 2.15000 0.58579
v 4.39639 3.60000 0.14116
v 4.47122 3.60000 -0.25322
vn -0.867347 0.469711 -0.164562
f 415//139 416//139 417//139
v 4.39639 3.60000 0.14116
v 5.67419 5.00000 -0.17610
v 4.47122 3.60000 -0.25322
vn -0.746933 0.649621 -0.141715
f 418//140 419//140 420//140
v 1.72776 -0.55000 -0.77430
v 4.14370 2.15000 -1.02165
v 2.52347 -0.55000 -2.15990
vn -0.700301 0.589782 -0.402163
f 421//141 422//141 423//141
v 1.72776 -0.55000 -0.77430
v 3.52580 2.15000 -0.30012
v 4.14370 2.15000 -1.02165
vn -0.645527 0.526968 -0.552810
f 424//142 425//142 426//142
v 3.52580 2.15000 -0.30012
v 4.74086 3.60000 -0.62147
v 4.14370 2.15000 -1.02165
vn -0.681439 0.441694 -0.583564
f 427//143 428//143 429//143
v 3.52580 2.15000 -0.30012
v 4.47122 3.60000 -0.25322
v 4.74086 3.60000 -0.62147
vn -0.708398 0.478658 -0.518709
f 430//144 431//144 432//144
v 4.47122 3.60000 -0.25322
v 5.67419 5.00000 -0.17610
v 4.74086 3.60000 -0.62147
vn -0.652961 0.587407 -0.478117
f 433//145 434//145 435//145
v 2.52347 -0.55000 -2.15990
v 5.39910 2.15000 -1.46712
v 4.71683 -0.55000 -2.70744
vn -0.216031 0.452132 -0.865394
f 436//146 437//146 438//146
v 2.52347 -0.55000 -2.15990
v 4.14370 2.15000 -1.02165
v 5.39910 2.15000 -1.46712
vn -0.287010 0.513218 -0.808847
f 439//147 440//147 441//147
v 4.14370 2.15000 -1.02165
v 5.28130 3.60000 -0.72622
v 5.39910 2.15000 -1.46712
vn -0.304454 0.413675 -0.858009
f 442//148 443//148 444//148
v 4.14370 2.15000 -1.02165
v 4.74086 3.60000 -0.62147
v 5.28130 3.60000 -0.72622
vn -0.179636 0.329767 -0.926814
f 445//149 446//149 447//149
v 4.74086 3.60000 -0.62147
v 5.67419 5.00000 -0.17610
v 5.28130 3.60000 -0.72622
vn -0.174219 0.402100 -0.898868
f 448//150 449//150 450//150
v 4.71683 -0.55000 -2.70744
v 6.82931 2.15000 -1.46350
v 7.14955 -0.55000 -2.70355
vn 0.001453 0.417504 -0.908674
f 451//151 452//151 453//151
v 4.71683 -0.55000 -2.70744
v 5.39910 2.15000 -1.46712
v 6.82931 2.15000 -1.46350
vn 0.002297 0.416959 -0.908923
f 454//152 455//152 456//152
v 5.39910 2.15000 -1.46712
v 5.90031 3.60000 -0.78190
v 6.82931 2.15000 -1.46350
vn 0.002286 0.426609 -0.904433
f 457//153 458//153 459//153
v 5.39910 2.15000 -1.46712
v 5.28130 3.60000 -0.72622
v 5.90031 3.60000 -0.78190
vn -0.080077 0.448377 -0.890250
f 460//154 461//154 462//154
v 5.28130 3.60000 -0.72622
v 5.67419 5.00000 -0.17610
v 5.90031 3.60000 -0.78190
vn -0.082700 0.384492 -0.919416
f 463//155 464//155 465//155
v 7.14955 -0.55000 -2.70355
v 7.77941 2.15000 -0.73592
v 9.06457 -0.55000 -1.65529
vn 0.424739 0.466384 -0.775940
f 466//156 467//156 468//156
v 7.14955 -0.55000 -2.70355
v 6.82931 2.15000 -1.46350
v 7.77941 2.15000 -0.73592
vn 0.557172 0.400243 -0.727575
f 469//157 470//157 471//157
v 6.82931 2.15000 -1.46350
v 6.49269 3.60000 -0.42722
v 7.77941 2.15000 -0.73592
vn 0.496086 0.578140 -0.647806
f 472//158 473//158 474//158
v 6.82931 2.15000 -1.46350
v 5.90031 3.60000 -0.78190
v 6.49269 3.60000 -0.42722
vn 0.414429 0.590888 -0.692170
f 475//159 476//159 477//159
v 5.90031 3.60000 -0.78190
v 5.67419 5.00000 -0.17610
v 6.49269 3.60000 -0.42722
vn 0.467711 0.413565 -0.781160
f 478//160 479//160 480//160
v 9.06457 -0.55000 -1.65529
v 8.24423 2.15000 0.10418
v 9.06987 -0.55000 -0.10000
vn 0.956214 0.292651 -0.003260
f 481//161 482//161 483//161
v 9.06457 -0.55000 -1.65529
v 7.77941 2.15000 -0.73592
v 8.24423 2.15000 0.10418
vn 0.756461 0.502582 -0.418543
f 484//162 485//162 486//162
v 7.77941 2.15000 -0.73592
v 6.50889 3.60000 -0.07203
v 8.24423 2.15000 0.10418
vn 0.622330 0.702953 -0.344329
f 487//163 488//163 489//163
v 7.77941 2.15000 -0.73592
v 6.49269 3.60000 -0.42722
v 6.50889 3.60000 -0.07203
vn 0.743935 0.667390 -0.033930
f 490//164 491//164 492//164
v 6.49269 3.60000 -0.42722
v 5.67419 5.00000 -0.17610
v 6.50889 3.60000 -0.07203
vn 0.859544 0.509557 -0.039203
f 493//165 494//165 495//165
