# Low-poly distant mountain ridge
mtllib lowpoly_mountains.mtl
o mountain_ridge_low
usemtl mountain
s off
v 0.88783 -0.55000 0.00000
v -1.41768 2.10700 0.76868
v 0.45718 -0.55000 1.57170
vn 0.767707 0.605291 0.210355
f 1//1 2//1 3//1
v 0.88783 -0.55000 0.00000
v -0.85640 2.10700 -0.02699
v -1.41768 2.10700 0.76868
vn 0.718324 0.476701 0.506722
f 4//2 5//2 6//2
v -0.85640 2.10700 -0.02699
v -2.29238 3.52800 0.20501
v -1.41768 2.10700 0.76868
vn 0.659479 0.590480 0.465211
f 7//3 8//3 9//3
v -0.85640 2.10700 -0.02699
v -1.92255 3.52800 -0.19974
v -2.29238 3.52800 0.20501
vn 0.622959 0.536597 0.569198
f 10//4 11//4 12//4
v -1.92255 3.52800 -0.19974
v -3.40958 4.90000 -0.26553
v -2.29238 3.52800 0.20501
vn 0.567373 0.639797 0.518409
f 13//5 14//5 15//5
v 0.45718 -0.55000 1.57170
v -2.44263 2.10700 1.44676
v -2.00320 -0.55000 2.26021
vn 0.255190 0.321393 0.911913
f 16//6 17//6 18//6
v 0.45718 -0.55000 1.57170
v -1.41768 2.10700 0.76868
v -2.44263 2.10700 1.44676
vn 0.464432 0.539886 0.702015
f 19//7 20//7 21//7
v -1.41768 2.10700 0.76868
v -2.73203 3.52800 0.46323
v -2.44263 2.10700 1.44676
vn 0.454219 0.567711 0.686578
f 22//8 23//8 24//8
v -1.41768 2.10700 0.76868
v -2.29238 3.52800 0.20501
v -2.73203 3.52800 0.46323
vn 0.423889 0.547210 0.721720
f 25//9 26//9 27//9
v -2.29238 3.52800 0.20501
v -3.40958 4.90000 -0.26553
v -2.73203 3.52800 0.46323
vn 0.413312 0.577898 0.703710
f 28//10 29//10 30//10
v -2.00320 -0.55000 2.26021
v -4.05579 2.10700 1.68313
v -4.46884 -0.55000 2.67235
vn 0.156013 0.323244 0.933367
f 31//11 32//11 33//11
v -2.00320 -0.55000 2.26021
v -2.44263 2.10700 1.44676
v -4.05579 2.10700 1.68313
vn 0.137806 0.310719 0.940459
f 34//12 35//12 36//12
v -2.44263 2.10700 1.44676
v -3.44327 3.52800 0.49142
v -4.05579 2.10700 1.68313
vn 0.115024 0.608744 0.784984
f 37//13 38//13 39//13
v -2.44263 2.10700 1.44676
v -2.73203 3.52800 0.46323
v -3.44327 3.52800 0.49142
vn 0.032442 0.573273 0.818722
f 40//14 41//14 42//14
v -2.73203 3.52800 0.46323
v -3.40958 4.90000 -0.26553
v -3.44327 3.52800 0.49142
vn 0.034689 0.482121 0.875417
f 43//15 44//15 45//15
v -4.46884 -0.55000 2.67235
v -5.68706 2.10700 1.12867
v -7.18545 -0.55000 2.24446
vn -0.139021 0.449052 0.882624
f 46//16 47//16 48//16
v -4.46884 -0.55000 2.67235
v -4.05579 2.10700 1.68313
v -5.68706 2.10700 1.12867
vn -0.298538 0.373411 0.878316
f 49//17 50//17 51//17
v -4.05579 2.10700 1.68313
v -4.08736 3.52800 0.32579
v -5.68706 2.10700 1.12867
vn -0.239533 0.667826 0.704721
f 52//18 53//18 54//18
v -4.05579 2.10700 1.68313
v -3.44327 3.52800 0.49142
v -4.08736 3.52800 0.32579
vn -0.183313 0.676886 0.712897
f 55//19 56//19 57//19
v -3.44327 3.52800 0.49142
v -3.40958 4.90000 -0.26553
v -4.08736 3.52800 0.32579
vn -0.219089 0.475447 0.852027
f 58//20 59//20 60//20
v -7.18545 -0.55000 2.24446
v -6.57988 2.10700 0.37527
v -8.46066 -0.55000 0.78615
vn -0.635584 0.535850 0.555785
f 61//21 62//21 63//21
v -7.18545 -0.55000 2.24446
v -5.68706 2.10700 1.12867
v -6.57988 2.10700 0.37527
vn -0.532144 0.564923 0.630623
f 64//22 65//22 66//22
v -5.68706 2.10700 1.12867
v -4.31356 3.52800 -0.01299
v -6.57988 2.10700 0.37527
vn -0.405365 0.777761 0.480382
f 67//23 68//23 69//23
v -5.68706 2.10700 1.12867
v -4.08736 3.52800 0.32579
v -4.31356 3.52800 -0.01299
vn -0.519539 0.780865 0.346885
f 70//24 71//24 72//24
v -4.08736 3.52800 0.32579
v -3.40958 4.90000 -0.26553
v -4.31356 3.52800 -0.01299
vn -0.697248 0.545088 0.465537
f 73//25 74//25 75//25
v -8.46066 -0.55000 0.78615
v -6.14905 2.10700 -0.50132
v -8.09642 -0.55000 -0.72472
vn -0.784365 0.590776 -0.189092
f 76//26 77//26 78//26
v -8.46066 -0.55000 0.78615
v -6.57988 2.10700 0.37527
v -6.14905 2.10700 -0.50132
vn -0.780680 0.493276 -0.383690
f 79//27 80//27 81//27
v -6.57988 2.10700 0.37527
v -4.47547 3.52800 -0.41309
v -6.14905 2.10700 -0.50132
vn -0.608416 0.735128 -0.299025
f 82//28 83//28 84//28
v -6.57988 2.10700 0.37527
v -4.31356 3.52800 -0.01299
v -4.47547 3.52800 -0.41309
vn -0.495541 0.845119 0.200532
f 85//29 86//29 87//29
v -4.31356 3.52800 -0.01299
v -3.40958 4.90000 -0.26553
v -4.47547 3.52800 -0.41309
vn -0.766609 0.562201 0.310226
f 88//30 89//30 90//30
v -8.09642 -0.55000 -0.72472
v -5.45484 2.10700 -1.20520
v -6.53771 -0.55000 -1.81502
vn -0.528147 0.388542 -0.755047
f 91//31 92//31 93//31
v -8.09642 -0.55000 -0.72472
v -6.14905 2.10700 -0.50132
v -5.45484 2.10700 -1.20520
vn -0.615654 0.502277 -0.607197
f 94//32 95//32 96//32
v -6.14905 2.10700 -0.50132
v -4.09999 3.52800 -0.79060
v -5.45484 2.10700 -1.20520
vn -0.533510 0.662194 -0.526181
f 97//33 98//33 99//33
v -6.14905 2.10700 -0.50132
v -4.47547 3.52800 -0.41309
v -4.09999 3.52800 -0.79060
vn -0.532578 0.660133 -0.529703
f 100//34 101//34 102//34
v -4.47547 3.52800 -0.41309
v -3.40958 4.90000 -0.26553
v -4.09999 3.52800 -0.79060
vn -0.600795 0.531016 -0.597551
f 103//35 104//35 105//35
v -6.53771 -0.55000 -1.81502
v -4.11121 2.10700 -1.63670
v -4.47174 -0.55000 -2.68396
vn -0.357970 0.384036 -0.851101
f 106//36 107//36 108//36
v -6.53771 -0.55000 -1.81502
v -5.45484 2.10700 -1.20520
v -4.11121 2.10700 -1.63670
vn -0.289211 0.324561 -0.900565
f 109//37 110//37 111//37
v -5.45484 2.10700 -1.20520
v -3.44485 3.52800 -0.83349
v -4.11121 2.10700 -1.63670
vn -0.252661 0.563189 -0.786753
f 112//38 113//38 114//38
v -5.45484 2.10700 -1.20520
v -4.09999 3.52800 -0.79060
v -3.44485 3.52800 -0.83349
vn -0.061591 0.333227 -0.940833
f 115//39 116//39 117//39
v -4.09999 3.52800 -0.79060
v -3.40958 4.90000 -0.26553
v -3.44485 3.52800 -0.83349
vn -0.060340 0.383116 -0.921727
f 118//40 119//40 120//40
v -4.47174 -0.55000 -2.68396
v -2.48979 2.10700 -1.49085
v -1.79591 -0.55000 -2.52096
vn 0.056397 0.373677 -0.925843
f 121//41 122//41 123//41
v -4.47174 -0.55000 -2.68396
v -4.11121 2.10700 -1.63670
v -2.48979 2.10700 -1.49085
vn 0.083738 0.355551 -0.930898
f 124//42 125//42 126//42
v -4.11121 2.10700 -1.63670
v -2.74202 3.52800 -0.87073
v -2.48979 2.10700 -1.49085
vn 0.081685 0.410777 -0.908069
f 127//43 128//43 129//43
v -4.11121 2.10700 -1.63670
v -3.44485 3.52800 -0.83349
v -2.74202 3.52800 -0.87073
vn -0.045585 0.507678 -0.860340
f 130//44 131//44 132//44
v -3.44485 3.52800 -0.83349
v -3.40958 4.90000 -0.26553
v -2.74202 3.52800 -0.87073
vn -0.048873 0.383105 -0.922411
f 133//45 134//45 135//45
v -1.79591 -0.55000 -2.52096
v -1.60364 2.10700 -0.97153
v 0.52279 -0.55000 -1.59592
vn 0.329452 0.457727 -0.825801
f 136//46 137//46 138//46
v -1.79591 -0.55000 -2.52096
v -2.48979 2.10700 -1.49085
v -1.60364 2.10700 -0.97153
vn 0.458201 0.422786 -0.781860
f 139//47 140//47 141//47
v -2.48979 2.10700 -1.49085
v -2.27677 3.52800 -0.54718
v -1.60364 2.10700 -0.97153
vn 0.452747 0.445173 -0.772554
f 142//48 143//48 144//48
v -2.48979 2.10700 -1.49085
v -2.74202 3.52800 -0.87073
v -2.27677 3.52800 -0.54718
vn 0.518771 0.417621 -0.745969
f 145//49 146//49 147//49
v -2.74202 3.52800 -0.87073
v -3.40958 4.90000 -0.26553
v -2.27677 3.52800 -0.54718
vn 0.480901 0.539022 -0.691512
f 148//50 149//50 150//50
v 0.52279 -0.55000 -1.59592
v -0.85640 2.10700 -0.02699
v 0.88783 -0.55000 0.00000
vn 0.821934 0.537661 -0.188003
f 151//51 152//51 153//51
v 0.52279 -0.55000 -1.59592
v -1.60364 2.10700 -0.97153
v -0.85640 2.10700 -0.02699
vn 0.620352 0.611807 -0.490770
f 154//52 155//52 156//52
v -1.60364 2.10700 -0.97153
v -1.92255 3.52800 -0.19974
v -0.85640 2.10700 -0.02699
vn 0.697798 0.456433 -0.552039
f 157//53 158//53 159//53
v -1.60364 2.10700 -0.97153
v -2.27677 3.52800 -0.54718
v -1.92255 3.52800 -0.19974
vn 0.614884 0.478474 -0.626881
f 160//54 161//54 162//54
v -2.27677 3.52800 -0.54718
v -3.40958 4.90000 -0.26553
v -1.92255 3.52800 -0.19974
vn 0.566998 0.586820 -0.578061
f 163//55 164//55 165//55
v 5.23514 -0.55000 0.20000
v 3.45268 2.49400 1.01547
v 4.87460 -0.55000 1.90376
vn 0.868912 0.459546 0.183872
f 166//56 167//56 168//56
v 5.23514 -0.55000 0.20000
v 4.09852 2.49400 -0.04392
v 3.45268 2.49400 1.01547
vn 0.803232 0.339162 0.489680
f 169//57 170//57 171//57
v 4.09852 2.49400 -0.04392
v 1.59156 4.17600 0.47644
v 3.45268 2.49400 1.01547
vn 0.571057 0.743434 0.348137
f 172//58 173//58 174//58
v 4.09852 2.49400 -0.04392
v 1.90922 4.17600 0.05684
v 1.59156 4.17600 0.47644
vn 0.563322 0.707675 0.426456
f 175//59 176//59 177//59
v 1.90922 4.17600 0.05684
v 0.21044 5.80000 -0.04069
v 1.59156 4.17600 0.47644
vn 0.601439 0.656477 0.455312
f 178//60 179//60 180//60
v 4.87460 -0.55000 1.90376
v 1.92434 2.49400 1.53248
v 2.51642 -0.55000 3.19677
vn 0.417166 0.497118 0.760820
f 181//61 182//61 183//61
v 4.87460 -0.55000 1.90376
v 3.45268 2.49400 1.01547
v 1.92434 2.49400 1.53248
vn 0.294794 0.392008 0.871450
f 184//62 185//62 186//62
v 3.45268 2.49400 1.01547
v 1.11920 4.17600 0.72088
v 1.92434 2.49400 1.53248
vn 0.273506 0.521048 0.808519
f 187//63 188//63 189//63
v 3.45268 2.49400 1.01547
v 1.59156 4.17600 0.47644
v 1.11920 4.17600 0.72088
vn 0.360077 0.621414 0.695837
f 190//64 191//64 192//64
v 1.59156 4.17600 0.47644
v 0.21044 5.80000 -0.04069
v 1.11920 4.17600 0.72088
vn 0.381163 0.558711 0.736585
f 193//65 194//65 195//65
v 2.51642 -0.55000 3.19677
v 0.12404 2.49400 1.69819
v -0.84858 -0.55000 3.40987
vn 0.055588 0.475827 0.877781
f 196//66 197//66 198//66
v 2.51642 -0.55000 3.19677
v 1.92434 2.49400 1.53248
v 0.12404 2.49400 1.69819
vn 0.079896 0.490111 0.867991
f 199//67 200//67 201//67
v 1.92434 2.49400 1.53248
v 0.25053 4.17600 0.87196
v 0.12404 2.49400 1.69819
vn 0.082560 0.434384 0.896936
f 202//68 203//68 204//68
v 1.92434 2.49400 1.53248
v 1.11920 4.17600 0.72088
v 0.25053 4.17600 0.87196
vn 0.149666 0.486876 0.860553
f 205//69 206//69 207//69
v 1.11920 4.17600 0.72088
v 0.21044 5.80000 -0.04069
v 0.25053 4.17600 0.87196
vn 0.149634 0.487202 0.860374
f 208//70 209//70 210//70
v -0.84858 -0.55000 3.40987
v -1.55404 2.49400 1.40687
v -3.71751 -0.55000 2.53328
vn -0.254784 0.489650 0.833863
f 211//71 212//71 213//71
v -0.84858 -0.55000 3.40987
v 0.12404 2.49400 1.69819
v -1.55404 2.49400 1.40687
vn -0.146109 0.519937 0.841616
f 214//72 215//72 216//72
v 0.12404 2.49400 1.69819
v -0.65137 4.17600 0.74574
v -1.55404 2.49400 1.40687
vn -0.154259 0.432042 0.888563
f 217//73 218//73 219//73
v 0.12404 2.49400 1.69819
v 0.25053 4.17600 0.87196
v -0.65137 4.17600 0.74574
vn -0.124114 0.444993 0.886892
f 220//74 221//74 222//74
v 0.25053 4.17600 0.87196
v 0.21044 5.80000 -0.04069
v -0.65137 4.17600 0.74574
vn -0.121276 0.484020 0.866612
f 223//75 224//75 225//75
v -3.71751 -0.55000 2.53328
v -2.47047 2.49400 0.48250
v -5.26049 -0.55000 1.04006
vn -0.551267 0.609608 0.569634
f 226//76 227//76 228//76
v -3.71751 -0.55000 2.53328
v -1.55404 2.49400 1.40687
v -2.47047 2.49400 0.48250
vn -0.563962 0.607725 0.559121
f 229//77 230//77 231//77
v -1.55404 2.49400 1.40687
v -0.88555 4.17600 0.26030
v -2.47047 2.49400 0.48250
vn -0.564801 0.606178 0.559953
f 232//78 233//78 234//78
v -1.55404 2.49400 1.40687
v -0.65137 4.17600 0.74574
v -0.88555 4.17600 0.26030
vn -0.753741 0.547421 0.363599
f 235//79 236//79 237//79
v -0.65137 4.17600 0.74574
v 0.21044 5.80000 -0.04069
v -0.88555 4.17600 0.26030
vn -0.741898 0.567015 0.357886
f 238//80 239//80 240//80
v -5.26049 -0.55000 1.04006
v -2.96655 2.49400 -0.58757
v -5.80095 -0.55000 -0.72636
vn -0.718912 0.659381 0.219962
f 241//81 242//81 243//81
v -5.26049 -0.55000 1.04006
v -2.47047 2.49400 0.48250
v -2.96655 2.49400 -0.58757
vn -0.671478 0.672469 0.311291
f 244//82 245//82 246//82
v -2.47047 2.49400 0.48250
v -1.06212 4.17600 -0.19849
v -2.96655 2.49400 -0.58757
vn -0.664375 0.680987 0.307998
f 247//83 248//83 249//83
v -2.47047 2.49400 0.48250
v -0.88555 4.17600 0.26030
v -1.06212 4.17600 -0.19849
vn -0.684478 0.679775 0.263430
f 250//84 251//84 252//84
v -0.88555 4.17600 0.26030
v 0.21044 5.80000 -0.04069
v -1.06212 4.17600 -0.19849
vn -0.765854 0.571481 0.294749
f 253//85 254//85 255//85
v -5.80095 -0.55000 -0.72636
v -1.74012 2.49400 -1.35508
v -3.51388 -0.55000 -2.00548
vn -0.441609 0.426039 -0.789603
f 256//86 257//86 258//86
v -5.80095 -0.55000 -0.72636
v -2.96655 2.49400 -0.58757
v -1.74012 2.49400 -1.35508
vn -0.468220 0.470094 -0.748185
f 259//87 260//87 261//87
v -2.96655 2.49400 -0.58757
v -0.46472 4.17600 -0.50079
v -1.74012 2.49400 -1.35508
vn -0.407642 0.639941 -0.651386
f 262//88 263//88 264//88
v -2.96655 2.49400 -0.58757
v -1.06212 4.17600 -0.19849
v -0.46472 4.17600 -0.50079
vn -0.366824 0.583021 -0.724932
f 265//89 266//89 267//89
v -1.06212 4.17600 -0.19849
v 0.21044 5.80000 -0.04069
v -0.46472 4.17600 -0.50079
vn -0.413189 0.403119 -0.816560
f 268//90 269//90 270//90
v -3.51388 -0.55000 -2.00548
v 0.07903 2.49400 -1.88490
v -0.81400 -0.55000 -2.87904
vn -0.285723 0.372225 -0.883069
f 271//91 272//91 273//91
v -3.51388 -0.55000 -2.00548
v -1.74012 2.49400 -1.35508
v 0.07903 2.49400 -1.88490
vn -0.262417 0.345427 -0.901009
f 274//92 275//92 276//92
v -1.74012 2.49400 -1.35508
v 0.25531 4.17600 -0.78744
v 0.07903 2.49400 -1.88490
vn -0.233837 0.548365 -0.802880
f 277//93 278//93 279//93
v -1.74012 2.49400 -1.35508
v -0.46472 4.17600 -0.50079
v 0.25531 4.17600 -0.78744
vn -0.295571 0.601200 -0.742426
f 280//94 281//94 282//94
v -0.46472 4.17600 -0.50079
v 0.21044 5.80000 -0.04069
v 0.25531 4.17600 -0.78744
vn -0.341389 0.384871 -0.857513
f 283//95 284//95 285//95
v -0.81400 -0.55000 -2.87904
v 1.99404 2.49400 -1.85347
v 2.53304 -0.55000 -2.81657
vn 0.017776 0.304465 -0.952358
f 286//96 287//96 288//96
v -0.81400 -0.55000 -2.87904
v 0.07903 2.49400 -1.88490
v 1.99404 2.49400 -1.85347
vn 0.015620 0.306271 -0.951816
f 289//97 290//97 291//97
v 0.07903 2.49400 -1.88490
v 1.12752 4.17600 -0.70190
v 1.99404 2.49400 -1.85347
vn 0.013487 0.569598 -0.821813
f 292//98 293//98 294//98
v 0.07903 2.49400 -1.88490
v 0.25531 4.17600 -0.78744
v 1.12752 4.17600 -0.70190
vn 0.082243 0.538532 -0.838582
f 295//99 296//99 297//99
v 0.25531 4.17600 -0.78744
v 0.21044 5.80000 -0.04069
v 1.12752 4.17600 -0.70190
vn 0.088663 0.418149 -0.904041
f 298//100 299//100 300//100
v 2.53304 -0.55000 -2.81657
v 3.52069 2.49400 -1.07857
v 4.30414 -0.55000 -1.30437
vn 0.633693 0.218153 -0.742187
f 301//101 302//101 303//101
v 2.53304 -0.55000 -2.81657
v 1.99404 2.49400 -1.85347
v 3.52069 2.49400 -1.07857
vn 0.425553 0.340610 -0.838385
f 304//102 305//102 306//102
v 1.99404 2.49400 -1.85347
v 1.67980 4.17600 -0.44062
v 3.52069 2.49400 -1.07857
vn 0.347669 0.640295 -0.684945
f 307//103 308//103 309//103
v 1.99404 2.49400 -1.85347
v 1.12752 4.17600 -0.70190
v 1.67980 4.17600 -0.44062
vn 0.327580 0.642830 -0.692431
f 310//104 311//104 312//104
v 1.12752 4.17600 -0.70190
v 0.21044 5.80000 -0.04069
v 1.67980 4.17600 -0.44062
vn 0.365158 0.520469 -0.771863
f 313//105 314//105 315//105
v 4.30414 -0.55000 -1.30437
v 4.09852 2.49400 -0.04392
v 5.23514 -0.55000 0.20000
vn 0.819827 0.265464 -0.507359
f 316//106 317//106 318//106
v 4.30414 -0.55000 -1.30437
v 3.52069 2.49400 -1.07857
v 4.09852 2.49400 -0.04392
vn 0.844795 0.252429 -0.471806
f 319//107 320//107 321//107
v 3.52069 2.49400 -1.07857
v 1.90922 4.17600 0.05684
v 4.09852 2.49400 -0.04392
vn 0.568485 0.758963 -0.317491
f 322//108 323//108 324//108
v 3.52069 2.49400 -1.07857
v 1.67980 4.17600 -0.44062
v 1.90922 4.17600 0.05684
vn 0.595068 0.755367 -0.274435
f 325//109 326//109 327//109
v 1.67980 4.17600 -0.44062
v 0.21044 5.80000 -0.04069
v 1.90922 4.17600 0.05684
vn 0.666708 0.678941 -0.307474
f 328//110 329//110 330//110
v 8.43915 -0.55000 -0.10000
v 7.11490 1.93500 1.05769
v 8.63730 -0.55000 1.59440
vn 0.857906 0.503917 -0.100326
f 331//111 332//111 333//111
v 8.43915 -0.55000 -0.10000
v 7.55453 1.93500 0.11174
v 7.11490 1.93500 1.05769
vn 0.871678 0.275783 0.405119
f 334//112 335//112 336//112
v 7.55453 1.93500 0.11174
v 5.54911 3.24000 0.32164
v 7.11490 1.93500 1.05769
vn 0.546084 0.798360 0.253797
f 337//113 338//113 339//113
v 7.55453 1.93500 0.11174
v 5.69523 3.24000 -0.07100
v 5.54911 3.24000 0.32164
vn 0.548852 0.810580 0.204260
f 340//114 341//114 342//114
v 5.69523 3.24000 -0.07100
v 4.80092 4.50000 -0.17891
v 5.54911 3.24000 0.32164
vn 0.769561 0.570746 0.286399
f 343//115 344//115 345//115
v 8.63730 -0.55000 1.59440
v 6.05516 1.93500 1.51775
v 6.49081 -0.55000 2.74867
vn 0.420318 0.460859 0.781628
f 346//116 347//116 348//116
v 8.63730 -0.55000 1.59440
v 7.11490 1.93500 1.05769
v 6.05516 1.93500 1.51775
vn 0.364214 0.404331 0.838967
f 349//117 350//117 351//117
v 7.11490 1.93500 1.05769
v 5.07142 3.24000 0.61721
v 6.05516 1.93500 1.51775
vn 0.291140 0.682259 0.670642
f 352//118 353//118 354//118
v 7.11490 1.93500 1.05769
v 5.54911 3.24000 0.32164
v 5.07142 3.24000 0.61721
vn 0.352013 0.743245 0.568924
f 355//119 356//119 357//119
v 5.54911 3.24000 0.32164
v 4.80092 4.50000 -0.17891
v 5.07142 3.24000 0.61721
vn 0.441104 0.545146 0.712912
f 358//120 359//120 360//120
v 6.49081 -0.55000 2.74867
v 4.51283 1.93500 1.85336
v 3.69069 -0.55000 2.96963
vn 0.072483 0.388631 0.918538
f 361//121 362//121 363//121
v 6.49081 -0.55000 2.74867
v 6.05516 1.93500 1.51775
v 4.51283 1.93500 1.85336
vn 0.188545 0.462254 0.866471
f 364//122 365//122 366//122
v 6.05516 1.93500 1.51775
v 4.39956 3.24000 0.73364
v 4.51283 1.93500 1.85336
vn 0.161460 0.650668 0.741998
f 367//123 368//123 369//123
v 6.05516 1.93500 1.51775
v 5.07142 3.24000 0.61721
v 4.39956 3.24000 0.73364
vn 0.132772 0.628789 0.766157
f 370//124 371//124 372//124
v 5.07142 3.24000 0.61721
v 4.80092 4.50000 -0.17891
v 4.39956 3.24000 0.73364
vn 0.142561 0.550388 0.822647
f 373//125 374//125 375//125
v 3.69069 -0.55000 2.96963
v 3.03573 1.93500 1.42534
v 1.23515 -0.55000 2.17263
vn -0.275050 0.454130 0.847416
f 376//126 377//126 378//126
v 3.69069 -0.55000 2.96963
v 4.51283 1.93500 1.85336
v 3.03573 1.93500 1.42534
vn -0.246575 0.463816 0.850926
f 379//127 380//127 381//127
v 4.51283 1.93500 1.85336
v 3.83624 3.24000 0.45276
v 3.03573 1.93500 1.42534
vn -0.208263 0.663385 0.718712
f 382//128 383//128 384//128
v 4.51283 1.93500 1.85336
v 4.39956 3.24000 0.73364
v 3.83624 3.24000 0.45276
vn -0.360549 0.589158 0.723116
f 385//129 386//129 387//129
v 4.39956 3.24000 0.73364
v 4.80092 4.50000 -0.17891
v 3.83624 3.24000 0.45276
vn -0.350088 0.620035 0.702136
f 388//130 389//130 390//130
v 1.23515 -0.55000 2.17263
v 2.50013 1.93500 0.61119
v -0.05225 -0.55000 0.71343
vn -0.586286 0.623466 0.517261
f 391//131 392//131 393//131
v 1.23515 -0.55000 2.17263
v 3.03573 1.93500 1.42534
v 2.50013 1.93500 0.61119
vn -0.661739 0.610397 0.435336
f 394//132 395//132 396//132
v 3.03573 1.93500 1.42534
v 3.43185 3.24000 0.15009
v 2.50013 1.93500 0.61119
vn -0.655337 0.620213 0.431124
f 397//133 398//133 399//133
v 3.03573 1.93500 1.42534
v 3.83624 3.24000 0.45276
v 3.43185 3.24000 0.15009
vn -0.431348 0.694112 0.576322
f 400//134 401//134 402//134
v 3.83624 3.24000 0.45276
v 4.80092 4.50000 -0.17891
v 3.43185 3.24000 0.15009
vn -0.454281 0.652093 0.606962
f 403//135 404//135 405//135
v -0.05225 -0.55000 0.71343
v 2.49908 1.93500 -0.30753
v 0.57260 -0.55000 -0.79927
vn -0.724515 0.620896 -0.299276
f 406//136 407//136 408//136
v -0.05225 -0.55000 0.71343
v 2.50013 1.93500 0.61119
v 2.49908 1.93500 -0.30753
vn -0.697569 0.716517 0.000798
f 409//137 410//137 411//137
v 2.50013 1.93500 0.61119
v 3.51202 3.24000 -0.25890
v 2.49908 1.93500 -0.30753
vn -0.789972 0.613143 0.000904
f 412//138 413//138 414//138
v 2.50013 1.93500 0.61119
v 3.43185 3.24000 0.15009
v 3.51202 3.24000 -0.25890
vn -0.829294 0.534646 -0.162560
f 415//139 416//139 417//139
v 3.43185 3.24000 0.15009
v 4.80092 4.50000 -0.17891
v 3.51202 3.24000 -0.25890
vn -0.688358 0.712711 -0.134933
f 418//140 419//140 420//140
v 0.57260 -0.55000 -0.79927
v 3.16111 1.93500 -1.05579
v 1.42515 -0.55000 -2.23619
vn -0.657493 0.644612 -0.390101
f 421//141 422//141 423//141
v 0.57260 -0.55000 -0.79927
v 2.49908 1.93500 -0.30753
v 3.16111 1.93500 -1.05579
vn -0.610172 0.579860 -0.539863
f 424//142 425//142 426//142
v 2.49908 1.93500 -0.30753
v 3.80092 3.24000 -0.64079
v 3.16111 1.93500 -1.05579
vn -0.648442 0.500365 -0.573723
f 427//143 428//143 429//143
v 2.49908 1.93500 -0.30753
v 3.51202 3.24000 -0.25890
v 3.80092 3.24000 -0.64079
vn -0.671253 0.539952 -0.507811
f 430//144 431//144 432//144
v 3.51202 3.24000 -0.25890
v 4.80092 4.50000 -0.17891
v 3.80092 3.24000 -0.64079
vn -0.606421 0.649452 -0.458765
f 433//145 434//145 435//145
v 1.42515 -0.55000 -2.23619
v 4.50617 1.93500 -1.51775
v 3.77518 -0.55000 -2.80401
vn -0.203848 0.496656 -0.843670
f 436//146 437//146 438//146
v 1.42515 -0.55000 -2.23619
v 3.16111 1.93500 -1.05579
v 4.50617 1.93500 -1.51775
vn -0.269085 0.560137 -0.783479
f 439//147 440//147 441//147
v 3.16111 1.93500 -1.05579
v 4.37997 3.24000 -0.74942
v 4.50617 1.93500 -1.51775
vn -0.287549 0.465126 -0.837242
f 442//148 443//148 444//148
v 3.16111 1.93500 -1.05579
v 3.80092 3.24000 -0.64079
v 4.37997 3.24000 -0.74942
vn -0.171020 0.373752 -0.911626
f 445//149 446//149 447//149
v 3.80092 3.24000 -0.64079
v 4.80092 4.50000 -0.17891
v 4.37997 3.24000 -0.74942
vn -0.164479 0.451930 -0.876759
f 448//150 449//150 450//150
v 3.77518 -0.55000 -2.80401
v 6.03855 1.93500 -1.51400
v 6.38167 -0.55000 -2.79997
vn 0.001374 0.459749 -0.888048
f 451//151 452//151 453//151
v 3.77518 -0.55000 -2.80401
v 4.50617 1.93500 -1.51775
v 6.03855 1.93500 -1.51400
vn 0.002173 0.459175 -0.888343
f 454//152 455//152 456//152
v 4.50617 1.93500 -1.51775
v 5.04319 3.24000 -0.80716
v 6.03855 1.93500 -1.51400
vn 0.002149 0.477532 -0.878612
f 457//153 458//153 459//153
v 4.50617 1.93500 -1.51775
v 4.37997 3.24000 -0.74942
v 5.04319 3.24000 -0.80716
vn -0.075087 0.500521 -0.862462
f 460//154 461//154 462//154
v 4.37997 3.24000 -0.74942
v 4.80092 4.50000 -0.17891
v 5.04319 3.24000 -0.80716
vn -0.078190 0.432768 -0.898108
f 463//155 464//155 465//155
v 6.38167 -0.55000 -2.79997
v 7.05651 1.93500 -0.75947
v 8.43347 -0.55000 -1.71290
vn 0.401725 0.513512 -0.758236
f 466//156 467//156 468//156
v 6.38167 -0.55000 -2.79997
v 6.03855 1.93500 -1.51400
v 7.05651 1.93500 -0.75947
vn 0.533040 0.445754 -0.719146
f 469//157 470//157 471//157
v 6.03855 1.93500 -1.51400
v 5.67788 3.24000 -0.43934
v 7.05651 1.93500 -0.75947
vn 0.459073 0.636910 -0.619353
f 472//158 473//158 474//158
v 6.03855 1.93500 -1.51400
v 5.04319 3.24000 -0.80716
v 5.67788 3.24000 -0.43934
vn 0.381840 0.648122 -0.658890
f 475//159 476//159 477//159
v 5.04319 3.24000 -0.80716
v 4.80092 4.50000 -0.17891
v 5.67788 3.24000 -0.43934
vn 0.443431 0.466781 -0.765169
f 478//160 479//160 480//160
v 8.43347 -0.55000 -1.71290
v 7.55453 1.93500 0.11174
v 8.43915 -0.55000 -0.10000
vn 0.941993 0.335616 -0.003318
f 481//161 482//161 483//161
v 8.43347 -0.55000 -1.71290
v 7.05651 1.93500 -0.75947
v 7.55453 1.93500 0.11174
vn 0.720756 0.557454 -0.412013
f 484//162 485//162 486//162
v 7.05651 1.93500 -0.75947
v 5.69523 3.24000 -0.07100
v 7.55453 1.93500 0.11174
vn 0.564783 0.759465 -0.322852
f 487//163 488//163 489//163
v 7.05651 1.93500 -0.75947
v 5.67788 3.24000 -0.43934
v 5.69523 3.24000 -0.07100
vn 0.683137 0.729580 -0.032191
f 490//164 491//164 492//164
v 5.67788 3.24000 -0.43934
v 4.80092 4.50000 -0.17891
v 5.69523 3.24000 -0.07100
vn 0.816417 0.576179 -0.038471
f 493//165 494//165 495//165
