mtllib Checkpoint.mtl
o CheckpointStand
usemtl CheckpointWhite
v 0.580000 -0.620000 0.000000
v 0.502295 -0.620000 0.290000
v 0.290000 -0.620000 0.502295
v 0.000000 -0.620000 0.580000
v -0.290000 -0.620000 0.502295
v -0.502295 -0.620000 0.290000
v -0.580000 -0.620000 0.000000
v -0.502295 -0.620000 -0.290000
v -0.290000 -0.620000 -0.502295
v -0.000000 -0.620000 -0.580000
v 0.290000 -0.620000 -0.502295
v 0.502295 -0.620000 -0.290000
v 0.580000 -0.480000 0.000000
v 0.502295 -0.480000 0.290000
v 0.290000 -0.480000 0.502295
v 0.000000 -0.480000 0.580000
v -0.290000 -0.480000 0.502295
v -0.502295 -0.480000 0.290000
v -0.580000 -0.480000 0.000000
v -0.502295 -0.480000 -0.290000
v -0.290000 -0.480000 -0.502295
v -0.000000 -0.480000 -0.580000
v 0.290000 -0.480000 -0.502295
v 0.502295 -0.480000 -0.290000
v 0.430000 -0.480000 0.000000
v 0.372391 -0.480000 0.215000
v 0.215000 -0.480000 0.372391
v 0.000000 -0.480000 0.430000
v -0.215000 -0.480000 0.372391
v -0.372391 -0.480000 0.215000
v -0.430000 -0.480000 0.000000
v -0.372391 -0.480000 -0.215000
v -0.215000 -0.480000 -0.372391
v -0.000000 -0.480000 -0.430000
v 0.215000 -0.480000 -0.372391
v 0.372391 -0.480000 -0.215000
v 0.430000 -0.300000 0.000000
v 0.372391 -0.300000 0.215000
v 0.215000 -0.300000 0.372391
v 0.000000 -0.300000 0.430000
v -0.215000 -0.300000 0.372391
v -0.372391 -0.300000 0.215000
v -0.430000 -0.300000 0.000000
v -0.372391 -0.300000 -0.215000
v -0.215000 -0.300000 -0.372391
v -0.000000 -0.300000 -0.430000
v 0.215000 -0.300000 -0.372391
v 0.372391 -0.300000 -0.215000
v 0.075000 -0.300000 0.000000
v 0.064952 -0.300000 0.037500
v 0.037500 -0.300000 0.064952
v 0.000000 -0.300000 0.075000
v -0.037500 -0.300000 0.064952
v -0.064952 -0.300000 0.037500
v -0.075000 -0.300000 0.000000
v -0.064952 -0.300000 -0.037500
v -0.037500 -0.300000 -0.064952
v -0.000000 -0.300000 -0.075000
v 0.037500 -0.300000 -0.064952
v 0.064952 -0.300000 -0.037500
v 0.075000 0.700000 0.000000
v 0.064952 0.700000 0.037500
v 0.037500 0.700000 0.064952
v 0.000000 0.700000 0.075000
v -0.037500 0.700000 0.064952
v -0.064952 0.700000 0.037500
v -0.075000 0.700000 0.000000
v -0.064952 0.700000 -0.037500
v -0.037500 0.700000 -0.064952
v -0.000000 0.700000 -0.075000
v 0.037500 0.700000 -0.064952
v 0.064952 0.700000 -0.037500
v 0.130000 0.580000 0.000000
v 0.112583 0.580000 0.065000
v 0.065000 0.580000 0.112583
v 0.000000 0.580000 0.130000
v -0.065000 0.580000 0.112583
v -0.112583 0.580000 0.065000
v -0.130000 0.580000 0.000000
v -0.112583 0.580000 -0.065000
v -0.065000 0.580000 -0.112583
v -0.000000 0.580000 -0.130000
v 0.065000 0.580000 -0.112583
v 0.112583 0.580000 -0.065000
v 0.130000 0.680000 0.000000
v 0.112583 0.680000 0.065000
v 0.065000 0.680000 0.112583
v 0.000000 0.680000 0.130000
v -0.065000 0.680000 0.112583
v -0.112583 0.680000 0.065000
v -0.130000 0.680000 0.000000
v -0.112583 0.680000 -0.065000
v -0.065000 0.680000 -0.112583
v -0.000000 0.680000 -0.130000
v 0.065000 0.680000 -0.112583
v 0.112583 0.680000 -0.065000
v 0.000000 0.910000 0.000000
v 0.055000 0.895263 0.000000
v 0.047631 0.895263 0.027500
v 0.027500 0.895263 0.047631
v 0.000000 0.895263 0.055000
v -0.027500 0.895263 0.047631
v -0.047631 0.895263 0.027500
v -0.055000 0.895263 0.000000
v -0.047631 0.895263 -0.027500
v -0.027500 0.895263 -0.047631
v -0.000000 0.895263 -0.055000
v 0.027500 0.895263 -0.047631
v 0.047631 0.895263 -0.027500
v 0.095263 0.855000 0.000000
v 0.082500 0.855000 0.047631
v 0.047631 0.855000 0.082500
v 0.000000 0.855000 0.095263
v -0.047631 0.855000 0.082500
v -0.082500 0.855000 0.047631
v -0.095263 0.855000 0.000000
v -0.082500 0.855000 -0.047631
v -0.047631 0.855000 -0.082500
v -0.000000 0.855000 -0.095263
v 0.047631 0.855000 -0.082500
v 0.082500 0.855000 -0.047631
v 0.110000 0.800000 0.000000
v 0.095263 0.800000 0.055000
v 0.055000 0.800000 0.095263
v 0.000000 0.800000 0.110000
v -0.055000 0.800000 0.095263
v -0.095263 0.800000 0.055000
v -0.110000 0.800000 0.000000
v -0.095263 0.800000 -0.055000
v -0.055000 0.800000 -0.095263
v -0.000000 0.800000 -0.110000
v 0.055000 0.800000 -0.095263
v 0.095263 0.800000 -0.055000
v 0.095263 0.745000 0.000000
v 0.082500 0.745000 0.047631
v 0.047631 0.745000 0.082500
v 0.000000 0.745000 0.095263
v -0.047631 0.745000 0.082500
v -0.082500 0.745000 0.047631
v -0.095263 0.745000 0.000000
v -0.082500 0.745000 -0.047631
v -0.047631 0.745000 -0.082500
v -0.000000 0.745000 -0.095263
v 0.047631 0.745000 -0.082500
v 0.082500 0.745000 -0.047631
v 0.055000 0.704737 0.000000
v 0.047631 0.704737 0.027500
v 0.027500 0.704737 0.047631
v 0.000000 0.704737 0.055000
v -0.027500 0.704737 0.047631
v -0.047631 0.704737 0.027500
v -0.055000 0.704737 0.000000
v -0.047631 0.704737 -0.027500
v -0.027500 0.704737 -0.047631
v -0.000000 0.704737 -0.055000
v 0.027500 0.704737 -0.047631
v 0.047631 0.704737 -0.027500
v 0.000000 0.690000 0.000000
vn 0.000000 1.000000 0.000000
vn 0.000000 -1.000000 0.000000
vn -0.965926 0.000000 -0.258819
vn -0.707107 0.000000 -0.707107
vn -0.258819 0.000000 -0.965926
vn 0.258819 0.000000 -0.965926
vn 0.707107 0.000000 -0.707107
vn 0.965926 0.000000 -0.258819
vn 0.965926 0.000000 0.258819
vn 0.707107 0.000000 0.707107
vn 0.258819 0.000000 0.965926
vn -0.258819 0.000000 0.965926
vn -0.707107 0.000000 0.707107
vn -0.965926 0.000000 0.258819
vn 0.000000 1.000000 0.000000
vn 0.000000 -1.000000 0.000000
vn -0.965926 0.000000 -0.258819
vn -0.707107 0.000000 -0.707107
vn -0.258819 0.000000 -0.965926
vn 0.258819 0.000000 -0.965926
vn 0.707107 0.000000 -0.707107
vn 0.965926 0.000000 -0.258819
vn 0.965926 0.000000 0.258819
vn 0.707107 0.000000 0.707107
vn 0.258819 0.000000 0.965926
vn -0.258819 0.000000 0.965926
vn -0.707107 0.000000 0.707107
vn -0.965926 0.000000 0.258819
vn 0.000000 1.000000 0.000000
vn 0.000000 -1.000000 0.000000
vn -0.965926 0.000000 -0.258819
vn -0.707107 0.000000 -0.707107
vn -0.258819 0.000000 -0.965926
vn 0.258819 0.000000 -0.965926
vn 0.707107 0.000000 -0.707107
vn 0.965926 0.000000 -0.258819
vn 0.965926 0.000000 0.258819
vn 0.707107 0.000000 0.707107
vn 0.258819 0.000000 0.965926
vn -0.258819 0.000000 0.965926
vn -0.707107 0.000000 0.707107
vn -0.965926 0.000000 0.258819
vn 0.000000 1.000000 0.000000
vn 0.000000 -1.000000 0.000000
vn -0.965926 0.000000 -0.258819
vn -0.707107 0.000000 -0.707107
vn -0.258819 0.000000 -0.965926
vn 0.258819 0.000000 -0.965926
vn 0.707107 0.000000 -0.707107
vn 0.965926 0.000000 -0.258819
vn 0.965926 0.000000 0.258819
vn 0.707107 0.000000 0.707107
vn 0.258819 0.000000 0.965926
vn -0.258819 0.000000 0.965926
vn -0.707107 0.000000 0.707107
vn -0.965926 0.000000 0.258819
vn 0.258199 0.963611 0.069184
vn 0.189015 0.963611 0.189015
vn 0.069184 0.963611 0.258199
vn -0.069184 0.963611 0.258199
vn -0.189015 0.963611 0.189015
vn -0.258199 0.963611 0.069184
vn -0.258199 0.963611 -0.069184
vn -0.189015 0.963611 -0.189015
vn -0.069184 0.963611 -0.258199
vn 0.069184 0.963611 -0.258199
vn 0.189015 0.963611 -0.189015
vn 0.258199 0.963611 -0.069184
vn 0.694747 0.694747 0.186157
vn 0.508590 0.694747 0.508590
vn 0.186157 0.694747 0.694747
vn -0.186157 0.694747 0.694747
vn -0.508590 0.694747 0.508590
vn -0.694747 0.694747 0.186157
vn -0.694747 0.694747 -0.186157
vn -0.508590 0.694747 -0.508590
vn -0.186157 0.694747 -0.694747
vn 0.186157 0.694747 -0.694747
vn 0.508590 0.694747 -0.508590
vn 0.694747 0.694747 -0.186157
vn 0.935113 0.250563 0.250563
vn 0.684550 0.250563 0.684550
vn 0.250563 0.250563 0.935113
vn -0.250563 0.250563 0.935113
vn -0.684550 0.250563 0.684550
vn -0.935113 0.250563 0.250563
vn -0.935113 0.250563 -0.250563
vn -0.684550 0.250563 -0.684550
vn -0.250563 0.250563 -0.935113
vn 0.250563 0.250563 -0.935113
vn 0.684550 0.250563 -0.684550
vn 0.935113 0.250563 -0.250563
vn 0.935113 -0.250563 0.250563
vn 0.684550 -0.250563 0.684550
vn 0.250563 -0.250563 0.935113
vn -0.250563 -0.250563 0.935113
vn -0.684550 -0.250563 0.684550
vn -0.935113 -0.250563 0.250563
vn -0.935113 -0.250563 -0.250563
vn -0.684550 -0.250563 -0.684550
vn -0.250563 -0.250563 -0.935113
vn 0.250563 -0.250563 -0.935113
vn 0.684550 -0.250563 -0.684550
vn 0.935113 -0.250563 -0.250563
vn 0.694747 -0.694747 0.186157
vn 0.508590 -0.694747 0.508590
vn 0.186157 -0.694747 0.694747
vn -0.186157 -0.694747 0.694747
vn -0.508590 -0.694747 0.508590
vn -0.694747 -0.694747 0.186157
vn -0.694747 -0.694747 -0.186157
vn -0.508590 -0.694747 -0.508590
vn -0.186157 -0.694747 -0.694747
vn 0.186157 -0.694747 -0.694747
vn 0.508590 -0.694747 -0.508590
vn 0.694747 -0.694747 -0.186157
vn 0.258199 -0.963611 0.069184
vn 0.189015 -0.963611 0.189015
vn 0.069184 -0.963611 0.258199
vn -0.069184 -0.963611 0.258199
vn -0.189015 -0.963611 0.189015
vn -0.258199 -0.963611 0.069184
vn -0.258199 -0.963611 -0.069184
vn -0.189015 -0.963611 -0.189015
vn -0.069184 -0.963611 -0.258199
vn 0.069184 -0.963611 -0.258199
vn 0.189015 -0.963611 -0.189015
vn 0.258199 -0.963611 -0.069184
f 12//1 11//1 10//1 9//1 8//1 7//1 6//1 5//1 4//1 3//1 2//1 1//1
f 13//2 14//2 15//2 16//2 17//2 18//2 19//2 20//2 21//2 22//2 23//2 24//2
f 1//3 2//3 14//3 13//3
f 2//4 3//4 15//4 14//4
f 3//5 4//5 16//5 15//5
f 4//6 5//6 17//6 16//6
f 5//7 6//7 18//7 17//7
f 6//8 7//8 19//8 18//8
f 7//9 8//9 20//9 19//9
f 8//10 9//10 21//10 20//10
f 9//11 10//11 22//11 21//11
f 10//12 11//12 23//12 22//12
f 11//13 12//13 24//13 23//13
f 12//14 1//14 13//14 24//14
f 36//15 35//15 34//15 33//15 32//15 31//15 30//15 29//15 28//15 27//15 26//15 25//15
f 37//16 38//16 39//16 40//16 41//16 42//16 43//16 44//16 45//16 46//16 47//16 48//16
f 25//17 26//17 38//17 37//17
f 26//18 27//18 39//18 38//18
f 27//19 28//19 40//19 39//19
f 28//20 29//20 41//20 40//20
f 29//21 30//21 42//21 41//21
f 30//22 31//22 43//22 42//22
f 31//23 32//23 44//23 43//23
f 32//24 33//24 45//24 44//24
f 33//25 34//25 46//25 45//25
f 34//26 35//26 47//26 46//26
f 35//27 36//27 48//27 47//27
f 36//28 25//28 37//28 48//28
f 60//29 59//29 58//29 57//29 56//29 55//29 54//29 53//29 52//29 51//29 50//29 49//29
f 61//30 62//30 63//30 64//30 65//30 66//30 67//30 68//30 69//30 70//30 71//30 72//30
f 49//31 50//31 62//31 61//31
f 50//32 51//32 63//32 62//32
f 51//33 52//33 64//33 63//33
f 52//34 53//34 65//34 64//34
f 53//35 54//35 66//35 65//35
f 54//36 55//36 67//36 66//36
f 55//37 56//37 68//37 67//37
f 56//38 57//38 69//38 68//38
f 57//39 58//39 70//39 69//39
f 58//40 59//40 71//40 70//40
f 59//41 60//41 72//41 71//41
f 60//42 49//42 61//42 72//42
f 84//43 83//43 82//43 81//43 80//43 79//43 78//43 77//43 76//43 75//43 74//43 73//43
f 85//44 86//44 87//44 88//44 89//44 90//44 91//44 92//44 93//44 94//44 95//44 96//44
f 73//45 74//45 86//45 85//45
f 74//46 75//46 87//46 86//46
f 75//47 76//47 88//47 87//47
f 76//48 77//48 89//48 88//48
f 77//49 78//49 90//49 89//49
f 78//50 79//50 91//50 90//50
f 79//51 80//51 92//51 91//51
f 80//52 81//52 93//52 92//52
f 81//53 82//53 94//53 93//53
f 82//54 83//54 95//54 94//54
f 83//55 84//55 96//55 95//55
f 84//56 73//56 85//56 96//56
f 97//57 99//57 98//57
f 97//58 100//58 99//58
f 97//59 101//59 100//59
f 97//60 102//60 101//60
f 97//61 103//61 102//61
f 97//62 104//62 103//62
f 97//63 105//63 104//63
f 97//64 106//64 105//64
f 97//65 107//65 106//65
f 97//66 108//66 107//66
f 97//67 109//67 108//67
f 97//68 98//68 109//68
f 98//69 99//69 111//69 110//69
f 99//70 100//70 112//70 111//70
f 100//71 101//71 113//71 112//71
f 101//72 102//72 114//72 113//72
f 102//73 103//73 115//73 114//73
f 103//74 104//74 116//74 115//74
f 104//75 105//75 117//75 116//75
f 105//76 106//76 118//76 117//76
f 106//77 107//77 119//77 118//77
f 107//78 108//78 120//78 119//78
f 108//79 109//79 121//79 120//79
f 109//80 98//80 110//80 121//80
f 110//81 111//81 123//81 122//81
f 111//82 112//82 124//82 123//82
f 112//83 113//83 125//83 124//83
f 113//84 114//84 126//84 125//84
f 114//85 115//85 127//85 126//85
f 115//86 116//86 128//86 127//86
f 116//87 117//87 129//87 128//87
f 117//88 118//88 130//88 129//88
f 118//89 119//89 131//89 130//89
f 119//90 120//90 132//90 131//90
f 120//91 121//91 133//91 132//91
f 121//92 110//92 122//92 133//92
f 122//93 123//93 135//93 134//93
f 123//94 124//94 136//94 135//94
f 124//95 125//95 137//95 136//95
f 125//96 126//96 138//96 137//96
f 126//97 127//97 139//97 138//97
f 127//98 128//98 140//98 139//98
f 128//99 129//99 141//99 140//99
f 129//100 130//100 142//100 141//100
f 130//101 131//101 143//101 142//101
f 131//102 132//102 144//102 143//102
f 132//103 133//103 145//103 144//103
f 133//104 122//104 134//104 145//104
f 134//105 135//105 147//105 146//105
f 135//106 136//106 148//106 147//106
f 136//107 137//107 149//107 148//107
f 137//108 138//108 150//108 149//108
f 138//109 139//109 151//109 150//109
f 139//110 140//110 152//110 151//110
f 140//111 141//111 153//111 152//111
f 141//112 142//112 154//112 153//112
f 142//113 143//113 155//113 154//113
f 143//114 144//114 156//114 155//114
f 144//115 145//115 157//115 156//115
f 145//116 134//116 146//116 157//116
f 146//117 147//117 158//117
f 147//118 148//118 158//118
f 148//119 149//119 158//119
f 149//120 150//120 158//120
f 150//121 151//121 158//121
f 151//122 152//122 158//122
f 152//123 153//123 158//123
f 153//124 154//124 158//124
f 154//125 155//125 158//125
f 155//126 156//126 158//126
f 156//127 157//127 158//127
f 157//128 146//128 158//128
