mtllib Checkpoint.mtl
o CheckpointFlagSegment
usemtl CheckpointWhite
v -0.500000 -0.500000 -0.035000
v 0.500000 -0.500000 -0.035000
v 0.500000 0.500000 -0.035000
v -0.500000 0.500000 -0.035000
v -0.500000 -0.500000 0.035000
v 0.500000 -0.500000 0.035000
v 0.500000 0.500000 0.035000
v -0.500000 0.500000 0.035000
vn 0.000000 0.000000 -1.000000
vn 0.000000 0.000000 1.000000
vn -1.000000 0.000000 0.000000
vn 1.000000 0.000000 0.000000
vn 0.000000 1.000000 0.000000
vn 0.000000 -1.000000 0.000000
f 1//1 4//1 3//1 2//1
f 5//2 6//2 7//2 8//2
f 1//3 5//3 8//3 4//3
f 2//4 3//4 7//4 6//4
f 4//5 8//5 7//5 3//5
f 1//6 2//6 6//6 5//6
