# Y-up background asset
mtllib tall_background.mtl
o ruin_watchtower
v -2.900000 0.120000 -1.980000
v -2.780000 0.000000 -1.980000
v -2.780000 0.120000 -2.100000
v -2.900000 0.120000 1.980000
v -2.780000 0.000000 1.980000
v -2.780000 0.120000 2.100000
v -2.900000 0.480000 -1.980000
v -2.780000 0.600000 -1.980000
v -2.780000 0.480000 -2.100000
v -2.900000 0.480000 1.980000
v -2.780000 0.600000 1.980000
v -2.780000 0.480000 2.100000
v 2.900000 0.120000 -1.980000
v 2.780000 0.000000 -1.980000
v 2.780000 0.120000 -2.100000
v 2.900000 0.120000 1.980000
v 2.780000 0.000000 1.980000
v 2.780000 0.120000 2.100000
v 2.900000 0.480000 -1.980000
v 2.780000 0.600000 -1.980000
v 2.780000 0.480000 -2.100000
v 2.900000 0.480000 1.980000
v 2.780000 0.600000 1.980000
v 2.780000 0.480000 2.100000
v -2.600000 0.660000 -1.840000
v -2.540000 0.600000 -1.840000
v -2.540000 0.660000 -1.900000
v -2.600000 0.660000 1.840000
v -2.540000 0.600000 1.840000
v -2.540000 0.660000 1.900000
v -2.600000 0.840000 -1.840000
v -2.540000 0.900000 -1.840000
v -2.540000 0.840000 -1.900000
v -2.600000 0.840000 1.840000
v -2.540000 0.900000 1.840000
v -2.540000 0.840000 1.900000
v 2.600000 0.660000 -1.840000
v 2.540000 0.600000 -1.840000
v 2.540000 0.660000 -1.900000
v 2.600000 0.660000 1.840000
v 2.540000 0.600000 1.840000
v 2.540000 0.660000 1.900000
v 2.600000 0.840000 -1.840000
v 2.540000 0.900000 -1.840000
v 2.540000 0.840000 -1.900000
v 2.600000 0.840000 1.840000
v 2.540000 0.900000 1.840000
v 2.540000 0.840000 1.900000
v -2.175000 0.740000 -1.565000
v -2.115000 0.680000 -1.565000
v -2.115000 0.740000 -1.625000
v -2.175000 0.740000 1.565000
v -2.115000 0.680000 1.565000
v -2.115000 0.740000 1.625000
v -2.175000 1.760000 -1.565000
v -2.115000 1.820000 -1.565000
v -2.115000 1.760000 -1.625000
v -2.175000 1.760000 1.565000
v -2.115000 1.820000 1.565000
v -2.115000 1.760000 1.625000
v 2.175000 0.740000 -1.565000
v 2.115000 0.680000 -1.565000
v 2.115000 0.740000 -1.625000
v 2.175000 0.740000 1.565000
v 2.115000 0.680000 1.565000
v 2.115000 0.740000 1.625000
v 2.175000 1.760000 -1.565000
v 2.115000 1.820000 -1.565000
v 2.115000 1.760000 -1.625000
v 2.175000 1.760000 1.565000
v 2.115000 1.820000 1.565000
v 2.115000 1.760000 1.625000
v -2.175000 1.920000 -1.565000
v -2.115000 1.860000 -1.565000
v -2.115000 1.920000 -1.625000
v -2.175000 1.920000 1.565000
v -2.115000 1.860000 1.565000
v -2.115000 1.920000 1.625000
v -2.175000 2.940000 -1.565000
v -2.115000 3.000000 -1.565000
v -2.115000 2.940000 -1.625000
v -2.175000 2.940000 1.565000
v -2.115000 3.000000 1.565000
v -2.115000 2.940000 1.625000
v 2.175000 1.920000 -1.565000
v 2.115000 1.860000 -1.565000
v 2.115000 1.920000 -1.625000
v 2.175000 1.920000 1.565000
v 2.115000 1.860000 1.565000
v 2.115000 1.920000 1.625000
v 2.175000 2.940000 -1.565000
v 2.115000 3.000000 -1.565000
v 2.115000 2.940000 -1.625000
v 2.175000 2.940000 1.565000
v 2.115000 3.000000 1.565000
v 2.115000 2.940000 1.625000
v -2.175000 3.100000 -1.565000
v -2.115000 3.040000 -1.565000
v -2.115000 3.100000 -1.625000
v -2.175000 3.100000 1.565000
v -2.115000 3.040000 1.565000
v -2.115000 3.100000 1.625000
v -2.175000 4.120000 -1.565000
v -2.115000 4.180000 -1.565000
v -2.115000 4.120000 -1.625000
v -2.175000 4.120000 1.565000
v -2.115000 4.180000 1.565000
v -2.115000 4.120000 1.625000
v 2.175000 3.100000 -1.565000
v 2.115000 3.040000 -1.565000
v 2.115000 3.100000 -1.625000
v 2.175000 3.100000 1.565000
v 2.115000 3.040000 1.565000
v 2.115000 3.100000 1.625000
v 2.175000 4.120000 -1.565000
v 2.115000 4.180000 -1.565000
v 2.115000 4.120000 -1.625000
v 2.175000 4.120000 1.565000
v 2.115000 4.180000 1.565000
v 2.115000 4.120000 1.625000
v -2.175000 4.280000 -1.565000
v -2.115000 4.220000 -1.565000
v -2.115000 4.280000 -1.625000
v -2.175000 4.280000 1.565000
v -2.115000 4.220000 1.565000
v -2.115000 4.280000 1.625000
v -2.175000 5.300000 -1.565000
v -2.115000 5.360000 -1.565000
v -2.115000 5.300000 -1.625000
v -2.175000 5.300000 1.565000
v -2.115000 5.360000 1.565000
v -2.115000 5.300000 1.625000
v 2.175000 4.280000 -1.565000
v 2.115000 4.220000 -1.565000
v 2.115000 4.280000 -1.625000
v 2.175000 4.280000 1.565000
v 2.115000 4.220000 1.565000
v 2.115000 4.280000 1.625000
v 2.175000 5.300000 -1.565000
v 2.115000 5.360000 -1.565000
v 2.115000 5.300000 -1.625000
v 2.175000 5.300000 1.565000
v 2.115000 5.360000 1.565000
v 2.115000 5.300000 1.625000
v -2.175000 5.460000 -1.565000
v -2.115000 5.400000 -1.565000
v -2.115000 5.460000 -1.625000
v -2.175000 5.460000 1.565000
v -2.115000 5.400000 1.565000
v -2.115000 5.460000 1.625000
v -2.175000 6.480000 -1.565000
v -2.115000 6.540000 -1.565000
v -2.115000 6.480000 -1.625000
v -2.175000 6.480000 1.565000
v -2.115000 6.540000 1.565000
v -2.115000 6.480000 1.625000
v 2.175000 5.460000 -1.565000
v 2.115000 5.400000 -1.565000
v 2.115000 5.460000 -1.625000
v 2.175000 5.460000 1.565000
v 2.115000 5.400000 1.565000
v 2.115000 5.460000 1.625000
v 2.175000 6.480000 -1.565000
v 2.115000 6.540000 -1.565000
v 2.115000 6.480000 -1.625000
v 2.175000 6.480000 1.565000
v 2.115000 6.540000 1.565000
v 2.115000 6.480000 1.625000
v -2.175000 6.640000 -1.565000
v -2.115000 6.580000 -1.565000
v -2.115000 6.640000 -1.625000
v -2.175000 6.640000 1.565000
v -2.115000 6.580000 1.565000
v -2.115000 6.640000 1.625000
v -2.175000 7.660000 -1.565000
v -2.115000 7.720000 -1.565000
v -2.115000 7.660000 -1.625000
v -2.175000 7.660000 1.565000
v -2.115000 7.720000 1.565000
v -2.115000 7.660000 1.625000
v 2.175000 6.640000 -1.565000
v 2.115000 6.580000 -1.565000
v 2.115000 6.640000 -1.625000
v 2.175000 6.640000 1.565000
v 2.115000 6.580000 1.565000
v 2.115000 6.640000 1.625000
v 2.175000 7.660000 -1.565000
v 2.115000 7.720000 -1.565000
v 2.115000 7.660000 -1.625000
v 2.175000 7.660000 1.565000
v 2.115000 7.720000 1.565000
v 2.115000 7.660000 1.625000
v -2.175000 7.820000 -1.565000
v -2.115000 7.760000 -1.565000
v -2.115000 7.820000 -1.625000
v -2.175000 7.820000 1.565000
v -2.115000 7.760000 1.565000
v -2.115000 7.820000 1.625000
v -2.175000 8.840000 -1.565000
v -2.115000 8.900000 -1.565000
v -2.115000 8.840000 -1.625000
v -2.175000 8.840000 1.565000
v -2.115000 8.900000 1.565000
v -2.115000 8.840000 1.625000
v 2.175000 7.820000 -1.565000
v 2.115000 7.760000 -1.565000
v 2.115000 7.820000 -1.625000
v 2.175000 7.820000 1.565000
v 2.115000 7.760000 1.565000
v 2.115000 7.820000 1.625000
v 2.175000 8.840000 -1.565000
v 2.115000 8.900000 -1.565000
v 2.115000 8.840000 -1.625000
v 2.175000 8.840000 1.565000
v 2.115000 8.900000 1.565000
v 2.115000 8.840000 1.625000
v -0.525000 2.810000 -1.660000
v -0.515000 2.800000 -1.660000
v -0.515000 2.810000 -1.670000
v -0.525000 2.810000 -1.620000
v -0.515000 2.800000 -1.620000
v -0.515000 2.810000 -1.610000
v -0.525000 4.790000 -1.660000
v -0.515000 4.800000 -1.660000
v -0.515000 4.790000 -1.670000
v -0.525000 4.790000 -1.620000
v -0.515000 4.800000 -1.620000
v -0.515000 4.790000 -1.610000
v 0.525000 2.810000 -1.660000
v 0.515000 2.800000 -1.660000
v 0.515000 2.810000 -1.670000
v 0.525000 2.810000 -1.620000
v 0.515000 2.800000 -1.620000
v 0.515000 2.810000 -1.610000
v 0.525000 4.790000 -1.660000
v 0.515000 4.800000 -1.660000
v 0.515000 4.790000 -1.670000
v 0.525000 4.790000 -1.620000
v 0.515000 4.800000 -1.620000
v 0.515000 4.790000 -1.610000
v -1.675000 6.385000 -1.660000
v -1.665000 6.375000 -1.660000
v -1.665000 6.385000 -1.670000
v -1.675000 6.385000 -1.620000
v -1.665000 6.375000 -1.620000
v -1.665000 6.385000 -1.610000
v -1.675000 7.815000 -1.660000
v -1.665000 7.825000 -1.660000
v -1.665000 7.815000 -1.670000
v -1.675000 7.815000 -1.620000
v -1.665000 7.825000 -1.620000
v -1.665000 7.815000 -1.610000
v -1.025000 6.385000 -1.660000
v -1.035000 6.375000 -1.660000
v -1.035000 6.385000 -1.670000
v -1.025000 6.385000 -1.620000
v -1.035000 6.375000 -1.620000
v -1.035000 6.385000 -1.610000
v -1.025000 7.815000 -1.660000
v -1.035000 7.825000 -1.660000
v -1.035000 7.815000 -1.670000
v -1.025000 7.815000 -1.620000
v -1.035000 7.825000 -1.620000
v -1.035000 7.815000 -1.610000
v 1.025000 6.385000 -1.660000
v 1.035000 6.375000 -1.660000
v 1.035000 6.385000 -1.670000
v 1.025000 6.385000 -1.620000
v 1.035000 6.375000 -1.620000
v 1.035000 6.385000 -1.610000
v 1.025000 7.815000 -1.660000
v 1.035000 7.825000 -1.660000
v 1.035000 7.815000 -1.670000
v 1.025000 7.815000 -1.620000
v 1.035000 7.825000 -1.620000
v 1.035000 7.815000 -1.610000
v 1.675000 6.385000 -1.660000
v 1.665000 6.375000 -1.660000
v 1.665000 6.385000 -1.670000
v 1.675000 6.385000 -1.620000
v 1.665000 6.375000 -1.620000
v 1.665000 6.385000 -1.610000
v 1.675000 7.815000 -1.660000
v 1.665000 7.825000 -1.660000
v 1.665000 7.815000 -1.670000
v 1.675000 7.815000 -1.620000
v 1.665000 7.825000 -1.620000
v 1.665000 7.815000 -1.610000
v -2.500000 9.220000 -1.820000
v -2.420000 9.140000 -1.820000
v -2.420000 9.220000 -1.900000
v -2.500000 9.220000 1.820000
v -2.420000 9.140000 1.820000
v -2.420000 9.220000 1.900000
v -2.500000 9.480000 -1.820000
v -2.420000 9.560000 -1.820000
v -2.420000 9.480000 -1.900000
v -2.500000 9.480000 1.820000
v -2.420000 9.560000 1.820000
v -2.420000 9.480000 1.900000
v 2.500000 9.220000 -1.820000
v 2.420000 9.140000 -1.820000
v 2.420000 9.220000 -1.900000
v 2.500000 9.220000 1.820000
v 2.420000 9.140000 1.820000
v 2.420000 9.220000 1.900000
v 2.500000 9.480000 -1.820000
v 2.420000 9.560000 -1.820000
v 2.420000 9.480000 -1.900000
v 2.500000 9.480000 1.820000
v 2.420000 9.560000 1.820000
v 2.420000 9.480000 1.900000
v -2.500000 9.620000 -1.705000
v -2.430000 9.550000 -1.705000
v -2.430000 9.620000 -1.775000
v -2.500000 9.620000 1.705000
v -2.430000 9.550000 1.705000
v -2.430000 9.620000 1.775000
v -2.500000 10.930000 -1.705000
v -2.430000 11.000000 -1.705000
v -2.430000 10.930000 -1.775000
v -2.500000 10.930000 1.705000
v -2.430000 11.000000 1.705000
v -2.430000 10.930000 1.775000
v -1.500000 9.620000 -1.705000
v -1.570000 9.550000 -1.705000
v -1.570000 9.620000 -1.775000
v -1.500000 9.620000 1.705000
v -1.570000 9.550000 1.705000
v -1.570000 9.620000 1.775000
v -1.500000 10.930000 -1.705000
v -1.570000 11.000000 -1.705000
v -1.570000 10.930000 -1.775000
v -1.500000 10.930000 1.705000
v -1.570000 11.000000 1.705000
v -1.570000 10.930000 1.775000
v -1.250000 9.620000 -1.705000
v -1.180000 9.550000 -1.705000
v -1.180000 9.620000 -1.775000
v -1.250000 9.620000 1.705000
v -1.180000 9.550000 1.705000
v -1.180000 9.620000 1.775000
v -1.250000 10.480000 -1.705000
v -1.180000 10.550000 -1.705000
v -1.180000 10.480000 -1.775000
v -1.250000 10.480000 1.705000
v -1.180000 10.550000 1.705000
v -1.180000 10.480000 1.775000
v -0.250000 9.620000 -1.705000
v -0.320000 9.550000 -1.705000
v -0.320000 9.620000 -1.775000
v -0.250000 9.620000 1.705000
v -0.320000 9.550000 1.705000
v -0.320000 9.620000 1.775000
v -0.250000 10.480000 -1.705000
v -0.320000 10.550000 -1.705000
v -0.320000 10.480000 -1.775000
v -0.250000 10.480000 1.705000
v -0.320000 10.550000 1.705000
v -0.320000 10.480000 1.775000
v 0.000000 9.620000 -1.705000
v 0.070000 9.550000 -1.705000
v 0.070000 9.620000 -1.775000
v 0.000000 9.620000 1.705000
v 0.070000 9.550000 1.705000
v 0.070000 9.620000 1.775000
v 0.000000 10.830000 -1.705000
v 0.070000 10.900000 -1.705000
v 0.070000 10.830000 -1.775000
v 0.000000 10.830000 1.705000
v 0.070000 10.900000 1.705000
v 0.070000 10.830000 1.775000
v 1.000000 9.620000 -1.705000
v 0.930000 9.550000 -1.705000
v 0.930000 9.620000 -1.775000
v 1.000000 9.620000 1.705000
v 0.930000 9.550000 1.705000
v 0.930000 9.620000 1.775000
v 1.000000 10.830000 -1.705000
v 0.930000 10.900000 -1.705000
v 0.930000 10.830000 -1.775000
v 1.000000 10.830000 1.705000
v 0.930000 10.900000 1.705000
v 0.930000 10.830000 1.775000
v 1.250000 9.620000 -1.705000
v 1.320000 9.550000 -1.705000
v 1.320000 9.620000 -1.775000
v 1.250000 9.620000 1.705000
v 1.320000 9.550000 1.705000
v 1.320000 9.620000 1.775000
v 1.250000 10.200000 -1.705000
v 1.320000 10.270000 -1.705000
v 1.320000 10.200000 -1.775000
v 1.250000 10.200000 1.705000
v 1.320000 10.270000 1.705000
v 1.320000 10.200000 1.775000
v 2.250000 9.620000 -1.705000
v 2.180000 9.550000 -1.705000
v 2.180000 9.620000 -1.775000
v 2.250000 9.620000 1.705000
v 2.180000 9.550000 1.705000
v 2.180000 9.620000 1.775000
v 2.250000 10.200000 -1.705000
v 2.180000 10.270000 -1.705000
v 2.180000 10.200000 -1.775000
v 2.250000 10.200000 1.705000
v 2.180000 10.270000 1.705000
v 2.180000 10.200000 1.775000
v 2.100000 0.088000 1.188000
v 2.188000 0.000000 1.188000
v 2.188000 0.088000 1.100000
v 2.100000 0.088000 2.012000
v 2.188000 0.000000 2.012000
v 2.188000 0.088000 2.100000
v 2.100000 0.352000 1.188000
v 2.188000 0.440000 1.188000
v 2.188000 0.352000 1.100000
v 2.100000 0.352000 2.012000
v 2.188000 0.440000 2.012000
v 2.188000 0.352000 2.100000
v 3.300000 0.088000 1.188000
v 3.212000 0.000000 1.188000
v 3.212000 0.088000 1.100000
v 3.300000 0.088000 2.012000
v 3.212000 0.000000 2.012000
v 3.212000 0.088000 2.100000
v 3.300000 0.352000 1.188000
v 3.212000 0.440000 1.188000
v 3.212000 0.352000 1.100000
v 3.300000 0.352000 2.012000
v 3.212000 0.440000 2.012000
v 3.212000 0.352000 2.100000
v -3.300000 0.064000 -1.886000
v -3.236000 0.000000 -1.886000
v -3.236000 0.064000 -1.950000
v -3.300000 0.064000 -1.114000
v -3.236000 0.000000 -1.114000
v -3.236000 0.064000 -1.050000
v -3.300000 0.256000 -1.886000
v -3.236000 0.320000 -1.886000
v -3.236000 0.256000 -1.950000
v -3.300000 0.256000 -1.114000
v -3.236000 0.320000 -1.114000
v -3.236000 0.256000 -1.050000
v -2.500000 0.064000 -1.886000
v -2.564000 0.000000 -1.886000
v -2.564000 0.064000 -1.950000
v -2.500000 0.064000 -1.114000
v -2.564000 0.000000 -1.114000
v -2.564000 0.064000 -1.050000
v -2.500000 0.256000 -1.886000
v -2.564000 0.320000 -1.886000
v -2.564000 0.256000 -1.950000
v -2.500000 0.256000 -1.114000
v -2.564000 0.320000 -1.114000
v -2.564000 0.256000 -1.050000
vn -1.000000 0.000000 0.000000
vn -1.000000 0.000000 0.000000
vn 1.000000 0.000000 0.000000
vn 1.000000 0.000000 0.000000
vn 0.000000 -1.000000 0.000000
vn 0.000000 -1.000000 0.000000
vn -0.000000 1.000000 0.000000
vn 0.000000 1.000000 0.000000
vn 0.000000 0.000000 -1.000000
vn 0.000000 0.000000 -1.000000
vn 0.000000 0.000000 1.000000
vn 0.000000 0.000000 1.000000
vn -0.707107 -0.707107 0.000000
vn -0.707107 -0.707107 0.000000
vn -0.707107 0.707107 0.000000
vn -0.707107 0.707107 0.000000
vn 0.707107 -0.707107 0.000000
vn 0.707107 -0.707107 0.000000
vn 0.707107 0.707107 -0.000000
vn 0.707107 0.707107 0.000000
vn -0.707107 0.000000 -0.707107
vn -0.707107 0.000000 -0.707107
vn -0.707107 0.000000 0.707107
vn -0.707107 0.000000 0.707107
vn 0.707107 0.000000 -0.707107
vn 0.707107 0.000000 -0.707107
vn 0.707107 -0.000000 0.707107
vn 0.707107 0.000000 0.707107
vn 0.000000 -0.707107 -0.707107
vn 0.000000 -0.707107 -0.707107
vn 0.000000 -0.707107 0.707107
vn 0.000000 -0.707107 0.707107
vn 0.000000 0.707107 -0.707107
vn 0.000000 0.707107 -0.707107
vn -0.000000 0.707107 0.707107
vn 0.000000 0.707107 0.707107
vn -0.577350 -0.577350 -0.577350
vn -0.577350 -0.577350 0.577350
vn -0.577350 0.577350 -0.577350
vn -0.577350 0.577350 0.577350
vn 0.577350 -0.577350 -0.577350
vn 0.577350 -0.577350 0.577350
vn 0.577350 0.577350 -0.577350
vn 0.577350 0.577350 0.577350
vn -1.000000 0.000000 0.000000
vn -1.000000 0.000000 0.000000
vn 1.000000 0.000000 0.000000
vn 1.000000 0.000000 0.000000
vn 0.000000 -1.000000 0.000000
vn 0.000000 -1.000000 0.000000
vn -0.000000 1.000000 0.000000
vn 0.000000 1.000000 0.000000
vn 0.000000 0.000000 -1.000000
vn 0.000000 0.000000 -1.000000
vn 0.000000 0.000000 1.000000
vn 0.000000 0.000000 1.000000
vn -0.707107 -0.707107 0.000000
vn -0.707107 -0.707107 0.000000
vn -0.707107 0.707107 0.000000
vn -0.707107 0.707107 0.000000
vn 0.707107 -0.707107 0.000000
vn 0.707107 -0.707107 0.000000
vn 0.707107 0.707107 -0.000000
vn 0.707107 0.707107 0.000000
vn -0.707107 0.000000 -0.707107
vn -0.707107 0.000000 -0.707107
vn -0.707107 0.000000 0.707107
vn -0.707107 0.000000 0.707107
vn 0.707107 0.000000 -0.707107
vn 0.707107 0.000000 -0.707107
vn 0.707107 -0.000000 0.707107
vn 0.707107 0.000000 0.707107
vn 0.000000 -0.707107 -0.707107
vn 0.000000 -0.707107 -0.707107
vn 0.000000 -0.707107 0.707107
vn 0.000000 -0.707107 0.707107
vn 0.000000 0.707107 -0.707107
vn 0.000000 0.707107 -0.707107
vn -0.000000 0.707107 0.707107
vn 0.000000 0.707107 0.707107
vn -0.577350 -0.577350 -0.577350
vn -0.577350 -0.577350 0.577350
vn -0.577350 0.577350 -0.577350
vn -0.577350 0.577350 0.577350
vn 0.577350 -0.577350 -0.577350
vn 0.577350 -0.577350 0.577350
vn 0.577350 0.577350 -0.577350
vn 0.577350 0.577350 0.577350
vn -1.000000 0.000000 0.000000
vn -1.000000 0.000000 0.000000
vn 1.000000 0.000000 0.000000
vn 1.000000 0.000000 0.000000
vn 0.000000 -1.000000 0.000000
vn 0.000000 -1.000000 0.000000
vn -0.000000 1.000000 0.000000
vn 0.000000 1.000000 0.000000
vn 0.000000 0.000000 -1.000000
vn 0.000000 0.000000 -1.000000
vn 0.000000 0.000000 1.000000
vn 0.000000 0.000000 1.000000
vn -0.707107 -0.707107 0.000000
vn -0.707107 -0.707107 0.000000
vn -0.707107 0.707107 0.000000
vn -0.707107 0.707107 0.000000
vn 0.707107 -0.707107 0.000000
vn 0.707107 -0.707107 0.000000
vn 0.707107 0.707107 -0.000000
vn 0.707107 0.707107 0.000000
vn -0.707107 0.000000 -0.707107
vn -0.707107 0.000000 -0.707107
vn -0.707107 0.000000 0.707107
vn -0.707107 0.000000 0.707107
vn 0.707107 0.000000 -0.707107
vn 0.707107 0.000000 -0.707107
vn 0.707107 -0.000000 0.707107
vn 0.707107 0.000000 0.707107
vn 0.000000 -0.707107 -0.707107
vn 0.000000 -0.707107 -0.707107
vn 0.000000 -0.707107 0.707107
vn 0.000000 -0.707107 0.707107
vn 0.000000 0.707107 -0.707107
vn 0.000000 0.707107 -0.707107
vn -0.000000 0.707107 0.707107
vn 0.000000 0.707107 0.707107
vn -0.577350 -0.577350 -0.577350
vn -0.577350 -0.577350 0.577350
vn -0.577350 0.577350 -0.577350
vn -0.577350 0.577350 0.577350
vn 0.577350 -0.577350 -0.577350
vn 0.577350 -0.577350 0.577350
vn 0.577350 0.577350 -0.577350
vn 0.577350 0.577350 0.577350
vn -1.000000 0.000000 0.000000
vn -1.000000 0.000000 0.000000
vn 1.000000 0.000000 0.000000
vn 1.000000 0.000000 0.000000
vn 0.000000 -1.000000 0.000000
vn 0.000000 -1.000000 0.000000
vn -0.000000 1.000000 0.000000
vn 0.000000 1.000000 0.000000
vn 0.000000 0.000000 -1.000000
vn 0.000000 0.000000 -1.000000
vn 0.000000 0.000000 1.000000
vn 0.000000 0.000000 1.000000
vn -0.707107 -0.707107 0.000000
vn -0.707107 -0.707107 0.000000
vn -0.707107 0.707107 0.000000
vn -0.707107 0.707107 0.000000
vn 0.707107 -0.707107 0.000000
vn 0.707107 -0.707107 0.000000
vn 0.707107 0.707107 -0.000000
vn 0.707107 0.707107 0.000000
vn -0.707107 0.000000 -0.707107
vn -0.707107 0.000000 -0.707107
vn -0.707107 0.000000 0.707107
vn -0.707107 0.000000 0.707107
vn 0.707107 0.000000 -0.707107
vn 0.707107 0.000000 -0.707107
vn 0.707107 -0.000000 0.707107
vn 0.707107 0.000000 0.707107
vn 0.000000 -0.707107 -0.707107
vn 0.000000 -0.707107 -0.707107
vn 0.000000 -0.707107 0.707107
vn 0.000000 -0.707107 0.707107
vn 0.000000 0.707107 -0.707107
vn 0.000000 0.707107 -0.707107
vn -0.000000 0.707107 0.707107
vn 0.000000 0.707107 0.707107
vn -0.577350 -0.577350 -0.577350
vn -0.577350 -0.577350 0.577350
vn -0.577350 0.577350 -0.577350
vn -0.577350 0.577350 0.577350
vn 0.577350 -0.577350 -0.577350
vn 0.577350 -0.577350 0.577350
vn 0.577350 0.577350 -0.577350
vn 0.577350 0.577350 0.577350
vn -1.000000 0.000000 0.000000
vn -1.000000 0.000000 0.000000
vn 1.000000 0.000000 0.000000
vn 1.000000 0.000000 0.000000
vn 0.000000 -1.000000 0.000000
vn 0.000000 -1.000000 0.000000
vn -0.000000 1.000000 0.000000
vn 0.000000 1.000000 0.000000
vn 0.000000 0.000000 -1.000000
vn 0.000000 0.000000 -1.000000
vn 0.000000 0.000000 1.000000
vn 0.000000 0.000000 1.000000
vn -0.707107 -0.707107 0.000000
vn -0.707107 -0.707107 0.000000
vn -0.707107 0.707107 0.000000
vn -0.707107 0.707107 0.000000
vn 0.707107 -0.707107 0.000000
vn 0.707107 -0.707107 0.000000
vn 0.707107 0.707107 -0.000000
vn 0.707107 0.707107 0.000000
vn -0.707107 0.000000 -0.707107
vn -0.707107 0.000000 -0.707107
vn -0.707107 0.000000 0.707107
vn -0.707107 0.000000 0.707107
vn 0.707107 0.000000 -0.707107
vn 0.707107 0.000000 -0.707107
vn 0.707107 -0.000000 0.707107
vn 0.707107 0.000000 0.707107
vn 0.000000 -0.707107 -0.707107
vn 0.000000 -0.707107 -0.707107
vn 0.000000 -0.707107 0.707107
vn 0.000000 -0.707107 0.707107
vn 0.000000 0.707107 -0.707107
vn 0.000000 0.707107 -0.707107
vn -0.000000 0.707107 0.707107
vn 0.000000 0.707107 0.707107
vn -0.577350 -0.577350 -0.577350
vn -0.577350 -0.577350 0.577350
vn -0.577350 0.577350 -0.577350
vn -0.577350 0.577350 0.577350
vn 0.577350 -0.577350 -0.577350
vn 0.577350 -0.577350 0.577350
vn 0.577350 0.577350 -0.577350
vn 0.577350 0.577350 0.577350
vn -1.000000 0.000000 0.000000
vn -1.000000 0.000000 0.000000
vn 1.000000 0.000000 0.000000
vn 1.000000 0.000000 0.000000
vn 0.000000 -1.000000 0.000000
vn 0.000000 -1.000000 0.000000
vn -0.000000 1.000000 0.000000
vn 0.000000 1.000000 0.000000
vn 0.000000 0.000000 -1.000000
vn 0.000000 0.000000 -1.000000
vn 0.000000 0.000000 1.000000
vn 0.000000 0.000000 1.000000
vn -0.707107 -0.707107 0.000000
vn -0.707107 -0.707107 0.000000
vn -0.707107 0.707107 0.000000
vn -0.707107 0.707107 0.000000
vn 0.707107 -0.707107 0.000000
vn 0.707107 -0.707107 0.000000
vn 0.707107 0.707107 -0.000000
vn 0.707107 0.707107 0.000000
vn -0.707107 0.000000 -0.707107
vn -0.707107 0.000000 -0.707107
vn -0.707107 0.000000 0.707107
vn -0.707107 0.000000 0.707107
vn 0.707107 0.000000 -0.707107
vn 0.707107 0.000000 -0.707107
vn 0.707107 -0.000000 0.707107
vn 0.707107 0.000000 0.707107
vn 0.000000 -0.707107 -0.707107
vn 0.000000 -0.707107 -0.707107
vn 0.000000 -0.707107 0.707107
vn 0.000000 -0.707107 0.707107
vn 0.000000 0.707107 -0.707107
vn 0.000000 0.707107 -0.707107
vn -0.000000 0.707107 0.707107
vn 0.000000 0.707107 0.707107
vn -0.577350 -0.577350 -0.577350
vn -0.577350 -0.577350 0.577350
vn -0.577350 0.577350 -0.577350
vn -0.577350 0.577350 0.577350
vn 0.577350 -0.577350 -0.577350
vn 0.577350 -0.577350 0.577350
vn 0.577350 0.577350 -0.577350
vn 0.577350 0.577350 0.577350
vn -1.000000 0.000000 0.000000
vn -1.000000 0.000000 0.000000
vn 1.000000 0.000000 0.000000
vn 1.000000 0.000000 0.000000
vn 0.000000 -1.000000 0.000000
vn 0.000000 -1.000000 0.000000
vn -0.000000 1.000000 0.000000
vn 0.000000 1.000000 0.000000
vn 0.000000 0.000000 -1.000000
vn 0.000000 0.000000 -1.000000
vn 0.000000 0.000000 1.000000
vn 0.000000 0.000000 1.000000
vn -0.707107 -0.707107 0.000000
vn -0.707107 -0.707107 0.000000
vn -0.707107 0.707107 0.000000
vn -0.707107 0.707107 0.000000
vn 0.707107 -0.707107 0.000000
vn 0.707107 -0.707107 0.000000
vn 0.707107 0.707107 -0.000000
vn 0.707107 0.707107 0.000000
vn -0.707107 0.000000 -0.707107
vn -0.707107 0.000000 -0.707107
vn -0.707107 0.000000 0.707107
vn -0.707107 0.000000 0.707107
vn 0.707107 0.000000 -0.707107
vn 0.707107 0.000000 -0.707107
vn 0.707107 -0.000000 0.707107
vn 0.707107 0.000000 0.707107
vn 0.000000 -0.707107 -0.707107
vn 0.000000 -0.707107 -0.707107
vn 0.000000 -0.707107 0.707107
vn 0.000000 -0.707107 0.707107
vn 0.000000 0.707107 -0.707107
vn 0.000000 0.707107 -0.707107
vn -0.000000 0.707107 0.707107
vn 0.000000 0.707107 0.707107
vn -0.577350 -0.577350 -0.577350
vn -0.577350 -0.577350 0.577350
vn -0.577350 0.577350 -0.577350
vn -0.577350 0.577350 0.577350
vn 0.577350 -0.577350 -0.577350
vn 0.577350 -0.577350 0.577350
vn 0.577350 0.577350 -0.577350
vn 0.577350 0.577350 0.577350
vn -1.000000 0.000000 0.000000
vn -1.000000 0.000000 0.000000
vn 1.000000 0.000000 0.000000
vn 1.000000 0.000000 0.000000
vn 0.000000 -1.000000 0.000000
vn 0.000000 -1.000000 0.000000
vn -0.000000 1.000000 0.000000
vn 0.000000 1.000000 0.000000
vn 0.000000 0.000000 -1.000000
vn 0.000000 0.000000 -1.000000
vn 0.000000 0.000000 1.000000
vn 0.000000 0.000000 1.000000
vn -0.707107 -0.707107 0.000000
vn -0.707107 -0.707107 0.000000
vn -0.707107 0.707107 0.000000
vn -0.707107 0.707107 0.000000
vn 0.707107 -0.707107 0.000000
vn 0.707107 -0.707107 0.000000
vn 0.707107 0.707107 -0.000000
vn 0.707107 0.707107 0.000000
vn -0.707107 0.000000 -0.707107
vn -0.707107 0.000000 -0.707107
vn -0.707107 0.000000 0.707107
vn -0.707107 0.000000 0.707107
vn 0.707107 0.000000 -0.707107
vn 0.707107 0.000000 -0.707107
vn 0.707107 -0.000000 0.707107
vn 0.707107 0.000000 0.707107
vn 0.000000 -0.707107 -0.707107
vn 0.000000 -0.707107 -0.707107
vn 0.000000 -0.707107 0.707107
vn 0.000000 -0.707107 0.707107
vn 0.000000 0.707107 -0.707107
vn 0.000000 0.707107 -0.707107
vn -0.000000 0.707107 0.707107
vn 0.000000 0.707107 0.707107
vn -0.577350 -0.577350 -0.577350
vn -0.577350 -0.577350 0.577350
vn -0.577350 0.577350 -0.577350
vn -0.577350 0.577350 0.577350
vn 0.577350 -0.577350 -0.577350
vn 0.577350 -0.577350 0.577350
vn 0.577350 0.577350 -0.577350
vn 0.577350 0.577350 0.577350
vn -1.000000 0.000000 0.000000
vn -1.000000 0.000000 0.000000
vn 1.000000 0.000000 0.000000
vn 1.000000 0.000000 0.000000
vn 0.000000 -1.000000 0.000000
vn 0.000000 -1.000000 0.000000
vn -0.000000 1.000000 0.000000
vn 0.000000 1.000000 0.000000
vn 0.000000 0.000000 -1.000000
vn 0.000000 0.000000 -1.000000
vn 0.000000 0.000000 1.000000
vn 0.000000 0.000000 1.000000
vn -0.707107 -0.707107 0.000000
vn -0.707107 -0.707107 0.000000
vn -0.707107 0.707107 0.000000
vn -0.707107 0.707107 0.000000
vn 0.707107 -0.707107 0.000000
vn 0.707107 -0.707107 0.000000
vn 0.707107 0.707107 -0.000000
vn 0.707107 0.707107 0.000000
vn -0.707107 0.000000 -0.707107
vn -0.707107 0.000000 -0.707107
vn -0.707107 0.000000 0.707107
vn -0.707107 0.000000 0.707107
vn 0.707107 0.000000 -0.707107
vn 0.707107 0.000000 -0.707107
vn 0.707107 -0.000000 0.707107
vn 0.707107 0.000000 0.707107
vn 0.000000 -0.707107 -0.707107
vn 0.000000 -0.707107 -0.707107
vn 0.000000 -0.707107 0.707107
vn 0.000000 -0.707107 0.707107
vn 0.000000 0.707107 -0.707107
vn 0.000000 0.707107 -0.707107
vn -0.000000 0.707107 0.707107
vn 0.000000 0.707107 0.707107
vn -0.577350 -0.577350 -0.577350
vn -0.577350 -0.577350 0.577350
vn -0.577350 0.577350 -0.577350
vn -0.577350 0.577350 0.577350
vn 0.577350 -0.577350 -0.577350
vn 0.577350 -0.577350 0.577350
vn 0.577350 0.577350 -0.577350
vn 0.577350 0.577350 0.577350
vn -1.000000 0.000000 0.000000
vn -1.000000 0.000000 0.000000
vn 1.000000 0.000000 0.000000
vn 1.000000 0.000000 0.000000
vn 0.000000 -1.000000 0.000000
vn 0.000000 -1.000000 0.000000
vn -0.000000 1.000000 0.000000
vn 0.000000 1.000000 0.000000
vn 0.000000 0.000000 -1.000000
vn 0.000000 0.000000 -1.000000
vn 0.000000 0.000000 1.000000
vn 0.000000 0.000000 1.000000
vn -0.707107 -0.707107 0.000000
vn -0.707107 -0.707107 0.000000
vn -0.707107 0.707107 0.000000
vn -0.707107 0.707107 0.000000
vn 0.707107 -0.707107 0.000000
vn 0.707107 -0.707107 0.000000
vn 0.707107 0.707107 -0.000000
vn 0.707107 0.707107 0.000000
vn -0.707107 0.000000 -0.707107
vn -0.707107 0.000000 -0.707107
vn -0.707107 0.000000 0.707107
vn -0.707107 0.000000 0.707107
vn 0.707107 0.000000 -0.707107
vn 0.707107 0.000000 -0.707107
vn 0.707107 -0.000000 0.707107
vn 0.707107 0.000000 0.707107
vn 0.000000 -0.707107 -0.707107
vn 0.000000 -0.707107 -0.707107
vn 0.000000 -0.707107 0.707107
vn 0.000000 -0.707107 0.707107
vn 0.000000 0.707107 -0.707107
vn 0.000000 0.707107 -0.707107
vn -0.000000 0.707107 0.707107
vn 0.000000 0.707107 0.707107
vn -0.577350 -0.577350 -0.577350
vn -0.577350 -0.577350 0.577350
vn -0.577350 0.577350 -0.577350
vn -0.577350 0.577350 0.577350
vn 0.577350 -0.577350 -0.577350
vn 0.577350 -0.577350 0.577350
vn 0.577350 0.577350 -0.577350
vn 0.577350 0.577350 0.577350
vn -1.000000 0.000000 0.000000
vn -1.000000 0.000000 0.000000
vn 1.000000 0.000000 0.000000
vn 1.000000 0.000000 0.000000
vn 0.000000 -1.000000 0.000000
vn 0.000000 -1.000000 0.000000
vn -0.000000 1.000000 0.000000
vn 0.000000 1.000000 0.000000
vn 0.000000 0.000000 -1.000000
vn 0.000000 0.000000 -1.000000
vn 0.000000 0.000000 1.000000
vn 0.000000 0.000000 1.000000
vn -0.707107 -0.707107 0.000000
vn -0.707107 -0.707107 0.000000
vn -0.707107 0.707107 0.000000
vn -0.707107 0.707107 0.000000
vn 0.707107 -0.707107 0.000000
vn 0.707107 -0.707107 0.000000
vn 0.707107 0.707107 -0.000000
vn 0.707107 0.707107 0.000000
vn -0.707107 0.000000 -0.707107
vn -0.707107 0.000000 -0.707107
vn -0.707107 0.000000 0.707107
vn -0.707107 0.000000 0.707107
vn 0.707107 0.000000 -0.707107
vn 0.707107 0.000000 -0.707107
vn 0.707107 -0.000000 0.707107
vn 0.707107 0.000000 0.707107
vn 0.000000 -0.707107 -0.707107
vn 0.000000 -0.707107 -0.707107
vn 0.000000 -0.707107 0.707107
vn 0.000000 -0.707107 0.707107
vn 0.000000 0.707107 -0.707107
vn 0.000000 0.707107 -0.707107
vn -0.000000 0.707107 0.707107
vn 0.000000 0.707107 0.707107
vn -0.577350 -0.577350 -0.577350
vn -0.577350 -0.577350 0.577350
vn -0.577350 0.577350 -0.577350
vn -0.577350 0.577350 0.577350
vn 0.577350 -0.577350 -0.577350
vn 0.577350 -0.577350 0.577350
vn 0.577350 0.577350 -0.577350
vn 0.577350 0.577350 0.577350
vn -1.000000 0.000000 0.000000
vn -1.000000 0.000000 0.000000
vn 1.000000 0.000000 0.000000
vn 1.000000 0.000000 0.000000
vn 0.000000 -1.000000 0.000000
vn 0.000000 -1.000000 0.000000
vn -0.000000 1.000000 0.000000
vn 0.000000 1.000000 0.000000
vn 0.000000 0.000000 -1.000000
vn 0.000000 0.000000 -1.000000
vn 0.000000 0.000000 1.000000
vn 0.000000 0.000000 1.000000
vn -0.707107 -0.707107 0.000000
vn -0.707107 -0.707107 0.000000
vn -0.707107 0.707107 0.000000
vn -0.707107 0.707107 0.000000
vn 0.707107 -0.707107 0.000000
vn 0.707107 -0.707107 0.000000
vn 0.707107 0.707107 -0.000000
vn 0.707107 0.707107 0.000000
vn -0.707107 0.000000 -0.707107
vn -0.707107 0.000000 -0.707107
vn -0.707107 0.000000 0.707107
vn -0.707107 0.000000 0.707107
vn 0.707107 0.000000 -0.707107
vn 0.707107 0.000000 -0.707107
vn 0.707107 -0.000000 0.707107
vn 0.707107 0.000000 0.707107
vn 0.000000 -0.707107 -0.707107
vn 0.000000 -0.707107 -0.707107
vn 0.000000 -0.707107 0.707107
vn 0.000000 -0.707107 0.707107
vn 0.000000 0.707107 -0.707107
vn 0.000000 0.707107 -0.707107
vn -0.000000 0.707107 0.707107
vn 0.000000 0.707107 0.707107
vn -0.577350 -0.577350 -0.577350
vn -0.577350 -0.577350 0.577350
vn -0.577350 0.577350 -0.577350
vn -0.577350 0.577350 0.577350
vn 0.577350 -0.577350 -0.577350
vn 0.577350 -0.577350 0.577350
vn 0.577350 0.577350 -0.577350
vn 0.577350 0.577350 0.577350
vn -1.000000 0.000000 0.000000
vn -1.000000 0.000000 0.000000
vn 1.000000 0.000000 0.000000
vn 1.000000 0.000000 0.000000
vn 0.000000 -1.000000 0.000000
vn 0.000000 -1.000000 0.000000
vn -0.000000 1.000000 0.000000
vn 0.000000 1.000000 0.000000
vn 0.000000 0.000000 -1.000000
vn 0.000000 0.000000 -1.000000
vn 0.000000 0.000000 1.000000
vn 0.000000 0.000000 1.000000
vn -0.707107 -0.707107 0.000000
vn -0.707107 -0.707107 0.000000
vn -0.707107 0.707107 0.000000
vn -0.707107 0.707107 0.000000
vn 0.707107 -0.707107 0.000000
vn 0.707107 -0.707107 0.000000
vn 0.707107 0.707107 -0.000000
vn 0.707107 0.707107 0.000000
vn -0.707107 0.000000 -0.707107
vn -0.707107 0.000000 -0.707107
vn -0.707107 0.000000 0.707107
vn -0.707107 0.000000 0.707107
vn 0.707107 0.000000 -0.707107
vn 0.707107 0.000000 -0.707107
vn 0.707107 -0.000000 0.707107
vn 0.707107 0.000000 0.707107
vn 0.000000 -0.707107 -0.707107
vn 0.000000 -0.707107 -0.707107
vn 0.000000 -0.707107 0.707107
vn 0.000000 -0.707107 0.707107
vn 0.000000 0.707107 -0.707107
vn 0.000000 0.707107 -0.707107
vn -0.000000 0.707107 0.707107
vn 0.000000 0.707107 0.707107
vn -0.577350 -0.577350 -0.577350
vn -0.577350 -0.577350 0.577350
vn -0.577350 0.577350 -0.577350
vn -0.577350 0.577350 0.577350
vn 0.577350 -0.577350 -0.577350
vn 0.577350 -0.577350 0.577350
vn 0.577350 0.577350 -0.577350
vn 0.577350 0.577350 0.577350
vn -1.000000 0.000000 0.000000
vn -1.000000 0.000000 0.000000
vn 1.000000 0.000000 0.000000
vn 1.000000 0.000000 0.000000
vn 0.000000 -1.000000 0.000000
vn 0.000000 -1.000000 0.000000
vn -0.000000 1.000000 0.000000
vn 0.000000 1.000000 0.000000
vn 0.000000 0.000000 -1.000000
vn 0.000000 0.000000 -1.000000
vn 0.000000 0.000000 1.000000
vn 0.000000 0.000000 1.000000
vn -0.707107 -0.707107 0.000000
vn -0.707107 -0.707107 0.000000
vn -0.707107 0.707107 0.000000
vn -0.707107 0.707107 0.000000
vn 0.707107 -0.707107 0.000000
vn 0.707107 -0.707107 0.000000
vn 0.707107 0.707107 -0.000000
vn 0.707107 0.707107 0.000000
vn -0.707107 0.000000 -0.707107
vn -0.707107 0.000000 -0.707107
vn -0.707107 0.000000 0.707107
vn -0.707107 0.000000 0.707107
vn 0.707107 0.000000 -0.707107
vn 0.707107 0.000000 -0.707107
vn 0.707107 -0.000000 0.707107
vn 0.707107 0.000000 0.707107
vn 0.000000 -0.707107 -0.707107
vn 0.000000 -0.707107 -0.707107
vn 0.000000 -0.707107 0.707107
vn 0.000000 -0.707107 0.707107
vn 0.000000 0.707107 -0.707107
vn 0.000000 0.707107 -0.707107
vn -0.000000 0.707107 0.707107
vn 0.000000 0.707107 0.707107
vn -0.577350 -0.577350 -0.577350
vn -0.577350 -0.577350 0.577350
vn -0.577350 0.577350 -0.577350
vn -0.577350 0.577350 0.577350
vn 0.577350 -0.577350 -0.577350
vn 0.577350 -0.577350 0.577350
vn 0.577350 0.577350 -0.577350
vn 0.577350 0.577350 0.577350
vn -1.000000 0.000000 0.000000
vn -1.000000 0.000000 0.000000
vn 1.000000 0.000000 0.000000
vn 1.000000 0.000000 0.000000
vn 0.000000 -1.000000 0.000000
vn 0.000000 -1.000000 0.000000
vn -0.000000 1.000000 0.000000
vn 0.000000 1.000000 0.000000
vn 0.000000 0.000000 -1.000000
vn 0.000000 0.000000 -1.000000
vn 0.000000 0.000000 1.000000
vn 0.000000 0.000000 1.000000
vn -0.707107 -0.707107 0.000000
vn -0.707107 -0.707107 0.000000
vn -0.707107 0.707107 0.000000
vn -0.707107 0.707107 0.000000
vn 0.707107 -0.707107 0.000000
vn 0.707107 -0.707107 0.000000
vn 0.707107 0.707107 -0.000000
vn 0.707107 0.707107 0.000000
vn -0.707107 0.000000 -0.707107
vn -0.707107 0.000000 -0.707107
vn -0.707107 0.000000 0.707107
vn -0.707107 0.000000 0.707107
vn 0.707107 0.000000 -0.707107
vn 0.707107 0.000000 -0.707107
vn 0.707107 -0.000000 0.707107
vn 0.707107 0.000000 0.707107
vn 0.000000 -0.707107 -0.707107
vn 0.000000 -0.707107 -0.707107
vn 0.000000 -0.707107 0.707107
vn 0.000000 -0.707107 0.707107
vn 0.000000 0.707107 -0.707107
vn 0.000000 0.707107 -0.707107
vn -0.000000 0.707107 0.707107
vn 0.000000 0.707107 0.707107
vn -0.577350 -0.577350 -0.577350
vn -0.577350 -0.577350 0.577350
vn -0.577350 0.577350 -0.577350
vn -0.577350 0.577350 0.577350
vn 0.577350 -0.577350 -0.577350
vn 0.577350 -0.577350 0.577350
vn 0.577350 0.577350 -0.577350
vn 0.577350 0.577350 0.577350
vn -1.000000 0.000000 0.000000
vn -1.000000 0.000000 0.000000
vn 1.000000 0.000000 0.000000
vn 1.000000 0.000000 0.000000
vn 0.000000 -1.000000 0.000000
vn 0.000000 -1.000000 0.000000
vn -0.000000 1.000000 0.000000
vn 0.000000 1.000000 0.000000
vn 0.000000 0.000000 -1.000000
vn 0.000000 0.000000 -1.000000
vn 0.000000 0.000000 1.000000
vn 0.000000 0.000000 1.000000
vn -0.707107 -0.707107 0.000000
vn -0.707107 -0.707107 0.000000
vn -0.707107 0.707107 0.000000
vn -0.707107 0.707107 0.000000
vn 0.707107 -0.707107 0.000000
vn 0.707107 -0.707107 0.000000
vn 0.707107 0.707107 -0.000000
vn 0.707107 0.707107 0.000000
vn -0.707107 0.000000 -0.707107
vn -0.707107 0.000000 -0.707107
vn -0.707107 0.000000 0.707107
vn -0.707107 0.000000 0.707107
vn 0.707107 0.000000 -0.707107
vn 0.707107 0.000000 -0.707107
vn 0.707107 -0.000000 0.707107
vn 0.707107 0.000000 0.707107
vn 0.000000 -0.707107 -0.707107
vn 0.000000 -0.707107 -0.707107
vn 0.000000 -0.707107 0.707107
vn 0.000000 -0.707107 0.707107
vn 0.000000 0.707107 -0.707107
vn 0.000000 0.707107 -0.707107
vn -0.000000 0.707107 0.707107
vn 0.000000 0.707107 0.707107
vn -0.577350 -0.577350 -0.577350
vn -0.577350 -0.577350 0.577350
vn -0.577350 0.577350 -0.577350
vn -0.577350 0.577350 0.577350
vn 0.577350 -0.577350 -0.577350
vn 0.577350 -0.577350 0.577350
vn 0.577350 0.577350 -0.577350
vn 0.577350 0.577350 0.577350
vn -1.000000 0.000000 0.000000
vn -1.000000 0.000000 0.000000
vn 1.000000 0.000000 0.000000
vn 1.000000 0.000000 0.000000
vn 0.000000 -1.000000 0.000000
vn 0.000000 -1.000000 0.000000
vn -0.000000 1.000000 0.000000
vn 0.000000 1.000000 0.000000
vn 0.000000 0.000000 -1.000000
vn 0.000000 0.000000 -1.000000
vn 0.000000 0.000000 1.000000
vn 0.000000 0.000000 1.000000
vn -0.707107 -0.707107 0.000000
vn -0.707107 -0.707107 0.000000
vn -0.707107 0.707107 0.000000
vn -0.707107 0.707107 0.000000
vn 0.707107 -0.707107 0.000000
vn 0.707107 -0.707107 0.000000
vn 0.707107 0.707107 -0.000000
vn 0.707107 0.707107 0.000000
vn -0.707107 0.000000 -0.707107
vn -0.707107 0.000000 -0.707107
vn -0.707107 0.000000 0.707107
vn -0.707107 0.000000 0.707107
vn 0.707107 0.000000 -0.707107
vn 0.707107 0.000000 -0.707107
vn 0.707107 -0.000000 0.707107
vn 0.707107 0.000000 0.707107
vn 0.000000 -0.707107 -0.707107
vn 0.000000 -0.707107 -0.707107
vn 0.000000 -0.707107 0.707107
vn 0.000000 -0.707107 0.707107
vn 0.000000 0.707107 -0.707107
vn 0.000000 0.707107 -0.707107
vn -0.000000 0.707107 0.707107
vn 0.000000 0.707107 0.707107
vn -0.577350 -0.577350 -0.577350
vn -0.577350 -0.577350 0.577350
vn -0.577350 0.577350 -0.577350
vn -0.577350 0.577350 0.577350
vn 0.577350 -0.577350 -0.577350
vn 0.577350 -0.577350 0.577350
vn 0.577350 0.577350 -0.577350
vn 0.577350 0.577350 0.577350
vn -1.000000 0.000000 0.000000
vn -1.000000 0.000000 0.000000
vn 1.000000 0.000000 0.000000
vn 1.000000 0.000000 0.000000
vn 0.000000 -1.000000 0.000000
vn 0.000000 -1.000000 0.000000
vn -0.000000 1.000000 0.000000
vn 0.000000 1.000000 0.000000
vn 0.000000 0.000000 -1.000000
vn 0.000000 0.000000 -1.000000
vn 0.000000 0.000000 1.000000
vn 0.000000 0.000000 1.000000
vn -0.707107 -0.707107 0.000000
vn -0.707107 -0.707107 0.000000
vn -0.707107 0.707107 0.000000
vn -0.707107 0.707107 0.000000
vn 0.707107 -0.707107 0.000000
vn 0.707107 -0.707107 0.000000
vn 0.707107 0.707107 -0.000000
vn 0.707107 0.707107 0.000000
vn -0.707107 0.000000 -0.707107
vn -0.707107 0.000000 -0.707107
vn -0.707107 0.000000 0.707107
vn -0.707107 0.000000 0.707107
vn 0.707107 0.000000 -0.707107
vn 0.707107 0.000000 -0.707107
vn 0.707107 -0.000000 0.707107
vn 0.707107 0.000000 0.707107
vn 0.000000 -0.707107 -0.707107
vn 0.000000 -0.707107 -0.707107
vn 0.000000 -0.707107 0.707107
vn 0.000000 -0.707107 0.707107
vn 0.000000 0.707107 -0.707107
vn 0.000000 0.707107 -0.707107
vn -0.000000 0.707107 0.707107
vn 0.000000 0.707107 0.707107
vn -0.577350 -0.577350 -0.577350
vn -0.577350 -0.577350 0.577350
vn -0.577350 0.577350 -0.577350
vn -0.577350 0.577350 0.577350
vn 0.577350 -0.577350 -0.577350
vn 0.577350 -0.577350 0.577350
vn 0.577350 0.577350 -0.577350
vn 0.577350 0.577350 0.577350
vn -1.000000 0.000000 0.000000
vn -1.000000 0.000000 0.000000
vn 1.000000 0.000000 0.000000
vn 1.000000 0.000000 0.000000
vn 0.000000 -1.000000 0.000000
vn 0.000000 -1.000000 0.000000
vn -0.000000 1.000000 0.000000
vn 0.000000 1.000000 0.000000
vn 0.000000 0.000000 -1.000000
vn 0.000000 0.000000 -1.000000
vn 0.000000 0.000000 1.000000
vn 0.000000 0.000000 1.000000
vn -0.707107 -0.707107 0.000000
vn -0.707107 -0.707107 0.000000
vn -0.707107 0.707107 0.000000
vn -0.707107 0.707107 0.000000
vn 0.707107 -0.707107 0.000000
vn 0.707107 -0.707107 0.000000
vn 0.707107 0.707107 -0.000000
vn 0.707107 0.707107 0.000000
vn -0.707107 0.000000 -0.707107
vn -0.707107 0.000000 -0.707107
vn -0.707107 0.000000 0.707107
vn -0.707107 0.000000 0.707107
vn 0.707107 0.000000 -0.707107
vn 0.707107 0.000000 -0.707107
vn 0.707107 -0.000000 0.707107
vn 0.707107 0.000000 0.707107
vn 0.000000 -0.707107 -0.707107
vn 0.000000 -0.707107 -0.707107
vn 0.000000 -0.707107 0.707107
vn 0.000000 -0.707107 0.707107
vn 0.000000 0.707107 -0.707107
vn 0.000000 0.707107 -0.707107
vn -0.000000 0.707107 0.707107
vn 0.000000 0.707107 0.707107
vn -0.577350 -0.577350 -0.577350
vn -0.577350 -0.577350 0.577350
vn -0.577350 0.577350 -0.577350
vn -0.577350 0.577350 0.577350
vn 0.577350 -0.577350 -0.577350
vn 0.577350 -0.577350 0.577350
vn 0.577350 0.577350 -0.577350
vn 0.577350 0.577350 0.577350
usemtl stone
s off
f 4//1 10//1 7//1
f 4//2 7//2 1//2
f 13//3 19//3 22//3
f 13//4 22//4 16//4
f 2//5 14//5 17//5
f 2//6 17//6 5//6
f 11//7 23//7 20//7
f 11//8 20//8 8//8
f 9//9 21//9 15//9
f 9//10 15//10 3//10
f 6//11 18//11 24//11
f 6//12 24//12 12//12
f 2//13 5//13 4//13
f 2//14 4//14 1//14
f 7//15 10//15 11//15
f 7//16 11//16 8//16
f 13//17 16//17 17//17
f 13//18 17//18 14//18
f 20//19 23//19 22//19
f 20//20 22//20 19//20
f 1//21 7//21 9//21
f 1//22 9//22 3//22
f 6//23 12//23 10//23
f 6//24 10//24 4//24
f 15//25 21//25 19//25
f 15//26 19//26 13//26
f 16//27 22//27 24//27
f 16//28 24//28 18//28
f 3//29 15//29 14//29
f 3//30 14//30 2//30
f 5//31 17//31 18//31
f 5//32 18//32 6//32
f 8//33 20//33 21//33
f 8//34 21//34 9//34
f 12//35 24//35 23//35
f 12//36 23//36 11//36
f 3//37 2//37 1//37
f 4//38 5//38 6//38
f 7//39 8//39 9//39
f 12//40 11//40 10//40
f 13//41 14//41 15//41
f 18//42 17//42 16//42
f 21//43 20//43 19//43
f 22//44 23//44 24//44
usemtl stone_dark
s off
f 28//45 34//45 31//45
f 28//46 31//46 25//46
f 37//47 43//47 46//47
f 37//48 46//48 40//48
f 26//49 38//49 41//49
f 26//50 41//50 29//50
f 35//51 47//51 44//51
f 35//52 44//52 32//52
f 33//53 45//53 39//53
f 33//54 39//54 27//54
f 30//55 42//55 48//55
f 30//56 48//56 36//56
f 26//57 29//57 28//57
f 26//58 28//58 25//58
f 31//59 34//59 35//59
f 31//60 35//60 32//60
f 37//61 40//61 41//61
f 37//62 41//62 38//62
f 44//63 47//63 46//63
f 44//64 46//64 43//64
f 25//65 31//65 33//65
f 25//66 33//66 27//66
f 30//67 36//67 34//67
f 30//68 34//68 28//68
f 39//69 45//69 43//69
f 39//70 43//70 37//70
f 40//71 46//71 48//71
f 40//72 48//72 42//72
f 27//73 39//73 38//73
f 27//74 38//74 26//74
f 29//75 41//75 42//75
f 29//76 42//76 30//76
f 32//77 44//77 45//77
f 32//78 45//78 33//78
f 36//79 48//79 47//79
f 36//80 47//80 35//80
f 27//81 26//81 25//81
f 28//82 29//82 30//82
f 31//83 32//83 33//83
f 36//84 35//84 34//84
f 37//85 38//85 39//85
f 42//86 41//86 40//86
f 45//87 44//87 43//87
f 46//88 47//88 48//88
usemtl stone
s off
f 52//89 58//89 55//89
f 52//90 55//90 49//90
f 61//91 67//91 70//91
f 61//92 70//92 64//92
f 50//93 62//93 65//93
f 50//94 65//94 53//94
f 59//95 71//95 68//95
f 59//96 68//96 56//96
f 57//97 69//97 63//97
f 57//98 63//98 51//98
f 54//99 66//99 72//99
f 54//100 72//100 60//100
f 50//101 53//101 52//101
f 50//102 52//102 49//102
f 55//103 58//103 59//103
f 55//104 59//104 56//104
f 61//105 64//105 65//105
f 61//106 65//106 62//106
f 68//107 71//107 70//107
f 68//108 70//108 67//108
f 49//109 55//109 57//109
f 49//110 57//110 51//110
f 54//111 60//111 58//111
f 54//112 58//112 52//112
f 63//113 69//113 67//113
f 63//114 67//114 61//114
f 64//115 70//115 72//115
f 64//116 72//116 66//116
f 51//117 63//117 62//117
f 51//118 62//118 50//118
f 53//119 65//119 66//119
f 53//120 66//120 54//120
f 56//121 68//121 69//121
f 56//122 69//122 57//122
f 60//123 72//123 71//123
f 60//124 71//124 59//124
f 51//125 50//125 49//125
f 52//126 53//126 54//126
f 55//127 56//127 57//127
f 60//128 59//128 58//128
f 61//129 62//129 63//129
f 66//130 65//130 64//130
f 69//131 68//131 67//131
f 70//132 71//132 72//132
usemtl stone_dark
s off
f 76//133 82//133 79//133
f 76//134 79//134 73//134
f 85//135 91//135 94//135
f 85//136 94//136 88//136
f 74//137 86//137 89//137
f 74//138 89//138 77//138
f 83//139 95//139 92//139
f 83//140 92//140 80//140
f 81//141 93//141 87//141
f 81//142 87//142 75//142
f 78//143 90//143 96//143
f 78//144 96//144 84//144
f 74//145 77//145 76//145
f 74//146 76//146 73//146
f 79//147 82//147 83//147
f 79//148 83//148 80//148
f 85//149 88//149 89//149
f 85//150 89//150 86//150
f 92//151 95//151 94//151
f 92//152 94//152 91//152
f 73//153 79//153 81//153
f 73//154 81//154 75//154
f 78//155 84//155 82//155
f 78//156 82//156 76//156
f 87//157 93//157 91//157
f 87//158 91//158 85//158
f 88//159 94//159 96//159
f 88//160 96//160 90//160
f 75//161 87//161 86//161
f 75//162 86//162 74//162
f 77//163 89//163 90//163
f 77//164 90//164 78//164
f 80//165 92//165 93//165
f 80//166 93//166 81//166
f 84//167 96//167 95//167
f 84//168 95//168 83//168
f 75//169 74//169 73//169
f 76//170 77//170 78//170
f 79//171 80//171 81//171
f 84//172 83//172 82//172
f 85//173 86//173 87//173
f 90//174 89//174 88//174
f 93//175 92//175 91//175
f 94//176 95//176 96//176
usemtl stone
s off
f 100//177 106//177 103//177
f 100//178 103//178 97//178
f 109//179 115//179 118//179
f 109//180 118//180 112//180
f 98//181 110//181 113//181
f 98//182 113//182 101//182
f 107//183 119//183 116//183
f 107//184 116//184 104//184
f 105//185 117//185 111//185
f 105//186 111//186 99//186
f 102//187 114//187 120//187
f 102//188 120//188 108//188
f 98//189 101//189 100//189
f 98//190 100//190 97//190
f 103//191 106//191 107//191
f 103//192 107//192 104//192
f 109//193 112//193 113//193
f 109//194 113//194 110//194
f 116//195 119//195 118//195
f 116//196 118//196 115//196
f 97//197 103//197 105//197
f 97//198 105//198 99//198
f 102//199 108//199 106//199
f 102//200 106//200 100//200
f 111//201 117//201 115//201
f 111//202 115//202 109//202
f 112//203 118//203 120//203
f 112//204 120//204 114//204
f 99//205 111//205 110//205
f 99//206 110//206 98//206
f 101//207 113//207 114//207
f 101//208 114//208 102//208
f 104//209 116//209 117//209
f 104//210 117//210 105//210
f 108//211 120//211 119//211
f 108//212 119//212 107//212
f 99//213 98//213 97//213
f 100//214 101//214 102//214
f 103//215 104//215 105//215
f 108//216 107//216 106//216
f 109//217 110//217 111//217
f 114//218 113//218 112//218
f 117//219 116//219 115//219
f 118//220 119//220 120//220
usemtl stone_dark
s off
f 124//221 130//221 127//221
f 124//222 127//222 121//222
f 133//223 139//223 142//223
f 133//224 142//224 136//224
f 122//225 134//225 137//225
f 122//226 137//226 125//226
f 131//227 143//227 140//227
f 131//228 140//228 128//228
f 129//229 141//229 135//229
f 129//230 135//230 123//230
f 126//231 138//231 144//231
f 126//232 144//232 132//232
f 122//233 125//233 124//233
f 122//234 124//234 121//234
f 127//235 130//235 131//235
f 127//236 131//236 128//236
f 133//237 136//237 137//237
f 133//238 137//238 134//238
f 140//239 143//239 142//239
f 140//240 142//240 139//240
f 121//241 127//241 129//241
f 121//242 129//242 123//242
f 126//243 132//243 130//243
f 126//244 130//244 124//244
f 135//245 141//245 139//245
f 135//246 139//246 133//246
f 136//247 142//247 144//247
f 136//248 144//248 138//248
f 123//249 135//249 134//249
f 123//250 134//250 122//250
f 125//251 137//251 138//251
f 125//252 138//252 126//252
f 128//253 140//253 141//253
f 128//254 141//254 129//254
f 132//255 144//255 143//255
f 132//256 143//256 131//256
f 123//257 122//257 121//257
f 124//258 125//258 126//258
f 127//259 128//259 129//259
f 132//260 131//260 130//260
f 133//261 134//261 135//261
f 138//262 137//262 136//262
f 141//263 140//263 139//263
f 142//264 143//264 144//264
usemtl stone
s off
f 148//265 154//265 151//265
f 148//266 151//266 145//266
f 157//267 163//267 166//267
f 157//268 166//268 160//268
f 146//269 158//269 161//269
f 146//270 161//270 149//270
f 155//271 167//271 164//271
f 155//272 164//272 152//272
f 153//273 165//273 159//273
f 153//274 159//274 147//274
f 150//275 162//275 168//275
f 150//276 168//276 156//276
f 146//277 149//277 148//277
f 146//278 148//278 145//278
f 151//279 154//279 155//279
f 151//280 155//280 152//280
f 157//281 160//281 161//281
f 157//282 161//282 158//282
f 164//283 167//283 166//283
f 164//284 166//284 163//284
f 145//285 151//285 153//285
f 145//286 153//286 147//286
f 150//287 156//287 154//287
f 150//288 154//288 148//288
f 159//289 165//289 163//289
f 159//290 163//290 157//290
f 160//291 166//291 168//291
f 160//292 168//292 162//292
f 147//293 159//293 158//293
f 147//294 158//294 146//294
f 149//295 161//295 162//295
f 149//296 162//296 150//296
f 152//297 164//297 165//297
f 152//298 165//298 153//298
f 156//299 168//299 167//299
f 156//300 167//300 155//300
f 147//301 146//301 145//301
f 148//302 149//302 150//302
f 151//303 152//303 153//303
f 156//304 155//304 154//304
f 157//305 158//305 159//305
f 162//306 161//306 160//306
f 165//307 164//307 163//307
f 166//308 167//308 168//308
usemtl stone_dark
s off
f 172//309 178//309 175//309
f 172//310 175//310 169//310
f 181//311 187//311 190//311
f 181//312 190//312 184//312
f 170//313 182//313 185//313
f 170//314 185//314 173//314
f 179//315 191//315 188//315
f 179//316 188//316 176//316
f 177//317 189//317 183//317
f 177//318 183//318 171//318
f 174//319 186//319 192//319
f 174//320 192//320 180//320
f 170//321 173//321 172//321
f 170//322 172//322 169//322
f 175//323 178//323 179//323
f 175//324 179//324 176//324
f 181//325 184//325 185//325
f 181//326 185//326 182//326
f 188//327 191//327 190//327
f 188//328 190//328 187//328
f 169//329 175//329 177//329
f 169//330 177//330 171//330
f 174//331 180//331 178//331
f 174//332 178//332 172//332
f 183//333 189//333 187//333
f 183//334 187//334 181//334
f 184//335 190//335 192//335
f 184//336 192//336 186//336
f 171//337 183//337 182//337
f 171//338 182//338 170//338
f 173//339 185//339 186//339
f 173//340 186//340 174//340
f 176//341 188//341 189//341
f 176//342 189//342 177//342
f 180//343 192//343 191//343
f 180//344 191//344 179//344
f 171//345 170//345 169//345
f 172//346 173//346 174//346
f 175//347 176//347 177//347
f 180//348 179//348 178//348
f 181//349 182//349 183//349
f 186//350 185//350 184//350
f 189//351 188//351 187//351
f 190//352 191//352 192//352
usemtl stone
s off
f 196//353 202//353 199//353
f 196//354 199//354 193//354
f 205//355 211//355 214//355
f 205//356 214//356 208//356
f 194//357 206//357 209//357
f 194//358 209//358 197//358
f 203//359 215//359 212//359
f 203//360 212//360 200//360
f 201//361 213//361 207//361
f 201//362 207//362 195//362
f 198//363 210//363 216//363
f 198//364 216//364 204//364
f 194//365 197//365 196//365
f 194//366 196//366 193//366
f 199//367 202//367 203//367
f 199//368 203//368 200//368
f 205//369 208//369 209//369
f 205//370 209//370 206//370
f 212//371 215//371 214//371
f 212//372 214//372 211//372
f 193//373 199//373 201//373
f 193//374 201//374 195//374
f 198//375 204//375 202//375
f 198//376 202//376 196//376
f 207//377 213//377 211//377
f 207//378 211//378 205//378
f 208//379 214//379 216//379
f 208//380 216//380 210//380
f 195//381 207//381 206//381
f 195//382 206//382 194//382
f 197//383 209//383 210//383
f 197//384 210//384 198//384
f 200//385 212//385 213//385
f 200//386 213//386 201//386
f 204//387 216//387 215//387
f 204//388 215//388 203//388
f 195//389 194//389 193//389
f 196//390 197//390 198//390
f 199//391 200//391 201//391
f 204//392 203//392 202//392
f 205//393 206//393 207//393
f 210//394 209//394 208//394
f 213//395 212//395 211//395
f 214//396 215//396 216//396
usemtl opening
s off
f 220//397 226//397 223//397
f 220//398 223//398 217//398
f 229//399 235//399 238//399
f 229//400 238//400 232//400
f 218//401 230//401 233//401
f 218//402 233//402 221//402
f 227//403 239//403 236//403
f 227//404 236//404 224//404
f 225//405 237//405 231//405
f 225//406 231//406 219//406
f 222//407 234//407 240//407
f 222//408 240//408 228//408
f 218//409 221//409 220//409
f 218//410 220//410 217//410
f 223//411 226//411 227//411
f 223//412 227//412 224//412
f 229//413 232//413 233//413
f 229//414 233//414 230//414
f 236//415 239//415 238//415
f 236//416 238//416 235//416
f 217//417 223//417 225//417
f 217//418 225//418 219//418
f 222//419 228//419 226//419
f 222//420 226//420 220//420
f 231//421 237//421 235//421
f 231//422 235//422 229//422
f 232//423 238//423 240//423
f 232//424 240//424 234//424
f 219//425 231//425 230//425
f 219//426 230//426 218//426
f 221//427 233//427 234//427
f 221//428 234//428 222//428
f 224//429 236//429 237//429
f 224//430 237//430 225//430
f 228//431 240//431 239//431
f 228//432 239//432 227//432
f 219//433 218//433 217//433
f 220//434 221//434 222//434
f 223//435 224//435 225//435
f 228//436 227//436 226//436
f 229//437 230//437 231//437
f 234//438 233//438 232//438
f 237//439 236//439 235//439
f 238//440 239//440 240//440
f 244//441 250//441 247//441
f 244//442 247//442 241//442
f 253//443 259//443 262//443
f 253//444 262//444 256//444
f 242//445 254//445 257//445
f 242//446 257//446 245//446
f 251//447 263//447 260//447
f 251//448 260//448 248//448
f 249//449 261//449 255//449
f 249//450 255//450 243//450
f 246//451 258//451 264//451
f 246//452 264//452 252//452
f 242//453 245//453 244//453
f 242//454 244//454 241//454
f 247//455 250//455 251//455
f 247//456 251//456 248//456
f 253//457 256//457 257//457
f 253//458 257//458 254//458
f 260//459 263//459 262//459
f 260//460 262//460 259//460
f 241//461 247//461 249//461
f 241//462 249//462 243//462
f 246//463 252//463 250//463
f 246//464 250//464 244//464
f 255//465 261//465 259//465
f 255//466 259//466 253//466
f 256//467 262//467 264//467
f 256//468 264//468 258//468
f 243//469 255//469 254//469
f 243//470 254//470 242//470
f 245//471 257//471 258//471
f 245//472 258//472 246//472
f 248//473 260//473 261//473
f 248//474 261//474 249//474
f 252//475 264//475 263//475
f 252//476 263//476 251//476
f 243//477 242//477 241//477
f 244//478 245//478 246//478
f 247//479 248//479 249//479
f 252//480 251//480 250//480
f 253//481 254//481 255//481
f 258//482 257//482 256//482
f 261//483 260//483 259//483
f 262//484 263//484 264//484
f 268//485 274//485 271//485
f 268//486 271//486 265//486
f 277//487 283//487 286//487
f 277//488 286//488 280//488
f 266//489 278//489 281//489
f 266//490 281//490 269//490
f 275//491 287//491 284//491
f 275//492 284//492 272//492
f 273//493 285//493 279//493
f 273//494 279//494 267//494
f 270//495 282//495 288//495
f 270//496 288//496 276//496
f 266//497 269//497 268//497
f 266//498 268//498 265//498
f 271//499 274//499 275//499
f 271//500 275//500 272//500
f 277//501 280//501 281//501
f 277//502 281//502 278//502
f 284//503 287//503 286//503
f 284//504 286//504 283//504
f 265//505 271//505 273//505
f 265//506 273//506 267//506
f 270//507 276//507 274//507
f 270//508 274//508 268//508
f 279//509 285//509 283//509
f 279//510 283//510 277//510
f 280//511 286//511 288//511
f 280//512 288//512 282//512
f 267//513 279//513 278//513
f 267//514 278//514 266//514
f 269//515 281//515 282//515
f 269//516 282//516 270//516
f 272//517 284//517 285//517
f 272//518 285//518 273//518
f 276//519 288//519 287//519
f 276//520 287//520 275//520
f 267//521 266//521 265//521
f 268//522 269//522 270//522
f 271//523 272//523 273//523
f 276//524 275//524 274//524
f 277//525 278//525 279//525
f 282//526 281//526 280//526
f 285//527 284//527 283//527
f 286//528 287//528 288//528
usemtl stone_dark
s off
f 292//529 298//529 295//529
f 292//530 295//530 289//530
f 301//531 307//531 310//531
f 301//532 310//532 304//532
f 290//533 302//533 305//533
f 290//534 305//534 293//534
f 299//535 311//535 308//535
f 299//536 308//536 296//536
f 297//537 309//537 303//537
f 297//538 303//538 291//538
f 294//539 306//539 312//539
f 294//540 312//540 300//540
f 290//541 293//541 292//541
f 290//542 292//542 289//542
f 295//543 298//543 299//543
f 295//544 299//544 296//544
f 301//545 304//545 305//545
f 301//546 305//546 302//546
f 308//547 311//547 310//547
f 308//548 310//548 307//548
f 289//549 295//549 297//549
f 289//550 297//550 291//550
f 294//551 300//551 298//551
f 294//552 298//552 292//552
f 303//553 309//553 307//553
f 303//554 307//554 301//554
f 304//555 310//555 312//555
f 304//556 312//556 306//556
f 291//557 303//557 302//557
f 291//558 302//558 290//558
f 293//559 305//559 306//559
f 293//560 306//560 294//560
f 296//561 308//561 309//561
f 296//562 309//562 297//562
f 300//563 312//563 311//563
f 300//564 311//564 299//564
f 291//565 290//565 289//565
f 292//566 293//566 294//566
f 295//567 296//567 297//567
f 300//568 299//568 298//568
f 301//569 302//569 303//569
f 306//570 305//570 304//570
f 309//571 308//571 307//571
f 310//572 311//572 312//572
usemtl stone
s off
f 316//573 322//573 319//573
f 316//574 319//574 313//574
f 325//575 331//575 334//575
f 325//576 334//576 328//576
f 314//577 326//577 329//577
f 314//578 329//578 317//578
f 323//579 335//579 332//579
f 323//580 332//580 320//580
f 321//581 333//581 327//581
f 321//582 327//582 315//582
f 318//583 330//583 336//583
f 318//584 336//584 324//584
f 314//585 317//585 316//585
f 314//586 316//586 313//586
f 319//587 322//587 323//587
f 319//588 323//588 320//588
f 325//589 328//589 329//589
f 325//590 329//590 326//590
f 332//591 335//591 334//591
f 332//592 334//592 331//592
f 313//593 319//593 321//593
f 313//594 321//594 315//594
f 318//595 324//595 322//595
f 318//596 322//596 316//596
f 327//597 333//597 331//597
f 327//598 331//598 325//598
f 328//599 334//599 336//599
f 328//600 336//600 330//600
f 315//601 327//601 326//601
f 315//602 326//602 314//602
f 317//603 329//603 330//603
f 317//604 330//604 318//604
f 320//605 332//605 333//605
f 320//606 333//606 321//606
f 324//607 336//607 335//607
f 324//608 335//608 323//608
f 315//609 314//609 313//609
f 316//610 317//610 318//610
f 319//611 320//611 321//611
f 324//612 323//612 322//612
f 325//613 326//613 327//613
f 330//614 329//614 328//614
f 333//615 332//615 331//615
f 334//616 335//616 336//616
f 340//617 346//617 343//617
f 340//618 343//618 337//618
f 349//619 355//619 358//619
f 349//620 358//620 352//620
f 338//621 350//621 353//621
f 338//622 353//622 341//622
f 347//623 359//623 356//623
f 347//624 356//624 344//624
f 345//625 357//625 351//625
f 345//626 351//626 339//626
f 342//627 354//627 360//627
f 342//628 360//628 348//628
f 338//629 341//629 340//629
f 338//630 340//630 337//630
f 343//631 346//631 347//631
f 343//632 347//632 344//632
f 349//633 352//633 353//633
f 349//634 353//634 350//634
f 356//635 359//635 358//635
f 356//636 358//636 355//636
f 337//637 343//637 345//637
f 337//638 345//638 339//638
f 342//639 348//639 346//639
f 342//640 346//640 340//640
f 351//641 357//641 355//641
f 351//642 355//642 349//642
f 352//643 358//643 360//643
f 352//644 360//644 354//644
f 339//645 351//645 350//645
f 339//646 350//646 338//646
f 341//647 353//647 354//647
f 341//648 354//648 342//648
f 344//649 356//649 357//649
f 344//650 357//650 345//650
f 348//651 360//651 359//651
f 348//652 359//652 347//652
f 339//653 338//653 337//653
f 340//654 341//654 342//654
f 343//655 344//655 345//655
f 348//656 347//656 346//656
f 349//657 350//657 351//657
f 354//658 353//658 352//658
f 357//659 356//659 355//659
f 358//660 359//660 360//660
f 364//661 370//661 367//661
f 364//662 367//662 361//662
f 373//663 379//663 382//663
f 373//664 382//664 376//664
f 362//665 374//665 377//665
f 362//666 377//666 365//666
f 371//667 383//667 380//667
f 371//668 380//668 368//668
f 369//669 381//669 375//669
f 369//670 375//670 363//670
f 366//671 378//671 384//671
f 366//672 384//672 372//672
f 362//673 365//673 364//673
f 362//674 364//674 361//674
f 367//675 370//675 371//675
f 367//676 371//676 368//676
f 373//677 376//677 377//677
f 373//678 377//678 374//678
f 380//679 383//679 382//679
f 380//680 382//680 379//680
f 361//681 367//681 369//681
f 361//682 369//682 363//682
f 366//683 372//683 370//683
f 366//684 370//684 364//684
f 375//685 381//685 379//685
f 375//686 379//686 373//686
f 376//687 382//687 384//687
f 376//688 384//688 378//688
f 363//689 375//689 374//689
f 363//690 374//690 362//690
f 365//691 377//691 378//691
f 365//692 378//692 366//692
f 368//693 380//693 381//693
f 368//694 381//694 369//694
f 372//695 384//695 383//695
f 372//696 383//696 371//696
f 363//697 362//697 361//697
f 364//698 365//698 366//698
f 367//699 368//699 369//699
f 372//700 371//700 370//700
f 373//701 374//701 375//701
f 378//702 377//702 376//702
f 381//703 380//703 379//703
f 382//704 383//704 384//704
f 388//705 394//705 391//705
f 388//706 391//706 385//706
f 397//707 403//707 406//707
f 397//708 406//708 400//708
f 386//709 398//709 401//709
f 386//710 401//710 389//710
f 395//711 407//711 404//711
f 395//712 404//712 392//712
f 393//713 405//713 399//713
f 393//714 399//714 387//714
f 390//715 402//715 408//715
f 390//716 408//716 396//716
f 386//717 389//717 388//717
f 386//718 388//718 385//718
f 391//719 394//719 395//719
f 391//720 395//720 392//720
f 397//721 400//721 401//721
f 397//722 401//722 398//722
f 404//723 407//723 406//723
f 404//724 406//724 403//724
f 385//725 391//725 393//725
f 385//726 393//726 387//726
f 390//727 396//727 394//727
f 390//728 394//728 388//728
f 399//729 405//729 403//729
f 399//730 403//730 397//730
f 400//731 406//731 408//731
f 400//732 408//732 402//732
f 387//733 399//733 398//733
f 387//734 398//734 386//734
f 389//735 401//735 402//735
f 389//736 402//736 390//736
f 392//737 404//737 405//737
f 392//738 405//738 393//738
f 396//739 408//739 407//739
f 396//740 407//740 395//740
f 387//741 386//741 385//741
f 388//742 389//742 390//742
f 391//743 392//743 393//743
f 396//744 395//744 394//744
f 397//745 398//745 399//745
f 402//746 401//746 400//746
f 405//747 404//747 403//747
f 406//748 407//748 408//748
usemtl stone_dark
s off
f 412//749 418//749 415//749
f 412//750 415//750 409//750
f 421//751 427//751 430//751
f 421//752 430//752 424//752
f 410//753 422//753 425//753
f 410//754 425//754 413//754
f 419//755 431//755 428//755
f 419//756 428//756 416//756
f 417//757 429//757 423//757
f 417//758 423//758 411//758
f 414//759 426//759 432//759
f 414//760 432//760 420//760
f 410//761 413//761 412//761
f 410//762 412//762 409//762
f 415//763 418//763 419//763
f 415//764 419//764 416//764
f 421//765 424//765 425//765
f 421//766 425//766 422//766
f 428//767 431//767 430//767
f 428//768 430//768 427//768
f 409//769 415//769 417//769
f 409//770 417//770 411//770
f 414//771 420//771 418//771
f 414//772 418//772 412//772
f 423//773 429//773 427//773
f 423//774 427//774 421//774
f 424//775 430//775 432//775
f 424//776 432//776 426//776
f 411//777 423//777 422//777
f 411//778 422//778 410//778
f 413//779 425//779 426//779
f 413//780 426//780 414//780
f 416//781 428//781 429//781
f 416//782 429//782 417//782
f 420//783 432//783 431//783
f 420//784 431//784 419//784
f 411//785 410//785 409//785
f 412//786 413//786 414//786
f 415//787 416//787 417//787
f 420//788 419//788 418//788
f 421//789 422//789 423//789
f 426//790 425//790 424//790
f 429//791 428//791 427//791
f 430//792 431//792 432//792
usemtl stone
s off
f 436//793 442//793 439//793
f 436//794 439//794 433//794
f 445//795 451//795 454//795
f 445//796 454//796 448//796
f 434//797 446//797 449//797
f 434//798 449//798 437//798
f 443//799 455//799 452//799
f 443//800 452//800 440//800
f 441//801 453//801 447//801
f 441//802 447//802 435//802
f 438//803 450//803 456//803
f 438//804 456//804 444//804
f 434//805 437//805 436//805
f 434//806 436//806 433//806
f 439//807 442//807 443//807
f 439//808 443//808 440//808
f 445//809 448//809 449//809
f 445//810 449//810 446//810
f 452//811 455//811 454//811
f 452//812 454//812 451//812
f 433//813 439//813 441//813
f 433//814 441//814 435//814
f 438//815 444//815 442//815
f 438//816 442//816 436//816
f 447//817 453//817 451//817
f 447//818 451//818 445//818
f 448//819 454//819 456//819
f 448//820 456//820 450//820
f 435//821 447//821 446//821
f 435//822 446//822 434//822
f 437//823 449//823 450//823
f 437//824 450//824 438//824
f 440//825 452//825 453//825
f 440//826 453//826 441//826
f 444//827 456//827 455//827
f 444//828 455//828 443//828
f 435//829 434//829 433//829
f 436//830 437//830 438//830
f 439//831 440//831 441//831
f 444//832 443//832 442//832
f 445//833 446//833 447//833
f 450//834 449//834 448//834
f 453//835 452//835 451//835
f 454//836 455//836 456//836
