# Ruins concept asset; Y up; units: meters
mtllib ruins.mtl
o ruin_broken_arch
v -2.225000 0.017883 -0.482117
v -2.207117 0.000000 -0.482117
v -2.207117 0.017883 -0.500000
v -2.225000 0.023443 0.476557
v -2.201557 0.000000 0.476557
v -2.201557 0.023443 0.500000
v -2.225000 0.261859 -0.481859
v -2.206859 0.280000 -0.481859
v -2.206859 0.261859 -0.500000
v -2.225000 0.252423 0.472423
v -2.197423 0.280000 0.472423
v -2.197423 0.252423 0.500000
v -1.175000 0.018920 -0.481080
v -1.193920 0.000000 -0.481080
v -1.193920 0.018920 -0.500000
v -1.175000 0.019242 0.480758
v -1.194242 0.000000 0.480758
v -1.194242 0.019242 0.500000
v -1.175000 0.254894 -0.474894
v -1.200106 0.280000 -0.474894
v -1.200106 0.254894 -0.500000
v -1.175000 0.252910 0.472910
v -1.202090 0.280000 0.472910
v -1.202090 0.252910 0.500000
v -2.050000 0.311947 -0.389053
v -2.029053 0.291000 -0.389053
v -2.029053 0.311947 -0.410000
v -2.050000 0.313675 0.387325
v -2.027325 0.291000 0.387325
v -2.027325 0.313675 0.410000
v -2.050000 0.818560 -0.395560
v -2.035560 0.833000 -0.395560
v -2.035560 0.818560 -0.410000
v -2.050000 0.816732 0.393732
v -2.033732 0.833000 0.393732
v -2.033732 0.816732 0.410000
v -1.350000 0.313860 -0.387140
v -1.372860 0.291000 -0.387140
v -1.372860 0.313860 -0.410000
v -1.350000 0.310146 0.390854
v -1.369146 0.291000 0.390854
v -1.369146 0.310146 0.410000
v -1.350000 0.816376 -0.393376
v -1.366624 0.833000 -0.393376
v -1.366624 0.816376 -0.410000
v -1.350000 0.810881 0.387881
v -1.372119 0.833000 0.387881
v -1.372119 0.810881 0.410000
v -2.050000 0.855249 -0.395751
v -2.035751 0.841000 -0.395751
v -2.035751 0.855249 -0.410000
v -2.050000 0.859754 0.391246
v -2.031246 0.841000 0.391246
v -2.031246 0.859754 0.410000
v -2.050000 1.369663 -0.396663
v -2.036663 1.383000 -0.396663
v -2.036663 1.369663 -0.410000
v -2.050000 1.368066 0.395066
v -2.035066 1.383000 0.395066
v -2.035066 1.368066 0.410000
v -1.350000 0.854095 -0.396905
v -1.363095 0.841000 -0.396905
v -1.363095 0.854095 -0.410000
v -1.350000 0.859513 0.391487
v -1.368513 0.841000 0.391487
v -1.368513 0.859513 0.410000
v -1.350000 1.368052 -0.395052
v -1.364948 1.383000 -0.395052
v -1.364948 1.368052 -0.410000
v -1.350000 1.369300 0.396300
v -1.363700 1.383000 0.396300
v -1.363700 1.369300 0.410000
v -2.050000 1.411805 -0.389195
v -2.029195 1.391000 -0.389195
v -2.029195 1.411805 -0.410000
v -2.050000 1.407721 0.393279
v -2.033279 1.391000 0.393279
v -2.033279 1.407721 0.410000
v -2.050000 1.911018 -0.388018
v -2.028018 1.933000 -0.388018
v -2.028018 1.911018 -0.410000
v -2.050000 1.919917 0.396917
v -2.036917 1.933000 0.396917
v -2.036917 1.919917 0.410000
v -1.350000 1.409709 -0.391291
v -1.368709 1.391000 -0.391291
v -1.368709 1.409709 -0.410000
v -1.350000 1.405257 0.395743
v -1.364257 1.391000 0.395743
v -1.364257 1.405257 0.410000
v -1.350000 1.919132 -0.396132
v -1.363868 1.933000 -0.396132
v -1.363868 1.919132 -0.410000
v -1.350000 1.914371 0.391371
v -1.368629 1.933000 0.391371
v -1.368629 1.914371 0.410000
v -2.050000 1.954294 -0.396706
v -2.036706 1.941000 -0.396706
v -2.036706 1.954294 -0.410000
v -2.050000 1.962668 0.388332
v -2.028332 1.941000 0.388332
v -2.028332 1.962668 0.410000
v -2.050000 2.466918 -0.393918
v -2.033918 2.483000 -0.393918
v -2.033918 2.466918 -0.410000
v -2.050000 2.461966 0.388966
v -2.028966 2.483000 0.388966
v -2.028966 2.461966 0.410000
v -1.350000 1.964259 -0.386741
v -1.373259 1.941000 -0.386741
v -1.373259 1.964259 -0.410000
v -1.350000 1.957121 0.393879
v -1.366121 1.941000 0.393879
v -1.366121 1.957121 0.410000
v -1.350000 2.461528 -0.388528
v -1.371472 2.483000 -0.388528
v -1.371472 2.461528 -0.410000
v -1.350000 2.466411 0.393411
v -1.366589 2.483000 0.393411
v -1.366589 2.466411 0.410000
v -2.150000 2.290442 -0.437558
v -2.117558 2.258000 -0.437558
v -2.117558 2.290442 -0.470000
v -2.150000 2.276237 0.451763
v -2.131763 2.258000 0.451763
v -2.131763 2.276237 0.470000
v -2.150000 2.458024 -0.450024
v -2.130024 2.478000 -0.450024
v -2.130024 2.458024 -0.470000
v -2.150000 2.453997 0.445997
v -2.125997 2.478000 0.445997
v -2.125997 2.453997 0.470000
v -1.250000 2.290370 -0.437630
v -1.282370 2.258000 -0.437630
v -1.282370 2.290370 -0.470000
v -1.250000 2.283597 0.444403
v -1.275597 2.258000 0.444403
v -1.275597 2.283597 0.470000
v -1.250000 2.447246 -0.439246
v -1.280754 2.478000 -0.439246
v -1.280754 2.447246 -0.470000
v -1.250000 2.457137 0.449137
v -1.270863 2.478000 0.449137
v -1.270863 2.457137 0.470000
v 1.175000 0.029292 -0.470708
v 1.204292 0.000000 -0.470708
v 1.204292 0.029292 -0.500000
v 1.175000 0.030832 0.469168
v 1.205832 0.000000 0.469168
v 1.205832 0.030832 0.500000
v 1.175000 0.254042 -0.474042
v 1.200958 0.280000 -0.474042
v 1.200958 0.254042 -0.500000
v 1.175000 0.252828 0.472828
v 1.202172 0.280000 0.472828
v 1.202172 0.252828 0.500000
v 2.225000 0.017852 -0.482148
v 2.207148 0.000000 -0.482148
v 2.207148 0.017852 -0.500000
v 2.225000 0.018345 0.481655
v 2.206655 0.000000 0.481655
v 2.206655 0.018345 0.500000
v 2.225000 0.254025 -0.474025
v 2.199025 0.280000 -0.474025
v 2.199025 0.254025 -0.500000
v 2.225000 0.257241 0.477241
v 2.202241 0.280000 0.477241
v 2.202241 0.257241 0.500000
v 1.350000 0.309206 -0.391794
v 1.368206 0.291000 -0.391794
v 1.368206 0.309206 -0.410000
v 1.350000 0.310337 0.390663
v 1.369337 0.291000 0.390663
v 1.369337 0.310337 0.410000
v 1.350000 0.818800 -0.395800
v 1.364200 0.833000 -0.395800
v 1.364200 0.818800 -0.410000
v 1.350000 0.815491 0.392491
v 1.367509 0.833000 0.392491
v 1.367509 0.815491 0.410000
v 2.050000 0.305170 -0.395830
v 2.035830 0.291000 -0.395830
v 2.035830 0.305170 -0.410000
v 2.050000 0.309730 0.391270
v 2.031270 0.291000 0.391270
v 2.031270 0.309730 0.410000
v 2.050000 0.810953 -0.387953
v 2.027953 0.833000 -0.387953
v 2.027953 0.810953 -0.410000
v 2.050000 0.819185 0.396185
v 2.036185 0.833000 0.396185
v 2.036185 0.819185 0.410000
v 1.350000 0.857837 -0.393163
v 1.366837 0.841000 -0.393163
v 1.366837 0.857837 -0.410000
v 1.350000 0.859925 0.391075
v 1.368925 0.841000 0.391075
v 1.368925 0.859925 0.410000
v 1.350000 1.369513 -0.396513
v 1.363487 1.383000 -0.396513
v 1.363487 1.369513 -0.410000
v 1.350000 1.367664 0.394664
v 1.365336 1.383000 0.394664
v 1.365336 1.367664 0.410000
v 2.050000 0.857310 -0.393690
v 2.033690 0.841000 -0.393690
v 2.033690 0.857310 -0.410000
v 2.050000 0.862182 0.388818
v 2.028818 0.841000 0.388818
v 2.028818 0.862182 0.410000
v 2.050000 1.363257 -0.390257
v 2.030257 1.383000 -0.390257
v 2.030257 1.363257 -0.410000
v 2.050000 1.363878 0.390878
v 2.030878 1.383000 0.390878
v 2.030878 1.363878 0.410000
v 1.350000 1.409062 -0.391938
v 1.368062 1.391000 -0.391938
v 1.368062 1.409062 -0.410000
v 1.350000 1.404648 0.396352
v 1.363648 1.391000 0.396352
v 1.363648 1.404648 0.410000
v 1.350000 1.914346 -0.391346
v 1.368654 1.933000 -0.391346
v 1.368654 1.914346 -0.410000
v 1.350000 1.918776 0.395776
v 1.364224 1.933000 0.395776
v 1.364224 1.918776 0.410000
v 2.050000 1.403619 -0.397381
v 2.037381 1.391000 -0.397381
v 2.037381 1.403619 -0.410000
v 2.050000 1.405234 0.395766
v 2.035766 1.391000 0.395766
v 2.035766 1.405234 0.410000
v 2.050000 1.912279 -0.389279
v 2.029279 1.933000 -0.389279
v 2.029279 1.912279 -0.410000
v 2.050000 1.919155 0.396155
v 2.036155 1.933000 0.396155
v 2.036155 1.919155 0.410000
v 1.350000 1.961642 -0.389358
v 1.370642 1.941000 -0.389358
v 1.370642 1.961642 -0.410000
v 1.350000 1.955762 0.395238
v 1.364762 1.941000 0.395238
v 1.364762 1.955762 0.410000
v 1.350000 2.466553 -0.393553
v 1.366447 2.483000 -0.393553
v 1.366447 2.466553 -0.410000
v 1.350000 2.464066 0.391066
v 1.368934 2.483000 0.391066
v 1.368934 2.464066 0.410000
v 2.050000 1.955628 -0.395372
v 2.035372 1.941000 -0.395372
v 2.035372 1.955628 -0.410000
v 2.050000 1.963422 0.387578
v 2.027578 1.941000 0.387578
v 2.027578 1.963422 0.410000
v 2.050000 2.470195 -0.397195
v 2.037195 2.483000 -0.397195
v 2.037195 2.470195 -0.410000
v 2.050000 2.460885 0.387885
v 2.027885 2.483000 0.387885
v 2.027885 2.460885 0.410000
v 1.250000 2.281461 -0.446539
v 1.273461 2.258000 -0.446539
v 1.273461 2.281461 -0.470000
v 1.250000 2.279825 0.448175
v 1.271825 2.258000 0.448175
v 1.271825 2.279825 0.470000
v 1.250000 2.447475 -0.439475
v 1.280525 2.478000 -0.439475
v 1.280525 2.447475 -0.470000
v 1.250000 2.449827 0.441827
v 1.278173 2.478000 0.441827
v 1.278173 2.449827 0.470000
v 2.150000 2.278658 -0.449342
v 2.129342 2.258000 -0.449342
v 2.129342 2.278658 -0.470000
v 2.150000 2.280261 0.447739
v 2.127739 2.258000 0.447739
v 2.127739 2.280261 0.470000
v 2.150000 2.459103 -0.451103
v 2.131103 2.478000 -0.451103
v 2.131103 2.459103 -0.470000
v 2.150000 2.451070 0.443070
v 2.123070 2.478000 0.443070
v 2.123070 2.451070 0.470000
v 1.321576 2.838455 -0.393258
v 1.306838 2.828637 -0.393258
v 1.323044 2.832837 -0.410000
v 1.324223 2.839153 0.390521
v 1.307073 2.827729 0.390521
v 1.325933 2.832602 0.410000
v 1.965461 3.008226 -0.392632
v 1.984539 3.003912 -0.392632
v 1.967726 2.999558 -0.410000
v 1.966377 3.008468 0.393580
v 1.984415 3.004389 0.393580
v 1.968521 3.000269 0.410000
v 1.370207 2.495481 -0.389782
v 1.349944 2.502327 -0.389782
v 1.370161 2.502512 -0.410000
v 1.367493 2.495470 0.392496
v 1.349952 2.501397 0.392496
v 1.367455 2.501545 0.410000
v 2.031337 2.498125 -0.391353
v 2.049922 2.507902 -0.391353
v 2.031276 2.507739 -0.410000
v 2.036483 2.498146 0.396499
v 2.049943 2.505224 0.396499
v 2.036443 2.505124 0.410000
v 1.187523 3.169298 -0.391915
v 1.174889 3.154932 -0.391915
v 1.190629 3.163840 -0.410000
v 1.188739 3.169993 0.390514
v 1.175126 3.154515 0.390514
v 1.192087 3.164106 0.410000
v 1.769393 3.502144 -0.398427
v 1.782420 3.502660 -0.398427
v 1.772358 3.496943 -0.410000
v 1.767222 3.500902 0.395926
v 1.783062 3.501528 0.395926
v 1.770821 3.494584 0.410000
v 1.316691 2.848457 -0.395387
v 1.301268 2.849447 -0.395387
v 1.315353 2.853338 -0.410000
v 1.320191 2.849410 0.391760
v 1.300936 2.850645 0.391760
v 1.318513 2.855518 0.410000
v 1.964091 3.024706 -0.395574
v 1.976025 3.035734 -0.395574
v 1.962120 3.031893 -0.410000
v 1.960127 3.023627 0.391466
v 1.975455 3.037794 0.391466
v 1.957595 3.032841 0.410000
v 0.968766 3.451047 -0.395406
v 0.961920 3.437212 -0.395406
v 0.972319 3.447452 -0.410000
v 0.969796 3.452069 0.393954
v 0.962269 3.436857 0.393954
v 0.973706 3.448111 0.410000
v 1.443443 3.921942 -0.393220
v 1.461491 3.927548 -0.393220
v 1.449528 3.915781 -0.410000
v 1.447347 3.925815 0.398720
v 1.459483 3.929586 0.398720
v 1.451452 3.921665 0.410000
v 1.181114 3.178230 -0.392999
v 1.163481 3.174698 -0.392999
v 1.178134 3.183320 -0.410000
v 1.182837 3.179234 0.391005
v 1.163135 3.175286 0.391005
v 1.179500 3.184928 0.410000
v 1.753529 3.511774 -0.389504
v 1.765845 3.531293 -0.389504
v 1.748190 3.520882 -0.410000
v 1.753299 3.511640 0.389238
v 1.765775 3.531412 0.389238
v 1.747891 3.520865 0.410000
v 0.686842 3.668732 -0.395756
v 0.683883 3.653960 -0.395756
v 0.691099 3.666241 -0.410000
v 0.687822 3.670414 0.393810
v 0.684458 3.653622 0.393810
v 0.692667 3.667577 0.410000
v 1.023307 4.246159 -0.392548
v 1.039928 4.256649 -0.392548
v 1.031075 4.241609 -0.410000
v 1.022187 4.244238 0.390324
v 1.040925 4.256062 0.390324
v 1.030935 4.239111 0.410000
v 0.960862 3.458579 -0.395668
v 0.947276 3.451857 -0.395668
v 0.957332 3.462068 -0.410000
v 0.961386 3.459108 0.394924
v 0.947094 3.452036 0.394924
v 0.957671 3.462779 0.410000
v 1.435808 3.937341 -0.398711
v 1.439583 3.949486 -0.398711
v 1.431655 3.941449 -0.410000
v 1.430136 3.931623 0.390656
v 1.436597 3.952426 0.390656
v 1.423041 3.938627 0.410000
v 0.359330 3.809895 -0.392067
v 0.360544 3.790964 -0.392067
v 0.365333 3.808246 -0.410000
v 0.357562 3.803401 0.398797
v 0.358321 3.791578 0.398797
v 0.361294 3.802379 0.410000
v 0.535340 4.456418 -0.397986
v 0.544524 4.466359 -0.397986
v 0.541333 4.454776 -0.410000
v 0.534083 4.451801 0.393202
v 0.546924 4.465696 0.393202
v 0.542442 4.449506 0.410000
v 0.677346 3.674110 -0.395847
v 0.666104 3.664225 -0.395847
v 0.673088 3.676536 -0.410000
v 0.677819 3.674937 0.394894
v 0.665821 3.664386 0.394894
v 0.673271 3.677527 0.410000
v 1.008968 4.253840 -0.392031
v 1.009764 4.274062 -0.392031
v 1.000913 4.258423 -0.410000
v 1.010074 4.255773 0.394257
v 1.010773 4.273491 0.394257
v 1.003011 4.259795 0.410000
v -0.677411 3.674224 -0.395716
v -0.666065 3.664247 -0.395716
v -0.673113 3.676672 -0.410000
v -0.679392 3.677688 0.391725
v -0.664876 3.664921 0.391725
v -0.673876 3.680826 0.410000
v -1.011482 4.258235 -0.397094
v -1.012056 4.272763 -0.397094
v -1.005684 4.261539 -0.410000
v -1.009438 4.254661 0.392977
v -1.010193 4.273819 0.392977
v -1.001804 4.259006 0.410000
v -0.359648 3.811065 -0.390855
v -0.360944 3.790853 -0.390855
v -0.366063 3.809302 -0.410000
v -0.357690 3.803871 0.398310
v -0.358482 3.791534 0.398310
v -0.361586 3.802804 0.410000
v -0.533992 4.451467 -0.392855
v -0.547097 4.465648 -0.392855
v -0.542522 4.449125 -0.410000
v -0.533291 4.448894 0.390189
v -0.548434 4.465277 0.390189
v -0.543134 4.446188 0.410000
v -0.959261 3.456965 -0.397942
v -0.947831 3.451310 -0.397942
v -0.956297 3.459897 -0.410000
v -0.962512 3.460244 0.393324
v -0.946703 3.452420 0.393324
v -0.958397 3.464308 0.410000
v -1.429143 3.930622 -0.389246
v -1.436073 3.952940 -0.389246
v -1.421535 3.938130 -0.410000
v -1.432586 3.934092 0.394135
v -1.437887 3.951157 0.394135
v -1.426759 3.939849 0.410000
v -0.686644 3.668391 -0.396150
v -0.683767 3.654029 -0.396150
v -0.690782 3.665971 -0.410000
v -0.686133 3.667515 0.397165
v -0.683467 3.654205 0.397165
v -0.689966 3.665274 0.410000
v -1.021753 4.243492 -0.389461
v -1.041312 4.255834 -0.389461
v -1.030879 4.238142 -0.410000
v -1.023813 4.247028 0.393553
v -1.039478 4.256914 0.393553
v -1.031138 4.242739 0.410000
v -1.179659 3.177383 -0.394683
v -1.163774 3.174201 -0.394683
v -1.176978 3.181964 -0.410000
v -1.179078 3.177044 0.395356
v -1.163891 3.174002 0.395356
v -1.176516 3.181421 0.410000
v -1.755906 3.513159 -0.392255
v -1.766572 3.530060 -0.392255
v -1.751280 3.521057 -0.410000
v -1.761054 3.516159 0.398214
v -1.768143 3.527387 0.398214
v -1.757977 3.521423 0.410000
v -0.968270 3.450555 -0.396104
v -0.961752 3.437382 -0.396104
v -0.971652 3.447134 -0.410000
v -0.972100 3.454354 0.390709
v -0.963048 3.436064 0.390709
v -0.976810 3.449583 0.410000
v -1.441419 3.919933 -0.390369
v -1.462531 3.926490 -0.390369
v -1.448525 3.912734 -0.410000
v -1.442414 3.920920 0.391770
v -1.462020 3.927010 0.391770
v -1.449019 3.914232 0.410000
v -1.318746 2.849017 -0.393258
v -1.301073 2.850151 -0.393258
v -1.317209 2.854617 -0.410000
v -1.314304 2.847807 0.397862
v -1.301493 2.848630 0.397862
v -1.313195 2.851855 0.410000
v -1.964058 3.024697 -0.395540
v -1.976020 3.035751 -0.395540
v -1.962082 3.031901 -0.410000
v -1.962053 3.024151 0.393462
v -1.975732 3.036793 0.393462
v -1.959794 3.032382 0.410000
v -1.188586 3.169906 -0.390691
v -1.175096 3.154567 -0.390691
v -1.191903 3.164073 -0.410000
v -1.182785 3.166588 0.397373
v -1.173967 3.156559 0.397373
v -1.184948 3.162794 0.410000
v -1.764612 3.499410 -0.392920
v -1.783834 3.500167 -0.392920
v -1.768971 3.491751 -0.410000
v -1.764513 3.499353 0.392806
v -1.783863 3.500115 0.392806
v -1.768901 3.491643 0.410000
v -1.367350 2.495469 -0.392639
v -1.349952 2.501348 -0.392639
v -1.367313 2.501494 -0.410000
v -1.367379 2.495470 0.392610
v -1.349952 2.501358 0.392610
v -1.367341 2.501504 0.410000
v -2.034714 2.498139 -0.394731
v -2.049936 2.506144 -0.394731
v -2.034668 2.506024 -0.410000
v -2.030588 2.498122 0.390604
v -2.049918 2.508291 0.390604
v -2.030523 2.508118 0.410000
v -1.317770 2.837452 -0.397194
v -1.306499 2.829942 -0.397194
v -1.318892 2.833167 -0.410000
v -1.321705 2.838490 0.393124
v -1.306849 2.828593 0.393124
v -1.323186 2.832825 0.410000
v -1.969879 3.009391 -0.397202
v -1.983942 3.006213 -0.397202
v -1.971556 3.002990 -0.410000
v -1.963334 3.007665 0.390432
v -1.984826 3.002804 0.390432
v -1.965880 2.997909 0.410000
v -0.771072 0.036058 0.168854
v -0.737200 0.000000 0.156490
v -0.749565 0.036058 0.122618
v -0.549796 0.038630 0.775043
v -0.513508 0.000000 0.761796
v -0.500262 0.038630 0.798084
v -0.770716 0.222904 0.169829
v -0.735869 0.260000 0.157109
v -0.748589 0.222904 0.122262
v -0.546413 0.231237 0.784311
v -0.519393 0.260000 0.774448
v -0.509530 0.231237 0.801468
v -0.154494 0.026119 -0.066795
v -0.179030 0.000000 -0.057838
v -0.187986 0.026119 -0.082374
v 0.069132 0.041717 0.545830
v 0.029944 0.000000 0.560135
v 0.044249 0.041717 0.599323
v -0.150064 0.220962 -0.054659
v -0.186736 0.260000 -0.041273
v -0.200122 0.220962 -0.077944
v 0.071359 0.224779 0.551932
v 0.038273 0.260000 0.564009
v 0.050351 0.224779 0.597095
v 0.321847 0.028324 0.194087
v 0.348454 0.000000 0.203799
v 0.358167 0.028324 0.177192
v 0.136069 0.039886 0.703029
v 0.173537 0.000000 0.716706
v 0.159860 0.039886 0.754174
v 0.319534 0.314930 0.200424
v 0.352478 0.350000 0.212449
v 0.364503 0.314930 0.179505
v 0.131551 0.323289 0.715406
v 0.156643 0.350000 0.724565
v 0.147483 0.323289 0.749656
v 0.848279 0.027207 0.385061
v 0.822721 0.000000 0.375731
v 0.832050 0.027207 0.350173
v 0.657027 0.025042 0.908996
v 0.633503 0.000000 0.900409
v 0.624917 0.025042 0.923933
v 0.847844 0.321523 0.386253
v 0.821093 0.350000 0.376488
v 0.830858 0.321523 0.349738
v 0.662436 0.309184 0.894178
v 0.624095 0.350000 0.880183
v 0.610099 0.309184 0.918524
v -0.098599 0.024589 0.984664
v -0.077020 0.000000 0.972875
v -0.088809 0.024589 0.951297
v 0.017933 0.032345 1.197975
v 0.046318 0.000000 1.182468
v 0.061825 0.032345 1.210853
v -0.098328 0.134846 0.985160
v -0.076253 0.160000 0.973100
v -0.088313 0.134846 0.951025
v 0.012459 0.116237 1.187954
v 0.050865 0.160000 1.166973
v 0.071846 0.116237 1.205379
v 0.145350 0.039194 0.868036
v 0.110954 0.000000 0.886827
v 0.092164 0.039194 0.852431
v 0.255768 0.030494 1.070153
v 0.229006 0.000000 1.084773
v 0.243626 0.030494 1.111535
v 0.139712 0.132566 0.857715
v 0.115637 0.160000 0.870868
v 0.102485 0.132566 0.846793
v 0.257626 0.133382 1.073555
v 0.234266 0.160000 1.086317
v 0.247028 0.133382 1.109676
vn -1.000000 0.000000 0.000000
vn -1.000000 0.000000 -0.000000
vn 1.000000 0.000000 0.000000
vn 1.000000 0.000000 0.000000
vn 0.000000 -1.000000 0.000000
vn 0.000000 -1.000000 0.000000
vn -0.000000 1.000000 0.000000
vn 0.000000 1.000000 0.000000
vn 0.000000 0.000000 -1.000000
vn 0.000000 -0.000000 -1.000000
vn -0.000000 0.000000 1.000000
vn 0.000000 0.000000 1.000000
vn -0.707101 -0.707101 0.004101
vn -0.707101 -0.707101 0.004101
vn -0.707089 0.707089 0.006992
vn -0.707089 0.707089 0.006992
vn 0.707107 -0.707107 0.000237
vn 0.707107 -0.707107 0.000237
vn 0.707106 0.707106 0.001480
vn 0.707106 0.707106 0.001480
vn -0.707107 0.000746 -0.707107
vn -0.707107 0.000746 -0.707107
vn -0.707049 0.012766 0.707049
vn -0.707049 0.012766 0.707049
vn 0.706985 0.018533 -0.706985
vn 0.706985 0.018533 -0.706985
vn 0.706907 0.023741 0.706907
vn 0.706907 0.023741 0.706907
vn 0.000723 -0.707107 -0.707107
vn 0.000723 -0.707107 -0.707107
vn -0.002949 -0.707104 0.707104
vn -0.002949 -0.707104 0.707104
vn 0.004892 0.707098 -0.707098
vn 0.004892 0.707098 -0.707098
vn -0.000346 0.707107 0.707107
vn -0.000346 0.707107 0.707107
vn -0.577350 -0.577350 -0.577350
vn -0.577350 -0.577350 0.577350
vn -0.577350 0.577350 -0.577350
vn -0.577350 0.577350 0.577350
vn 0.577350 -0.577350 -0.577350
vn 0.577350 -0.577350 0.577350
vn 0.577350 0.577350 -0.577350
vn 0.577350 0.577350 0.577350
vn -1.000000 0.000000 0.000000
vn -1.000000 0.000000 -0.000000
vn 1.000000 -0.000000 0.000000
vn 1.000000 0.000000 -0.000000
vn 0.000000 -1.000000 0.000000
vn 0.000000 -1.000000 0.000000
vn 0.000000 1.000000 0.000000
vn 0.000000 1.000000 0.000000
vn 0.000000 0.000000 -1.000000
vn 0.000000 0.000000 -1.000000
vn -0.000000 0.000000 1.000000
vn 0.000000 -0.000000 1.000000
vn -0.707106 -0.707106 0.001574
vn -0.707106 -0.707106 0.001574
vn -0.707106 0.707106 0.001638
vn -0.707106 0.707106 0.001638
vn 0.707103 -0.707103 -0.003375
vn 0.707103 -0.707103 -0.003375
vn 0.707098 0.707098 0.004973
vn 0.707098 0.707098 0.004973
vn -0.707078 -0.009081 -0.707078
vn -0.707078 -0.009081 -0.707078
vn -0.707078 -0.009005 0.707078
vn -0.707078 -0.009005 0.707078
vn 0.707080 -0.008774 -0.707080
vn 0.707080 -0.008774 -0.707080
vn 0.707101 0.004198 0.707101
vn 0.707101 0.004198 0.707101
vn 0.002061 -0.707105 -0.707105
vn 0.002061 -0.707105 -0.707105
vn -0.003791 -0.707102 0.707102
vn -0.003791 -0.707102 0.707102
vn 0.002309 0.707105 -0.707105
vn 0.002309 0.707105 -0.707105
vn 0.006253 0.707093 0.707093
vn 0.006253 0.707093 0.707093
vn -0.577350 -0.577350 -0.577350
vn -0.577350 -0.577350 0.577350
vn -0.577350 0.577350 -0.577350
vn -0.577350 0.577350 0.577350
vn 0.577350 -0.577350 -0.577350
vn 0.577350 -0.577350 0.577350
vn 0.577350 0.577350 -0.577350
vn 0.577350 0.577350 0.577350
vn -1.000000 0.000000 0.000000
vn -1.000000 0.000000 -0.000000
vn 1.000000 0.000000 0.000000
vn 1.000000 0.000000 0.000000
vn 0.000000 -1.000000 0.000000
vn 0.000000 -1.000000 0.000000
vn -0.000000 1.000000 0.000000
vn 0.000000 1.000000 0.000000
vn 0.000000 0.000000 -1.000000
vn 0.000000 0.000000 -1.000000
vn -0.000000 0.000000 1.000000
vn 0.000000 -0.000000 1.000000
vn -0.707101 -0.707101 0.004047
vn -0.707101 -0.707101 0.004047
vn -0.707106 0.707106 0.001427
vn -0.707106 0.707106 0.001427
vn 0.707098 -0.707098 0.004859
vn 0.707098 -0.707098 0.004859
vn 0.707106 0.707106 -0.001116
vn 0.707106 0.707106 -0.001116
vn -0.707106 -0.001254 -0.707106
vn -0.707106 -0.001254 -0.707106
vn -0.707097 -0.005313 0.707097
vn -0.707097 -0.005313 0.707097
vn 0.707104 0.002550 -0.707104
vn 0.707104 0.002550 -0.707104
vn 0.707091 -0.006675 0.707091
vn 0.707091 -0.006675 0.707091
vn -0.001214 -0.707106 -0.707106
vn -0.001214 -0.707106 -0.707106
vn -0.000257 -0.707107 0.707107
vn -0.000257 -0.707107 0.707107
vn 0.001696 0.707106 -0.707106
vn 0.001696 0.707106 -0.707106
vn -0.001300 0.707106 0.707106
vn -0.001300 0.707106 0.707106
vn -0.577350 -0.577350 -0.577350
vn -0.577350 -0.577350 0.577350
vn -0.577350 0.577350 -0.577350
vn -0.577350 0.577350 0.577350
vn 0.577350 -0.577350 -0.577350
vn 0.577350 -0.577350 0.577350
vn 0.577350 0.577350 -0.577350
vn 0.577350 0.577350 0.577350
vn -1.000000 0.000000 0.000000
vn -1.000000 0.000000 0.000000
vn 1.000000 -0.000000 0.000000
vn 1.000000 0.000000 -0.000000
vn 0.000000 -1.000000 0.000000
vn 0.000000 -1.000000 0.000000
vn 0.000000 1.000000 0.000000
vn 0.000000 1.000000 0.000000
vn 0.000000 0.000000 -1.000000
vn 0.000000 -0.000000 -1.000000
vn -0.000000 0.000000 1.000000
vn 0.000000 -0.000000 1.000000
vn -0.707102 -0.707102 -0.003690
vn -0.707102 -0.707102 -0.003690
vn -0.707084 0.707084 -0.008016
vn -0.707084 0.707084 -0.008016
vn 0.707101 -0.707101 -0.004000
vn 0.707101 -0.707101 -0.004000
vn 0.707100 0.707100 0.004275
vn 0.707100 0.707100 0.004275
vn -0.707106 0.001667 -0.707106
vn -0.707106 0.001667 -0.707106
vn -0.707098 -0.005022 0.707098
vn -0.707098 -0.005022 0.707098
vn 0.707091 -0.006720 -0.707091
vn 0.707091 -0.006720 -0.707091
vn 0.707094 0.006072 0.707094
vn 0.707094 0.006072 0.707094
vn -0.002243 -0.707105 -0.707105
vn -0.002243 -0.707105 -0.707105
vn -0.002604 -0.707104 0.707104
vn -0.002604 -0.707104 0.707104
vn -0.008638 0.707080 -0.707080
vn -0.008638 0.707080 -0.707080
vn 0.005868 0.707095 0.707095
vn 0.005868 0.707095 0.707095
vn -0.577350 -0.577350 -0.577350
vn -0.577350 -0.577350 0.577350
vn -0.577350 0.577350 -0.577350
vn -0.577350 0.577350 0.577350
vn 0.577350 -0.577350 -0.577350
vn 0.577350 -0.577350 0.577350
vn 0.577350 0.577350 -0.577350
vn 0.577350 0.577350 0.577350
vn -1.000000 0.000000 0.000000
vn -1.000000 0.000000 -0.000000
vn 1.000000 -0.000000 0.000000
vn 1.000000 0.000000 -0.000000
vn 0.000000 -1.000000 0.000000
vn 0.000000 -1.000000 0.000000
vn -0.000000 1.000000 0.000000
vn 0.000000 1.000000 0.000000
vn 0.000000 0.000000 -1.000000
vn 0.000000 -0.000000 -1.000000
vn -0.000000 0.000000 1.000000
vn 0.000000 -0.000000 1.000000
vn -0.707087 -0.707087 0.007543
vn -0.707087 -0.707087 0.007543
vn -0.707100 0.707100 0.004472
vn -0.707100 0.707100 0.004472
vn 0.707092 -0.707092 -0.006466
vn 0.707092 -0.707092 -0.006466
vn 0.707100 0.707100 -0.004416
vn 0.707100 0.707100 -0.004416
vn -0.707102 0.003846 -0.707102
vn -0.707102 0.003846 -0.707102
vn -0.707106 -0.000899 0.707106
vn -0.707106 -0.000899 0.707106
vn 0.707104 -0.002541 -0.707104
vn 0.707104 -0.002541 -0.707104
vn 0.707107 0.000650 0.707107
vn 0.707107 0.000650 0.707107
vn 0.010620 -0.707067 -0.707067
vn 0.010620 -0.707067 -0.707067
vn -0.005923 -0.707094 0.707094
vn -0.005923 -0.707094 0.707094
vn 0.005753 0.707095 -0.707095
vn 0.005753 0.707095 -0.707095
vn -0.004745 0.707099 0.707099
vn -0.004745 0.707099 0.707099
vn -0.577350 -0.577350 -0.577350
vn -0.577350 -0.577350 0.577350
vn -0.577350 0.577350 -0.577350
vn -0.577350 0.577350 0.577350
vn 0.577350 -0.577350 -0.577350
vn 0.577350 -0.577350 0.577350
vn 0.577350 0.577350 -0.577350
vn 0.577350 0.577350 0.577350
vn -1.000000 0.000000 0.000000
vn -1.000000 0.000000 0.000000
vn 1.000000 -0.000000 0.000000
vn 1.000000 0.000000 -0.000000
vn 0.000000 -1.000000 0.000000
vn 0.000000 -1.000000 0.000000
vn -0.000000 1.000000 0.000000
vn 0.000000 1.000000 0.000000
vn 0.000000 0.000000 -1.000000
vn 0.000000 0.000000 -1.000000
vn 0.000000 0.000000 1.000000
vn 0.000000 0.000000 1.000000
vn -0.707062 -0.707062 -0.011294
vn -0.707062 -0.707062 -0.011294
vn -0.707103 0.707103 0.003179
vn -0.707103 0.707103 0.003179
vn 0.707096 -0.707096 -0.005430
vn 0.707096 -0.707096 -0.005430
vn 0.707085 0.707085 -0.007872
vn 0.707085 0.707085 -0.007872
vn -0.706131 -0.052528 -0.706131
vn -0.706131 -0.052528 -0.706131
vn -0.706921 0.022932 0.706921
vn -0.706921 0.022932 0.706921
vn 0.707088 -0.007287 -0.707088
vn 0.707088 -0.007287 -0.707088
vn 0.706975 -0.019283 0.706975
vn 0.706975 -0.019283 0.706975
vn -0.000061 -0.707107 -0.707107
vn -0.000061 -0.707107 -0.707107
vn 0.006078 -0.707094 0.707094
vn 0.006078 -0.707094 0.707094
vn 0.008973 0.707078 -0.707078
vn 0.008973 0.707078 -0.707078
vn -0.002597 0.707104 0.707104
vn -0.002597 0.707104 0.707104
vn -0.577350 -0.577350 -0.577350
vn -0.577350 -0.577350 0.577350
vn -0.577350 0.577350 -0.577350
vn -0.577350 0.577350 0.577350
vn 0.577350 -0.577350 -0.577350
vn 0.577350 -0.577350 0.577350
vn 0.577350 0.577350 -0.577350
vn 0.577350 0.577350 0.577350
vn -1.000000 0.000000 0.000000
vn -1.000000 0.000000 -0.000000
vn 1.000000 0.000000 0.000000
vn 1.000000 0.000000 0.000000
vn 0.000000 -1.000000 0.000000
vn 0.000000 -1.000000 0.000000
vn -0.000000 1.000000 0.000000
vn 0.000000 1.000000 0.000000
vn 0.000000 0.000000 -1.000000
vn 0.000000 0.000000 -1.000000
vn -0.000000 0.000000 1.000000
vn 0.000000 -0.000000 1.000000
vn -0.707106 -0.707106 0.001158
vn -0.707106 -0.707106 0.001158
vn -0.707106 0.707106 0.000906
vn -0.707106 0.707106 0.000906
vn 0.707107 -0.707107 0.000361
vn 0.707107 -0.707107 0.000361
vn 0.707105 0.707105 -0.002391
vn 0.707105 0.707105 -0.002391
vn -0.707068 -0.010488 -0.707068
vn -0.707068 -0.010488 -0.707068
vn -0.707059 -0.011657 0.707059
vn -0.707059 -0.011657 0.707059
vn 0.706898 0.024313 -0.706898
vn 0.706898 0.024313 -0.706898
vn 0.707046 0.013064 0.707046
vn 0.707046 0.013064 0.707046
vn -0.008066 -0.707084 -0.707084
vn -0.008066 -0.707084 -0.707084
vn -0.008822 -0.707079 0.707079
vn -0.008822 -0.707079 0.707079
vn 0.000012 0.707107 -0.707107
vn 0.000012 0.707107 -0.707107
vn -0.003120 0.707103 0.707103
vn -0.003120 0.707103 0.707103
vn -0.577350 -0.577350 -0.577350
vn -0.577350 -0.577350 0.577350
vn -0.577350 0.577350 -0.577350
vn -0.577350 0.577350 0.577350
vn 0.577350 -0.577350 -0.577350
vn 0.577350 -0.577350 0.577350
vn 0.577350 0.577350 -0.577350
vn 0.577350 0.577350 0.577350
vn -1.000000 0.000000 0.000000
vn -1.000000 0.000000 -0.000000
vn 1.000000 0.000000 0.000000
vn 1.000000 0.000000 0.000000
vn 0.000000 -1.000000 0.000000
vn 0.000000 -1.000000 0.000000
vn -0.000000 1.000000 0.000000
vn 0.000000 1.000000 0.000000
vn 0.000000 0.000000 -1.000000
vn 0.000000 0.000000 -1.000000
vn -0.000000 0.000000 1.000000
vn 0.000000 -0.000000 1.000000
vn -0.707106 -0.707106 0.001022
vn -0.707106 -0.707106 0.001022
vn -0.707104 0.707104 0.002969
vn -0.707104 0.707104 0.002969
vn 0.707101 -0.707101 0.004097
vn 0.707101 -0.707101 0.004097
vn 0.707087 0.707087 -0.007423
vn 0.707087 0.707087 -0.007423
vn -0.707096 -0.005559 -0.707096
vn -0.707096 -0.005559 -0.707096
vn -0.707104 -0.002559 0.707104
vn -0.707104 -0.002559 0.707104
vn 0.707064 0.011011 -0.707064
vn 0.707064 0.011011 -0.707064
vn 0.707090 -0.006822 0.707090
vn 0.707090 -0.006822 0.707090
vn -0.004275 -0.707100 -0.707100
vn -0.004275 -0.707100 -0.707100
vn -0.000649 -0.707107 0.707107
vn -0.000649 -0.707107 0.707107
vn 0.008359 0.707082 -0.707082
vn 0.008359 0.707082 -0.707082
vn -0.003906 0.707101 0.707101
vn -0.003906 0.707101 0.707101
vn -0.577350 -0.577350 -0.577350
vn -0.577350 -0.577350 0.577350
vn -0.577350 0.577350 -0.577350
vn -0.577350 0.577350 0.577350
vn 0.577350 -0.577350 -0.577350
vn 0.577350 -0.577350 0.577350
vn 0.577350 0.577350 -0.577350
vn 0.577350 0.577350 0.577350
vn -1.000000 0.000000 0.000000
vn -1.000000 0.000000 -0.000000
vn 1.000000 0.000000 0.000000
vn 1.000000 0.000000 0.000000
vn 0.000000 -1.000000 0.000000
vn 0.000000 -1.000000 0.000000
vn 0.000000 1.000000 0.000000
vn 0.000000 1.000000 0.000000
vn 0.000000 0.000000 -1.000000
vn 0.000000 0.000000 -1.000000
vn 0.000000 0.000000 1.000000
vn 0.000000 -0.000000 1.000000
vn -0.707106 -0.707106 0.001883
vn -0.707106 -0.707106 0.001883
vn -0.707106 0.707106 0.001652
vn -0.707106 0.707106 0.001652
vn 0.707100 -0.707100 0.004403
vn 0.707100 -0.707100 0.004403
vn 0.707107 0.707107 -0.000563
vn 0.707107 0.707107 -0.000563
vn -0.707099 -0.004629 -0.707099
vn -0.707099 -0.004629 -0.707099
vn -0.707098 -0.004998 0.707098
vn -0.707098 -0.004998 0.707098
vn 0.707099 0.004799 -0.707099
vn 0.707099 0.004799 -0.707099
vn 0.707104 -0.002904 0.707104
vn 0.707104 -0.002904 0.707104
vn -0.000559 -0.707107 -0.707107
vn -0.000559 -0.707107 -0.707107
vn 0.002418 -0.707105 0.707105
vn 0.002418 -0.707105 0.707105
vn 0.006634 0.707091 -0.707091
vn 0.006634 0.707091 -0.707091
vn 0.004022 0.707101 0.707101
vn 0.004022 0.707101 0.707101
vn -0.577350 -0.577350 -0.577350
vn -0.577350 -0.577350 0.577350
vn -0.577350 0.577350 -0.577350
vn -0.577350 0.577350 0.577350
vn 0.577350 -0.577350 -0.577350
vn 0.577350 -0.577350 0.577350
vn 0.577350 0.577350 -0.577350
vn 0.577350 0.577350 0.577350
vn -1.000000 0.000000 0.000000
vn -1.000000 0.000000 0.000000
vn 1.000000 0.000000 0.000000
vn 1.000000 0.000000 0.000000
vn 0.000000 -1.000000 0.000000
vn 0.000000 -1.000000 0.000000
vn -0.000000 1.000000 0.000000
vn 0.000000 1.000000 0.000000
vn 0.000000 0.000000 -1.000000
vn 0.000000 -0.000000 -1.000000
vn 0.000000 0.000000 1.000000
vn 0.000000 0.000000 1.000000
vn -0.707101 -0.707101 -0.003960
vn -0.707101 -0.707101 -0.003960
vn -0.707101 0.707101 -0.003979
vn -0.707101 0.707101 -0.003979
vn 0.707106 -0.707106 0.001439
vn 0.707106 -0.707106 0.001439
vn 0.707093 0.707093 -0.006191
vn 0.707093 0.707093 -0.006191
vn -0.707107 0.000828 -0.707107
vn -0.707107 0.000828 -0.707107
vn -0.707107 0.000793 0.707107
vn -0.707107 0.000793 0.707107
vn 0.707062 0.011263 -0.707062
vn 0.707062 0.011263 -0.707062
vn 0.707107 -0.000535 0.707107
vn 0.707107 -0.000535 0.707107
vn -0.005750 -0.707095 -0.707095
vn -0.005750 -0.707095 -0.707095
vn 0.000616 -0.707107 0.707107
vn 0.000616 -0.707107 0.707107
vn 0.002213 0.707105 -0.707105
vn 0.002213 0.707105 -0.707105
vn -0.000399 0.707107 0.707107
vn -0.000399 0.707107 0.707107
vn -0.577350 -0.577350 -0.577350
vn -0.577350 -0.577350 0.577350
vn -0.577350 0.577350 -0.577350
vn -0.577350 0.577350 0.577350
vn 0.577350 -0.577350 -0.577350
vn 0.577350 -0.577350 0.577350
vn 0.577350 0.577350 -0.577350
vn 0.577350 0.577350 0.577350
vn -1.000000 0.000000 0.000000
vn -1.000000 0.000000 0.000000
vn 1.000000 -0.000000 0.000000
vn 1.000000 0.000000 0.000000
vn 0.000000 -1.000000 0.000000
vn 0.000000 -1.000000 0.000000
vn 0.000000 1.000000 0.000000
vn 0.000000 1.000000 0.000000
vn 0.000000 0.000000 -1.000000
vn 0.000000 0.000000 -1.000000
vn 0.000000 0.000000 1.000000
vn 0.000000 0.000000 1.000000
vn -0.707097 -0.707097 -0.005300
vn -0.707097 -0.707097 -0.005300
vn -0.707105 0.707105 0.002241
vn -0.707105 0.707105 0.002241
vn 0.707089 -0.707089 0.007039
vn 0.707089 -0.707089 0.007039
vn 0.707082 0.707082 0.008385
vn 0.707082 0.707082 0.008385
vn -0.707095 -0.005875 -0.707095
vn -0.707095 -0.005875 -0.707095
vn -0.707095 0.005804 0.707095
vn -0.707095 0.005804 0.707095
vn 0.707105 -0.002506 -0.707105
vn 0.707105 -0.002506 -0.707105
vn 0.707107 -0.000437 0.707107
vn 0.707107 -0.000437 0.707107
vn -0.006397 -0.707092 -0.707092
vn -0.006397 -0.707092 -0.707092
vn 0.008172 -0.707083 0.707083
vn 0.008172 -0.707083 0.707083
vn -0.003840 0.707102 -0.707102
vn -0.003840 0.707102 -0.707102
vn 0.003413 0.707103 0.707103
vn 0.003413 0.707103 0.707103
vn -0.577350 -0.577350 -0.577350
vn -0.577350 -0.577350 0.577350
vn -0.577350 0.577350 -0.577350
vn -0.577350 0.577350 0.577350
vn 0.577350 -0.577350 -0.577350
vn 0.577350 -0.577350 0.577350
vn 0.577350 0.577350 -0.577350
vn 0.577350 0.577350 0.577350
vn -1.000000 0.000000 0.000000
vn -1.000000 0.000000 0.000000
vn 1.000000 -0.000000 0.000000
vn 1.000000 0.000000 0.000000
vn 0.000000 -1.000000 0.000000
vn 0.000000 -1.000000 0.000000
vn -0.000000 1.000000 0.000000
vn 0.000000 1.000000 0.000000
vn 0.000000 0.000000 -1.000000
vn 0.000000 -0.000000 -1.000000
vn 0.000000 0.000000 1.000000
vn 0.000000 0.000000 1.000000
vn -0.707106 -0.707106 -0.001293
vn -0.707106 -0.707106 -0.001293
vn -0.707106 0.707106 -0.001887
vn -0.707106 0.707106 -0.001887
vn 0.707106 -0.707106 0.001264
vn 0.707106 -0.707106 0.001264
vn 0.707093 0.707093 0.006353
vn 0.707093 0.707093 0.006353
vn -0.706787 0.030072 -0.706787
vn -0.706787 0.030072 -0.706787
vn -0.706860 0.026395 0.706860
vn -0.706860 0.026395 0.706860
vn 0.707090 -0.006899 -0.707090
vn 0.707090 -0.006899 -0.707090
vn 0.706975 0.019326 0.706975
vn 0.706975 0.019326 0.706975
vn -0.002316 -0.707105 -0.707105
vn -0.002316 -0.707105 -0.707105
vn 0.000360 -0.707107 0.707107
vn 0.000360 -0.707107 0.707107
vn -0.009666 0.707074 -0.707074
vn -0.009666 0.707074 -0.707074
vn -0.001040 0.707106 0.707106
vn -0.001040 0.707106 0.707106
vn -0.577350 -0.577350 -0.577350
vn -0.577350 -0.577350 0.577350
vn -0.577350 0.577350 -0.577350
vn -0.577350 0.577350 0.577350
vn 0.577350 -0.577350 -0.577350
vn 0.577350 -0.577350 0.577350
vn 0.577350 0.577350 -0.577350
vn 0.577350 0.577350 0.577350
vn -0.254953 0.966953 0.000000
vn -0.254953 0.966953 -0.000000
vn 0.004000 -0.999992 -0.000000
vn 0.004000 -0.999992 0.000000
vn -0.991387 -0.130965 -0.000145
vn -0.991478 -0.130277 0.000146
vn 0.991493 0.130161 0.000415
vn 0.991424 0.130687 0.000077
vn 0.000000 -0.000000 -1.000000
vn 0.000000 0.000000 -1.000000
vn 0.000000 0.000000 1.000000
vn -0.000000 0.000000 1.000000
vn -0.554422 0.832235 0.001130
vn -0.554391 0.832255 0.001131
vn 0.220562 0.975373 -0.000558
vn 0.220586 0.975367 -0.000557
vn -0.320123 -0.947375 -0.001123
vn -0.320088 -0.947387 -0.001124
vn 0.465542 -0.885021 -0.003020
vn 0.465420 -0.885085 -0.003017
vn -0.222509 0.860405 -0.458467
vn -0.240575 0.913631 -0.327721
vn -0.238477 0.913971 0.328307
vn -0.228600 0.858718 0.458634
vn 0.007468 -0.944487 -0.328465
vn 0.002467 -0.888826 -0.458238
vn 0.004753 -0.888342 0.459157
vn 0.001817 -0.944717 0.327882
vn -0.702213 -0.100161 -0.704886
vn -0.703092 -0.100378 -0.703979
vn -0.703985 -0.088296 0.704705
vn -0.704499 -0.088306 0.704189
vn 0.703793 0.090940 -0.704560
vn 0.704010 0.090984 -0.704338
vn 0.702958 0.096429 0.704664
vn 0.703461 0.096464 0.704158
vn -0.526818 0.790799 -0.311609
vn -0.526692 0.790673 0.312142
vn 0.200549 0.886765 -0.416446
vn 0.200511 0.886706 0.416590
vn -0.304080 -0.900007 -0.312286
vn -0.304168 -0.900161 0.311757
vn 0.423296 -0.804708 -0.416253
vn 0.423018 -0.804450 0.417032
vn -0.496532 0.868018 0.000000
vn -0.496532 0.868018 -0.000000
vn 0.262681 -0.964883 -0.000000
vn 0.262681 -0.964883 -0.000000
vn -0.924047 -0.382278 0.000193
vn -0.923940 -0.382537 0.000075
vn 0.923662 0.383209 -0.000334
vn 0.923741 0.383017 -0.000201
vn 0.000000 -0.000000 -1.000000
vn 0.000000 0.000000 -1.000000
vn 0.000000 0.000000 1.000000
vn -0.000000 0.000000 1.000000
vn -0.750917 0.660396 0.000579
vn -0.750905 0.660410 0.000580
vn -0.039462 0.999220 0.001455
vn -0.039529 0.999217 0.001454
vn -0.064006 -0.997948 0.001492
vn -0.064055 -0.997945 0.001493
vn 0.678657 -0.734451 0.002414
vn 0.678738 -0.734376 0.002411
vn -0.441345 0.770763 -0.459499
vn -0.471825 0.818409 -0.328004
vn -0.468395 0.820256 0.328308
vn -0.444357 0.769299 0.459049
vn 0.251464 -0.910859 -0.327265
vn 0.233253 -0.857275 -0.458992
vn 0.237639 -0.856461 0.458259
vn 0.248285 -0.911451 0.328041
vn -0.659056 -0.264733 -0.703961
vn -0.658257 -0.264307 -0.704869
vn -0.656618 -0.269010 0.704618
vn -0.656930 -0.269099 0.704293
vn 0.656979 0.268078 -0.704637
vn 0.657423 0.268290 -0.704142
vn 0.658353 0.266302 0.704027
vn 0.657623 0.266054 0.704803
vn -0.713465 0.627459 -0.311870
vn -0.713386 0.627413 0.312143
vn -0.035923 0.908048 -0.417324
vn -0.035868 0.908224 0.416945
vn -0.060874 -0.948395 -0.311194
vn -0.060813 -0.948167 0.311900
vn 0.616871 -0.667586 -0.416892
vn 0.617139 -0.667727 0.416270
vn -0.704273 0.709930 0.000000
vn -0.704273 0.709930 0.000000
vn 0.503460 -0.864018 0.000000
vn 0.503460 -0.864018 0.000000
vn -0.793168 -0.609003 0.000107
vn -0.793125 -0.609059 0.000077
vn 0.792620 0.609716 -0.000022
vn 0.793064 0.609138 0.000443
vn 0.000000 -0.000000 -1.000000
vn 0.000000 0.000000 -1.000000
vn -0.000000 0.000000 1.000000
vn 0.000000 0.000000 1.000000
vn -0.896274 0.443500 0.000595
vn -0.896266 0.443517 0.000596
vn -0.296805 0.954933 -0.003210
vn -0.296664 0.954977 -0.003208
vn 0.196473 -0.980509 0.000823
vn 0.196447 -0.980514 0.000824
vn 0.845712 -0.533639 0.000158
vn 0.845716 -0.533633 0.000158
vn -0.622447 0.634249 -0.458571
vn -0.664731 0.671589 -0.327262
vn -0.665142 0.671031 0.327572
vn -0.627809 0.628229 0.459547
vn 0.481376 -0.812922 -0.327773
vn 0.449661 -0.766892 -0.457911
vn 0.452342 -0.765343 0.457861
vn 0.476331 -0.815715 0.328203
vn -0.559638 -0.436077 -0.704729
vn -0.560096 -0.436504 -0.704100
vn -0.559430 -0.437442 0.704048
vn -0.558773 -0.437040 0.704818
vn 0.565833 0.427938 -0.704771
vn 0.566312 0.428367 -0.704126
vn 0.571362 0.422590 0.703536
vn 0.570002 0.421675 0.705187
vn -0.851772 0.421479 -0.311190
vn -0.851681 0.421455 0.311473
vn -0.269704 0.868192 -0.416536
vn -0.269720 0.867788 0.417368
vn 0.186663 -0.931679 -0.311659
vn 0.186663 -0.931549 0.312047
vn 0.769071 -0.485280 -0.415972
vn 0.769091 -0.485284 0.415932
vn -0.864018 0.503460 0.000000
vn -0.864018 0.503460 0.000000
vn 0.709930 -0.704273 -0.000000
vn 0.709930 -0.704273 0.000000
vn -0.608753 -0.793360 0.000040
vn -0.608874 -0.793267 0.000104
vn 0.608795 0.793327 -0.000651
vn 0.609380 0.792878 -0.000181
vn 0.000000 -0.000000 -1.000000
vn 0.000000 0.000000 -1.000000
vn -0.000000 0.000000 1.000000
vn 0.000000 0.000000 1.000000
vn -0.980521 0.196411 0.000798
vn -0.980516 0.196436 0.000799
vn -0.533658 0.845700 0.001314
vn -0.533708 0.845668 0.001312
vn 0.443506 -0.896271 0.000305
vn 0.443497 -0.896276 0.000305
vn 0.954927 -0.296803 0.004718
vn 0.954991 -0.296596 0.004714
vn -0.765131 0.452104 -0.458451
vn -0.815671 0.477106 -0.327187
vn -0.813079 0.481228 0.327600
vn -0.766833 0.449612 0.458057
vn 0.671717 -0.664630 -0.327205
vn 0.629064 -0.626972 -0.459548
vn 0.635500 -0.621508 0.458112
vn 0.672288 -0.663974 0.327365
vn -0.431936 -0.563226 -0.704420
vn -0.431949 -0.563245 -0.704397
vn -0.433936 -0.561503 0.704566
vn -0.434134 -0.561716 0.704275
vn 0.425963 0.568470 -0.703845
vn 0.425363 0.567590 -0.704917
vn 0.431691 0.563320 0.704495
vn 0.431730 0.563362 0.704438
vn -0.931858 0.186663 -0.311122
vn -0.931732 0.186663 0.311501
vn -0.485230 0.768853 -0.416434
vn -0.485266 0.769013 0.416097
vn 0.421484 -0.851789 -0.311139
vn 0.421471 -0.851742 0.311284
vn 0.867788 -0.269719 -0.417367
vn 0.868381 -0.269697 0.416147
vn -0.964883 0.262681 -0.000000
vn -0.964883 0.262681 -0.000000
vn 0.868018 -0.496532 0.000000
vn 0.868018 -0.496532 -0.000000
vn -0.383126 -0.923696 0.000051
vn -0.382230 -0.924067 -0.000357
vn 0.382807 0.923828 0.000180
vn 0.381989 0.924167 -0.000384
vn 0.000000 0.000000 -1.000000
vn 0.000000 -0.000000 -1.000000
vn -0.000000 0.000000 1.000000
vn 0.000000 0.000000 1.000000
vn -0.997945 -0.064010 -0.002755
vn -0.997940 -0.064100 -0.002757
vn -0.734407 0.678703 0.002796
vn -0.734495 0.678609 0.002793
vn 0.660366 -0.750944 0.000390
vn 0.660356 -0.750952 0.000390
vn 0.999224 -0.039357 -0.001310
vn 0.999222 -0.039417 -0.001308
vn -0.857031 0.233303 -0.459421
vn -0.912269 0.245354 -0.327972
vn -0.910198 0.254788 0.326530
vn -0.856441 0.237116 0.458569
vn 0.823300 -0.463833 -0.327164
vn 0.772762 -0.439025 -0.458361
vn 0.773189 -0.437859 0.458757
vn 0.820342 -0.468900 0.327371
vn -0.279464 -0.652997 -0.703914
vn -0.279175 -0.652054 -0.704902
vn -0.263924 -0.659485 0.703864
vn -0.263462 -0.658578 0.704885
vn 0.278674 0.652259 -0.704910
vn 0.279010 0.653231 -0.703877
vn 0.270292 0.656195 0.704522
vn 0.270372 0.656358 0.704338
vn -0.948186 -0.060818 -0.311841
vn -0.948609 -0.060931 0.310529
vn -0.667503 0.616714 -0.417257
vn -0.667667 0.617026 0.416533
vn 0.627587 -0.713687 -0.311104
vn 0.627556 -0.713633 0.311290
vn 0.908498 -0.035784 -0.416355
vn 0.908341 -0.035832 0.416693
vn -0.868018 -0.496532 0.000000
vn -0.868018 -0.496532 0.000000
vn 0.964883 0.262681 -0.000000
vn 0.964883 0.262681 -0.000000
vn 0.383259 -0.923641 -0.000399
vn 0.381907 -0.924201 0.000214
vn -0.383011 0.923744 -0.000217
vn -0.383178 0.923675 -0.000331
vn 0.000000 0.000000 -1.000000
vn 0.000000 0.000000 -1.000000
vn 0.000000 0.000000 1.000000
vn 0.000000 -0.000000 1.000000
vn -0.660357 -0.750950 0.001640
vn -0.660397 -0.750915 0.001641
vn -0.999221 -0.039383 0.002409
vn -0.999217 -0.039493 0.002407
vn 0.997939 -0.064093 -0.003058
vn 0.997946 -0.063994 -0.003060
vn 0.734403 0.678712 0.001575
vn 0.734354 0.678765 0.001574
vn -0.772191 -0.439089 -0.459263
vn -0.819907 -0.469783 -0.327194
vn -0.821697 -0.466044 0.328049
vn -0.770962 -0.442007 0.458528
vn 0.910600 0.251137 -0.328236
vn 0.857845 0.232108 -0.458506
vn 0.855531 0.241411 0.458025
vn 0.910908 0.252099 0.326639
vn 0.281216 -0.651039 -0.705029
vn 0.281815 -0.652153 -0.703759
vn 0.257954 -0.660415 0.705203
vn 0.258464 -0.662049 0.703483
vn -0.266315 0.657549 -0.704773
vn -0.266636 0.658207 -0.704038
vn -0.268268 0.657364 0.704205
vn -0.268116 0.656906 0.704690
vn -0.627583 -0.713679 -0.311130
vn -0.627453 -0.713454 0.311907
vn -0.908141 -0.035894 -0.417122
vn -0.908431 -0.035804 0.416499
vn 0.948110 -0.060798 -0.312077
vn 0.948579 -0.060923 0.310624
vn 0.667679 0.617048 -0.416480
vn 0.667771 0.617222 0.416076
vn -0.709930 -0.704273 0.000000
vn -0.709930 -0.704273 0.000000
vn 0.864018 0.503460 -0.000000
vn 0.864018 0.503460 0.000000
vn 0.608942 -0.793215 -0.000054
vn 0.608372 -0.793652 0.000247
vn -0.608820 0.793309 0.000332
vn -0.608740 0.793370 0.000396
vn 0.000000 0.000000 -1.000000
vn 0.000000 0.000000 -1.000000
vn 0.000000 -0.000000 1.000000
vn 0.000000 0.000000 1.000000
vn -0.443469 -0.896288 0.001889
vn -0.443524 -0.896260 0.001890
vn -0.954970 -0.296688 -0.002887
vn -0.955009 -0.296562 -0.002883
vn 0.980525 0.196392 -0.000414
vn 0.980523 0.196405 -0.000414
vn 0.533637 0.845710 -0.002417
vn 0.533730 0.845651 -0.002414
vn -0.637235 -0.619919 -0.457856
vn -0.673962 -0.662594 -0.326717
vn -0.673121 -0.662960 0.327707
vn -0.630432 -0.626193 0.458735
vn 0.812324 0.482844 -0.327095
vn 0.765788 0.451547 -0.457902
vn 0.765076 0.452015 0.458630
vn 0.815665 0.477322 0.326885
vn 0.435066 -0.560558 -0.704622
vn 0.435378 -0.560905 -0.704153
vn 0.425104 -0.567818 0.704890
vn 0.425640 -0.568661 0.703886
vn -0.432293 0.562902 -0.704460
vn -0.432268 0.562874 -0.704498
vn -0.431503 0.563610 0.704378
vn -0.431447 0.563527 0.704479
vn -0.421522 -0.851932 -0.310696
vn -0.421444 -0.851641 0.311596
vn -0.868485 -0.269693 -0.415933
vn -0.868125 -0.269707 0.416674
vn 0.931884 0.186663 -0.311045
vn 0.931950 0.186663 0.310847
vn 0.485280 0.769075 -0.415966
vn 0.485213 0.768781 0.416586
vn -0.503460 -0.864018 0.000000
vn -0.503460 -0.864018 -0.000000
vn 0.704273 0.709930 0.000000
vn 0.704273 0.709930 0.000000
vn 0.793244 -0.608904 0.000287
vn 0.793712 -0.608294 -0.000036
vn -0.793850 0.608114 0.000114
vn -0.793500 0.608570 0.000481
vn 0.000000 0.000000 -1.000000
vn 0.000000 0.000000 -1.000000
vn 0.000000 -0.000000 1.000000
vn 0.000000 0.000000 1.000000
vn -0.196425 -0.980519 -0.000276
vn -0.196416 -0.980521 -0.000276
vn -0.845582 -0.533835 -0.003485
vn -0.845667 -0.533699 -0.003482
vn 0.896244 0.443555 0.002219
vn 0.896276 0.443491 0.002221
vn 0.296592 0.955004 -0.000829
vn 0.296628 0.954993 -0.000828
vn -0.451868 -0.765301 -0.458399
vn -0.476739 -0.815793 -0.327416
vn -0.476977 -0.815712 0.327272
vn -0.445487 -0.768400 0.459460
vn 0.660167 0.676152 -0.327107
vn 0.623237 0.633840 -0.458064
vn 0.623377 0.633521 0.458314
vn 0.665619 0.670219 0.328265
vn 0.561362 -0.434674 -0.704224
vn 0.561050 -0.434475 -0.704596
vn 0.569758 -0.424311 0.703801
vn 0.568876 -0.423479 0.705015
vn -0.561418 0.433960 -0.704620
vn -0.561691 0.434139 -0.704292
vn -0.558357 0.439167 0.703825
vn -0.557515 0.438439 0.704946
vn -0.186663 -0.931789 -0.311331
vn -0.186663 -0.931832 0.311200
vn -0.768874 -0.485235 -0.416389
vn -0.768446 -0.485137 0.417291
vn 0.851816 0.421491 -0.311054
vn 0.851477 0.421400 0.312105
vn 0.269696 0.868402 -0.416103
vn 0.269700 0.868299 0.416316
vn -0.262681 -0.964883 -0.000000
vn -0.262681 -0.964883 -0.000000
vn 0.496532 0.868018 0.000000
vn 0.496532 0.868018 -0.000000
vn 0.924005 -0.382380 -0.000357
vn 0.923903 -0.382626 -0.000245
vn -0.923911 0.382606 -0.000009
vn -0.924006 0.382377 -0.000168
vn 0.000000 0.000000 -1.000000
vn 0.000000 0.000000 -1.000000
vn 0.000000 -0.000000 1.000000
vn 0.000000 0.000000 1.000000
vn 0.064026 -0.997946 -0.001884
vn 0.064088 -0.997942 -0.001885
vn -0.678700 -0.734414 0.001218
vn -0.678659 -0.734452 0.001216
vn 0.750963 0.660339 -0.002745
vn 0.750904 0.660406 -0.002746
vn 0.039381 0.999224 0.000067
vn 0.039378 0.999224 0.000067
vn -0.235507 -0.856661 -0.458986
vn -0.247095 -0.911890 -0.327720
vn -0.254152 -0.910304 0.326732
vn -0.236326 -0.856634 0.458616
vn 0.466417 0.821398 -0.328271
vn 0.442597 0.770630 -0.458517
vn 0.436072 0.774353 0.458496
vn 0.467327 0.821450 0.326840
vn 0.657571 -0.266265 -0.704772
vn 0.658212 -0.266452 -0.704102
vn 0.656251 -0.270672 0.704323
vn 0.656137 -0.270615 0.704451
vn -0.654212 0.274732 -0.704649
vn -0.654640 0.274878 -0.704194
vn -0.655458 0.272442 0.704380
vn -0.655356 0.272392 0.704494
vn 0.060838 -0.948261 -0.311609
vn 0.060916 -0.948550 0.310711
vn -0.616873 -0.667587 -0.416887
vn -0.617009 -0.667658 0.416572
vn 0.713396 0.627419 -0.312109
vn 0.713773 0.627637 0.310807
vn 0.035803 0.908435 -0.416490
vn 0.035801 0.908443 0.416473
vn -0.004000 -0.999992 0.000000
vn -0.004000 -0.999992 0.000000
vn 0.254953 0.966953 -0.000000
vn 0.254953 0.966953 0.000000
vn 0.991370 -0.131096 0.000216
vn 0.991436 -0.130591 0.000002
vn -0.991448 0.130504 -0.000548
vn -0.991404 0.130835 -0.000335
vn 0.000000 0.000000 -1.000000
vn 0.000000 0.000000 -1.000000
vn 0.000000 -0.000000 1.000000
vn 0.000000 0.000000 1.000000
vn 0.320125 -0.947375 0.000012
vn 0.320124 -0.947376 0.000012
vn -0.465561 -0.885013 0.002430
vn -0.465462 -0.885064 0.002427
vn 0.554420 0.832235 0.001667
vn 0.554466 0.832205 0.001668
vn -0.220465 0.975387 0.003975
vn -0.220643 0.975347 0.003971
vn -0.006031 -0.888497 -0.458842
vn -0.002751 -0.944725 -0.327852
vn -0.009421 -0.944680 0.327858
vn -0.004941 -0.888883 0.458107
vn 0.237982 0.914612 -0.326878
vn 0.226478 0.858934 -0.459282
vn 0.221149 0.860966 0.458074
vn 0.239585 0.913881 0.327750
vn 0.702954 -0.102624 -0.703792
vn 0.701767 -0.102575 -0.704983
vn 0.703478 -0.093753 0.704506
vn 0.703608 -0.093784 0.704372
vn -0.704359 0.089449 -0.704186
vn -0.703933 0.089417 -0.704615
vn -0.703651 0.092868 0.704451
vn -0.703622 0.092862 0.704481
vn 0.304173 -0.900169 -0.311729
vn 0.304172 -0.900167 0.311735
vn -0.423113 -0.804539 -0.416764
vn -0.423336 -0.804745 0.416139
vn 0.526999 0.790980 -0.310841
vn 0.526812 0.790793 0.311635
vn -0.200369 0.886480 -0.417138
vn -0.200635 0.886902 0.416113
vn -0.939373 0.000000 0.342898
vn -0.939373 -0.000000 0.342898
vn 0.939373 0.000000 -0.342898
vn 0.939373 0.000000 -0.342898
vn 0.000000 -1.000000 0.000000
vn 0.000000 -1.000000 0.000000
vn 0.000000 1.000000 0.000000
vn 0.000000 1.000000 0.000000
vn -0.342898 0.000000 -0.939373
vn -0.342898 -0.000000 -0.939373
vn 0.342898 -0.000000 0.939373
vn 0.342898 0.000000 0.939373
vn -0.663268 -0.707104 0.245112
vn -0.663268 -0.707104 0.245112
vn -0.667298 0.707078 0.233994
vn -0.667298 0.707078 0.233994
vn 0.669940 -0.707006 -0.226547
vn 0.669940 -0.707006 -0.226547
vn 0.662798 0.707101 -0.246390
vn 0.662798 0.707101 -0.246390
vn -0.906695 0.003930 -0.421768
vn -0.906695 0.003930 -0.421768
vn -0.421495 -0.036199 0.906108
vn -0.421495 -0.036199 0.906108
vn 0.421309 0.046833 -0.905707
vn 0.421309 0.046833 -0.905707
vn 0.906417 -0.025084 0.421639
vn 0.906417 -0.025084 0.421639
vn -0.253490 -0.707058 -0.660160
vn -0.253490 -0.707058 -0.660160
vn 0.246001 -0.707102 0.662941
vn 0.246001 -0.707102 0.662941
vn -0.240255 0.707105 -0.665041
vn -0.240255 0.707105 -0.665041
vn 0.249655 0.707086 0.661590
vn 0.249655 0.707086 0.661590
vn -0.740319 -0.577350 -0.344375
vn -0.344375 -0.577350 0.740319
vn -0.740319 0.577350 -0.344375
vn -0.344375 0.577350 0.740319
vn 0.344375 -0.577350 -0.740319
vn 0.740319 -0.577350 0.344375
vn 0.344375 0.577350 -0.740319
vn 0.740319 0.577350 0.344375
vn -0.939373 0.000000 -0.342898
vn -0.939373 -0.000000 -0.342898
vn 0.939373 0.000000 0.342898
vn 0.939373 0.000000 0.342898
vn 0.000000 -1.000000 0.000000
vn 0.000000 -1.000000 0.000000
vn -0.000000 1.000000 0.000000
vn 0.000000 1.000000 0.000000
vn 0.342898 -0.000000 -0.939373
vn 0.342898 0.000000 -0.939373
vn -0.342898 0.000000 0.939373
vn -0.342898 0.000000 0.939373
vn -0.669335 -0.707026 -0.228264
vn -0.669335 -0.707026 -0.228264
vn -0.660501 0.707066 -0.252579
vn -0.660501 0.707066 -0.252579
vn 0.665176 -0.707104 0.239886
vn 0.665176 -0.707104 0.239886
vn 0.658618 0.707015 0.257590
vn 0.658618 0.707015 0.257590
vn -0.421713 0.016641 -0.906577
vn -0.421713 0.016641 -0.906577
vn -0.906213 -0.032855 0.421544
vn -0.906213 -0.032855 0.421544
vn 0.906698 0.003050 -0.421769
vn 0.906698 0.003050 -0.421769
vn 0.421447 0.039224 0.906004
vn 0.421447 0.039224 0.906004
vn 0.240994 -0.707106 -0.664773
vn 0.240994 -0.707106 -0.664773
vn -0.262323 -0.706948 0.656819
vn -0.262323 -0.706948 0.656819
vn 0.233633 0.707076 -0.667428
vn 0.233633 0.707076 -0.667428
vn -0.223395 0.706962 0.671044
vn -0.223395 0.706962 0.671044
vn -0.344375 -0.577350 -0.740319
vn -0.740319 -0.577350 0.344375
vn -0.344375 0.577350 -0.740319
vn -0.740319 0.577350 0.344375
vn 0.740319 -0.577350 -0.344375
vn 0.344375 -0.577350 0.740319
vn 0.740319 0.577350 -0.344375
vn 0.344375 0.577350 0.740319
vn -0.877583 0.000000 0.479426
vn -0.877583 0.000000 0.479426
vn 0.877583 0.000000 -0.479426
vn 0.877583 0.000000 -0.479426
vn 0.000000 -1.000000 0.000000
vn 0.000000 -1.000000 0.000000
vn 0.000000 1.000000 0.000000
vn 0.000000 1.000000 0.000000
vn -0.479426 -0.000000 -0.877583
vn -0.479426 0.000000 -0.877583
vn 0.479426 0.000000 0.877583
vn 0.479426 0.000000 0.877583
vn -0.609572 -0.706927 0.358715
vn -0.609572 -0.706927 0.358715
vn -0.592286 0.705963 0.388347
vn -0.592286 0.705963 0.388347
vn 0.607523 -0.706855 -0.362315
vn 0.607523 -0.706855 -0.362315
vn 0.619419 0.707105 -0.341061
vn 0.619419 0.707105 -0.341061
vn -0.959543 0.003627 -0.281538
vn -0.959543 0.003627 -0.281538
vn -0.280245 0.095797 0.955137
vn -0.280245 0.095797 0.955137
vn 0.280430 -0.088710 -0.955767
vn 0.280430 -0.088710 -0.955767
vn 0.959209 -0.026631 0.281440
vn 0.959209 -0.026631 0.281440
vn -0.294686 -0.706222 -0.643748
vn -0.294686 -0.706222 -0.643748
vn 0.333456 -0.707093 0.623560
vn 0.333456 -0.707093 0.623560
vn -0.332490 0.707087 -0.624081
vn -0.332490 0.707087 -0.624081
vn 0.285183 0.705806 0.648466
vn 0.285183 0.705806 0.648466
vn -0.783469 -0.577350 -0.229876
vn -0.229876 -0.577350 0.783469
vn -0.783469 0.577350 -0.229876
vn -0.229876 0.577350 0.783469
vn 0.229876 -0.577350 -0.783469
vn 0.783469 -0.577350 0.229876
vn 0.229876 0.577350 -0.783469
vn 0.783469 0.577350 0.229876
g stone_000
usemtl stone_3
s off
f 4//1 10//1 7//1
f 4//2 7//2 1//2
f 13//3 19//3 22//3
f 13//4 22//4 16//4
f 2//5 14//5 17//5
f 2//6 17//6 5//6
f 11//7 23//7 20//7
f 11//8 20//8 8//8
f 9//9 21//9 15//9
f 9//10 15//10 3//10
f 6//11 18//11 24//11
f 6//12 24//12 12//12
f 1//13 2//13 5//13
f 1//14 5//14 4//14
f 10//15 11//15 8//15
f 10//16 8//16 7//16
f 16//17 17//17 14//17
f 16//18 14//18 13//18
f 19//19 20//19 23//19
f 19//20 23//20 22//20
f 7//21 9//21 3//21
f 7//22 3//22 1//22
f 4//23 6//23 12//23
f 4//24 12//24 10//24
f 13//25 15//25 21//25
f 13//26 21//26 19//26
f 22//27 24//27 18//27
f 22//28 18//28 16//28
f 2//29 3//29 15//29
f 2//30 15//30 14//30
f 17//31 18//31 6//31
f 17//32 6//32 5//32
f 20//33 21//33 9//33
f 20//34 9//34 8//34
f 11//35 12//35 24//35
f 11//36 24//36 23//36
f 3//37 2//37 1//37
f 4//38 5//38 6//38
f 7//39 8//39 9//39
f 12//40 11//40 10//40
f 13//41 14//41 15//41
f 18//42 17//42 16//42
f 21//43 20//43 19//43
f 22//44 23//44 24//44
g stone_001
usemtl stone_0
s off
f 28//45 34//45 31//45
f 28//46 31//46 25//46
f 37//47 43//47 46//47
f 37//48 46//48 40//48
f 26//49 38//49 41//49
f 26//50 41//50 29//50
f 35//51 47//51 44//51
f 35//52 44//52 32//52
f 33//53 45//53 39//53
f 33//54 39//54 27//54
f 30//55 42//55 48//55
f 30//56 48//56 36//56
f 25//57 26//57 29//57
f 25//58 29//58 28//58
f 34//59 35//59 32//59
f 34//60 32//60 31//60
f 40//61 41//61 38//61
f 40//62 38//62 37//62
f 43//63 44//63 47//63
f 43//64 47//64 46//64
f 31//65 33//65 27//65
f 31//66 27//66 25//66
f 28//67 30//67 36//67
f 28//68 36//68 34//68
f 37//69 39//69 45//69
f 37//70 45//70 43//70
f 46//71 48//71 42//71
f 46//72 42//72 40//72
f 26//73 27//73 39//73
f 26//74 39//74 38//74
f 41//75 42//75 30//75
f 41//76 30//76 29//76
f 44//77 45//77 33//77
f 44//78 33//78 32//78
f 35//79 36//79 48//79
f 35//80 48//80 47//80
f 27//81 26//81 25//81
f 28//82 29//82 30//82
f 31//83 32//83 33//83
f 36//84 35//84 34//84
f 37//85 38//85 39//85
f 42//86 41//86 40//86
f 45//87 44//87 43//87
f 46//88 47//88 48//88
g stone_002
usemtl stone_0
s off
f 52//89 58//89 55//89
f 52//90 55//90 49//90
f 61//91 67//91 70//91
f 61//92 70//92 64//92
f 50//93 62//93 65//93
f 50//94 65//94 53//94
f 59//95 71//95 68//95
f 59//96 68//96 56//96
f 57//97 69//97 63//97
f 57//98 63//98 51//98
f 54//99 66//99 72//99
f 54//100 72//100 60//100
f 49//101 50//101 53//101
f 49//102 53//102 52//102
f 58//103 59//103 56//103
f 58//104 56//104 55//104
f 64//105 65//105 62//105
f 64//106 62//106 61//106
f 67//107 68//107 71//107
f 67//108 71//108 70//108
f 55//109 57//109 51//109
f 55//110 51//110 49//110
f 52//111 54//111 60//111
f 52//112 60//112 58//112
f 61//113 63//113 69//113
f 61//114 69//114 67//114
f 70//115 72//115 66//115
f 70//116 66//116 64//116
f 50//117 51//117 63//117
f 50//118 63//118 62//118
f 65//119 66//119 54//119
f 65//120 54//120 53//120
f 68//121 69//121 57//121
f 68//122 57//122 56//122
f 59//123 60//123 72//123
f 59//124 72//124 71//124
f 51//125 50//125 49//125
f 52//126 53//126 54//126
f 55//127 56//127 57//127
f 60//128 59//128 58//128
f 61//129 62//129 63//129
f 66//130 65//130 64//130
f 69//131 68//131 67//131
f 70//132 71//132 72//132
g stone_003
usemtl stone_0
s off
f 76//133 82//133 79//133
f 76//134 79//134 73//134
f 85//135 91//135 94//135
f 85//136 94//136 88//136
f 74//137 86//137 89//137
f 74//138 89//138 77//138
f 83//139 95//139 92//139
f 83//140 92//140 80//140
f 81//141 93//141 87//141
f 81//142 87//142 75//142
f 78//143 90//143 96//143
f 78//144 96//144 84//144
f 73//145 74//145 77//145
f 73//146 77//146 76//146
f 82//147 83//147 80//147
f 82//148 80//148 79//148
f 88//149 89//149 86//149
f 88//150 86//150 85//150
f 91//151 92//151 95//151
f 91//152 95//152 94//152
f 79//153 81//153 75//153
f 79//154 75//154 73//154
f 76//155 78//155 84//155
f 76//156 84//156 82//156
f 85//157 87//157 93//157
f 85//158 93//158 91//158
f 94//159 96//159 90//159
f 94//160 90//160 88//160
f 74//161 75//161 87//161
f 74//162 87//162 86//162
f 89//163 90//163 78//163
f 89//164 78//164 77//164
f 92//165 93//165 81//165
f 92//166 81//166 80//166
f 83//167 84//167 96//167
f 83//168 96//168 95//168
f 75//169 74//169 73//169
f 76//170 77//170 78//170
f 79//171 80//171 81//171
f 84//172 83//172 82//172
f 85//173 86//173 87//173
f 90//174 89//174 88//174
f 93//175 92//175 91//175
f 94//176 95//176 96//176
g stone_004
usemtl stone_4
s off
f 100//177 106//177 103//177
f 100//178 103//178 97//178
f 109//179 115//179 118//179
f 109//180 118//180 112//180
f 98//181 110//181 113//181
f 98//182 113//182 101//182
f 107//183 119//183 116//183
f 107//184 116//184 104//184
f 105//185 117//185 111//185
f 105//186 111//186 99//186
f 102//187 114//187 120//187
f 102//188 120//188 108//188
f 97//189 98//189 101//189
f 97//190 101//190 100//190
f 106//191 107//191 104//191
f 106//192 104//192 103//192
f 112//193 113//193 110//193
f 112//194 110//194 109//194
f 115//195 116//195 119//195
f 115//196 119//196 118//196
f 103//197 105//197 99//197
f 103//198 99//198 97//198
f 100//199 102//199 108//199
f 100//200 108//200 106//200
f 109//201 111//201 117//201
f 109//202 117//202 115//202
f 118//203 120//203 114//203
f 118//204 114//204 112//204
f 98//205 99//205 111//205
f 98//206 111//206 110//206
f 113//207 114//207 102//207
f 113//208 102//208 101//208
f 116//209 117//209 105//209
f 116//210 105//210 104//210
f 107//211 108//211 120//211
f 107//212 120//212 119//212
f 99//213 98//213 97//213
f 100//214 101//214 102//214
f 103//215 104//215 105//215
f 108//216 107//216 106//216
f 109//217 110//217 111//217
f 114//218 113//218 112//218
f 117//219 116//219 115//219
f 118//220 119//220 120//220
g stone_005
usemtl stone_3
s off
f 124//221 130//221 127//221
f 124//222 127//222 121//222
f 133//223 139//223 142//223
f 133//224 142//224 136//224
f 122//225 134//225 137//225
f 122//226 137//226 125//226
f 131//227 143//227 140//227
f 131//228 140//228 128//228
f 129//229 141//229 135//229
f 129//230 135//230 123//230
f 126//231 138//231 144//231
f 126//232 144//232 132//232
f 121//233 122//233 125//233
f 121//234 125//234 124//234
f 130//235 131//235 128//235
f 130//236 128//236 127//236
f 136//237 137//237 134//237
f 136//238 134//238 133//238
f 139//239 140//239 143//239
f 139//240 143//240 142//240
f 127//241 129//241 123//241
f 127//242 123//242 121//242
f 124//243 126//243 132//243
f 124//244 132//244 130//244
f 133//245 135//245 141//245
f 133//246 141//246 139//246
f 142//247 144//247 138//247
f 142//248 138//248 136//248
f 122//249 123//249 135//249
f 122//250 135//250 134//250
f 137//251 138//251 126//251
f 137//252 126//252 125//252
f 140//253 141//253 129//253
f 140//254 129//254 128//254
f 131//255 132//255 144//255
f 131//256 144//256 143//256
f 123//257 122//257 121//257
f 124//258 125//258 126//258
f 127//259 128//259 129//259
f 132//260 131//260 130//260
f 133//261 134//261 135//261
f 138//262 137//262 136//262
f 141//263 140//263 139//263
f 142//264 143//264 144//264
g stone_006
usemtl stone_4
s off
f 148//265 154//265 151//265
f 148//266 151//266 145//266
f 157//267 163//267 166//267
f 157//268 166//268 160//268
f 146//269 158//269 161//269
f 146//270 161//270 149//270
f 155//271 167//271 164//271
f 155//272 164//272 152//272
f 153//273 165//273 159//273
f 153//274 159//274 147//274
f 150//275 162//275 168//275
f 150//276 168//276 156//276
f 145//277 146//277 149//277
f 145//278 149//278 148//278
f 154//279 155//279 152//279
f 154//280 152//280 151//280
f 160//281 161//281 158//281
f 160//282 158//282 157//282
f 163//283 164//283 167//283
f 163//284 167//284 166//284
f 151//285 153//285 147//285
f 151//286 147//286 145//286
f 148//287 150//287 156//287
f 148//288 156//288 154//288
f 157//289 159//289 165//289
f 157//290 165//290 163//290
f 166//291 168//291 162//291
f 166//292 162//292 160//292
f 146//293 147//293 159//293
f 146//294 159//294 158//294
f 161//295 162//295 150//295
f 161//296 150//296 149//296
f 164//297 165//297 153//297
f 164//298 153//298 152//298
f 155//299 156//299 168//299
f 155//300 168//300 167//300
f 147//301 146//301 145//301
f 148//302 149//302 150//302
f 151//303 152//303 153//303
f 156//304 155//304 154//304
f 157//305 158//305 159//305
f 162//306 161//306 160//306
f 165//307 164//307 163//307
f 166//308 167//308 168//308
g stone_007
usemtl stone_4
s off
f 172//309 178//309 175//309
f 172//310 175//310 169//310
f 181//311 187//311 190//311
f 181//312 190//312 184//312
f 170//313 182//313 185//313
f 170//314 185//314 173//314
f 179//315 191//315 188//315
f 179//316 188//316 176//316
f 177//317 189//317 183//317
f 177//318 183//318 171//318
f 174//319 186//319 192//319
f 174//320 192//320 180//320
f 169//321 170//321 173//321
f 169//322 173//322 172//322
f 178//323 179//323 176//323
f 178//324 176//324 175//324
f 184//325 185//325 182//325
f 184//326 182//326 181//326
f 187//327 188//327 191//327
f 187//328 191//328 190//328
f 175//329 177//329 171//329
f 175//330 171//330 169//330
f 172//331 174//331 180//331
f 172//332 180//332 178//332
f 181//333 183//333 189//333
f 181//334 189//334 187//334
f 190//335 192//335 186//335
f 190//336 186//336 184//336
f 170//337 171//337 183//337
f 170//338 183//338 182//338
f 185//339 186//339 174//339
f 185//340 174//340 173//340
f 188//341 189//341 177//341
f 188//342 177//342 176//342
f 179//343 180//343 192//343
f 179//344 192//344 191//344
f 171//345 170//345 169//345
f 172//346 173//346 174//346
f 175//347 176//347 177//347
f 180//348 179//348 178//348
f 181//349 182//349 183//349
f 186//350 185//350 184//350
f 189//351 188//351 187//351
f 190//352 191//352 192//352
g stone_008
usemtl stone_3
s off
f 196//353 202//353 199//353
f 196//354 199//354 193//354
f 205//355 211//355 214//355
f 205//356 214//356 208//356
f 194//357 206//357 209//357
f 194//358 209//358 197//358
f 203//359 215//359 212//359
f 203//360 212//360 200//360
f 201//361 213//361 207//361
f 201//362 207//362 195//362
f 198//363 210//363 216//363
f 198//364 216//364 204//364
f 193//365 194//365 197//365
f 193//366 197//366 196//366
f 202//367 203//367 200//367
f 202//368 200//368 199//368
f 208//369 209//369 206//369
f 208//370 206//370 205//370
f 211//371 212//371 215//371
f 211//372 215//372 214//372
f 199//373 201//373 195//373
f 199//374 195//374 193//374
f 196//375 198//375 204//375
f 196//376 204//376 202//376
f 205//377 207//377 213//377
f 205//378 213//378 211//378
f 214//379 216//379 210//379
f 214//380 210//380 208//380
f 194//381 195//381 207//381
f 194//382 207//382 206//382
f 209//383 210//383 198//383
f 209//384 198//384 197//384
f 212//385 213//385 201//385
f 212//386 201//386 200//386
f 203//387 204//387 216//387
f 203//388 216//388 215//388
f 195//389 194//389 193//389
f 196//390 197//390 198//390
f 199//391 200//391 201//391
f 204//392 203//392 202//392
f 205//393 206//393 207//393
f 210//394 209//394 208//394
f 213//395 212//395 211//395
f 214//396 215//396 216//396
g stone_009
usemtl stone_1
s off
f 220//397 226//397 223//397
f 220//398 223//398 217//398
f 229//399 235//399 238//399
f 229//400 238//400 232//400
f 218//401 230//401 233//401
f 218//402 233//402 221//402
f 227//403 239//403 236//403
f 227//404 236//404 224//404
f 225//405 237//405 231//405
f 225//406 231//406 219//406
f 222//407 234//407 240//407
f 222//408 240//408 228//408
f 217//409 218//409 221//409
f 217//410 221//410 220//410
f 226//411 227//411 224//411
f 226//412 224//412 223//412
f 232//413 233//413 230//413
f 232//414 230//414 229//414
f 235//415 236//415 239//415
f 235//416 239//416 238//416
f 223//417 225//417 219//417
f 223//418 219//418 217//418
f 220//419 222//419 228//419
f 220//420 228//420 226//420
f 229//421 231//421 237//421
f 229//422 237//422 235//422
f 238//423 240//423 234//423
f 238//424 234//424 232//424
f 218//425 219//425 231//425
f 218//426 231//426 230//426
f 233//427 234//427 222//427
f 233//428 222//428 221//428
f 236//429 237//429 225//429
f 236//430 225//430 224//430
f 227//431 228//431 240//431
f 227//432 240//432 239//432
f 219//433 218//433 217//433
f 220//434 221//434 222//434
f 223//435 224//435 225//435
f 228//436 227//436 226//436
f 229//437 230//437 231//437
f 234//438 233//438 232//438
f 237//439 236//439 235//439
f 238//440 239//440 240//440
g stone_010
usemtl stone_2
s off
f 244//441 250//441 247//441
f 244//442 247//442 241//442
f 253//443 259//443 262//443
f 253//444 262//444 256//444
f 242//445 254//445 257//445
f 242//446 257//446 245//446
f 251//447 263//447 260//447
f 251//448 260//448 248//448
f 249//449 261//449 255//449
f 249//450 255//450 243//450
f 246//451 258//451 264//451
f 246//452 264//452 252//452
f 241//453 242//453 245//453
f 241//454 245//454 244//454
f 250//455 251//455 248//455
f 250//456 248//456 247//456
f 256//457 257//457 254//457
f 256//458 254//458 253//458
f 259//459 260//459 263//459
f 259//460 263//460 262//460
f 247//461 249//461 243//461
f 247//462 243//462 241//462
f 244//463 246//463 252//463
f 244//464 252//464 250//464
f 253//465 255//465 261//465
f 253//466 261//466 259//466
f 262//467 264//467 258//467
f 262//468 258//468 256//468
f 242//469 243//469 255//469
f 242//470 255//470 254//470
f 257//471 258//471 246//471
f 257//472 246//472 245//472
f 260//473 261//473 249//473
f 260//474 249//474 248//474
f 251//475 252//475 264//475
f 251//476 264//476 263//476
f 243//477 242//477 241//477
f 244//478 245//478 246//478
f 247//479 248//479 249//479
f 252//480 251//480 250//480
f 253//481 254//481 255//481
f 258//482 257//482 256//482
f 261//483 260//483 259//483
f 262//484 263//484 264//484
g stone_011
usemtl stone_3
s off
f 268//485 274//485 271//485
f 268//486 271//486 265//486
f 277//487 283//487 286//487
f 277//488 286//488 280//488
f 266//489 278//489 281//489
f 266//490 281//490 269//490
f 275//491 287//491 284//491
f 275//492 284//492 272//492
f 273//493 285//493 279//493
f 273//494 279//494 267//494
f 270//495 282//495 288//495
f 270//496 288//496 276//496
f 265//497 266//497 269//497
f 265//498 269//498 268//498
f 274//499 275//499 272//499
f 274//500 272//500 271//500
f 280//501 281//501 278//501
f 280//502 278//502 277//502
f 283//503 284//503 287//503
f 283//504 287//504 286//504
f 271//505 273//505 267//505
f 271//506 267//506 265//506
f 268//507 270//507 276//507
f 268//508 276//508 274//508
f 277//509 279//509 285//509
f 277//510 285//510 283//510
f 286//511 288//511 282//511
f 286//512 282//512 280//512
f 266//513 267//513 279//513
f 266//514 279//514 278//514
f 281//515 282//515 270//515
f 281//516 270//516 269//516
f 284//517 285//517 273//517
f 284//518 273//518 272//518
f 275//519 276//519 288//519
f 275//520 288//520 287//520
f 267//521 266//521 265//521
f 268//522 269//522 270//522
f 271//523 272//523 273//523
f 276//524 275//524 274//524
f 277//525 278//525 279//525
f 282//526 281//526 280//526
f 285//527 284//527 283//527
f 286//528 287//528 288//528
g stone_012
usemtl stone_3
s off
f 292//529 298//529 295//529
f 292//530 295//530 289//530
f 301//531 307//531 310//531
f 301//532 310//532 304//532
f 290//533 302//533 305//533
f 290//534 305//534 293//534
f 299//535 311//535 308//535
f 299//536 308//536 296//536
f 297//537 309//537 303//537
f 297//538 303//538 291//538
f 294//539 306//539 312//539
f 294//540 312//540 300//540
f 289//541 290//541 293//541
f 289//542 293//542 292//542
f 298//543 299//543 296//543
f 298//544 296//544 295//544
f 304//545 305//545 302//545
f 304//546 302//546 301//546
f 307//547 308//547 311//547
f 307//548 311//548 310//548
f 295//549 297//549 291//549
f 295//550 291//550 289//550
f 292//551 294//551 300//551
f 292//552 300//552 298//552
f 301//553 303//553 309//553
f 301//554 309//554 307//554
f 310//555 312//555 306//555
f 310//556 306//556 304//556
f 290//557 291//557 303//557
f 290//558 303//558 302//558
f 305//559 306//559 294//559
f 305//560 294//560 293//560
f 308//561 309//561 297//561
f 308//562 297//562 296//562
f 299//563 300//563 312//563
f 299//564 312//564 311//564
f 291//565 290//565 289//565
f 292//566 293//566 294//566
f 295//567 296//567 297//567
f 300//568 299//568 298//568
f 301//569 302//569 303//569
f 306//570 305//570 304//570
f 309//571 308//571 307//571
f 310//572 311//572 312//572
g stone_013
usemtl stone_2
s off
f 316//573 322//573 319//573
f 316//574 319//574 313//574
f 325//575 331//575 334//575
f 325//576 334//576 328//576
f 314//577 326//577 329//577
f 314//578 329//578 317//578
f 323//579 335//579 332//579
f 323//580 332//580 320//580
f 321//581 333//581 327//581
f 321//582 327//582 315//582
f 318//583 330//583 336//583
f 318//584 336//584 324//584
f 313//585 314//585 317//585
f 313//586 317//586 316//586
f 322//587 323//587 320//587
f 322//588 320//588 319//588
f 328//589 329//589 326//589
f 328//590 326//590 325//590
f 331//591 332//591 335//591
f 331//592 335//592 334//592
f 319//593 321//593 315//593
f 319//594 315//594 313//594
f 316//595 318//595 324//595
f 316//596 324//596 322//596
f 325//597 327//597 333//597
f 325//598 333//598 331//598
f 334//599 336//599 330//599
f 334//600 330//600 328//600
f 314//601 315//601 327//601
f 314//602 327//602 326//602
f 329//603 330//603 318//603
f 329//604 318//604 317//604
f 332//605 333//605 321//605
f 332//606 321//606 320//606
f 323//607 324//607 336//607
f 323//608 336//608 335//608
f 315//609 314//609 313//609
f 316//610 317//610 318//610
f 319//611 320//611 321//611
f 324//612 323//612 322//612
f 325//613 326//613 327//613
f 330//614 329//614 328//614
f 333//615 332//615 331//615
f 334//616 335//616 336//616
g stone_014
usemtl stone_4
s off
f 340//617 346//617 343//617
f 340//618 343//618 337//618
f 349//619 355//619 358//619
f 349//620 358//620 352//620
f 338//621 350//621 353//621
f 338//622 353//622 341//622
f 347//623 359//623 356//623
f 347//624 356//624 344//624
f 345//625 357//625 351//625
f 345//626 351//626 339//626
f 342//627 354//627 360//627
f 342//628 360//628 348//628
f 337//629 338//629 341//629
f 337//630 341//630 340//630
f 346//631 347//631 344//631
f 346//632 344//632 343//632
f 352//633 353//633 350//633
f 352//634 350//634 349//634
f 355//635 356//635 359//635
f 355//636 359//636 358//636
f 343//637 345//637 339//637
f 343//638 339//638 337//638
f 340//639 342//639 348//639
f 340//640 348//640 346//640
f 349//641 351//641 357//641
f 349//642 357//642 355//642
f 358//643 360//643 354//643
f 358//644 354//644 352//644
f 338//645 339//645 351//645
f 338//646 351//646 350//646
f 353//647 354//647 342//647
f 353//648 342//648 341//648
f 356//649 357//649 345//649
f 356//650 345//650 344//650
f 347//651 348//651 360//651
f 347//652 360//652 359//652
f 339//653 338//653 337//653
f 340//654 341//654 342//654
f 343//655 344//655 345//655
f 348//656 347//656 346//656
f 349//657 350//657 351//657
f 354//658 353//658 352//658
f 357//659 356//659 355//659
f 358//660 359//660 360//660
g stone_015
usemtl stone_0
s off
f 364//661 370//661 367//661
f 364//662 367//662 361//662
f 373//663 379//663 382//663
f 373//664 382//664 376//664
f 362//665 374//665 377//665
f 362//666 377//666 365//666
f 371//667 383//667 380//667
f 371//668 380//668 368//668
f 369//669 381//669 375//669
f 369//670 375//670 363//670
f 366//671 378//671 384//671
f 366//672 384//672 372//672
f 361//673 362//673 365//673
f 361//674 365//674 364//674
f 370//675 371//675 368//675
f 370//676 368//676 367//676
f 376//677 377//677 374//677
f 376//678 374//678 373//678
f 379//679 380//679 383//679
f 379//680 383//680 382//680
f 367//681 369//681 363//681
f 367//682 363//682 361//682
f 364//683 366//683 372//683
f 364//684 372//684 370//684
f 373//685 375//685 381//685
f 373//686 381//686 379//686
f 382//687 384//687 378//687
f 382//688 378//688 376//688
f 362//689 363//689 375//689
f 362//690 375//690 374//690
f 377//691 378//691 366//691
f 377//692 366//692 365//692
f 380//693 381//693 369//693
f 380//694 369//694 368//694
f 371//695 372//695 384//695
f 371//696 384//696 383//696
f 363//697 362//697 361//697
f 364//698 365//698 366//698
f 367//699 368//699 369//699
f 372//700 371//700 370//700
f 373//701 374//701 375//701
f 378//702 377//702 376//702
f 381//703 380//703 379//703
f 382//704 383//704 384//704
g stone_016
usemtl stone_4
s off
f 388//705 394//705 391//705
f 388//706 391//706 385//706
f 397//707 403//707 406//707
f 397//708 406//708 400//708
f 386//709 398//709 401//709
f 386//710 401//710 389//710
f 395//711 407//711 404//711
f 395//712 404//712 392//712
f 393//713 405//713 399//713
f 393//714 399//714 387//714
f 390//715 402//715 408//715
f 390//716 408//716 396//716
f 385//717 386//717 389//717
f 385//718 389//718 388//718
f 394//719 395//719 392//719
f 394//720 392//720 391//720
f 400//721 401//721 398//721
f 400//722 398//722 397//722
f 403//723 404//723 407//723
f 403//724 407//724 406//724
f 391//725 393//725 387//725
f 391//726 387//726 385//726
f 388//727 390//727 396//727
f 388//728 396//728 394//728
f 397//729 399//729 405//729
f 397//730 405//730 403//730
f 406//731 408//731 402//731
f 406//732 402//732 400//732
f 386//733 387//733 399//733
f 386//734 399//734 398//734
f 401//735 402//735 390//735
f 401//736 390//736 389//736
f 404//737 405//737 393//737
f 404//738 393//738 392//738
f 395//739 396//739 408//739
f 395//740 408//740 407//740
f 387//741 386//741 385//741
f 388//742 389//742 390//742
f 391//743 392//743 393//743
f 396//744 395//744 394//744
f 397//745 398//745 399//745
f 402//746 401//746 400//746
f 405//747 404//747 403//747
f 406//748 407//748 408//748
g stone_017
usemtl stone_3
s off
f 412//749 418//749 415//749
f 412//750 415//750 409//750
f 421//751 427//751 430//751
f 421//752 430//752 424//752
f 410//753 422//753 425//753
f 410//754 425//754 413//754
f 419//755 431//755 428//755
f 419//756 428//756 416//756
f 417//757 429//757 423//757
f 417//758 423//758 411//758
f 414//759 426//759 432//759
f 414//760 432//760 420//760
f 409//761 410//761 413//761
f 409//762 413//762 412//762
f 418//763 419//763 416//763
f 418//764 416//764 415//764
f 424//765 425//765 422//765
f 424//766 422//766 421//766
f 427//767 428//767 431//767
f 427//768 431//768 430//768
f 415//769 417//769 411//769
f 415//770 411//770 409//770
f 412//771 414//771 420//771
f 412//772 420//772 418//772
f 421//773 423//773 429//773
f 421//774 429//774 427//774
f 430//775 432//775 426//775
f 430//776 426//776 424//776
f 410//777 411//777 423//777
f 410//778 423//778 422//778
f 425//779 426//779 414//779
f 425//780 414//780 413//780
f 428//781 429//781 417//781
f 428//782 417//782 416//782
f 419//783 420//783 432//783
f 419//784 432//784 431//784
f 411//785 410//785 409//785
f 412//786 413//786 414//786
f 415//787 416//787 417//787
f 420//788 419//788 418//788
f 421//789 422//789 423//789
f 426//790 425//790 424//790
f 429//791 428//791 427//791
f 430//792 431//792 432//792
g stone_018
usemtl stone_1
s off
f 436//793 442//793 439//793
f 436//794 439//794 433//794
f 445//795 451//795 454//795
f 445//796 454//796 448//796
f 434//797 446//797 449//797
f 434//798 449//798 437//798
f 443//799 455//799 452//799
f 443//800 452//800 440//800
f 441//801 453//801 447//801
f 441//802 447//802 435//802
f 438//803 450//803 456//803
f 438//804 456//804 444//804
f 433//805 434//805 437//805
f 433//806 437//806 436//806
f 442//807 443//807 440//807
f 442//808 440//808 439//808
f 448//809 449//809 446//809
f 448//810 446//810 445//810
f 451//811 452//811 455//811
f 451//812 455//812 454//812
f 439//813 441//813 435//813
f 439//814 435//814 433//814
f 436//815 438//815 444//815
f 436//816 444//816 442//816
f 445//817 447//817 453//817
f 445//818 453//818 451//818
f 454//819 456//819 450//819
f 454//820 450//820 448//820
f 434//821 435//821 447//821
f 434//822 447//822 446//822
f 449//823 450//823 438//823
f 449//824 438//824 437//824
f 452//825 453//825 441//825
f 452//826 441//826 440//826
f 443//827 444//827 456//827
f 443//828 456//828 455//828
f 435//829 434//829 433//829
f 436//830 437//830 438//830
f 439//831 440//831 441//831
f 444//832 443//832 442//832
f 445//833 446//833 447//833
f 450//834 449//834 448//834
f 453//835 452//835 451//835
f 454//836 455//836 456//836
g stone_019
usemtl stone_2
s off
f 460//837 466//837 463//837
f 460//838 463//838 457//838
f 469//839 475//839 478//839
f 469//840 478//840 472//840
f 458//841 470//841 473//841
f 458//842 473//842 461//842
f 467//843 479//843 476//843
f 467//844 476//844 464//844
f 465//845 477//845 471//845
f 465//846 471//846 459//846
f 462//847 474//847 480//847
f 462//848 480//848 468//848
f 457//849 458//849 461//849
f 457//850 461//850 460//850
f 466//851 467//851 464//851
f 466//852 464//852 463//852
f 472//853 473//853 470//853
f 472//854 470//854 469//854
f 475//855 476//855 479//855
f 475//856 479//856 478//856
f 463//857 465//857 459//857
f 463//858 459//858 457//858
f 460//859 462//859 468//859
f 460//860 468//860 466//860
f 469//861 471//861 477//861
f 469//862 477//862 475//862
f 478//863 480//863 474//863
f 478//864 474//864 472//864
f 458//865 459//865 471//865
f 458//866 471//866 470//866
f 473//867 474//867 462//867
f 473//868 462//868 461//868
f 476//869 477//869 465//869
f 476//870 465//870 464//870
f 467//871 468//871 480//871
f 467//872 480//872 479//872
f 459//873 458//873 457//873
f 460//874 461//874 462//874
f 463//875 464//875 465//875
f 468//876 467//876 466//876
f 469//877 470//877 471//877
f 474//878 473//878 472//878
f 477//879 476//879 475//879
f 478//880 479//880 480//880
g stone_020
usemtl stone_2
s off
f 484//881 490//881 487//881
f 484//882 487//882 481//882
f 493//883 499//883 502//883
f 493//884 502//884 496//884
f 482//885 494//885 497//885
f 482//886 497//886 485//886
f 491//887 503//887 500//887
f 491//888 500//888 488//888
f 489//889 501//889 495//889
f 489//890 495//890 483//890
f 486//891 498//891 504//891
f 486//892 504//892 492//892
f 481//893 482//893 485//893
f 481//894 485//894 484//894
f 490//895 491//895 488//895
f 490//896 488//896 487//896
f 496//897 497//897 494//897
f 496//898 494//898 493//898
f 499//899 500//899 503//899
f 499//900 503//900 502//900
f 487//901 489//901 483//901
f 487//902 483//902 481//902
f 484//903 486//903 492//903
f 484//904 492//904 490//904
f 493//905 495//905 501//905
f 493//906 501//906 499//906
f 502//907 504//907 498//907
f 502//908 498//908 496//908
f 482//909 483//909 495//909
f 482//910 495//910 494//910
f 497//911 498//911 486//911
f 497//912 486//912 485//912
f 500//913 501//913 489//913
f 500//914 489//914 488//914
f 491//915 492//915 504//915
f 491//916 504//916 503//916
f 483//917 482//917 481//917
f 484//918 485//918 486//918
f 487//919 488//919 489//919
f 492//920 491//920 490//920
f 493//921 494//921 495//921
f 498//922 497//922 496//922
f 501//923 500//923 499//923
f 502//924 503//924 504//924
g stone_021
usemtl stone_4
s off
f 508//925 514//925 511//925
f 508//926 511//926 505//926
f 517//927 523//927 526//927
f 517//928 526//928 520//928
f 506//929 518//929 521//929
f 506//930 521//930 509//930
f 515//931 527//931 524//931
f 515//932 524//932 512//932
f 513//933 525//933 519//933
f 513//934 519//934 507//934
f 510//935 522//935 528//935
f 510//936 528//936 516//936
f 505//937 506//937 509//937
f 505//938 509//938 508//938
f 514//939 515//939 512//939
f 514//940 512//940 511//940
f 520//941 521//941 518//941
f 520//942 518//942 517//942
f 523//943 524//943 527//943
f 523//944 527//944 526//944
f 511//945 513//945 507//945
f 511//946 507//946 505//946
f 508//947 510//947 516//947
f 508//948 516//948 514//948
f 517//949 519//949 525//949
f 517//950 525//950 523//950
f 526//951 528//951 522//951
f 526//952 522//952 520//952
f 506//953 507//953 519//953
f 506//954 519//954 518//954
f 521//955 522//955 510//955
f 521//956 510//956 509//956
f 524//957 525//957 513//957
f 524//958 513//958 512//958
f 515//959 516//959 528//959
f 515//960 528//960 527//960
f 507//961 506//961 505//961
f 508//962 509//962 510//962
f 511//963 512//963 513//963
f 516//964 515//964 514//964
f 517//965 518//965 519//965
f 522//966 521//966 520//966
f 525//967 524//967 523//967
f 526//968 527//968 528//968
g stone_022
usemtl stone_2
s off
f 532//969 538//969 535//969
f 532//970 535//970 529//970
f 541//971 547//971 550//971
f 541//972 550//972 544//972
f 530//973 542//973 545//973
f 530//974 545//974 533//974
f 539//975 551//975 548//975
f 539//976 548//976 536//976
f 537//977 549//977 543//977
f 537//978 543//978 531//978
f 534//979 546//979 552//979
f 534//980 552//980 540//980
f 529//981 530//981 533//981
f 529//982 533//982 532//982
f 538//983 539//983 536//983
f 538//984 536//984 535//984
f 544//985 545//985 542//985
f 544//986 542//986 541//986
f 547//987 548//987 551//987
f 547//988 551//988 550//988
f 535//989 537//989 531//989
f 535//990 531//990 529//990
f 532//991 534//991 540//991
f 532//992 540//992 538//992
f 541//993 543//993 549//993
f 541//994 549//994 547//994
f 550//995 552//995 546//995
f 550//996 546//996 544//996
f 530//997 531//997 543//997
f 530//998 543//998 542//998
f 545//999 546//999 534//999
f 545//1000 534//1000 533//1000
f 548//1001 549//1001 537//1001
f 548//1002 537//1002 536//1002
f 539//1003 540//1003 552//1003
f 539//1004 552//1004 551//1004
f 531//1005 530//1005 529//1005
f 532//1006 533//1006 534//1006
f 535//1007 536//1007 537//1007
f 540//1008 539//1008 538//1008
f 541//1009 542//1009 543//1009
f 546//1010 545//1010 544//1010
f 549//1011 548//1011 547//1011
f 550//1012 551//1012 552//1012
g stone_023
usemtl stone_3
s off
f 556//1013 562//1013 559//1013
f 556//1014 559//1014 553//1014
f 565//1015 571//1015 574//1015
f 565//1016 574//1016 568//1016
f 554//1017 566//1017 569//1017
f 554//1018 569//1018 557//1018
f 563//1019 575//1019 572//1019
f 563//1020 572//1020 560//1020
f 561//1021 573//1021 567//1021
f 561//1022 567//1022 555//1022
f 558//1023 570//1023 576//1023
f 558//1024 576//1024 564//1024
f 553//1025 554//1025 557//1025
f 553//1026 557//1026 556//1026
f 562//1027 563//1027 560//1027
f 562//1028 560//1028 559//1028
f 568//1029 569//1029 566//1029
f 568//1030 566//1030 565//1030
f 571//1031 572//1031 575//1031
f 571//1032 575//1032 574//1032
f 559//1033 561//1033 555//1033
f 559//1034 555//1034 553//1034
f 556//1035 558//1035 564//1035
f 556//1036 564//1036 562//1036
f 565//1037 567//1037 573//1037
f 565//1038 573//1038 571//1038
f 574//1039 576//1039 570//1039
f 574//1040 570//1040 568//1040
f 554//1041 555//1041 567//1041
f 554//1042 567//1042 566//1042
f 569//1043 570//1043 558//1043
f 569//1044 558//1044 557//1044
f 572//1045 573//1045 561//1045
f 572//1046 561//1046 560//1046
f 563//1047 564//1047 576//1047
f 563//1048 576//1048 575//1048
f 555//1049 554//1049 553//1049
f 556//1050 557//1050 558//1050
f 559//1051 560//1051 561//1051
f 564//1052 563//1052 562//1052
f 565//1053 566//1053 567//1053
f 570//1054 569//1054 568//1054
f 573//1055 572//1055 571//1055
f 574//1056 575//1056 576//1056
g stone_024
usemtl stone_1
s off
f 580//1057 586//1057 583//1057
f 580//1058 583//1058 577//1058
f 589//1059 595//1059 598//1059
f 589//1060 598//1060 592//1060
f 578//1061 590//1061 593//1061
f 578//1062 593//1062 581//1062
f 587//1063 599//1063 596//1063
f 587//1064 596//1064 584//1064
f 585//1065 597//1065 591//1065
f 585//1066 591//1066 579//1066
f 582//1067 594//1067 600//1067
f 582//1068 600//1068 588//1068
f 577//1069 578//1069 581//1069
f 577//1070 581//1070 580//1070
f 586//1071 587//1071 584//1071
f 586//1072 584//1072 583//1072
f 592//1073 593//1073 590//1073
f 592//1074 590//1074 589//1074
f 595//1075 596//1075 599//1075
f 595//1076 599//1076 598//1076
f 583//1077 585//1077 579//1077
f 583//1078 579//1078 577//1078
f 580//1079 582//1079 588//1079
f 580//1080 588//1080 586//1080
f 589//1081 591//1081 597//1081
f 589//1082 597//1082 595//1082
f 598//1083 600//1083 594//1083
f 598//1084 594//1084 592//1084
f 578//1085 579//1085 591//1085
f 578//1086 591//1086 590//1086
f 593//1087 594//1087 582//1087
f 593//1088 582//1088 581//1088
f 596//1089 597//1089 585//1089
f 596//1090 585//1090 584//1090
f 587//1091 588//1091 600//1091
f 587//1092 600//1092 599//1092
f 579//1093 578//1093 577//1093
f 580//1094 581//1094 582//1094
f 583//1095 584//1095 585//1095
f 588//1096 587//1096 586//1096
f 589//1097 590//1097 591//1097
f 594//1098 593//1098 592//1098
f 597//1099 596//1099 595//1099
f 598//1100 599//1100 600//1100
