# Ruins concept asset; Y up; units: meters
mtllib ruins.mtl
o ruin_dry_fountain
v 0.000000 0.000000 0.000000
v 2.115000 0.000000 0.000000
v 2.011485 0.000000 0.653571
v 1.711071 0.000000 1.243166
v 1.243166 0.000000 1.711071
v 0.653571 0.000000 2.011485
v 0.000000 0.000000 2.115000
v -0.653571 0.000000 2.011485
v -1.243166 0.000000 1.711071
v -1.711071 0.000000 1.243166
v -2.011485 0.000000 0.653571
v -2.115000 0.000000 0.000000
v -2.011485 0.000000 -0.653571
v -1.711071 0.000000 -1.243166
v -1.243166 0.000000 -1.711071
v -0.653571 0.000000 -2.011485
v -0.000000 0.000000 -2.115000
v 0.653571 0.000000 -2.011485
v 1.243166 0.000000 -1.711071
v 1.711071 0.000000 -1.243166
v 2.011485 0.000000 -0.653571
v 2.140000 0.025000 0.000000
v 2.035261 0.025000 0.661296
v 1.731296 0.025000 1.257860
v 1.257860 0.025000 1.731296
v 0.661296 0.025000 2.035261
v 0.000000 0.025000 2.140000
v -0.661296 0.025000 2.035261
v -1.257860 0.025000 1.731296
v -1.731296 0.025000 1.257860
v -2.035261 0.025000 0.661296
v -2.140000 0.025000 0.000000
v -2.035261 0.025000 -0.661296
v -1.731296 0.025000 -1.257860
v -1.257860 0.025000 -1.731296
v -0.661296 0.025000 -2.035261
v -0.000000 0.025000 -2.140000
v 0.661296 0.025000 -2.035261
v 1.257860 0.025000 -1.731296
v 1.731296 0.025000 -1.257860
v 2.035261 0.025000 -0.661296
v 2.140000 0.175000 0.000000
v 2.035261 0.175000 0.661296
v 1.731296 0.175000 1.257860
v 1.257860 0.175000 1.731296
v 0.661296 0.175000 2.035261
v 0.000000 0.175000 2.140000
v -0.661296 0.175000 2.035261
v -1.257860 0.175000 1.731296
v -1.731296 0.175000 1.257860
v -2.035261 0.175000 0.661296
v -2.140000 0.175000 0.000000
v -2.035261 0.175000 -0.661296
v -1.731296 0.175000 -1.257860
v -1.257860 0.175000 -1.731296
v -0.661296 0.175000 -2.035261
v -0.000000 0.175000 -2.140000
v 0.661296 0.175000 -2.035261
v 1.257860 0.175000 -1.731296
v 1.731296 0.175000 -1.257860
v 2.035261 0.175000 -0.661296
v 2.115000 0.200000 0.000000
v 2.011485 0.200000 0.653571
v 1.711071 0.200000 1.243166
v 1.243166 0.200000 1.711071
v 0.653571 0.200000 2.011485
v 0.000000 0.200000 2.115000
v -0.653571 0.200000 2.011485
v -1.243166 0.200000 1.711071
v -1.711071 0.200000 1.243166
v -2.011485 0.200000 0.653571
v -2.115000 0.200000 0.000000
v -2.011485 0.200000 -0.653571
v -1.711071 0.200000 -1.243166
v -1.243166 0.200000 -1.711071
v -0.653571 0.200000 -2.011485
v -0.000000 0.200000 -2.115000
v 0.653571 0.200000 -2.011485
v 1.243166 0.200000 -1.711071
v 1.711071 0.200000 -1.243166
v 2.011485 0.200000 -0.653571
v 0.000000 0.200000 0.000000
v 0.000000 0.208000 0.000000
v 1.960000 0.208000 0.000000
v 1.864071 0.208000 0.605673
v 1.585673 0.208000 1.152059
v 1.152059 0.208000 1.585673
v 0.605673 0.208000 1.864071
v 0.000000 0.208000 1.960000
v -0.605673 0.208000 1.864071
v -1.152059 0.208000 1.585673
v -1.585673 0.208000 1.152059
v -1.864071 0.208000 0.605673
v -1.960000 0.208000 0.000000
v -1.864071 0.208000 -0.605673
v -1.585673 0.208000 -1.152059
v -1.152059 0.208000 -1.585673
v -0.605673 0.208000 -1.864071
v -0.000000 0.208000 -1.960000
v 0.605673 0.208000 -1.864071
v 1.152059 0.208000 -1.585673
v 1.585673 0.208000 -1.152059
v 1.864071 0.208000 -0.605673
v 2.000000 0.250000 0.000000
v 1.902113 0.250000 0.618034
v 1.618034 0.250000 1.175571
v 1.175571 0.250000 1.618034
v 0.618034 0.250000 1.902113
v 0.000000 0.250000 2.000000
v -0.618034 0.250000 1.902113
v -1.175571 0.250000 1.618034
v -1.618034 0.250000 1.175571
v -1.902113 0.250000 0.618034
v -2.000000 0.250000 0.000000
v -1.902113 0.250000 -0.618034
v -1.618034 0.250000 -1.175571
v -1.175571 0.250000 -1.618034
v -0.618034 0.250000 -1.902113
v -0.000000 0.250000 -2.000000
v 0.618034 0.250000 -1.902113
v 1.175571 0.250000 -1.618034
v 1.618034 0.250000 -1.175571
v 1.902113 0.250000 -0.618034
v 2.000000 0.700000 0.000000
v 1.902113 0.700000 0.618034
v 1.618034 0.700000 1.175571
v 1.175571 0.700000 1.618034
v 0.618034 0.700000 1.902113
v 0.000000 0.700000 2.000000
v -0.618034 0.700000 1.902113
v -1.175571 0.700000 1.618034
v -1.618034 0.700000 1.175571
v -1.902113 0.700000 0.618034
v -2.000000 0.700000 0.000000
v -1.902113 0.700000 -0.618034
v -1.618034 0.700000 -1.175571
v -1.175571 0.700000 -1.618034
v -0.618034 0.700000 -1.902113
v -0.000000 0.700000 -2.000000
v 0.618034 0.700000 -1.902113
v 1.175571 0.700000 -1.618034
v 1.618034 0.700000 -1.175571
v 1.902113 0.700000 -0.618034
v 2.080000 0.730000 0.000000
v 1.978198 0.730000 0.642755
v 1.682755 0.730000 1.222593
v 1.222593 0.730000 1.682755
v 0.642755 0.730000 1.978198
v 0.000000 0.730000 2.080000
v -0.642755 0.730000 1.978198
v -1.222593 0.730000 1.682755
v -1.682755 0.730000 1.222593
v -1.978198 0.730000 0.642755
v -2.080000 0.730000 0.000000
v -1.978198 0.730000 -0.642755
v -1.682755 0.730000 -1.222593
v -1.222593 0.730000 -1.682755
v -0.642755 0.730000 -1.978198
v -0.000000 0.730000 -2.080000
v 0.642755 0.730000 -1.978198
v 1.222593 0.730000 -1.682755
v 1.682755 0.730000 -1.222593
v 1.978198 0.730000 -0.642755
v 2.080000 0.830000 0.000000
v 1.978198 0.830000 0.642755
v 1.682755 0.830000 1.222593
v 1.222593 0.830000 1.682755
v 0.642755 0.830000 1.978198
v 0.000000 0.830000 2.080000
v -0.642755 0.830000 1.978198
v -1.222593 0.830000 1.682755
v -1.682755 0.830000 1.222593
v -1.978198 0.830000 0.642755
v -2.080000 0.830000 0.000000
v -1.978198 0.830000 -0.642755
v -1.682755 0.830000 -1.222593
v -1.222593 0.830000 -1.682755
v -0.642755 0.830000 -1.978198
v -0.000000 0.830000 -2.080000
v 0.642755 0.830000 -1.978198
v 1.222593 0.830000 -1.682755
v 1.682755 0.830000 -1.222593
v 1.978198 0.830000 -0.642755
v 2.040000 0.860000 0.000000
v 1.940155 0.860000 0.630395
v 1.650395 0.860000 1.199082
v 1.199082 0.860000 1.650395
v 0.630395 0.860000 1.940155
v 0.000000 0.860000 2.040000
v -0.630395 0.860000 1.940155
v -1.199082 0.860000 1.650395
v -1.650395 0.860000 1.199082
v -1.940155 0.860000 0.630395
v -2.040000 0.860000 0.000000
v -1.940155 0.860000 -0.630395
v -1.650395 0.860000 -1.199082
v -1.199082 0.860000 -1.650395
v -0.630395 0.860000 -1.940155
v -0.000000 0.860000 -2.040000
v 0.630395 0.860000 -1.940155
v 1.199082 0.860000 -1.650395
v 1.650395 0.860000 -1.199082
v 1.940155 0.860000 -0.630395
v 1.730000 0.860000 0.000000
v 1.645328 0.860000 0.534599
v 1.399599 0.860000 1.016868
v 1.016868 0.860000 1.399599
v 0.534599 0.860000 1.645328
v 0.000000 0.860000 1.730000
v -0.534599 0.860000 1.645328
v -1.016868 0.860000 1.399599
v -1.399599 0.860000 1.016868
v -1.645328 0.860000 0.534599
v -1.730000 0.860000 0.000000
v -1.645328 0.860000 -0.534599
v -1.399599 0.860000 -1.016868
v -1.016868 0.860000 -1.399599
v -0.534599 0.860000 -1.645328
v -0.000000 0.860000 -1.730000
v 0.534599 0.860000 -1.645328
v 1.016868 0.860000 -1.399599
v 1.399599 0.860000 -1.016868
v 1.645328 0.860000 -0.534599
v 1.690000 0.820000 0.000000
v 1.607286 0.820000 0.522239
v 1.367239 0.820000 0.993357
v 0.993357 0.820000 1.367239
v 0.522239 0.820000 1.607286
v 0.000000 0.820000 1.690000
v -0.522239 0.820000 1.607286
v -0.993357 0.820000 1.367239
v -1.367239 0.820000 0.993357
v -1.607286 0.820000 0.522239
v -1.690000 0.820000 0.000000
v -1.607286 0.820000 -0.522239
v -1.367239 0.820000 -0.993357
v -0.993357 0.820000 -1.367239
v -0.522239 0.820000 -1.607286
v -0.000000 0.820000 -1.690000
v 0.522239 0.820000 -1.607286
v 0.993357 0.820000 -1.367239
v 1.367239 0.820000 -0.993357
v 1.607286 0.820000 -0.522239
v 1.690000 0.740000 0.000000
v 1.607286 0.740000 0.522239
v 1.367239 0.740000 0.993357
v 0.993357 0.740000 1.367239
v 0.522239 0.740000 1.607286
v 0.000000 0.740000 1.690000
v -0.522239 0.740000 1.607286
v -0.993357 0.740000 1.367239
v -1.367239 0.740000 0.993357
v -1.607286 0.740000 0.522239
v -1.690000 0.740000 0.000000
v -1.607286 0.740000 -0.522239
v -1.367239 0.740000 -0.993357
v -0.993357 0.740000 -1.367239
v -0.522239 0.740000 -1.607286
v -0.000000 0.740000 -1.690000
v 0.522239 0.740000 -1.607286
v 0.993357 0.740000 -1.367239
v 1.367239 0.740000 -0.993357
v 1.607286 0.740000 -0.522239
v 1.730000 0.700000 0.000000
v 1.645328 0.700000 0.534599
v 1.399599 0.700000 1.016868
v 1.016868 0.700000 1.399599
v 0.534599 0.700000 1.645328
v 0.000000 0.700000 1.730000
v -0.534599 0.700000 1.645328
v -1.016868 0.700000 1.399599
v -1.399599 0.700000 1.016868
v -1.645328 0.700000 0.534599
v -1.730000 0.700000 0.000000
v -1.645328 0.700000 -0.534599
v -1.399599 0.700000 -1.016868
v -1.016868 0.700000 -1.399599
v -0.534599 0.700000 -1.645328
v -0.000000 0.700000 -1.730000
v 0.534599 0.700000 -1.645328
v 1.016868 0.700000 -1.399599
v 1.399599 0.700000 -1.016868
v 1.645328 0.700000 -0.534599
v 1.730000 0.340000 0.000000
v 1.645328 0.340000 0.534599
v 1.399599 0.340000 1.016868
v 1.016868 0.340000 1.399599
v 0.534599 0.340000 1.645328
v 0.000000 0.340000 1.730000
v -0.534599 0.340000 1.645328
v -1.016868 0.340000 1.399599
v -1.399599 0.340000 1.016868
v -1.645328 0.340000 0.534599
v -1.730000 0.340000 0.000000
v -1.645328 0.340000 -0.534599
v -1.399599 0.340000 -1.016868
v -1.016868 0.340000 -1.399599
v -0.534599 0.340000 -1.645328
v -0.000000 0.340000 -1.730000
v 0.534599 0.340000 -1.645328
v 1.016868 0.340000 -1.399599
v 1.399599 0.340000 -1.016868
v 1.645328 0.340000 -0.534599
v 0.000000 0.340000 0.000000
v 0.000000 0.348000 0.000000
v 0.455000 0.348000 0.000000
v 0.394042 0.348000 0.227500
v 0.227500 0.348000 0.394042
v 0.000000 0.348000 0.455000
v -0.227500 0.348000 0.394042
v -0.394042 0.348000 0.227500
v -0.455000 0.348000 0.000000
v -0.394042 0.348000 -0.227500
v -0.227500 0.348000 -0.394042
v -0.000000 0.348000 -0.455000
v 0.227500 0.348000 -0.394042
v 0.394042 0.348000 -0.227500
v 0.480000 0.373000 0.000000
v 0.415692 0.373000 0.240000
v 0.240000 0.373000 0.415692
v 0.000000 0.373000 0.480000
v -0.240000 0.373000 0.415692
v -0.415692 0.373000 0.240000
v -0.480000 0.373000 0.000000
v -0.415692 0.373000 -0.240000
v -0.240000 0.373000 -0.415692
v -0.000000 0.373000 -0.480000
v 0.240000 0.373000 -0.415692
v 0.415692 0.373000 -0.240000
v 0.480000 0.503000 0.000000
v 0.415692 0.503000 0.240000
v 0.240000 0.503000 0.415692
v 0.000000 0.503000 0.480000
v -0.240000 0.503000 0.415692
v -0.415692 0.503000 0.240000
v -0.480000 0.503000 0.000000
v -0.415692 0.503000 -0.240000
v -0.240000 0.503000 -0.415692
v -0.000000 0.503000 -0.480000
v 0.240000 0.503000 -0.415692
v 0.415692 0.503000 -0.240000
v 0.455000 0.528000 0.000000
v 0.394042 0.528000 0.227500
v 0.227500 0.528000 0.394042
v 0.000000 0.528000 0.455000
v -0.227500 0.528000 0.394042
v -0.394042 0.528000 0.227500
v -0.455000 0.528000 0.000000
v -0.394042 0.528000 -0.227500
v -0.227500 0.528000 -0.394042
v -0.000000 0.528000 -0.455000
v 0.227500 0.528000 -0.394042
v 0.394042 0.528000 -0.227500
v 0.000000 0.528000 0.000000
v 0.000000 0.536000 0.000000
v 0.275000 0.536000 0.000000
v 0.238157 0.536000 0.137500
v 0.137500 0.536000 0.238157
v 0.000000 0.536000 0.275000
v -0.137500 0.536000 0.238157
v -0.238157 0.536000 0.137500
v -0.275000 0.536000 0.000000
v -0.238157 0.536000 -0.137500
v -0.137500 0.536000 -0.238157
v -0.000000 0.536000 -0.275000
v 0.137500 0.536000 -0.238157
v 0.238157 0.536000 -0.137500
v 0.300000 0.561000 0.000000
v 0.259808 0.561000 0.150000
v 0.150000 0.561000 0.259808
v 0.000000 0.561000 0.300000
v -0.150000 0.561000 0.259808
v -0.259808 0.561000 0.150000
v -0.300000 0.561000 0.000000
v -0.259808 0.561000 -0.150000
v -0.150000 0.561000 -0.259808
v -0.000000 0.561000 -0.300000
v 0.150000 0.561000 -0.259808
v 0.259808 0.561000 -0.150000
v 0.300000 1.381000 0.000000
v 0.259808 1.381000 0.150000
v 0.150000 1.381000 0.259808
v 0.000000 1.381000 0.300000
v -0.150000 1.381000 0.259808
v -0.259808 1.381000 0.150000
v -0.300000 1.381000 0.000000
v -0.259808 1.381000 -0.150000
v -0.150000 1.381000 -0.259808
v -0.000000 1.381000 -0.300000
v 0.150000 1.381000 -0.259808
v 0.259808 1.381000 -0.150000
v 0.275000 1.406000 0.000000
v 0.238157 1.406000 0.137500
v 0.137500 1.406000 0.238157
v 0.000000 1.406000 0.275000
v -0.137500 1.406000 0.238157
v -0.238157 1.406000 0.137500
v -0.275000 1.406000 0.000000
v -0.238157 1.406000 -0.137500
v -0.137500 1.406000 -0.238157
v -0.000000 1.406000 -0.275000
v 0.137500 1.406000 -0.238157
v 0.238157 1.406000 -0.137500
v 0.000000 1.406000 0.000000
v 0.000000 1.414000 0.000000
v 0.320000 1.414000 0.000000
v 0.295641 1.414000 0.122459
v 0.226274 1.414000 0.226274
v 0.122459 1.414000 0.295641
v 0.000000 1.414000 0.320000
v -0.122459 1.414000 0.295641
v -0.226274 1.414000 0.226274
v -0.295641 1.414000 0.122459
v -0.320000 1.414000 0.000000
v -0.295641 1.414000 -0.122459
v -0.226274 1.414000 -0.226274
v -0.122459 1.414000 -0.295641
v -0.000000 1.414000 -0.320000
v 0.122459 1.414000 -0.295641
v 0.226274 1.414000 -0.226274
v 0.295641 1.414000 -0.122459
v 0.620000 1.660000 0.000000
v 0.572805 1.660000 0.237264
v 0.438406 1.660000 0.438406
v 0.237264 1.660000 0.572805
v 0.000000 1.660000 0.620000
v -0.237264 1.660000 0.572805
v -0.438406 1.660000 0.438406
v -0.572805 1.660000 0.237264
v -0.620000 1.660000 0.000000
v -0.572805 1.660000 -0.237264
v -0.438406 1.660000 -0.438406
v -0.237264 1.660000 -0.572805
v -0.000000 1.660000 -0.620000
v 0.237264 1.660000 -0.572805
v 0.438406 1.660000 -0.438406
v 0.572805 1.660000 -0.237264
v 0.860000 1.800000 0.000000
v 0.794536 1.800000 0.329108
v 0.608112 1.800000 0.608112
v 0.329108 1.800000 0.794536
v 0.000000 1.800000 0.860000
v -0.329108 1.800000 0.794536
v -0.608112 1.800000 0.608112
v -0.794536 1.800000 0.329108
v -0.860000 1.800000 0.000000
v -0.794536 1.800000 -0.329108
v -0.608112 1.800000 -0.608112
v -0.329108 1.800000 -0.794536
v -0.000000 1.800000 -0.860000
v 0.329108 1.800000 -0.794536
v 0.608112 1.800000 -0.608112
v 0.794536 1.800000 -0.329108
v 0.860000 1.910000 0.000000
v 0.794536 1.910000 0.329108
v 0.608112 1.910000 0.608112
v 0.329108 1.910000 0.794536
v 0.000000 1.910000 0.860000
v -0.329108 1.910000 0.794536
v -0.608112 1.910000 0.608112
v -0.794536 1.910000 0.329108
v -0.860000 1.910000 0.000000
v -0.794536 1.910000 -0.329108
v -0.608112 1.910000 -0.608112
v -0.329108 1.910000 -0.794536
v -0.000000 1.910000 -0.860000
v 0.329108 1.910000 -0.794536
v 0.608112 1.910000 -0.608112
v 0.794536 1.910000 -0.329108
v 0.820000 1.940000 0.000000
v 0.757581 1.940000 0.313800
v 0.579828 1.940000 0.579828
v 0.313800 1.940000 0.757581
v 0.000000 1.940000 0.820000
v -0.313800 1.940000 0.757581
v -0.579828 1.940000 0.579828
v -0.757581 1.940000 0.313800
v -0.820000 1.940000 0.000000
v -0.757581 1.940000 -0.313800
v -0.579828 1.940000 -0.579828
v -0.313800 1.940000 -0.757581
v -0.000000 1.940000 -0.820000
v 0.313800 1.940000 -0.757581
v 0.579828 1.940000 -0.579828
v 0.757581 1.940000 -0.313800
v 0.700000 1.940000 0.000000
v 0.646716 1.940000 0.267878
v 0.494975 1.940000 0.494975
v 0.267878 1.940000 0.646716
v 0.000000 1.940000 0.700000
v -0.267878 1.940000 0.646716
v -0.494975 1.940000 0.494975
v -0.646716 1.940000 0.267878
v -0.700000 1.940000 0.000000
v -0.646716 1.940000 -0.267878
v -0.494975 1.940000 -0.494975
v -0.267878 1.940000 -0.646716
v -0.000000 1.940000 -0.700000
v 0.267878 1.940000 -0.646716
v 0.494975 1.940000 -0.494975
v 0.646716 1.940000 -0.267878
v 0.670000 1.860000 0.000000
v 0.618999 1.860000 0.256398
v 0.473762 1.860000 0.473762
v 0.256398 1.860000 0.618999
v 0.000000 1.860000 0.670000
v -0.256398 1.860000 0.618999
v -0.473762 1.860000 0.473762
v -0.618999 1.860000 0.256398
v -0.670000 1.860000 0.000000
v -0.618999 1.860000 -0.256398
v -0.473762 1.860000 -0.473762
v -0.256398 1.860000 -0.618999
v -0.000000 1.860000 -0.670000
v 0.256398 1.860000 -0.618999
v 0.473762 1.860000 -0.473762
v 0.618999 1.860000 -0.256398
v 0.440000 1.700000 0.000000
v 0.406507 1.700000 0.168381
v 0.311127 1.700000 0.311127
v 0.168381 1.700000 0.406507
v 0.000000 1.700000 0.440000
v -0.168381 1.700000 0.406507
v -0.311127 1.700000 0.311127
v -0.406507 1.700000 0.168381
v -0.440000 1.700000 0.000000
v -0.406507 1.700000 -0.168381
v -0.311127 1.700000 -0.311127
v -0.168381 1.700000 -0.406507
v -0.000000 1.700000 -0.440000
v 0.168381 1.700000 -0.406507
v 0.311127 1.700000 -0.311127
v 0.406507 1.700000 -0.168381
v 0.000000 1.640000 0.000000
v 0.000000 1.648000 0.000000
v 0.080000 1.648000 0.000000
v 0.056569 1.648000 0.056569
v 0.000000 1.648000 0.080000
v -0.056569 1.648000 0.056569
v -0.080000 1.648000 0.000000
v -0.056569 1.648000 -0.056569
v -0.000000 1.648000 -0.080000
v 0.056569 1.648000 -0.056569
v 0.105000 1.673000 0.000000
v 0.074246 1.673000 0.074246
v 0.000000 1.673000 0.105000
v -0.074246 1.673000 0.074246
v -0.105000 1.673000 0.000000
v -0.074246 1.673000 -0.074246
v -0.000000 1.673000 -0.105000
v 0.074246 1.673000 -0.074246
v 0.105000 2.063000 0.000000
v 0.074246 2.063000 0.074246
v 0.000000 2.063000 0.105000
v -0.074246 2.063000 0.074246
v -0.105000 2.063000 0.000000
v -0.074246 2.063000 -0.074246
v -0.000000 2.063000 -0.105000
v 0.074246 2.063000 -0.074246
v 0.080000 2.088000 0.000000
v 0.056569 2.088000 0.056569
v 0.000000 2.088000 0.080000
v -0.056569 2.088000 0.056569
v -0.080000 2.088000 0.000000
v -0.056569 2.088000 -0.056569
v -0.000000 2.088000 -0.080000
v 0.056569 2.088000 -0.056569
v 0.000000 2.088000 0.000000
v 0.673434 0.360239 0.624066
v 0.692445 0.340000 0.617126
v 0.685506 0.360239 0.598114
v 0.718505 0.364318 0.747539
v 0.741349 0.340000 0.739201
v 0.749688 0.364318 0.762045
v 0.673802 0.465354 0.625075
v 0.693823 0.486667 0.617767
v 0.686515 0.465354 0.597746
v 0.720004 0.466719 0.751645
v 0.738742 0.486667 0.744805
v 0.745583 0.466719 0.763543
v 0.881821 0.365271 0.553356
v 0.858082 0.340000 0.562021
v 0.849417 0.365271 0.538282
v 0.927220 0.358333 0.677725
v 0.909998 0.340000 0.684011
v 0.916285 0.358333 0.701232
v 0.881978 0.460939 0.553784
v 0.857810 0.486667 0.562606
v 0.848989 0.460939 0.538438
v 0.926284 0.465606 0.675163
v 0.906501 0.486667 0.682384
v 0.913723 0.465606 0.702168
v -0.814732 0.355120 0.856999
v -0.800529 0.340000 0.851815
v -0.805713 0.355120 0.837611
v -0.750128 0.360474 1.033983
v -0.730895 0.340000 1.026962
v -0.723875 0.360474 1.046195
v -0.813818 0.508882 0.859502
v -0.797112 0.526667 0.853404
v -0.803210 0.508882 0.836698
v -0.751274 0.502851 1.030843
v -0.728902 0.526667 1.022677
v -0.720736 0.502851 1.045049
v -0.548344 0.364931 0.770204
v -0.571763 0.340000 0.778753
v -0.580312 0.364931 0.755333
v -0.488422 0.364317 0.934361
v -0.511265 0.340000 0.942699
v -0.502926 0.364317 0.965542
v -0.550495 0.508011 0.764309
v -0.568020 0.526667 0.770706
v -0.574417 0.508011 0.753182
v -0.485185 0.511789 0.943228
v -0.499161 0.526667 0.948330
v -0.494059 0.511789 0.962306
v 0.158555 0.356478 1.182791
v 0.174034 0.340000 1.177141
v 0.168384 0.356478 1.161662
v 0.188596 0.363913 1.265089
v 0.211059 0.340000 1.256889
v 0.219258 0.363913 1.279352
v 0.160142 0.425560 1.187139
v 0.179969 0.446667 1.179902
v 0.172732 0.425560 1.160075
v 0.188986 0.423891 1.266157
v 0.210381 0.446667 1.258347
v 0.218191 0.423891 1.279742
v 0.310914 0.362483 1.133568
v 0.289794 0.340000 1.141278
v 0.282084 0.362483 1.120158
v 0.341320 0.356842 1.216867
v 0.325499 0.340000 1.222642
v 0.331274 0.356842 1.238463
v 0.309593 0.428037 1.129949
v 0.292092 0.446667 1.136337
v 0.285704 0.428037 1.118836
v 0.340713 0.428054 1.215204
v 0.323229 0.446667 1.221586
v 0.329611 0.428054 1.239070
vn 0.000000 -1.000000 0.000000
vn 0.000000 -1.000000 0.000000
vn 0.000000 -1.000000 0.000000
vn 0.000000 -1.000000 0.000000
vn 0.000000 -1.000000 0.000000
vn 0.000000 -1.000000 0.000000
vn 0.000000 -1.000000 0.000000
vn 0.000000 -1.000000 0.000000
vn 0.000000 -1.000000 0.000000
vn 0.000000 -1.000000 0.000000
vn -0.000000 -1.000000 0.000000
vn 0.000000 -1.000000 0.000000
vn 0.000000 -1.000000 0.000000
vn 0.000000 -1.000000 0.000000
vn 0.000000 -1.000000 0.000000
vn 0.000000 -1.000000 -0.000000
vn 0.000000 -1.000000 0.000000
vn 0.000000 -1.000000 0.000000
vn 0.000000 -1.000000 0.000000
vn 0.000000 -1.000000 0.000000
vn 0.702714 -0.702714 0.111299
vn 0.702714 -0.702714 0.111299
vn 0.633927 -0.702714 0.323002
vn 0.633927 -0.702714 0.323002
vn 0.503087 -0.702714 0.503087
vn 0.503087 -0.702714 0.503087
vn 0.323002 -0.702714 0.633927
vn 0.323002 -0.702714 0.633927
vn 0.111299 -0.702714 0.702714
vn 0.111299 -0.702714 0.702714
vn -0.111299 -0.702714 0.702714
vn -0.111299 -0.702714 0.702714
vn -0.323002 -0.702714 0.633927
vn -0.323002 -0.702714 0.633927
vn -0.503087 -0.702714 0.503087
vn -0.503087 -0.702714 0.503087
vn -0.633927 -0.702714 0.323002
vn -0.633927 -0.702714 0.323002
vn -0.702714 -0.702714 0.111299
vn -0.702714 -0.702714 0.111299
vn -0.702714 -0.702714 -0.111299
vn -0.702714 -0.702714 -0.111299
vn -0.633927 -0.702714 -0.323002
vn -0.633927 -0.702714 -0.323002
vn -0.503087 -0.702714 -0.503087
vn -0.503087 -0.702714 -0.503087
vn -0.323002 -0.702714 -0.633927
vn -0.323002 -0.702714 -0.633927
vn -0.111299 -0.702714 -0.702714
vn -0.111299 -0.702714 -0.702714
vn 0.111299 -0.702714 -0.702714
vn 0.111299 -0.702714 -0.702714
vn 0.323002 -0.702714 -0.633927
vn 0.323002 -0.702714 -0.633927
vn 0.503087 -0.702714 -0.503087
vn 0.503087 -0.702714 -0.503087
vn 0.633927 -0.702714 -0.323002
vn 0.633927 -0.702714 -0.323002
vn 0.702714 -0.702714 -0.111299
vn 0.702714 -0.702714 -0.111299
vn 0.987688 -0.000000 0.156434
vn 0.987688 0.000000 0.156434
vn 0.891007 -0.000000 0.453990
vn 0.891007 0.000000 0.453990
vn 0.707107 -0.000000 0.707107
vn 0.707107 0.000000 0.707107
vn 0.453990 -0.000000 0.891007
vn 0.453990 0.000000 0.891007
vn 0.156434 -0.000000 0.987688
vn 0.156434 0.000000 0.987688
vn -0.156434 0.000000 0.987688
vn -0.156434 0.000000 0.987688
vn -0.453990 0.000000 0.891007
vn -0.453990 0.000000 0.891007
vn -0.707107 0.000000 0.707107
vn -0.707107 0.000000 0.707107
vn -0.891007 0.000000 0.453990
vn -0.891007 0.000000 0.453990
vn -0.987688 0.000000 0.156434
vn -0.987688 0.000000 0.156434
vn -0.987688 0.000000 -0.156434
vn -0.987688 0.000000 -0.156434
vn -0.891007 0.000000 -0.453990
vn -0.891007 0.000000 -0.453990
vn -0.707107 0.000000 -0.707107
vn -0.707107 0.000000 -0.707107
vn -0.453990 0.000000 -0.891007
vn -0.453990 0.000000 -0.891007
vn -0.156434 0.000000 -0.987688
vn -0.156434 0.000000 -0.987688
vn 0.156434 0.000000 -0.987688
vn 0.156434 0.000000 -0.987688
vn 0.453990 0.000000 -0.891007
vn 0.453990 0.000000 -0.891007
vn 0.707107 0.000000 -0.707107
vn 0.707107 0.000000 -0.707107
vn 0.891007 0.000000 -0.453990
vn 0.891007 0.000000 -0.453990
vn 0.987688 0.000000 -0.156434
vn 0.987688 0.000000 -0.156434
vn 0.702714 0.702714 0.111299
vn 0.702714 0.702714 0.111299
vn 0.633927 0.702714 0.323002
vn 0.633927 0.702714 0.323002
vn 0.503087 0.702714 0.503087
vn 0.503087 0.702714 0.503087
vn 0.323002 0.702714 0.633927
vn 0.323002 0.702714 0.633927
vn 0.111299 0.702714 0.702714
vn 0.111299 0.702714 0.702714
vn -0.111299 0.702714 0.702714
vn -0.111299 0.702714 0.702714
vn -0.323002 0.702714 0.633927
vn -0.323002 0.702714 0.633927
vn -0.503087 0.702714 0.503087
vn -0.503087 0.702714 0.503087
vn -0.633927 0.702714 0.323002
vn -0.633927 0.702714 0.323002
vn -0.702714 0.702714 0.111299
vn -0.702714 0.702714 0.111299
vn -0.702714 0.702714 -0.111299
vn -0.702714 0.702714 -0.111299
vn -0.633927 0.702714 -0.323002
vn -0.633927 0.702714 -0.323002
vn -0.503087 0.702714 -0.503087
vn -0.503087 0.702714 -0.503087
vn -0.323002 0.702714 -0.633927
vn -0.323002 0.702714 -0.633927
vn -0.111299 0.702714 -0.702714
vn -0.111299 0.702714 -0.702714
vn 0.111299 0.702714 -0.702714
vn 0.111299 0.702714 -0.702714
vn 0.323002 0.702714 -0.633927
vn 0.323002 0.702714 -0.633927
vn 0.503087 0.702714 -0.503087
vn 0.503087 0.702714 -0.503087
vn 0.633927 0.702714 -0.323002
vn 0.633927 0.702714 -0.323002
vn 0.702714 0.702714 -0.111299
vn 0.702714 0.702714 -0.111299
vn 0.000000 1.000000 0.000000
vn 0.000000 1.000000 0.000000
vn 0.000000 1.000000 0.000000
vn 0.000000 1.000000 0.000000
vn 0.000000 1.000000 0.000000
vn 0.000000 1.000000 0.000000
vn 0.000000 1.000000 0.000000
vn 0.000000 1.000000 0.000000
vn 0.000000 1.000000 0.000000
vn 0.000000 1.000000 0.000000
vn 0.000000 1.000000 0.000000
vn -0.000000 1.000000 0.000000
vn -0.000000 1.000000 0.000000
vn -0.000000 1.000000 0.000000
vn -0.000000 1.000000 0.000000
vn 0.000000 1.000000 0.000000
vn 0.000000 1.000000 -0.000000
vn 0.000000 1.000000 -0.000000
vn 0.000000 1.000000 -0.000000
vn 0.000000 1.000000 -0.000000
vn 0.000000 -1.000000 0.000000
vn 0.000000 -1.000000 0.000000
vn 0.000000 -1.000000 0.000000
vn 0.000000 -1.000000 0.000000
vn 0.000000 -1.000000 0.000000
vn 0.000000 -1.000000 0.000000
vn 0.000000 -1.000000 0.000000
vn 0.000000 -1.000000 0.000000
vn 0.000000 -1.000000 0.000000
vn 0.000000 -1.000000 0.000000
vn -0.000000 -1.000000 0.000000
vn 0.000000 -1.000000 0.000000
vn 0.000000 -1.000000 0.000000
vn 0.000000 -1.000000 0.000000
vn 0.000000 -1.000000 0.000000
vn 0.000000 -1.000000 -0.000000
vn 0.000000 -1.000000 0.000000
vn 0.000000 -1.000000 0.000000
vn 0.000000 -1.000000 0.000000
vn 0.000000 -1.000000 0.000000
vn 0.719422 -0.685163 0.113945
vn 0.719422 -0.685163 0.113945
vn 0.649000 -0.685163 0.330682
vn 0.649000 -0.685163 0.330682
vn 0.515049 -0.685163 0.515049
vn 0.515049 -0.685163 0.515049
vn 0.330682 -0.685163 0.649000
vn 0.330682 -0.685163 0.649000
vn 0.113945 -0.685163 0.719422
vn 0.113945 -0.685163 0.719422
vn -0.113945 -0.685163 0.719422
vn -0.113945 -0.685163 0.719422
vn -0.330682 -0.685163 0.649000
vn -0.330682 -0.685163 0.649000
vn -0.515049 -0.685163 0.515049
vn -0.515049 -0.685163 0.515049
vn -0.649000 -0.685163 0.330682
vn -0.649000 -0.685163 0.330682
vn -0.719422 -0.685163 0.113945
vn -0.719422 -0.685163 0.113945
vn -0.719422 -0.685163 -0.113945
vn -0.719422 -0.685163 -0.113945
vn -0.649000 -0.685163 -0.330682
vn -0.649000 -0.685163 -0.330682
vn -0.515049 -0.685163 -0.515049
vn -0.515049 -0.685163 -0.515049
vn -0.330682 -0.685163 -0.649000
vn -0.330682 -0.685163 -0.649000
vn -0.113945 -0.685163 -0.719422
vn -0.113945 -0.685163 -0.719422
vn 0.113945 -0.685163 -0.719422
vn 0.113945 -0.685163 -0.719422
vn 0.330682 -0.685163 -0.649000
vn 0.330682 -0.685163 -0.649000
vn 0.515049 -0.685163 -0.515049
vn 0.515049 -0.685163 -0.515049
vn 0.649000 -0.685163 -0.330682
vn 0.649000 -0.685163 -0.330682
vn 0.719422 -0.685163 -0.113945
vn 0.719422 -0.685163 -0.113945
vn 0.987688 -0.000000 0.156434
vn 0.987688 0.000000 0.156434
vn 0.891007 -0.000000 0.453990
vn 0.891007 0.000000 0.453990
vn 0.707107 -0.000000 0.707107
vn 0.707107 0.000000 0.707107
vn 0.453990 -0.000000 0.891007
vn 0.453990 0.000000 0.891007
vn 0.156434 -0.000000 0.987688
vn 0.156434 0.000000 0.987688
vn -0.156434 0.000000 0.987688
vn -0.156434 0.000000 0.987688
vn -0.453990 0.000000 0.891007
vn -0.453990 0.000000 0.891007
vn -0.707107 0.000000 0.707107
vn -0.707107 0.000000 0.707107
vn -0.891007 0.000000 0.453990
vn -0.891007 0.000000 0.453990
vn -0.987688 0.000000 0.156434
vn -0.987688 0.000000 0.156434
vn -0.987688 0.000000 -0.156434
vn -0.987688 0.000000 -0.156434
vn -0.891007 0.000000 -0.453990
vn -0.891007 0.000000 -0.453990
vn -0.707107 0.000000 -0.707107
vn -0.707107 0.000000 -0.707107
vn -0.453990 0.000000 -0.891007
vn -0.453990 0.000000 -0.891007
vn -0.156434 0.000000 -0.987688
vn -0.156434 0.000000 -0.987688
vn 0.156434 0.000000 -0.987688
vn 0.156434 0.000000 -0.987688
vn 0.453990 0.000000 -0.891007
vn 0.453990 0.000000 -0.891007
vn 0.707107 0.000000 -0.707107
vn 0.707107 0.000000 -0.707107
vn 0.891007 0.000000 -0.453990
vn 0.891007 0.000000 -0.453990
vn 0.987688 0.000000 -0.156434
vn 0.987688 0.000000 -0.156434
vn 0.350582 -0.934885 0.055527
vn 0.350582 -0.934885 0.055527
vn 0.316264 -0.934885 0.161145
vn 0.316264 -0.934885 0.161145
vn 0.250989 -0.934885 0.250989
vn 0.250989 -0.934885 0.250989
vn 0.161145 -0.934885 0.316264
vn 0.161145 -0.934885 0.316264
vn 0.055527 -0.934885 0.350582
vn 0.055527 -0.934885 0.350582
vn -0.055527 -0.934885 0.350582
vn -0.055527 -0.934885 0.350582
vn -0.161145 -0.934885 0.316264
vn -0.161145 -0.934885 0.316264
vn -0.250989 -0.934885 0.250989
vn -0.250989 -0.934885 0.250989
vn -0.316264 -0.934885 0.161145
vn -0.316264 -0.934885 0.161145
vn -0.350582 -0.934885 0.055527
vn -0.350582 -0.934885 0.055527
vn -0.350582 -0.934885 -0.055527
vn -0.350582 -0.934885 -0.055527
vn -0.316264 -0.934885 -0.161145
vn -0.316264 -0.934885 -0.161145
vn -0.250989 -0.934885 -0.250989
vn -0.250989 -0.934885 -0.250989
vn -0.161145 -0.934885 -0.316264
vn -0.161145 -0.934885 -0.316264
vn -0.055527 -0.934885 -0.350582
vn -0.055527 -0.934885 -0.350582
vn 0.055527 -0.934885 -0.350582
vn 0.055527 -0.934885 -0.350582
vn 0.161145 -0.934885 -0.316264
vn 0.161145 -0.934885 -0.316264
vn 0.250989 -0.934885 -0.250989
vn 0.250989 -0.934885 -0.250989
vn 0.316264 -0.934885 -0.161145
vn 0.316264 -0.934885 -0.161145
vn 0.350582 -0.934885 -0.055527
vn 0.350582 -0.934885 -0.055527
vn 0.987688 -0.000000 0.156434
vn 0.987688 0.000000 0.156434
vn 0.891007 -0.000000 0.453990
vn 0.891007 0.000000 0.453990
vn 0.707107 -0.000000 0.707107
vn 0.707107 0.000000 0.707107
vn 0.453990 -0.000000 0.891007
vn 0.453990 0.000000 0.891007
vn 0.156434 -0.000000 0.987688
vn 0.156434 0.000000 0.987688
vn -0.156434 0.000000 0.987688
vn -0.156434 0.000000 0.987688
vn -0.453990 0.000000 0.891007
vn -0.453990 0.000000 0.891007
vn -0.707107 0.000000 0.707107
vn -0.707107 0.000000 0.707107
vn -0.891007 0.000000 0.453990
vn -0.891007 0.000000 0.453990
vn -0.987688 0.000000 0.156434
vn -0.987688 0.000000 0.156434
vn -0.987688 0.000000 -0.156434
vn -0.987688 0.000000 -0.156434
vn -0.891007 0.000000 -0.453990
vn -0.891007 0.000000 -0.453990
vn -0.707107 0.000000 -0.707107
vn -0.707107 0.000000 -0.707107
vn -0.453990 0.000000 -0.891007
vn -0.453990 0.000000 -0.891007
vn -0.156434 0.000000 -0.987688
vn -0.156434 0.000000 -0.987688
vn 0.156434 0.000000 -0.987688
vn 0.156434 0.000000 -0.987688
vn 0.453990 0.000000 -0.891007
vn 0.453990 0.000000 -0.891007
vn 0.707107 0.000000 -0.707107
vn 0.707107 0.000000 -0.707107
vn 0.891007 0.000000 -0.453990
vn 0.891007 0.000000 -0.453990
vn 0.987688 0.000000 -0.156434
vn 0.987688 0.000000 -0.156434
vn 0.597309 0.796412 0.094604
vn 0.597309 0.796412 0.094604
vn 0.538840 0.796412 0.274553
vn 0.538840 0.796412 0.274553
vn 0.427626 0.796412 0.427626
vn 0.427626 0.796412 0.427626
vn 0.274553 0.796412 0.538840
vn 0.274553 0.796412 0.538840
vn 0.094604 0.796412 0.597309
vn 0.094604 0.796412 0.597309
vn -0.094604 0.796412 0.597309
vn -0.094604 0.796412 0.597309
vn -0.274553 0.796412 0.538840
vn -0.274553 0.796412 0.538840
vn -0.427626 0.796412 0.427626
vn -0.427626 0.796412 0.427626
vn -0.538840 0.796412 0.274553
vn -0.538840 0.796412 0.274553
vn -0.597309 0.796412 0.094604
vn -0.597309 0.796412 0.094604
vn -0.597309 0.796412 -0.094604
vn -0.597309 0.796412 -0.094604
vn -0.538840 0.796412 -0.274553
vn -0.538840 0.796412 -0.274553
vn -0.427626 0.796412 -0.427626
vn -0.427626 0.796412 -0.427626
vn -0.274553 0.796412 -0.538840
vn -0.274553 0.796412 -0.538840
vn -0.094604 0.796412 -0.597309
vn -0.094604 0.796412 -0.597309
vn 0.094604 0.796412 -0.597309
vn 0.094604 0.796412 -0.597309
vn 0.274553 0.796412 -0.538840
vn 0.274553 0.796412 -0.538840
vn 0.427626 0.796412 -0.427626
vn 0.427626 0.796412 -0.427626
vn 0.538840 0.796412 -0.274553
vn 0.538840 0.796412 -0.274553
vn 0.597309 0.796412 -0.094604
vn 0.597309 0.796412 -0.094604
vn 0.000000 1.000000 0.000000
vn 0.000000 1.000000 0.000000
vn 0.000000 1.000000 0.000000
vn 0.000000 1.000000 0.000000
vn 0.000000 1.000000 0.000000
vn 0.000000 1.000000 0.000000
vn 0.000000 1.000000 0.000000
vn 0.000000 1.000000 0.000000
vn 0.000000 1.000000 0.000000
vn 0.000000 1.000000 0.000000
vn 0.000000 1.000000 0.000000
vn 0.000000 1.000000 0.000000
vn 0.000000 1.000000 0.000000
vn 0.000000 1.000000 0.000000
vn 0.000000 1.000000 0.000000
vn 0.000000 1.000000 0.000000
vn 0.000000 1.000000 0.000000
vn 0.000000 1.000000 0.000000
vn 0.000000 1.000000 0.000000
vn 0.000000 1.000000 0.000000
vn 0.000000 1.000000 0.000000
vn 0.000000 1.000000 0.000000
vn -0.000000 1.000000 0.000000
vn 0.000000 1.000000 0.000000
vn -0.000000 1.000000 0.000000
vn 0.000000 1.000000 0.000000
vn 0.000000 1.000000 0.000000
vn -0.000000 1.000000 0.000000
vn 0.000000 1.000000 0.000000
vn -0.000000 1.000000 0.000000
vn 0.000000 1.000000 0.000000
vn 0.000000 1.000000 0.000000
vn 0.000000 1.000000 -0.000000
vn 0.000000 1.000000 0.000000
vn 0.000000 1.000000 -0.000000
vn 0.000000 1.000000 0.000000
vn 0.000000 1.000000 0.000000
vn 0.000000 1.000000 -0.000000
vn 0.000000 1.000000 0.000000
vn 0.000000 1.000000 -0.000000
vn -0.702714 0.702714 -0.111299
vn -0.702714 0.702714 -0.111299
vn -0.633927 0.702714 -0.323002
vn -0.633927 0.702714 -0.323002
vn -0.503087 0.702714 -0.503087
vn -0.503087 0.702714 -0.503087
vn -0.323002 0.702714 -0.633927
vn -0.323002 0.702714 -0.633927
vn -0.111299 0.702714 -0.702714
vn -0.111299 0.702714 -0.702714
vn 0.111299 0.702714 -0.702714
vn 0.111299 0.702714 -0.702714
vn 0.323002 0.702714 -0.633927
vn 0.323002 0.702714 -0.633927
vn 0.503087 0.702714 -0.503087
vn 0.503087 0.702714 -0.503087
vn 0.633927 0.702714 -0.323002
vn 0.633927 0.702714 -0.323002
vn 0.702714 0.702714 -0.111299
vn 0.702714 0.702714 -0.111299
vn 0.702714 0.702714 0.111299
vn 0.702714 0.702714 0.111299
vn 0.633927 0.702714 0.323002
vn 0.633927 0.702714 0.323002
vn 0.503087 0.702714 0.503087
vn 0.503087 0.702714 0.503087
vn 0.323002 0.702714 0.633927
vn 0.323002 0.702714 0.633927
vn 0.111299 0.702714 0.702714
vn 0.111299 0.702714 0.702714
vn -0.111299 0.702714 0.702714
vn -0.111299 0.702714 0.702714
vn -0.323002 0.702714 0.633927
vn -0.323002 0.702714 0.633927
vn -0.503087 0.702714 0.503087
vn -0.503087 0.702714 0.503087
vn -0.633927 0.702714 0.323002
vn -0.633927 0.702714 0.323002
vn -0.702714 0.702714 0.111299
vn -0.702714 0.702714 0.111299
vn -0.987688 -0.000000 -0.156434
vn -0.987688 0.000000 -0.156434
vn -0.891007 -0.000000 -0.453990
vn -0.891007 0.000000 -0.453990
vn -0.707107 -0.000000 -0.707107
vn -0.707107 0.000000 -0.707107
vn -0.453990 -0.000000 -0.891007
vn -0.453990 0.000000 -0.891007
vn -0.156434 -0.000000 -0.987688
vn -0.156434 0.000000 -0.987688
vn 0.156434 0.000000 -0.987688
vn 0.156434 0.000000 -0.987688
vn 0.453990 0.000000 -0.891007
vn 0.453990 0.000000 -0.891007
vn 0.707107 0.000000 -0.707107
vn 0.707107 0.000000 -0.707107
vn 0.891007 0.000000 -0.453990
vn 0.891007 0.000000 -0.453990
vn 0.987688 0.000000 -0.156434
vn 0.987688 0.000000 -0.156434
vn 0.987688 0.000000 0.156434
vn 0.987688 0.000000 0.156434
vn 0.891007 0.000000 0.453990
vn 0.891007 0.000000 0.453990
vn 0.707107 0.000000 0.707107
vn 0.707107 0.000000 0.707107
vn 0.453990 0.000000 0.891007
vn 0.453990 0.000000 0.891007
vn 0.156434 0.000000 0.987688
vn 0.156434 0.000000 0.987688
vn -0.156434 0.000000 0.987688
vn -0.156434 0.000000 0.987688
vn -0.453990 0.000000 0.891007
vn -0.453990 0.000000 0.891007
vn -0.707107 0.000000 0.707107
vn -0.707107 0.000000 0.707107
vn -0.891007 0.000000 0.453990
vn -0.891007 0.000000 0.453990
vn -0.987688 0.000000 0.156434
vn -0.987688 0.000000 0.156434
vn -0.702714 -0.702714 -0.111299
vn -0.702714 -0.702714 -0.111299
vn -0.633927 -0.702714 -0.323002
vn -0.633927 -0.702714 -0.323002
vn -0.503087 -0.702714 -0.503087
vn -0.503087 -0.702714 -0.503087
vn -0.323002 -0.702714 -0.633927
vn -0.323002 -0.702714 -0.633927
vn -0.111299 -0.702714 -0.702714
vn -0.111299 -0.702714 -0.702714
vn 0.111299 -0.702714 -0.702714
vn 0.111299 -0.702714 -0.702714
vn 0.323002 -0.702714 -0.633927
vn 0.323002 -0.702714 -0.633927
vn 0.503087 -0.702714 -0.503087
vn 0.503087 -0.702714 -0.503087
vn 0.633927 -0.702714 -0.323002
vn 0.633927 -0.702714 -0.323002
vn 0.702714 -0.702714 -0.111299
vn 0.702714 -0.702714 -0.111299
vn 0.702714 -0.702714 0.111299
vn 0.702714 -0.702714 0.111299
vn 0.633927 -0.702714 0.323002
vn 0.633927 -0.702714 0.323002
vn 0.503087 -0.702714 0.503087
vn 0.503087 -0.702714 0.503087
vn 0.323002 -0.702714 0.633927
vn 0.323002 -0.702714 0.633927
vn 0.111299 -0.702714 0.702714
vn 0.111299 -0.702714 0.702714
vn -0.111299 -0.702714 0.702714
vn -0.111299 -0.702714 0.702714
vn -0.323002 -0.702714 0.633927
vn -0.323002 -0.702714 0.633927
vn -0.503087 -0.702714 0.503087
vn -0.503087 -0.702714 0.503087
vn -0.633927 -0.702714 0.323002
vn -0.633927 -0.702714 0.323002
vn -0.702714 -0.702714 0.111299
vn -0.702714 -0.702714 0.111299
vn -0.987688 -0.000000 -0.156434
vn -0.987688 0.000000 -0.156434
vn -0.891007 -0.000000 -0.453990
vn -0.891007 0.000000 -0.453990
vn -0.707107 -0.000000 -0.707107
vn -0.707107 0.000000 -0.707107
vn -0.453990 -0.000000 -0.891007
vn -0.453990 0.000000 -0.891007
vn -0.156434 -0.000000 -0.987688
vn -0.156434 0.000000 -0.987688
vn 0.156434 0.000000 -0.987688
vn 0.156434 0.000000 -0.987688
vn 0.453990 0.000000 -0.891007
vn 0.453990 0.000000 -0.891007
vn 0.707107 0.000000 -0.707107
vn 0.707107 0.000000 -0.707107
vn 0.891007 0.000000 -0.453990
vn 0.891007 0.000000 -0.453990
vn 0.987688 0.000000 -0.156434
vn 0.987688 0.000000 -0.156434
vn 0.987688 0.000000 0.156434
vn 0.987688 0.000000 0.156434
vn 0.891007 0.000000 0.453990
vn 0.891007 0.000000 0.453990
vn 0.707107 0.000000 0.707107
vn 0.707107 0.000000 0.707107
vn 0.453990 0.000000 0.891007
vn 0.453990 0.000000 0.891007
vn 0.156434 0.000000 0.987688
vn 0.156434 0.000000 0.987688
vn -0.156434 0.000000 0.987688
vn -0.156434 0.000000 0.987688
vn -0.453990 0.000000 0.891007
vn -0.453990 0.000000 0.891007
vn -0.707107 0.000000 0.707107
vn -0.707107 0.000000 0.707107
vn -0.891007 0.000000 0.453990
vn -0.891007 0.000000 0.453990
vn -0.987688 0.000000 0.156434
vn -0.987688 0.000000 0.156434
vn 0.000000 1.000000 0.000000
vn 0.000000 1.000000 0.000000
vn 0.000000 1.000000 0.000000
vn 0.000000 1.000000 0.000000
vn 0.000000 1.000000 0.000000
vn 0.000000 1.000000 0.000000
vn 0.000000 1.000000 0.000000
vn 0.000000 1.000000 0.000000
vn 0.000000 1.000000 0.000000
vn 0.000000 1.000000 0.000000
vn 0.000000 1.000000 0.000000
vn -0.000000 1.000000 0.000000
vn -0.000000 1.000000 0.000000
vn -0.000000 1.000000 0.000000
vn -0.000000 1.000000 0.000000
vn 0.000000 1.000000 0.000000
vn 0.000000 1.000000 -0.000000
vn 0.000000 1.000000 -0.000000
vn 0.000000 1.000000 -0.000000
vn 0.000000 1.000000 -0.000000
vn 0.000000 -1.000000 0.000000
vn 0.000000 -1.000000 0.000000
vn 0.000000 -1.000000 0.000000
vn 0.000000 -1.000000 0.000000
vn 0.000000 -1.000000 0.000000
vn 0.000000 -1.000000 0.000000
vn -0.000000 -1.000000 0.000000
vn 0.000000 -1.000000 0.000000
vn 0.000000 -1.000000 0.000000
vn 0.000000 -1.000000 -0.000000
vn 0.000000 -1.000000 0.000000
vn 0.000000 -1.000000 0.000000
vn 0.694747 -0.694747 0.186157
vn 0.694747 -0.694747 0.186157
vn 0.508590 -0.694747 0.508590
vn 0.508590 -0.694747 0.508590
vn 0.186157 -0.694747 0.694747
vn 0.186157 -0.694747 0.694747
vn -0.186157 -0.694747 0.694747
vn -0.186157 -0.694747 0.694747
vn -0.508590 -0.694747 0.508590
vn -0.508590 -0.694747 0.508590
vn -0.694747 -0.694747 0.186157
vn -0.694747 -0.694747 0.186157
vn -0.694747 -0.694747 -0.186157
vn -0.694747 -0.694747 -0.186157
vn -0.508590 -0.694747 -0.508590
vn -0.508590 -0.694747 -0.508590
vn -0.186157 -0.694747 -0.694747
vn -0.186157 -0.694747 -0.694747
vn 0.186157 -0.694747 -0.694747
vn 0.186157 -0.694747 -0.694747
vn 0.508590 -0.694747 -0.508590
vn 0.508590 -0.694747 -0.508590
vn 0.694747 -0.694747 -0.186157
vn 0.694747 -0.694747 -0.186157
vn 0.965926 -0.000000 0.258819
vn 0.965926 0.000000 0.258819
vn 0.707107 -0.000000 0.707107
vn 0.707107 0.000000 0.707107
vn 0.258819 -0.000000 0.965926
vn 0.258819 0.000000 0.965926
vn -0.258819 0.000000 0.965926
vn -0.258819 0.000000 0.965926
vn -0.707107 0.000000 0.707107
vn -0.707107 0.000000 0.707107
vn -0.965926 0.000000 0.258819
vn -0.965926 0.000000 0.258819
vn -0.965926 0.000000 -0.258819
vn -0.965926 0.000000 -0.258819
vn -0.707107 0.000000 -0.707107
vn -0.707107 0.000000 -0.707107
vn -0.258819 0.000000 -0.965926
vn -0.258819 0.000000 -0.965926
vn 0.258819 0.000000 -0.965926
vn 0.258819 0.000000 -0.965926
vn 0.707107 0.000000 -0.707107
vn 0.707107 0.000000 -0.707107
vn 0.965926 0.000000 -0.258819
vn 0.965926 0.000000 -0.258819
vn 0.694747 0.694747 0.186157
vn 0.694747 0.694747 0.186157
vn 0.508590 0.694747 0.508590
vn 0.508590 0.694747 0.508590
vn 0.186157 0.694747 0.694747
vn 0.186157 0.694747 0.694747
vn -0.186157 0.694747 0.694747
vn -0.186157 0.694747 0.694747
vn -0.508590 0.694747 0.508590
vn -0.508590 0.694747 0.508590
vn -0.694747 0.694747 0.186157
vn -0.694747 0.694747 0.186157
vn -0.694747 0.694747 -0.186157
vn -0.694747 0.694747 -0.186157
vn -0.508590 0.694747 -0.508590
vn -0.508590 0.694747 -0.508590
vn -0.186157 0.694747 -0.694747
vn -0.186157 0.694747 -0.694747
vn 0.186157 0.694747 -0.694747
vn 0.186157 0.694747 -0.694747
vn 0.508590 0.694747 -0.508590
vn 0.508590 0.694747 -0.508590
vn 0.694747 0.694747 -0.186157
vn 0.694747 0.694747 -0.186157
vn 0.000000 1.000000 0.000000
vn 0.000000 1.000000 0.000000
vn 0.000000 1.000000 0.000000
vn 0.000000 1.000000 0.000000
vn 0.000000 1.000000 0.000000
vn 0.000000 1.000000 0.000000
vn 0.000000 1.000000 0.000000
vn -0.000000 1.000000 0.000000
vn -0.000000 1.000000 0.000000
vn 0.000000 1.000000 0.000000
vn 0.000000 1.000000 -0.000000
vn 0.000000 1.000000 -0.000000
vn 0.000000 -1.000000 0.000000
vn 0.000000 -1.000000 0.000000
vn 0.000000 -1.000000 0.000000
vn 0.000000 -1.000000 0.000000
vn 0.000000 -1.000000 0.000000
vn 0.000000 -1.000000 0.000000
vn -0.000000 -1.000000 0.000000
vn 0.000000 -1.000000 0.000000
vn 0.000000 -1.000000 0.000000
vn 0.000000 -1.000000 -0.000000
vn 0.000000 -1.000000 0.000000
vn 0.000000 -1.000000 0.000000
vn 0.694747 -0.694747 0.186157
vn 0.694747 -0.694747 0.186157
vn 0.508590 -0.694747 0.508590
vn 0.508590 -0.694747 0.508590
vn 0.186157 -0.694747 0.694747
vn 0.186157 -0.694747 0.694747
vn -0.186157 -0.694747 0.694747
vn -0.186157 -0.694747 0.694747
vn -0.508590 -0.694747 0.508590
vn -0.508590 -0.694747 0.508590
vn -0.694747 -0.694747 0.186157
vn -0.694747 -0.694747 0.186157
vn -0.694747 -0.694747 -0.186157
vn -0.694747 -0.694747 -0.186157
vn -0.508590 -0.694747 -0.508590
vn -0.508590 -0.694747 -0.508590
vn -0.186157 -0.694747 -0.694747
vn -0.186157 -0.694747 -0.694747
vn 0.186157 -0.694747 -0.694747
vn 0.186157 -0.694747 -0.694747
vn 0.508590 -0.694747 -0.508590
vn 0.508590 -0.694747 -0.508590
vn 0.694747 -0.694747 -0.186157
vn 0.694747 -0.694747 -0.186157
vn 0.965926 -0.000000 0.258819
vn 0.965926 0.000000 0.258819
vn 0.707107 -0.000000 0.707107
vn 0.707107 0.000000 0.707107
vn 0.258819 -0.000000 0.965926
vn 0.258819 0.000000 0.965926
vn -0.258819 0.000000 0.965926
vn -0.258819 0.000000 0.965926
vn -0.707107 0.000000 0.707107
vn -0.707107 0.000000 0.707107
vn -0.965926 0.000000 0.258819
vn -0.965926 0.000000 0.258819
vn -0.965926 0.000000 -0.258819
vn -0.965926 0.000000 -0.258819
vn -0.707107 0.000000 -0.707107
vn -0.707107 0.000000 -0.707107
vn -0.258819 0.000000 -0.965926
vn -0.258819 0.000000 -0.965926
vn 0.258819 0.000000 -0.965926
vn 0.258819 0.000000 -0.965926
vn 0.707107 0.000000 -0.707107
vn 0.707107 0.000000 -0.707107
vn 0.965926 0.000000 -0.258819
vn 0.965926 0.000000 -0.258819
vn 0.694747 0.694747 0.186157
vn 0.694747 0.694747 0.186157
vn 0.508590 0.694747 0.508590
vn 0.508590 0.694747 0.508590
vn 0.186157 0.694747 0.694747
vn 0.186157 0.694747 0.694747
vn -0.186157 0.694747 0.694747
vn -0.186157 0.694747 0.694747
vn -0.508590 0.694747 0.508590
vn -0.508590 0.694747 0.508590
vn -0.694747 0.694747 0.186157
vn -0.694747 0.694747 0.186157
vn -0.694747 0.694747 -0.186157
vn -0.694747 0.694747 -0.186157
vn -0.508590 0.694747 -0.508590
vn -0.508590 0.694747 -0.508590
vn -0.186157 0.694747 -0.694747
vn -0.186157 0.694747 -0.694747
vn 0.186157 0.694747 -0.694747
vn 0.186157 0.694747 -0.694747
vn 0.508590 0.694747 -0.508590
vn 0.508590 0.694747 -0.508590
vn 0.694747 0.694747 -0.186157
vn 0.694747 0.694747 -0.186157
vn 0.000000 1.000000 0.000000
vn 0.000000 1.000000 0.000000
vn 0.000000 1.000000 0.000000
vn 0.000000 1.000000 0.000000
vn 0.000000 1.000000 0.000000
vn 0.000000 1.000000 0.000000
vn 0.000000 1.000000 0.000000
vn -0.000000 1.000000 0.000000
vn -0.000000 1.000000 0.000000
vn 0.000000 1.000000 0.000000
vn 0.000000 1.000000 -0.000000
vn 0.000000 1.000000 -0.000000
vn 0.000000 -1.000000 0.000000
vn 0.000000 -1.000000 0.000000
vn 0.000000 -1.000000 0.000000
vn 0.000000 -1.000000 0.000000
vn 0.000000 -1.000000 0.000000
vn 0.000000 -1.000000 0.000000
vn 0.000000 -1.000000 0.000000
vn 0.000000 -1.000000 0.000000
vn -0.000000 -1.000000 0.000000
vn 0.000000 -1.000000 0.000000
vn 0.000000 -1.000000 0.000000
vn 0.000000 -1.000000 0.000000
vn 0.000000 -1.000000 -0.000000
vn 0.000000 -1.000000 0.000000
vn 0.000000 -1.000000 0.000000
vn 0.000000 -1.000000 0.000000
vn 0.629096 -0.767190 0.125135
vn 0.629096 -0.767190 0.125135
vn 0.533321 -0.767190 0.356354
vn 0.533321 -0.767190 0.356354
vn 0.356354 -0.767190 0.533321
vn 0.356354 -0.767190 0.533321
vn 0.125135 -0.767190 0.629096
vn 0.125135 -0.767190 0.629096
vn -0.125135 -0.767190 0.629096
vn -0.125135 -0.767190 0.629096
vn -0.356354 -0.767190 0.533321
vn -0.356354 -0.767190 0.533321
vn -0.533321 -0.767190 0.356354
vn -0.533321 -0.767190 0.356354
vn -0.629096 -0.767190 0.125135
vn -0.629096 -0.767190 0.125135
vn -0.629096 -0.767190 -0.125135
vn -0.629096 -0.767190 -0.125135
vn -0.533321 -0.767190 -0.356354
vn -0.533321 -0.767190 -0.356354
vn -0.356354 -0.767190 -0.533321
vn -0.356354 -0.767190 -0.533321
vn -0.125135 -0.767190 -0.629096
vn -0.125135 -0.767190 -0.629096
vn 0.125135 -0.767190 -0.629096
vn 0.125135 -0.767190 -0.629096
vn 0.356354 -0.767190 -0.533321
vn 0.356354 -0.767190 -0.533321
vn 0.533321 -0.767190 -0.356354
vn 0.533321 -0.767190 -0.356354
vn 0.629096 -0.767190 -0.125135
vn 0.629096 -0.767190 -0.125135
vn 0.501359 -0.859473 0.099727
vn 0.501359 -0.859473 0.099727
vn 0.425032 -0.859473 0.283997
vn 0.425032 -0.859473 0.283997
vn 0.283997 -0.859473 0.425032
vn 0.283997 -0.859473 0.425032
vn 0.099727 -0.859473 0.501359
vn 0.099727 -0.859473 0.501359
vn -0.099727 -0.859473 0.501359
vn -0.099727 -0.859473 0.501359
vn -0.283997 -0.859473 0.425032
vn -0.283997 -0.859473 0.425032
vn -0.425032 -0.859473 0.283997
vn -0.425032 -0.859473 0.283997
vn -0.501359 -0.859473 0.099727
vn -0.501359 -0.859473 0.099727
vn -0.501359 -0.859473 -0.099727
vn -0.501359 -0.859473 -0.099727
vn -0.425032 -0.859473 -0.283997
vn -0.425032 -0.859473 -0.283997
vn -0.283997 -0.859473 -0.425032
vn -0.283997 -0.859473 -0.425032
vn -0.099727 -0.859473 -0.501359
vn -0.099727 -0.859473 -0.501359
vn 0.099727 -0.859473 -0.501359
vn 0.099727 -0.859473 -0.501359
vn 0.283997 -0.859473 -0.425032
vn 0.283997 -0.859473 -0.425032
vn 0.425032 -0.859473 -0.283997
vn 0.425032 -0.859473 -0.283997
vn 0.501359 -0.859473 -0.099727
vn 0.501359 -0.859473 -0.099727
vn 0.980785 -0.000000 0.195090
vn 0.980785 0.000000 0.195090
vn 0.831470 -0.000000 0.555570
vn 0.831470 0.000000 0.555570
vn 0.555570 -0.000000 0.831470
vn 0.555570 0.000000 0.831470
vn 0.195090 -0.000000 0.980785
vn 0.195090 0.000000 0.980785
vn -0.195090 0.000000 0.980785
vn -0.195090 0.000000 0.980785
vn -0.555570 0.000000 0.831470
vn -0.555570 0.000000 0.831470
vn -0.831470 0.000000 0.555570
vn -0.831470 0.000000 0.555570
vn -0.980785 0.000000 0.195090
vn -0.980785 0.000000 0.195090
vn -0.980785 0.000000 -0.195090
vn -0.980785 0.000000 -0.195090
vn -0.831470 0.000000 -0.555570
vn -0.831470 0.000000 -0.555570
vn -0.555570 0.000000 -0.831470
vn -0.555570 0.000000 -0.831470
vn -0.195090 0.000000 -0.980785
vn -0.195090 0.000000 -0.980785
vn 0.195090 0.000000 -0.980785
vn 0.195090 0.000000 -0.980785
vn 0.555570 0.000000 -0.831470
vn 0.555570 0.000000 -0.831470
vn 0.831470 0.000000 -0.555570
vn 0.831470 0.000000 -0.555570
vn 0.980785 0.000000 -0.195090
vn 0.980785 0.000000 -0.195090
vn 0.595772 0.794363 0.118506
vn 0.595772 0.794363 0.118506
vn 0.505071 0.794363 0.337478
vn 0.505071 0.794363 0.337478
vn 0.337478 0.794363 0.505071
vn 0.337478 0.794363 0.505071
vn 0.118506 0.794363 0.595772
vn 0.118506 0.794363 0.595772
vn -0.118506 0.794363 0.595772
vn -0.118506 0.794363 0.595772
vn -0.337478 0.794363 0.505071
vn -0.337478 0.794363 0.505071
vn -0.505071 0.794363 0.337478
vn -0.505071 0.794363 0.337478
vn -0.595772 0.794363 0.118506
vn -0.595772 0.794363 0.118506
vn -0.595772 0.794363 -0.118506
vn -0.595772 0.794363 -0.118506
vn -0.505071 0.794363 -0.337478
vn -0.505071 0.794363 -0.337478
vn -0.337478 0.794363 -0.505071
vn -0.337478 0.794363 -0.505071
vn -0.118506 0.794363 -0.595772
vn -0.118506 0.794363 -0.595772
vn 0.118506 0.794363 -0.595772
vn 0.118506 0.794363 -0.595772
vn 0.337478 0.794363 -0.505071
vn 0.337478 0.794363 -0.505071
vn 0.505071 0.794363 -0.337478
vn 0.505071 0.794363 -0.337478
vn 0.595772 0.794363 -0.118506
vn 0.595772 0.794363 -0.118506
vn 0.000000 1.000000 0.000000
vn 0.000000 1.000000 0.000000
vn 0.000000 1.000000 0.000000
vn 0.000000 1.000000 0.000000
vn 0.000000 1.000000 0.000000
vn 0.000000 1.000000 0.000000
vn 0.000000 1.000000 0.000000
vn 0.000000 1.000000 0.000000
vn 0.000000 1.000000 0.000000
vn 0.000000 1.000000 0.000000
vn 0.000000 1.000000 0.000000
vn 0.000000 1.000000 0.000000
vn 0.000000 1.000000 0.000000
vn 0.000000 1.000000 0.000000
vn 0.000000 1.000000 0.000000
vn 0.000000 1.000000 0.000000
vn 0.000000 1.000000 0.000000
vn 0.000000 1.000000 0.000000
vn -0.000000 1.000000 0.000000
vn 0.000000 1.000000 0.000000
vn -0.000000 1.000000 0.000000
vn 0.000000 1.000000 0.000000
vn 0.000000 1.000000 0.000000
vn -0.000000 1.000000 0.000000
vn 0.000000 1.000000 0.000000
vn 0.000000 1.000000 0.000000
vn 0.000000 1.000000 -0.000000
vn 0.000000 1.000000 0.000000
vn 0.000000 1.000000 -0.000000
vn 0.000000 1.000000 0.000000
vn 0.000000 1.000000 0.000000
vn 0.000000 1.000000 -0.000000
vn -0.920500 0.345188 -0.183099
vn -0.920500 0.345188 -0.183099
vn -0.780362 0.345188 -0.521421
vn -0.780362 0.345188 -0.521421
vn -0.521421 0.345188 -0.780362
vn -0.521421 0.345188 -0.780362
vn -0.183099 0.345188 -0.920500
vn -0.183099 0.345188 -0.920500
vn 0.183099 0.345188 -0.920500
vn 0.183099 0.345188 -0.920500
vn 0.521421 0.345188 -0.780362
vn 0.521421 0.345188 -0.780362
vn 0.780362 0.345188 -0.521421
vn 0.780362 0.345188 -0.521421
vn 0.920500 0.345188 -0.183099
vn 0.920500 0.345188 -0.183099
vn 0.920500 0.345188 0.183099
vn 0.920500 0.345188 0.183099
vn 0.780362 0.345188 0.521421
vn 0.780362 0.345188 0.521421
vn 0.521421 0.345188 0.780362
vn 0.521421 0.345188 0.780362
vn 0.183099 0.345188 0.920500
vn 0.183099 0.345188 0.920500
vn -0.183099 0.345188 0.920500
vn -0.183099 0.345188 0.920500
vn -0.521421 0.345188 0.780362
vn -0.521421 0.345188 0.780362
vn -0.780362 0.345188 0.521421
vn -0.780362 0.345188 0.521421
vn -0.920500 0.345188 0.183099
vn -0.920500 0.345188 0.183099
vn -0.567416 0.815660 -0.112866
vn -0.567416 0.815660 -0.112866
vn -0.481032 0.815660 -0.321415
vn -0.481032 0.815660 -0.321415
vn -0.321415 0.815660 -0.481032
vn -0.321415 0.815660 -0.481032
vn -0.112866 0.815660 -0.567416
vn -0.112866 0.815660 -0.567416
vn 0.112866 0.815660 -0.567416
vn 0.112866 0.815660 -0.567416
vn 0.321415 0.815660 -0.481032
vn 0.321415 0.815660 -0.481032
vn 0.481032 0.815660 -0.321415
vn 0.481032 0.815660 -0.321415
vn 0.567416 0.815660 -0.112866
vn 0.567416 0.815660 -0.112866
vn 0.567416 0.815660 0.112866
vn 0.567416 0.815660 0.112866
vn 0.481032 0.815660 0.321415
vn 0.481032 0.815660 0.321415
vn 0.321415 0.815660 0.481032
vn 0.321415 0.815660 0.481032
vn 0.112866 0.815660 0.567416
vn 0.112866 0.815660 0.567416
vn -0.112866 0.815660 0.567416
vn -0.112866 0.815660 0.567416
vn -0.321415 0.815660 0.481032
vn -0.321415 0.815660 0.481032
vn -0.481032 0.815660 0.321415
vn -0.481032 0.815660 0.321415
vn -0.567416 0.815660 0.112866
vn -0.567416 0.815660 0.112866
vn -0.135064 0.990473 -0.026866
vn -0.114502 0.990473 -0.076508
vn -0.076508 0.990473 -0.114502
vn -0.026866 0.990473 -0.135064
vn 0.026866 0.990473 -0.135064
vn 0.076508 0.990473 -0.114502
vn 0.114502 0.990473 -0.076508
vn 0.135064 0.990473 -0.026866
vn 0.135064 0.990473 0.026866
vn 0.114502 0.990473 0.076508
vn 0.076508 0.990473 0.114502
vn 0.026866 0.990473 0.135064
vn -0.026866 0.990473 0.135064
vn -0.076508 0.990473 0.114502
vn -0.114502 0.990473 0.076508
vn -0.135064 0.990473 0.026866
vn 0.000000 -1.000000 0.000000
vn 0.000000 -1.000000 0.000000
vn 0.000000 -1.000000 0.000000
vn 0.000000 -1.000000 0.000000
vn -0.000000 -1.000000 0.000000
vn 0.000000 -1.000000 0.000000
vn 0.000000 -1.000000 -0.000000
vn 0.000000 -1.000000 0.000000
vn 0.678598 -0.678598 0.281085
vn 0.678598 -0.678598 0.281085
vn 0.281085 -0.678598 0.678598
vn 0.281085 -0.678598 0.678598
vn -0.281085 -0.678598 0.678598
vn -0.281085 -0.678598 0.678598
vn -0.678598 -0.678598 0.281085
vn -0.678598 -0.678598 0.281085
vn -0.678598 -0.678598 -0.281085
vn -0.678598 -0.678598 -0.281085
vn -0.281085 -0.678598 -0.678598
vn -0.281085 -0.678598 -0.678598
vn 0.281085 -0.678598 -0.678598
vn 0.281085 -0.678598 -0.678598
vn 0.678598 -0.678598 -0.281085
vn 0.678598 -0.678598 -0.281085
vn 0.923880 -0.000000 0.382683
vn 0.923880 0.000000 0.382683
vn 0.382683 -0.000000 0.923880
vn 0.382683 0.000000 0.923880
vn -0.382683 0.000000 0.923880
vn -0.382683 0.000000 0.923880
vn -0.923880 0.000000 0.382683
vn -0.923880 0.000000 0.382683
vn -0.923880 0.000000 -0.382683
vn -0.923880 0.000000 -0.382683
vn -0.382683 0.000000 -0.923880
vn -0.382683 0.000000 -0.923880
vn 0.382683 0.000000 -0.923880
vn 0.382683 0.000000 -0.923880
vn 0.923880 0.000000 -0.382683
vn 0.923880 0.000000 -0.382683
vn 0.678598 0.678598 0.281085
vn 0.678598 0.678598 0.281085
vn 0.281085 0.678598 0.678598
vn 0.281085 0.678598 0.678598
vn -0.281085 0.678598 0.678598
vn -0.281085 0.678598 0.678598
vn -0.678598 0.678598 0.281085
vn -0.678598 0.678598 0.281085
vn -0.678598 0.678598 -0.281085
vn -0.678598 0.678598 -0.281085
vn -0.281085 0.678598 -0.678598
vn -0.281085 0.678598 -0.678598
vn 0.281085 0.678598 -0.678598
vn 0.281085 0.678598 -0.678598
vn 0.678598 0.678598 -0.281085
vn 0.678598 0.678598 -0.281085
vn 0.000000 1.000000 0.000000
vn 0.000000 1.000000 0.000000
vn 0.000000 1.000000 0.000000
vn 0.000000 1.000000 0.000000
vn 0.000000 1.000000 0.000000
vn -0.000000 1.000000 0.000000
vn 0.000000 1.000000 0.000000
vn 0.000000 1.000000 -0.000000
vn -0.939373 -0.000000 0.342898
vn -0.939373 -0.000000 0.342898
vn 0.939373 0.000000 -0.342898
vn 0.939373 -0.000000 -0.342898
vn 0.000000 -1.000000 0.000000
vn 0.000000 -1.000000 0.000000
vn 0.000000 1.000000 0.000000
vn 0.000000 1.000000 0.000000
vn -0.342898 -0.000000 -0.939373
vn -0.342898 0.000000 -0.939373
vn 0.342898 -0.000000 0.939373
vn 0.342898 0.000000 0.939373
vn -0.656553 -0.706937 0.263019
vn -0.656553 -0.706937 0.263019
vn -0.666676 0.707089 0.235730
vn -0.666676 0.707089 0.235730
vn 0.651083 -0.706622 -0.277086
vn 0.651083 -0.706622 -0.277086
vn 0.655266 0.706876 -0.266370
vn 0.655266 0.706876 -0.266370
vn -0.906679 0.007226 -0.421760
vn -0.906679 0.007226 -0.421760
vn -0.421580 -0.030166 0.906290
vn -0.421580 -0.030166 0.906290
vn 0.421769 0.003371 -0.906697
vn 0.421769 0.003371 -0.906697
vn 0.906556 0.017976 0.421703
vn 0.906556 0.017976 0.421703
vn -0.223262 -0.706960 -0.671090
vn -0.223262 -0.706960 -0.671090
vn 0.219984 -0.706905 0.672229
vn 0.219984 -0.706905 0.672229
vn -0.225476 0.706992 -0.670316
vn -0.225476 0.706992 -0.670316
vn 0.246591 0.707100 0.662724
vn 0.246591 0.707100 0.662724
vn -0.740319 -0.577350 -0.344375
vn -0.344375 -0.577350 0.740319
vn -0.740319 0.577350 -0.344375
vn -0.344375 0.577350 0.740319
vn 0.344375 -0.577350 -0.740319
vn 0.740319 -0.577350 0.344375
vn 0.344375 0.577350 -0.740319
vn 0.740319 0.577350 0.344375
vn -0.939373 0.000000 0.342898
vn -0.939373 -0.000000 0.342898
vn 0.939373 -0.000000 -0.342898
vn 0.939373 0.000000 -0.342898
vn 0.000000 -1.000000 0.000000
vn 0.000000 -1.000000 0.000000
vn 0.000000 1.000000 0.000000
vn 0.000000 1.000000 0.000000
vn -0.342898 -0.000000 -0.939373
vn -0.342898 0.000000 -0.939373
vn 0.342898 -0.000000 0.939373
vn 0.342898 -0.000000 0.939373
vn -0.657214 -0.706964 0.261287
vn -0.657214 -0.706964 0.261287
vn -0.656040 0.706914 0.264357
vn -0.656040 0.706914 0.264357
vn 0.663383 -0.707105 -0.244797
vn 0.663383 -0.707105 -0.244797
vn 0.659363 0.707037 -0.255614
vn 0.659363 0.707037 -0.255614
vn -0.906634 0.012252 -0.421740
vn -0.906634 0.012252 -0.421740
vn -0.421713 0.016596 0.906577
vn -0.421713 0.016596 0.906577
vn 0.421569 -0.030997 -0.906266
vn 0.421569 -0.030997 -0.906266
vn 0.905775 -0.045213 0.421340
vn 0.905775 -0.045213 0.421340
vn -0.215217 -0.706811 -0.673869
vn -0.215217 -0.706811 -0.673869
vn 0.253302 -0.707060 0.660231
vn 0.253302 -0.707060 0.660231
vn -0.240089 0.707105 -0.665102
vn -0.240089 0.707105 -0.665102
vn 0.217787 0.706864 0.672987
vn 0.217787 0.706864 0.672987
vn -0.740319 -0.577350 -0.344375
vn -0.344375 -0.577350 0.740319
vn -0.740319 0.577350 -0.344375
vn -0.344375 0.577350 0.740319
vn 0.344375 -0.577350 -0.740319
vn 0.740319 -0.577350 0.344375
vn 0.344375 0.577350 -0.740319
vn 0.740319 0.577350 0.344375
vn -0.939373 -0.000000 0.342898
vn -0.939373 0.000000 0.342898
vn 0.939373 0.000000 -0.342898
vn 0.939373 0.000000 -0.342898
vn 0.000000 -1.000000 0.000000
vn 0.000000 -1.000000 0.000000
vn 0.000000 1.000000 0.000000
vn 0.000000 1.000000 0.000000
vn -0.342898 -0.000000 -0.939373
vn -0.342898 -0.000000 -0.939373
vn 0.342898 -0.000000 0.939373
vn 0.342898 0.000000 0.939373
vn -0.642507 -0.705837 0.298294
vn -0.642507 -0.705837 0.298294
vn -0.659361 0.707037 0.255620
vn -0.659361 0.707037 0.255620
vn 0.648157 -0.706392 -0.284434
vn 0.648157 -0.706392 -0.284434
vn 0.664191 0.707107 -0.242591
vn 0.664191 0.707107 -0.242591
vn -0.905686 0.047322 -0.421299
vn -0.905686 0.047322 -0.421299
vn -0.421734 -0.013401 0.906621
vn -0.421734 -0.013401 0.906621
vn 0.421408 -0.041527 -0.905920
vn 0.421408 -0.041527 -0.905920
vn 0.906562 0.017580 0.421706
vn 0.906562 0.017580 0.421706
vn -0.209384 -0.706672 -0.675850
vn -0.209384 -0.706672 -0.675850
vn 0.202902 -0.706486 0.678018
vn 0.202902 -0.706486 0.678018
vn -0.256118 0.707032 -0.659173
vn -0.256118 0.707032 -0.659173
vn 0.219085 0.706889 0.672540
vn 0.219085 0.706889 0.672540
vn -0.740319 -0.577350 -0.344375
vn -0.344375 -0.577350 0.740319
vn -0.740319 0.577350 -0.344375
vn -0.344375 0.577350 0.740319
vn 0.344375 -0.577350 -0.740319
vn 0.740319 -0.577350 0.344375
vn 0.344375 0.577350 -0.740319
vn 0.740319 0.577350 0.344375
g stone_000
usemtl stone_0
s off
f 1//1 2//1 3//1
f 1//2 3//2 4//2
f 1//3 4//3 5//3
f 1//4 5//4 6//4
f 1//5 6//5 7//5
f 1//6 7//6 8//6
f 1//7 8//7 9//7
f 1//8 9//8 10//8
f 1//9 10//9 11//9
f 1//10 11//10 12//10
f 1//11 12//11 13//11
f 1//12 13//12 14//12
f 1//13 14//13 15//13
f 1//14 15//14 16//14
f 1//15 16//15 17//15
f 1//16 17//16 18//16
f 1//17 18//17 19//17
f 1//18 19//18 20//18
f 1//19 20//19 21//19
f 1//20 21//20 2//20
f 2//21 22//21 23//21
f 2//22 23//22 3//22
f 3//23 23//23 24//23
f 3//24 24//24 4//24
f 4//25 24//25 25//25
f 4//26 25//26 5//26
f 5//27 25//27 26//27
f 5//28 26//28 6//28
f 6//29 26//29 27//29
f 6//30 27//30 7//30
f 7//31 27//31 28//31
f 7//32 28//32 8//32
f 8//33 28//33 29//33
f 8//34 29//34 9//34
f 9//35 29//35 30//35
f 9//36 30//36 10//36
f 10//37 30//37 31//37
f 10//38 31//38 11//38
f 11//39 31//39 32//39
f 11//40 32//40 12//40
f 12//41 32//41 33//41
f 12//42 33//42 13//42
f 13//43 33//43 34//43
f 13//44 34//44 14//44
f 14//45 34//45 35//45
f 14//46 35//46 15//46
f 15//47 35//47 36//47
f 15//48 36//48 16//48
f 16//49 36//49 37//49
f 16//50 37//50 17//50
f 17//51 37//51 38//51
f 17//52 38//52 18//52
f 18//53 38//53 39//53
f 18//54 39//54 19//54
f 19//55 39//55 40//55
f 19//56 40//56 20//56
f 20//57 40//57 41//57
f 20//58 41//58 21//58
f 21//59 41//59 22//59
f 21//60 22//60 2//60
f 22//61 42//61 43//61
f 22//62 43//62 23//62
f 23//63 43//63 44//63
f 23//64 44//64 24//64
f 24//65 44//65 45//65
f 24//66 45//66 25//66
f 25//67 45//67 46//67
f 25//68 46//68 26//68
f 26//69 46//69 47//69
f 26//70 47//70 27//70
f 27//71 47//71 48//71
f 27//72 48//72 28//72
f 28//73 48//73 49//73
f 28//74 49//74 29//74
f 29//75 49//75 50//75
f 29//76 50//76 30//76
f 30//77 50//77 51//77
f 30//78 51//78 31//78
f 31//79 51//79 52//79
f 31//80 52//80 32//80
f 32//81 52//81 53//81
f 32//82 53//82 33//82
f 33//83 53//83 54//83
f 33//84 54//84 34//84
f 34//85 54//85 55//85
f 34//86 55//86 35//86
f 35//87 55//87 56//87
f 35//88 56//88 36//88
f 36//89 56//89 57//89
f 36//90 57//90 37//90
f 37//91 57//91 58//91
f 37//92 58//92 38//92
f 38//93 58//93 59//93
f 38//94 59//94 39//94
f 39//95 59//95 60//95
f 39//96 60//96 40//96
f 40//97 60//97 61//97
f 40//98 61//98 41//98
f 41//99 61//99 42//99
f 41//100 42//100 22//100
f 42//101 62//101 63//101
f 42//102 63//102 43//102
f 43//103 63//103 64//103
f 43//104 64//104 44//104
f 44//105 64//105 65//105
f 44//106 65//106 45//106
f 45//107 65//107 66//107
f 45//108 66//108 46//108
f 46//109 66//109 67//109
f 46//110 67//110 47//110
f 47//111 67//111 68//111
f 47//112 68//112 48//112
f 48//113 68//113 69//113
f 48//114 69//114 49//114
f 49//115 69//115 70//115
f 49//116 70//116 50//116
f 50//117 70//117 71//117
f 50//118 71//118 51//118
f 51//119 71//119 72//119
f 51//120 72//120 52//120
f 52//121 72//121 73//121
f 52//122 73//122 53//122
f 53//123 73//123 74//123
f 53//124 74//124 54//124
f 54//125 74//125 75//125
f 54//126 75//126 55//126
f 55//127 75//127 76//127
f 55//128 76//128 56//128
f 56//129 76//129 77//129
f 56//130 77//130 57//130
f 57//131 77//131 78//131
f 57//132 78//132 58//132
f 58//133 78//133 79//133
f 58//134 79//134 59//134
f 59//135 79//135 80//135
f 59//136 80//136 60//136
f 60//137 80//137 81//137
f 60//138 81//138 61//138
f 61//139 81//139 62//139
f 61//140 62//140 42//140
f 62//141 82//141 63//141
f 63//142 82//142 64//142
f 64//143 82//143 65//143
f 65//144 82//144 66//144
f 66//145 82//145 67//145
f 67//146 82//146 68//146
f 68//147 82//147 69//147
f 69//148 82//148 70//148
f 70//149 82//149 71//149
f 71//150 82//150 72//150
f 72//151 82//151 73//151
f 73//152 82//152 74//152
f 74//153 82//153 75//153
f 75//154 82//154 76//154
f 76//155 82//155 77//155
f 77//156 82//156 78//156
f 78//157 82//157 79//157
f 79//158 82//158 80//158
f 80//159 82//159 81//159
f 81//160 82//160 62//160
g stone_001
usemtl stone_1
s off
f 83//161 84//161 85//161
f 83//162 85//162 86//162
f 83//163 86//163 87//163
f 83//164 87//164 88//164
f 83//165 88//165 89//165
f 83//166 89//166 90//166
f 83//167 90//167 91//167
f 83//168 91//168 92//168
f 83//169 92//169 93//169
f 83//170 93//170 94//170
f 83//171 94//171 95//171
f 83//172 95//172 96//172
f 83//173 96//173 97//173
f 83//174 97//174 98//174
f 83//175 98//175 99//175
f 83//176 99//176 100//176
f 83//177 100//177 101//177
f 83//178 101//178 102//178
f 83//179 102//179 103//179
f 83//180 103//180 84//180
f 84//181 104//181 105//181
f 84//182 105//182 85//182
f 85//183 105//183 106//183
f 85//184 106//184 86//184
f 86//185 106//185 107//185
f 86//186 107//186 87//186
f 87//187 107//187 108//187
f 87//188 108//188 88//188
f 88//189 108//189 109//189
f 88//190 109//190 89//190
f 89//191 109//191 110//191
f 89//192 110//192 90//192
f 90//193 110//193 111//193
f 90//194 111//194 91//194
f 91//195 111//195 112//195
f 91//196 112//196 92//196
f 92//197 112//197 113//197
f 92//198 113//198 93//198
f 93//199 113//199 114//199
f 93//200 114//200 94//200
f 94//201 114//201 115//201
f 94//202 115//202 95//202
f 95//203 115//203 116//203
f 95//204 116//204 96//204
f 96//205 116//205 117//205
f 96//206 117//206 97//206
f 97//207 117//207 118//207
f 97//208 118//208 98//208
f 98//209 118//209 119//209
f 98//210 119//210 99//210
f 99//211 119//211 120//211
f 99//212 120//212 100//212
f 100//213 120//213 121//213
f 100//214 121//214 101//214
f 101//215 121//215 122//215
f 101//216 122//216 102//216
f 102//217 122//217 123//217
f 102//218 123//218 103//218
f 103//219 123//219 104//219
f 103//220 104//220 84//220
f 104//221 124//221 125//221
f 104//222 125//222 105//222
f 105//223 125//223 126//223
f 105//224 126//224 106//224
f 106//225 126//225 127//225
f 106//226 127//226 107//226
f 107//227 127//227 128//227
f 107//228 128//228 108//228
f 108//229 128//229 129//229
f 108//230 129//230 109//230
f 109//231 129//231 130//231
f 109//232 130//232 110//232
f 110//233 130//233 131//233
f 110//234 131//234 111//234
f 111//235 131//235 132//235
f 111//236 132//236 112//236
f 112//237 132//237 133//237
f 112//238 133//238 113//238
f 113//239 133//239 134//239
f 113//240 134//240 114//240
f 114//241 134//241 135//241
f 114//242 135//242 115//242
f 115//243 135//243 136//243
f 115//244 136//244 116//244
f 116//245 136//245 137//245
f 116//246 137//246 117//246
f 117//247 137//247 138//247
f 117//248 138//248 118//248
f 118//249 138//249 139//249
f 118//250 139//250 119//250
f 119//251 139//251 140//251
f 119//252 140//252 120//252
f 120//253 140//253 141//253
f 120//254 141//254 121//254
f 121//255 141//255 142//255
f 121//256 142//256 122//256
f 122//257 142//257 143//257
f 122//258 143//258 123//258
f 123//259 143//259 124//259
f 123//260 124//260 104//260
f 124//261 144//261 145//261
f 124//262 145//262 125//262
f 125//263 145//263 146//263
f 125//264 146//264 126//264
f 126//265 146//265 147//265
f 126//266 147//266 127//266
f 127//267 147//267 148//267
f 127//268 148//268 128//268
f 128//269 148//269 149//269
f 128//270 149//270 129//270
f 129//271 149//271 150//271
f 129//272 150//272 130//272
f 130//273 150//273 151//273
f 130//274 151//274 131//274
f 131//275 151//275 152//275
f 131//276 152//276 132//276
f 132//277 152//277 153//277
f 132//278 153//278 133//278
f 133//279 153//279 154//279
f 133//280 154//280 134//280
f 134//281 154//281 155//281
f 134//282 155//282 135//282
f 135//283 155//283 156//283
f 135//284 156//284 136//284
f 136//285 156//285 157//285
f 136//286 157//286 137//286
f 137//287 157//287 158//287
f 137//288 158//288 138//288
f 138//289 158//289 159//289
f 138//290 159//290 139//290
f 139//291 159//291 160//291
f 139//292 160//292 140//292
f 140//293 160//293 161//293
f 140//294 161//294 141//294
f 141//295 161//295 162//295
f 141//296 162//296 142//296
f 142//297 162//297 163//297
f 142//298 163//298 143//298
f 143//299 163//299 144//299
f 143//300 144//300 124//300
f 144//301 164//301 165//301
f 144//302 165//302 145//302
f 145//303 165//303 166//303
f 145//304 166//304 146//304
f 146//305 166//305 167//305
f 146//306 167//306 147//306
f 147//307 167//307 168//307
f 147//308 168//308 148//308
f 148//309 168//309 169//309
f 148//310 169//310 149//310
f 149//311 169//311 170//311
f 149//312 170//312 150//312
f 150//313 170//313 171//313
f 150//314 171//314 151//314
f 151//315 171//315 172//315
f 151//316 172//316 152//316
f 152//317 172//317 173//317
f 152//318 173//318 153//318
f 153//319 173//319 174//319
f 153//320 174//320 154//320
f 154//321 174//321 175//321
f 154//322 175//322 155//322
f 155//323 175//323 176//323
f 155//324 176//324 156//324
f 156//325 176//325 177//325
f 156//326 177//326 157//326
f 157//327 177//327 178//327
f 157//328 178//328 158//328
f 158//329 178//329 179//329
f 158//330 179//330 159//330
f 159//331 179//331 180//331
f 159//332 180//332 160//332
f 160//333 180//333 181//333
f 160//334 181//334 161//334
f 161//335 181//335 182//335
f 161//336 182//336 162//336
f 162//337 182//337 183//337
f 162//338 183//338 163//338
f 163//339 183//339 164//339
f 163//340 164//340 144//340
f 164//341 184//341 185//341
f 164//342 185//342 165//342
f 165//343 185//343 186//343
f 165//344 186//344 166//344
f 166//345 186//345 187//345
f 166//346 187//346 167//346
f 167//347 187//347 188//347
f 167//348 188//348 168//348
f 168//349 188//349 189//349
f 168//350 189//350 169//350
f 169//351 189//351 190//351
f 169//352 190//352 170//352
f 170//353 190//353 191//353
f 170//354 191//354 171//354
f 171//355 191//355 192//355
f 171//356 192//356 172//356
f 172//357 192//357 193//357
f 172//358 193//358 173//358
f 173//359 193//359 194//359
f 173//360 194//360 174//360
f 174//361 194//361 195//361
f 174//362 195//362 175//362
f 175//363 195//363 196//363
f 175//364 196//364 176//364
f 176//365 196//365 197//365
f 176//366 197//366 177//366
f 177//367 197//367 198//367
f 177//368 198//368 178//368
f 178//369 198//369 199//369
f 178//370 199//370 179//370
f 179//371 199//371 200//371
f 179//372 200//372 180//372
f 180//373 200//373 201//373
f 180//374 201//374 181//374
f 181//375 201//375 202//375
f 181//376 202//376 182//376
f 182//377 202//377 203//377
f 182//378 203//378 183//378
f 183//379 203//379 184//379
f 183//380 184//380 164//380
f 184//381 204//381 205//381
f 184//382 205//382 185//382
f 185//383 205//383 206//383
f 185//384 206//384 186//384
f 186//385 206//385 207//385
f 186//386 207//386 187//386
f 187//387 207//387 208//387
f 187//388 208//388 188//388
f 188//389 208//389 209//389
f 188//390 209//390 189//390
f 189//391 209//391 210//391
f 189//392 210//392 190//392
f 190//393 210//393 211//393
f 190//394 211//394 191//394
f 191//395 211//395 212//395
f 191//396 212//396 192//396
f 192//397 212//397 213//397
f 192//398 213//398 193//398
f 193//399 213//399 214//399
f 193//400 214//400 194//400
f 194//401 214//401 215//401
f 194//402 215//402 195//402
f 195//403 215//403 216//403
f 195//404 216//404 196//404
f 196//405 216//405 217//405
f 196//406 217//406 197//406
f 197//407 217//407 218//407
f 197//408 218//408 198//408
f 198//409 218//409 219//409
f 198//410 219//410 199//410
f 199//411 219//411 220//411
f 199//412 220//412 200//412
f 200//413 220//413 221//413
f 200//414 221//414 201//414
f 201//415 221//415 222//415
f 201//416 222//416 202//416
f 202//417 222//417 223//417
f 202//418 223//418 203//418
f 203//419 223//419 204//419
f 203//420 204//420 184//420
f 204//421 224//421 225//421
f 204//422 225//422 205//422
f 205//423 225//423 226//423
f 205//424 226//424 206//424
f 206//425 226//425 227//425
f 206//426 227//426 207//426
f 207//427 227//427 228//427
f 207//428 228//428 208//428
f 208//429 228//429 229//429
f 208//430 229//430 209//430
f 209//431 229//431 230//431
f 209//432 230//432 210//432
f 210//433 230//433 231//433
f 210//434 231//434 211//434
f 211//435 231//435 232//435
f 211//436 232//436 212//436
f 212//437 232//437 233//437
f 212//438 233//438 213//438
f 213//439 233//439 234//439
f 213//440 234//440 214//440
f 214//441 234//441 235//441
f 214//442 235//442 215//442
f 215//443 235//443 236//443
f 215//444 236//444 216//444
f 216//445 236//445 237//445
f 216//446 237//446 217//446
f 217//447 237//447 238//447
f 217//448 238//448 218//448
f 218//449 238//449 239//449
f 218//450 239//450 219//450
f 219//451 239//451 240//451
f 219//452 240//452 220//452
f 220//453 240//453 241//453
f 220//454 241//454 221//454
f 221//455 241//455 242//455
f 221//456 242//456 222//456
f 222//457 242//457 243//457
f 222//458 243//458 223//458
f 223//459 243//459 224//459
f 223//460 224//460 204//460
f 224//461 244//461 245//461
f 224//462 245//462 225//462
f 225//463 245//463 246//463
f 225//464 246//464 226//464
f 226//465 246//465 247//465
f 226//466 247//466 227//466
f 227//467 247//467 248//467
f 227//468 248//468 228//468
f 228//469 248//469 249//469
f 228//470 249//470 229//470
f 229//471 249//471 250//471
f 229//472 250//472 230//472
f 230//473 250//473 251//473
f 230//474 251//474 231//474
f 231//475 251//475 252//475
f 231//476 252//476 232//476
f 232//477 252//477 253//477
f 232//478 253//478 233//478
f 233//479 253//479 254//479
f 233//480 254//480 234//480
f 234//481 254//481 255//481
f 234//482 255//482 235//482
f 235//483 255//483 256//483
f 235//484 256//484 236//484
f 236//485 256//485 257//485
f 236//486 257//486 237//486
f 237//487 257//487 258//487
f 237//488 258//488 238//488
f 238//489 258//489 259//489
f 238//490 259//490 239//490
f 239//491 259//491 260//491
f 239//492 260//492 240//492
f 240//493 260//493 261//493
f 240//494 261//494 241//494
f 241//495 261//495 262//495
f 241//496 262//496 242//496
f 242//497 262//497 263//497
f 242//498 263//498 243//498
f 243//499 263//499 244//499
f 243//500 244//500 224//500
f 244//501 264//501 265//501
f 244//502 265//502 245//502
f 245//503 265//503 266//503
f 245//504 266//504 246//504
f 246//505 266//505 267//505
f 246//506 267//506 247//506
f 247//507 267//507 268//507
f 247//508 268//508 248//508
f 248//509 268//509 269//509
f 248//510 269//510 249//510
f 249//511 269//511 270//511
f 249//512 270//512 250//512
f 250//513 270//513 271//513
f 250//514 271//514 251//514
f 251//515 271//515 272//515
f 251//516 272//516 252//516
f 252//517 272//517 273//517
f 252//518 273//518 253//518
f 253//519 273//519 274//519
f 253//520 274//520 254//520
f 254//521 274//521 275//521
f 254//522 275//522 255//522
f 255//523 275//523 276//523
f 255//524 276//524 256//524
f 256//525 276//525 277//525
f 256//526 277//526 257//526
f 257//527 277//527 278//527
f 257//528 278//528 258//528
f 258//529 278//529 279//529
f 258//530 279//530 259//530
f 259//531 279//531 280//531
f 259//532 280//532 260//532
f 260//533 280//533 281//533
f 260//534 281//534 261//534
f 261//535 281//535 282//535
f 261//536 282//536 262//536
f 262//537 282//537 283//537
f 262//538 283//538 263//538
f 263//539 283//539 264//539
f 263//540 264//540 244//540
f 264//541 284//541 285//541
f 264//542 285//542 265//542
f 265//543 285//543 286//543
f 265//544 286//544 266//544
f 266//545 286//545 287//545
f 266//546 287//546 267//546
f 267//547 287//547 288//547
f 267//548 288//548 268//548
f 268//549 288//549 289//549
f 268//550 289//550 269//550
f 269//551 289//551 290//551
f 269//552 290//552 270//552
f 270//553 290//553 291//553
f 270//554 291//554 271//554
f 271//555 291//555 292//555
f 271//556 292//556 272//556
f 272//557 292//557 293//557
f 272//558 293//558 273//558
f 273//559 293//559 294//559
f 273//560 294//560 274//560
f 274//561 294//561 295//561
f 274//562 295//562 275//562
f 275//563 295//563 296//563
f 275//564 296//564 276//564
f 276//565 296//565 297//565
f 276//566 297//566 277//566
f 277//567 297//567 298//567
f 277//568 298//568 278//568
f 278//569 298//569 299//569
f 278//570 299//570 279//570
f 279//571 299//571 300//571
f 279//572 300//572 280//572
f 280//573 300//573 301//573
f 280//574 301//574 281//574
f 281//575 301//575 302//575
f 281//576 302//576 282//576
f 282//577 302//577 303//577
f 282//578 303//578 283//578
f 283//579 303//579 284//579
f 283//580 284//580 264//580
f 284//581 304//581 285//581
f 285//582 304//582 286//582
f 286//583 304//583 287//583
f 287//584 304//584 288//584
f 288//585 304//585 289//585
f 289//586 304//586 290//586
f 290//587 304//587 291//587
f 291//588 304//588 292//588
f 292//589 304//589 293//589
f 293//590 304//590 294//590
f 294//591 304//591 295//591
f 295//592 304//592 296//592
f 296//593 304//593 297//593
f 297//594 304//594 298//594
f 298//595 304//595 299//595
f 299//596 304//596 300//596
f 300//597 304//597 301//597
f 301//598 304//598 302//598
f 302//599 304//599 303//599
f 303//600 304//600 284//600
g stone_002
usemtl stone_0
s off
f 305//601 306//601 307//601
f 305//602 307//602 308//602
f 305//603 308//603 309//603
f 305//604 309//604 310//604
f 305//605 310//605 311//605
f 305//606 311//606 312//606
f 305//607 312//607 313//607
f 305//608 313//608 314//608
f 305//609 314//609 315//609
f 305//610 315//610 316//610
f 305//611 316//611 317//611
f 305//612 317//612 306//612
f 306//613 318//613 319//613
f 306//614 319//614 307//614
f 307//615 319//615 320//615
f 307//616 320//616 308//616
f 308//617 320//617 321//617
f 308//618 321//618 309//618
f 309//619 321//619 322//619
f 309//620 322//620 310//620
f 310//621 322//621 323//621
f 310//622 323//622 311//622
f 311//623 323//623 324//623
f 311//624 324//624 312//624
f 312//625 324//625 325//625
f 312//626 325//626 313//626
f 313//627 325//627 326//627
f 313//628 326//628 314//628
f 314//629 326//629 327//629
f 314//630 327//630 315//630
f 315//631 327//631 328//631
f 315//632 328//632 316//632
f 316//633 328//633 329//633
f 316//634 329//634 317//634
f 317//635 329//635 318//635
f 317//636 318//636 306//636
f 318//637 330//637 331//637
f 318//638 331//638 319//638
f 319//639 331//639 332//639
f 319//640 332//640 320//640
f 320//641 332//641 333//641
f 320//642 333//642 321//642
f 321//643 333//643 334//643
f 321//644 334//644 322//644
f 322//645 334//645 335//645
f 322//646 335//646 323//646
f 323//647 335//647 336//647
f 323//648 336//648 324//648
f 324//649 336//649 337//649
f 324//650 337//650 325//650
f 325//651 337//651 338//651
f 325//652 338//652 326//652
f 326//653 338//653 339//653
f 326//654 339//654 327//654
f 327//655 339//655 340//655
f 327//656 340//656 328//656
f 328//657 340//657 341//657
f 328//658 341//658 329//658
f 329//659 341//659 330//659
f 329//660 330//660 318//660
f 330//661 342//661 343//661
f 330//662 343//662 331//662
f 331//663 343//663 344//663
f 331//664 344//664 332//664
f 332//665 344//665 345//665
f 332//666 345//666 333//666
f 333//667 345//667 346//667
f 333//668 346//668 334//668
f 334//669 346//669 347//669
f 334//670 347//670 335//670
f 335//671 347//671 348//671
f 335//672 348//672 336//672
f 336//673 348//673 349//673
f 336//674 349//674 337//674
f 337//675 349//675 350//675
f 337//676 350//676 338//676
f 338//677 350//677 351//677
f 338//678 351//678 339//678
f 339//679 351//679 352//679
f 339//680 352//680 340//680
f 340//681 352//681 353//681
f 340//682 353//682 341//682
f 341//683 353//683 342//683
f 341//684 342//684 330//684
f 342//685 354//685 343//685
f 343//686 354//686 344//686
f 344//687 354//687 345//687
f 345//688 354//688 346//688
f 346//689 354//689 347//689
f 347//690 354//690 348//690
f 348//691 354//691 349//691
f 349//692 354//692 350//692
f 350//693 354//693 351//693
f 351//694 354//694 352//694
f 352//695 354//695 353//695
f 353//696 354//696 342//696
g stone_003
usemtl stone_1
s off
f 355//697 356//697 357//697
f 355//698 357//698 358//698
f 355//699 358//699 359//699
f 355//700 359//700 360//700
f 355//701 360//701 361//701
f 355//702 361//702 362//702
f 355//703 362//703 363//703
f 355//704 363//704 364//704
f 355//705 364//705 365//705
f 355//706 365//706 366//706
f 355//707 366//707 367//707
f 355//708 367//708 356//708
f 356//709 368//709 369//709
f 356//710 369//710 357//710
f 357//711 369//711 370//711
f 357//712 370//712 358//712
f 358//713 370//713 371//713
f 358//714 371//714 359//714
f 359//715 371//715 372//715
f 359//716 372//716 360//716
f 360//717 372//717 373//717
f 360//718 373//718 361//718
f 361//719 373//719 374//719
f 361//720 374//720 362//720
f 362//721 374//721 375//721
f 362//722 375//722 363//722
f 363//723 375//723 376//723
f 363//724 376//724 364//724
f 364//725 376//725 377//725
f 364//726 377//726 365//726
f 365//727 377//727 378//727
f 365//728 378//728 366//728
f 366//729 378//729 379//729
f 366//730 379//730 367//730
f 367//731 379//731 368//731
f 367//732 368//732 356//732
f 368//733 380//733 381//733
f 368//734 381//734 369//734
f 369//735 381//735 382//735
f 369//736 382//736 370//736
f 370//737 382//737 383//737
f 370//738 383//738 371//738
f 371//739 383//739 384//739
f 371//740 384//740 372//740
f 372//741 384//741 385//741
f 372//742 385//742 373//742
f 373//743 385//743 386//743
f 373//744 386//744 374//744
f 374//745 386//745 387//745
f 374//746 387//746 375//746
f 375//747 387//747 388//747
f 375//748 388//748 376//748
f 376//749 388//749 389//749
f 376//750 389//750 377//750
f 377//751 389//751 390//751
f 377//752 390//752 378//752
f 378//753 390//753 391//753
f 378//754 391//754 379//754
f 379//755 391//755 380//755
f 379//756 380//756 368//756
f 380//757 392//757 393//757
f 380//758 393//758 381//758
f 381//759 393//759 394//759
f 381//760 394//760 382//760
f 382//761 394//761 395//761
f 382//762 395//762 383//762
f 383//763 395//763 396//763
f 383//764 396//764 384//764
f 384//765 396//765 397//765
f 384//766 397//766 385//766
f 385//767 397//767 398//767
f 385//768 398//768 386//768
f 386//769 398//769 399//769
f 386//770 399//770 387//770
f 387//771 399//771 400//771
f 387//772 400//772 388//772
f 388//773 400//773 401//773
f 388//774 401//774 389//774
f 389//775 401//775 402//775
f 389//776 402//776 390//776
f 390//777 402//777 403//777
f 390//778 403//778 391//778
f 391//779 403//779 392//779
f 391//780 392//780 380//780
f 392//781 404//781 393//781
f 393//782 404//782 394//782
f 394//783 404//783 395//783
f 395//784 404//784 396//784
f 396//785 404//785 397//785
f 397//786 404//786 398//786
f 398//787 404//787 399//787
f 399//788 404//788 400//788
f 400//789 404//789 401//789
f 401//790 404//790 402//790
f 402//791 404//791 403//791
f 403//792 404//792 392//792
g stone_004
usemtl stone_2
s off
f 405//793 406//793 407//793
f 405//794 407//794 408//794
f 405//795 408//795 409//795
f 405//796 409//796 410//796
f 405//797 410//797 411//797
f 405//798 411//798 412//798
f 405//799 412//799 413//799
f 405//800 413//800 414//800
f 405//801 414//801 415//801
f 405//802 415//802 416//802
f 405//803 416//803 417//803
f 405//804 417//804 418//804
f 405//805 418//805 419//805
f 405//806 419//806 420//806
f 405//807 420//807 421//807
f 405//808 421//808 406//808
f 406//809 422//809 423//809
f 406//810 423//810 407//810
f 407//811 423//811 424//811
f 407//812 424//812 408//812
f 408//813 424//813 425//813
f 408//814 425//814 409//814
f 409//815 425//815 426//815
f 409//816 426//816 410//816
f 410//817 426//817 427//817
f 410//818 427//818 411//818
f 411//819 427//819 428//819
f 411//820 428//820 412//820
f 412//821 428//821 429//821
f 412//822 429//822 413//822
f 413//823 429//823 430//823
f 413//824 430//824 414//824
f 414//825 430//825 431//825
f 414//826 431//826 415//826
f 415//827 431//827 432//827
f 415//828 432//828 416//828
f 416//829 432//829 433//829
f 416//830 433//830 417//830
f 417//831 433//831 434//831
f 417//832 434//832 418//832
f 418//833 434//833 435//833
f 418//834 435//834 419//834
f 419//835 435//835 436//835
f 419//836 436//836 420//836
f 420//837 436//837 437//837
f 420//838 437//838 421//838
f 421//839 437//839 422//839
f 421//840 422//840 406//840
f 422//841 438//841 439//841
f 422//842 439//842 423//842
f 423//843 439//843 440//843
f 423//844 440//844 424//844
f 424//845 440//845 441//845
f 424//846 441//846 425//846
f 425//847 441//847 442//847
f 425//848 442//848 426//848
f 426//849 442//849 443//849
f 426//850 443//850 427//850
f 427//851 443//851 444//851
f 427//852 444//852 428//852
f 428//853 444//853 445//853
f 428//854 445//854 429//854
f 429//855 445//855 446//855
f 429//856 446//856 430//856
f 430//857 446//857 447//857
f 430//858 447//858 431//858
f 431//859 447//859 448//859
f 431//860 448//860 432//860
f 432//861 448//861 449//861
f 432//862 449//862 433//862
f 433//863 449//863 450//863
f 433//864 450//864 434//864
f 434//865 450//865 451//865
f 434//866 451//866 435//866
f 435//867 451//867 452//867
f 435//868 452//868 436//868
f 436//869 452//869 453//869
f 436//870 453//870 437//870
f 437//871 453//871 438//871
f 437//872 438//872 422//872
f 438//873 454//873 455//873
f 438//874 455//874 439//874
f 439//875 455//875 456//875
f 439//876 456//876 440//876
f 440//877 456//877 457//877
f 440//878 457//878 441//878
f 441//879 457//879 458//879
f 441//880 458//880 442//880
f 442//881 458//881 459//881
f 442//882 459//882 443//882
f 443//883 459//883 460//883
f 443//884 460//884 444//884
f 444//885 460//885 461//885
f 444//886 461//886 445//886
f 445//887 461//887 462//887
f 445//888 462//888 446//888
f 446//889 462//889 463//889
f 446//890 463//890 447//890
f 447//891 463//891 464//891
f 447//892 464//892 448//892
f 448//893 464//893 465//893
f 448//894 465//894 449//894
f 449//895 465//895 466//895
f 449//896 466//896 450//896
f 450//897 466//897 467//897
f 450//898 467//898 451//898
f 451//899 467//899 468//899
f 451//900 468//900 452//900
f 452//901 468//901 469//901
f 452//902 469//902 453//902
f 453//903 469//903 454//903
f 453//904 454//904 438//904
f 454//905 470//905 471//905
f 454//906 471//906 455//906
f 455//907 471//907 472//907
f 455//908 472//908 456//908
f 456//909 472//909 473//909
f 456//910 473//910 457//910
f 457//911 473//911 474//911
f 457//912 474//912 458//912
f 458//913 474//913 475//913
f 458//914 475//914 459//914
f 459//915 475//915 476//915
f 459//916 476//916 460//916
f 460//917 476//917 477//917
f 460//918 477//918 461//918
f 461//919 477//919 478//919
f 461//920 478//920 462//920
f 462//921 478//921 479//921
f 462//922 479//922 463//922
f 463//923 479//923 480//923
f 463//924 480//924 464//924
f 464//925 480//925 481//925
f 464//926 481//926 465//926
f 465//927 481//927 482//927
f 465//928 482//928 466//928
f 466//929 482//929 483//929
f 466//930 483//930 467//930
f 467//931 483//931 484//931
f 467//932 484//932 468//932
f 468//933 484//933 485//933
f 468//934 485//934 469//934
f 469//935 485//935 470//935
f 469//936 470//936 454//936
f 470//937 486//937 487//937
f 470//938 487//938 471//938
f 471//939 487//939 488//939
f 471//940 488//940 472//940
f 472//941 488//941 489//941
f 472//942 489//942 473//942
f 473//943 489//943 490//943
f 473//944 490//944 474//944
f 474//945 490//945 491//945
f 474//946 491//946 475//946
f 475//947 491//947 492//947
f 475//948 492//948 476//948
f 476//949 492//949 493//949
f 476//950 493//950 477//950
f 477//951 493//951 494//951
f 477//952 494//952 478//952
f 478//953 494//953 495//953
f 478//954 495//954 479//954
f 479//955 495//955 496//955
f 479//956 496//956 480//956
f 480//957 496//957 497//957
f 480//958 497//958 481//958
f 481//959 497//959 498//959
f 481//960 498//960 482//960
f 482//961 498//961 499//961
f 482//962 499//962 483//962
f 483//963 499//963 500//963
f 483//964 500//964 484//964
f 484//965 500//965 501//965
f 484//966 501//966 485//966
f 485//967 501//967 486//967
f 485//968 486//968 470//968
f 486//969 502//969 503//969
f 486//970 503//970 487//970
f 487//971 503//971 504//971
f 487//972 504//972 488//972
f 488//973 504//973 505//973
f 488//974 505//974 489//974
f 489//975 505//975 506//975
f 489//976 506//976 490//976
f 490//977 506//977 507//977
f 490//978 507//978 491//978
f 491//979 507//979 508//979
f 491//980 508//980 492//980
f 492//981 508//981 509//981
f 492//982 509//982 493//982
f 493//983 509//983 510//983
f 493//984 510//984 494//984
f 494//985 510//985 511//985
f 494//986 511//986 495//986
f 495//987 511//987 512//987
f 495//988 512//988 496//988
f 496//989 512//989 513//989
f 496//990 513//990 497//990
f 497//991 513//991 514//991
f 497//992 514//992 498//992
f 498//993 514//993 515//993
f 498//994 515//994 499//994
f 499//995 515//995 516//995
f 499//996 516//996 500//996
f 500//997 516//997 517//997
f 500//998 517//998 501//998
f 501//999 517//999 502//999
f 501//1000 502//1000 486//1000
f 502//1001 518//1001 519//1001
f 502//1002 519//1002 503//1002
f 503//1003 519//1003 520//1003
f 503//1004 520//1004 504//1004
f 504//1005 520//1005 521//1005
f 504//1006 521//1006 505//1006
f 505//1007 521//1007 522//1007
f 505//1008 522//1008 506//1008
f 506//1009 522//1009 523//1009
f 506//1010 523//1010 507//1010
f 507//1011 523//1011 524//1011
f 507//1012 524//1012 508//1012
f 508//1013 524//1013 525//1013
f 508//1014 525//1014 509//1014
f 509//1015 525//1015 526//1015
f 509//1016 526//1016 510//1016
f 510//1017 526//1017 527//1017
f 510//1018 527//1018 511//1018
f 511//1019 527//1019 528//1019
f 511//1020 528//1020 512//1020
f 512//1021 528//1021 529//1021
f 512//1022 529//1022 513//1022
f 513//1023 529//1023 530//1023
f 513//1024 530//1024 514//1024
f 514//1025 530//1025 531//1025
f 514//1026 531//1026 515//1026
f 515//1027 531//1027 532//1027
f 515//1028 532//1028 516//1028
f 516//1029 532//1029 533//1029
f 516//1030 533//1030 517//1030
f 517//1031 533//1031 518//1031
f 517//1032 518//1032 502//1032
f 518//1033 534//1033 519//1033
f 519//1034 534//1034 520//1034
f 520//1035 534//1035 521//1035
f 521//1036 534//1036 522//1036
f 522//1037 534//1037 523//1037
f 523//1038 534//1038 524//1038
f 524//1039 534//1039 525//1039
f 525//1040 534//1040 526//1040
f 526//1041 534//1041 527//1041
f 527//1042 534//1042 528//1042
f 528//1043 534//1043 529//1043
f 529//1044 534//1044 530//1044
f 530//1045 534//1045 531//1045
f 531//1046 534//1046 532//1046
f 532//1047 534//1047 533//1047
f 533//1048 534//1048 518//1048
g stone_005
usemtl stone_0
s off
f 535//1049 536//1049 537//1049
f 535//1050 537//1050 538//1050
f 535//1051 538//1051 539//1051
f 535//1052 539//1052 540//1052
f 535//1053 540//1053 541//1053
f 535//1054 541//1054 542//1054
f 535//1055 542//1055 543//1055
f 535//1056 543//1056 536//1056
f 536//1057 544//1057 545//1057
f 536//1058 545//1058 537//1058
f 537//1059 545//1059 546//1059
f 537//1060 546//1060 538//1060
f 538//1061 546//1061 547//1061
f 538//1062 547//1062 539//1062
f 539//1063 547//1063 548//1063
f 539//1064 548//1064 540//1064
f 540//1065 548//1065 549//1065
f 540//1066 549//1066 541//1066
f 541//1067 549//1067 550//1067
f 541//1068 550//1068 542//1068
f 542//1069 550//1069 551//1069
f 542//1070 551//1070 543//1070
f 543//1071 551//1071 544//1071
f 543//1072 544//1072 536//1072
f 544//1073 552//1073 553//1073
f 544//1074 553//1074 545//1074
f 545//1075 553//1075 554//1075
f 545//1076 554//1076 546//1076
f 546//1077 554//1077 555//1077
f 546//1078 555//1078 547//1078
f 547//1079 555//1079 556//1079
f 547//1080 556//1080 548//1080
f 548//1081 556//1081 557//1081
f 548//1082 557//1082 549//1082
f 549//1083 557//1083 558//1083
f 549//1084 558//1084 550//1084
f 550//1085 558//1085 559//1085
f 550//1086 559//1086 551//1086
f 551//1087 559//1087 552//1087
f 551//1088 552//1088 544//1088
f 552//1089 560//1089 561//1089
f 552//1090 561//1090 553//1090
f 553//1091 561//1091 562//1091
f 553//1092 562//1092 554//1092
f 554//1093 562//1093 563//1093
f 554//1094 563//1094 555//1094
f 555//1095 563//1095 564//1095
f 555//1096 564//1096 556//1096
f 556//1097 564//1097 565//1097
f 556//1098 565//1098 557//1098
f 557//1099 565//1099 566//1099
f 557//1100 566//1100 558//1100
f 558//1101 566//1101 567//1101
f 558//1102 567//1102 559//1102
f 559//1103 567//1103 560//1103
f 559//1104 560//1104 552//1104
f 560//1105 568//1105 561//1105
f 561//1106 568//1106 562//1106
f 562//1107 568//1107 563//1107
f 563//1108 568//1108 564//1108
f 564//1109 568//1109 565//1109
f 565//1110 568//1110 566//1110
f 566//1111 568//1111 567//1111
f 567//1112 568//1112 560//1112
g stone_006
usemtl stone_1
s off
f 572//1113 578//1113 575//1113
f 572//1114 575//1114 569//1114
f 581//1115 587//1115 590//1115
f 581//1116 590//1116 584//1116
f 570//1117 582//1117 585//1117
f 570//1118 585//1118 573//1118
f 579//1119 591//1119 588//1119
f 579//1120 588//1120 576//1120
f 577//1121 589//1121 583//1121
f 577//1122 583//1122 571//1122
f 574//1123 586//1123 592//1123
f 574//1124 592//1124 580//1124
f 569//1125 570//1125 573//1125
f 569//1126 573//1126 572//1126
f 578//1127 579//1127 576//1127
f 578//1128 576//1128 575//1128
f 584//1129 585//1129 582//1129
f 584//1130 582//1130 581//1130
f 587//1131 588//1131 591//1131
f 587//1132 591//1132 590//1132
f 575//1133 577//1133 571//1133
f 575//1134 571//1134 569//1134
f 572//1135 574//1135 580//1135
f 572//1136 580//1136 578//1136
f 581//1137 583//1137 589//1137
f 581//1138 589//1138 587//1138
f 590//1139 592//1139 586//1139
f 590//1140 586//1140 584//1140
f 570//1141 571//1141 583//1141
f 570//1142 583//1142 582//1142
f 585//1143 586//1143 574//1143
f 585//1144 574//1144 573//1144
f 588//1145 589//1145 577//1145
f 588//1146 577//1146 576//1146
f 579//1147 580//1147 592//1147
f 579//1148 592//1148 591//1148
f 571//1149 570//1149 569//1149
f 572//1150 573//1150 574//1150
f 575//1151 576//1151 577//1151
f 580//1152 579//1152 578//1152
f 581//1153 582//1153 583//1153
f 586//1154 585//1154 584//1154
f 589//1155 588//1155 587//1155
f 590//1156 591//1156 592//1156
g stone_007
usemtl stone_1
s off
f 596//1157 602//1157 599//1157
f 596//1158 599//1158 593//1158
f 605//1159 611//1159 614//1159
f 605//1160 614//1160 608//1160
f 594//1161 606//1161 609//1161
f 594//1162 609//1162 597//1162
f 603//1163 615//1163 612//1163
f 603//1164 612//1164 600//1164
f 601//1165 613//1165 607//1165
f 601//1166 607//1166 595//1166
f 598//1167 610//1167 616//1167
f 598//1168 616//1168 604//1168
f 593//1169 594//1169 597//1169
f 593//1170 597//1170 596//1170
f 602//1171 603//1171 600//1171
f 602//1172 600//1172 599//1172
f 608//1173 609//1173 606//1173
f 608//1174 606//1174 605//1174
f 611//1175 612//1175 615//1175
f 611//1176 615//1176 614//1176
f 599//1177 601//1177 595//1177
f 599//1178 595//1178 593//1178
f 596//1179 598//1179 604//1179
f 596//1180 604//1180 602//1180
f 605//1181 607//1181 613//1181
f 605//1182 613//1182 611//1182
f 614//1183 616//1183 610//1183
f 614//1184 610//1184 608//1184
f 594//1185 595//1185 607//1185
f 594//1186 607//1186 606//1186
f 609//1187 610//1187 598//1187
f 609//1188 598//1188 597//1188
f 612//1189 613//1189 601//1189
f 612//1190 601//1190 600//1190
f 603//1191 604//1191 616//1191
f 603//1192 616//1192 615//1192
f 595//1193 594//1193 593//1193
f 596//1194 597//1194 598//1194
f 599//1195 600//1195 601//1195
f 604//1196 603//1196 602//1196
f 605//1197 606//1197 607//1197
f 610//1198 609//1198 608//1198
f 613//1199 612//1199 611//1199
f 614//1200 615//1200 616//1200
g stone_008
usemtl stone_2
s off
f 620//1201 626//1201 623//1201
f 620//1202 623//1202 617//1202
f 629//1203 635//1203 638//1203
f 629//1204 638//1204 632//1204
f 618//1205 630//1205 633//1205
f 618//1206 633//1206 621//1206
f 627//1207 639//1207 636//1207
f 627//1208 636//1208 624//1208
f 625//1209 637//1209 631//1209
f 625//1210 631//1210 619//1210
f 622//1211 634//1211 640//1211
f 622//1212 640//1212 628//1212
f 617//1213 618//1213 621//1213
f 617//1214 621//1214 620//1214
f 626//1215 627//1215 624//1215
f 626//1216 624//1216 623//1216
f 632//1217 633//1217 630//1217
f 632//1218 630//1218 629//1218
f 635//1219 636//1219 639//1219
f 635//1220 639//1220 638//1220
f 623//1221 625//1221 619//1221
f 623//1222 619//1222 617//1222
f 620//1223 622//1223 628//1223
f 620//1224 628//1224 626//1224
f 629//1225 631//1225 637//1225
f 629//1226 637//1226 635//1226
f 638//1227 640//1227 634//1227
f 638//1228 634//1228 632//1228
f 618//1229 619//1229 631//1229
f 618//1230 631//1230 630//1230
f 633//1231 634//1231 622//1231
f 633//1232 622//1232 621//1232
f 636//1233 637//1233 625//1233
f 636//1234 625//1234 624//1234
f 627//1235 628//1235 640//1235
f 627//1236 640//1236 639//1236
f 619//1237 618//1237 617//1237
f 620//1238 621//1238 622//1238
f 623//1239 624//1239 625//1239
f 628//1240 627//1240 626//1240
f 629//1241 630//1241 631//1241
f 634//1242 633//1242 632//1242
f 637//1243 636//1243 635//1243
f 638//1244 639//1244 640//1244
