# Ruins concept asset; Y up; units: meters
mtllib ruins.mtl
o ruin_circular_altar
v 0.000000 0.000000 0.000000
v 2.075000 0.000000 0.000000
v 1.973442 0.000000 0.641210
v 1.678710 0.000000 1.219654
v 1.219654 0.000000 1.678710
v 0.641210 0.000000 1.973442
v 0.000000 0.000000 2.075000
v -0.641210 0.000000 1.973442
v -1.219654 0.000000 1.678710
v -1.678710 0.000000 1.219654
v -1.973442 0.000000 0.641210
v -2.075000 0.000000 0.000000
v -1.973442 0.000000 -0.641210
v -1.678710 0.000000 -1.219654
v -1.219654 0.000000 -1.678710
v -0.641210 0.000000 -1.973442
v -0.000000 0.000000 -2.075000
v 0.641210 0.000000 -1.973442
v 1.219654 0.000000 -1.678710
v 1.678710 0.000000 -1.219654
v 1.973442 0.000000 -0.641210
v 2.100000 0.025000 0.000000
v 1.997219 0.025000 0.648936
v 1.698936 0.025000 1.234349
v 1.234349 0.025000 1.698936
v 0.648936 0.025000 1.997219
v 0.000000 0.025000 2.100000
v -0.648936 0.025000 1.997219
v -1.234349 0.025000 1.698936
v -1.698936 0.025000 1.234349
v -1.997219 0.025000 0.648936
v -2.100000 0.025000 0.000000
v -1.997219 0.025000 -0.648936
v -1.698936 0.025000 -1.234349
v -1.234349 0.025000 -1.698936
v -0.648936 0.025000 -1.997219
v -0.000000 0.025000 -2.100000
v 0.648936 0.025000 -1.997219
v 1.234349 0.025000 -1.698936
v 1.698936 0.025000 -1.234349
v 1.997219 0.025000 -0.648936
v 2.100000 0.215000 0.000000
v 1.997219 0.215000 0.648936
v 1.698936 0.215000 1.234349
v 1.234349 0.215000 1.698936
v 0.648936 0.215000 1.997219
v 0.000000 0.215000 2.100000
v -0.648936 0.215000 1.997219
v -1.234349 0.215000 1.698936
v -1.698936 0.215000 1.234349
v -1.997219 0.215000 0.648936
v -2.100000 0.215000 0.000000
v -1.997219 0.215000 -0.648936
v -1.698936 0.215000 -1.234349
v -1.234349 0.215000 -1.698936
v -0.648936 0.215000 -1.997219
v -0.000000 0.215000 -2.100000
v 0.648936 0.215000 -1.997219
v 1.234349 0.215000 -1.698936
v 1.698936 0.215000 -1.234349
v 1.997219 0.215000 -0.648936
v 2.075000 0.240000 0.000000
v 1.973442 0.240000 0.641210
v 1.678710 0.240000 1.219654
v 1.219654 0.240000 1.678710
v 0.641210 0.240000 1.973442
v 0.000000 0.240000 2.075000
v -0.641210 0.240000 1.973442
v -1.219654 0.240000 1.678710
v -1.678710 0.240000 1.219654
v -1.973442 0.240000 0.641210
v -2.075000 0.240000 0.000000
v -1.973442 0.240000 -0.641210
v -1.678710 0.240000 -1.219654
v -1.219654 0.240000 -1.678710
v -0.641210 0.240000 -1.973442
v -0.000000 0.240000 -2.075000
v 0.641210 0.240000 -1.973442
v 1.219654 0.240000 -1.678710
v 1.678710 0.240000 -1.219654
v 1.973442 0.240000 -0.641210
v 0.000000 0.240000 0.000000
v 0.000000 0.248000 0.000000
v 1.795000 0.248000 0.000000
v 1.707146 0.248000 0.554686
v 1.452186 0.248000 1.055075
v 1.055075 0.248000 1.452186
v 0.554686 0.248000 1.707146
v 0.000000 0.248000 1.795000
v -0.554686 0.248000 1.707146
v -1.055075 0.248000 1.452186
v -1.452186 0.248000 1.055075
v -1.707146 0.248000 0.554686
v -1.795000 0.248000 0.000000
v -1.707146 0.248000 -0.554686
v -1.452186 0.248000 -1.055075
v -1.055075 0.248000 -1.452186
v -0.554686 0.248000 -1.707146
v -0.000000 0.248000 -1.795000
v 0.554686 0.248000 -1.707146
v 1.055075 0.248000 -1.452186
v 1.452186 0.248000 -1.055075
v 1.707146 0.248000 -0.554686
v 1.820000 0.273000 0.000000
v 1.730923 0.273000 0.562411
v 1.472411 0.273000 1.069769
v 1.069769 0.273000 1.472411
v 0.562411 0.273000 1.730923
v 0.000000 0.273000 1.820000
v -0.562411 0.273000 1.730923
v -1.069769 0.273000 1.472411
v -1.472411 0.273000 1.069769
v -1.730923 0.273000 0.562411
v -1.820000 0.273000 0.000000
v -1.730923 0.273000 -0.562411
v -1.472411 0.273000 -1.069769
v -1.069769 0.273000 -1.472411
v -0.562411 0.273000 -1.730923
v -0.000000 0.273000 -1.820000
v 0.562411 0.273000 -1.730923
v 1.069769 0.273000 -1.472411
v 1.472411 0.273000 -1.069769
v 1.730923 0.273000 -0.562411
v 1.820000 0.463000 0.000000
v 1.730923 0.463000 0.562411
v 1.472411 0.463000 1.069769
v 1.069769 0.463000 1.472411
v 0.562411 0.463000 1.730923
v 0.000000 0.463000 1.820000
v -0.562411 0.463000 1.730923
v -1.069769 0.463000 1.472411
v -1.472411 0.463000 1.069769
v -1.730923 0.463000 0.562411
v -1.820000 0.463000 0.000000
v -1.730923 0.463000 -0.562411
v -1.472411 0.463000 -1.069769
v -1.069769 0.463000 -1.472411
v -0.562411 0.463000 -1.730923
v -0.000000 0.463000 -1.820000
v 0.562411 0.463000 -1.730923
v 1.069769 0.463000 -1.472411
v 1.472411 0.463000 -1.069769
v 1.730923 0.463000 -0.562411
v 1.795000 0.488000 0.000000
v 1.707146 0.488000 0.554686
v 1.452186 0.488000 1.055075
v 1.055075 0.488000 1.452186
v 0.554686 0.488000 1.707146
v 0.000000 0.488000 1.795000
v -0.554686 0.488000 1.707146
v -1.055075 0.488000 1.452186
v -1.452186 0.488000 1.055075
v -1.707146 0.488000 0.554686
v -1.795000 0.488000 0.000000
v -1.707146 0.488000 -0.554686
v -1.452186 0.488000 -1.055075
v -1.055075 0.488000 -1.452186
v -0.554686 0.488000 -1.707146
v -0.000000 0.488000 -1.795000
v 0.554686 0.488000 -1.707146
v 1.055075 0.488000 -1.452186
v 1.452186 0.488000 -1.055075
v 1.707146 0.488000 -0.554686
v 0.000000 0.488000 0.000000
v 0.000000 0.496000 0.000000
v 1.505000 0.496000 0.000000
v 1.431340 0.496000 0.465071
v 1.217571 0.496000 0.884617
v 0.884617 0.496000 1.217571
v 0.465071 0.496000 1.431340
v 0.000000 0.496000 1.505000
v -0.465071 0.496000 1.431340
v -0.884617 0.496000 1.217571
v -1.217571 0.496000 0.884617
v -1.431340 0.496000 0.465071
v -1.505000 0.496000 0.000000
v -1.431340 0.496000 -0.465071
v -1.217571 0.496000 -0.884617
v -0.884617 0.496000 -1.217571
v -0.465071 0.496000 -1.431340
v -0.000000 0.496000 -1.505000
v 0.465071 0.496000 -1.431340
v 0.884617 0.496000 -1.217571
v 1.217571 0.496000 -0.884617
v 1.431340 0.496000 -0.465071
v 1.530000 0.521000 0.000000
v 1.455116 0.521000 0.472796
v 1.237796 0.521000 0.899311
v 0.899311 0.521000 1.237796
v 0.472796 0.521000 1.455116
v 0.000000 0.521000 1.530000
v -0.472796 0.521000 1.455116
v -0.899311 0.521000 1.237796
v -1.237796 0.521000 0.899311
v -1.455116 0.521000 0.472796
v -1.530000 0.521000 0.000000
v -1.455116 0.521000 -0.472796
v -1.237796 0.521000 -0.899311
v -0.899311 0.521000 -1.237796
v -0.472796 0.521000 -1.455116
v -0.000000 0.521000 -1.530000
v 0.472796 0.521000 -1.455116
v 0.899311 0.521000 -1.237796
v 1.237796 0.521000 -0.899311
v 1.455116 0.521000 -0.472796
v 1.530000 0.751000 0.000000
v 1.455116 0.751000 0.472796
v 1.237796 0.751000 0.899311
v 0.899311 0.751000 1.237796
v 0.472796 0.751000 1.455116
v 0.000000 0.751000 1.530000
v -0.472796 0.751000 1.455116
v -0.899311 0.751000 1.237796
v -1.237796 0.751000 0.899311
v -1.455116 0.751000 0.472796
v -1.530000 0.751000 0.000000
v -1.455116 0.751000 -0.472796
v -1.237796 0.751000 -0.899311
v -0.899311 0.751000 -1.237796
v -0.472796 0.751000 -1.455116
v -0.000000 0.751000 -1.530000
v 0.472796 0.751000 -1.455116
v 0.899311 0.751000 -1.237796
v 1.237796 0.751000 -0.899311
v 1.455116 0.751000 -0.472796
v 1.505000 0.776000 0.000000
v 1.431340 0.776000 0.465071
v 1.217571 0.776000 0.884617
v 0.884617 0.776000 1.217571
v 0.465071 0.776000 1.431340
v 0.000000 0.776000 1.505000
v -0.465071 0.776000 1.431340
v -0.884617 0.776000 1.217571
v -1.217571 0.776000 0.884617
v -1.431340 0.776000 0.465071
v -1.505000 0.776000 0.000000
v -1.431340 0.776000 -0.465071
v -1.217571 0.776000 -0.884617
v -0.884617 0.776000 -1.217571
v -0.465071 0.776000 -1.431340
v -0.000000 0.776000 -1.505000
v 0.465071 0.776000 -1.431340
v 0.884617 0.776000 -1.217571
v 1.217571 0.776000 -0.884617
v 1.431340 0.776000 -0.465071
v 0.000000 0.776000 0.000000
v 0.000000 0.784000 0.000000
v 0.735000 0.784000 0.000000
v 0.636529 0.784000 0.367500
v 0.367500 0.784000 0.636529
v 0.000000 0.784000 0.735000
v -0.367500 0.784000 0.636529
v -0.636529 0.784000 0.367500
v -0.735000 0.784000 0.000000
v -0.636529 0.784000 -0.367500
v -0.367500 0.784000 -0.636529
v -0.000000 0.784000 -0.735000
v 0.367500 0.784000 -0.636529
v 0.636529 0.784000 -0.367500
v 0.760000 0.809000 0.000000
v 0.658179 0.809000 0.380000
v 0.380000 0.809000 0.658179
v 0.000000 0.809000 0.760000
v -0.380000 0.809000 0.658179
v -0.658179 0.809000 0.380000
v -0.760000 0.809000 0.000000
v -0.658179 0.809000 -0.380000
v -0.380000 0.809000 -0.658179
v -0.000000 0.809000 -0.760000
v 0.380000 0.809000 -0.658179
v 0.658179 0.809000 -0.380000
v 0.760000 0.899000 0.000000
v 0.658179 0.899000 0.380000
v 0.380000 0.899000 0.658179
v 0.000000 0.899000 0.760000
v -0.380000 0.899000 0.658179
v -0.658179 0.899000 0.380000
v -0.760000 0.899000 0.000000
v -0.658179 0.899000 -0.380000
v -0.380000 0.899000 -0.658179
v -0.000000 0.899000 -0.760000
v 0.380000 0.899000 -0.658179
v 0.658179 0.899000 -0.380000
v 0.735000 0.924000 0.000000
v 0.636529 0.924000 0.367500
v 0.367500 0.924000 0.636529
v 0.000000 0.924000 0.735000
v -0.367500 0.924000 0.636529
v -0.636529 0.924000 0.367500
v -0.735000 0.924000 0.000000
v -0.636529 0.924000 -0.367500
v -0.367500 0.924000 -0.636529
v -0.000000 0.924000 -0.735000
v 0.367500 0.924000 -0.636529
v 0.636529 0.924000 -0.367500
v 0.000000 0.924000 0.000000
v 0.000000 0.932000 0.000000
v 0.575000 0.932000 0.000000
v 0.497965 0.932000 0.287500
v 0.287500 0.932000 0.497965
v 0.000000 0.932000 0.575000
v -0.287500 0.932000 0.497965
v -0.497965 0.932000 0.287500
v -0.575000 0.932000 0.000000
v -0.497965 0.932000 -0.287500
v -0.287500 0.932000 -0.497965
v -0.000000 0.932000 -0.575000
v 0.287500 0.932000 -0.497965
v 0.497965 0.932000 -0.287500
v 0.600000 0.957000 0.000000
v 0.519615 0.957000 0.300000
v 0.300000 0.957000 0.519615
v 0.000000 0.957000 0.600000
v -0.300000 0.957000 0.519615
v -0.519615 0.957000 0.300000
v -0.600000 0.957000 0.000000
v -0.519615 0.957000 -0.300000
v -0.300000 0.957000 -0.519615
v -0.000000 0.957000 -0.600000
v 0.300000 0.957000 -0.519615
v 0.519615 0.957000 -0.300000
v 0.600000 1.297000 0.000000
v 0.519615 1.297000 0.300000
v 0.300000 1.297000 0.519615
v 0.000000 1.297000 0.600000
v -0.300000 1.297000 0.519615
v -0.519615 1.297000 0.300000
v -0.600000 1.297000 0.000000
v -0.519615 1.297000 -0.300000
v -0.300000 1.297000 -0.519615
v -0.000000 1.297000 -0.600000
v 0.300000 1.297000 -0.519615
v 0.519615 1.297000 -0.300000
v 0.575000 1.322000 0.000000
v 0.497965 1.322000 0.287500
v 0.287500 1.322000 0.497965
v 0.000000 1.322000 0.575000
v -0.287500 1.322000 0.497965
v -0.497965 1.322000 0.287500
v -0.575000 1.322000 0.000000
v -0.497965 1.322000 -0.287500
v -0.287500 1.322000 -0.497965
v -0.000000 1.322000 -0.575000
v 0.287500 1.322000 -0.497965
v 0.497965 1.322000 -0.287500
v 0.000000 1.322000 0.000000
v 0.000000 1.329000 0.000000
v 0.995000 1.329000 0.000000
v 0.946301 1.329000 0.307472
v 0.804972 1.329000 0.584846
v 0.584846 1.329000 0.804972
v 0.307472 1.329000 0.946301
v 0.000000 1.329000 0.995000
v -0.307472 1.329000 0.946301
v -0.584846 1.329000 0.804972
v -0.804972 1.329000 0.584846
v -0.946301 1.329000 0.307472
v -0.995000 1.329000 0.000000
v -0.946301 1.329000 -0.307472
v -0.804972 1.329000 -0.584846
v -0.584846 1.329000 -0.804972
v -0.307472 1.329000 -0.946301
v -0.000000 1.329000 -0.995000
v 0.307472 1.329000 -0.946301
v 0.584846 1.329000 -0.804972
v 0.804972 1.329000 -0.584846
v 0.946301 1.329000 -0.307472
v 1.020000 1.354000 0.000000
v 0.970078 1.354000 0.315197
v 0.825197 1.354000 0.599541
v 0.599541 1.354000 0.825197
v 0.315197 1.354000 0.970078
v 0.000000 1.354000 1.020000
v -0.315197 1.354000 0.970078
v -0.599541 1.354000 0.825197
v -0.825197 1.354000 0.599541
v -0.970078 1.354000 0.315197
v -1.020000 1.354000 0.000000
v -0.970078 1.354000 -0.315197
v -0.825197 1.354000 -0.599541
v -0.599541 1.354000 -0.825197
v -0.315197 1.354000 -0.970078
v -0.000000 1.354000 -1.020000
v 0.315197 1.354000 -0.970078
v 0.599541 1.354000 -0.825197
v 0.825197 1.354000 -0.599541
v 0.970078 1.354000 -0.315197
v 1.020000 1.464000 0.000000
v 0.970078 1.464000 0.315197
v 0.825197 1.464000 0.599541
v 0.599541 1.464000 0.825197
v 0.315197 1.464000 0.970078
v 0.000000 1.464000 1.020000
v -0.315197 1.464000 0.970078
v -0.599541 1.464000 0.825197
v -0.825197 1.464000 0.599541
v -0.970078 1.464000 0.315197
v -1.020000 1.464000 0.000000
v -0.970078 1.464000 -0.315197
v -0.825197 1.464000 -0.599541
v -0.599541 1.464000 -0.825197
v -0.315197 1.464000 -0.970078
v -0.000000 1.464000 -1.020000
v 0.315197 1.464000 -0.970078
v 0.599541 1.464000 -0.825197
v 0.825197 1.464000 -0.599541
v 0.970078 1.464000 -0.315197
v 0.995000 1.489000 0.000000
v 0.946301 1.489000 0.307472
v 0.804972 1.489000 0.584846
v 0.584846 1.489000 0.804972
v 0.307472 1.489000 0.946301
v 0.000000 1.489000 0.995000
v -0.307472 1.489000 0.946301
v -0.584846 1.489000 0.804972
v -0.804972 1.489000 0.584846
v -0.946301 1.489000 0.307472
v -0.995000 1.489000 0.000000
v -0.946301 1.489000 -0.307472
v -0.804972 1.489000 -0.584846
v -0.584846 1.489000 -0.804972
v -0.307472 1.489000 -0.946301
v -0.000000 1.489000 -0.995000
v 0.307472 1.489000 -0.946301
v 0.584846 1.489000 -0.804972
v 0.804972 1.489000 -0.584846
v 0.946301 1.489000 -0.307472
v 0.000000 1.489000 0.000000
v 1.737183 0.013081 0.970357
v 1.749232 0.000000 0.965263
v 1.744137 0.013081 0.953214
v 1.800217 0.017052 1.119446
v 1.815922 0.000000 1.112806
v 1.822563 0.017052 1.128512
v 1.739233 0.141654 0.975206
v 1.756130 0.160000 0.968062
v 1.748986 0.141654 0.951164
v 1.800953 0.144839 1.121188
v 1.814917 0.160000 1.115284
v 1.820821 0.144839 1.129248
v 1.961266 0.020860 0.884061
v 1.942053 0.000000 0.892185
v 1.933930 0.020860 0.872971
v 2.020399 0.019292 1.023923
v 2.002630 0.000000 1.031435
v 2.010143 0.019292 1.049204
v 1.961620 0.138232 0.884898
v 1.941570 0.160000 0.893375
v 1.933093 0.138232 0.873325
v 2.022438 0.145945 1.028746
v 2.009492 0.160000 1.034219
v 2.014966 0.145945 1.047165
v -1.835429 0.020108 1.363778
v -1.816908 0.000000 1.355947
v -1.824739 0.020108 1.337426
v -1.788297 0.018861 1.475255
v -1.770925 0.000000 1.467910
v -1.763581 0.018861 1.485282
v -1.835279 0.112839 1.364134
v -1.816402 0.133333 1.356153
v -1.824383 0.112839 1.337276
v -1.785944 0.120515 1.480820
v -1.774138 0.133333 1.475829
v -1.769146 0.120515 1.487635
v -1.652993 0.015548 1.281694
v -1.667313 0.000000 1.287748
v -1.673368 0.015548 1.273428
v -1.602508 0.014810 1.401102
v -1.616149 0.000000 1.406869
v -1.610381 0.014810 1.420510
v -1.652501 0.116522 1.282858
v -1.667985 0.133333 1.289405
v -1.674532 0.116522 1.273920
v -1.604705 0.112881 1.395905
v -1.623542 0.133333 1.403870
v -1.615578 0.112881 1.422707
vn 0.000000 -1.000000 0.000000
vn 0.000000 -1.000000 0.000000
vn 0.000000 -1.000000 0.000000
vn 0.000000 -1.000000 0.000000
vn 0.000000 -1.000000 0.000000
vn 0.000000 -1.000000 0.000000
vn 0.000000 -1.000000 0.000000
vn 0.000000 -1.000000 0.000000
vn 0.000000 -1.000000 0.000000
vn 0.000000 -1.000000 0.000000
vn -0.000000 -1.000000 0.000000
vn 0.000000 -1.000000 0.000000
vn 0.000000 -1.000000 0.000000
vn 0.000000 -1.000000 0.000000
vn 0.000000 -1.000000 0.000000
vn 0.000000 -1.000000 -0.000000
vn 0.000000 -1.000000 0.000000
vn 0.000000 -1.000000 0.000000
vn 0.000000 -1.000000 0.000000
vn 0.000000 -1.000000 0.000000
vn 0.702714 -0.702714 0.111299
vn 0.702714 -0.702714 0.111299
vn 0.633927 -0.702714 0.323002
vn 0.633927 -0.702714 0.323002
vn 0.503087 -0.702714 0.503087
vn 0.503087 -0.702714 0.503087
vn 0.323002 -0.702714 0.633927
vn 0.323002 -0.702714 0.633927
vn 0.111299 -0.702714 0.702714
vn 0.111299 -0.702714 0.702714
vn -0.111299 -0.702714 0.702714
vn -0.111299 -0.702714 0.702714
vn -0.323002 -0.702714 0.633927
vn -0.323002 -0.702714 0.633927
vn -0.503087 -0.702714 0.503087
vn -0.503087 -0.702714 0.503087
vn -0.633927 -0.702714 0.323002
vn -0.633927 -0.702714 0.323002
vn -0.702714 -0.702714 0.111299
vn -0.702714 -0.702714 0.111299
vn -0.702714 -0.702714 -0.111299
vn -0.702714 -0.702714 -0.111299
vn -0.633927 -0.702714 -0.323002
vn -0.633927 -0.702714 -0.323002
vn -0.503087 -0.702714 -0.503087
vn -0.503087 -0.702714 -0.503087
vn -0.323002 -0.702714 -0.633927
vn -0.323002 -0.702714 -0.633927
vn -0.111299 -0.702714 -0.702714
vn -0.111299 -0.702714 -0.702714
vn 0.111299 -0.702714 -0.702714
vn 0.111299 -0.702714 -0.702714
vn 0.323002 -0.702714 -0.633927
vn 0.323002 -0.702714 -0.633927
vn 0.503087 -0.702714 -0.503087
vn 0.503087 -0.702714 -0.503087
vn 0.633927 -0.702714 -0.323002
vn 0.633927 -0.702714 -0.323002
vn 0.702714 -0.702714 -0.111299
vn 0.702714 -0.702714 -0.111299
vn 0.987688 -0.000000 0.156434
vn 0.987688 0.000000 0.156434
vn 0.891007 -0.000000 0.453990
vn 0.891007 0.000000 0.453990
vn 0.707107 -0.000000 0.707107
vn 0.707107 0.000000 0.707107
vn 0.453990 -0.000000 0.891007
vn 0.453990 0.000000 0.891007
vn 0.156434 -0.000000 0.987688
vn 0.156434 0.000000 0.987688
vn -0.156434 0.000000 0.987688
vn -0.156434 0.000000 0.987688
vn -0.453990 0.000000 0.891007
vn -0.453990 0.000000 0.891007
vn -0.707107 0.000000 0.707107
vn -0.707107 0.000000 0.707107
vn -0.891007 0.000000 0.453990
vn -0.891007 0.000000 0.453990
vn -0.987688 0.000000 0.156434
vn -0.987688 0.000000 0.156434
vn -0.987688 0.000000 -0.156434
vn -0.987688 0.000000 -0.156434
vn -0.891007 0.000000 -0.453990
vn -0.891007 0.000000 -0.453990
vn -0.707107 0.000000 -0.707107
vn -0.707107 0.000000 -0.707107
vn -0.453990 0.000000 -0.891007
vn -0.453990 0.000000 -0.891007
vn -0.156434 0.000000 -0.987688
vn -0.156434 0.000000 -0.987688
vn 0.156434 0.000000 -0.987688
vn 0.156434 0.000000 -0.987688
vn 0.453990 0.000000 -0.891007
vn 0.453990 0.000000 -0.891007
vn 0.707107 0.000000 -0.707107
vn 0.707107 0.000000 -0.707107
vn 0.891007 0.000000 -0.453990
vn 0.891007 0.000000 -0.453990
vn 0.987688 0.000000 -0.156434
vn 0.987688 0.000000 -0.156434
vn 0.702714 0.702714 0.111299
vn 0.702714 0.702714 0.111299
vn 0.633927 0.702714 0.323002
vn 0.633927 0.702714 0.323002
vn 0.503087 0.702714 0.503087
vn 0.503087 0.702714 0.503087
vn 0.323002 0.702714 0.633927
vn 0.323002 0.702714 0.633927
vn 0.111299 0.702714 0.702714
vn 0.111299 0.702714 0.702714
vn -0.111299 0.702714 0.702714
vn -0.111299 0.702714 0.702714
vn -0.323002 0.702714 0.633927
vn -0.323002 0.702714 0.633927
vn -0.503087 0.702714 0.503087
vn -0.503087 0.702714 0.503087
vn -0.633927 0.702714 0.323002
vn -0.633927 0.702714 0.323002
vn -0.702714 0.702714 0.111299
vn -0.702714 0.702714 0.111299
vn -0.702714 0.702714 -0.111299
vn -0.702714 0.702714 -0.111299
vn -0.633927 0.702714 -0.323002
vn -0.633927 0.702714 -0.323002
vn -0.503087 0.702714 -0.503087
vn -0.503087 0.702714 -0.503087
vn -0.323002 0.702714 -0.633927
vn -0.323002 0.702714 -0.633927
vn -0.111299 0.702714 -0.702714
vn -0.111299 0.702714 -0.702714
vn 0.111299 0.702714 -0.702714
vn 0.111299 0.702714 -0.702714
vn 0.323002 0.702714 -0.633927
vn 0.323002 0.702714 -0.633927
vn 0.503087 0.702714 -0.503087
vn 0.503087 0.702714 -0.503087
vn 0.633927 0.702714 -0.323002
vn 0.633927 0.702714 -0.323002
vn 0.702714 0.702714 -0.111299
vn 0.702714 0.702714 -0.111299
vn 0.000000 1.000000 0.000000
vn 0.000000 1.000000 0.000000
vn 0.000000 1.000000 0.000000
vn 0.000000 1.000000 0.000000
vn 0.000000 1.000000 0.000000
vn 0.000000 1.000000 0.000000
vn 0.000000 1.000000 0.000000
vn 0.000000 1.000000 0.000000
vn 0.000000 1.000000 0.000000
vn 0.000000 1.000000 0.000000
vn 0.000000 1.000000 0.000000
vn -0.000000 1.000000 0.000000
vn -0.000000 1.000000 0.000000
vn -0.000000 1.000000 0.000000
vn -0.000000 1.000000 0.000000
vn 0.000000 1.000000 0.000000
vn 0.000000 1.000000 -0.000000
vn 0.000000 1.000000 -0.000000
vn 0.000000 1.000000 -0.000000
vn 0.000000 1.000000 -0.000000
vn 0.000000 -1.000000 0.000000
vn 0.000000 -1.000000 0.000000
vn 0.000000 -1.000000 0.000000
vn 0.000000 -1.000000 0.000000
vn 0.000000 -1.000000 0.000000
vn 0.000000 -1.000000 0.000000
vn 0.000000 -1.000000 0.000000
vn 0.000000 -1.000000 0.000000
vn 0.000000 -1.000000 0.000000
vn 0.000000 -1.000000 0.000000
vn -0.000000 -1.000000 0.000000
vn 0.000000 -1.000000 0.000000
vn 0.000000 -1.000000 0.000000
vn 0.000000 -1.000000 0.000000
vn 0.000000 -1.000000 0.000000
vn 0.000000 -1.000000 -0.000000
vn 0.000000 -1.000000 0.000000
vn 0.000000 -1.000000 0.000000
vn 0.000000 -1.000000 0.000000
vn 0.000000 -1.000000 0.000000
vn 0.702714 -0.702714 0.111299
vn 0.702714 -0.702714 0.111299
vn 0.633927 -0.702714 0.323002
vn 0.633927 -0.702714 0.323002
vn 0.503087 -0.702714 0.503087
vn 0.503087 -0.702714 0.503087
vn 0.323002 -0.702714 0.633927
vn 0.323002 -0.702714 0.633927
vn 0.111299 -0.702714 0.702714
vn 0.111299 -0.702714 0.702714
vn -0.111299 -0.702714 0.702714
vn -0.111299 -0.702714 0.702714
vn -0.323002 -0.702714 0.633927
vn -0.323002 -0.702714 0.633927
vn -0.503087 -0.702714 0.503087
vn -0.503087 -0.702714 0.503087
vn -0.633927 -0.702714 0.323002
vn -0.633927 -0.702714 0.323002
vn -0.702714 -0.702714 0.111299
vn -0.702714 -0.702714 0.111299
vn -0.702714 -0.702714 -0.111299
vn -0.702714 -0.702714 -0.111299
vn -0.633927 -0.702714 -0.323002
vn -0.633927 -0.702714 -0.323002
vn -0.503087 -0.702714 -0.503087
vn -0.503087 -0.702714 -0.503087
vn -0.323002 -0.702714 -0.633927
vn -0.323002 -0.702714 -0.633927
vn -0.111299 -0.702714 -0.702714
vn -0.111299 -0.702714 -0.702714
vn 0.111299 -0.702714 -0.702714
vn 0.111299 -0.702714 -0.702714
vn 0.323002 -0.702714 -0.633927
vn 0.323002 -0.702714 -0.633927
vn 0.503087 -0.702714 -0.503087
vn 0.503087 -0.702714 -0.503087
vn 0.633927 -0.702714 -0.323002
vn 0.633927 -0.702714 -0.323002
vn 0.702714 -0.702714 -0.111299
vn 0.702714 -0.702714 -0.111299
vn 0.987688 -0.000000 0.156434
vn 0.987688 0.000000 0.156434
vn 0.891007 -0.000000 0.453990
vn 0.891007 0.000000 0.453990
vn 0.707107 -0.000000 0.707107
vn 0.707107 0.000000 0.707107
vn 0.453990 -0.000000 0.891007
vn 0.453990 0.000000 0.891007
vn 0.156434 -0.000000 0.987688
vn 0.156434 0.000000 0.987688
vn -0.156434 0.000000 0.987688
vn -0.156434 0.000000 0.987688
vn -0.453990 0.000000 0.891007
vn -0.453990 0.000000 0.891007
vn -0.707107 0.000000 0.707107
vn -0.707107 0.000000 0.707107
vn -0.891007 0.000000 0.453990
vn -0.891007 0.000000 0.453990
vn -0.987688 0.000000 0.156434
vn -0.987688 0.000000 0.156434
vn -0.987688 0.000000 -0.156434
vn -0.987688 0.000000 -0.156434
vn -0.891007 0.000000 -0.453990
vn -0.891007 0.000000 -0.453990
vn -0.707107 0.000000 -0.707107
vn -0.707107 0.000000 -0.707107
vn -0.453990 0.000000 -0.891007
vn -0.453990 0.000000 -0.891007
vn -0.156434 0.000000 -0.987688
vn -0.156434 0.000000 -0.987688
vn 0.156434 0.000000 -0.987688
vn 0.156434 0.000000 -0.987688
vn 0.453990 0.000000 -0.891007
vn 0.453990 0.000000 -0.891007
vn 0.707107 0.000000 -0.707107
vn 0.707107 0.000000 -0.707107
vn 0.891007 0.000000 -0.453990
vn 0.891007 0.000000 -0.453990
vn 0.987688 0.000000 -0.156434
vn 0.987688 0.000000 -0.156434
vn 0.702714 0.702714 0.111299
vn 0.702714 0.702714 0.111299
vn 0.633927 0.702714 0.323002
vn 0.633927 0.702714 0.323002
vn 0.503087 0.702714 0.503087
vn 0.503087 0.702714 0.503087
vn 0.323002 0.702714 0.633927
vn 0.323002 0.702714 0.633927
vn 0.111299 0.702714 0.702714
vn 0.111299 0.702714 0.702714
vn -0.111299 0.702714 0.702714
vn -0.111299 0.702714 0.702714
vn -0.323002 0.702714 0.633927
vn -0.323002 0.702714 0.633927
vn -0.503087 0.702714 0.503087
vn -0.503087 0.702714 0.503087
vn -0.633927 0.702714 0.323002
vn -0.633927 0.702714 0.323002
vn -0.702714 0.702714 0.111299
vn -0.702714 0.702714 0.111299
vn -0.702714 0.702714 -0.111299
vn -0.702714 0.702714 -0.111299
vn -0.633927 0.702714 -0.323002
vn -0.633927 0.702714 -0.323002
vn -0.503087 0.702714 -0.503087
vn -0.503087 0.702714 -0.503087
vn -0.323002 0.702714 -0.633927
vn -0.323002 0.702714 -0.633927
vn -0.111299 0.702714 -0.702714
vn -0.111299 0.702714 -0.702714
vn 0.111299 0.702714 -0.702714
vn 0.111299 0.702714 -0.702714
vn 0.323002 0.702714 -0.633927
vn 0.323002 0.702714 -0.633927
vn 0.503087 0.702714 -0.503087
vn 0.503087 0.702714 -0.503087
vn 0.633927 0.702714 -0.323002
vn 0.633927 0.702714 -0.323002
vn 0.702714 0.702714 -0.111299
vn 0.702714 0.702714 -0.111299
vn 0.000000 1.000000 0.000000
vn 0.000000 1.000000 0.000000
vn 0.000000 1.000000 0.000000
vn 0.000000 1.000000 0.000000
vn 0.000000 1.000000 0.000000
vn 0.000000 1.000000 0.000000
vn 0.000000 1.000000 0.000000
vn 0.000000 1.000000 0.000000
vn 0.000000 1.000000 0.000000
vn 0.000000 1.000000 0.000000
vn 0.000000 1.000000 0.000000
vn -0.000000 1.000000 0.000000
vn -0.000000 1.000000 0.000000
vn -0.000000 1.000000 0.000000
vn -0.000000 1.000000 0.000000
vn 0.000000 1.000000 0.000000
vn 0.000000 1.000000 -0.000000
vn 0.000000 1.000000 -0.000000
vn 0.000000 1.000000 -0.000000
vn 0.000000 1.000000 -0.000000
vn 0.000000 -1.000000 0.000000
vn 0.000000 -1.000000 0.000000
vn 0.000000 -1.000000 0.000000
vn 0.000000 -1.000000 0.000000
vn 0.000000 -1.000000 0.000000
vn 0.000000 -1.000000 0.000000
vn 0.000000 -1.000000 0.000000
vn 0.000000 -1.000000 0.000000
vn 0.000000 -1.000000 0.000000
vn 0.000000 -1.000000 0.000000
vn -0.000000 -1.000000 0.000000
vn 0.000000 -1.000000 0.000000
vn 0.000000 -1.000000 0.000000
vn 0.000000 -1.000000 0.000000
vn 0.000000 -1.000000 0.000000
vn 0.000000 -1.000000 -0.000000
vn 0.000000 -1.000000 0.000000
vn 0.000000 -1.000000 0.000000
vn 0.000000 -1.000000 0.000000
vn 0.000000 -1.000000 0.000000
vn 0.702714 -0.702714 0.111299
vn 0.702714 -0.702714 0.111299
vn 0.633927 -0.702714 0.323002
vn 0.633927 -0.702714 0.323002
vn 0.503087 -0.702714 0.503087
vn 0.503087 -0.702714 0.503087
vn 0.323002 -0.702714 0.633927
vn 0.323002 -0.702714 0.633927
vn 0.111299 -0.702714 0.702714
vn 0.111299 -0.702714 0.702714
vn -0.111299 -0.702714 0.702714
vn -0.111299 -0.702714 0.702714
vn -0.323002 -0.702714 0.633927
vn -0.323002 -0.702714 0.633927
vn -0.503087 -0.702714 0.503087
vn -0.503087 -0.702714 0.503087
vn -0.633927 -0.702714 0.323002
vn -0.633927 -0.702714 0.323002
vn -0.702714 -0.702714 0.111299
vn -0.702714 -0.702714 0.111299
vn -0.702714 -0.702714 -0.111299
vn -0.702714 -0.702714 -0.111299
vn -0.633927 -0.702714 -0.323002
vn -0.633927 -0.702714 -0.323002
vn -0.503087 -0.702714 -0.503087
vn -0.503087 -0.702714 -0.503087
vn -0.323002 -0.702714 -0.633927
vn -0.323002 -0.702714 -0.633927
vn -0.111299 -0.702714 -0.702714
vn -0.111299 -0.702714 -0.702714
vn 0.111299 -0.702714 -0.702714
vn 0.111299 -0.702714 -0.702714
vn 0.323002 -0.702714 -0.633927
vn 0.323002 -0.702714 -0.633927
vn 0.503087 -0.702714 -0.503087
vn 0.503087 -0.702714 -0.503087
vn 0.633927 -0.702714 -0.323002
vn 0.633927 -0.702714 -0.323002
vn 0.702714 -0.702714 -0.111299
vn 0.702714 -0.702714 -0.111299
vn 0.987688 -0.000000 0.156434
vn 0.987688 0.000000 0.156434
vn 0.891007 -0.000000 0.453990
vn 0.891007 0.000000 0.453990
vn 0.707107 -0.000000 0.707107
vn 0.707107 0.000000 0.707107
vn 0.453990 -0.000000 0.891007
vn 0.453990 0.000000 0.891007
vn 0.156434 -0.000000 0.987688
vn 0.156434 0.000000 0.987688
vn -0.156434 0.000000 0.987688
vn -0.156434 0.000000 0.987688
vn -0.453990 0.000000 0.891007
vn -0.453990 0.000000 0.891007
vn -0.707107 0.000000 0.707107
vn -0.707107 0.000000 0.707107
vn -0.891007 0.000000 0.453990
vn -0.891007 0.000000 0.453990
vn -0.987688 0.000000 0.156434
vn -0.987688 0.000000 0.156434
vn -0.987688 0.000000 -0.156434
vn -0.987688 0.000000 -0.156434
vn -0.891007 0.000000 -0.453990
vn -0.891007 0.000000 -0.453990
vn -0.707107 0.000000 -0.707107
vn -0.707107 0.000000 -0.707107
vn -0.453990 0.000000 -0.891007
vn -0.453990 0.000000 -0.891007
vn -0.156434 0.000000 -0.987688
vn -0.156434 0.000000 -0.987688
vn 0.156434 0.000000 -0.987688
vn 0.156434 0.000000 -0.987688
vn 0.453990 0.000000 -0.891007
vn 0.453990 0.000000 -0.891007
vn 0.707107 0.000000 -0.707107
vn 0.707107 0.000000 -0.707107
vn 0.891007 0.000000 -0.453990
vn 0.891007 0.000000 -0.453990
vn 0.987688 0.000000 -0.156434
vn 0.987688 0.000000 -0.156434
vn 0.702714 0.702714 0.111299
vn 0.702714 0.702714 0.111299
vn 0.633927 0.702714 0.323002
vn 0.633927 0.702714 0.323002
vn 0.503087 0.702714 0.503087
vn 0.503087 0.702714 0.503087
vn 0.323002 0.702714 0.633927
vn 0.323002 0.702714 0.633927
vn 0.111299 0.702714 0.702714
vn 0.111299 0.702714 0.702714
vn -0.111299 0.702714 0.702714
vn -0.111299 0.702714 0.702714
vn -0.323002 0.702714 0.633927
vn -0.323002 0.702714 0.633927
vn -0.503087 0.702714 0.503087
vn -0.503087 0.702714 0.503087
vn -0.633927 0.702714 0.323002
vn -0.633927 0.702714 0.323002
vn -0.702714 0.702714 0.111299
vn -0.702714 0.702714 0.111299
vn -0.702714 0.702714 -0.111299
vn -0.702714 0.702714 -0.111299
vn -0.633927 0.702714 -0.323002
vn -0.633927 0.702714 -0.323002
vn -0.503087 0.702714 -0.503087
vn -0.503087 0.702714 -0.503087
vn -0.323002 0.702714 -0.633927
vn -0.323002 0.702714 -0.633927
vn -0.111299 0.702714 -0.702714
vn -0.111299 0.702714 -0.702714
vn 0.111299 0.702714 -0.702714
vn 0.111299 0.702714 -0.702714
vn 0.323002 0.702714 -0.633927
vn 0.323002 0.702714 -0.633927
vn 0.503087 0.702714 -0.503087
vn 0.503087 0.702714 -0.503087
vn 0.633927 0.702714 -0.323002
vn 0.633927 0.702714 -0.323002
vn 0.702714 0.702714 -0.111299
vn 0.702714 0.702714 -0.111299
vn 0.000000 1.000000 0.000000
vn 0.000000 1.000000 0.000000
vn 0.000000 1.000000 0.000000
vn 0.000000 1.000000 0.000000
vn 0.000000 1.000000 0.000000
vn 0.000000 1.000000 0.000000
vn 0.000000 1.000000 0.000000
vn 0.000000 1.000000 0.000000
vn 0.000000 1.000000 0.000000
vn 0.000000 1.000000 0.000000
vn 0.000000 1.000000 0.000000
vn -0.000000 1.000000 0.000000
vn -0.000000 1.000000 0.000000
vn -0.000000 1.000000 0.000000
vn -0.000000 1.000000 0.000000
vn 0.000000 1.000000 0.000000
vn 0.000000 1.000000 -0.000000
vn 0.000000 1.000000 -0.000000
vn 0.000000 1.000000 -0.000000
vn 0.000000 1.000000 -0.000000
vn 0.000000 -1.000000 0.000000
vn 0.000000 -1.000000 0.000000
vn 0.000000 -1.000000 0.000000
vn 0.000000 -1.000000 0.000000
vn 0.000000 -1.000000 0.000000
vn 0.000000 -1.000000 0.000000
vn -0.000000 -1.000000 0.000000
vn 0.000000 -1.000000 0.000000
vn 0.000000 -1.000000 0.000000
vn 0.000000 -1.000000 -0.000000
vn 0.000000 -1.000000 0.000000
vn 0.000000 -1.000000 0.000000
vn 0.694747 -0.694747 0.186157
vn 0.694747 -0.694747 0.186157
vn 0.508590 -0.694747 0.508590
vn 0.508590 -0.694747 0.508590
vn 0.186157 -0.694747 0.694747
vn 0.186157 -0.694747 0.694747
vn -0.186157 -0.694747 0.694747
vn -0.186157 -0.694747 0.694747
vn -0.508590 -0.694747 0.508590
vn -0.508590 -0.694747 0.508590
vn -0.694747 -0.694747 0.186157
vn -0.694747 -0.694747 0.186157
vn -0.694747 -0.694747 -0.186157
vn -0.694747 -0.694747 -0.186157
vn -0.508590 -0.694747 -0.508590
vn -0.508590 -0.694747 -0.508590
vn -0.186157 -0.694747 -0.694747
vn -0.186157 -0.694747 -0.694747
vn 0.186157 -0.694747 -0.694747
vn 0.186157 -0.694747 -0.694747
vn 0.508590 -0.694747 -0.508590
vn 0.508590 -0.694747 -0.508590
vn 0.694747 -0.694747 -0.186157
vn 0.694747 -0.694747 -0.186157
vn 0.965926 -0.000000 0.258819
vn 0.965926 0.000000 0.258819
vn 0.707107 -0.000000 0.707107
vn 0.707107 0.000000 0.707107
vn 0.258819 -0.000000 0.965926
vn 0.258819 0.000000 0.965926
vn -0.258819 0.000000 0.965926
vn -0.258819 0.000000 0.965926
vn -0.707107 0.000000 0.707107
vn -0.707107 0.000000 0.707107
vn -0.965926 0.000000 0.258819
vn -0.965926 0.000000 0.258819
vn -0.965926 0.000000 -0.258819
vn -0.965926 0.000000 -0.258819
vn -0.707107 0.000000 -0.707107
vn -0.707107 0.000000 -0.707107
vn -0.258819 0.000000 -0.965926
vn -0.258819 0.000000 -0.965926
vn 0.258819 0.000000 -0.965926
vn 0.258819 0.000000 -0.965926
vn 0.707107 0.000000 -0.707107
vn 0.707107 0.000000 -0.707107
vn 0.965926 0.000000 -0.258819
vn 0.965926 0.000000 -0.258819
vn 0.694747 0.694747 0.186157
vn 0.694747 0.694747 0.186157
vn 0.508590 0.694747 0.508590
vn 0.508590 0.694747 0.508590
vn 0.186157 0.694747 0.694747
vn 0.186157 0.694747 0.694747
vn -0.186157 0.694747 0.694747
vn -0.186157 0.694747 0.694747
vn -0.508590 0.694747 0.508590
vn -0.508590 0.694747 0.508590
vn -0.694747 0.694747 0.186157
vn -0.694747 0.694747 0.186157
vn -0.694747 0.694747 -0.186157
vn -0.694747 0.694747 -0.186157
vn -0.508590 0.694747 -0.508590
vn -0.508590 0.694747 -0.508590
vn -0.186157 0.694747 -0.694747
vn -0.186157 0.694747 -0.694747
vn 0.186157 0.694747 -0.694747
vn 0.186157 0.694747 -0.694747
vn 0.508590 0.694747 -0.508590
vn 0.508590 0.694747 -0.508590
vn 0.694747 0.694747 -0.186157
vn 0.694747 0.694747 -0.186157
vn 0.000000 1.000000 0.000000
vn 0.000000 1.000000 0.000000
vn 0.000000 1.000000 0.000000
vn 0.000000 1.000000 0.000000
vn 0.000000 1.000000 0.000000
vn 0.000000 1.000000 0.000000
vn 0.000000 1.000000 0.000000
vn -0.000000 1.000000 0.000000
vn -0.000000 1.000000 0.000000
vn 0.000000 1.000000 0.000000
vn 0.000000 1.000000 -0.000000
vn 0.000000 1.000000 -0.000000
vn 0.000000 -1.000000 0.000000
vn 0.000000 -1.000000 0.000000
vn 0.000000 -1.000000 0.000000
vn 0.000000 -1.000000 0.000000
vn 0.000000 -1.000000 0.000000
vn 0.000000 -1.000000 0.000000
vn -0.000000 -1.000000 0.000000
vn 0.000000 -1.000000 0.000000
vn 0.000000 -1.000000 0.000000
vn 0.000000 -1.000000 -0.000000
vn 0.000000 -1.000000 0.000000
vn 0.000000 -1.000000 0.000000
vn 0.694747 -0.694747 0.186157
vn 0.694747 -0.694747 0.186157
vn 0.508590 -0.694747 0.508590
vn 0.508590 -0.694747 0.508590
vn 0.186157 -0.694747 0.694747
vn 0.186157 -0.694747 0.694747
vn -0.186157 -0.694747 0.694747
vn -0.186157 -0.694747 0.694747
vn -0.508590 -0.694747 0.508590
vn -0.508590 -0.694747 0.508590
vn -0.694747 -0.694747 0.186157
vn -0.694747 -0.694747 0.186157
vn -0.694747 -0.694747 -0.186157
vn -0.694747 -0.694747 -0.186157
vn -0.508590 -0.694747 -0.508590
vn -0.508590 -0.694747 -0.508590
vn -0.186157 -0.694747 -0.694747
vn -0.186157 -0.694747 -0.694747
vn 0.186157 -0.694747 -0.694747
vn 0.186157 -0.694747 -0.694747
vn 0.508590 -0.694747 -0.508590
vn 0.508590 -0.694747 -0.508590
vn 0.694747 -0.694747 -0.186157
vn 0.694747 -0.694747 -0.186157
vn 0.965926 -0.000000 0.258819
vn 0.965926 0.000000 0.258819
vn 0.707107 -0.000000 0.707107
vn 0.707107 0.000000 0.707107
vn 0.258819 -0.000000 0.965926
vn 0.258819 0.000000 0.965926
vn -0.258819 0.000000 0.965926
vn -0.258819 0.000000 0.965926
vn -0.707107 0.000000 0.707107
vn -0.707107 0.000000 0.707107
vn -0.965926 0.000000 0.258819
vn -0.965926 0.000000 0.258819
vn -0.965926 0.000000 -0.258819
vn -0.965926 0.000000 -0.258819
vn -0.707107 0.000000 -0.707107
vn -0.707107 0.000000 -0.707107
vn -0.258819 0.000000 -0.965926
vn -0.258819 0.000000 -0.965926
vn 0.258819 0.000000 -0.965926
vn 0.258819 0.000000 -0.965926
vn 0.707107 0.000000 -0.707107
vn 0.707107 0.000000 -0.707107
vn 0.965926 0.000000 -0.258819
vn 0.965926 0.000000 -0.258819
vn 0.694747 0.694747 0.186157
vn 0.694747 0.694747 0.186157
vn 0.508590 0.694747 0.508590
vn 0.508590 0.694747 0.508590
vn 0.186157 0.694747 0.694747
vn 0.186157 0.694747 0.694747
vn -0.186157 0.694747 0.694747
vn -0.186157 0.694747 0.694747
vn -0.508590 0.694747 0.508590
vn -0.508590 0.694747 0.508590
vn -0.694747 0.694747 0.186157
vn -0.694747 0.694747 0.186157
vn -0.694747 0.694747 -0.186157
vn -0.694747 0.694747 -0.186157
vn -0.508590 0.694747 -0.508590
vn -0.508590 0.694747 -0.508590
vn -0.186157 0.694747 -0.694747
vn -0.186157 0.694747 -0.694747
vn 0.186157 0.694747 -0.694747
vn 0.186157 0.694747 -0.694747
vn 0.508590 0.694747 -0.508590
vn 0.508590 0.694747 -0.508590
vn 0.694747 0.694747 -0.186157
vn 0.694747 0.694747 -0.186157
vn 0.000000 1.000000 0.000000
vn 0.000000 1.000000 0.000000
vn 0.000000 1.000000 0.000000
vn 0.000000 1.000000 0.000000
vn 0.000000 1.000000 0.000000
vn 0.000000 1.000000 0.000000
vn 0.000000 1.000000 0.000000
vn -0.000000 1.000000 0.000000
vn -0.000000 1.000000 0.000000
vn 0.000000 1.000000 0.000000
vn 0.000000 1.000000 -0.000000
vn 0.000000 1.000000 -0.000000
vn 0.000000 -1.000000 0.000000
vn 0.000000 -1.000000 0.000000
vn 0.000000 -1.000000 0.000000
vn 0.000000 -1.000000 0.000000
vn 0.000000 -1.000000 0.000000
vn 0.000000 -1.000000 0.000000
vn 0.000000 -1.000000 0.000000
vn 0.000000 -1.000000 0.000000
vn 0.000000 -1.000000 0.000000
vn 0.000000 -1.000000 0.000000
vn -0.000000 -1.000000 0.000000
vn 0.000000 -1.000000 0.000000
vn 0.000000 -1.000000 0.000000
vn 0.000000 -1.000000 0.000000
vn 0.000000 -1.000000 0.000000
vn 0.000000 -1.000000 -0.000000
vn 0.000000 -1.000000 0.000000
vn 0.000000 -1.000000 0.000000
vn 0.000000 -1.000000 0.000000
vn 0.000000 -1.000000 0.000000
vn 0.702714 -0.702714 0.111299
vn 0.702714 -0.702714 0.111299
vn 0.633927 -0.702714 0.323002
vn 0.633927 -0.702714 0.323002
vn 0.503087 -0.702714 0.503087
vn 0.503087 -0.702714 0.503087
vn 0.323002 -0.702714 0.633927
vn 0.323002 -0.702714 0.633927
vn 0.111299 -0.702714 0.702714
vn 0.111299 -0.702714 0.702714
vn -0.111299 -0.702714 0.702714
vn -0.111299 -0.702714 0.702714
vn -0.323002 -0.702714 0.633927
vn -0.323002 -0.702714 0.633927
vn -0.503087 -0.702714 0.503087
vn -0.503087 -0.702714 0.503087
vn -0.633927 -0.702714 0.323002
vn -0.633927 -0.702714 0.323002
vn -0.702714 -0.702714 0.111299
vn -0.702714 -0.702714 0.111299
vn -0.702714 -0.702714 -0.111299
vn -0.702714 -0.702714 -0.111299
vn -0.633927 -0.702714 -0.323002
vn -0.633927 -0.702714 -0.323002
vn -0.503087 -0.702714 -0.503087
vn -0.503087 -0.702714 -0.503087
vn -0.323002 -0.702714 -0.633927
vn -0.323002 -0.702714 -0.633927
vn -0.111299 -0.702714 -0.702714
vn -0.111299 -0.702714 -0.702714
vn 0.111299 -0.702714 -0.702714
vn 0.111299 -0.702714 -0.702714
vn 0.323002 -0.702714 -0.633927
vn 0.323002 -0.702714 -0.633927
vn 0.503087 -0.702714 -0.503087
vn 0.503087 -0.702714 -0.503087
vn 0.633927 -0.702714 -0.323002
vn 0.633927 -0.702714 -0.323002
vn 0.702714 -0.702714 -0.111299
vn 0.702714 -0.702714 -0.111299
vn 0.987688 -0.000000 0.156434
vn 0.987688 0.000000 0.156434
vn 0.891007 -0.000000 0.453990
vn 0.891007 0.000000 0.453990
vn 0.707107 -0.000000 0.707107
vn 0.707107 0.000000 0.707107
vn 0.453990 -0.000000 0.891007
vn 0.453990 0.000000 0.891007
vn 0.156434 -0.000000 0.987688
vn 0.156434 0.000000 0.987688
vn -0.156434 0.000000 0.987688
vn -0.156434 0.000000 0.987688
vn -0.453990 0.000000 0.891007
vn -0.453990 0.000000 0.891007
vn -0.707107 0.000000 0.707107
vn -0.707107 0.000000 0.707107
vn -0.891007 0.000000 0.453990
vn -0.891007 0.000000 0.453990
vn -0.987688 0.000000 0.156434
vn -0.987688 0.000000 0.156434
vn -0.987688 0.000000 -0.156434
vn -0.987688 0.000000 -0.156434
vn -0.891007 0.000000 -0.453990
vn -0.891007 0.000000 -0.453990
vn -0.707107 0.000000 -0.707107
vn -0.707107 0.000000 -0.707107
vn -0.453990 0.000000 -0.891007
vn -0.453990 0.000000 -0.891007
vn -0.156434 0.000000 -0.987688
vn -0.156434 0.000000 -0.987688
vn 0.156434 0.000000 -0.987688
vn 0.156434 0.000000 -0.987688
vn 0.453990 0.000000 -0.891007
vn 0.453990 0.000000 -0.891007
vn 0.707107 0.000000 -0.707107
vn 0.707107 0.000000 -0.707107
vn 0.891007 0.000000 -0.453990
vn 0.891007 0.000000 -0.453990
vn 0.987688 0.000000 -0.156434
vn 0.987688 0.000000 -0.156434
vn 0.702714 0.702714 0.111299
vn 0.702714 0.702714 0.111299
vn 0.633927 0.702714 0.323002
vn 0.633927 0.702714 0.323002
vn 0.503087 0.702714 0.503087
vn 0.503087 0.702714 0.503087
vn 0.323002 0.702714 0.633927
vn 0.323002 0.702714 0.633927
vn 0.111299 0.702714 0.702714
vn 0.111299 0.702714 0.702714
vn -0.111299 0.702714 0.702714
vn -0.111299 0.702714 0.702714
vn -0.323002 0.702714 0.633927
vn -0.323002 0.702714 0.633927
vn -0.503087 0.702714 0.503087
vn -0.503087 0.702714 0.503087
vn -0.633927 0.702714 0.323002
vn -0.633927 0.702714 0.323002
vn -0.702714 0.702714 0.111299
vn -0.702714 0.702714 0.111299
vn -0.702714 0.702714 -0.111299
vn -0.702714 0.702714 -0.111299
vn -0.633927 0.702714 -0.323002
vn -0.633927 0.702714 -0.323002
vn -0.503087 0.702714 -0.503087
vn -0.503087 0.702714 -0.503087
vn -0.323002 0.702714 -0.633927
vn -0.323002 0.702714 -0.633927
vn -0.111299 0.702714 -0.702714
vn -0.111299 0.702714 -0.702714
vn 0.111299 0.702714 -0.702714
vn 0.111299 0.702714 -0.702714
vn 0.323002 0.702714 -0.633927
vn 0.323002 0.702714 -0.633927
vn 0.503087 0.702714 -0.503087
vn 0.503087 0.702714 -0.503087
vn 0.633927 0.702714 -0.323002
vn 0.633927 0.702714 -0.323002
vn 0.702714 0.702714 -0.111299
vn 0.702714 0.702714 -0.111299
vn 0.000000 1.000000 0.000000
vn 0.000000 1.000000 0.000000
vn 0.000000 1.000000 0.000000
vn 0.000000 1.000000 0.000000
vn 0.000000 1.000000 0.000000
vn 0.000000 1.000000 0.000000
vn 0.000000 1.000000 0.000000
vn 0.000000 1.000000 0.000000
vn 0.000000 1.000000 0.000000
vn 0.000000 1.000000 0.000000
vn 0.000000 1.000000 0.000000
vn -0.000000 1.000000 0.000000
vn -0.000000 1.000000 0.000000
vn -0.000000 1.000000 0.000000
vn -0.000000 1.000000 0.000000
vn 0.000000 1.000000 0.000000
vn 0.000000 1.000000 -0.000000
vn 0.000000 1.000000 -0.000000
vn 0.000000 1.000000 -0.000000
vn 0.000000 1.000000 -0.000000
vn -0.921061 0.000000 0.389418
vn -0.921061 0.000000 0.389418
vn 0.921061 0.000000 -0.389418
vn 0.921061 -0.000000 -0.389418
vn 0.000000 -1.000000 0.000000
vn 0.000000 -1.000000 0.000000
vn 0.000000 1.000000 0.000000
vn 0.000000 1.000000 0.000000
vn -0.389418 0.000000 -0.921061
vn -0.389418 0.000000 -0.921061
vn 0.389418 -0.000000 0.921061
vn 0.389418 -0.000000 0.921061
vn -0.644437 -0.707000 0.291292
vn -0.644437 -0.707000 0.291292
vn -0.656755 0.707035 0.262248
vn -0.656755 0.707035 0.262248
vn 0.648427 -0.707088 -0.282079
vn 0.648427 -0.707088 -0.282079
vn 0.637301 0.706676 -0.307337
vn 0.637301 0.706676 -0.307337
vn -0.926261 0.028940 -0.375771
vn -0.926261 0.028940 -0.375771
vn -0.375908 -0.010461 0.926598
vn -0.375908 -0.010461 0.926598
vn 0.375922 0.005470 -0.926635
vn 0.375922 0.005470 -0.926635
vn 0.926253 -0.029224 0.375768
vn 0.926253 -0.029224 0.375768
vn -0.250685 -0.706855 -0.661447
vn -0.250685 -0.706855 -0.661447
vn 0.282515 -0.707085 0.648240
vn 0.282515 -0.707085 0.648240
vn -0.264190 0.707055 -0.655955
vn -0.264190 0.707055 -0.655955
vn 0.271941 0.707102 0.652729
vn 0.271941 0.707102 0.652729
vn -0.756606 -0.577350 -0.306944
vn -0.306944 -0.577350 0.756606
vn -0.756606 0.577350 -0.306944
vn -0.306944 0.577350 0.756606
vn 0.306944 -0.577350 -0.756606
vn 0.756606 -0.577350 0.306944
vn 0.306944 0.577350 -0.756606
vn 0.756606 0.577350 0.306944
vn -0.921061 0.000000 0.389418
vn -0.921061 0.000000 0.389418
vn 0.921061 -0.000000 -0.389418
vn 0.921061 -0.000000 -0.389418
vn 0.000000 -1.000000 0.000000
vn 0.000000 -1.000000 0.000000
vn 0.000000 1.000000 0.000000
vn 0.000000 1.000000 0.000000
vn -0.389418 0.000000 -0.921061
vn -0.389418 0.000000 -0.921061
vn 0.389418 0.000000 0.921061
vn 0.389418 -0.000000 0.921061
vn -0.654109 -0.707088 0.268641
vn -0.654109 -0.707088 0.268641
vn -0.667361 0.706459 0.235680
vn -0.667361 0.706459 0.235680
vn 0.649717 -0.707101 -0.279064
vn 0.649717 -0.707101 -0.279064
vn 0.659311 0.706951 -0.255987
vn 0.659311 0.706951 -0.255987
vn -0.926645 0.002948 -0.375926
vn -0.926645 0.002948 -0.375926
vn -0.375596 -0.041994 0.925831
vn -0.375596 -0.041994 0.925831
vn 0.375913 0.008851 -0.926613
vn 0.375913 0.008851 -0.926613
vn 0.925883 0.040645 0.375617
vn 0.925883 0.040645 0.375617
vn -0.293377 -0.706971 -0.643524
vn -0.293377 -0.706971 -0.643524
vn 0.259461 -0.707002 0.657897
vn 0.259461 -0.707002 0.657897
vn -0.290067 0.707016 -0.644972
vn -0.290067 0.707016 -0.644972
vn 0.305020 0.706737 0.638347
vn 0.305020 0.706737 0.638347
vn -0.756606 -0.577350 -0.306944
vn -0.306944 -0.577350 0.756606
vn -0.756606 0.577350 -0.306944
vn -0.306944 0.577350 0.756606
vn 0.306944 -0.577350 -0.756606
vn 0.756606 -0.577350 0.306944
vn 0.306944 0.577350 -0.756606
vn 0.756606 0.577350 0.306944
g stone_000
usemtl stone_0
s off
f 1//1 2//1 3//1
f 1//2 3//2 4//2
f 1//3 4//3 5//3
f 1//4 5//4 6//4
f 1//5 6//5 7//5
f 1//6 7//6 8//6
f 1//7 8//7 9//7
f 1//8 9//8 10//8
f 1//9 10//9 11//9
f 1//10 11//10 12//10
f 1//11 12//11 13//11
f 1//12 13//12 14//12
f 1//13 14//13 15//13
f 1//14 15//14 16//14
f 1//15 16//15 17//15
f 1//16 17//16 18//16
f 1//17 18//17 19//17
f 1//18 19//18 20//18
f 1//19 20//19 21//19
f 1//20 21//20 2//20
f 2//21 22//21 23//21
f 2//22 23//22 3//22
f 3//23 23//23 24//23
f 3//24 24//24 4//24
f 4//25 24//25 25//25
f 4//26 25//26 5//26
f 5//27 25//27 26//27
f 5//28 26//28 6//28
f 6//29 26//29 27//29
f 6//30 27//30 7//30
f 7//31 27//31 28//31
f 7//32 28//32 8//32
f 8//33 28//33 29//33
f 8//34 29//34 9//34
f 9//35 29//35 30//35
f 9//36 30//36 10//36
f 10//37 30//37 31//37
f 10//38 31//38 11//38
f 11//39 31//39 32//39
f 11//40 32//40 12//40
f 12//41 32//41 33//41
f 12//42 33//42 13//42
f 13//43 33//43 34//43
f 13//44 34//44 14//44
f 14//45 34//45 35//45
f 14//46 35//46 15//46
f 15//47 35//47 36//47
f 15//48 36//48 16//48
f 16//49 36//49 37//49
f 16//50 37//50 17//50
f 17//51 37//51 38//51
f 17//52 38//52 18//52
f 18//53 38//53 39//53
f 18//54 39//54 19//54
f 19//55 39//55 40//55
f 19//56 40//56 20//56
f 20//57 40//57 41//57
f 20//58 41//58 21//58
f 21//59 41//59 22//59
f 21//60 22//60 2//60
f 22//61 42//61 43//61
f 22//62 43//62 23//62
f 23//63 43//63 44//63
f 23//64 44//64 24//64
f 24//65 44//65 45//65
f 24//66 45//66 25//66
f 25//67 45//67 46//67
f 25//68 46//68 26//68
f 26//69 46//69 47//69
f 26//70 47//70 27//70
f 27//71 47//71 48//71
f 27//72 48//72 28//72
f 28//73 48//73 49//73
f 28//74 49//74 29//74
f 29//75 49//75 50//75
f 29//76 50//76 30//76
f 30//77 50//77 51//77
f 30//78 51//78 31//78
f 31//79 51//79 52//79
f 31//80 52//80 32//80
f 32//81 52//81 53//81
f 32//82 53//82 33//82
f 33//83 53//83 54//83
f 33//84 54//84 34//84
f 34//85 54//85 55//85
f 34//86 55//86 35//86
f 35//87 55//87 56//87
f 35//88 56//88 36//88
f 36//89 56//89 57//89
f 36//90 57//90 37//90
f 37//91 57//91 58//91
f 37//92 58//92 38//92
f 38//93 58//93 59//93
f 38//94 59//94 39//94
f 39//95 59//95 60//95
f 39//96 60//96 40//96
f 40//97 60//97 61//97
f 40//98 61//98 41//98
f 41//99 61//99 42//99
f 41//100 42//100 22//100
f 42//101 62//101 63//101
f 42//102 63//102 43//102
f 43//103 63//103 64//103
f 43//104 64//104 44//104
f 44//105 64//105 65//105
f 44//106 65//106 45//106
f 45//107 65//107 66//107
f 45//108 66//108 46//108
f 46//109 66//109 67//109
f 46//110 67//110 47//110
f 47//111 67//111 68//111
f 47//112 68//112 48//112
f 48//113 68//113 69//113
f 48//114 69//114 49//114
f 49//115 69//115 70//115
f 49//116 70//116 50//116
f 50//117 70//117 71//117
f 50//118 71//118 51//118
f 51//119 71//119 72//119
f 51//120 72//120 52//120
f 52//121 72//121 73//121
f 52//122 73//122 53//122
f 53//123 73//123 74//123
f 53//124 74//124 54//124
f 54//125 74//125 75//125
f 54//126 75//126 55//126
f 55//127 75//127 76//127
f 55//128 76//128 56//128
f 56//129 76//129 77//129
f 56//130 77//130 57//130
f 57//131 77//131 78//131
f 57//132 78//132 58//132
f 58//133 78//133 79//133
f 58//134 79//134 59//134
f 59//135 79//135 80//135
f 59//136 80//136 60//136
f 60//137 80//137 81//137
f 60//138 81//138 61//138
f 61//139 81//139 62//139
f 61//140 62//140 42//140
f 62//141 82//141 63//141
f 63//142 82//142 64//142
f 64//143 82//143 65//143
f 65//144 82//144 66//144
f 66//145 82//145 67//145
f 67//146 82//146 68//146
f 68//147 82//147 69//147
f 69//148 82//148 70//148
f 70//149 82//149 71//149
f 71//150 82//150 72//150
f 72//151 82//151 73//151
f 73//152 82//152 74//152
f 74//153 82//153 75//153
f 75//154 82//154 76//154
f 76//155 82//155 77//155
f 77//156 82//156 78//156
f 78//157 82//157 79//157
f 79//158 82//158 80//158
f 80//159 82//159 81//159
f 81//160 82//160 62//160
g stone_001
usemtl stone_1
s off
f 83//161 84//161 85//161
f 83//162 85//162 86//162
f 83//163 86//163 87//163
f 83//164 87//164 88//164
f 83//165 88//165 89//165
f 83//166 89//166 90//166
f 83//167 90//167 91//167
f 83//168 91//168 92//168
f 83//169 92//169 93//169
f 83//170 93//170 94//170
f 83//171 94//171 95//171
f 83//172 95//172 96//172
f 83//173 96//173 97//173
f 83//174 97//174 98//174
f 83//175 98//175 99//175
f 83//176 99//176 100//176
f 83//177 100//177 101//177
f 83//178 101//178 102//178
f 83//179 102//179 103//179
f 83//180 103//180 84//180
f 84//181 104//181 105//181
f 84//182 105//182 85//182
f 85//183 105//183 106//183
f 85//184 106//184 86//184
f 86//185 106//185 107//185
f 86//186 107//186 87//186
f 87//187 107//187 108//187
f 87//188 108//188 88//188
f 88//189 108//189 109//189
f 88//190 109//190 89//190
f 89//191 109//191 110//191
f 89//192 110//192 90//192
f 90//193 110//193 111//193
f 90//194 111//194 91//194
f 91//195 111//195 112//195
f 91//196 112//196 92//196
f 92//197 112//197 113//197
f 92//198 113//198 93//198
f 93//199 113//199 114//199
f 93//200 114//200 94//200
f 94//201 114//201 115//201
f 94//202 115//202 95//202
f 95//203 115//203 116//203
f 95//204 116//204 96//204
f 96//205 116//205 117//205
f 96//206 117//206 97//206
f 97//207 117//207 118//207
f 97//208 118//208 98//208
f 98//209 118//209 119//209
f 98//210 119//210 99//210
f 99//211 119//211 120//211
f 99//212 120//212 100//212
f 100//213 120//213 121//213
f 100//214 121//214 101//214
f 101//215 121//215 122//215
f 101//216 122//216 102//216
f 102//217 122//217 123//217
f 102//218 123//218 103//218
f 103//219 123//219 104//219
f 103//220 104//220 84//220
f 104//221 124//221 125//221
f 104//222 125//222 105//222
f 105//223 125//223 126//223
f 105//224 126//224 106//224
f 106//225 126//225 127//225
f 106//226 127//226 107//226
f 107//227 127//227 128//227
f 107//228 128//228 108//228
f 108//229 128//229 129//229
f 108//230 129//230 109//230
f 109//231 129//231 130//231
f 109//232 130//232 110//232
f 110//233 130//233 131//233
f 110//234 131//234 111//234
f 111//235 131//235 132//235
f 111//236 132//236 112//236
f 112//237 132//237 133//237
f 112//238 133//238 113//238
f 113//239 133//239 134//239
f 113//240 134//240 114//240
f 114//241 134//241 135//241
f 114//242 135//242 115//242
f 115//243 135//243 136//243
f 115//244 136//244 116//244
f 116//245 136//245 137//245
f 116//246 137//246 117//246
f 117//247 137//247 138//247
f 117//248 138//248 118//248
f 118//249 138//249 139//249
f 118//250 139//250 119//250
f 119//251 139//251 140//251
f 119//252 140//252 120//252
f 120//253 140//253 141//253
f 120//254 141//254 121//254
f 121//255 141//255 142//255
f 121//256 142//256 122//256
f 122//257 142//257 143//257
f 122//258 143//258 123//258
f 123//259 143//259 124//259
f 123//260 124//260 104//260
f 124//261 144//261 145//261
f 124//262 145//262 125//262
f 125//263 145//263 146//263
f 125//264 146//264 126//264
f 126//265 146//265 147//265
f 126//266 147//266 127//266
f 127//267 147//267 148//267
f 127//268 148//268 128//268
f 128//269 148//269 149//269
f 128//270 149//270 129//270
f 129//271 149//271 150//271
f 129//272 150//272 130//272
f 130//273 150//273 151//273
f 130//274 151//274 131//274
f 131//275 151//275 152//275
f 131//276 152//276 132//276
f 132//277 152//277 153//277
f 132//278 153//278 133//278
f 133//279 153//279 154//279
f 133//280 154//280 134//280
f 134//281 154//281 155//281
f 134//282 155//282 135//282
f 135//283 155//283 156//283
f 135//284 156//284 136//284
f 136//285 156//285 157//285
f 136//286 157//286 137//286
f 137//287 157//287 158//287
f 137//288 158//288 138//288
f 138//289 158//289 159//289
f 138//290 159//290 139//290
f 139//291 159//291 160//291
f 139//292 160//292 140//292
f 140//293 160//293 161//293
f 140//294 161//294 141//294
f 141//295 161//295 162//295
f 141//296 162//296 142//296
f 142//297 162//297 163//297
f 142//298 163//298 143//298
f 143//299 163//299 144//299
f 143//300 144//300 124//300
f 144//301 164//301 145//301
f 145//302 164//302 146//302
f 146//303 164//303 147//303
f 147//304 164//304 148//304
f 148//305 164//305 149//305
f 149//306 164//306 150//306
f 150//307 164//307 151//307
f 151//308 164//308 152//308
f 152//309 164//309 153//309
f 153//310 164//310 154//310
f 154//311 164//311 155//311
f 155//312 164//312 156//312
f 156//313 164//313 157//313
f 157//314 164//314 158//314
f 158//315 164//315 159//315
f 159//316 164//316 160//316
f 160//317 164//317 161//317
f 161//318 164//318 162//318
f 162//319 164//319 163//319
f 163//320 164//320 144//320
g stone_002
usemtl stone_2
s off
f 165//321 166//321 167//321
f 165//322 167//322 168//322
f 165//323 168//323 169//323
f 165//324 169//324 170//324
f 165//325 170//325 171//325
f 165//326 171//326 172//326
f 165//327 172//327 173//327
f 165//328 173//328 174//328
f 165//329 174//329 175//329
f 165//330 175//330 176//330
f 165//331 176//331 177//331
f 165//332 177//332 178//332
f 165//333 178//333 179//333
f 165//334 179//334 180//334
f 165//335 180//335 181//335
f 165//336 181//336 182//336
f 165//337 182//337 183//337
f 165//338 183//338 184//338
f 165//339 184//339 185//339
f 165//340 185//340 166//340
f 166//341 186//341 187//341
f 166//342 187//342 167//342
f 167//343 187//343 188//343
f 167//344 188//344 168//344
f 168//345 188//345 189//345
f 168//346 189//346 169//346
f 169//347 189//347 190//347
f 169//348 190//348 170//348
f 170//349 190//349 191//349
f 170//350 191//350 171//350
f 171//351 191//351 192//351
f 171//352 192//352 172//352
f 172//353 192//353 193//353
f 172//354 193//354 173//354
f 173//355 193//355 194//355
f 173//356 194//356 174//356
f 174//357 194//357 195//357
f 174//358 195//358 175//358
f 175//359 195//359 196//359
f 175//360 196//360 176//360
f 176//361 196//361 197//361
f 176//362 197//362 177//362
f 177//363 197//363 198//363
f 177//364 198//364 178//364
f 178//365 198//365 199//365
f 178//366 199//366 179//366
f 179//367 199//367 200//367
f 179//368 200//368 180//368
f 180//369 200//369 201//369
f 180//370 201//370 181//370
f 181//371 201//371 202//371
f 181//372 202//372 182//372
f 182//373 202//373 203//373
f 182//374 203//374 183//374
f 183//375 203//375 204//375
f 183//376 204//376 184//376
f 184//377 204//377 205//377
f 184//378 205//378 185//378
f 185//379 205//379 186//379
f 185//380 186//380 166//380
f 186//381 206//381 207//381
f 186//382 207//382 187//382
f 187//383 207//383 208//383
f 187//384 208//384 188//384
f 188//385 208//385 209//385
f 188//386 209//386 189//386
f 189//387 209//387 210//387
f 189//388 210//388 190//388
f 190//389 210//389 211//389
f 190//390 211//390 191//390
f 191//391 211//391 212//391
f 191//392 212//392 192//392
f 192//393 212//393 213//393
f 192//394 213//394 193//394
f 193//395 213//395 214//395
f 193//396 214//396 194//396
f 194//397 214//397 215//397
f 194//398 215//398 195//398
f 195//399 215//399 216//399
f 195//400 216//400 196//400
f 196//401 216//401 217//401
f 196//402 217//402 197//402
f 197//403 217//403 218//403
f 197//404 218//404 198//404
f 198//405 218//405 219//405
f 198//406 219//406 199//406
f 199//407 219//407 220//407
f 199//408 220//408 200//408
f 200//409 220//409 221//409
f 200//410 221//410 201//410
f 201//411 221//411 222//411
f 201//412 222//412 202//412
f 202//413 222//413 223//413
f 202//414 223//414 203//414
f 203//415 223//415 224//415
f 203//416 224//416 204//416
f 204//417 224//417 225//417
f 204//418 225//418 205//418
f 205//419 225//419 206//419
f 205//420 206//420 186//420
f 206//421 226//421 227//421
f 206//422 227//422 207//422
f 207//423 227//423 228//423
f 207//424 228//424 208//424
f 208//425 228//425 229//425
f 208//426 229//426 209//426
f 209//427 229//427 230//427
f 209//428 230//428 210//428
f 210//429 230//429 231//429
f 210//430 231//430 211//430
f 211//431 231//431 232//431
f 211//432 232//432 212//432
f 212//433 232//433 233//433
f 212//434 233//434 213//434
f 213//435 233//435 234//435
f 213//436 234//436 214//436
f 214//437 234//437 235//437
f 214//438 235//438 215//438
f 215//439 235//439 236//439
f 215//440 236//440 216//440
f 216//441 236//441 237//441
f 216//442 237//442 217//442
f 217//443 237//443 238//443
f 217//444 238//444 218//444
f 218//445 238//445 239//445
f 218//446 239//446 219//446
f 219//447 239//447 240//447
f 219//448 240//448 220//448
f 220//449 240//449 241//449
f 220//450 241//450 221//450
f 221//451 241//451 242//451
f 221//452 242//452 222//452
f 222//453 242//453 243//453
f 222//454 243//454 223//454
f 223//455 243//455 244//455
f 223//456 244//456 224//456
f 224//457 244//457 245//457
f 224//458 245//458 225//458
f 225//459 245//459 226//459
f 225//460 226//460 206//460
f 226//461 246//461 227//461
f 227//462 246//462 228//462
f 228//463 246//463 229//463
f 229//464 246//464 230//464
f 230//465 246//465 231//465
f 231//466 246//466 232//466
f 232//467 246//467 233//467
f 233//468 246//468 234//468
f 234//469 246//469 235//469
f 235//470 246//470 236//470
f 236//471 246//471 237//471
f 237//472 246//472 238//472
f 238//473 246//473 239//473
f 239//474 246//474 240//474
f 240//475 246//475 241//475
f 241//476 246//476 242//476
f 242//477 246//477 243//477
f 243//478 246//478 244//478
f 244//479 246//479 245//479
f 245//480 246//480 226//480
g stone_003
usemtl stone_0
s off
f 247//481 248//481 249//481
f 247//482 249//482 250//482
f 247//483 250//483 251//483
f 247//484 251//484 252//484
f 247//485 252//485 253//485
f 247//486 253//486 254//486
f 247//487 254//487 255//487
f 247//488 255//488 256//488
f 247//489 256//489 257//489
f 247//490 257//490 258//490
f 247//491 258//491 259//491
f 247//492 259//492 248//492
f 248//493 260//493 261//493
f 248//494 261//494 249//494
f 249//495 261//495 262//495
f 249//496 262//496 250//496
f 250//497 262//497 263//497
f 250//498 263//498 251//498
f 251//499 263//499 264//499
f 251//500 264//500 252//500
f 252//501 264//501 265//501
f 252//502 265//502 253//502
f 253//503 265//503 266//503
f 253//504 266//504 254//504
f 254//505 266//505 267//505
f 254//506 267//506 255//506
f 255//507 267//507 268//507
f 255//508 268//508 256//508
f 256//509 268//509 269//509
f 256//510 269//510 257//510
f 257//511 269//511 270//511
f 257//512 270//512 258//512
f 258//513 270//513 271//513
f 258//514 271//514 259//514
f 259//515 271//515 260//515
f 259//516 260//516 248//516
f 260//517 272//517 273//517
f 260//518 273//518 261//518
f 261//519 273//519 274//519
f 261//520 274//520 262//520
f 262//521 274//521 275//521
f 262//522 275//522 263//522
f 263//523 275//523 276//523
f 263//524 276//524 264//524
f 264//525 276//525 277//525
f 264//526 277//526 265//526
f 265//527 277//527 278//527
f 265//528 278//528 266//528
f 266//529 278//529 279//529
f 266//530 279//530 267//530
f 267//531 279//531 280//531
f 267//532 280//532 268//532
f 268//533 280//533 281//533
f 268//534 281//534 269//534
f 269//535 281//535 282//535
f 269//536 282//536 270//536
f 270//537 282//537 283//537
f 270//538 283//538 271//538
f 271//539 283//539 272//539
f 271//540 272//540 260//540
f 272//541 284//541 285//541
f 272//542 285//542 273//542
f 273//543 285//543 286//543
f 273//544 286//544 274//544
f 274//545 286//545 287//545
f 274//546 287//546 275//546
f 275//547 287//547 288//547
f 275//548 288//548 276//548
f 276//549 288//549 289//549
f 276//550 289//550 277//550
f 277//551 289//551 290//551
f 277//552 290//552 278//552
f 278//553 290//553 291//553
f 278//554 291//554 279//554
f 279//555 291//555 292//555
f 279//556 292//556 280//556
f 280//557 292//557 293//557
f 280//558 293//558 281//558
f 281//559 293//559 294//559
f 281//560 294//560 282//560
f 282//561 294//561 295//561
f 282//562 295//562 283//562
f 283//563 295//563 284//563
f 283//564 284//564 272//564
f 284//565 296//565 285//565
f 285//566 296//566 286//566
f 286//567 296//567 287//567
f 287//568 296//568 288//568
f 288//569 296//569 289//569
f 289//570 296//570 290//570
f 290//571 296//571 291//571
f 291//572 296//572 292//572
f 292//573 296//573 293//573
f 293//574 296//574 294//574
f 294//575 296//575 295//575
f 295//576 296//576 284//576
g stone_004
usemtl stone_1
s off
f 297//577 298//577 299//577
f 297//578 299//578 300//578
f 297//579 300//579 301//579
f 297//580 301//580 302//580
f 297//581 302//581 303//581
f 297//582 303//582 304//582
f 297//583 304//583 305//583
f 297//584 305//584 306//584
f 297//585 306//585 307//585
f 297//586 307//586 308//586
f 297//587 308//587 309//587
f 297//588 309//588 298//588
f 298//589 310//589 311//589
f 298//590 311//590 299//590
f 299//591 311//591 312//591
f 299//592 312//592 300//592
f 300//593 312//593 313//593
f 300//594 313//594 301//594
f 301//595 313//595 314//595
f 301//596 314//596 302//596
f 302//597 314//597 315//597
f 302//598 315//598 303//598
f 303//599 315//599 316//599
f 303//600 316//600 304//600
f 304//601 316//601 317//601
f 304//602 317//602 305//602
f 305//603 317//603 318//603
f 305//604 318//604 306//604
f 306//605 318//605 319//605
f 306//606 319//606 307//606
f 307//607 319//607 320//607
f 307//608 320//608 308//608
f 308//609 320//609 321//609
f 308//610 321//610 309//610
f 309//611 321//611 310//611
f 309//612 310//612 298//612
f 310//613 322//613 323//613
f 310//614 323//614 311//614
f 311//615 323//615 324//615
f 311//616 324//616 312//616
f 312//617 324//617 325//617
f 312//618 325//618 313//618
f 313//619 325//619 326//619
f 313//620 326//620 314//620
f 314//621 326//621 327//621
f 314//622 327//622 315//622
f 315//623 327//623 328//623
f 315//624 328//624 316//624
f 316//625 328//625 329//625
f 316//626 329//626 317//626
f 317//627 329//627 330//627
f 317//628 330//628 318//628
f 318//629 330//629 331//629
f 318//630 331//630 319//630
f 319//631 331//631 332//631
f 319//632 332//632 320//632
f 320//633 332//633 333//633
f 320//634 333//634 321//634
f 321//635 333//635 322//635
f 321//636 322//636 310//636
f 322//637 334//637 335//637
f 322//638 335//638 323//638
f 323//639 335//639 336//639
f 323//640 336//640 324//640
f 324//641 336//641 337//641
f 324//642 337//642 325//642
f 325//643 337//643 338//643
f 325//644 338//644 326//644
f 326//645 338//645 339//645
f 326//646 339//646 327//646
f 327//647 339//647 340//647
f 327//648 340//648 328//648
f 328//649 340//649 341//649
f 328//650 341//650 329//650
f 329//651 341//651 342//651
f 329//652 342//652 330//652
f 330//653 342//653 343//653
f 330//654 343//654 331//654
f 331//655 343//655 344//655
f 331//656 344//656 332//656
f 332//657 344//657 345//657
f 332//658 345//658 333//658
f 333//659 345//659 334//659
f 333//660 334//660 322//660
f 334//661 346//661 335//661
f 335//662 346//662 336//662
f 336//663 346//663 337//663
f 337//664 346//664 338//664
f 338//665 346//665 339//665
f 339//666 346//666 340//666
f 340//667 346//667 341//667
f 341//668 346//668 342//668
f 342//669 346//669 343//669
f 343//670 346//670 344//670
f 344//671 346//671 345//671
f 345//672 346//672 334//672
g stone_005
usemtl stone_2
s off
f 347//673 348//673 349//673
f 347//674 349//674 350//674
f 347//675 350//675 351//675
f 347//676 351//676 352//676
f 347//677 352//677 353//677
f 347//678 353//678 354//678
f 347//679 354//679 355//679
f 347//680 355//680 356//680
f 347//681 356//681 357//681
f 347//682 357//682 358//682
f 347//683 358//683 359//683
f 347//684 359//684 360//684
f 347//685 360//685 361//685
f 347//686 361//686 362//686
f 347//687 362//687 363//687
f 347//688 363//688 364//688
f 347//689 364//689 365//689
f 347//690 365//690 366//690
f 347//691 366//691 367//691
f 347//692 367//692 348//692
f 348//693 368//693 369//693
f 348//694 369//694 349//694
f 349//695 369//695 370//695
f 349//696 370//696 350//696
f 350//697 370//697 371//697
f 350//698 371//698 351//698
f 351//699 371//699 372//699
f 351//700 372//700 352//700
f 352//701 372//701 373//701
f 352//702 373//702 353//702
f 353//703 373//703 374//703
f 353//704 374//704 354//704
f 354//705 374//705 375//705
f 354//706 375//706 355//706
f 355//707 375//707 376//707
f 355//708 376//708 356//708
f 356//709 376//709 377//709
f 356//710 377//710 357//710
f 357//711 377//711 378//711
f 357//712 378//712 358//712
f 358//713 378//713 379//713
f 358//714 379//714 359//714
f 359//715 379//715 380//715
f 359//716 380//716 360//716
f 360//717 380//717 381//717
f 360//718 381//718 361//718
f 361//719 381//719 382//719
f 361//720 382//720 362//720
f 362//721 382//721 383//721
f 362//722 383//722 363//722
f 363//723 383//723 384//723
f 363//724 384//724 364//724
f 364//725 384//725 385//725
f 364//726 385//726 365//726
f 365//727 385//727 386//727
f 365//728 386//728 366//728
f 366//729 386//729 387//729
f 366//730 387//730 367//730
f 367//731 387//731 368//731
f 367//732 368//732 348//732
f 368//733 388//733 389//733
f 368//734 389//734 369//734
f 369//735 389//735 390//735
f 369//736 390//736 370//736
f 370//737 390//737 391//737
f 370//738 391//738 371//738
f 371//739 391//739 392//739
f 371//740 392//740 372//740
f 372//741 392//741 393//741
f 372//742 393//742 373//742
f 373//743 393//743 394//743
f 373//744 394//744 374//744
f 374//745 394//745 395//745
f 374//746 395//746 375//746
f 375//747 395//747 396//747
f 375//748 396//748 376//748
f 376//749 396//749 397//749
f 376//750 397//750 377//750
f 377//751 397//751 398//751
f 377//752 398//752 378//752
f 378//753 398//753 399//753
f 378//754 399//754 379//754
f 379//755 399//755 400//755
f 379//756 400//756 380//756
f 380//757 400//757 401//757
f 380//758 401//758 381//758
f 381//759 401//759 402//759
f 381//760 402//760 382//760
f 382//761 402//761 403//761
f 382//762 403//762 383//762
f 383//763 403//763 404//763
f 383//764 404//764 384//764
f 384//765 404//765 405//765
f 384//766 405//766 385//766
f 385//767 405//767 406//767
f 385//768 406//768 386//768
f 386//769 406//769 407//769
f 386//770 407//770 387//770
f 387//771 407//771 388//771
f 387//772 388//772 368//772
f 388//773 408//773 409//773
f 388//774 409//774 389//774
f 389//775 409//775 410//775
f 389//776 410//776 390//776
f 390//777 410//777 411//777
f 390//778 411//778 391//778
f 391//779 411//779 412//779
f 391//780 412//780 392//780
f 392//781 412//781 413//781
f 392//782 413//782 393//782
f 393//783 413//783 414//783
f 393//784 414//784 394//784
f 394//785 414//785 415//785
f 394//786 415//786 395//786
f 395//787 415//787 416//787
f 395//788 416//788 396//788
f 396//789 416//789 417//789
f 396//790 417//790 397//790
f 397//791 417//791 418//791
f 397//792 418//792 398//792
f 398//793 418//793 419//793
f 398//794 419//794 399//794
f 399//795 419//795 420//795
f 399//796 420//796 400//796
f 400//797 420//797 421//797
f 400//798 421//798 401//798
f 401//799 421//799 422//799
f 401//800 422//800 402//800
f 402//801 422//801 423//801
f 402//802 423//802 403//802
f 403//803 423//803 424//803
f 403//804 424//804 404//804
f 404//805 424//805 425//805
f 404//806 425//806 405//806
f 405//807 425//807 426//807
f 405//808 426//808 406//808
f 406//809 426//809 427//809
f 406//810 427//810 407//810
f 407//811 427//811 408//811
f 407//812 408//812 388//812
f 408//813 428//813 409//813
f 409//814 428//814 410//814
f 410//815 428//815 411//815
f 411//816 428//816 412//816
f 412//817 428//817 413//817
f 413//818 428//818 414//818
f 414//819 428//819 415//819
f 415//820 428//820 416//820
f 416//821 428//821 417//821
f 417//822 428//822 418//822
f 418//823 428//823 419//823
f 419//824 428//824 420//824
f 420//825 428//825 421//825
f 421//826 428//826 422//826
f 422//827 428//827 423//827
f 423//828 428//828 424//828
f 424//829 428//829 425//829
f 425//830 428//830 426//830
f 426//831 428//831 427//831
f 427//832 428//832 408//832
g stone_006
usemtl stone_1
s off
f 432//833 438//833 435//833
f 432//834 435//834 429//834
f 441//835 447//835 450//835
f 441//836 450//836 444//836
f 430//837 442//837 445//837
f 430//838 445//838 433//838
f 439//839 451//839 448//839
f 439//840 448//840 436//840
f 437//841 449//841 443//841
f 437//842 443//842 431//842
f 434//843 446//843 452//843
f 434//844 452//844 440//844
f 429//845 430//845 433//845
f 429//846 433//846 432//846
f 438//847 439//847 436//847
f 438//848 436//848 435//848
f 444//849 445//849 442//849
f 444//850 442//850 441//850
f 447//851 448//851 451//851
f 447//852 451//852 450//852
f 435//853 437//853 431//853
f 435//854 431//854 429//854
f 432//855 434//855 440//855
f 432//856 440//856 438//856
f 441//857 443//857 449//857
f 441//858 449//858 447//858
f 450//859 452//859 446//859
f 450//860 446//860 444//860
f 430//861 431//861 443//861
f 430//862 443//862 442//862
f 445//863 446//863 434//863
f 445//864 434//864 433//864
f 448//865 449//865 437//865
f 448//866 437//866 436//866
f 439//867 440//867 452//867
f 439//868 452//868 451//868
f 431//869 430//869 429//869
f 432//870 433//870 434//870
f 435//871 436//871 437//871
f 440//872 439//872 438//872
f 441//873 442//873 443//873
f 446//874 445//874 444//874
f 449//875 448//875 447//875
f 450//876 451//876 452//876
g stone_007
usemtl stone_0
s off
f 456//877 462//877 459//877
f 456//878 459//878 453//878
f 465//879 471//879 474//879
f 465//880 474//880 468//880
f 454//881 466//881 469//881
f 454//882 469//882 457//882
f 463//883 475//883 472//883
f 463//884 472//884 460//884
f 461//885 473//885 467//885
f 461//886 467//886 455//886
f 458//887 470//887 476//887
f 458//888 476//888 464//888
f 453//889 454//889 457//889
f 453//890 457//890 456//890
f 462//891 463//891 460//891
f 462//892 460//892 459//892
f 468//893 469//893 466//893
f 468//894 466//894 465//894
f 471//895 472//895 475//895
f 471//896 475//896 474//896
f 459//897 461//897 455//897
f 459//898 455//898 453//898
f 456//899 458//899 464//899
f 456//900 464//900 462//900
f 465//901 467//901 473//901
f 465//902 473//902 471//902
f 474//903 476//903 470//903
f 474//904 470//904 468//904
f 454//905 455//905 467//905
f 454//906 467//906 466//906
f 469//907 470//907 458//907
f 469//908 458//908 457//908
f 472//909 473//909 461//909
f 472//910 461//910 460//910
f 463//911 464//911 476//911
f 463//912 476//912 475//912
f 455//913 454//913 453//913
f 456//914 457//914 458//914
f 459//915 460//915 461//915
f 464//916 463//916 462//916
f 465//917 466//917 467//917
f 470//918 469//918 468//918
f 473//919 472//919 471//919
f 474//920 475//920 476//920
