# Ruins concept asset; Y up; units: meters
mtllib ruins.mtl
o ruin_pillar
v -0.790000 0.017684 -0.722316
v -0.772316 0.000000 -0.722316
v -0.772316 0.017684 -0.740000
v -0.790000 0.019186 0.720814
v -0.770814 0.000000 0.720814
v -0.770814 0.019186 0.740000
v -0.790000 0.316607 -0.716607
v -0.766607 0.340000 -0.716607
v -0.766607 0.316607 -0.740000
v -0.790000 0.312242 0.712242
v -0.762242 0.340000 0.712242
v -0.762242 0.312242 0.740000
v 0.790000 0.019580 -0.720420
v 0.770420 0.000000 -0.720420
v 0.770420 0.019580 -0.740000
v 0.790000 0.019187 0.720813
v 0.770813 0.000000 0.720813
v 0.770813 0.019187 0.740000
v 0.790000 0.319023 -0.719023
v 0.769023 0.340000 -0.719023
v 0.769023 0.319023 -0.740000
v 0.790000 0.311136 0.711136
v 0.761136 0.340000 0.711136
v 0.761136 0.311136 0.740000
v -0.650000 0.371203 -0.586797
v -0.626797 0.348000 -0.586797
v -0.626797 0.371203 -0.610000
v -0.650000 0.360958 0.597042
v -0.637042 0.348000 0.597042
v -0.637042 0.360958 0.610000
v -0.650000 0.514745 -0.596745
v -0.636745 0.528000 -0.596745
v -0.636745 0.514745 -0.610000
v -0.650000 0.512903 0.594903
v -0.634903 0.528000 0.594903
v -0.634903 0.512903 0.610000
v 0.650000 0.368510 -0.589490
v 0.629490 0.348000 -0.589490
v 0.629490 0.368510 -0.610000
v 0.650000 0.366282 0.591718
v 0.631718 0.348000 0.591718
v 0.631718 0.366282 0.610000
v 0.650000 0.513187 -0.595187
v 0.635187 0.528000 -0.595187
v 0.635187 0.513187 -0.610000
v 0.650000 0.508995 0.590995
v 0.630995 0.528000 0.590995
v 0.630995 0.508995 0.610000
v -0.472014 0.550744 -0.440620
v -0.457270 0.536000 -0.440608
v -0.457258 0.550744 -0.455352
v -0.472696 0.552167 0.438469
v -0.456529 0.536000 0.438481
v -0.456541 0.552167 0.454649
v -0.472015 1.121459 -0.438823
v -0.455474 1.138000 -0.438810
v -0.455461 1.121459 -0.455351
v -0.472691 1.115085 0.431721
v -0.449776 1.138000 0.431739
v -0.449793 1.115085 0.454654
v 0.465023 0.550872 -0.439765
v 0.450151 0.536000 -0.439776
v 0.450163 0.550872 -0.454648
v 0.464340 0.550943 0.440421
v 0.449397 0.536000 0.440409
v 0.449385 0.550943 0.455352
v 0.465020 1.119083 -0.435719
v 0.446103 1.138000 -0.435734
v 0.446118 1.119083 -0.454651
v 0.464342 1.119488 0.436852
v 0.445831 1.138000 0.436838
v 0.445816 1.119488 0.455349
v -0.460107 1.167633 -0.434464
v -0.438473 1.146000 -0.434413
v -0.438422 1.167633 -0.456046
v -0.462156 1.169281 0.430619
v -0.438875 1.146000 0.430674
v -0.438930 1.169281 0.453955
v -0.460086 1.735072 -0.443170
v -0.447158 1.748000 -0.443139
v -0.447127 1.735072 -0.456067
v -0.462163 1.727462 0.433361
v -0.441624 1.748000 0.433410
v -0.441673 1.727462 0.453948
v 0.467578 1.167978 -0.431922
v 0.445600 1.146000 -0.431974
v 0.445652 1.167978 -0.453952
v 0.465521 1.165632 0.436465
v 0.445888 1.146000 0.436419
v 0.445842 1.165632 0.456051
v 0.467595 1.733042 -0.438942
v 0.452636 1.748000 -0.438977
v 0.452672 1.733042 -0.453935
v 0.465524 1.726797 0.434894
v 0.444321 1.748000 0.434844
v 0.444271 1.726797 0.456047
v -0.467583 1.769047 -0.442999
v -0.454535 1.756000 -0.442969
v -0.454506 1.769047 -0.456017
v -0.469561 1.772229 0.437723
v -0.453332 1.756000 0.437759
v -0.453369 1.772229 0.453988
v -0.467590 2.341789 -0.439835
v -0.451379 2.358000 -0.439799
v -0.451342 2.341789 -0.456010
v -0.469560 2.341121 0.437073
v -0.452681 2.358000 0.437111
v -0.452719 2.341121 0.453990
v 0.464655 1.775585 -0.434367
v 0.445070 1.756000 -0.434411
v 0.445114 1.775585 -0.453996
v 0.462703 1.777631 0.434415
v 0.441072 1.756000 0.434367
v 0.441024 1.777631 0.455997
v 0.464647 2.335018 -0.430969
v 0.441665 2.358000 -0.431021
v 0.441716 2.335018 -0.454003
v 0.462706 2.334855 0.432901
v 0.439561 2.358000 0.432849
v 0.439509 2.334855 0.455994
v -0.460002 2.385337 -0.436862
v -0.440666 2.366000 -0.436812
v -0.440615 2.385337 -0.456149
v -0.462261 2.384495 0.435304
v -0.443766 2.366000 0.435351
v -0.443814 2.384495 0.453846
v -0.460003 2.948115 -0.436314
v -0.440119 2.968000 -0.436262
v -0.440067 2.948115 -0.456147
v -0.462273 2.954390 0.440188
v -0.448663 2.968000 0.440224
v -0.448698 2.954390 0.453834
v 0.466908 2.380682 -0.439116
v 0.452226 2.366000 -0.439154
v 0.452264 2.380682 -0.453836
v 0.464648 2.388547 0.433652
v 0.442101 2.366000 0.433593
v 0.442043 2.388547 0.456140
v 0.466897 2.948905 -0.434703
v 0.447802 2.968000 -0.434753
v 0.447851 2.948905 -0.453848
v 0.464642 2.947890 0.436089
v 0.444532 2.968000 0.436037
v 0.444480 2.947890 0.456147
v -0.461247 2.997664 -0.434056
v -0.439584 2.976000 -0.434023
v -0.439550 2.997664 -0.455686
v -0.462595 2.998157 0.432122
v -0.440438 2.976000 0.432157
v -0.440472 2.998157 0.454313
v -0.461235 3.564169 -0.441889
v -0.447404 3.578000 -0.441867
v -0.447383 3.564169 -0.455699
v -0.462606 3.563212 0.439491
v -0.447818 3.578000 0.439514
v -0.447841 3.563212 0.454302
v 0.465317 2.992206 -0.438072
v 0.449111 2.976000 -0.438098
v 0.449136 2.992206 -0.454304
v 0.463953 2.992952 0.438768
v 0.447002 2.976000 0.438742
v 0.446975 2.992952 0.455694
v 0.465322 3.564876 -0.441155
v 0.452198 3.578000 -0.441175
v 0.452218 3.564876 -0.454299
v 0.463958 3.557689 0.435409
v 0.443647 3.578000 0.435377
v 0.443616 3.557689 0.455688
v -0.597201 3.599668 -0.548928
v -0.583533 3.586000 -0.548983
v -0.583588 3.599668 -0.562650
v -0.592828 3.609216 0.544179
v -0.569612 3.586000 0.544086
v -0.569519 3.609216 0.567303
v -0.597200 3.792111 -0.548707
v -0.583311 3.806000 -0.548763
v -0.583367 3.792111 -0.562651
v -0.592794 3.791304 0.552699
v -0.578098 3.806000 0.552640
v -0.578039 3.791304 0.567337
v 0.602800 3.602220 -0.551175
v 0.586580 3.586000 -0.551110
v 0.586515 3.602220 -0.567331
v 0.607174 3.606305 0.542290
v 0.586869 3.586000 0.542372
v 0.586950 3.606305 0.562677
v 0.602823 3.784176 -0.545571
v 0.580999 3.806000 -0.545484
v 0.580911 3.784176 -0.567308
v 0.607184 3.788263 0.544858
v 0.589447 3.806000 0.544929
v 0.589518 3.788263 0.562666
v -0.722401 3.840674 -0.651240
v -0.695727 3.814000 -0.651134
v -0.695620 3.840674 -0.677808
v -0.727593 3.839181 0.646894
v -0.702413 3.814000 0.646995
v -0.702514 3.839181 0.672175
v -0.722416 4.083594 -0.647509
v -0.692010 4.114000 -0.647388
v -0.691889 4.083594 -0.677793
v -0.727565 4.081778 0.639853
v -0.695344 4.114000 0.639982
v -0.695473 4.081778 0.672203
v 0.737595 3.838854 -0.647221
v 0.712741 3.814000 -0.647320
v 0.712841 3.838854 -0.672174
v 0.732400 3.840360 0.651555
v 0.706040 3.814000 0.651449
v 0.705934 3.840360 0.677809
v 0.737573 4.083682 -0.641757
v 0.707255 4.114000 -0.641878
v 0.707376 4.083682 -0.672196
v 0.732393 4.089219 0.653133
v 0.707612 4.114000 0.653034
v 0.707513 4.089219 0.677815
v -0.607988 4.142084 -0.301120
v -0.587941 4.122000 -0.302324
v -0.589145 4.142084 -0.322371
v -0.560808 4.145110 0.484271
v -0.537739 4.122000 0.482885
v -0.536354 4.145110 0.505954
v -0.607940 4.251111 -0.300315
v -0.587088 4.272000 -0.301568
v -0.588340 4.251111 -0.322420
v -0.560343 4.256649 0.492016
v -0.545019 4.272000 0.491095
v -0.544098 4.256649 0.506419
v 0.160673 4.142867 -0.346510
v 0.139844 4.122000 -0.345258
v 0.138592 4.142867 -0.366088
v 0.207799 4.145238 0.437971
v 0.184602 4.122000 0.439364
v 0.185996 4.145238 0.462561
v 0.160404 4.255634 -0.351003
v 0.144067 4.272000 -0.350022
v 0.143086 4.255634 -0.366358
v 0.208429 4.259279 0.448469
v 0.195732 4.272000 0.449232
v 0.196494 4.259279 0.461930
v 0.802668 0.080849 0.292946
v 0.864843 0.010000 0.258979
v 0.830877 0.080849 0.196803
v 0.938750 0.075307 0.542043
v 0.996062 0.010000 0.510733
v 1.027371 0.075307 0.568045
v 0.810637 0.222528 0.307534
v 0.887401 0.310000 0.265597
v 0.845465 0.222528 0.188833
v 0.944841 0.257398 0.553192
v 0.991003 0.310000 0.527973
v 1.016222 0.257398 0.574136
v 1.223606 0.080220 0.062270
v 1.161982 0.010000 0.095935
v 1.128316 0.080220 0.034311
v 1.356727 0.082111 0.305947
v 1.293444 0.010000 0.340519
v 1.328016 0.082111 0.403802
v 1.230522 0.225354 0.074930
v 1.156238 0.310000 0.115511
v 1.115656 0.225354 0.041227
v 1.351426 0.226832 0.296244
v 1.278440 0.310000 0.336116
v 1.318313 0.226832 0.409103
v -1.019959 0.057060 -0.795076
v -0.965448 0.000000 -0.778213
v -0.948586 0.057060 -0.832725
v -1.093261 0.054896 -0.558110
v -1.040818 0.000000 -0.541887
v -1.057040 0.054896 -0.489443
v -1.017906 0.149889 -0.801714
v -0.970033 0.200000 -0.786905
v -0.955224 0.149889 -0.834778
v -1.095751 0.153529 -0.550062
v -1.051355 0.200000 -0.536328
v -1.065089 0.153529 -0.491933
v -0.644281 0.046580 -0.689834
v -0.688781 0.000000 -0.703600
v -0.675015 0.046580 -0.748100
v -0.723498 0.045362 -0.433749
v -0.766833 0.000000 -0.447154
v -0.780239 0.045362 -0.403818
v -0.645487 0.149340 -0.685937
v -0.693884 0.200000 -0.700908
v -0.678913 0.149340 -0.749305
v -0.723577 0.154907 -0.433492
v -0.766656 0.200000 -0.446818
v -0.779982 0.154907 -0.403739
vn -1.000000 0.000000 0.000000
vn -1.000000 0.000000 -0.000000
vn 1.000000 0.000000 0.000000
vn 1.000000 0.000000 -0.000000
vn 0.000000 -1.000000 0.000000
vn 0.000000 -1.000000 0.000000
vn 0.000000 1.000000 0.000000
vn 0.000000 1.000000 0.000000
vn 0.000000 0.000000 -1.000000
vn 0.000000 -0.000000 -1.000000
vn 0.000000 0.000000 1.000000
vn 0.000000 0.000000 1.000000
vn -0.707107 -0.707107 0.000736
vn -0.707107 -0.707107 0.000736
vn -0.707105 0.707105 0.002160
vn -0.707105 0.707105 0.002160
vn 0.707107 -0.707107 -0.000193
vn 0.707107 -0.707107 -0.000193
vn 0.707101 0.707101 0.003899
vn 0.707101 0.707101 0.003899
vn -0.707042 0.013502 -0.707042
vn -0.707042 0.013502 -0.707042
vn -0.706956 0.020679 0.706956
vn -0.706956 0.020679 0.706956
vn 0.707103 0.003298 -0.707103
vn 0.707103 0.003298 -0.707103
vn 0.706913 0.023432 0.706913
vn 0.706913 0.023432 0.706913
vn 0.000869 -0.707107 -0.707107
vn 0.000869 -0.707107 -0.707107
vn 0.000000 -0.707107 0.707107
vn 0.000000 -0.707107 0.707107
vn -0.001112 0.707106 -0.707106
vn -0.001112 0.707106 -0.707106
vn 0.000513 0.707107 0.707107
vn 0.000513 0.707107 0.707107
vn -0.577350 -0.577350 -0.577350
vn -0.577350 -0.577350 0.577350
vn -0.577350 0.577350 -0.577350
vn -0.577350 0.577350 0.577350
vn 0.577350 -0.577350 -0.577350
vn 0.577350 -0.577350 0.577350
vn 0.577350 0.577350 -0.577350
vn 0.577350 0.577350 0.577350
vn -1.000000 0.000000 0.000000
vn -1.000000 0.000000 0.000000
vn 1.000000 -0.000000 0.000000
vn 1.000000 0.000000 -0.000000
vn 0.000000 -1.000000 0.000000
vn 0.000000 -1.000000 0.000000
vn 0.000000 1.000000 0.000000
vn 0.000000 1.000000 0.000000
vn 0.000000 0.000000 -1.000000
vn 0.000000 0.000000 -1.000000
vn 0.000000 0.000000 1.000000
vn 0.000000 0.000000 1.000000
vn -0.707094 -0.707094 -0.006119
vn -0.707094 -0.707094 -0.006119
vn -0.707106 0.707106 0.001093
vn -0.707106 0.707106 0.001093
vn 0.707106 -0.707106 -0.001334
vn 0.707106 -0.707106 -0.001334
vn 0.707105 0.707105 0.002499
vn 0.707105 0.707105 0.002499
vn -0.706259 -0.048945 -0.706259
vn -0.706259 -0.048945 -0.706259
vn -0.707072 0.009954 0.707072
vn -0.707072 0.009954 0.707072
vn 0.706833 -0.027830 -0.706833
vn 0.706833 -0.027830 -0.706833
vn 0.707102 0.003586 0.707102
vn 0.707102 0.003586 0.707102
vn -0.001516 -0.707106 -0.707106
vn -0.001516 -0.707106 -0.707106
vn 0.002967 -0.707104 0.707104
vn 0.002967 -0.707104 0.707104
vn 0.000866 0.707107 -0.707107
vn 0.000866 0.707107 -0.707107
vn 0.002183 0.707105 0.707105
vn 0.002183 0.707105 0.707105
vn -0.577350 -0.577350 -0.577350
vn -0.577350 -0.577350 0.577350
vn -0.577350 0.577350 -0.577350
vn -0.577350 0.577350 0.577350
vn 0.577350 -0.577350 -0.577350
vn 0.577350 -0.577350 0.577350
vn 0.577350 0.577350 -0.577350
vn 0.577350 0.577350 0.577350
vn -1.000000 0.000000 -0.000776
vn -1.000000 -0.000000 -0.000776
vn 1.000000 -0.000000 0.000776
vn 1.000000 -0.000000 0.000776
vn 0.000000 -1.000000 0.000000
vn 0.000000 -1.000000 0.000000
vn -0.000000 1.000000 0.000000
vn 0.000000 1.000000 0.000000
vn 0.000776 0.000000 -1.000000
vn 0.000776 0.000000 -1.000000
vn -0.000776 0.000000 1.000000
vn -0.000776 0.000000 1.000000
vn -0.707107 -0.707106 0.000596
vn -0.707107 -0.707106 0.000596
vn -0.707101 0.707097 0.004629
vn -0.707101 0.707097 0.004629
vn 0.707107 -0.707107 0.000606
vn 0.707107 -0.707107 0.000606
vn 0.707107 0.707107 0.000221
vn 0.707107 0.707107 0.000221
vn -0.706556 0.002227 -0.707654
vn -0.706556 0.002227 -0.707654
vn -0.707630 0.008476 0.706532
vn -0.707630 0.008476 0.706532
vn 0.707647 0.005034 -0.706549
vn 0.707647 0.005034 -0.706549
vn 0.706551 0.004439 0.707649
vn 0.706551 0.004439 0.707649
vn 0.000649 -0.707107 -0.707106
vn 0.000649 -0.707107 -0.707106
vn -0.001505 -0.707106 0.707106
vn -0.001505 -0.707106 0.707106
vn 0.002413 0.707106 -0.707104
vn 0.002413 0.707106 -0.707104
vn -0.004026 0.707103 0.707100
vn -0.004026 0.707103 0.707100
vn -0.576902 -0.577350 -0.577798
vn -0.577798 -0.577350 0.576902
vn -0.576902 0.577350 -0.577798
vn -0.577798 0.577350 0.576902
vn 0.577798 -0.577350 -0.576902
vn 0.576902 -0.577350 0.577798
vn 0.577798 0.577350 -0.576902
vn 0.576902 0.577350 0.577798
vn -0.999997 0.000000 -0.002369
vn -0.999997 0.000000 -0.002369
vn 0.999997 0.000000 0.002369
vn 0.999997 -0.000000 0.002369
vn 0.000000 -1.000000 0.000000
vn 0.000000 -1.000000 0.000000
vn -0.000000 1.000000 0.000000
vn 0.000000 1.000000 0.000000
vn 0.002369 -0.000000 -0.999997
vn 0.002369 0.000000 -0.999997
vn -0.002369 0.000000 0.999997
vn -0.002369 -0.000000 0.999997
vn -0.707107 -0.707106 -0.000328
vn -0.707107 -0.707106 -0.000328
vn -0.707106 0.707093 0.004464
vn -0.707106 0.707093 0.004464
vn 0.707108 -0.707105 -0.000235
vn 0.707108 -0.707105 -0.000235
vn 0.707084 0.707098 0.006729
vn 0.707084 0.707098 0.006729
vn -0.705388 -0.010847 -0.708738
vn -0.705388 -0.010847 -0.708738
vn -0.708776 -0.003474 0.705425
vn -0.708776 -0.003474 0.705425
vn 0.708753 -0.008784 -0.705402
vn 0.708753 -0.008784 -0.705402
vn 0.705428 0.001979 0.708779
vn 0.705428 0.001979 0.708779
vn 0.001951 -0.707107 -0.707104
vn 0.001951 -0.707107 -0.707104
vn -0.004591 -0.707104 0.707095
vn -0.004591 -0.707104 0.707095
vn 0.003271 0.707106 -0.707100
vn 0.003271 0.707106 -0.707100
vn -0.001145 0.707107 0.707106
vn -0.001145 0.707107 0.707106
vn -0.575981 -0.577350 -0.578716
vn -0.578716 -0.577350 0.575981
vn -0.575981 0.577350 -0.578716
vn -0.578716 0.577350 0.575981
vn 0.578716 -0.577350 -0.575981
vn 0.575981 -0.577350 0.578716
vn 0.578716 0.577350 -0.575981
vn 0.575981 0.577350 0.578716
vn -0.999997 0.000000 -0.002247
vn -0.999997 0.000000 -0.002247
vn 0.999997 -0.000000 0.002247
vn 0.999997 -0.000000 0.002247
vn 0.000000 -1.000000 0.000000
vn 0.000000 -1.000000 0.000000
vn 0.000000 1.000000 0.000000
vn 0.000000 1.000000 0.000000
vn 0.002247 0.000000 -0.999997
vn 0.002247 -0.000000 -0.999997
vn -0.002247 0.000000 0.999997
vn -0.002247 -0.000000 0.999997
vn -0.707108 -0.707104 0.000966
vn -0.707108 -0.707104 0.000966
vn -0.707106 0.707107 -0.001050
vn -0.707106 0.707107 -0.001050
vn 0.707100 -0.707106 0.003253
vn 0.707100 -0.707106 0.003253
vn 0.707105 0.707107 0.001722
vn 0.707105 0.707107 0.001722
vn -0.705511 0.003906 -0.708688
vn -0.705511 0.003906 -0.708688
vn -0.708693 0.000808 0.705516
vn -0.708693 0.000808 0.705516
vn 0.708687 0.004294 -0.705510
vn 0.708687 0.004294 -0.705510
vn 0.705515 0.001922 0.708692
vn 0.705515 0.001922 0.708692
vn 0.006727 -0.707097 -0.707084
vn 0.006727 -0.707097 -0.707084
vn 0.002682 -0.707100 0.707108
vn 0.002682 -0.707100 0.707108
vn 0.006950 0.707097 -0.707083
vn 0.006950 0.707097 -0.707083
vn 0.003378 0.707098 0.707107
vn 0.003378 0.707098 0.707107
vn -0.576052 -0.577350 -0.578646
vn -0.578646 -0.577350 0.576052
vn -0.576052 0.577350 -0.578646
vn -0.578646 0.577350 0.576052
vn 0.578646 -0.577350 -0.576052
vn 0.576052 -0.577350 0.578646
vn 0.578646 0.577350 -0.576052
vn 0.576052 0.577350 0.578646
vn -0.999997 -0.000000 -0.002590
vn -0.999997 -0.000000 -0.002590
vn 0.999997 0.000000 0.002590
vn 0.999997 0.000000 0.002590
vn 0.000000 -1.000000 0.000000
vn 0.000000 -1.000000 0.000000
vn 0.000000 1.000000 0.000000
vn 0.000000 1.000000 0.000000
vn 0.002590 -0.000000 -0.999997
vn 0.002590 0.000000 -0.999997
vn -0.002590 -0.000000 0.999997
vn -0.002590 0.000000 0.999997
vn -0.707102 -0.707107 -0.002514
vn -0.707102 -0.707107 -0.002514
vn -0.707082 0.707098 -0.006893
vn -0.707082 0.707098 -0.006893
vn 0.707074 -0.707092 0.008203
vn 0.707074 -0.707092 0.008203
vn 0.707102 0.707107 0.002655
vn 0.707102 0.707107 0.002655
vn -0.705273 0.000689 -0.708935
vn -0.705273 0.000689 -0.708935
vn -0.708923 -0.006061 0.705260
vn -0.708923 -0.006061 0.705260
vn 0.708925 0.005491 -0.705263
vn 0.708925 0.005491 -0.705263
vn 0.705270 -0.003081 0.708932
vn 0.705270 -0.003081 0.708932
vn -0.001855 -0.707102 -0.707109
vn -0.001855 -0.707102 -0.707109
vn 0.001403 -0.707103 0.707109
vn 0.001403 -0.707103 0.707109
vn 0.001202 0.707107 -0.707106
vn 0.001202 0.707107 -0.707106
vn 0.003315 0.707097 0.707108
vn 0.003315 0.707097 0.707108
vn -0.575853 -0.577350 -0.578843
vn -0.578843 -0.577350 0.575853
vn -0.575853 0.577350 -0.578843
vn -0.578843 0.577350 0.575853
vn 0.578843 -0.577350 -0.575853
vn 0.575853 -0.577350 0.578843
vn 0.578843 0.577350 -0.575853
vn 0.575853 0.577350 0.578843
vn -0.999999 0.000000 -0.001555
vn -0.999999 -0.000000 -0.001555
vn 0.999999 -0.000000 0.001555
vn 0.999999 -0.000000 0.001555
vn 0.000000 -1.000000 0.000000
vn 0.000000 -1.000000 0.000000
vn 0.000000 1.000000 0.000000
vn 0.000000 1.000000 0.000000
vn 0.001555 -0.000000 -0.999999
vn 0.001555 -0.000000 -0.999999
vn -0.001555 0.000000 0.999999
vn -0.001555 -0.000000 0.999999
vn -0.707106 -0.707107 -0.000697
vn -0.707106 -0.707107 -0.000697
vn -0.707107 0.707107 -0.000332
vn -0.707107 0.707107 -0.000332
vn 0.707105 -0.707107 0.001701
vn 0.707105 -0.707107 0.001701
vn 0.707085 0.707095 0.006897
vn 0.707085 0.707095 0.006897
vn -0.705972 -0.009776 -0.708172
vn -0.705972 -0.009776 -0.708172
vn -0.708176 -0.009221 0.705976
vn -0.708176 -0.009221 0.705976
vn 0.708201 -0.003806 -0.706001
vn 0.708201 -0.003806 -0.706001
vn 0.706000 0.004206 0.708199
vn 0.706000 0.004206 0.708199
vn -0.003242 -0.707100 -0.707106
vn -0.003242 -0.707100 -0.707106
vn -0.005247 -0.707101 0.707093
vn -0.005247 -0.707101 0.707093
vn 0.000544 0.707107 -0.707107
vn 0.000544 0.707107 -0.707107
vn 0.003281 0.707100 0.707106
vn 0.003281 0.707100 0.707106
vn -0.576452 -0.577350 -0.578248
vn -0.578248 -0.577350 0.576452
vn -0.576452 0.577350 -0.578248
vn -0.578248 0.577350 0.576452
vn 0.578248 -0.577350 -0.576452
vn 0.576452 -0.577350 0.578248
vn 0.578248 0.577350 -0.576452
vn 0.576452 0.577350 0.578248
vn -0.999992 -0.000000 0.004000
vn -0.999992 0.000000 0.004000
vn 0.999992 0.000000 -0.004000
vn 0.999992 0.000000 -0.004000
vn 0.000000 -1.000000 0.000000
vn 0.000000 -1.000000 0.000000
vn 0.000000 1.000000 0.000000
vn 0.000000 1.000000 0.000000
vn -0.004000 -0.000000 -0.999992
vn -0.004000 -0.000000 -0.999992
vn 0.004000 0.000000 0.999992
vn 0.004000 0.000000 0.999992
vn -0.707063 -0.707093 0.009005
vn -0.707063 -0.707093 0.009005
vn -0.707099 0.707107 0.003347
vn -0.707099 0.707107 0.003347
vn 0.707109 -0.707104 -0.000187
vn 0.707109 -0.707104 -0.000187
vn 0.707088 0.707104 -0.005478
vn 0.707088 0.707104 -0.005478
vn -0.709929 0.000812 -0.704272
vn -0.709929 0.000812 -0.704272
vn -0.703888 -0.033068 0.709541
vn -0.703888 -0.033068 0.709541
vn 0.704106 0.021772 -0.709761
vn 0.704106 0.021772 -0.709761
vn 0.709894 -0.009979 0.704238
vn 0.709894 -0.009979 0.704238
vn -0.001286 -0.707106 -0.707106
vn -0.001286 -0.707106 -0.707106
vn 0.001049 -0.707106 0.707107
vn 0.001049 -0.707106 0.707107
vn 0.001991 0.707099 -0.707112
vn 0.001991 0.707099 -0.707112
vn 0.004670 0.707106 0.707093
vn 0.004670 0.707106 0.707093
vn -0.579655 -0.577350 -0.575036
vn -0.575036 -0.577350 0.579655
vn -0.579655 0.577350 -0.575036
vn -0.575036 0.577350 0.579655
vn 0.575036 -0.577350 -0.579655
vn 0.579655 -0.577350 0.575036
vn 0.575036 0.577350 -0.579655
vn 0.579655 0.577350 0.575036
vn -0.999992 0.000000 -0.004000
vn -0.999992 0.000000 -0.004000
vn 0.999992 0.000000 0.004000
vn 0.999992 0.000000 0.004000
vn 0.000000 -1.000000 0.000000
vn 0.000000 -1.000000 0.000000
vn -0.000000 1.000000 0.000000
vn 0.000000 1.000000 0.000000
vn 0.004000 -0.000000 -0.999992
vn 0.004000 -0.000000 -0.999992
vn -0.004000 0.000000 0.999992
vn -0.004000 0.000000 0.999992
vn -0.707098 -0.707107 -0.003642
vn -0.707098 -0.707107 -0.003642
vn -0.707105 0.707106 -0.001831
vn -0.707105 0.707106 -0.001831
vn 0.707098 -0.707107 0.003649
vn 0.707098 -0.707107 0.003649
vn 0.707110 0.707104 -0.000195
vn 0.707110 0.707104 -0.000195
vn -0.704231 0.010860 -0.709888
vn -0.704231 0.010860 -0.709888
vn -0.709780 0.020519 0.704124
vn -0.709780 0.020519 0.704124
vn 0.709841 0.015780 -0.704185
vn 0.709841 0.015780 -0.704185
vn 0.704266 -0.004486 0.709922
vn 0.704266 -0.004486 0.709922
vn 0.001914 -0.707106 -0.707104
vn 0.001914 -0.707106 -0.707104
vn -0.002236 -0.707107 0.707103
vn -0.002236 -0.707107 0.707103
vn 0.002784 0.707107 -0.707101
vn 0.002784 0.707107 -0.707101
vn -0.006578 0.707102 0.707081
vn -0.006578 0.707102 0.707081
vn -0.575036 -0.577350 -0.579655
vn -0.579655 -0.577350 0.575036
vn -0.575036 0.577350 -0.579655
vn -0.579655 0.577350 0.575036
vn 0.579655 -0.577350 -0.575036
vn 0.575036 -0.577350 0.579655
vn 0.579655 0.577350 -0.575036
vn 0.575036 0.577350 0.579655
vn -0.998201 -0.000000 0.059964
vn -0.998201 -0.000000 0.059964
vn 0.998201 0.000000 -0.059964
vn 0.998201 0.000000 -0.059964
vn 0.000000 -1.000000 0.000000
vn 0.000000 -1.000000 0.000000
vn 0.000000 1.000000 0.000000
vn 0.000000 1.000000 0.000000
vn -0.059964 -0.000000 -0.998201
vn -0.059964 -0.000000 -0.998201
vn 0.059964 0.000000 0.998201
vn 0.059964 0.000000 0.998201
vn -0.705669 -0.707104 0.045116
vn -0.705669 -0.707104 0.045116
vn -0.706122 0.707098 0.037476
vn -0.706122 0.707098 0.037476
vn 0.705961 -0.707105 -0.040271
vn 0.705961 -0.707105 -0.040271
vn 0.705638 0.707103 -0.045613
vn 0.705638 0.707103 -0.045613
vn -0.748225 0.005227 -0.663424
vn -0.748225 0.005227 -0.663424
vn -0.662632 -0.049128 0.747332
vn -0.662632 -0.049128 0.747332
vn 0.663169 -0.028215 -0.747937
vn 0.663169 -0.028215 -0.747937
vn 0.746649 -0.065075 0.662027
vn 0.746649 -0.065075 0.662027
vn -0.041642 -0.707107 -0.705880
vn -0.041642 -0.707107 -0.705880
vn 0.042526 -0.707107 0.705827
vn 0.042526 -0.707107 0.705827
vn -0.046758 0.707100 -0.705566
vn -0.046758 0.707100 -0.705566
vn 0.039898 0.707105 0.705982
vn 0.039898 0.707105 0.705982
vn -0.610932 -0.577350 -0.541691
vn -0.541691 -0.577350 0.610932
vn -0.610932 0.577350 -0.541691
vn -0.541691 0.577350 0.610932
vn 0.541691 -0.577350 -0.610932
vn 0.610932 -0.577350 0.541691
vn 0.541691 0.577350 -0.610932
vn 0.610932 0.577350 0.541691
vn -0.877583 0.000000 0.479426
vn -0.877583 0.000000 0.479426
vn 0.877583 0.000000 -0.479426
vn 0.877583 0.000000 -0.479426
vn 0.000000 -1.000000 0.000000
vn 0.000000 -1.000000 0.000000
vn 0.000000 1.000000 0.000000
vn 0.000000 1.000000 0.000000
vn -0.479426 -0.000000 -0.877583
vn -0.479426 -0.000000 -0.877583
vn 0.479426 -0.000000 0.877583
vn 0.479426 -0.000000 0.877583
vn -0.627104 -0.707039 0.326857
vn -0.627104 -0.707039 0.326857
vn -0.660218 0.704379 0.260695
vn -0.660218 0.704379 0.260695
vn 0.622845 -0.707099 -0.334776
vn 0.622845 -0.707099 -0.334776
vn 0.618552 0.707101 -0.342641
vn 0.618552 0.707101 -0.342641
vn -0.956264 0.082681 -0.280576
vn -0.956264 0.082681 -0.280576
vn -0.281198 -0.049276 0.958384
vn -0.281198 -0.049276 0.958384
vn 0.280847 0.070113 -0.957188
vn 0.280847 0.070113 -0.957188
vn 0.958152 0.053945 0.281130
vn 0.958152 0.053945 0.281130
vn -0.340156 -0.707106 -0.619915
vn -0.340156 -0.707106 -0.619915
vn 0.351295 -0.707037 0.613751
vn 0.351295 -0.707037 0.613751
vn -0.344693 0.707092 -0.617420
vn -0.344693 0.707092 -0.617420
vn 0.393332 0.705717 0.589282
vn 0.393332 0.705717 0.589282
vn -0.783469 -0.577350 -0.229876
vn -0.229876 -0.577350 0.783469
vn -0.783469 0.577350 -0.229876
vn -0.229876 0.577350 0.783469
vn 0.229876 -0.577350 -0.783469
vn 0.783469 -0.577350 0.229876
vn 0.229876 0.577350 -0.783469
vn 0.783469 0.577350 0.229876
vn -0.955336 0.000000 -0.295520
vn -0.955336 0.000000 -0.295520
vn 0.955336 -0.000000 0.295520
vn 0.955336 -0.000000 0.295520
vn 0.000000 -1.000000 0.000000
vn 0.000000 -1.000000 0.000000
vn -0.000000 1.000000 0.000000
vn 0.000000 1.000000 0.000000
vn 0.295520 0.000000 -0.955336
vn 0.295520 -0.000000 -0.955336
vn -0.295520 -0.000000 0.955336
vn -0.295520 -0.000000 0.955336
vn -0.673689 -0.707093 -0.214854
vn -0.673689 -0.707093 -0.214854
vn -0.672605 0.707073 -0.218289
vn -0.672605 0.707073 -0.218289
vn 0.676471 -0.707103 0.205893
vn 0.676471 -0.707103 0.205893
vn 0.679852 0.707028 0.194712
vn 0.679852 0.707028 0.194712
vn -0.465908 -0.052856 -0.883253
vn -0.465908 -0.052856 -0.883253
vn -0.882881 -0.060285 0.465712
vn -0.882881 -0.060285 0.465712
vn 0.884141 0.028062 -0.466377
vn 0.884141 0.028062 -0.466377
vn 0.466560 -0.001736 0.884488
vn 0.466560 -0.001736 0.884488
vn 0.184181 -0.706870 -0.682944
vn 0.184181 -0.706870 -0.682944
vn -0.231130 -0.706915 0.668468
vn -0.231130 -0.706915 0.668468
vn 0.210245 0.707106 -0.675128
vn 0.210245 0.707106 -0.675128
vn -0.212083 0.707103 0.674556
vn -0.212083 0.707103 0.674556
vn -0.380945 -0.577350 -0.722182
vn -0.722182 -0.577350 0.380945
vn -0.380945 0.577350 -0.722182
vn -0.722182 0.577350 0.380945
vn 0.722182 -0.577350 -0.380945
vn 0.380945 -0.577350 0.722182
vn 0.722182 0.577350 -0.380945
vn 0.380945 0.577350 0.722182
g stone_000
usemtl stone_1
s off
f 4//1 10//1 7//1
f 4//2 7//2 1//2
f 13//3 19//3 22//3
f 13//4 22//4 16//4
f 2//5 14//5 17//5
f 2//6 17//6 5//6
f 11//7 23//7 20//7
f 11//8 20//8 8//8
f 9//9 21//9 15//9
f 9//10 15//10 3//10
f 6//11 18//11 24//11
f 6//12 24//12 12//12
f 1//13 2//13 5//13
f 1//14 5//14 4//14
f 10//15 11//15 8//15
f 10//16 8//16 7//16
f 16//17 17//17 14//17
f 16//18 14//18 13//18
f 19//19 20//19 23//19
f 19//20 23//20 22//20
f 7//21 9//21 3//21
f 7//22 3//22 1//22
f 4//23 6//23 12//23
f 4//24 12//24 10//24
f 13//25 15//25 21//25
f 13//26 21//26 19//26
f 22//27 24//27 18//27
f 22//28 18//28 16//28
f 2//29 3//29 15//29
f 2//30 15//30 14//30
f 17//31 18//31 6//31
f 17//32 6//32 5//32
f 20//33 21//33 9//33
f 20//34 9//34 8//34
f 11//35 12//35 24//35
f 11//36 24//36 23//36
f 3//37 2//37 1//37
f 4//38 5//38 6//38
f 7//39 8//39 9//39
f 12//40 11//40 10//40
f 13//41 14//41 15//41
f 18//42 17//42 16//42
f 21//43 20//43 19//43
f 22//44 23//44 24//44
g stone_001
usemtl stone_0
s off
f 28//45 34//45 31//45
f 28//46 31//46 25//46
f 37//47 43//47 46//47
f 37//48 46//48 40//48
f 26//49 38//49 41//49
f 26//50 41//50 29//50
f 35//51 47//51 44//51
f 35//52 44//52 32//52
f 33//53 45//53 39//53
f 33//54 39//54 27//54
f 30//55 42//55 48//55
f 30//56 48//56 36//56
f 25//57 26//57 29//57
f 25//58 29//58 28//58
f 34//59 35//59 32//59
f 34//60 32//60 31//60
f 40//61 41//61 38//61
f 40//62 38//62 37//62
f 43//63 44//63 47//63
f 43//64 47//64 46//64
f 31//65 33//65 27//65
f 31//66 27//66 25//66
f 28//67 30//67 36//67
f 28//68 36//68 34//68
f 37//69 39//69 45//69
f 37//70 45//70 43//70
f 46//71 48//71 42//71
f 46//72 42//72 40//72
f 26//73 27//73 39//73
f 26//74 39//74 38//74
f 41//75 42//75 30//75
f 41//76 30//76 29//76
f 44//77 45//77 33//77
f 44//78 33//78 32//78
f 35//79 36//79 48//79
f 35//80 48//80 47//80
f 27//81 26//81 25//81
f 28//82 29//82 30//82
f 31//83 32//83 33//83
f 36//84 35//84 34//84
f 37//85 38//85 39//85
f 42//86 41//86 40//86
f 45//87 44//87 43//87
f 46//88 47//88 48//88
g stone_002
usemtl stone_0
s off
f 52//89 58//89 55//89
f 52//90 55//90 49//90
f 61//91 67//91 70//91
f 61//92 70//92 64//92
f 50//93 62//93 65//93
f 50//94 65//94 53//94
f 59//95 71//95 68//95
f 59//96 68//96 56//96
f 57//97 69//97 63//97
f 57//98 63//98 51//98
f 54//99 66//99 72//99
f 54//100 72//100 60//100
f 49//101 50//101 53//101
f 49//102 53//102 52//102
f 58//103 59//103 56//103
f 58//104 56//104 55//104
f 64//105 65//105 62//105
f 64//106 62//106 61//106
f 67//107 68//107 71//107
f 67//108 71//108 70//108
f 55//109 57//109 51//109
f 55//110 51//110 49//110
f 52//111 54//111 60//111
f 52//112 60//112 58//112
f 61//113 63//113 69//113
f 61//114 69//114 67//114
f 70//115 72//115 66//115
f 70//116 66//116 64//116
f 50//117 51//117 63//117
f 50//118 63//118 62//118
f 65//119 66//119 54//119
f 65//120 54//120 53//120
f 68//121 69//121 57//121
f 68//122 57//122 56//122
f 59//123 60//123 72//123
f 59//124 72//124 71//124
f 51//125 50//125 49//125
f 52//126 53//126 54//126
f 55//127 56//127 57//127
f 60//128 59//128 58//128
f 61//129 62//129 63//129
f 66//130 65//130 64//130
f 69//131 68//131 67//131
f 70//132 71//132 72//132
g stone_003
usemtl stone_2
s off
f 76//133 82//133 79//133
f 76//134 79//134 73//134
f 85//135 91//135 94//135
f 85//136 94//136 88//136
f 74//137 86//137 89//137
f 74//138 89//138 77//138
f 83//139 95//139 92//139
f 83//140 92//140 80//140
f 81//141 93//141 87//141
f 81//142 87//142 75//142
f 78//143 90//143 96//143
f 78//144 96//144 84//144
f 73//145 74//145 77//145
f 73//146 77//146 76//146
f 82//147 83//147 80//147
f 82//148 80//148 79//148
f 88//149 89//149 86//149
f 88//150 86//150 85//150
f 91//151 92//151 95//151
f 91//152 95//152 94//152
f 79//153 81//153 75//153
f 79//154 75//154 73//154
f 76//155 78//155 84//155
f 76//156 84//156 82//156
f 85//157 87//157 93//157
f 85//158 93//158 91//158
f 94//159 96//159 90//159
f 94//160 90//160 88//160
f 74//161 75//161 87//161
f 74//162 87//162 86//162
f 89//163 90//163 78//163
f 89//164 78//164 77//164
f 92//165 93//165 81//165
f 92//166 81//166 80//166
f 83//167 84//167 96//167
f 83//168 96//168 95//168
f 75//169 74//169 73//169
f 76//170 77//170 78//170
f 79//171 80//171 81//171
f 84//172 83//172 82//172
f 85//173 86//173 87//173
f 90//174 89//174 88//174
f 93//175 92//175 91//175
f 94//176 95//176 96//176
g stone_004
usemtl stone_0
s off
f 100//177 106//177 103//177
f 100//178 103//178 97//178
f 109//179 115//179 118//179
f 109//180 118//180 112//180
f 98//181 110//181 113//181
f 98//182 113//182 101//182
f 107//183 119//183 116//183
f 107//184 116//184 104//184
f 105//185 117//185 111//185
f 105//186 111//186 99//186
f 102//187 114//187 120//187
f 102//188 120//188 108//188
f 97//189 98//189 101//189
f 97//190 101//190 100//190
f 106//191 107//191 104//191
f 106//192 104//192 103//192
f 112//193 113//193 110//193
f 112//194 110//194 109//194
f 115//195 116//195 119//195
f 115//196 119//196 118//196
f 103//197 105//197 99//197
f 103//198 99//198 97//198
f 100//199 102//199 108//199
f 100//200 108//200 106//200
f 109//201 111//201 117//201
f 109//202 117//202 115//202
f 118//203 120//203 114//203
f 118//204 114//204 112//204
f 98//205 99//205 111//205
f 98//206 111//206 110//206
f 113//207 114//207 102//207
f 113//208 102//208 101//208
f 116//209 117//209 105//209
f 116//210 105//210 104//210
f 107//211 108//211 120//211
f 107//212 120//212 119//212
f 99//213 98//213 97//213
f 100//214 101//214 102//214
f 103//215 104//215 105//215
f 108//216 107//216 106//216
f 109//217 110//217 111//217
f 114//218 113//218 112//218
f 117//219 116//219 115//219
f 118//220 119//220 120//220
g stone_005
usemtl stone_0
s off
f 124//221 130//221 127//221
f 124//222 127//222 121//222
f 133//223 139//223 142//223
f 133//224 142//224 136//224
f 122//225 134//225 137//225
f 122//226 137//226 125//226
f 131//227 143//227 140//227
f 131//228 140//228 128//228
f 129//229 141//229 135//229
f 129//230 135//230 123//230
f 126//231 138//231 144//231
f 126//232 144//232 132//232
f 121//233 122//233 125//233
f 121//234 125//234 124//234
f 130//235 131//235 128//235
f 130//236 128//236 127//236
f 136//237 137//237 134//237
f 136//238 134//238 133//238
f 139//239 140//239 143//239
f 139//240 143//240 142//240
f 127//241 129//241 123//241
f 127//242 123//242 121//242
f 124//243 126//243 132//243
f 124//244 132//244 130//244
f 133//245 135//245 141//245
f 133//246 141//246 139//246
f 142//247 144//247 138//247
f 142//248 138//248 136//248
f 122//249 123//249 135//249
f 122//250 135//250 134//250
f 137//251 138//251 126//251
f 137//252 126//252 125//252
f 140//253 141//253 129//253
f 140//254 129//254 128//254
f 131//255 132//255 144//255
f 131//256 144//256 143//256
f 123//257 122//257 121//257
f 124//258 125//258 126//258
f 127//259 128//259 129//259
f 132//260 131//260 130//260
f 133//261 134//261 135//261
f 138//262 137//262 136//262
f 141//263 140//263 139//263
f 142//264 143//264 144//264
g stone_006
usemtl stone_2
s off
f 148//265 154//265 151//265
f 148//266 151//266 145//266
f 157//267 163//267 166//267
f 157//268 166//268 160//268
f 146//269 158//269 161//269
f 146//270 161//270 149//270
f 155//271 167//271 164//271
f 155//272 164//272 152//272
f 153//273 165//273 159//273
f 153//274 159//274 147//274
f 150//275 162//275 168//275
f 150//276 168//276 156//276
f 145//277 146//277 149//277
f 145//278 149//278 148//278
f 154//279 155//279 152//279
f 154//280 152//280 151//280
f 160//281 161//281 158//281
f 160//282 158//282 157//282
f 163//283 164//283 167//283
f 163//284 167//284 166//284
f 151//285 153//285 147//285
f 151//286 147//286 145//286
f 148//287 150//287 156//287
f 148//288 156//288 154//288
f 157//289 159//289 165//289
f 157//290 165//290 163//290
f 166//291 168//291 162//291
f 166//292 162//292 160//292
f 146//293 147//293 159//293
f 146//294 159//294 158//294
f 161//295 162//295 150//295
f 161//296 150//296 149//296
f 164//297 165//297 153//297
f 164//298 153//298 152//298
f 155//299 156//299 168//299
f 155//300 168//300 167//300
f 147//301 146//301 145//301
f 148//302 149//302 150//302
f 151//303 152//303 153//303
f 156//304 155//304 154//304
f 157//305 158//305 159//305
f 162//306 161//306 160//306
f 165//307 164//307 163//307
f 166//308 167//308 168//308
g stone_007
usemtl stone_3
s off
f 172//309 178//309 175//309
f 172//310 175//310 169//310
f 181//311 187//311 190//311
f 181//312 190//312 184//312
f 170//313 182//313 185//313
f 170//314 185//314 173//314
f 179//315 191//315 188//315
f 179//316 188//316 176//316
f 177//317 189//317 183//317
f 177//318 183//318 171//318
f 174//319 186//319 192//319
f 174//320 192//320 180//320
f 169//321 170//321 173//321
f 169//322 173//322 172//322
f 178//323 179//323 176//323
f 178//324 176//324 175//324
f 184//325 185//325 182//325
f 184//326 182//326 181//326
f 187//327 188//327 191//327
f 187//328 191//328 190//328
f 175//329 177//329 171//329
f 175//330 171//330 169//330
f 172//331 174//331 180//331
f 172//332 180//332 178//332
f 181//333 183//333 189//333
f 181//334 189//334 187//334
f 190//335 192//335 186//335
f 190//336 186//336 184//336
f 170//337 171//337 183//337
f 170//338 183//338 182//338
f 185//339 186//339 174//339
f 185//340 174//340 173//340
f 188//341 189//341 177//341
f 188//342 177//342 176//342
f 179//343 180//343 192//343
f 179//344 192//344 191//344
f 171//345 170//345 169//345
f 172//346 173//346 174//346
f 175//347 176//347 177//347
f 180//348 179//348 178//348
f 181//349 182//349 183//349
f 186//350 185//350 184//350
f 189//351 188//351 187//351
f 190//352 191//352 192//352
g stone_008
usemtl stone_4
s off
f 196//353 202//353 199//353
f 196//354 199//354 193//354
f 205//355 211//355 214//355
f 205//356 214//356 208//356
f 194//357 206//357 209//357
f 194//358 209//358 197//358
f 203//359 215//359 212//359
f 203//360 212//360 200//360
f 201//361 213//361 207//361
f 201//362 207//362 195//362
f 198//363 210//363 216//363
f 198//364 216//364 204//364
f 193//365 194//365 197//365
f 193//366 197//366 196//366
f 202//367 203//367 200//367
f 202//368 200//368 199//368
f 208//369 209//369 206//369
f 208//370 206//370 205//370
f 211//371 212//371 215//371
f 211//372 215//372 214//372
f 199//373 201//373 195//373
f 199//374 195//374 193//374
f 196//375 198//375 204//375
f 196//376 204//376 202//376
f 205//377 207//377 213//377
f 205//378 213//378 211//378
f 214//379 216//379 210//379
f 214//380 210//380 208//380
f 194//381 195//381 207//381
f 194//382 207//382 206//382
f 209//383 210//383 198//383
f 209//384 198//384 197//384
f 212//385 213//385 201//385
f 212//386 201//386 200//386
f 203//387 204//387 216//387
f 203//388 216//388 215//388
f 195//389 194//389 193//389
f 196//390 197//390 198//390
f 199//391 200//391 201//391
f 204//392 203//392 202//392
f 205//393 206//393 207//393
f 210//394 209//394 208//394
f 213//395 212//395 211//395
f 214//396 215//396 216//396
g stone_009
usemtl stone_3
s off
f 220//397 226//397 223//397
f 220//398 223//398 217//398
f 229//399 235//399 238//399
f 229//400 238//400 232//400
f 218//401 230//401 233//401
f 218//402 233//402 221//402
f 227//403 239//403 236//403
f 227//404 236//404 224//404
f 225//405 237//405 231//405
f 225//406 231//406 219//406
f 222//407 234//407 240//407
f 222//408 240//408 228//408
f 217//409 218//409 221//409
f 217//410 221//410 220//410
f 226//411 227//411 224//411
f 226//412 224//412 223//412
f 232//413 233//413 230//413
f 232//414 230//414 229//414
f 235//415 236//415 239//415
f 235//416 239//416 238//416
f 223//417 225//417 219//417
f 223//418 219//418 217//418
f 220//419 222//419 228//419
f 220//420 228//420 226//420
f 229//421 231//421 237//421
f 229//422 237//422 235//422
f 238//423 240//423 234//423
f 238//424 234//424 232//424
f 218//425 219//425 231//425
f 218//426 231//426 230//426
f 233//427 234//427 222//427
f 233//428 222//428 221//428
f 236//429 237//429 225//429
f 236//430 225//430 224//430
f 227//431 228//431 240//431
f 227//432 240//432 239//432
f 219//433 218//433 217//433
f 220//434 221//434 222//434
f 223//435 224//435 225//435
f 228//436 227//436 226//436
f 229//437 230//437 231//437
f 234//438 233//438 232//438
f 237//439 236//439 235//439
f 238//440 239//440 240//440
g stone_010
usemtl stone_1
s off
f 244//441 250//441 247//441
f 244//442 247//442 241//442
f 253//443 259//443 262//443
f 253//444 262//444 256//444
f 242//445 254//445 257//445
f 242//446 257//446 245//446
f 251//447 263//447 260//447
f 251//448 260//448 248//448
f 249//449 261//449 255//449
f 249//450 255//450 243//450
f 246//451 258//451 264//451
f 246//452 264//452 252//452
f 241//453 242//453 245//453
f 241//454 245//454 244//454
f 250//455 251//455 248//455
f 250//456 248//456 247//456
f 256//457 257//457 254//457
f 256//458 254//458 253//458
f 259//459 260//459 263//459
f 259//460 263//460 262//460
f 247//461 249//461 243//461
f 247//462 243//462 241//462
f 244//463 246//463 252//463
f 244//464 252//464 250//464
f 253//465 255//465 261//465
f 253//466 261//466 259//466
f 262//467 264//467 258//467
f 262//468 258//468 256//468
f 242//469 243//469 255//469
f 242//470 255//470 254//470
f 257//471 258//471 246//471
f 257//472 246//472 245//472
f 260//473 261//473 249//473
f 260//474 249//474 248//474
f 251//475 252//475 264//475
f 251//476 264//476 263//476
f 243//477 242//477 241//477
f 244//478 245//478 246//478
f 247//479 248//479 249//479
f 252//480 251//480 250//480
f 253//481 254//481 255//481
f 258//482 257//482 256//482
f 261//483 260//483 259//483
f 262//484 263//484 264//484
g stone_011
usemtl stone_1
s off
f 268//485 274//485 271//485
f 268//486 271//486 265//486
f 277//487 283//487 286//487
f 277//488 286//488 280//488
f 266//489 278//489 281//489
f 266//490 281//490 269//490
f 275//491 287//491 284//491
f 275//492 284//492 272//492
f 273//493 285//493 279//493
f 273//494 279//494 267//494
f 270//495 282//495 288//495
f 270//496 288//496 276//496
f 265//497 266//497 269//497
f 265//498 269//498 268//498
f 274//499 275//499 272//499
f 274//500 272//500 271//500
f 280//501 281//501 278//501
f 280//502 278//502 277//502
f 283//503 284//503 287//503
f 283//504 287//504 286//504
f 271//505 273//505 267//505
f 271//506 267//506 265//506
f 268//507 270//507 276//507
f 268//508 276//508 274//508
f 277//509 279//509 285//509
f 277//510 285//510 283//510
f 286//511 288//511 282//511
f 286//512 282//512 280//512
f 266//513 267//513 279//513
f 266//514 279//514 278//514
f 281//515 282//515 270//515
f 281//516 270//516 269//516
f 284//517 285//517 273//517
f 284//518 273//518 272//518
f 275//519 276//519 288//519
f 275//520 288//520 287//520
f 267//521 266//521 265//521
f 268//522 269//522 270//522
f 271//523 272//523 273//523
f 276//524 275//524 274//524
f 277//525 278//525 279//525
f 282//526 281//526 280//526
f 285//527 284//527 283//527
f 286//528 287//528 288//528
