# Ruins concept asset; Y up; units: meters
mtllib ruins.mtl
o ruin_fallen_pillar
v -2.280000 0.017847 -0.657153
v -2.262153 0.000000 -0.657153
v -2.262153 0.017847 -0.675000
v -2.280000 0.024598 0.650402
v -2.255402 0.000000 0.650402
v -2.255402 0.024598 0.675000
v -2.280000 1.408585 -0.643585
v -2.248585 1.440000 -0.643585
v -2.248585 1.408585 -0.675000
v -2.280000 1.411153 0.646153
v -2.251153 1.440000 0.646153
v -2.251153 1.411153 0.675000
v -1.980000 0.027343 -0.647657
v -2.007343 0.000000 -0.647657
v -2.007343 0.027343 -0.675000
v -1.980000 0.029977 0.645023
v -2.009977 0.000000 0.645023
v -2.009977 0.029977 0.675000
v -1.980000 1.408220 -0.643220
v -2.011780 1.440000 -0.643220
v -2.011780 1.408220 -0.675000
v -1.980000 1.418443 0.653443
v -2.001557 1.440000 0.653443
v -2.001557 1.418443 0.675000
v -1.972000 0.142252 -0.542748
v -1.949748 0.120000 -0.542748
v -1.949748 0.142252 -0.565000
v -1.972000 0.137937 0.547063
v -1.954063 0.120000 0.547063
v -1.954063 0.137937 0.565000
v -1.972000 1.305936 -0.550936
v -1.957936 1.320000 -0.550936
v -1.957936 1.305936 -0.565000
v -1.972000 1.301645 0.546645
v -1.953645 1.320000 0.546645
v -1.953645 1.301645 0.565000
v -1.752000 0.137965 -0.547035
v -1.769965 0.120000 -0.547035
v -1.769965 0.137965 -0.565000
v -1.752000 0.143359 0.541641
v -1.775359 0.120000 0.541641
v -1.775359 0.143359 0.565000
v -1.752000 1.304746 -0.549746
v -1.767254 1.320000 -0.549746
v -1.767254 1.304746 -0.565000
v -1.752000 1.299644 0.544644
v -1.772356 1.320000 0.544644
v -1.772356 1.299644 0.565000
v -1.744000 0.018745 -0.436255
v -1.725255 0.000000 -0.436255
v -1.725255 0.018745 -0.455000
v -1.744000 0.021182 0.433818
v -1.722818 0.000000 0.433818
v -1.722818 0.021182 0.455000
v -1.744000 0.909714 -0.434714
v -1.723714 0.930000 -0.434714
v -1.723714 0.909714 -0.455000
v -1.744000 0.911956 0.436956
v -1.725956 0.930000 0.436956
v -1.725956 0.911956 0.455000
v -1.142000 0.019658 -0.435342
v -1.161658 0.000000 -0.435342
v -1.161658 0.019658 -0.455000
v -1.142000 0.015324 0.439676
v -1.157324 0.000000 0.439676
v -1.157324 0.015324 0.455000
v -1.142000 0.906925 -0.431925
v -1.165075 0.930000 -0.431925
v -1.165075 0.906925 -0.455000
v -1.142000 0.914429 0.439429
v -1.157571 0.930000 0.439429
v -1.157571 0.914429 0.455000
v -1.134000 0.013317 -0.441683
v -1.120683 0.000000 -0.441683
v -1.120683 0.013317 -0.455000
v -1.134000 0.014607 0.440393
v -1.119393 0.000000 0.440393
v -1.119393 0.014607 0.455000
v -1.134000 0.913556 -0.438556
v -1.117556 0.930000 -0.438556
v -1.117556 0.913556 -0.455000
v -1.134000 0.911202 0.436202
v -1.115202 0.930000 0.436202
v -1.115202 0.911202 0.455000
v -0.532000 0.021290 -0.433710
v -0.553290 0.000000 -0.433710
v -0.553290 0.021290 -0.455000
v -0.532000 0.013111 0.441889
v -0.545111 0.000000 0.441889
v -0.545111 0.013111 0.455000
v -0.532000 0.909360 -0.434360
v -0.552640 0.930000 -0.434360
v -0.552640 0.909360 -0.455000
v -0.532000 0.916213 0.441213
v -0.545787 0.930000 0.441213
v -0.545787 0.916213 0.455000
v -0.524000 0.012715 -0.442285
v -0.511285 0.000000 -0.442285
v -0.511285 0.012715 -0.455000
v -0.524000 0.016450 0.438550
v -0.507550 0.000000 0.438550
v -0.507550 0.016450 0.455000
v -0.524000 0.907385 -0.432385
v -0.501385 0.930000 -0.432385
v -0.501385 0.907385 -0.455000
v -0.524000 0.907954 0.432954
v -0.501954 0.930000 0.432954
v -0.501954 0.907954 0.455000
v 0.078000 0.013172 -0.441828
v 0.064828 0.000000 -0.441828
v 0.064828 0.013172 -0.455000
v 0.078000 0.016792 0.438208
v 0.061208 0.000000 0.438208
v 0.061208 0.016792 0.455000
v 0.078000 0.907527 -0.432527
v 0.055527 0.930000 -0.432527
v 0.055527 0.907527 -0.455000
v 0.078000 0.915488 0.440488
v 0.063488 0.930000 0.440488
v 0.063488 0.915488 0.455000
v 0.358441 0.019304 -0.487212
v 0.377360 0.000000 -0.491047
v 0.373525 0.019304 -0.509966
v 0.531238 0.020920 0.365227
v 0.551741 0.000000 0.361071
v 0.555897 0.020920 0.381574
v 0.358380 0.911001 -0.487510
v 0.377000 0.930000 -0.491285
v 0.373226 0.911001 -0.509905
v 0.532123 0.913534 0.369592
v 0.548261 0.930000 0.366321
v 0.551532 0.913534 0.382459
v 0.948769 0.020959 -0.605189
v 0.928228 0.000000 -0.601025
v 0.924064 0.020959 -0.621566
v 1.121114 0.021549 0.245012
v 1.099994 0.000000 0.249293
v 1.104275 0.021549 0.270412
v 0.948601 0.909890 -0.606021
v 0.928892 0.930000 -0.602026
v 0.924897 0.909890 -0.621735
v 1.122259 0.914216 0.250661
v 1.106789 0.930000 0.253797
v 1.109925 0.914216 0.269267
v 0.956235 0.023302 -0.603293
v 0.979072 0.000000 -0.607923
v 0.974443 0.023302 -0.630760
v 1.128432 0.019944 0.246183
v 1.147979 0.000000 0.242221
v 1.151941 0.019944 0.261767
v 0.954623 0.914809 -0.611242
v 0.969512 0.930000 -0.614260
v 0.966494 0.914809 -0.629149
v 1.128904 0.912429 0.248509
v 1.146125 0.930000 0.245018
v 1.149615 0.912429 0.262239
v 1.544944 0.016806 -0.729258
v 1.528473 0.000000 -0.725920
v 1.525134 0.016806 -0.742391
v 1.718704 0.018578 0.127923
v 1.700496 0.000000 0.131614
v 1.704187 0.018578 0.149822
v 1.545985 0.907957 -0.724126
v 1.524381 0.930000 -0.719747
v 1.520002 0.907957 -0.741351
v 1.718750 0.911653 0.128150
v 1.700769 0.930000 0.131795
v 1.704414 0.911653 0.149776
v 1.617027 0.034958 -0.613009
v 1.651356 0.000000 -0.606407
v 1.657959 0.034958 -0.640736
v 1.367815 0.025475 0.682811
v 1.392832 0.000000 0.687622
v 1.388020 0.025475 0.712638
v 1.618308 0.311825 -0.619670
v 1.645976 0.340000 -0.614349
v 1.651298 0.311825 -0.642017
v 1.366861 0.319578 0.687773
v 1.386915 0.340000 0.691630
v 1.383058 0.319578 0.711684
v 3.071813 0.027445 -0.340877
v 3.044862 0.000000 -0.346060
v 3.050045 0.027445 -0.373011
v 2.822920 0.034677 0.953286
v 2.788867 0.000000 0.946737
v 2.782318 0.034677 0.980789
v 3.070310 0.304598 -0.333063
v 3.035545 0.340000 -0.339749
v 3.042231 0.304598 -0.374513
v 2.821182 0.314521 0.962318
v 2.796162 0.340000 0.957506
v 2.791350 0.314521 0.982527
v 0.124811 0.022047 0.749897
v 0.144663 0.000000 0.740308
v 0.135074 0.022047 0.720455
v 0.199460 0.030331 0.904434
v 0.226772 0.000000 0.891240
v 0.239965 0.030331 0.918552
v 0.124665 0.164956 0.749595
v 0.144214 0.186667 0.740151
v 0.134771 0.164956 0.720602
v 0.198747 0.154695 0.902956
v 0.227536 0.186667 0.889049
v 0.241443 0.154695 0.917839
v 0.380832 0.031005 0.636173
v 0.352914 0.000000 0.649659
v 0.339428 0.031005 0.621741
v 0.450833 0.032063 0.781084
v 0.421962 0.000000 0.795030
v 0.435908 0.032063 0.823901
v 0.377619 0.163049 0.629521
v 0.356353 0.186667 0.639793
v 0.346080 0.163049 0.618527
v 0.452691 0.158876 0.784930
v 0.427666 0.186667 0.797019
v 0.439754 0.158876 0.822043
v 0.364086 0.026237 0.572231
v 0.387710 0.000000 0.560819
v 0.376298 0.026237 0.537195
v 0.421279 0.018274 0.690631
v 0.437734 0.000000 0.682683
v 0.445682 0.018274 0.699137
v 0.364634 0.119171 0.573365
v 0.389392 0.146667 0.561406
v 0.377432 0.119171 0.536647
v 0.416377 0.117122 0.680482
v 0.442980 0.146667 0.667631
v 0.455831 0.117122 0.694235
v 0.562576 0.027137 0.477350
v 0.538141 0.000000 0.489153
v 0.526337 0.027137 0.464718
v 0.613823 0.031043 0.583440
v 0.585870 0.000000 0.596943
v 0.599373 0.031043 0.624896
v 0.564670 0.114714 0.481686
v 0.535899 0.146667 0.495584
v 0.522001 0.114714 0.466813
v 0.615537 0.119562 0.586987
v 0.591130 0.146667 0.598776
v 0.602920 0.119562 0.623183
v -1.842346 0.031511 0.912700
v -1.813973 0.000000 0.898994
v -1.827679 0.031511 0.870620
v -1.777976 0.020500 1.045956
v -1.759517 0.000000 1.037040
v -1.750600 0.020500 1.055499
v -1.842027 0.134422 0.913361
v -1.812992 0.166667 0.899335
v -1.827018 0.134422 0.870301
v -1.779416 0.142857 1.042976
v -1.757976 0.166667 1.032620
v -1.747620 0.142857 1.054059
v -1.622123 0.020271 0.793838
v -1.640377 0.000000 0.802655
v -1.649194 0.020271 0.784402
v -1.553151 0.021160 0.936620
v -1.572205 0.000000 0.945824
v -1.563001 0.021160 0.964878
v -1.621876 0.145827 0.794350
v -1.640641 0.166667 0.803415
v -1.649706 0.145827 0.784649
v -1.556691 0.137369 0.929293
v -1.583072 0.166667 0.942037
v -1.570329 0.137369 0.968417
vn -1.000000 0.000000 0.000000
vn -1.000000 0.000000 -0.000000
vn 1.000000 0.000000 0.000000
vn 1.000000 0.000000 0.000000
vn 0.000000 -1.000000 0.000000
vn 0.000000 -1.000000 0.000000
vn -0.000000 1.000000 0.000000
vn 0.000000 1.000000 0.000000
vn 0.000000 0.000000 -1.000000
vn 0.000000 -0.000000 -1.000000
vn 0.000000 0.000000 1.000000
vn 0.000000 0.000000 1.000000
vn -0.707102 -0.707102 0.003651
vn -0.707102 -0.707102 0.003651
vn -0.707106 0.707106 -0.001408
vn -0.707106 0.707106 -0.001408
vn 0.707106 -0.707106 0.001441
vn 0.707106 -0.707106 0.001441
vn 0.707096 0.707096 -0.005575
vn 0.707096 0.707096 -0.005575
vn -0.707090 0.006898 -0.707090
vn -0.707090 0.006898 -0.707090
vn -0.707105 0.002167 0.707105
vn -0.707105 0.002167 0.707105
vn 0.707105 0.002272 -0.707105
vn 0.707105 0.002272 -0.707105
vn 0.707100 -0.004288 0.707100
vn 0.707100 -0.004288 0.707100
vn 0.026342 -0.706861 -0.706861
vn 0.026342 -0.706861 -0.706861
vn 0.015496 -0.707022 0.707022
vn 0.015496 -0.707022 0.707022
vn 0.001089 0.707106 -0.707106
vn 0.001089 0.707106 -0.707106
vn -0.020650 0.706956 0.706956
vn -0.020650 0.706956 0.706956
vn -0.577350 -0.577350 -0.577350
vn -0.577350 -0.577350 0.577350
vn -0.577350 0.577350 -0.577350
vn -0.577350 0.577350 0.577350
vn 0.577350 -0.577350 -0.577350
vn 0.577350 -0.577350 0.577350
vn 0.577350 0.577350 -0.577350
vn 0.577350 0.577350 0.577350
vn -1.000000 0.000000 0.000000
vn -1.000000 0.000000 0.000000
vn 1.000000 -0.000000 0.000000
vn 1.000000 0.000000 0.000000
vn 0.000000 -1.000000 0.000000
vn 0.000000 -1.000000 0.000000
vn 0.000000 1.000000 0.000000
vn 0.000000 1.000000 0.000000
vn 0.000000 0.000000 -1.000000
vn 0.000000 0.000000 -1.000000
vn 0.000000 0.000000 1.000000
vn 0.000000 0.000000 1.000000
vn -0.707104 -0.707104 -0.002800
vn -0.707104 -0.707104 -0.002800
vn -0.707104 0.707104 0.002765
vn -0.707104 0.707104 0.002765
vn 0.707102 -0.707102 0.003504
vn 0.707102 -0.707102 0.003504
vn 0.707103 0.707103 0.003297
vn 0.707103 0.707103 0.003297
vn -0.707098 -0.004976 -0.707098
vn -0.707098 -0.004976 -0.707098
vn -0.707107 0.000254 0.707107
vn -0.707107 0.000254 0.707107
vn 0.707106 -0.001643 -0.707106
vn 0.707106 -0.001643 -0.707106
vn 0.707106 -0.001836 0.707106
vn 0.707106 -0.001836 0.707106
vn -0.016859 -0.707006 -0.707006
vn -0.016859 -0.707006 -0.707006
vn 0.021451 -0.706944 0.706944
vn 0.021451 -0.706944 0.706944
vn 0.004413 0.707100 -0.707100
vn 0.004413 0.707100 -0.707100
vn 0.007805 0.707085 0.707085
vn 0.007805 0.707085 0.707085
vn -0.577350 -0.577350 -0.577350
vn -0.577350 -0.577350 0.577350
vn -0.577350 0.577350 -0.577350
vn -0.577350 0.577350 0.577350
vn 0.577350 -0.577350 -0.577350
vn 0.577350 -0.577350 0.577350
vn 0.577350 0.577350 -0.577350
vn 0.577350 0.577350 0.577350
vn -1.000000 0.000000 0.000000
vn -1.000000 0.000000 -0.000000
vn 1.000000 0.000000 0.000000
vn 1.000000 0.000000 -0.000000
vn 0.000000 -1.000000 0.000000
vn 0.000000 -1.000000 0.000000
vn -0.000000 1.000000 0.000000
vn 0.000000 1.000000 0.000000
vn 0.000000 0.000000 -1.000000
vn 0.000000 -0.000000 -1.000000
vn -0.000000 0.000000 1.000000
vn 0.000000 -0.000000 1.000000
vn -0.707105 -0.707105 0.001980
vn -0.707105 -0.707105 0.001980
vn -0.707106 0.707106 -0.001819
vn -0.707106 0.707106 -0.001819
vn 0.707102 -0.707102 -0.003503
vn 0.707102 -0.707102 -0.003503
vn 0.707094 0.707094 -0.006089
vn 0.707094 0.707094 -0.006089
vn -0.707106 0.001223 -0.707106
vn -0.707106 0.001223 -0.707106
vn -0.707105 -0.002491 0.707105
vn -0.707105 -0.002491 0.707105
vn 0.707104 0.002723 -0.707104
vn 0.707104 0.002723 -0.707104
vn 0.707107 0.000194 0.707107
vn 0.707107 0.000194 0.707107
vn 0.001145 -0.707106 -0.707106
vn 0.001145 -0.707106 -0.707106
vn -0.007326 -0.707088 0.707088
vn -0.007326 -0.707088 0.707088
vn 0.003529 0.707102 -0.707102
vn 0.003529 0.707102 -0.707102
vn -0.003077 0.707103 0.707103
vn -0.003077 0.707103 0.707103
vn -0.577350 -0.577350 -0.577350
vn -0.577350 -0.577350 0.577350
vn -0.577350 0.577350 -0.577350
vn -0.577350 0.577350 0.577350
vn 0.577350 -0.577350 -0.577350
vn 0.577350 -0.577350 0.577350
vn 0.577350 0.577350 -0.577350
vn 0.577350 0.577350 0.577350
vn -1.000000 0.000000 0.000000
vn -1.000000 0.000000 -0.000000
vn 1.000000 -0.000000 0.000000
vn 1.000000 0.000000 -0.000000
vn 0.000000 -1.000000 0.000000
vn 0.000000 -1.000000 0.000000
vn -0.000000 1.000000 0.000000
vn 0.000000 1.000000 0.000000
vn 0.000000 0.000000 -1.000000
vn 0.000000 -0.000000 -1.000000
vn -0.000000 0.000000 1.000000
vn 0.000000 0.000000 1.000000
vn -0.707106 -0.707106 0.001033
vn -0.707106 -0.707106 0.001033
vn -0.707106 0.707106 0.001903
vn -0.707106 0.707106 0.001903
vn 0.707091 -0.707091 -0.006606
vn 0.707091 -0.707091 -0.006606
vn 0.707096 0.707096 -0.005534
vn 0.707096 0.707096 -0.005534
vn -0.707105 0.002456 -0.707105
vn -0.707105 0.002456 -0.707105
vn -0.707103 0.003306 0.707103
vn -0.707103 0.003306 0.707103
vn 0.707107 -0.000518 -0.707107
vn 0.707107 -0.000518 -0.707107
vn 0.707107 0.000530 0.707107
vn 0.707107 0.000530 0.707107
vn 0.009936 -0.707072 -0.707072
vn 0.009936 -0.707072 -0.707072
vn -0.001842 -0.707106 0.707106
vn -0.001842 -0.707106 0.707106
vn 0.005251 0.707097 -0.707097
vn 0.005251 0.707097 -0.707097
vn -0.006223 0.707093 0.707093
vn -0.006223 0.707093 0.707093
vn -0.577350 -0.577350 -0.577350
vn -0.577350 -0.577350 0.577350
vn -0.577350 0.577350 -0.577350
vn -0.577350 0.577350 0.577350
vn 0.577350 -0.577350 -0.577350
vn 0.577350 -0.577350 0.577350
vn 0.577350 0.577350 -0.577350
vn 0.577350 0.577350 0.577350
vn -1.000000 0.000000 0.000000
vn -1.000000 0.000000 -0.000000
vn 1.000000 0.000000 0.000000
vn 1.000000 0.000000 0.000000
vn 0.000000 -1.000000 0.000000
vn 0.000000 -1.000000 0.000000
vn -0.000000 1.000000 0.000000
vn 0.000000 1.000000 0.000000
vn 0.000000 0.000000 -1.000000
vn 0.000000 -0.000000 -1.000000
vn 0.000000 0.000000 1.000000
vn 0.000000 0.000000 1.000000
vn -0.707104 -0.707104 0.002998
vn -0.707104 -0.707104 0.002998
vn -0.707107 0.707107 -0.000466
vn -0.707107 0.707107 -0.000466
vn 0.707104 -0.707104 0.002909
vn 0.707104 -0.707104 0.002909
vn 0.707092 0.707092 -0.006448
vn 0.707092 0.707092 -0.006448
vn -0.707085 0.007825 -0.707085
vn -0.707085 0.007825 -0.707085
vn -0.707100 0.004438 0.707100
vn -0.707100 0.004438 0.707100
vn 0.707088 0.007353 -0.707088
vn 0.707088 0.007353 -0.707088
vn 0.707106 -0.001794 0.707106
vn 0.707106 -0.001794 0.707106
vn 0.000561 -0.707107 -0.707107
vn 0.000561 -0.707107 -0.707107
vn 0.000425 -0.707107 0.707107
vn 0.000425 -0.707107 0.707107
vn -0.000181 0.707107 -0.707107
vn -0.000181 0.707107 -0.707107
vn -0.009421 0.707075 0.707075
vn -0.009421 0.707075 0.707075
vn -0.577350 -0.577350 -0.577350
vn -0.577350 -0.577350 0.577350
vn -0.577350 0.577350 -0.577350
vn -0.577350 0.577350 0.577350
vn 0.577350 -0.577350 -0.577350
vn 0.577350 -0.577350 0.577350
vn 0.577350 0.577350 -0.577350
vn 0.577350 0.577350 0.577350
vn -0.980067 0.000000 0.198669
vn -0.980067 -0.000000 0.198669
vn 0.980067 0.000000 -0.198669
vn 0.980067 -0.000000 -0.198669
vn 0.000000 -1.000000 0.000000
vn 0.000000 -1.000000 0.000000
vn 0.000000 1.000000 0.000000
vn 0.000000 1.000000 0.000000
vn -0.198669 0.000000 -0.980067
vn -0.198669 0.000000 -0.980067
vn 0.198669 0.000000 0.980067
vn 0.198669 -0.000000 0.980067
vn -0.692750 -0.707106 0.141768
vn -0.692750 -0.707106 0.141768
vn -0.693417 0.707105 0.138473
vn -0.693417 0.707105 0.138473
vn 0.693107 -0.707107 -0.140009
vn 0.693107 -0.707107 -0.140009
vn 0.692312 0.707102 -0.143909
vn 0.692312 0.707102 -0.143909
vn -0.833492 -0.000242 -0.552531
vn -0.833492 -0.000242 -0.552531
vn -0.552528 -0.003528 0.833487
vn -0.552528 -0.003528 0.833487
vn 0.552531 -0.000676 -0.833492
vn 0.552531 -0.000676 -0.833492
vn 0.833483 -0.004566 0.552526
vn 0.833483 -0.004566 0.552526
vn -0.138438 -0.707105 -0.693424
vn -0.138438 -0.707105 -0.693424
vn 0.141259 -0.707107 0.692854
vn 0.141259 -0.707107 0.692854
vn -0.139113 0.707106 -0.693288
vn -0.139113 0.707106 -0.693288
vn 0.139652 0.707107 0.693179
vn 0.139652 0.707107 0.693179
vn -0.680543 -0.577350 -0.451140
vn -0.451140 -0.577350 0.680543
vn -0.680543 0.577350 -0.451140
vn -0.451140 0.577350 0.680543
vn 0.451140 -0.577350 -0.680543
vn 0.680543 -0.577350 0.451140
vn 0.451140 0.577350 -0.680543
vn 0.680543 0.577350 0.451140
vn -0.980067 0.000000 0.198669
vn -0.980067 0.000000 0.198669
vn 0.980067 -0.000000 -0.198669
vn 0.980067 0.000000 -0.198669
vn 0.000000 -1.000000 0.000000
vn 0.000000 -1.000000 0.000000
vn 0.000000 1.000000 0.000000
vn 0.000000 1.000000 0.000000
vn -0.198669 0.000000 -0.980067
vn -0.198669 -0.000000 -0.980067
vn 0.198669 -0.000000 0.980067
vn 0.198669 0.000000 0.980067
vn -0.693553 -0.707104 0.137795
vn -0.693553 -0.707104 0.137795
vn -0.692629 0.707105 0.142360
vn -0.692629 0.707105 0.142360
vn 0.693296 -0.707106 -0.139077
vn 0.693296 -0.707106 -0.139077
vn 0.692411 0.707104 -0.143425
vn 0.692411 0.707104 -0.143425
vn -0.833475 -0.006433 -0.552520
vn -0.833475 -0.006433 -0.552520
vn -0.552530 -0.001880 0.833491
vn -0.552530 -0.001880 0.833491
vn 0.552527 0.004155 -0.833485
vn 0.552527 0.004155 -0.833485
vn 0.833492 -0.000183 0.552531
vn 0.833492 -0.000183 0.552531
vn -0.148487 -0.707083 -0.691365
vn -0.148487 -0.707083 -0.691365
vn 0.138799 -0.707106 0.693351
vn 0.138799 -0.707106 0.693351
vn -0.132068 0.707081 -0.694690
vn -0.132068 0.707081 -0.694690
vn 0.141430 0.707106 0.692819
vn 0.141430 0.707106 0.692819
vn -0.680543 -0.577350 -0.451140
vn -0.451140 -0.577350 0.680543
vn -0.680543 0.577350 -0.451140
vn -0.451140 0.577350 0.680543
vn 0.451140 -0.577350 -0.680543
vn 0.680543 -0.577350 0.451140
vn 0.451140 0.577350 -0.680543
vn 0.680543 0.577350 0.451140
vn -0.982004 0.000000 -0.188859
vn -0.982004 -0.000000 -0.188859
vn 0.982004 -0.000000 0.188859
vn 0.982004 -0.000000 0.188859
vn 0.000000 -1.000000 0.000000
vn 0.000000 -1.000000 0.000000
vn -0.000000 1.000000 0.000000
vn 0.000000 1.000000 0.000000
vn 0.188859 0.000000 -0.982004
vn 0.188859 -0.000000 -0.982004
vn -0.188859 -0.000000 0.982004
vn -0.188859 0.000000 0.982004
vn -0.693413 -0.707098 -0.138532
vn -0.693413 -0.707098 -0.138532
vn -0.693598 0.707101 -0.137586
vn -0.693598 0.707101 -0.137586
vn 0.693644 -0.707101 0.137353
vn 0.693644 -0.707101 0.137353
vn 0.695377 0.707097 0.128318
vn 0.695377 0.707097 0.128318
vn -0.560754 -0.017321 -0.827801
vn -0.560754 -0.017321 -0.827801
vn -0.827864 -0.012148 0.560797
vn -0.827864 -0.012148 0.560797
vn 0.827755 0.020297 -0.560723
vn 0.827755 0.020297 -0.560723
vn 0.560687 -0.023235 0.827702
vn 0.560687 -0.023235 0.827702
vn 0.129862 -0.707102 -0.695085
vn 0.129862 -0.707102 -0.695085
vn -0.129042 -0.707099 0.695240
vn -0.129042 -0.707099 0.695240
vn 0.137085 0.707102 -0.693696
vn 0.137085 0.707102 -0.693696
vn -0.131094 0.707105 0.694851
vn -0.131094 0.707105 0.694851
vn -0.457923 -0.577350 -0.675998
vn -0.675998 -0.577350 0.457923
vn -0.457923 0.577350 -0.675998
vn -0.675998 0.577350 0.457923
vn 0.675998 -0.577350 -0.457923
vn 0.457923 -0.577350 0.675998
vn 0.675998 0.577350 -0.457923
vn 0.457923 0.577350 0.675998
vn -0.900447 -0.000000 0.434966
vn -0.900447 -0.000000 0.434966
vn 0.900447 0.000000 -0.434966
vn 0.900447 0.000000 -0.434966
vn 0.000000 -1.000000 0.000000
vn 0.000000 -1.000000 0.000000
vn 0.000000 1.000000 0.000000
vn 0.000000 1.000000 0.000000
vn -0.434966 -0.000000 -0.900447
vn -0.434966 -0.000000 -0.900447
vn 0.434966 -0.000000 0.900447
vn 0.434966 0.000000 0.900447
vn -0.621504 -0.706695 0.338104
vn -0.621504 -0.706695 0.338104
vn -0.617622 0.706466 0.345614
vn -0.617622 0.706466 0.345614
vn 0.638728 -0.707099 -0.303377
vn 0.638728 -0.707099 -0.303377
vn 0.644056 0.707003 -0.292126
vn 0.644056 0.707003 -0.292126
vn -0.944278 -0.001664 -0.329145
vn -0.944278 -0.001664 -0.329145
vn -0.329131 0.009328 0.944238
vn -0.329131 0.009328 0.944238
vn 0.328888 -0.039529 -0.943541
vn 0.328888 -0.039529 -0.943541
vn 0.944012 -0.023812 0.329052
vn 0.944012 -0.023812 0.329052
vn -0.282327 -0.706832 -0.648599
vn -0.282327 -0.706832 -0.648599
vn 0.312628 -0.707096 0.634255
vn 0.312628 -0.707096 0.634255
vn -0.302390 0.707095 -0.639200
vn -0.302390 0.707095 -0.639200
vn 0.295453 0.707043 0.642493
vn 0.295453 0.707043 0.642493
vn -0.771001 -0.577350 -0.268746
vn -0.268746 -0.577350 0.771001
vn -0.771001 0.577350 -0.268746
vn -0.268746 0.577350 0.771001
vn 0.268746 -0.577350 -0.771001
vn 0.771001 -0.577350 0.268746
vn 0.268746 0.577350 -0.771001
vn 0.771001 0.577350 0.268746
vn -0.900447 0.000000 0.434966
vn -0.900447 -0.000000 0.434966
vn 0.900447 -0.000000 -0.434966
vn 0.900447 -0.000000 -0.434966
vn 0.000000 -1.000000 0.000000
vn 0.000000 -1.000000 0.000000
vn 0.000000 1.000000 0.000000
vn 0.000000 1.000000 0.000000
vn -0.434966 0.000000 -0.900447
vn -0.434966 -0.000000 -0.900447
vn 0.434966 -0.000000 0.900447
vn 0.434966 0.000000 0.900447
vn -0.654738 -0.706459 0.268761
vn -0.654738 -0.706459 0.268761
vn -0.631368 0.707054 0.318510
vn -0.631368 0.707054 0.318510
vn 0.646733 -0.706913 -0.286376
vn 0.646733 -0.706913 -0.286376
vn 0.623695 0.706803 -0.333818
vn 0.623695 0.706803 -0.333818
vn -0.944236 0.009581 -0.329130
vn -0.944236 0.009581 -0.329130
vn -0.328080 0.080367 0.941225
vn -0.328080 0.080367 0.941225
vn 0.328897 0.038852 -0.943566
vn 0.328897 0.038852 -0.943566
vn 0.943812 -0.031448 0.328982
vn 0.943812 -0.031448 0.328982
vn -0.304125 -0.707102 -0.638369
vn -0.304125 -0.707102 -0.638369
vn 0.354707 -0.706119 0.612844
vn 0.354707 -0.706119 0.612844
vn -0.289838 0.706971 -0.645125
vn -0.289838 0.706971 -0.645125
vn 0.298039 0.707067 0.641271
vn 0.298039 0.707067 0.641271
vn -0.771001 -0.577350 -0.268746
vn -0.268746 -0.577350 0.771001
vn -0.771001 0.577350 -0.268746
vn -0.268746 0.577350 0.771001
vn 0.268746 -0.577350 -0.771001
vn 0.771001 -0.577350 0.268746
vn 0.268746 0.577350 -0.771001
vn 0.771001 0.577350 0.268746
vn -0.900447 0.000000 0.434966
vn -0.900447 0.000000 0.434966
vn 0.900447 -0.000000 -0.434966
vn 0.900447 0.000000 -0.434966
vn 0.000000 -1.000000 0.000000
vn 0.000000 -1.000000 0.000000
vn 0.000000 1.000000 0.000000
vn 0.000000 1.000000 0.000000
vn -0.434966 0.000000 -0.900447
vn -0.434966 0.000000 -0.900447
vn 0.434966 0.000000 0.900447
vn 0.434966 -0.000000 0.900447
vn -0.658685 -0.706130 0.259835
vn -0.658685 -0.706130 0.259835
vn -0.654174 0.706501 0.270024
vn -0.654174 0.706501 0.270024
vn 0.638431 -0.707101 -0.303996
vn 0.638431 -0.707101 -0.303996
vn 0.653550 0.706544 -0.271418
vn 0.653550 0.706544 -0.271418
vn -0.944267 0.005044 -0.329141
vn -0.944267 0.005044 -0.329141
vn -0.329085 0.019123 0.944107
vn -0.329085 0.019123 0.944107
vn 0.329143 0.003203 -0.944274
vn 0.329143 0.003203 -0.944274
vn 0.943124 0.049454 0.328742
vn 0.943124 0.049454 0.328742
vn -0.343394 -0.706539 -0.618775
vn -0.343394 -0.706539 -0.618775
vn 0.309584 -0.707105 0.635736
vn 0.309584 -0.707105 0.635736
vn -0.344155 0.706515 -0.618380
vn -0.344155 0.706515 -0.618380
vn 0.325251 0.706969 0.628017
vn 0.325251 0.706969 0.628017
vn -0.771001 -0.577350 -0.268746
vn -0.268746 -0.577350 0.771001
vn -0.771001 0.577350 -0.268746
vn -0.268746 0.577350 0.771001
vn 0.268746 -0.577350 -0.771001
vn 0.771001 -0.577350 0.268746
vn 0.268746 0.577350 -0.771001
vn 0.771001 0.577350 0.268746
g stone_000
usemtl stone_1
s off
f 4//1 10//1 7//1
f 4//2 7//2 1//2
f 13//3 19//3 22//3
f 13//4 22//4 16//4
f 2//5 14//5 17//5
f 2//6 17//6 5//6
f 11//7 23//7 20//7
f 11//8 20//8 8//8
f 9//9 21//9 15//9
f 9//10 15//10 3//10
f 6//11 18//11 24//11
f 6//12 24//12 12//12
f 1//13 2//13 5//13
f 1//14 5//14 4//14
f 10//15 11//15 8//15
f 10//16 8//16 7//16
f 16//17 17//17 14//17
f 16//18 14//18 13//18
f 19//19 20//19 23//19
f 19//20 23//20 22//20
f 7//21 9//21 3//21
f 7//22 3//22 1//22
f 4//23 6//23 12//23
f 4//24 12//24 10//24
f 13//25 15//25 21//25
f 13//26 21//26 19//26
f 22//27 24//27 18//27
f 22//28 18//28 16//28
f 2//29 3//29 15//29
f 2//30 15//30 14//30
f 17//31 18//31 6//31
f 17//32 6//32 5//32
f 20//33 21//33 9//33
f 20//34 9//34 8//34
f 11//35 12//35 24//35
f 11//36 24//36 23//36
f 3//37 2//37 1//37
f 4//38 5//38 6//38
f 7//39 8//39 9//39
f 12//40 11//40 10//40
f 13//41 14//41 15//41
f 18//42 17//42 16//42
f 21//43 20//43 19//43
f 22//44 23//44 24//44
g stone_001
usemtl stone_4
s off
f 28//45 34//45 31//45
f 28//46 31//46 25//46
f 37//47 43//47 46//47
f 37//48 46//48 40//48
f 26//49 38//49 41//49
f 26//50 41//50 29//50
f 35//51 47//51 44//51
f 35//52 44//52 32//52
f 33//53 45//53 39//53
f 33//54 39//54 27//54
f 30//55 42//55 48//55
f 30//56 48//56 36//56
f 25//57 26//57 29//57
f 25//58 29//58 28//58
f 34//59 35//59 32//59
f 34//60 32//60 31//60
f 40//61 41//61 38//61
f 40//62 38//62 37//62
f 43//63 44//63 47//63
f 43//64 47//64 46//64
f 31//65 33//65 27//65
f 31//66 27//66 25//66
f 28//67 30//67 36//67
f 28//68 36//68 34//68
f 37//69 39//69 45//69
f 37//70 45//70 43//70
f 46//71 48//71 42//71
f 46//72 42//72 40//72
f 26//73 27//73 39//73
f 26//74 39//74 38//74
f 41//75 42//75 30//75
f 41//76 30//76 29//76
f 44//77 45//77 33//77
f 44//78 33//78 32//78
f 35//79 36//79 48//79
f 35//80 48//80 47//80
f 27//81 26//81 25//81
f 28//82 29//82 30//82
f 31//83 32//83 33//83
f 36//84 35//84 34//84
f 37//85 38//85 39//85
f 42//86 41//86 40//86
f 45//87 44//87 43//87
f 46//88 47//88 48//88
g stone_002
usemtl stone_1
s off
f 52//89 58//89 55//89
f 52//90 55//90 49//90
f 61//91 67//91 70//91
f 61//92 70//92 64//92
f 50//93 62//93 65//93
f 50//94 65//94 53//94
f 59//95 71//95 68//95
f 59//96 68//96 56//96
f 57//97 69//97 63//97
f 57//98 63//98 51//98
f 54//99 66//99 72//99
f 54//100 72//100 60//100
f 49//101 50//101 53//101
f 49//102 53//102 52//102
f 58//103 59//103 56//103
f 58//104 56//104 55//104
f 64//105 65//105 62//105
f 64//106 62//106 61//106
f 67//107 68//107 71//107
f 67//108 71//108 70//108
f 55//109 57//109 51//109
f 55//110 51//110 49//110
f 52//111 54//111 60//111
f 52//112 60//112 58//112
f 61//113 63//113 69//113
f 61//114 69//114 67//114
f 70//115 72//115 66//115
f 70//116 66//116 64//116
f 50//117 51//117 63//117
f 50//118 63//118 62//118
f 65//119 66//119 54//119
f 65//120 54//120 53//120
f 68//121 69//121 57//121
f 68//122 57//122 56//122
f 59//123 60//123 72//123
f 59//124 72//124 71//124
f 51//125 50//125 49//125
f 52//126 53//126 54//126
f 55//127 56//127 57//127
f 60//128 59//128 58//128
f 61//129 62//129 63//129
f 66//130 65//130 64//130
f 69//131 68//131 67//131
f 70//132 71//132 72//132
g stone_003
usemtl stone_1
s off
f 76//133 82//133 79//133
f 76//134 79//134 73//134
f 85//135 91//135 94//135
f 85//136 94//136 88//136
f 74//137 86//137 89//137
f 74//138 89//138 77//138
f 83//139 95//139 92//139
f 83//140 92//140 80//140
f 81//141 93//141 87//141
f 81//142 87//142 75//142
f 78//143 90//143 96//143
f 78//144 96//144 84//144
f 73//145 74//145 77//145
f 73//146 77//146 76//146
f 82//147 83//147 80//147
f 82//148 80//148 79//148
f 88//149 89//149 86//149
f 88//150 86//150 85//150
f 91//151 92//151 95//151
f 91//152 95//152 94//152
f 79//153 81//153 75//153
f 79//154 75//154 73//154
f 76//155 78//155 84//155
f 76//156 84//156 82//156
f 85//157 87//157 93//157
f 85//158 93//158 91//158
f 94//159 96//159 90//159
f 94//160 90//160 88//160
f 74//161 75//161 87//161
f 74//162 87//162 86//162
f 89//163 90//163 78//163
f 89//164 78//164 77//164
f 92//165 93//165 81//165
f 92//166 81//166 80//166
f 83//167 84//167 96//167
f 83//168 96//168 95//168
f 75//169 74//169 73//169
f 76//170 77//170 78//170
f 79//171 80//171 81//171
f 84//172 83//172 82//172
f 85//173 86//173 87//173
f 90//174 89//174 88//174
f 93//175 92//175 91//175
f 94//176 95//176 96//176
g stone_004
usemtl stone_3
s off
f 100//177 106//177 103//177
f 100//178 103//178 97//178
f 109//179 115//179 118//179
f 109//180 118//180 112//180
f 98//181 110//181 113//181
f 98//182 113//182 101//182
f 107//183 119//183 116//183
f 107//184 116//184 104//184
f 105//185 117//185 111//185
f 105//186 111//186 99//186
f 102//187 114//187 120//187
f 102//188 120//188 108//188
f 97//189 98//189 101//189
f 97//190 101//190 100//190
f 106//191 107//191 104//191
f 106//192 104//192 103//192
f 112//193 113//193 110//193
f 112//194 110//194 109//194
f 115//195 116//195 119//195
f 115//196 119//196 118//196
f 103//197 105//197 99//197
f 103//198 99//198 97//198
f 100//199 102//199 108//199
f 100//200 108//200 106//200
f 109//201 111//201 117//201
f 109//202 117//202 115//202
f 118//203 120//203 114//203
f 118//204 114//204 112//204
f 98//205 99//205 111//205
f 98//206 111//206 110//206
f 113//207 114//207 102//207
f 113//208 102//208 101//208
f 116//209 117//209 105//209
f 116//210 105//210 104//210
f 107//211 108//211 120//211
f 107//212 120//212 119//212
f 99//213 98//213 97//213
f 100//214 101//214 102//214
f 103//215 104//215 105//215
f 108//216 107//216 106//216
f 109//217 110//217 111//217
f 114//218 113//218 112//218
f 117//219 116//219 115//219
f 118//220 119//220 120//220
g stone_005
usemtl stone_1
s off
f 124//221 130//221 127//221
f 124//222 127//222 121//222
f 133//223 139//223 142//223
f 133//224 142//224 136//224
f 122//225 134//225 137//225
f 122//226 137//226 125//226
f 131//227 143//227 140//227
f 131//228 140//228 128//228
f 129//229 141//229 135//229
f 129//230 135//230 123//230
f 126//231 138//231 144//231
f 126//232 144//232 132//232
f 121//233 122//233 125//233
f 121//234 125//234 124//234
f 130//235 131//235 128//235
f 130//236 128//236 127//236
f 136//237 137//237 134//237
f 136//238 134//238 133//238
f 139//239 140//239 143//239
f 139//240 143//240 142//240
f 127//241 129//241 123//241
f 127//242 123//242 121//242
f 124//243 126//243 132//243
f 124//244 132//244 130//244
f 133//245 135//245 141//245
f 133//246 141//246 139//246
f 142//247 144//247 138//247
f 142//248 138//248 136//248
f 122//249 123//249 135//249
f 122//250 135//250 134//250
f 137//251 138//251 126//251
f 137//252 126//252 125//252
f 140//253 141//253 129//253
f 140//254 129//254 128//254
f 131//255 132//255 144//255
f 131//256 144//256 143//256
f 123//257 122//257 121//257
f 124//258 125//258 126//258
f 127//259 128//259 129//259
f 132//260 131//260 130//260
f 133//261 134//261 135//261
f 138//262 137//262 136//262
f 141//263 140//263 139//263
f 142//264 143//264 144//264
g stone_006
usemtl stone_4
s off
f 148//265 154//265 151//265
f 148//266 151//266 145//266
f 157//267 163//267 166//267
f 157//268 166//268 160//268
f 146//269 158//269 161//269
f 146//270 161//270 149//270
f 155//271 167//271 164//271
f 155//272 164//272 152//272
f 153//273 165//273 159//273
f 153//274 159//274 147//274
f 150//275 162//275 168//275
f 150//276 168//276 156//276
f 145//277 146//277 149//277
f 145//278 149//278 148//278
f 154//279 155//279 152//279
f 154//280 152//280 151//280
f 160//281 161//281 158//281
f 160//282 158//282 157//282
f 163//283 164//283 167//283
f 163//284 167//284 166//284
f 151//285 153//285 147//285
f 151//286 147//286 145//286
f 148//287 150//287 156//287
f 148//288 156//288 154//288
f 157//289 159//289 165//289
f 157//290 165//290 163//290
f 166//291 168//291 162//291
f 166//292 162//292 160//292
f 146//293 147//293 159//293
f 146//294 159//294 158//294
f 161//295 162//295 150//295
f 161//296 150//296 149//296
f 164//297 165//297 153//297
f 164//298 153//298 152//298
f 155//299 156//299 168//299
f 155//300 168//300 167//300
f 147//301 146//301 145//301
f 148//302 149//302 150//302
f 151//303 152//303 153//303
f 156//304 155//304 154//304
f 157//305 158//305 159//305
f 162//306 161//306 160//306
f 165//307 164//307 163//307
f 166//308 167//308 168//308
g stone_007
usemtl stone_4
s off
f 172//309 178//309 175//309
f 172//310 175//310 169//310
f 181//311 187//311 190//311
f 181//312 190//312 184//312
f 170//313 182//313 185//313
f 170//314 185//314 173//314
f 179//315 191//315 188//315
f 179//316 188//316 176//316
f 177//317 189//317 183//317
f 177//318 183//318 171//318
f 174//319 186//319 192//319
f 174//320 192//320 180//320
f 169//321 170//321 173//321
f 169//322 173//322 172//322
f 178//323 179//323 176//323
f 178//324 176//324 175//324
f 184//325 185//325 182//325
f 184//326 182//326 181//326
f 187//327 188//327 191//327
f 187//328 191//328 190//328
f 175//329 177//329 171//329
f 175//330 171//330 169//330
f 172//331 174//331 180//331
f 172//332 180//332 178//332
f 181//333 183//333 189//333
f 181//334 189//334 187//334
f 190//335 192//335 186//335
f 190//336 186//336 184//336
f 170//337 171//337 183//337
f 170//338 183//338 182//338
f 185//339 186//339 174//339
f 185//340 174//340 173//340
f 188//341 189//341 177//341
f 188//342 177//342 176//342
f 179//343 180//343 192//343
f 179//344 192//344 191//344
f 171//345 170//345 169//345
f 172//346 173//346 174//346
f 175//347 176//347 177//347
f 180//348 179//348 178//348
f 181//349 182//349 183//349
f 186//350 185//350 184//350
f 189//351 188//351 187//351
f 190//352 191//352 192//352
g stone_008
usemtl stone_4
s off
f 196//353 202//353 199//353
f 196//354 199//354 193//354
f 205//355 211//355 214//355
f 205//356 214//356 208//356
f 194//357 206//357 209//357
f 194//358 209//358 197//358
f 203//359 215//359 212//359
f 203//360 212//360 200//360
f 201//361 213//361 207//361
f 201//362 207//362 195//362
f 198//363 210//363 216//363
f 198//364 216//364 204//364
f 193//365 194//365 197//365
f 193//366 197//366 196//366
f 202//367 203//367 200//367
f 202//368 200//368 199//368
f 208//369 209//369 206//369
f 208//370 206//370 205//370
f 211//371 212//371 215//371
f 211//372 215//372 214//372
f 199//373 201//373 195//373
f 199//374 195//374 193//374
f 196//375 198//375 204//375
f 196//376 204//376 202//376
f 205//377 207//377 213//377
f 205//378 213//378 211//378
f 214//379 216//379 210//379
f 214//380 210//380 208//380
f 194//381 195//381 207//381
f 194//382 207//382 206//382
f 209//383 210//383 198//383
f 209//384 198//384 197//384
f 212//385 213//385 201//385
f 212//386 201//386 200//386
f 203//387 204//387 216//387
f 203//388 216//388 215//388
f 195//389 194//389 193//389
f 196//390 197//390 198//390
f 199//391 200//391 201//391
f 204//392 203//392 202//392
f 205//393 206//393 207//393
f 210//394 209//394 208//394
f 213//395 212//395 211//395
f 214//396 215//396 216//396
g stone_009
usemtl stone_2
s off
f 220//397 226//397 223//397
f 220//398 223//398 217//398
f 229//399 235//399 238//399
f 229//400 238//400 232//400
f 218//401 230//401 233//401
f 218//402 233//402 221//402
f 227//403 239//403 236//403
f 227//404 236//404 224//404
f 225//405 237//405 231//405
f 225//406 231//406 219//406
f 222//407 234//407 240//407
f 222//408 240//408 228//408
f 217//409 218//409 221//409
f 217//410 221//410 220//410
f 226//411 227//411 224//411
f 226//412 224//412 223//412
f 232//413 233//413 230//413
f 232//414 230//414 229//414
f 235//415 236//415 239//415
f 235//416 239//416 238//416
f 223//417 225//417 219//417
f 223//418 219//418 217//418
f 220//419 222//419 228//419
f 220//420 228//420 226//420
f 229//421 231//421 237//421
f 229//422 237//422 235//422
f 238//423 240//423 234//423
f 238//424 234//424 232//424
f 218//425 219//425 231//425
f 218//426 231//426 230//426
f 233//427 234//427 222//427
f 233//428 222//428 221//428
f 236//429 237//429 225//429
f 236//430 225//430 224//430
f 227//431 228//431 240//431
f 227//432 240//432 239//432
f 219//433 218//433 217//433
f 220//434 221//434 222//434
f 223//435 224//435 225//435
f 228//436 227//436 226//436
f 229//437 230//437 231//437
f 234//438 233//438 232//438
f 237//439 236//439 235//439
f 238//440 239//440 240//440
g stone_010
usemtl stone_1
s off
f 244//441 250//441 247//441
f 244//442 247//442 241//442
f 253//443 259//443 262//443
f 253//444 262//444 256//444
f 242//445 254//445 257//445
f 242//446 257//446 245//446
f 251//447 263//447 260//447
f 251//448 260//448 248//448
f 249//449 261//449 255//449
f 249//450 255//450 243//450
f 246//451 258//451 264//451
f 246//452 264//452 252//452
f 241//453 242//453 245//453
f 241//454 245//454 244//454
f 250//455 251//455 248//455
f 250//456 248//456 247//456
f 256//457 257//457 254//457
f 256//458 254//458 253//458
f 259//459 260//459 263//459
f 259//460 263//460 262//460
f 247//461 249//461 243//461
f 247//462 243//462 241//462
f 244//463 246//463 252//463
f 244//464 252//464 250//464
f 253//465 255//465 261//465
f 253//466 261//466 259//466
f 262//467 264//467 258//467
f 262//468 258//468 256//468
f 242//469 243//469 255//469
f 242//470 255//470 254//470
f 257//471 258//471 246//471
f 257//472 246//472 245//472
f 260//473 261//473 249//473
f 260//474 249//474 248//474
f 251//475 252//475 264//475
f 251//476 264//476 263//476
f 243//477 242//477 241//477
f 244//478 245//478 246//478
f 247//479 248//479 249//479
f 252//480 251//480 250//480
f 253//481 254//481 255//481
f 258//482 257//482 256//482
f 261//483 260//483 259//483
f 262//484 263//484 264//484
