# Ruins concept asset; Y up; units: meters
mtllib ruins.mtl
o ruin_broken_wall
v -3.255917 0.019344 -0.360145
v -3.235573 -0.001000 -0.360140
v -3.235568 0.019344 -0.380484
v -3.256084 0.016642 0.363382
v -3.238441 -0.001000 0.363386
v -3.238445 0.016642 0.381028
v -3.255915 0.546957 -0.366445
v -3.241872 0.561000 -0.366442
v -3.241869 0.546957 -0.380485
v -3.256085 0.547066 0.367091
v -3.242151 0.561000 0.367094
v -3.242154 0.547066 0.381028
v -2.243917 0.020058 -0.359197
v -2.264975 -0.001000 -0.359202
v -2.264970 0.020058 -0.380260
v -2.244083 0.019644 0.360614
v -2.264727 -0.001000 0.360609
v -2.264732 0.019644 0.381253
v -2.243917 0.538218 -0.357473
v -2.266699 0.561000 -0.357479
v -2.266694 0.538218 -0.380260
v -2.244083 0.540947 0.361204
v -2.264137 0.561000 0.361200
v -2.264141 0.540947 0.381253
v -2.236353 0.019512 -0.345246
v -2.215840 -0.001000 -0.345266
v -2.215861 0.019512 -0.365779
v -2.235641 0.013843 0.360659
v -2.220798 -0.001000 0.360644
v -2.220783 0.013843 0.375487
v -2.236358 0.545748 -0.350506
v -2.221107 0.561000 -0.350522
v -2.221122 0.545748 -0.365773
v -2.235648 0.538869 0.353371
v -2.213518 0.561000 0.353349
v -2.213495 0.538869 0.375480
v -1.224359 0.013812 -0.351966
v -1.239171 -0.001000 -0.351951
v -1.239186 0.013812 -0.366764
v -1.223649 0.021216 0.352266
v -1.245864 -0.001000 0.352288
v -1.245842 0.021216 0.374504
v -1.224358 0.545085 -0.350863
v -1.240273 0.561000 -0.350847
v -1.240289 0.545085 -0.366762
v -1.223646 0.542057 0.355539
v -1.242588 0.561000 0.355558
v -1.242569 0.542057 0.374500
v -1.214980 0.018239 -0.360824
v -1.195742 -0.001000 -0.360770
v -1.195688 0.018239 -0.380009
v -1.217007 0.021270 0.362481
v -1.194737 -0.001000 0.362543
v -1.194799 0.021270 0.384813
v -1.214970 0.545605 -0.364668
v -1.199574 0.561000 -0.364624
v -1.199531 0.545605 -0.380020
v -1.217028 0.546217 0.369967
v -1.202245 0.561000 0.370009
v -1.202286 0.546217 0.384792
v -0.202990 0.020390 -0.355837
v -0.224380 -0.001000 -0.355897
v -0.224320 0.020390 -0.377287
v -0.205027 0.015530 0.371057
v -0.221557 -0.001000 0.371010
v -0.221603 0.015530 0.387540
v -0.202978 0.544066 -0.360293
v -0.219912 0.561000 -0.360341
v -0.219864 0.544066 -0.377275
v -0.205013 0.539570 0.366156
v -0.226444 0.561000 0.366096
v -0.226504 0.539570 0.387526
v -0.195618 0.014808 -0.355016
v -0.179810 -0.001000 -0.354999
v -0.179793 0.014808 -0.370807
v -0.196374 0.021961 0.353414
v -0.173413 -0.001000 0.353439
v -0.173437 0.021961 0.376400
v -0.195615 0.547187 -0.357011
v -0.181802 0.561000 -0.356996
v -0.181788 0.547187 -0.370809
v -0.196383 0.546067 0.361443
v -0.181450 0.561000 0.361459
v -0.181466 0.546067 0.376391
v 0.816374 0.022066 -0.346677
v 0.793308 -0.001000 -0.346701
v 0.793332 0.022066 -0.369768
v 0.815624 0.021156 0.355300
v 0.793468 -0.001000 0.355277
v 0.793445 0.021156 0.377433
v 0.816377 0.540909 -0.349652
v 0.796286 0.561000 -0.349674
v 0.796308 0.540909 -0.369765
v 0.815624 0.538807 0.355263
v 0.793431 0.561000 0.355240
v 0.793408 0.538807 0.377433
v 0.824691 0.011964 -0.355195
v 0.837655 -0.001000 -0.355170
v 0.837680 0.011964 -0.368135
v 0.823320 0.016811 0.362349
v 0.841131 -0.001000 0.362383
v 0.841097 0.016811 0.380194
v 0.824686 0.545191 -0.352350
v 0.840495 0.561000 -0.352320
v 0.840525 0.545191 -0.368129
v 0.823320 0.543283 0.362443
v 0.841037 0.561000 0.362477
v 0.841003 0.543283 0.380194
v 1.836690 0.011660 -0.353566
v 1.824030 -0.001000 -0.353590
v 1.824054 0.011660 -0.366250
v 1.835308 0.011602 0.369491
v 1.822706 -0.001000 0.369467
v 1.822682 0.011602 0.382069
v 1.836682 0.544299 -0.349526
v 1.819982 0.561000 -0.349558
v 1.820013 0.544299 -0.366258
v 1.835324 0.540218 0.361311
v 1.814542 0.561000 0.361271
v 1.814502 0.540218 0.382053
v 1.844406 0.021253 -0.345794
v 1.866659 -0.001000 -0.345768
v 1.866685 0.021253 -0.368020
v 1.843595 0.022069 0.356265
v 1.866665 -0.001000 0.356292
v 1.866638 0.022069 0.379361
v 1.844414 0.545818 -0.352865
v 1.859596 0.561000 -0.352847
v 1.859614 0.545818 -0.368029
v 1.843585 0.546862 0.365196
v 1.857723 0.561000 0.365213
v 1.857707 0.546862 0.379351
v 2.856409 0.018433 -0.347444
v 2.836976 -0.001000 -0.347467
v 2.836998 0.018433 -0.366900
v 2.855592 0.019898 0.359606
v 2.834694 -0.001000 0.359582
v 2.834670 0.019898 0.380480
v 2.856406 0.539221 -0.345099
v 2.834628 0.561000 -0.345124
v 2.834653 0.539221 -0.366902
v 2.855591 0.541160 0.360664
v 2.835751 0.561000 0.360641
v 2.835728 0.541160 0.380481
v -3.035983 0.584905 -0.375382
v -3.020078 0.569000 -0.375381
v -3.020077 0.584905 -0.391286
v -3.036017 0.586665 0.358236
v -3.018352 0.569000 0.358237
v -3.018352 0.586665 0.375902
v -3.035984 1.108252 -0.368539
v -3.013236 1.131000 -0.368538
v -3.013235 1.108252 -0.391286
v -3.036017 1.115595 0.360496
v -3.020612 1.131000 0.360497
v -3.020613 1.115595 0.375901
v -2.023984 0.590148 -0.370093
v -2.045131 0.569000 -0.370094
v -2.045130 0.590148 -0.391242
v -2.024017 0.585898 0.359048
v -2.040915 0.569000 0.359047
v -2.040916 0.585898 0.375946
v -2.023983 1.116094 -0.376335
v -2.038889 1.131000 -0.376336
v -2.038888 1.116094 -0.391242
v -2.024016 1.108826 0.353772
v -2.046191 1.131000 0.353771
v -2.046192 1.108826 0.375946
v -2.016999 0.584185 -0.369206
v -2.001814 0.569000 -0.369247
v -2.001856 0.584185 -0.384433
v -2.015015 0.590759 0.350964
v -1.993256 0.569000 0.350904
v -1.993196 0.590759 0.372664
v -2.016994 1.113958 -0.367349
v -1.999952 1.131000 -0.367396
v -1.999999 1.113958 -0.384438
v -2.015017 1.108545 0.350269
v -1.992563 1.131000 0.350207
v -1.992501 1.108545 0.372662
v -1.005002 0.584548 -0.371631
v -1.020550 0.569000 -0.371588
v -1.020592 0.584548 -0.387136
v -1.002997 0.582766 0.356170
v -1.016763 0.569000 0.356208
v -1.016725 0.582766 0.369974
v -1.004994 1.112467 -0.368645
v -1.023527 1.131000 -0.368594
v -1.023578 1.112467 -0.387127
v -1.003004 1.114860 0.353796
v -1.019144 1.131000 0.353840
v -1.019099 1.114860 0.369980
v -0.996575 0.584938 -0.355504
v -0.980637 0.569000 -0.355529
v -0.980662 0.584938 -0.371467
v -0.995433 0.590227 0.360158
v -0.974205 0.569000 0.360125
v -0.974172 0.590227 0.381352
v -0.996564 1.108307 -0.348749
v -0.973871 1.131000 -0.348785
v -0.973907 1.108307 -0.371478
v -0.995423 1.115966 0.366351
v -0.980389 1.131000 0.366327
v -0.980365 1.115966 0.381361
v 0.015434 0.590903 -0.351153
v -0.006470 0.569000 -0.351118
v -0.006505 0.590903 -0.373022
v 0.016571 0.587497 0.361273
v -0.001927 0.569000 0.361303
v -0.001897 0.587497 0.379800
v 0.015420 1.117572 -0.359629
v 0.001992 1.131000 -0.359607
v 0.001971 1.117572 -0.373035
v 0.016571 1.113070 0.361841
v -0.001358 1.131000 0.361869
v -0.001330 1.113070 0.379799
v 0.024047 0.589005 -0.358222
v 0.044052 0.569000 -0.358219
v 0.044055 0.589005 -0.378224
v 0.023953 0.591328 0.353846
v 0.046281 0.569000 0.353849
v 0.046278 0.591328 0.376177
v 0.024047 1.109467 -0.356694
v 0.045580 1.131000 -0.356691
v 0.045582 1.109467 -0.378224
v 0.023953 1.110546 0.355721
v 0.044407 1.131000 0.355724
v 0.044404 1.110546 0.376177
v 1.036048 0.585260 -0.361834
v 1.019788 0.569000 -0.361836
v 1.019790 0.585260 -0.378096
v 1.035952 0.583423 0.361885
v 1.021530 0.569000 0.361883
v 1.021528 0.583423 0.376306
v 1.036048 1.117431 -0.364524
v 1.022478 1.131000 -0.364526
v 1.022480 1.117431 -0.378095
v 1.035953 1.109122 0.354430
v 1.014076 1.131000 0.354427
v 1.014073 1.109122 0.376305
v 1.043210 0.588285 -0.348488
v 1.062496 0.569000 -0.348531
v 1.062453 0.588285 -0.367816
v 1.044802 0.583784 0.369200
v 1.059586 0.569000 0.369167
v 1.059618 0.583784 0.383950
v 1.043201 1.116034 -0.352808
v 1.058166 1.131000 -0.352841
v 1.058133 1.116034 -0.367807
v 1.044806 1.117774 0.370757
v 1.058032 1.131000 0.370728
v 1.058061 1.117774 0.383954
v 2.055214 0.590991 -0.348027
v 2.033223 0.569000 -0.347978
v 2.033174 0.590991 -0.369969
v 2.056794 0.586419 0.364320
v 2.039375 0.569000 0.364359
v 2.039414 0.586419 0.381777
v 2.055214 1.108865 -0.347883
v 2.033079 1.131000 -0.347834
v 2.033030 1.108865 -0.369969
v 2.056795 1.113949 0.364688
v 2.039744 1.131000 0.364726
v 2.039781 1.113949 0.381777
v 2.063379 0.591922 -0.366506
v 2.086300 0.569000 -0.366546
v 2.086261 0.591922 -0.389468
v 2.064631 0.587178 0.361341
v 2.082809 0.569000 0.361310
v 2.082841 0.587178 0.379488
v 2.063367 1.114959 -0.373387
v 2.079408 1.131000 -0.373415
v 2.079380 1.114959 -0.389456
v 2.064636 1.115814 0.364334
v 2.079822 1.131000 0.364308
v 2.079848 1.115814 0.379493
v 3.075364 0.584382 -0.375788
v 3.059982 0.569000 -0.375761
v 3.059956 0.584382 -0.391143
v 3.076637 0.582582 0.364196
v 3.063056 0.569000 0.364220
v 3.063079 0.582582 0.377802
v 3.075360 1.117797 -0.377967
v 3.062157 1.131000 -0.377944
v 3.062135 1.117797 -0.391147
v 3.076623 1.108992 0.355771
v 3.054615 1.131000 0.355808
v 3.054653 1.108992 0.377816
v -3.255175 1.155716 -0.361540
v -3.238459 1.139000 -0.361503
v -3.238422 1.155716 -0.378218
v -3.256826 1.154069 0.372790
v -3.241758 1.139000 0.372824
v -3.241792 1.154069 0.387893
v -3.255174 1.684717 -0.361973
v -3.238891 1.701000 -0.361937
v -3.238854 1.684717 -0.378219
v -3.256809 1.678037 0.364896
v -3.233846 1.701000 0.364948
v -3.233898 1.678037 0.387910
v -2.243178 1.156148 -0.358832
v -2.260326 1.139000 -0.358871
v -2.260287 1.156148 -0.376019
v -2.244827 1.154983 0.374152
v -2.260809 1.139000 0.374116
v -2.260845 1.154983 0.390099
v -2.243175 1.685456 -0.360436
v -2.258718 1.701000 -0.360471
v -2.258683 1.685456 -0.376015
v -2.244824 1.683644 0.372779
v -2.262180 1.701000 0.372740
v -2.262219 1.683644 0.390096
v -2.235412 1.154407 -0.360737
v -2.220005 1.139000 -0.360712
v -2.219979 1.154407 -0.376119
v -2.236575 1.161387 0.347056
v -2.214188 1.139000 0.347092
v -2.214225 1.161387 0.369480
v -2.235410 1.686570 -0.361714
v -2.220981 1.701000 -0.361691
v -2.220957 1.686570 -0.376120
v -2.236578 1.680257 0.348699
v -2.215835 1.701000 0.348734
v -2.215869 1.680257 0.369477
v -1.223411 1.152768 -0.360713
v -1.237179 1.139000 -0.360735
v -1.237156 1.152768 -0.374504
v -1.224579 1.160088 0.350018
v -1.245667 1.139000 0.349983
v -1.245701 1.160088 0.371071
v -1.223413 1.685527 -0.359008
v -1.238886 1.701000 -0.359034
v -1.238861 1.685527 -0.374507
v -1.224579 1.679980 0.350086
v -1.245598 1.701000 0.350052
v -1.245633 1.679980 0.371071
v -1.215645 1.161323 -0.360677
v -1.193322 1.139000 -0.360655
v -1.193300 1.161323 -0.382978
v -1.216355 1.160999 0.350284
v -1.194356 1.139000 0.350306
v -1.194377 1.160999 0.372305
v -1.215641 1.683251 -0.365251
v -1.197892 1.701000 -0.365233
v -1.197874 1.683251 -0.382982
v -1.216362 1.686853 0.358136
v -1.202215 1.701000 0.358150
v -1.202229 1.686853 0.372297
v -0.203641 1.156310 -0.364680
v -0.220950 1.139000 -0.364698
v -0.220933 1.156310 -0.382008
v -0.204363 1.153282 0.359010
v -0.218645 1.139000 0.358996
v -0.218659 1.153282 0.373278
v -0.203639 1.685639 -0.366630
v -0.218999 1.701000 -0.366645
v -0.218984 1.685639 -0.382006
v -0.204361 1.684928 0.357220
v -0.220433 1.701000 0.357204
v -0.220449 1.684928 0.373277
v -0.195175 1.159236 -0.361739
v -0.174939 1.139000 -0.361693
v -0.174893 1.159236 -0.381929
v -0.196825 1.158193 0.362044
v -0.177631 1.139000 0.362088
v -0.177675 1.158193 0.381281
v -0.195179 1.679210 -0.360185
v -0.173389 1.701000 -0.360135
v -0.173339 1.679210 -0.381925
v -0.196818 1.678851 0.359088
v -0.174669 1.701000 0.359139
v -0.174720 1.678851 0.381288
v 0.816826 1.157556 -0.361113
v 0.798270 1.139000 -0.361155
v 0.798313 1.157556 -0.379711
v 0.815172 1.157995 0.364549
v 0.796178 1.139000 0.364506
v 0.796134 1.157995 0.383500
v 0.816821 1.680116 -0.358785
v 0.795937 1.701000 -0.358832
v 0.795984 1.680116 -0.379716
v 0.815164 1.685551 0.368095
v 0.799715 1.701000 0.368059
v 0.799680 1.685551 0.383508
v 0.824127 1.155032 -0.363114
v 0.840159 1.139000 -0.363108
v 0.840164 1.155032 -0.379140
v 0.823875 1.158144 0.353380
v 0.843019 1.139000 0.353387
v 0.843012 1.158144 0.372531
v 0.824125 1.681108 -0.359253
v 0.844018 1.701000 -0.359246
v 0.844025 1.681108 -0.379139
v 0.823875 1.680317 0.351841
v 0.844558 1.701000 0.351849
v 0.844550 1.680317 0.372531
v 1.836125 1.158579 -0.359211
v 1.816546 1.139000 -0.359218
v 1.816553 1.158579 -0.378797
v 1.835873 1.153417 0.358463
v 1.821456 1.139000 0.358458
v 1.821451 1.153417 0.372875
v 1.836125 1.680970 -0.358760
v 1.816095 1.701000 -0.358767
v 1.816102 1.680970 -0.378797
v 1.835873 1.686856 0.358736
v 1.821729 1.701000 0.358731
v 1.821724 1.686856 0.372875
v -3.036523 1.726200 -0.359315
v -3.019323 1.709000 -0.359340
v -3.019348 1.726200 -0.376539
v -3.035485 1.732039 0.362006
v -3.012445 1.709000 0.361972
v -3.012412 1.732039 0.385012
v -3.036527 2.256539 -0.362054
v -3.022066 2.271000 -0.362075
v -3.022087 2.256539 -0.376536
v -3.035477 2.252867 0.366912
v -3.017345 2.271000 0.366886
v -3.017319 2.252867 0.385019
v -2.024520 1.728969 -0.358002
v -2.044489 1.709000 -0.357973
v -2.044518 1.728969 -0.377943
v -2.023480 1.727913 0.364676
v -2.042392 1.709000 0.364703
v -2.042365 1.727913 0.383615
v -2.024518 2.249747 -0.356718
v -2.045771 2.271000 -0.356688
v -2.045802 2.249747 -0.377941
v -2.023478 2.253130 0.365718
v -2.041348 2.271000 0.365744
v -2.041322 2.253130 0.383614
v -2.016000 1.728763 -0.350104
v -1.996237 1.709000 -0.350104
v -1.996237 1.728763 -0.369866
v -2.016000 1.723629 0.365586
v -2.001371 1.709000 0.365586
v -2.001371 1.723629 0.380214
v -2.016000 2.256929 -0.355795
v -2.001929 2.271000 -0.355795
v -2.001929 2.256929 -0.369866
v -2.016000 2.249139 0.358354
v -1.994140 2.271000 0.358354
v -1.994140 2.249139 0.380214
v -1.004000 1.723351 -0.355516
v -1.018351 1.709000 -0.355516
v -1.018351 1.723351 -0.369866
v -1.004000 1.729244 0.359970
v -1.024244 1.709000 0.359970
v -1.024244 1.729244 0.380214
v -1.004000 2.250430 -0.349296
v -1.024570 2.271000 -0.349296
v -1.024570 2.250430 -0.369866
v -1.004000 2.252011 0.361225
v -1.022989 2.271000 0.361225
v -1.022989 2.252011 0.380214
v -0.996875 1.729740 -0.342933
v -0.976135 1.709000 -0.342985
v -0.976187 1.729740 -0.363724
v -0.995126 1.731392 0.357958
v -0.972734 1.709000 0.357902
v -0.972678 1.731392 0.380294
v -0.996879 2.251921 -0.344594
v -0.977800 2.271000 -0.344641
v -0.977848 2.251921 -0.363720
v -0.995124 2.249613 0.358963
v -0.973737 2.271000 0.358910
v -0.973683 2.249613 0.380297
v 0.015104 1.722303 -0.352895
v 0.001801 1.709000 -0.352862
v 0.001768 1.722303 -0.366164
v 0.016895 1.721803 0.365023
v 0.004092 1.709000 0.365055
v 0.004123 1.721803 0.377858
v 0.015103 2.257844 -0.353041
v 0.001947 2.271000 -0.353008
v 0.001914 2.257844 -0.366164
v 0.016869 2.247809 0.354635
v -0.006322 2.271000 0.354692
v -0.006265 2.247809 0.377883
v 0.024183 1.724817 -0.360664
v 0.040000 1.709000 -0.360656
v 0.040008 1.724817 -0.376472
v 0.023815 1.722161 0.352557
v 0.036976 1.709000 0.352563
v 0.036970 1.722161 0.365724
v 0.024183 2.255185 -0.360665
v 0.039999 2.271000 -0.360657
v 0.040007 2.255185 -0.376472
v 0.023820 2.249531 0.344249
v 0.045288 2.271000 0.344260
v 0.045277 2.249531 0.365729
v 1.036185 1.722303 -0.362655
v 1.022881 1.709000 -0.362662
v 1.022888 1.722303 -0.375965
v 1.035817 1.725963 0.349277
v 1.018854 1.709000 0.349268
v 1.018846 1.725963 0.366231
v 1.036182 2.252846 -0.357804
v 1.018028 2.271000 -0.357814
v 1.018038 2.252846 -0.375968
v 1.035816 2.256652 0.351892
v 1.021468 2.271000 0.351885
v 1.021461 2.256652 0.366232
v -3.255773 2.294706 -0.365245
v -3.240067 2.279000 -0.365235
v -3.240057 2.294706 -0.380941
v -3.256224 2.299888 0.354439
v -3.235336 2.279000 0.354452
v -3.235349 2.299888 0.375340
v -3.255776 2.820489 -0.360440
v -3.235265 2.841000 -0.360428
v -3.235252 2.820489 -0.380938
v -3.256229 2.827309 0.361636
v -3.242537 2.841000 0.361644
v -3.242546 2.827309 0.375336
v -2.243772 2.294247 -0.365069
v -2.259019 2.279000 -0.365079
v -2.259010 2.294247 -0.380326
v -2.244224 2.300821 0.354141
v -2.266044 2.279000 0.354128
v -2.266058 2.300821 0.375948
v -2.243777 2.817961 -0.357277
v -2.266817 2.841000 -0.357291
v -2.266802 2.817961 -0.380331
v -2.244226 2.823298 0.358260
v -2.261928 2.841000 0.358249
v -2.261939 2.823298 0.375951
v 0.031598 1.929679 -0.198611
v 0.108964 1.826679 -0.204035
v 0.115278 1.916957 -0.295872
v 0.066053 1.924639 0.302958
v 0.139099 1.827390 0.297837
v 0.157102 1.912627 0.382865
v 0.060135 2.120021 -0.175112
v 0.191550 2.219216 -0.184326
v 0.167163 2.103750 -0.299509
v 0.095278 2.138456 0.288969
v 0.205712 2.221814 0.281226
v 0.198926 2.124782 0.379933
v 0.708436 1.859126 -0.221430
v 0.577990 1.760664 -0.212283
v 0.586007 1.875278 -0.328876
v 0.738812 1.844925 0.240425
v 0.624530 1.758662 0.248438
v 0.645738 1.859075 0.348605
v 0.733183 2.044434 -0.241842
v 0.650772 2.154150 -0.236064
v 0.630461 2.057986 -0.331993
v 0.771572 2.065329 0.263582
v 0.707068 2.151206 0.268105
v 0.701803 2.075936 0.344674
v 1.806756 0.057708 0.510267
v 1.864124 0.000000 0.504015
v 1.857872 0.057708 0.446646
v 1.844492 0.081514 0.856495
v 1.925525 0.000000 0.847663
v 1.934357 0.081514 0.928697
v 1.809139 0.245300 0.532130
v 1.888370 0.325000 0.523494
v 1.879734 0.245300 0.444263
v 1.847277 0.269196 0.882053
v 1.902752 0.325000 0.876007
v 1.908799 0.269196 0.931482
v 2.456569 0.091300 0.473234
v 2.365807 0.000000 0.483126
v 2.355914 0.091300 0.392364
v 2.490813 0.080143 0.787431
v 2.411143 0.000000 0.796114
v 2.419826 0.080143 0.875785
v 2.454555 0.252286 0.454758
v 2.382269 0.325000 0.462636
v 2.374390 0.252286 0.390350
v 2.492315 0.258716 0.801208
v 2.426422 0.325000 0.808390
v 2.433603 0.258716 0.874283
v 1.255594 0.062966 0.689464
v 1.314981 0.000000 0.710389
v 1.335906 0.062966 0.651001
v 1.175514 0.071063 0.916739
v 1.242539 0.000000 0.940355
v 1.218923 0.071063 1.007379
v 1.260322 0.201262 0.676044
v 1.306290 0.250000 0.692241
v 1.322487 0.201262 0.646273
v 1.168987 0.198578 0.935263
v 1.217487 0.250000 0.952352
v 1.200398 0.198578 1.000852
v 1.724283 0.071675 0.863838
v 1.656681 0.000000 0.840019
v 1.680500 0.071675 0.772418
v 1.639553 0.048363 1.104310
v 1.593939 0.000000 1.088238
v 1.577867 0.048363 1.133852
v 1.725073 0.180705 0.861594
v 1.659716 0.250000 0.838565
v 1.682745 0.180705 0.773208
v 1.640414 0.199047 1.101867
v 1.592357 0.250000 1.084934
v 1.575424 0.199047 1.132991
v 2.605296 0.068328 -0.409946
v 2.665917 0.000000 -0.378422
v 2.697442 0.068328 -0.439043
v 2.449365 0.073693 -0.110088
v 2.514746 0.000000 -0.076088
v 2.480747 0.073693 -0.010707
v 2.599084 0.238207 -0.398000
v 2.671651 0.320000 -0.360264
v 2.709388 0.238207 -0.432831
v 2.438945 0.268890 -0.090052
v 2.484291 0.320000 -0.066471
v 2.460710 0.268890 -0.021126
v 3.170747 0.073452 -0.110126
v 3.105580 0.000000 -0.144015
v 3.139468 0.073452 -0.209182
v 3.016995 0.073293 0.185541
v 2.951968 0.000000 0.151726
v 2.918153 0.073293 0.216752
v 3.169555 0.243965 -0.107835
v 3.102096 0.320000 -0.142915
v 3.137176 0.243965 -0.210374
v 3.022949 0.233801 0.174090
v 2.946472 0.320000 0.134321
v 2.906703 0.233801 0.210798
v 0.291975 0.045171 0.675515
v 0.327314 0.000000 0.703649
v 0.355449 0.045171 0.668310
v 0.170624 0.044995 0.827943
v 0.205826 0.000000 0.855967
v 0.177801 0.044995 0.891169
v 0.290594 0.142612 0.677249
v 0.327668 0.190000 0.706764
v 0.357183 0.142612 0.669691
v 0.173644 0.140155 0.824148
v 0.212640 0.190000 0.855194
v 0.181595 0.140155 0.894190
v 0.591361 0.041808 0.909564
v 0.558652 0.000000 0.883524
v 0.584692 0.041808 0.850816
v 0.467305 0.044015 1.065390
v 0.432870 0.000000 1.037976
v 0.405456 0.044015 1.072410
v 0.586503 0.140392 0.915666
v 0.547693 0.190000 0.884768
v 0.578591 0.140392 0.845958
v 0.458967 0.159372 1.075863
v 0.435006 0.190000 1.056787
v 0.415929 0.159372 1.080748
v -2.555521 0.025474 0.630119
v -2.530048 0.000000 0.629972
v -2.530195 0.025474 0.604499
v -2.554515 0.032651 0.804491
v -2.521864 0.000000 0.804303
v -2.521676 0.032651 0.836954
v -2.555423 0.112541 0.647105
v -2.512964 0.155000 0.646860
v -2.513209 0.112541 0.604401
v -2.554559 0.114826 0.796968
v -2.514385 0.155000 0.796737
v -2.514153 0.114826 0.836910
v -2.245484 0.032720 0.635577
v -2.278204 0.000000 0.635766
v -2.278392 0.032720 0.603047
v -2.244483 0.026242 0.809113
v -2.270724 0.000000 0.809264
v -2.270573 0.026242 0.835505
v -2.245503 0.125457 0.632400
v -2.275045 0.155000 0.632571
v -2.275215 0.125457 0.603028
v -2.244527 0.121267 0.801621
v -2.278259 0.155000 0.801816
v -2.278065 0.121267 0.835549
v 2.826185 0.039998 0.663616
v 2.865584 0.000000 0.670510
v 2.872478 0.039998 0.631111
v 2.799618 0.045874 0.815437
v 2.844805 0.000000 0.823344
v 2.836898 0.045874 0.868532
v 2.828260 0.132040 0.651758
v 2.855802 0.160000 0.656578
v 2.860621 0.132040 0.629036
v 2.798502 0.120600 0.821815
v 2.837312 0.160000 0.828606
v 2.830520 0.120600 0.867416
v 3.141706 0.038195 0.716999
v 3.104083 0.000000 0.710415
v 3.110666 0.038195 0.672792
v 3.112285 0.031123 0.885126
v 3.081628 0.000000 0.879761
v 3.076263 0.031123 0.910419
v 3.143815 0.134039 0.704948
v 3.118243 0.160000 0.700473
v 3.122718 0.134039 0.674901
v 3.114760 0.114517 0.870981
v 3.069959 0.160000 0.863142
v 3.062119 0.114517 0.907943
vn -1.000000 -0.000000 -0.000231
vn -1.000000 0.000000 -0.000231
vn 1.000000 -0.000000 0.000231
vn 1.000000 -0.000000 0.000231
vn 0.000000 -1.000000 0.000000
vn 0.000000 -1.000000 0.000000
vn 0.000000 1.000000 0.000000
vn 0.000000 1.000000 0.000000
vn 0.000231 -0.000000 -1.000000
vn 0.000231 0.000000 -1.000000
vn -0.000231 0.000000 1.000000
vn -0.000231 0.000000 1.000000
vn -0.707104 -0.707104 -0.002803
vn -0.707104 -0.707104 -0.002803
vn -0.707107 0.707107 -0.000269
vn -0.707107 0.707107 -0.000269
vn 0.707107 -0.707107 -0.000243
vn 0.707107 -0.707107 -0.000243
vn 0.707105 0.707104 -0.002521
vn 0.707105 0.707104 -0.002521
vn -0.706918 -0.008444 -0.707245
vn -0.706918 -0.008444 -0.707245
vn -0.707261 -0.004944 0.706935
vn -0.707261 -0.004944 0.706935
vn 0.707268 0.002353 -0.706942
vn 0.707268 0.002353 -0.706942
vn 0.706943 -0.000802 0.707270
vn 0.706943 -0.000802 0.707270
vn 0.000683 -0.707107 -0.707107
vn 0.000683 -0.707107 -0.707107
vn 0.002017 -0.707105 0.707106
vn 0.002017 -0.707105 0.707106
vn 0.006499 0.707093 -0.707091
vn 0.006499 0.707093 -0.707091
vn 0.004261 0.707100 0.707101
vn 0.004261 0.707100 0.707101
vn -0.577217 -0.577350 -0.577483
vn -0.577483 -0.577350 0.577217
vn -0.577217 0.577350 -0.577483
vn -0.577483 0.577350 0.577217
vn 0.577483 -0.577350 -0.577217
vn 0.577217 -0.577350 0.577483
vn 0.577483 0.577350 -0.577217
vn 0.577217 0.577350 0.577483
vn -0.999999 0.000000 0.001008
vn -0.999999 -0.000000 0.001008
vn 0.999999 0.000000 -0.001008
vn 0.999999 0.000000 -0.001008
vn 0.000000 -1.000000 0.000000
vn 0.000000 -1.000000 0.000000
vn -0.000000 1.000000 0.000000
vn 0.000000 1.000000 0.000000
vn -0.001008 -0.000000 -0.999999
vn -0.001008 -0.000000 -0.999999
vn 0.001008 0.000000 0.999999
vn 0.001008 -0.000000 0.999999
vn -0.707101 -0.707095 -0.004966
vn -0.707101 -0.707095 -0.004966
vn -0.707083 0.707090 0.007624
vn -0.707083 0.707090 0.007624
vn 0.707094 -0.707087 0.006720
vn 0.707094 -0.707087 0.006720
vn 0.707106 0.707104 0.002318
vn 0.707106 0.707104 0.002318
vn -0.707802 -0.007069 -0.706376
vn -0.707802 -0.007069 -0.706376
vn -0.706359 0.009815 0.707785
vn -0.706359 0.009815 0.707785
vn 0.706393 0.001468 -0.707819
vn 0.706393 0.001468 -0.707819
vn 0.707812 -0.004443 0.706386
vn 0.707812 -0.004443 0.706386
vn -0.004840 -0.707101 -0.707096
vn -0.004840 -0.707101 -0.707096
vn 0.006060 -0.707097 0.707091
vn 0.006060 -0.707097 0.707091
vn -0.000235 0.707107 -0.707107
vn -0.000235 0.707107 -0.707107
vn -0.001609 0.707105 0.707107
vn -0.001609 0.707105 0.707107
vn -0.577932 -0.577350 -0.576768
vn -0.576768 -0.577350 0.577932
vn -0.577932 0.577350 -0.576768
vn -0.576768 0.577350 0.577932
vn 0.576768 -0.577350 -0.577932
vn 0.577932 -0.577350 0.576768
vn 0.576768 0.577350 -0.577932
vn 0.577932 0.577350 0.576768
vn -0.999996 0.000000 -0.002802
vn -0.999996 -0.000000 -0.002802
vn 0.999996 0.000000 0.002802
vn 0.999996 0.000000 0.002802
vn 0.000000 -1.000000 0.000000
vn 0.000000 -1.000000 0.000000
vn 0.000000 1.000000 0.000000
vn 0.000000 1.000000 0.000000
vn 0.002802 -0.000000 -0.999996
vn 0.002802 0.000000 -0.999996
vn -0.002802 0.000000 0.999996
vn -0.002802 -0.000000 0.999996
vn -0.707109 -0.707104 0.000982
vn -0.707109 -0.707104 0.000982
vn -0.707102 0.707107 -0.002571
vn -0.707102 0.707107 -0.002571
vn 0.707109 -0.707099 -0.002746
vn 0.707109 -0.707099 -0.002746
vn 0.707085 0.707100 0.006358
vn 0.707085 0.707100 0.006358
vn -0.705113 -0.005153 -0.709076
vn -0.705113 -0.005153 -0.709076
vn -0.709049 -0.010084 0.705087
vn -0.709049 -0.010084 0.705087
vn 0.709073 -0.006017 -0.705110
vn 0.709073 -0.006017 -0.705110
vn 0.705107 0.006612 0.709070
vn 0.705107 0.006612 0.709070
vn 0.003547 -0.707106 -0.707099
vn 0.003547 -0.707106 -0.707099
vn -0.006152 -0.707101 0.707086
vn -0.006152 -0.707101 0.707086
vn 0.003092 0.707106 -0.707100
vn 0.003092 0.707106 -0.707100
vn 0.002835 0.707099 0.707109
vn 0.002835 0.707099 0.707109
vn -0.575730 -0.577350 -0.578966
vn -0.578966 -0.577350 0.575730
vn -0.575730 0.577350 -0.578966
vn -0.578966 0.577350 0.575730
vn 0.578966 -0.577350 -0.575730
vn 0.575730 -0.577350 0.578966
vn 0.578966 0.577350 -0.575730
vn 0.575730 0.577350 0.578966
vn -0.999999 -0.000000 -0.001068
vn -0.999999 0.000000 -0.001068
vn 0.999999 -0.000000 0.001068
vn 0.999999 0.000000 0.001068
vn 0.000000 -1.000000 0.000000
vn 0.000000 -1.000000 0.000000
vn 0.000000 1.000000 0.000000
vn 0.000000 1.000000 0.000000
vn 0.001068 -0.000000 -0.999999
vn 0.001068 -0.000000 -0.999999
vn -0.001068 0.000000 0.999999
vn -0.001068 0.000000 0.999999
vn -0.707096 -0.707089 0.006385
vn -0.707096 -0.707089 0.006385
vn -0.707107 0.707106 0.000347
vn -0.707107 0.707106 0.000347
vn 0.707107 -0.707106 -0.000162
vn 0.707107 -0.707106 -0.000162
vn 0.707103 0.707105 0.002864
vn 0.707103 0.707105 0.002864
vn -0.706349 -0.002650 -0.707859
vn -0.706349 -0.002650 -0.707859
vn -0.707820 -0.010831 0.706310
vn -0.707820 -0.010831 0.706310
vn 0.707856 -0.004055 -0.706345
vn 0.707856 -0.004055 -0.706345
vn 0.706351 0.000051 0.707862
vn 0.706351 0.000051 0.707862
vn 0.006029 -0.707097 -0.707091
vn 0.006029 -0.707097 -0.707091
vn -0.001344 -0.707107 0.707106
vn -0.001344 -0.707107 0.707106
vn 0.005294 0.707099 -0.707094
vn 0.005294 0.707099 -0.707094
vn 0.004511 0.707097 0.707102
vn 0.004511 0.707097 0.707102
vn -0.576733 -0.577350 -0.577967
vn -0.577967 -0.577350 0.576733
vn -0.576733 0.577350 -0.577967
vn -0.577967 0.577350 0.576733
vn 0.577967 -0.577350 -0.576733
vn 0.576733 -0.577350 0.577967
vn 0.577967 0.577350 -0.576733
vn 0.576733 0.577350 0.577967
vn -0.999998 0.000000 -0.001911
vn -0.999998 -0.000000 -0.001911
vn 0.999998 -0.000000 0.001911
vn 0.999998 -0.000000 0.001911
vn 0.000000 -1.000000 0.000000
vn 0.000000 -1.000000 0.000000
vn 0.000000 1.000000 0.000000
vn 0.000000 1.000000 0.000000
vn 0.001911 -0.000000 -0.999998
vn 0.001911 -0.000000 -0.999998
vn -0.001911 -0.000000 0.999998
vn -0.001911 0.000000 0.999998
vn -0.707107 -0.707099 0.003425
vn -0.707107 -0.707099 0.003425
vn -0.707108 0.707106 0.000536
vn -0.707108 0.707106 0.000536
vn 0.707106 -0.707107 0.001294
vn 0.707106 -0.707107 0.001294
vn 0.707092 0.707101 0.005411
vn 0.707092 0.707101 0.005411
vn -0.705749 0.003772 -0.708451
vn -0.705749 0.003772 -0.708451
vn -0.708456 -0.000126 0.705755
vn -0.708456 -0.000126 0.705755
vn 0.708446 0.005364 -0.705744
vn 0.708446 0.005364 -0.705744
vn 0.705712 0.010941 0.708414
vn 0.705712 0.010941 0.708414
vn 0.001133 -0.707107 -0.707106
vn 0.001133 -0.707107 -0.707106
vn -0.005103 -0.707102 0.707093
vn -0.005103 -0.707102 0.707093
vn 0.001994 0.707107 -0.707104
vn 0.001994 0.707107 -0.707104
vn 0.000876 0.707105 0.707108
vn 0.000876 0.707105 0.707108
vn -0.576246 -0.577350 -0.578452
vn -0.578452 -0.577350 0.576246
vn -0.576246 0.577350 -0.578452
vn -0.578452 0.577350 0.576246
vn 0.578452 -0.577350 -0.576246
vn 0.576246 -0.577350 0.578452
vn 0.578452 0.577350 -0.576246
vn 0.576246 0.577350 0.578452
vn -0.999999 -0.000000 -0.001155
vn -0.999999 -0.000000 -0.001155
vn 0.999999 0.000000 0.001155
vn 0.999999 0.000000 0.001155
vn 0.000000 -1.000000 0.000000
vn 0.000000 -1.000000 0.000000
vn 0.000000 1.000000 0.000000
vn 0.000000 1.000000 0.000000
vn 0.001155 0.000000 -0.999999
vn 0.001155 -0.000000 -0.999999
vn -0.001155 -0.000000 0.999999
vn -0.001155 -0.000000 0.999999
vn -0.707107 -0.707107 0.000006
vn -0.707107 -0.707107 0.000006
vn -0.707105 0.707106 -0.001844
vn -0.707105 0.707106 -0.001844
vn 0.707104 -0.707106 0.002282
vn 0.707104 -0.707106 0.002282
vn 0.707107 0.707105 -0.001126
vn 0.707107 0.707105 -0.001126
vn -0.706257 -0.009531 -0.707891
vn -0.706257 -0.009531 -0.707891
vn -0.707872 -0.012032 0.706238
vn -0.707872 -0.012032 0.706238
vn 0.707920 0.003185 -0.706286
vn 0.707920 0.003185 -0.706286
vn 0.706289 -0.001435 0.707922
vn 0.706289 -0.001435 0.707922
vn -0.001238 -0.707105 -0.707107
vn -0.001238 -0.707105 -0.707107
vn -0.002403 -0.707106 0.707104
vn -0.002403 -0.707106 0.707104
vn 0.005601 0.707099 -0.707093
vn 0.005601 0.707099 -0.707093
vn 0.003305 0.707101 0.707105
vn 0.003305 0.707101 0.707105
vn -0.576683 -0.577350 -0.578017
vn -0.578017 -0.577350 0.576683
vn -0.576683 0.577350 -0.578017
vn -0.578017 0.577350 0.576683
vn 0.578017 -0.577350 -0.576683
vn 0.576683 -0.577350 0.578017
vn 0.578017 0.577350 -0.576683
vn 0.576683 0.577350 0.578017
vn -1.000000 -0.000000 -0.000045
vn -1.000000 -0.000000 -0.000045
vn 1.000000 -0.000000 0.000045
vn 1.000000 0.000000 0.000045
vn 0.000000 -1.000000 0.000000
vn 0.000000 -1.000000 0.000000
vn 0.000000 1.000000 0.000000
vn 0.000000 1.000000 0.000000
vn 0.000045 -0.000000 -1.000000
vn 0.000045 0.000000 -1.000000
vn -0.000045 0.000000 1.000000
vn -0.000045 0.000000 1.000000
vn -0.707106 -0.707106 0.001664
vn -0.707106 -0.707106 0.001664
vn -0.707089 0.707089 -0.007154
vn -0.707089 0.707089 -0.007154
vn 0.707101 -0.707101 -0.004089
vn 0.707101 -0.707101 -0.004089
vn 0.707089 0.707089 0.007071
vn 0.707089 0.707089 0.007071
vn -0.707045 0.009244 -0.707109
vn -0.707045 0.009244 -0.707109
vn -0.707136 -0.003022 0.707071
vn -0.707136 -0.003022 0.707071
vn 0.707114 -0.008392 -0.707050
vn 0.707114 -0.008392 -0.707050
vn 0.707057 0.007134 0.707121
vn 0.707057 0.007134 0.707121
vn 0.003834 -0.707102 -0.707101
vn 0.003834 -0.707102 -0.707101
vn -0.000587 -0.707107 0.707107
vn -0.000587 -0.707107 0.707107
vn -0.005659 0.707095 -0.707096
vn -0.005659 0.707095 -0.707096
vn 0.004880 0.707098 0.707098
vn 0.004880 0.707098 0.707098
vn -0.577324 -0.577350 -0.577376
vn -0.577376 -0.577350 0.577324
vn -0.577324 0.577350 -0.577376
vn -0.577376 0.577350 0.577324
vn 0.577376 -0.577350 -0.577324
vn 0.577324 -0.577350 0.577376
vn 0.577376 0.577350 -0.577324
vn 0.577324 0.577350 0.577376
vn -0.999996 -0.000000 0.002754
vn -0.999996 -0.000000 0.002754
vn 0.999996 -0.000000 -0.002754
vn 0.999996 0.000000 -0.002754
vn 0.000000 -1.000000 0.000000
vn 0.000000 -1.000000 0.000000
vn -0.000000 1.000000 0.000000
vn 0.000000 1.000000 0.000000
vn -0.002754 -0.000000 -0.999996
vn -0.002754 0.000000 -0.999996
vn 0.002754 -0.000000 0.999996
vn 0.002754 -0.000000 0.999996
vn -0.707072 -0.707092 0.008402
vn -0.707072 -0.707092 0.008402
vn -0.707079 0.707097 0.007281
vn -0.707079 0.707097 0.007281
vn 0.707098 -0.707106 -0.003679
vn 0.707098 -0.707106 -0.003679
vn 0.707096 0.707105 -0.004290
vn 0.707096 0.707105 -0.004290
vn -0.709050 0.002478 -0.705154
vn -0.709050 0.002478 -0.705154
vn -0.705156 0.000950 0.709051
vn -0.705156 0.000950 0.709051
vn 0.705151 0.003999 -0.709046
vn 0.705151 0.003999 -0.709046
vn 0.709048 0.003155 0.705153
vn 0.709048 0.003155 0.705153
vn -0.001687 -0.707107 -0.707105
vn -0.001687 -0.707107 -0.707105
vn -0.003841 -0.707095 0.707108
vn -0.003841 -0.707095 0.707108
vn -0.000868 0.707106 -0.707107
vn -0.000868 0.707106 -0.707107
vn -0.002639 0.707099 0.707109
vn -0.002639 0.707099 0.707109
vn -0.578938 -0.577350 -0.575758
vn -0.575758 -0.577350 0.578938
vn -0.578938 0.577350 -0.575758
vn -0.575758 0.577350 0.578938
vn 0.575758 -0.577350 -0.578938
vn 0.578938 -0.577350 0.575758
vn 0.575758 0.577350 -0.578938
vn 0.578938 0.577350 0.575758
vn -0.999999 -0.000000 0.001596
vn -0.999999 -0.000000 0.001596
vn 0.999999 -0.000000 -0.001596
vn 0.999999 -0.000000 -0.001596
vn 0.000000 -1.000000 0.000000
vn 0.000000 -1.000000 0.000000
vn 0.000000 1.000000 0.000000
vn 0.000000 1.000000 0.000000
vn -0.001596 -0.000000 -0.999999
vn -0.001596 0.000000 -0.999999
vn 0.001596 -0.000000 0.999999
vn 0.001596 0.000000 0.999999
vn -0.707088 -0.707097 0.006355
vn -0.707088 -0.707097 0.006355
vn -0.707098 0.707087 -0.006444
vn -0.707098 0.707087 -0.006444
vn 0.707096 -0.707103 -0.004509
vn 0.707096 -0.707103 -0.004509
vn 0.707106 0.707100 0.003284
vn 0.707106 0.707100 0.003284
vn -0.708205 0.009126 -0.705948
vn -0.708205 0.009126 -0.705948
vn -0.705953 -0.008329 0.708210
vn -0.705953 -0.008329 0.708210
vn 0.705932 -0.011379 -0.708188
vn 0.705932 -0.011379 -0.708188
vn 0.708234 -0.000763 0.705977
vn 0.708234 -0.000763 0.705977
vn 0.003202 -0.707100 -0.707106
vn 0.003202 -0.707100 -0.707106
vn -0.000857 -0.707105 0.707108
vn -0.000857 -0.707105 0.707108
vn -0.007841 0.707091 -0.707079
vn -0.007841 0.707091 -0.707079
vn 0.003220 0.707105 0.707101
vn 0.003220 0.707105 0.707101
vn -0.578271 -0.577350 -0.576428
vn -0.576428 -0.577350 0.578271
vn -0.578271 0.577350 -0.576428
vn -0.576428 0.577350 0.578271
vn 0.576428 -0.577350 -0.578271
vn 0.578271 -0.577350 0.576428
vn 0.576428 0.577350 -0.578271
vn 0.578271 0.577350 0.576428
vn -1.000000 0.000000 -0.000132
vn -1.000000 0.000000 -0.000132
vn 1.000000 -0.000000 0.000132
vn 1.000000 -0.000000 0.000132
vn 0.000000 -1.000000 0.000000
vn 0.000000 -1.000000 0.000000
vn 0.000000 1.000000 0.000000
vn 0.000000 1.000000 0.000000
vn 0.000132 0.000000 -1.000000
vn 0.000132 0.000000 -1.000000
vn -0.000132 0.000000 1.000000
vn -0.000132 -0.000000 1.000000
vn -0.707105 -0.707105 0.002214
vn -0.707105 -0.707105 0.002214
vn -0.707106 0.707106 -0.001164
vn -0.707106 0.707106 -0.001164
vn 0.707106 -0.707106 -0.001702
vn 0.707106 -0.707106 -0.001702
vn 0.707082 0.707083 0.008264
vn 0.707082 0.707083 0.008264
vn -0.707012 0.002076 -0.707198
vn -0.707012 0.002076 -0.707198
vn -0.707198 -0.002553 0.707011
vn -0.707198 -0.002553 0.707011
vn 0.707195 -0.003575 -0.707009
vn 0.707195 -0.003575 -0.707009
vn 0.706978 0.010027 0.707164
vn 0.706978 0.010027 0.707164
vn -0.002621 -0.707104 -0.707105
vn -0.002621 -0.707104 -0.707105
vn -0.005825 -0.707095 0.707094
vn -0.005825 -0.707095 0.707094
vn -0.005671 0.707095 -0.707096
vn -0.005671 0.707095 -0.707096
vn 0.000945 0.707106 0.707107
vn 0.000945 0.707106 0.707107
vn -0.577274 -0.577350 -0.577426
vn -0.577426 -0.577350 0.577274
vn -0.577274 0.577350 -0.577426
vn -0.577426 0.577350 0.577274
vn 0.577426 -0.577350 -0.577274
vn 0.577274 -0.577350 0.577426
vn 0.577426 0.577350 -0.577274
vn 0.577274 0.577350 0.577426
vn -0.999998 0.000000 0.002218
vn -0.999998 0.000000 0.002218
vn 0.999998 0.000000 -0.002218
vn 0.999998 -0.000000 -0.002218
vn 0.000000 -1.000000 0.000000
vn 0.000000 -1.000000 0.000000
vn 0.000000 1.000000 0.000000
vn 0.000000 1.000000 0.000000
vn -0.002218 -0.000000 -0.999998
vn -0.002218 0.000000 -0.999998
vn 0.002218 -0.000000 0.999998
vn 0.002218 0.000000 0.999998
vn -0.707108 -0.707100 -0.002867
vn -0.707108 -0.707100 -0.002867
vn -0.707108 0.707106 -0.000131
vn -0.707108 0.707106 -0.000131
vn 0.707088 -0.707099 -0.006107
vn 0.707088 -0.707099 -0.006107
vn 0.707085 0.707098 -0.006613
vn 0.707085 0.707098 -0.006613
vn -0.708661 -0.005788 -0.705525
vn -0.708661 -0.005788 -0.705525
vn -0.705535 -0.002062 0.708672
vn -0.705535 -0.002062 0.708672
vn 0.705537 0.000196 -0.708673
vn 0.705537 0.000196 -0.708673
vn 0.708673 -0.000493 0.705537
vn 0.708673 -0.000493 0.705537
vn 0.000403 -0.707105 -0.707108
vn 0.000403 -0.707105 -0.707108
vn 0.003470 -0.707106 0.707100
vn 0.003470 -0.707106 0.707100
vn 0.003632 0.707097 -0.707107
vn 0.003632 0.707097 -0.707107
vn 0.004323 0.707104 0.707096
vn 0.004323 0.707104 0.707096
vn -0.578629 -0.577350 -0.576068
vn -0.576068 -0.577350 0.578629
vn -0.578629 0.577350 -0.576068
vn -0.576068 0.577350 0.578629
vn 0.576068 -0.577350 -0.578629
vn 0.578629 -0.577350 0.576068
vn 0.576068 0.577350 -0.578629
vn 0.578629 0.577350 0.576068
vn -0.999999 0.000000 0.001721
vn -0.999999 0.000000 0.001721
vn 0.999999 0.000000 -0.001721
vn 0.999999 -0.000000 -0.001721
vn 0.000000 -1.000000 0.000000
vn 0.000000 -1.000000 0.000000
vn 0.000000 1.000000 0.000000
vn 0.000000 1.000000 0.000000
vn -0.001721 0.000000 -0.999999
vn -0.001721 -0.000000 -0.999999
vn 0.001721 0.000000 0.999999
vn 0.001721 0.000000 0.999999
vn -0.707106 -0.707099 -0.003392
vn -0.707106 -0.707099 -0.003392
vn -0.707107 0.707107 0.000397
vn -0.707107 0.707107 0.000397
vn 0.707102 -0.707106 -0.002937
vn 0.707102 -0.707106 -0.002937
vn 0.707095 0.707081 0.007268
vn 0.707095 0.707081 0.007268
vn -0.708292 -0.009302 -0.705858
vn -0.708292 -0.009302 -0.705858
vn -0.705883 -0.004003 0.708317
vn -0.705883 -0.004003 0.708317
vn 0.705886 -0.002888 -0.708320
vn 0.705886 -0.002888 -0.708320
vn 0.708277 0.011317 0.705844
vn 0.708277 0.011317 0.705844
vn -0.006692 -0.707096 -0.707086
vn -0.006692 -0.707096 -0.707086
vn -0.002099 -0.707103 0.707108
vn -0.002099 -0.707103 0.707108
vn -0.003259 0.707105 -0.707101
vn -0.003259 0.707105 -0.707101
vn 0.006165 0.707098 0.707089
vn 0.006165 0.707098 0.707089
vn -0.578343 -0.577350 -0.576356
vn -0.576356 -0.577350 0.578343
vn -0.578343 0.577350 -0.576356
vn -0.576356 0.577350 0.578343
vn 0.576356 -0.577350 -0.578343
vn 0.578343 -0.577350 0.576356
vn 0.576356 0.577350 -0.578343
vn 0.578343 0.577350 0.576356
vn -0.999997 -0.000000 -0.002249
vn -0.999997 -0.000000 -0.002249
vn 0.999997 -0.000000 0.002249
vn 0.999997 -0.000000 0.002249
vn 0.000000 -1.000000 0.000000
vn 0.000000 -1.000000 0.000000
vn -0.000000 1.000000 0.000000
vn 0.000000 1.000000 0.000000
vn 0.002249 -0.000000 -0.999997
vn 0.002249 -0.000000 -0.999997
vn -0.002249 -0.000000 0.999997
vn -0.002249 -0.000000 0.999997
vn -0.707101 -0.707106 -0.003176
vn -0.707101 -0.707106 -0.003176
vn -0.707105 0.707092 0.004908
vn -0.707105 0.707092 0.004908
vn 0.707107 -0.707106 0.000466
vn 0.707107 -0.707106 0.000466
vn 0.707100 0.707106 0.003338
vn 0.707100 0.707106 0.003338
vn -0.705515 -0.000579 -0.708695
vn -0.705515 -0.000579 -0.708695
vn -0.708655 0.010652 0.705475
vn -0.708655 0.010652 0.705475
vn 0.708694 -0.002143 -0.705513
vn 0.708694 -0.002143 -0.705513
vn 0.705514 0.001837 0.708694
vn 0.705514 0.001837 0.708694
vn 0.001903 -0.707107 -0.707104
vn 0.001903 -0.707107 -0.707104
vn -0.000931 -0.707107 0.707106
vn -0.000931 -0.707107 0.707106
vn 0.001057 0.707107 -0.707106
vn 0.001057 0.707107 -0.707106
vn -0.005670 0.707101 0.707090
vn -0.005670 0.707101 0.707090
vn -0.576050 -0.577350 -0.578647
vn -0.578647 -0.577350 0.576050
vn -0.576050 0.577350 -0.578647
vn -0.578647 0.577350 0.576050
vn 0.578647 -0.577350 -0.576050
vn 0.576050 -0.577350 0.578647
vn 0.578647 0.577350 -0.576050
vn 0.576050 0.577350 0.578647
vn -0.999999 0.000000 -0.001643
vn -0.999999 -0.000000 -0.001643
vn 0.999999 -0.000000 0.001643
vn 0.999999 0.000000 0.001643
vn 0.000000 -1.000000 0.000000
vn 0.000000 -1.000000 0.000000
vn -0.000000 1.000000 0.000000
vn 0.000000 1.000000 0.000000
vn 0.001643 0.000000 -0.999999
vn 0.001643 -0.000000 -0.999999
vn -0.001643 -0.000000 0.999999
vn -0.001643 0.000000 0.999999
vn -0.707100 -0.707090 0.005811
vn -0.707100 -0.707090 0.005811
vn -0.707102 0.707093 0.005122
vn -0.707102 0.707093 0.005122
vn 0.707075 -0.707088 0.008444
vn 0.707075 -0.707088 0.008444
vn 0.707086 0.707096 0.006693
vn 0.707086 0.707096 0.006693
vn -0.705943 -0.001299 -0.708267
vn -0.705943 -0.001299 -0.708267
vn -0.708266 -0.002240 0.705942
vn -0.708266 -0.002240 0.705942
vn 0.708266 0.002262 -0.705942
vn 0.708266 0.002262 -0.705942
vn 0.705944 -0.000093 0.708268
vn 0.705944 -0.000093 0.708268
vn -0.000017 -0.707106 -0.707107
vn -0.000017 -0.707106 -0.707107
vn -0.002111 -0.707106 0.707104
vn -0.002111 -0.707106 0.707104
vn 0.001913 0.707107 -0.707104
vn 0.001913 0.707107 -0.707104
vn -0.000961 0.707107 0.707106
vn -0.000961 0.707107 0.707106
vn -0.576401 -0.577350 -0.578298
vn -0.578298 -0.577350 0.576401
vn -0.576401 0.577350 -0.578298
vn -0.578298 0.577350 0.576401
vn 0.578298 -0.577350 -0.576401
vn 0.576401 -0.577350 0.578298
vn 0.578298 0.577350 -0.576401
vn 0.576401 0.577350 0.578298
vn -1.000000 0.000000 -0.000998
vn -1.000000 0.000000 -0.000998
vn 1.000000 -0.000000 0.000998
vn 1.000000 -0.000000 0.000998
vn 0.000000 -1.000000 0.000000
vn 0.000000 -1.000000 0.000000
vn 0.000000 1.000000 0.000000
vn 0.000000 1.000000 0.000000
vn 0.000998 -0.000000 -1.000000
vn 0.000998 -0.000000 -1.000000
vn -0.000998 -0.000000 1.000000
vn -0.000998 0.000000 1.000000
vn -0.707106 -0.707107 -0.001028
vn -0.707106 -0.707107 -0.001028
vn -0.707099 0.707102 -0.004226
vn -0.707099 0.707102 -0.004226
vn 0.707106 -0.707104 -0.002253
vn 0.707106 -0.707104 -0.002253
vn 0.707106 0.707107 0.001401
vn 0.707106 0.707107 0.001401
vn -0.706387 -0.006197 -0.707798
vn -0.706387 -0.006197 -0.707798
vn -0.707773 -0.010558 0.706361
vn -0.707773 -0.010558 0.706361
vn 0.707810 -0.002604 -0.706398
vn 0.707810 -0.002604 -0.706398
vn 0.706399 0.002381 0.707810
vn 0.706399 0.002381 0.707810
vn -0.002940 -0.707102 -0.707105
vn -0.002940 -0.707102 -0.707105
vn -0.006298 -0.707096 0.707090
vn -0.006298 -0.707096 0.707090
vn -0.001020 0.707106 -0.707107
vn -0.001020 0.707106 -0.707107
vn 0.000681 0.707106 0.707107
vn 0.000681 0.707106 0.707107
vn -0.576774 -0.577350 -0.577926
vn -0.577926 -0.577350 0.576774
vn -0.576774 0.577350 -0.577926
vn -0.577926 0.577350 0.576774
vn 0.577926 -0.577350 -0.576774
vn 0.576774 -0.577350 0.577926
vn 0.577926 0.577350 -0.576774
vn 0.576774 0.577350 0.577926
vn -0.999997 0.000000 -0.002279
vn -0.999997 -0.000000 -0.002279
vn 0.999997 0.000000 0.002279
vn 0.999997 0.000000 0.002279
vn 0.000000 -1.000000 0.000000
vn 0.000000 -1.000000 0.000000
vn -0.000000 1.000000 0.000000
vn 0.000000 1.000000 0.000000
vn 0.002279 -0.000000 -0.999997
vn 0.002279 0.000000 -0.999997
vn -0.002279 0.000000 0.999997
vn -0.002279 -0.000000 0.999997
vn -0.707102 -0.707106 -0.002631
vn -0.707102 -0.707106 -0.002631
vn -0.707106 0.707107 -0.001259
vn -0.707106 0.707107 -0.001259
vn 0.707104 -0.707107 0.002039
vn 0.707104 -0.707107 0.002039
vn 0.707107 0.707097 -0.003676
vn 0.707107 0.707097 -0.003676
vn -0.705492 0.002113 -0.708715
vn -0.705492 0.002113 -0.708715
vn -0.708711 0.004014 0.705488
vn -0.708711 0.004014 0.705488
vn 0.708713 0.003151 -0.705490
vn 0.708713 0.003151 -0.705490
vn 0.705486 -0.004752 0.708708
vn 0.705486 -0.004752 0.708708
vn 0.000390 -0.707106 -0.707107
vn 0.000390 -0.707106 -0.707107
vn -0.001756 -0.707107 0.707105
vn -0.001756 -0.707107 0.707105
vn 0.000951 0.707107 -0.707106
vn 0.000951 0.707107 -0.707106
vn -0.006473 0.707098 0.707086
vn -0.006473 0.707098 0.707086
vn -0.576033 -0.577350 -0.578665
vn -0.578665 -0.577350 0.576033
vn -0.576033 0.577350 -0.578665
vn -0.578665 0.577350 0.576033
vn 0.578665 -0.577350 -0.576033
vn 0.576033 -0.577350 0.578665
vn 0.578665 0.577350 -0.576033
vn 0.576033 0.577350 0.578665
vn -1.000000 -0.000000 -0.000352
vn -1.000000 -0.000000 -0.000352
vn 1.000000 -0.000000 0.000352
vn 1.000000 -0.000000 0.000352
vn 0.000000 -1.000000 0.000000
vn 0.000000 -1.000000 0.000000
vn -0.000000 1.000000 0.000000
vn 0.000000 1.000000 0.000000
vn 0.000352 0.000000 -1.000000
vn 0.000352 -0.000000 -1.000000
vn -0.000352 0.000000 1.000000
vn -0.000352 -0.000000 1.000000
vn -0.707104 -0.707103 0.002823
vn -0.707104 -0.707103 0.002823
vn -0.707107 0.707107 0.000537
vn -0.707107 0.707107 0.000537
vn 0.707099 -0.707098 -0.004838
vn 0.707099 -0.707098 -0.004838
vn 0.707097 0.707095 -0.005553
vn 0.707097 0.707095 -0.005553
vn -0.706849 0.005189 -0.707346
vn -0.706849 0.005189 -0.707346
vn -0.707354 0.002083 0.706857
vn -0.707354 0.002083 0.706857
vn 0.707355 0.000611 -0.706858
vn 0.707355 0.000611 -0.706858
vn 0.706858 -0.000362 0.707355
vn 0.706858 -0.000362 0.707355
vn 0.002817 -0.707104 -0.707104
vn 0.002817 -0.707104 -0.707104
vn -0.003665 -0.707103 0.707101
vn -0.003665 -0.707103 0.707101
vn 0.000349 0.707107 -0.707107
vn 0.000349 0.707107 -0.707107
vn -0.004980 0.707099 0.707097
vn -0.004980 0.707099 0.707097
vn -0.577147 -0.577350 -0.577553
vn -0.577553 -0.577350 0.577147
vn -0.577147 0.577350 -0.577553
vn -0.577553 0.577350 0.577147
vn 0.577553 -0.577350 -0.577147
vn 0.577147 -0.577350 0.577553
vn 0.577553 0.577350 -0.577147
vn 0.577147 0.577350 0.577553
vn -0.999999 -0.000000 0.001439
vn -0.999999 0.000000 0.001439
vn 0.999999 0.000000 -0.001439
vn 0.999999 0.000000 -0.001439
vn 0.000000 -1.000000 0.000000
vn 0.000000 -1.000000 0.000000
vn 0.000000 1.000000 0.000000
vn 0.000000 1.000000 0.000000
vn -0.001439 0.000000 -0.999999
vn -0.001439 -0.000000 -0.999999
vn 0.001439 0.000000 0.999999
vn 0.001439 -0.000000 0.999999
vn -0.707086 -0.707095 0.006742
vn -0.707086 -0.707095 0.006742
vn -0.707096 0.707102 0.004579
vn -0.707096 0.707102 0.004579
vn 0.707104 -0.707106 -0.002052
vn 0.707104 -0.707106 -0.002052
vn 0.707097 0.707103 -0.004329
vn 0.707097 0.707103 -0.004329
vn -0.708119 -0.003651 -0.706084
vn -0.708119 -0.003651 -0.706084
vn -0.706073 -0.006662 0.708108
vn -0.706073 -0.006662 0.708108
vn 0.706087 0.001743 -0.708123
vn 0.706087 0.001743 -0.708123
vn 0.708123 -0.001404 0.706088
vn 0.708123 -0.001404 0.706088
vn 0.000991 -0.707105 -0.707108
vn 0.000991 -0.707105 -0.707108
vn -0.001990 -0.707104 0.707107
vn -0.001990 -0.707104 0.707107
vn 0.003902 0.707098 -0.707105
vn 0.003902 0.707098 -0.707105
vn 0.000827 0.707107 0.707106
vn 0.000827 0.707107 0.707106
vn -0.578181 -0.577350 -0.576519
vn -0.576519 -0.577350 0.578181
vn -0.578181 0.577350 -0.576519
vn -0.576519 0.577350 0.578181
vn 0.576519 -0.577350 -0.578181
vn 0.578181 -0.577350 0.576519
vn 0.576519 0.577350 -0.578181
vn 0.578181 0.577350 0.576519
vn -1.000000 -0.000000 -0.000000
vn -1.000000 0.000000 -0.000000
vn 1.000000 0.000000 0.000000
vn 1.000000 0.000000 0.000000
vn 0.000000 -1.000000 0.000000
vn 0.000000 -1.000000 0.000000
vn -0.000000 1.000000 0.000000
vn 0.000000 1.000000 0.000000
vn 0.000000 0.000000 -1.000000
vn 0.000000 -0.000000 -1.000000
vn -0.000000 0.000000 1.000000
vn -0.000000 0.000000 1.000000
vn -0.707098 -0.707098 -0.005072
vn -0.707098 -0.707098 -0.005072
vn -0.707086 0.707086 0.007713
vn -0.707086 0.707086 0.007713
vn 0.707095 -0.707095 0.005825
vn 0.707095 -0.707095 0.005825
vn 0.707106 0.707106 -0.001574
vn 0.707106 0.707106 -0.001574
vn -0.707086 -0.007620 -0.707086
vn -0.707086 -0.007620 -0.707086
vn -0.707073 0.009730 0.707073
vn -0.707073 0.009730 0.707073
vn 0.707082 0.008344 -0.707082
vn 0.707082 0.008344 -0.707082
vn 0.707106 -0.001698 0.707106
vn 0.707106 -0.001698 0.707106
vn -0.003913 -0.707101 -0.707101
vn -0.003913 -0.707101 -0.707101
vn 0.004064 -0.707101 0.707101
vn 0.004064 -0.707101 0.707101
vn 0.004702 0.707099 -0.707099
vn 0.004702 0.707099 -0.707099
vn -0.002091 0.707105 0.707105
vn -0.002091 0.707105 0.707105
vn -0.577350 -0.577350 -0.577350
vn -0.577350 -0.577350 0.577350
vn -0.577350 0.577350 -0.577350
vn -0.577350 0.577350 0.577350
vn 0.577350 -0.577350 -0.577350
vn 0.577350 -0.577350 0.577350
vn 0.577350 0.577350 -0.577350
vn 0.577350 0.577350 0.577350
vn -0.999997 0.000000 0.002495
vn -0.999997 -0.000000 0.002495
vn 0.999997 0.000000 -0.002495
vn 0.999997 0.000000 -0.002495
vn 0.000000 -1.000000 0.000000
vn 0.000000 -1.000000 0.000000
vn 0.000000 1.000000 0.000000
vn 0.000000 1.000000 0.000000
vn -0.002495 -0.000000 -0.999997
vn -0.002495 0.000000 -0.999997
vn 0.002495 -0.000000 0.999997
vn 0.002495 -0.000000 0.999997
vn -0.707099 -0.707106 0.003431
vn -0.707099 -0.707106 0.003431
vn -0.707097 0.707105 0.004084
vn -0.707097 0.707105 0.004084
vn 0.707103 -0.707107 -0.002256
vn 0.707103 -0.707107 -0.002256
vn 0.707094 0.707071 0.008262
vn 0.707094 0.707071 0.008262
vn -0.708867 -0.002249 -0.705339
vn -0.708867 -0.002249 -0.705339
vn -0.705340 -0.001371 0.708868
vn -0.705340 -0.001371 0.708868
vn 0.705341 -0.000193 -0.708869
vn 0.705341 -0.000193 -0.708869
vn 0.708799 0.013963 0.705272
vn 0.708799 0.013963 0.705272
vn -0.007141 -0.707097 -0.707081
vn -0.007141 -0.707097 -0.707081
vn -0.005177 -0.707090 0.707105
vn -0.005177 -0.707090 0.707105
vn -0.006038 0.707100 -0.707087
vn -0.006038 0.707100 -0.707087
vn 0.003083 0.707106 0.707101
vn 0.003083 0.707106 0.707101
vn -0.578789 -0.577350 -0.575908
vn -0.575908 -0.577350 0.578789
vn -0.578789 0.577350 -0.575908
vn -0.575908 0.577350 0.578789
vn 0.575908 -0.577350 -0.578789
vn 0.578789 -0.577350 0.575908
vn 0.575908 0.577350 -0.578789
vn 0.578789 0.577350 0.575908
vn -1.000000 0.000000 -0.000516
vn -1.000000 -0.000000 -0.000516
vn 1.000000 -0.000000 0.000516
vn 1.000000 -0.000000 0.000516
vn 0.000000 -1.000000 0.000000
vn 0.000000 -1.000000 0.000000
vn -0.000000 1.000000 0.000000
vn 0.000000 1.000000 0.000000
vn 0.000516 -0.000000 -1.000000
vn 0.000516 0.000000 -1.000000
vn -0.000516 -0.000000 1.000000
vn -0.000516 0.000000 1.000000
vn -0.707103 -0.707104 -0.002998
vn -0.707103 -0.707104 -0.002998
vn -0.707098 0.707095 0.005306
vn -0.707098 0.707095 0.005306
vn 0.707100 -0.707102 0.004000
vn 0.707100 -0.707102 0.004000
vn 0.707104 0.707102 -0.003427
vn 0.707104 0.707102 -0.003427
vn -0.706742 -0.000002 -0.707472
vn -0.706742 -0.000002 -0.707472
vn -0.707428 0.011138 0.706698
vn -0.707428 0.011138 0.706698
vn 0.707457 0.006465 -0.706727
vn 0.707457 0.006465 -0.706727
vn 0.706738 -0.003485 0.707467
vn 0.706738 -0.003485 0.707467
vn -0.001443 -0.707106 -0.707106
vn -0.001443 -0.707106 -0.707106
vn 0.002373 -0.707104 0.707105
vn 0.002373 -0.707104 0.707105
vn 0.002056 0.707106 -0.707105
vn 0.002056 0.707106 -0.707105
vn -0.005523 0.707097 0.707095
vn -0.005523 0.707097 0.707095
vn -0.577052 -0.577350 -0.577648
vn -0.577648 -0.577350 0.577052
vn -0.577052 0.577350 -0.577648
vn -0.577648 0.577350 0.577052
vn 0.577648 -0.577350 -0.577052
vn 0.577052 -0.577350 0.577648
vn 0.577648 0.577350 -0.577052
vn 0.577052 0.577350 0.577648
vn -1.000000 -0.000000 -0.000627
vn -1.000000 0.000000 -0.000627
vn 1.000000 -0.000000 0.000627
vn 1.000000 0.000000 0.000627
vn 0.000000 -1.000000 0.000000
vn 0.000000 -1.000000 0.000000
vn 0.000000 1.000000 0.000000
vn 0.000000 1.000000 0.000000
vn 0.000627 -0.000000 -1.000000
vn 0.000627 -0.000000 -1.000000
vn -0.000627 -0.000000 1.000000
vn -0.000627 0.000000 1.000000
vn -0.707101 -0.707098 0.004648
vn -0.707101 -0.707098 0.004648
vn -0.707087 0.707091 -0.007121
vn -0.707087 0.707091 -0.007121
vn 0.707088 -0.707092 0.006906
vn 0.707088 -0.707092 0.006906
vn 0.707100 0.707097 -0.004831
vn 0.707100 0.707097 -0.004831
vn -0.706648 0.006462 -0.707535
vn -0.706648 0.006462 -0.707535
vn -0.707517 -0.009648 0.706630
vn -0.707517 -0.009648 0.706630
vn 0.707511 0.010521 -0.706624
vn 0.707511 0.010521 -0.706624
vn 0.706652 -0.005574 0.707539
vn 0.706652 -0.005574 0.707539
vn 0.000113 -0.707107 -0.707107
vn 0.000113 -0.707107 -0.707107
vn 0.000237 -0.707107 0.707107
vn 0.000237 -0.707107 0.707107
vn 0.002290 0.707106 -0.707104
vn 0.002290 0.707106 -0.707104
vn 0.002448 0.707104 0.707105
vn 0.002448 0.707104 0.707105
vn -0.576988 -0.577350 -0.577712
vn -0.577712 -0.577350 0.576988
vn -0.576988 0.577350 -0.577712
vn -0.577712 0.577350 0.576988
vn 0.577712 -0.577350 -0.576988
vn 0.576988 -0.577350 0.577712
vn 0.577712 0.577350 -0.576988
vn 0.576988 0.577350 0.577712
vn -0.987791 0.139543 0.069259
vn -0.987791 0.139543 0.069259
vn 0.987791 -0.139543 -0.069259
vn 0.987791 -0.139543 -0.069259
vn -0.139201 -0.990216 0.009760
vn -0.139201 -0.990216 0.009760
vn 0.139201 0.990216 -0.009760
vn 0.139201 0.990216 -0.009760
vn -0.069943 0.000000 -0.997551
vn -0.069943 0.000000 -0.997551
vn 0.069943 0.000000 0.997551
vn 0.069943 0.000000 0.997551
vn -0.797384 -0.601501 0.048732
vn -0.797384 -0.601501 0.048732
vn -0.601781 0.798541 0.013850
vn -0.601781 0.798541 0.013850
vn 0.598367 -0.798669 -0.063914
vn 0.598367 -0.798669 -0.063914
vn 0.794501 0.601256 -0.085203
vn 0.794501 0.601256 -0.085203
vn -0.731709 0.190499 -0.654456
vn -0.731709 0.190499 -0.654456
vn -0.643098 0.137191 0.753395
vn -0.643098 0.137191 0.753395
vn 0.637638 -0.167969 -0.751800
vn 0.637638 -0.167969 -0.751800
vn 0.734317 -0.177969 0.655061
vn 0.734317 -0.177969 0.655061
vn -0.111526 -0.704839 -0.700545
vn -0.111526 -0.704839 -0.700545
vn -0.027233 -0.703089 0.710581
vn -0.027233 -0.703089 0.710581
vn 0.019765 0.704006 -0.709919
vn 0.019765 0.704006 -0.709919
vn 0.117494 0.704142 0.700271
vn 0.117494 0.704142 0.700271
vn -0.691051 -0.491136 -0.530315
vn -0.610288 -0.491136 0.621558
vn -0.530315 0.652267 -0.541585
vn -0.449552 0.652267 0.610288
vn 0.449552 -0.652267 -0.610288
vn 0.530315 -0.652267 0.541585
vn 0.610288 0.491136 -0.621558
vn 0.691051 0.491136 0.530315
vn -0.994113 -0.000000 0.108349
vn -0.994113 0.000000 0.108349
vn 0.994113 -0.000000 -0.108349
vn 0.994113 0.000000 -0.108349
vn 0.000000 -1.000000 0.000000
vn 0.000000 -1.000000 0.000000
vn 0.000000 1.000000 0.000000
vn 0.000000 1.000000 0.000000
vn -0.108349 -0.000000 -0.994113
vn -0.108349 -0.000000 -0.994113
vn 0.108349 -0.000000 0.994113
vn 0.108349 -0.000000 0.994113
vn -0.696894 -0.706282 0.124517
vn -0.696894 -0.706282 0.124517
vn -0.707331 0.706293 0.028859
vn -0.707331 0.706293 0.028859
vn 0.700021 -0.706887 -0.101397
vn 0.700021 -0.706887 -0.101397
vn 0.701471 0.707047 -0.089578
vn 0.701471 0.707047 -0.089578
vn -0.776894 0.082613 -0.624188
vn -0.776894 0.082613 -0.624188
vn -0.623412 -0.096413 0.775927
vn -0.623412 -0.096413 0.775927
vn 0.624253 -0.081363 -0.776974
vn 0.624253 -0.081363 -0.776974
vn 0.778387 -0.054796 0.625388
vn 0.778387 -0.054796 0.625388
vn -0.029450 -0.706313 -0.707286
vn -0.029450 -0.706313 -0.707286
vn 0.074641 -0.707105 0.703158
vn 0.074641 -0.707105 0.703158
vn -0.086480 0.707072 -0.701834
vn -0.086480 0.707072 -0.701834
vn 0.090560 0.707037 0.701354
vn 0.090560 0.707037 0.701354
vn -0.636507 -0.577350 -0.511396
vn -0.511396 -0.577350 0.636507
vn -0.636507 0.577350 -0.511396
vn -0.511396 0.577350 0.636507
vn 0.511396 -0.577350 -0.636507
vn 0.636507 -0.577350 0.511396
vn 0.511396 0.577350 -0.636507
vn 0.636507 0.577350 0.511396
vn -0.943166 -0.000000 -0.332321
vn -0.943166 0.000000 -0.332321
vn 0.943166 -0.000000 0.332321
vn 0.943166 -0.000000 0.332321
vn 0.000000 -1.000000 0.000000
vn 0.000000 -1.000000 0.000000
vn -0.000000 1.000000 0.000000
vn 0.000000 1.000000 0.000000
vn 0.332321 -0.000000 -0.943166
vn 0.332321 0.000000 -0.943166
vn -0.332321 0.000000 0.943166
vn -0.332321 0.000000 0.943166
vn -0.674625 -0.706907 -0.212517
vn -0.674625 -0.706907 -0.212517
vn -0.669198 0.707090 -0.228467
vn -0.669198 0.707090 -0.228467
vn 0.686971 -0.705634 0.173645
vn 0.686971 -0.705634 0.173645
vn 0.682954 0.706192 0.186726
vn 0.682954 0.706192 0.186726
vn -0.430794 -0.072557 -0.899529
vn -0.430794 -0.072557 -0.899529
vn -0.896604 -0.108275 0.429393
vn -0.896604 -0.108275 0.429393
vn 0.901799 -0.015431 -0.431881
vn 0.901799 -0.015431 -0.431881
vn 0.431901 0.012154 0.901839
vn 0.431901 0.012154 0.901839
vn 0.250848 -0.707006 -0.661224
vn 0.250848 -0.707006 -0.661224
vn -0.274523 -0.706479 0.652323
vn -0.274523 -0.706479 0.652323
vn 0.270684 0.706595 -0.653799
vn 0.270684 0.706595 -0.653799
vn -0.235774 0.707107 0.666642
vn -0.235774 0.707107 0.666642
vn -0.352671 -0.577350 -0.736403
vn -0.736403 -0.577350 0.352671
vn -0.352671 0.577350 -0.736403
vn -0.736403 0.577350 0.352671
vn 0.736403 -0.577350 -0.352671
vn 0.352671 -0.577350 0.736403
vn 0.736403 0.577350 -0.352671
vn 0.352671 0.577350 0.736403
vn -0.887210 -0.000000 -0.461365
vn -0.887210 -0.000000 -0.461365
vn 0.887210 0.000000 0.461365
vn 0.887210 0.000000 0.461365
vn 0.000000 -1.000000 0.000000
vn 0.000000 -1.000000 0.000000
vn -0.000000 1.000000 0.000000
vn 0.000000 1.000000 0.000000
vn 0.461365 -0.000000 -0.887210
vn 0.461365 0.000000 -0.887210
vn -0.461365 -0.000000 0.887210
vn -0.461365 0.000000 0.887210
vn -0.632492 -0.707062 -0.316255
vn -0.632492 -0.707062 -0.316255
vn -0.597348 0.705729 -0.380948
vn -0.597348 0.705729 -0.380948
vn 0.627508 -0.707107 0.325935
vn 0.627508 -0.707107 0.325935
vn 0.616760 0.706926 0.346213
vn 0.616760 0.706926 0.346213
vn -0.300646 0.055957 -0.952093
vn -0.300646 0.055957 -0.952093
vn -0.950412 -0.081537 0.300116
vn -0.950412 -0.081537 0.300116
vn 0.953532 0.010711 -0.301101
vn 0.953532 0.010711 -0.301101
vn 0.300633 0.056766 0.952049
vn 0.300633 0.056766 0.952049
vn 0.332677 -0.707088 -0.623981
vn 0.332677 -0.707088 -0.623981
vn -0.326744 -0.707107 0.627087
vn -0.326744 -0.707107 0.627087
vn 0.318732 0.707082 -0.631226
vn 0.318732 0.707082 -0.631226
vn -0.282100 0.706247 0.649334
vn -0.282100 0.706247 0.649334
vn -0.245862 -0.577350 -0.778600
vn -0.778600 -0.577350 0.245862
vn -0.245862 0.577350 -0.778600
vn -0.778600 0.577350 0.245862
vn 0.778600 -0.577350 -0.245862
vn 0.245862 -0.577350 0.778600
vn 0.778600 0.577350 -0.245862
vn 0.245862 0.577350 0.778600
vn -0.782347 -0.000000 -0.622843
vn -0.782347 -0.000000 -0.622843
vn 0.782347 0.000000 0.622843
vn 0.782347 0.000000 0.622843
vn 0.000000 -1.000000 0.000000
vn 0.000000 -1.000000 0.000000
vn 0.000000 1.000000 0.000000
vn -0.000000 1.000000 0.000000
vn 0.622843 0.000000 -0.782347
vn 0.622843 -0.000000 -0.782347
vn -0.622843 -0.000000 0.782347
vn -0.622843 -0.000000 0.782347
vn -0.552805 -0.707107 -0.440916
vn -0.552805 -0.707107 -0.440916
vn -0.558942 0.707077 -0.433159
vn -0.558942 0.707077 -0.433159
vn 0.548308 -0.707085 0.446530
vn 0.548308 -0.707085 0.446530
vn 0.592754 0.705593 0.388306
vn 0.592754 0.705593 0.388306
vn -0.112772 0.016084 -0.993491
vn -0.112772 0.016084 -0.993491
vn -0.992975 0.036013 0.112714
vn -0.992975 0.036013 0.112714
vn 0.992068 0.055855 -0.112611
vn 0.992068 0.055855 -0.112611
vn 0.112409 -0.081781 0.990291
vn 0.112409 -0.081781 0.990291
vn 0.434053 -0.707084 -0.558239
vn 0.434053 -0.707084 -0.558239
vn -0.442279 -0.707105 0.551717
vn -0.442279 -0.707105 0.551717
vn 0.444749 0.707096 -0.549740
vn 0.444749 0.707096 -0.549740
vn -0.475419 0.706380 0.524408
vn -0.475419 0.706380 0.524408
vn -0.092090 -0.577350 -0.811287
vn -0.811287 -0.577350 0.092090
vn -0.092090 0.577350 -0.811287
vn -0.811287 0.577350 0.092090
vn 0.811287 -0.577350 -0.092090
vn 0.092090 -0.577350 0.811287
vn 0.811287 0.577350 -0.092090
vn 0.092090 0.577350 0.811287
vn -0.999983 0.000000 0.005768
vn -0.999983 0.000000 0.005768
vn 0.999983 -0.000000 -0.005768
vn 0.999983 0.000000 -0.005768
vn 0.000000 -1.000000 0.000000
vn 0.000000 -1.000000 0.000000
vn -0.000000 1.000000 0.000000
vn 0.000000 1.000000 0.000000
vn -0.005768 -0.000000 -0.999983
vn -0.005768 -0.000000 -0.999983
vn 0.005768 0.000000 0.999983
vn 0.005768 -0.000000 0.999983
vn -0.706628 -0.706807 0.033171
vn -0.706628 -0.706807 0.033171
vn -0.707116 0.707066 -0.006702
vn -0.707116 0.707066 -0.006702
vn 0.706697 -0.706861 -0.030464
vn 0.706697 -0.706861 -0.030464
vn 0.707088 0.706998 0.013429
vn 0.707088 0.706998 0.013429
vn -0.704502 0.136654 -0.696421
vn -0.704502 0.136654 -0.696421
vn -0.701548 0.064600 0.709688
vn -0.701548 0.064600 0.709688
vn 0.702810 -0.024217 -0.710965
vn 0.702810 -0.024217 -0.710965
vn 0.710071 0.055661 0.701927
vn 0.710071 0.055661 0.701927
vn 0.016265 -0.706960 -0.707066
vn 0.016265 -0.706960 -0.707066
vn -0.013969 -0.706992 0.707084
vn -0.013969 -0.706992 0.707084
vn -0.042423 0.706587 -0.706354
vn -0.042423 0.706587 -0.706354
vn -0.015210 0.706975 0.707075
vn -0.015210 0.706975 0.707075
vn -0.580671 -0.577350 -0.574010
vn -0.574010 -0.577350 0.580671
vn -0.580671 0.577350 -0.574010
vn -0.574010 0.577350 0.580671
vn 0.574010 -0.577350 -0.580671
vn 0.580671 -0.577350 0.574010
vn 0.574010 0.577350 -0.580671
vn 0.580671 0.577350 0.574010
vn -0.985032 0.000000 -0.172371
vn -0.985032 -0.000000 -0.172371
vn 0.985032 0.000000 0.172371
vn 0.985032 -0.000000 0.172371
vn 0.000000 -1.000000 0.000000
vn 0.000000 -1.000000 0.000000
vn -0.000000 1.000000 0.000000
vn 0.000000 1.000000 0.000000
vn 0.172371 0.000000 -0.985032
vn 0.172371 0.000000 -0.985032
vn -0.172371 0.000000 0.985032
vn -0.172371 -0.000000 0.985032
vn -0.700915 -0.706850 -0.095295
vn -0.700915 -0.706850 -0.095295
vn -0.703827 0.706332 -0.075649
vn -0.703827 0.706332 -0.075649
vn 0.701272 -0.706803 0.092985
vn 0.701272 -0.706803 0.092985
vn 0.680129 0.704747 0.201879
vn 0.680129 0.704747 0.201879
vn -0.572197 -0.092085 -0.814930
vn -0.572197 -0.092085 -0.814930
vn -0.816876 -0.061149 0.573563
vn -0.816876 -0.061149 0.573563
vn 0.815094 -0.089896 -0.572312
vn 0.815094 -0.089896 -0.572312
vn 0.570426 0.120863 0.812408
vn 0.570426 0.120863 0.812408
vn 0.116690 -0.707097 -0.697422
vn 0.116690 -0.707097 -0.697422
vn -0.164015 -0.706456 0.688490
vn -0.164015 -0.706456 0.688490
vn 0.116649 0.707097 -0.697429
vn 0.116649 0.707097 -0.697429
vn -0.103847 0.706988 0.699559
vn -0.103847 0.706988 0.699559
vn -0.469190 -0.577350 -0.668227
vn -0.668227 -0.577350 0.469190
vn -0.469190 0.577350 -0.668227
vn -0.668227 0.577350 0.469190
vn 0.668227 -0.577350 -0.469190
vn 0.469190 -0.577350 0.668227
vn 0.668227 0.577350 -0.469190
vn 0.469190 0.577350 0.668227
g stone_000
usemtl stone_4
s off
f 4//1 10//1 7//1
f 4//2 7//2 1//2
f 13//3 19//3 22//3
f 13//4 22//4 16//4
f 2//5 14//5 17//5
f 2//6 17//6 5//6
f 11//7 23//7 20//7
f 11//8 20//8 8//8
f 9//9 21//9 15//9
f 9//10 15//10 3//10
f 6//11 18//11 24//11
f 6//12 24//12 12//12
f 1//13 2//13 5//13
f 1//14 5//14 4//14
f 10//15 11//15 8//15
f 10//16 8//16 7//16
f 16//17 17//17 14//17
f 16//18 14//18 13//18
f 19//19 20//19 23//19
f 19//20 23//20 22//20
f 7//21 9//21 3//21
f 7//22 3//22 1//22
f 4//23 6//23 12//23
f 4//24 12//24 10//24
f 13//25 15//25 21//25
f 13//26 21//26 19//26
f 22//27 24//27 18//27
f 22//28 18//28 16//28
f 2//29 3//29 15//29
f 2//30 15//30 14//30
f 17//31 18//31 6//31
f 17//32 6//32 5//32
f 20//33 21//33 9//33
f 20//34 9//34 8//34
f 11//35 12//35 24//35
f 11//36 24//36 23//36
f 3//37 2//37 1//37
f 4//38 5//38 6//38
f 7//39 8//39 9//39
f 12//40 11//40 10//40
f 13//41 14//41 15//41
f 18//42 17//42 16//42
f 21//43 20//43 19//43
f 22//44 23//44 24//44
g stone_001
usemtl stone_2
s off
f 28//45 34//45 31//45
f 28//46 31//46 25//46
f 37//47 43//47 46//47
f 37//48 46//48 40//48
f 26//49 38//49 41//49
f 26//50 41//50 29//50
f 35//51 47//51 44//51
f 35//52 44//52 32//52
f 33//53 45//53 39//53
f 33//54 39//54 27//54
f 30//55 42//55 48//55
f 30//56 48//56 36//56
f 25//57 26//57 29//57
f 25//58 29//58 28//58
f 34//59 35//59 32//59
f 34//60 32//60 31//60
f 40//61 41//61 38//61
f 40//62 38//62 37//62
f 43//63 44//63 47//63
f 43//64 47//64 46//64
f 31//65 33//65 27//65
f 31//66 27//66 25//66
f 28//67 30//67 36//67
f 28//68 36//68 34//68
f 37//69 39//69 45//69
f 37//70 45//70 43//70
f 46//71 48//71 42//71
f 46//72 42//72 40//72
f 26//73 27//73 39//73
f 26//74 39//74 38//74
f 41//75 42//75 30//75
f 41//76 30//76 29//76
f 44//77 45//77 33//77
f 44//78 33//78 32//78
f 35//79 36//79 48//79
f 35//80 48//80 47//80
f 27//81 26//81 25//81
f 28//82 29//82 30//82
f 31//83 32//83 33//83
f 36//84 35//84 34//84
f 37//85 38//85 39//85
f 42//86 41//86 40//86
f 45//87 44//87 43//87
f 46//88 47//88 48//88
g stone_002
usemtl stone_3
s off
f 52//89 58//89 55//89
f 52//90 55//90 49//90
f 61//91 67//91 70//91
f 61//92 70//92 64//92
f 50//93 62//93 65//93
f 50//94 65//94 53//94
f 59//95 71//95 68//95
f 59//96 68//96 56//96
f 57//97 69//97 63//97
f 57//98 63//98 51//98
f 54//99 66//99 72//99
f 54//100 72//100 60//100
f 49//101 50//101 53//101
f 49//102 53//102 52//102
f 58//103 59//103 56//103
f 58//104 56//104 55//104
f 64//105 65//105 62//105
f 64//106 62//106 61//106
f 67//107 68//107 71//107
f 67//108 71//108 70//108
f 55//109 57//109 51//109
f 55//110 51//110 49//110
f 52//111 54//111 60//111
f 52//112 60//112 58//112
f 61//113 63//113 69//113
f 61//114 69//114 67//114
f 70//115 72//115 66//115
f 70//116 66//116 64//116
f 50//117 51//117 63//117
f 50//118 63//118 62//118
f 65//119 66//119 54//119
f 65//120 54//120 53//120
f 68//121 69//121 57//121
f 68//122 57//122 56//122
f 59//123 60//123 72//123
f 59//124 72//124 71//124
f 51//125 50//125 49//125
f 52//126 53//126 54//126
f 55//127 56//127 57//127
f 60//128 59//128 58//128
f 61//129 62//129 63//129
f 66//130 65//130 64//130
f 69//131 68//131 67//131
f 70//132 71//132 72//132
g stone_003
usemtl stone_3
s off
f 76//133 82//133 79//133
f 76//134 79//134 73//134
f 85//135 91//135 94//135
f 85//136 94//136 88//136
f 74//137 86//137 89//137
f 74//138 89//138 77//138
f 83//139 95//139 92//139
f 83//140 92//140 80//140
f 81//141 93//141 87//141
f 81//142 87//142 75//142
f 78//143 90//143 96//143
f 78//144 96//144 84//144
f 73//145 74//145 77//145
f 73//146 77//146 76//146
f 82//147 83//147 80//147
f 82//148 80//148 79//148
f 88//149 89//149 86//149
f 88//150 86//150 85//150
f 91//151 92//151 95//151
f 91//152 95//152 94//152
f 79//153 81//153 75//153
f 79//154 75//154 73//154
f 76//155 78//155 84//155
f 76//156 84//156 82//156
f 85//157 87//157 93//157
f 85//158 93//158 91//158
f 94//159 96//159 90//159
f 94//160 90//160 88//160
f 74//161 75//161 87//161
f 74//162 87//162 86//162
f 89//163 90//163 78//163
f 89//164 78//164 77//164
f 92//165 93//165 81//165
f 92//166 81//166 80//166
f 83//167 84//167 96//167
f 83//168 96//168 95//168
f 75//169 74//169 73//169
f 76//170 77//170 78//170
f 79//171 80//171 81//171
f 84//172 83//172 82//172
f 85//173 86//173 87//173
f 90//174 89//174 88//174
f 93//175 92//175 91//175
f 94//176 95//176 96//176
g stone_004
usemtl stone_2
s off
f 100//177 106//177 103//177
f 100//178 103//178 97//178
f 109//179 115//179 118//179
f 109//180 118//180 112//180
f 98//181 110//181 113//181
f 98//182 113//182 101//182
f 107//183 119//183 116//183
f 107//184 116//184 104//184
f 105//185 117//185 111//185
f 105//186 111//186 99//186
f 102//187 114//187 120//187
f 102//188 120//188 108//188
f 97//189 98//189 101//189
f 97//190 101//190 100//190
f 106//191 107//191 104//191
f 106//192 104//192 103//192
f 112//193 113//193 110//193
f 112//194 110//194 109//194
f 115//195 116//195 119//195
f 115//196 119//196 118//196
f 103//197 105//197 99//197
f 103//198 99//198 97//198
f 100//199 102//199 108//199
f 100//200 108//200 106//200
f 109//201 111//201 117//201
f 109//202 117//202 115//202
f 118//203 120//203 114//203
f 118//204 114//204 112//204
f 98//205 99//205 111//205
f 98//206 111//206 110//206
f 113//207 114//207 102//207
f 113//208 102//208 101//208
f 116//209 117//209 105//209
f 116//210 105//210 104//210
f 107//211 108//211 120//211
f 107//212 120//212 119//212
f 99//213 98//213 97//213
f 100//214 101//214 102//214
f 103//215 104//215 105//215
f 108//216 107//216 106//216
f 109//217 110//217 111//217
f 114//218 113//218 112//218
f 117//219 116//219 115//219
f 118//220 119//220 120//220
g stone_005
usemtl stone_1
s off
f 124//221 130//221 127//221
f 124//222 127//222 121//222
f 133//223 139//223 142//223
f 133//224 142//224 136//224
f 122//225 134//225 137//225
f 122//226 137//226 125//226
f 131//227 143//227 140//227
f 131//228 140//228 128//228
f 129//229 141//229 135//229
f 129//230 135//230 123//230
f 126//231 138//231 144//231
f 126//232 144//232 132//232
f 121//233 122//233 125//233
f 121//234 125//234 124//234
f 130//235 131//235 128//235
f 130//236 128//236 127//236
f 136//237 137//237 134//237
f 136//238 134//238 133//238
f 139//239 140//239 143//239
f 139//240 143//240 142//240
f 127//241 129//241 123//241
f 127//242 123//242 121//242
f 124//243 126//243 132//243
f 124//244 132//244 130//244
f 133//245 135//245 141//245
f 133//246 141//246 139//246
f 142//247 144//247 138//247
f 142//248 138//248 136//248
f 122//249 123//249 135//249
f 122//250 135//250 134//250
f 137//251 138//251 126//251
f 137//252 126//252 125//252
f 140//253 141//253 129//253
f 140//254 129//254 128//254
f 131//255 132//255 144//255
f 131//256 144//256 143//256
f 123//257 122//257 121//257
f 124//258 125//258 126//258
f 127//259 128//259 129//259
f 132//260 131//260 130//260
f 133//261 134//261 135//261
f 138//262 137//262 136//262
f 141//263 140//263 139//263
f 142//264 143//264 144//264
g stone_006
usemtl stone_3
s off
f 148//265 154//265 151//265
f 148//266 151//266 145//266
f 157//267 163//267 166//267
f 157//268 166//268 160//268
f 146//269 158//269 161//269
f 146//270 161//270 149//270
f 155//271 167//271 164//271
f 155//272 164//272 152//272
f 153//273 165//273 159//273
f 153//274 159//274 147//274
f 150//275 162//275 168//275
f 150//276 168//276 156//276
f 145//277 146//277 149//277
f 145//278 149//278 148//278
f 154//279 155//279 152//279
f 154//280 152//280 151//280
f 160//281 161//281 158//281
f 160//282 158//282 157//282
f 163//283 164//283 167//283
f 163//284 167//284 166//284
f 151//285 153//285 147//285
f 151//286 147//286 145//286
f 148//287 150//287 156//287
f 148//288 156//288 154//288
f 157//289 159//289 165//289
f 157//290 165//290 163//290
f 166//291 168//291 162//291
f 166//292 162//292 160//292
f 146//293 147//293 159//293
f 146//294 159//294 158//294
f 161//295 162//295 150//295
f 161//296 150//296 149//296
f 164//297 165//297 153//297
f 164//298 153//298 152//298
f 155//299 156//299 168//299
f 155//300 168//300 167//300
f 147//301 146//301 145//301
f 148//302 149//302 150//302
f 151//303 152//303 153//303
f 156//304 155//304 154//304
f 157//305 158//305 159//305
f 162//306 161//306 160//306
f 165//307 164//307 163//307
f 166//308 167//308 168//308
g stone_007
usemtl stone_3
s off
f 172//309 178//309 175//309
f 172//310 175//310 169//310
f 181//311 187//311 190//311
f 181//312 190//312 184//312
f 170//313 182//313 185//313
f 170//314 185//314 173//314
f 179//315 191//315 188//315
f 179//316 188//316 176//316
f 177//317 189//317 183//317
f 177//318 183//318 171//318
f 174//319 186//319 192//319
f 174//320 192//320 180//320
f 169//321 170//321 173//321
f 169//322 173//322 172//322
f 178//323 179//323 176//323
f 178//324 176//324 175//324
f 184//325 185//325 182//325
f 184//326 182//326 181//326
f 187//327 188//327 191//327
f 187//328 191//328 190//328
f 175//329 177//329 171//329
f 175//330 171//330 169//330
f 172//331 174//331 180//331
f 172//332 180//332 178//332
f 181//333 183//333 189//333
f 181//334 189//334 187//334
f 190//335 192//335 186//335
f 190//336 186//336 184//336
f 170//337 171//337 183//337
f 170//338 183//338 182//338
f 185//339 186//339 174//339
f 185//340 174//340 173//340
f 188//341 189//341 177//341
f 188//342 177//342 176//342
f 179//343 180//343 192//343
f 179//344 192//344 191//344
f 171//345 170//345 169//345
f 172//346 173//346 174//346
f 175//347 176//347 177//347
f 180//348 179//348 178//348
f 181//349 182//349 183//349
f 186//350 185//350 184//350
f 189//351 188//351 187//351
f 190//352 191//352 192//352
g stone_008
usemtl stone_3
s off
f 196//353 202//353 199//353
f 196//354 199//354 193//354
f 205//355 211//355 214//355
f 205//356 214//356 208//356
f 194//357 206//357 209//357
f 194//358 209//358 197//358
f 203//359 215//359 212//359
f 203//360 212//360 200//360
f 201//361 213//361 207//361
f 201//362 207//362 195//362
f 198//363 210//363 216//363
f 198//364 216//364 204//364
f 193//365 194//365 197//365
f 193//366 197//366 196//366
f 202//367 203//367 200//367
f 202//368 200//368 199//368
f 208//369 209//369 206//369
f 208//370 206//370 205//370
f 211//371 212//371 215//371
f 211//372 215//372 214//372
f 199//373 201//373 195//373
f 199//374 195//374 193//374
f 196//375 198//375 204//375
f 196//376 204//376 202//376
f 205//377 207//377 213//377
f 205//378 213//378 211//378
f 214//379 216//379 210//379
f 214//380 210//380 208//380
f 194//381 195//381 207//381
f 194//382 207//382 206//382
f 209//383 210//383 198//383
f 209//384 198//384 197//384
f 212//385 213//385 201//385
f 212//386 201//386 200//386
f 203//387 204//387 216//387
f 203//388 216//388 215//388
f 195//389 194//389 193//389
f 196//390 197//390 198//390
f 199//391 200//391 201//391
f 204//392 203//392 202//392
f 205//393 206//393 207//393
f 210//394 209//394 208//394
f 213//395 212//395 211//395
f 214//396 215//396 216//396
g stone_009
usemtl stone_0
s off
f 220//397 226//397 223//397
f 220//398 223//398 217//398
f 229//399 235//399 238//399
f 229//400 238//400 232//400
f 218//401 230//401 233//401
f 218//402 233//402 221//402
f 227//403 239//403 236//403
f 227//404 236//404 224//404
f 225//405 237//405 231//405
f 225//406 231//406 219//406
f 222//407 234//407 240//407
f 222//408 240//408 228//408
f 217//409 218//409 221//409
f 217//410 221//410 220//410
f 226//411 227//411 224//411
f 226//412 224//412 223//412
f 232//413 233//413 230//413
f 232//414 230//414 229//414
f 235//415 236//415 239//415
f 235//416 239//416 238//416
f 223//417 225//417 219//417
f 223//418 219//418 217//418
f 220//419 222//419 228//419
f 220//420 228//420 226//420
f 229//421 231//421 237//421
f 229//422 237//422 235//422
f 238//423 240//423 234//423
f 238//424 234//424 232//424
f 218//425 219//425 231//425
f 218//426 231//426 230//426
f 233//427 234//427 222//427
f 233//428 222//428 221//428
f 236//429 237//429 225//429
f 236//430 225//430 224//430
f 227//431 228//431 240//431
f 227//432 240//432 239//432
f 219//433 218//433 217//433
f 220//434 221//434 222//434
f 223//435 224//435 225//435
f 228//436 227//436 226//436
f 229//437 230//437 231//437
f 234//438 233//438 232//438
f 237//439 236//439 235//439
f 238//440 239//440 240//440
g stone_010
usemtl stone_3
s off
f 244//441 250//441 247//441
f 244//442 247//442 241//442
f 253//443 259//443 262//443
f 253//444 262//444 256//444
f 242//445 254//445 257//445
f 242//446 257//446 245//446
f 251//447 263//447 260//447
f 251//448 260//448 248//448
f 249//449 261//449 255//449
f 249//450 255//450 243//450
f 246//451 258//451 264//451
f 246//452 264//452 252//452
f 241//453 242//453 245//453
f 241//454 245//454 244//454
f 250//455 251//455 248//455
f 250//456 248//456 247//456
f 256//457 257//457 254//457
f 256//458 254//458 253//458
f 259//459 260//459 263//459
f 259//460 263//460 262//460
f 247//461 249//461 243//461
f 247//462 243//462 241//462
f 244//463 246//463 252//463
f 244//464 252//464 250//464
f 253//465 255//465 261//465
f 253//466 261//466 259//466
f 262//467 264//467 258//467
f 262//468 258//468 256//468
f 242//469 243//469 255//469
f 242//470 255//470 254//470
f 257//471 258//471 246//471
f 257//472 246//472 245//472
f 260//473 261//473 249//473
f 260//474 249//474 248//474
f 251//475 252//475 264//475
f 251//476 264//476 263//476
f 243//477 242//477 241//477
f 244//478 245//478 246//478
f 247//479 248//479 249//479
f 252//480 251//480 250//480
f 253//481 254//481 255//481
f 258//482 257//482 256//482
f 261//483 260//483 259//483
f 262//484 263//484 264//484
g stone_011
usemtl stone_2
s off
f 268//485 274//485 271//485
f 268//486 271//486 265//486
f 277//487 283//487 286//487
f 277//488 286//488 280//488
f 266//489 278//489 281//489
f 266//490 281//490 269//490
f 275//491 287//491 284//491
f 275//492 284//492 272//492
f 273//493 285//493 279//493
f 273//494 279//494 267//494
f 270//495 282//495 288//495
f 270//496 288//496 276//496
f 265//497 266//497 269//497
f 265//498 269//498 268//498
f 274//499 275//499 272//499
f 274//500 272//500 271//500
f 280//501 281//501 278//501
f 280//502 278//502 277//502
f 283//503 284//503 287//503
f 283//504 287//504 286//504
f 271//505 273//505 267//505
f 271//506 267//506 265//506
f 268//507 270//507 276//507
f 268//508 276//508 274//508
f 277//509 279//509 285//509
f 277//510 285//510 283//510
f 286//511 288//511 282//511
f 286//512 282//512 280//512
f 266//513 267//513 279//513
f 266//514 279//514 278//514
f 281//515 282//515 270//515
f 281//516 270//516 269//516
f 284//517 285//517 273//517
f 284//518 273//518 272//518
f 275//519 276//519 288//519
f 275//520 288//520 287//520
f 267//521 266//521 265//521
f 268//522 269//522 270//522
f 271//523 272//523 273//523
f 276//524 275//524 274//524
f 277//525 278//525 279//525
f 282//526 281//526 280//526
f 285//527 284//527 283//527
f 286//528 287//528 288//528
g stone_012
usemtl stone_3
s off
f 292//529 298//529 295//529
f 292//530 295//530 289//530
f 301//531 307//531 310//531
f 301//532 310//532 304//532
f 290//533 302//533 305//533
f 290//534 305//534 293//534
f 299//535 311//535 308//535
f 299//536 308//536 296//536
f 297//537 309//537 303//537
f 297//538 303//538 291//538
f 294//539 306//539 312//539
f 294//540 312//540 300//540
f 289//541 290//541 293//541
f 289//542 293//542 292//542
f 298//543 299//543 296//543
f 298//544 296//544 295//544
f 304//545 305//545 302//545
f 304//546 302//546 301//546
f 307//547 308//547 311//547
f 307//548 311//548 310//548
f 295//549 297//549 291//549
f 295//550 291//550 289//550
f 292//551 294//551 300//551
f 292//552 300//552 298//552
f 301//553 303//553 309//553
f 301//554 309//554 307//554
f 310//555 312//555 306//555
f 310//556 306//556 304//556
f 290//557 291//557 303//557
f 290//558 303//558 302//558
f 305//559 306//559 294//559
f 305//560 294//560 293//560
f 308//561 309//561 297//561
f 308//562 297//562 296//562
f 299//563 300//563 312//563
f 299//564 312//564 311//564
f 291//565 290//565 289//565
f 292//566 293//566 294//566
f 295//567 296//567 297//567
f 300//568 299//568 298//568
f 301//569 302//569 303//569
f 306//570 305//570 304//570
f 309//571 308//571 307//571
f 310//572 311//572 312//572
g stone_013
usemtl stone_3
s off
f 316//573 322//573 319//573
f 316//574 319//574 313//574
f 325//575 331//575 334//575
f 325//576 334//576 328//576
f 314//577 326//577 329//577
f 314//578 329//578 317//578
f 323//579 335//579 332//579
f 323//580 332//580 320//580
f 321//581 333//581 327//581
f 321//582 327//582 315//582
f 318//583 330//583 336//583
f 318//584 336//584 324//584
f 313//585 314//585 317//585
f 313//586 317//586 316//586
f 322//587 323//587 320//587
f 322//588 320//588 319//588
f 328//589 329//589 326//589
f 328//590 326//590 325//590
f 331//591 332//591 335//591
f 331//592 335//592 334//592
f 319//593 321//593 315//593
f 319//594 315//594 313//594
f 316//595 318//595 324//595
f 316//596 324//596 322//596
f 325//597 327//597 333//597
f 325//598 333//598 331//598
f 334//599 336//599 330//599
f 334//600 330//600 328//600
f 314//601 315//601 327//601
f 314//602 327//602 326//602
f 329//603 330//603 318//603
f 329//604 318//604 317//604
f 332//605 333//605 321//605
f 332//606 321//606 320//606
f 323//607 324//607 336//607
f 323//608 336//608 335//608
f 315//609 314//609 313//609
f 316//610 317//610 318//610
f 319//611 320//611 321//611
f 324//612 323//612 322//612
f 325//613 326//613 327//613
f 330//614 329//614 328//614
f 333//615 332//615 331//615
f 334//616 335//616 336//616
g stone_014
usemtl stone_2
s off
f 340//617 346//617 343//617
f 340//618 343//618 337//618
f 349//619 355//619 358//619
f 349//620 358//620 352//620
f 338//621 350//621 353//621
f 338//622 353//622 341//622
f 347//623 359//623 356//623
f 347//624 356//624 344//624
f 345//625 357//625 351//625
f 345//626 351//626 339//626
f 342//627 354//627 360//627
f 342//628 360//628 348//628
f 337//629 338//629 341//629
f 337//630 341//630 340//630
f 346//631 347//631 344//631
f 346//632 344//632 343//632
f 352//633 353//633 350//633
f 352//634 350//634 349//634
f 355//635 356//635 359//635
f 355//636 359//636 358//636
f 343//637 345//637 339//637
f 343//638 339//638 337//638
f 340//639 342//639 348//639
f 340//640 348//640 346//640
f 349//641 351//641 357//641
f 349//642 357//642 355//642
f 358//643 360//643 354//643
f 358//644 354//644 352//644
f 338//645 339//645 351//645
f 338//646 351//646 350//646
f 353//647 354//647 342//647
f 353//648 342//648 341//648
f 356//649 357//649 345//649
f 356//650 345//650 344//650
f 347//651 348//651 360//651
f 347//652 360//652 359//652
f 339//653 338//653 337//653
f 340//654 341//654 342//654
f 343//655 344//655 345//655
f 348//656 347//656 346//656
f 349//657 350//657 351//657
f 354//658 353//658 352//658
f 357//659 356//659 355//659
f 358//660 359//660 360//660
g stone_015
usemtl stone_4
s off
f 364//661 370//661 367//661
f 364//662 367//662 361//662
f 373//663 379//663 382//663
f 373//664 382//664 376//664
f 362//665 374//665 377//665
f 362//666 377//666 365//666
f 371//667 383//667 380//667
f 371//668 380//668 368//668
f 369//669 381//669 375//669
f 369//670 375//670 363//670
f 366//671 378//671 384//671
f 366//672 384//672 372//672
f 361//673 362//673 365//673
f 361//674 365//674 364//674
f 370//675 371//675 368//675
f 370//676 368//676 367//676
f 376//677 377//677 374//677
f 376//678 374//678 373//678
f 379//679 380//679 383//679
f 379//680 383//680 382//680
f 367//681 369//681 363//681
f 367//682 363//682 361//682
f 364//683 366//683 372//683
f 364//684 372//684 370//684
f 373//685 375//685 381//685
f 373//686 381//686 379//686
f 382//687 384//687 378//687
f 382//688 378//688 376//688
f 362//689 363//689 375//689
f 362//690 375//690 374//690
f 377//691 378//691 366//691
f 377//692 366//692 365//692
f 380//693 381//693 369//693
f 380//694 369//694 368//694
f 371//695 372//695 384//695
f 371//696 384//696 383//696
f 363//697 362//697 361//697
f 364//698 365//698 366//698
f 367//699 368//699 369//699
f 372//700 371//700 370//700
f 373//701 374//701 375//701
f 378//702 377//702 376//702
f 381//703 380//703 379//703
f 382//704 383//704 384//704
g stone_016
usemtl stone_4
s off
f 388//705 394//705 391//705
f 388//706 391//706 385//706
f 397//707 403//707 406//707
f 397//708 406//708 400//708
f 386//709 398//709 401//709
f 386//710 401//710 389//710
f 395//711 407//711 404//711
f 395//712 404//712 392//712
f 393//713 405//713 399//713
f 393//714 399//714 387//714
f 390//715 402//715 408//715
f 390//716 408//716 396//716
f 385//717 386//717 389//717
f 385//718 389//718 388//718
f 394//719 395//719 392//719
f 394//720 392//720 391//720
f 400//721 401//721 398//721
f 400//722 398//722 397//722
f 403//723 404//723 407//723
f 403//724 407//724 406//724
f 391//725 393//725 387//725
f 391//726 387//726 385//726
f 388//727 390//727 396//727
f 388//728 396//728 394//728
f 397//729 399//729 405//729
f 397//730 405//730 403//730
f 406//731 408//731 402//731
f 406//732 402//732 400//732
f 386//733 387//733 399//733
f 386//734 399//734 398//734
f 401//735 402//735 390//735
f 401//736 390//736 389//736
f 404//737 405//737 393//737
f 404//738 393//738 392//738
f 395//739 396//739 408//739
f 395//740 408//740 407//740
f 387//741 386//741 385//741
f 388//742 389//742 390//742
f 391//743 392//743 393//743
f 396//744 395//744 394//744
f 397//745 398//745 399//745
f 402//746 401//746 400//746
f 405//747 404//747 403//747
f 406//748 407//748 408//748
g stone_017
usemtl stone_1
s off
f 412//749 418//749 415//749
f 412//750 415//750 409//750
f 421//751 427//751 430//751
f 421//752 430//752 424//752
f 410//753 422//753 425//753
f 410//754 425//754 413//754
f 419//755 431//755 428//755
f 419//756 428//756 416//756
f 417//757 429//757 423//757
f 417//758 423//758 411//758
f 414//759 426//759 432//759
f 414//760 432//760 420//760
f 409//761 410//761 413//761
f 409//762 413//762 412//762
f 418//763 419//763 416//763
f 418//764 416//764 415//764
f 424//765 425//765 422//765
f 424//766 422//766 421//766
f 427//767 428//767 431//767
f 427//768 431//768 430//768
f 415//769 417//769 411//769
f 415//770 411//770 409//770
f 412//771 414//771 420//771
f 412//772 420//772 418//772
f 421//773 423//773 429//773
f 421//774 429//774 427//774
f 430//775 432//775 426//775
f 430//776 426//776 424//776
f 410//777 411//777 423//777
f 410//778 423//778 422//778
f 425//779 426//779 414//779
f 425//780 414//780 413//780
f 428//781 429//781 417//781
f 428//782 417//782 416//782
f 419//783 420//783 432//783
f 419//784 432//784 431//784
f 411//785 410//785 409//785
f 412//786 413//786 414//786
f 415//787 416//787 417//787
f 420//788 419//788 418//788
f 421//789 422//789 423//789
f 426//790 425//790 424//790
f 429//791 428//791 427//791
f 430//792 431//792 432//792
g stone_018
usemtl stone_2
s off
f 436//793 442//793 439//793
f 436//794 439//794 433//794
f 445//795 451//795 454//795
f 445//796 454//796 448//796
f 434//797 446//797 449//797
f 434//798 449//798 437//798
f 443//799 455//799 452//799
f 443//800 452//800 440//800
f 441//801 453//801 447//801
f 441//802 447//802 435//802
f 438//803 450//803 456//803
f 438//804 456//804 444//804
f 433//805 434//805 437//805
f 433//806 437//806 436//806
f 442//807 443//807 440//807
f 442//808 440//808 439//808
f 448//809 449//809 446//809
f 448//810 446//810 445//810
f 451//811 452//811 455//811
f 451//812 455//812 454//812
f 439//813 441//813 435//813
f 439//814 435//814 433//814
f 436//815 438//815 444//815
f 436//816 444//816 442//816
f 445//817 447//817 453//817
f 445//818 453//818 451//818
f 454//819 456//819 450//819
f 454//820 450//820 448//820
f 434//821 435//821 447//821
f 434//822 447//822 446//822
f 449//823 450//823 438//823
f 449//824 438//824 437//824
f 452//825 453//825 441//825
f 452//826 441//826 440//826
f 443//827 444//827 456//827
f 443//828 456//828 455//828
f 435//829 434//829 433//829
f 436//830 437//830 438//830
f 439//831 440//831 441//831
f 444//832 443//832 442//832
f 445//833 446//833 447//833
f 450//834 449//834 448//834
f 453//835 452//835 451//835
f 454//836 455//836 456//836
g stone_019
usemtl stone_4
s off
f 460//837 466//837 463//837
f 460//838 463//838 457//838
f 469//839 475//839 478//839
f 469//840 478//840 472//840
f 458//841 470//841 473//841
f 458//842 473//842 461//842
f 467//843 479//843 476//843
f 467//844 476//844 464//844
f 465//845 477//845 471//845
f 465//846 471//846 459//846
f 462//847 474//847 480//847
f 462//848 480//848 468//848
f 457//849 458//849 461//849
f 457//850 461//850 460//850
f 466//851 467//851 464//851
f 466//852 464//852 463//852
f 472//853 473//853 470//853
f 472//854 470//854 469//854
f 475//855 476//855 479//855
f 475//856 479//856 478//856
f 463//857 465//857 459//857
f 463//858 459//858 457//858
f 460//859 462//859 468//859
f 460//860 468//860 466//860
f 469//861 471//861 477//861
f 469//862 477//862 475//862
f 478//863 480//863 474//863
f 478//864 474//864 472//864
f 458//865 459//865 471//865
f 458//866 471//866 470//866
f 473//867 474//867 462//867
f 473//868 462//868 461//868
f 476//869 477//869 465//869
f 476//870 465//870 464//870
f 467//871 468//871 480//871
f 467//872 480//872 479//872
f 459//873 458//873 457//873
f 460//874 461//874 462//874
f 463//875 464//875 465//875
f 468//876 467//876 466//876
f 469//877 470//877 471//877
f 474//878 473//878 472//878
f 477//879 476//879 475//879
f 478//880 479//880 480//880
g stone_020
usemtl stone_0
s off
f 484//881 490//881 487//881
f 484//882 487//882 481//882
f 493//883 499//883 502//883
f 493//884 502//884 496//884
f 482//885 494//885 497//885
f 482//886 497//886 485//886
f 491//887 503//887 500//887
f 491//888 500//888 488//888
f 489//889 501//889 495//889
f 489//890 495//890 483//890
f 486//891 498//891 504//891
f 486//892 504//892 492//892
f 481//893 482//893 485//893
f 481//894 485//894 484//894
f 490//895 491//895 488//895
f 490//896 488//896 487//896
f 496//897 497//897 494//897
f 496//898 494//898 493//898
f 499//899 500//899 503//899
f 499//900 503//900 502//900
f 487//901 489//901 483//901
f 487//902 483//902 481//902
f 484//903 486//903 492//903
f 484//904 492//904 490//904
f 493//905 495//905 501//905
f 493//906 501//906 499//906
f 502//907 504//907 498//907
f 502//908 498//908 496//908
f 482//909 483//909 495//909
f 482//910 495//910 494//910
f 497//911 498//911 486//911
f 497//912 486//912 485//912
f 500//913 501//913 489//913
f 500//914 489//914 488//914
f 491//915 492//915 504//915
f 491//916 504//916 503//916
f 483//917 482//917 481//917
f 484//918 485//918 486//918
f 487//919 488//919 489//919
f 492//920 491//920 490//920
f 493//921 494//921 495//921
f 498//922 497//922 496//922
f 501//923 500//923 499//923
f 502//924 503//924 504//924
g stone_021
usemtl stone_2
s off
f 508//925 514//925 511//925
f 508//926 511//926 505//926
f 517//927 523//927 526//927
f 517//928 526//928 520//928
f 506//929 518//929 521//929
f 506//930 521//930 509//930
f 515//931 527//931 524//931
f 515//932 524//932 512//932
f 513//933 525//933 519//933
f 513//934 519//934 507//934
f 510//935 522//935 528//935
f 510//936 528//936 516//936
f 505//937 506//937 509//937
f 505//938 509//938 508//938
f 514//939 515//939 512//939
f 514//940 512//940 511//940
f 520//941 521//941 518//941
f 520//942 518//942 517//942
f 523//943 524//943 527//943
f 523//944 527//944 526//944
f 511//945 513//945 507//945
f 511//946 507//946 505//946
f 508//947 510//947 516//947
f 508//948 516//948 514//948
f 517//949 519//949 525//949
f 517//950 525//950 523//950
f 526//951 528//951 522//951
f 526//952 522//952 520//952
f 506//953 507//953 519//953
f 506//954 519//954 518//954
f 521//955 522//955 510//955
f 521//956 510//956 509//956
f 524//957 525//957 513//957
f 524//958 513//958 512//958
f 515//959 516//959 528//959
f 515//960 528//960 527//960
f 507//961 506//961 505//961
f 508//962 509//962 510//962
f 511//963 512//963 513//963
f 516//964 515//964 514//964
f 517//965 518//965 519//965
f 522//966 521//966 520//966
f 525//967 524//967 523//967
f 526//968 527//968 528//968
g stone_022
usemtl stone_1
s off
f 532//969 538//969 535//969
f 532//970 535//970 529//970
f 541//971 547//971 550//971
f 541//972 550//972 544//972
f 530//973 542//973 545//973
f 530//974 545//974 533//974
f 539//975 551//975 548//975
f 539//976 548//976 536//976
f 537//977 549//977 543//977
f 537//978 543//978 531//978
f 534//979 546//979 552//979
f 534//980 552//980 540//980
f 529//981 530//981 533//981
f 529//982 533//982 532//982
f 538//983 539//983 536//983
f 538//984 536//984 535//984
f 544//985 545//985 542//985
f 544//986 542//986 541//986
f 547//987 548//987 551//987
f 547//988 551//988 550//988
f 535//989 537//989 531//989
f 535//990 531//990 529//990
f 532//991 534//991 540//991
f 532//992 540//992 538//992
f 541//993 543//993 549//993
f 541//994 549//994 547//994
f 550//995 552//995 546//995
f 550//996 546//996 544//996
f 530//997 531//997 543//997
f 530//998 543//998 542//998
f 545//999 546//999 534//999
f 545//1000 534//1000 533//1000
f 548//1001 549//1001 537//1001
f 548//1002 537//1002 536//1002
f 539//1003 540//1003 552//1003
f 539//1004 552//1004 551//1004
f 531//1005 530//1005 529//1005
f 532//1006 533//1006 534//1006
f 535//1007 536//1007 537//1007
f 540//1008 539//1008 538//1008
f 541//1009 542//1009 543//1009
f 546//1010 545//1010 544//1010
f 549//1011 548//1011 547//1011
f 550//1012 551//1012 552//1012
g stone_023
usemtl stone_1
s off
f 556//1013 562//1013 559//1013
f 556//1014 559//1014 553//1014
f 565//1015 571//1015 574//1015
f 565//1016 574//1016 568//1016
f 554//1017 566//1017 569//1017
f 554//1018 569//1018 557//1018
f 563//1019 575//1019 572//1019
f 563//1020 572//1020 560//1020
f 561//1021 573//1021 567//1021
f 561//1022 567//1022 555//1022
f 558//1023 570//1023 576//1023
f 558//1024 576//1024 564//1024
f 553//1025 554//1025 557//1025
f 553//1026 557//1026 556//1026
f 562//1027 563//1027 560//1027
f 562//1028 560//1028 559//1028
f 568//1029 569//1029 566//1029
f 568//1030 566//1030 565//1030
f 571//1031 572//1031 575//1031
f 571//1032 575//1032 574//1032
f 559//1033 561//1033 555//1033
f 559//1034 555//1034 553//1034
f 556//1035 558//1035 564//1035
f 556//1036 564//1036 562//1036
f 565//1037 567//1037 573//1037
f 565//1038 573//1038 571//1038
f 574//1039 576//1039 570//1039
f 574//1040 570//1040 568//1040
f 554//1041 555//1041 567//1041
f 554//1042 567//1042 566//1042
f 569//1043 570//1043 558//1043
f 569//1044 558//1044 557//1044
f 572//1045 573//1045 561//1045
f 572//1046 561//1046 560//1046
f 563//1047 564//1047 576//1047
f 563//1048 576//1048 575//1048
f 555//1049 554//1049 553//1049
f 556//1050 557//1050 558//1050
f 559//1051 560//1051 561//1051
f 564//1052 563//1052 562//1052
f 565//1053 566//1053 567//1053
f 570//1054 569//1054 568//1054
f 573//1055 572//1055 571//1055
f 574//1056 575//1056 576//1056
g stone_024
usemtl stone_3
s off
f 580//1057 586//1057 583//1057
f 580//1058 583//1058 577//1058
f 589//1059 595//1059 598//1059
f 589//1060 598//1060 592//1060
f 578//1061 590//1061 593//1061
f 578//1062 593//1062 581//1062
f 587//1063 599//1063 596//1063
f 587//1064 596//1064 584//1064
f 585//1065 597//1065 591//1065
f 585//1066 591//1066 579//1066
f 582//1067 594//1067 600//1067
f 582//1068 600//1068 588//1068
f 577//1069 578//1069 581//1069
f 577//1070 581//1070 580//1070
f 586//1071 587//1071 584//1071
f 586//1072 584//1072 583//1072
f 592//1073 593//1073 590//1073
f 592//1074 590//1074 589//1074
f 595//1075 596//1075 599//1075
f 595//1076 599//1076 598//1076
f 583//1077 585//1077 579//1077
f 583//1078 579//1078 577//1078
f 580//1079 582//1079 588//1079
f 580//1080 588//1080 586//1080
f 589//1081 591//1081 597//1081
f 589//1082 597//1082 595//1082
f 598//1083 600//1083 594//1083
f 598//1084 594//1084 592//1084
f 578//1085 579//1085 591//1085
f 578//1086 591//1086 590//1086
f 593//1087 594//1087 582//1087
f 593//1088 582//1088 581//1088
f 596//1089 597//1089 585//1089
f 596//1090 585//1090 584//1090
f 587//1091 588//1091 600//1091
f 587//1092 600//1092 599//1092
f 579//1093 578//1093 577//1093
f 580//1094 581//1094 582//1094
f 583//1095 584//1095 585//1095
f 588//1096 587//1096 586//1096
f 589//1097 590//1097 591//1097
f 594//1098 593//1098 592//1098
f 597//1099 596//1099 595//1099
f 598//1100 599//1100 600//1100
g stone_025
usemtl stone_3
s off
f 604//1101 610//1101 607//1101
f 604//1102 607//1102 601//1102
f 613//1103 619//1103 622//1103
f 613//1104 622//1104 616//1104
f 602//1105 614//1105 617//1105
f 602//1106 617//1106 605//1106
f 611//1107 623//1107 620//1107
f 611//1108 620//1108 608//1108
f 609//1109 621//1109 615//1109
f 609//1110 615//1110 603//1110
f 606//1111 618//1111 624//1111
f 606//1112 624//1112 612//1112
f 601//1113 602//1113 605//1113
f 601//1114 605//1114 604//1114
f 610//1115 611//1115 608//1115
f 610//1116 608//1116 607//1116
f 616//1117 617//1117 614//1117
f 616//1118 614//1118 613//1118
f 619//1119 620//1119 623//1119
f 619//1120 623//1120 622//1120
f 607//1121 609//1121 603//1121
f 607//1122 603//1122 601//1122
f 604//1123 606//1123 612//1123
f 604//1124 612//1124 610//1124
f 613//1125 615//1125 621//1125
f 613//1126 621//1126 619//1126
f 622//1127 624//1127 618//1127
f 622//1128 618//1128 616//1128
f 602//1129 603//1129 615//1129
f 602//1130 615//1130 614//1130
f 617//1131 618//1131 606//1131
f 617//1132 606//1132 605//1132
f 620//1133 621//1133 609//1133
f 620//1134 609//1134 608//1134
f 611//1135 612//1135 624//1135
f 611//1136 624//1136 623//1136
f 603//1137 602//1137 601//1137
f 604//1138 605//1138 606//1138
f 607//1139 608//1139 609//1139
f 612//1140 611//1140 610//1140
f 613//1141 614//1141 615//1141
f 618//1142 617//1142 616//1142
f 621//1143 620//1143 619//1143
f 622//1144 623//1144 624//1144
g stone_026
usemtl stone_1
s off
f 628//1145 634//1145 631//1145
f 628//1146 631//1146 625//1146
f 637//1147 643//1147 646//1147
f 637//1148 646//1148 640//1148
f 626//1149 638//1149 641//1149
f 626//1150 641//1150 629//1150
f 635//1151 647//1151 644//1151
f 635//1152 644//1152 632//1152
f 633//1153 645//1153 639//1153
f 633//1154 639//1154 627//1154
f 630//1155 642//1155 648//1155
f 630//1156 648//1156 636//1156
f 625//1157 626//1157 629//1157
f 625//1158 629//1158 628//1158
f 634//1159 635//1159 632//1159
f 634//1160 632//1160 631//1160
f 640//1161 641//1161 638//1161
f 640//1162 638//1162 637//1162
f 643//1163 644//1163 647//1163
f 643//1164 647//1164 646//1164
f 631//1165 633//1165 627//1165
f 631//1166 627//1166 625//1166
f 628//1167 630//1167 636//1167
f 628//1168 636//1168 634//1168
f 637//1169 639//1169 645//1169
f 637//1170 645//1170 643//1170
f 646//1171 648//1171 642//1171
f 646//1172 642//1172 640//1172
f 626//1173 627//1173 639//1173
f 626//1174 639//1174 638//1174
f 641//1175 642//1175 630//1175
f 641//1176 630//1176 629//1176
f 644//1177 645//1177 633//1177
f 644//1178 633//1178 632//1178
f 635//1179 636//1179 648//1179
f 635//1180 648//1180 647//1180
f 627//1181 626//1181 625//1181
f 628//1182 629//1182 630//1182
f 631//1183 632//1183 633//1183
f 636//1184 635//1184 634//1184
f 637//1185 638//1185 639//1185
f 642//1186 641//1186 640//1186
f 645//1187 644//1187 643//1187
f 646//1188 647//1188 648//1188
g stone_027
usemtl stone_1
s off
f 652//1189 658//1189 655//1189
f 652//1190 655//1190 649//1190
f 661//1191 667//1191 670//1191
f 661//1192 670//1192 664//1192
f 650//1193 662//1193 665//1193
f 650//1194 665//1194 653//1194
f 659//1195 671//1195 668//1195
f 659//1196 668//1196 656//1196
f 657//1197 669//1197 663//1197
f 657//1198 663//1198 651//1198
f 654//1199 666//1199 672//1199
f 654//1200 672//1200 660//1200
f 649//1201 650//1201 653//1201
f 649//1202 653//1202 652//1202
f 658//1203 659//1203 656//1203
f 658//1204 656//1204 655//1204
f 664//1205 665//1205 662//1205
f 664//1206 662//1206 661//1206
f 667//1207 668//1207 671//1207
f 667//1208 671//1208 670//1208
f 655//1209 657//1209 651//1209
f 655//1210 651//1210 649//1210
f 652//1211 654//1211 660//1211
f 652//1212 660//1212 658//1212
f 661//1213 663//1213 669//1213
f 661//1214 669//1214 667//1214
f 670//1215 672//1215 666//1215
f 670//1216 666//1216 664//1216
f 650//1217 651//1217 663//1217
f 650//1218 663//1218 662//1218
f 665//1219 666//1219 654//1219
f 665//1220 654//1220 653//1220
f 668//1221 669//1221 657//1221
f 668//1222 657//1222 656//1222
f 659//1223 660//1223 672//1223
f 659//1224 672//1224 671//1224
f 651//1225 650//1225 649//1225
f 652//1226 653//1226 654//1226
f 655//1227 656//1227 657//1227
f 660//1228 659//1228 658//1228
f 661//1229 662//1229 663//1229
f 666//1230 665//1230 664//1230
f 669//1231 668//1231 667//1231
f 670//1232 671//1232 672//1232
g stone_028
usemtl stone_0
s off
f 676//1233 682//1233 679//1233
f 676//1234 679//1234 673//1234
f 685//1235 691//1235 694//1235
f 685//1236 694//1236 688//1236
f 674//1237 686//1237 689//1237
f 674//1238 689//1238 677//1238
f 683//1239 695//1239 692//1239
f 683//1240 692//1240 680//1240
f 681//1241 693//1241 687//1241
f 681//1242 687//1242 675//1242
f 678//1243 690//1243 696//1243
f 678//1244 696//1244 684//1244
f 673//1245 674//1245 677//1245
f 673//1246 677//1246 676//1246
f 682//1247 683//1247 680//1247
f 682//1248 680//1248 679//1248
f 688//1249 689//1249 686//1249
f 688//1250 686//1250 685//1250
f 691//1251 692//1251 695//1251
f 691//1252 695//1252 694//1252
f 679//1253 681//1253 675//1253
f 679//1254 675//1254 673//1254
f 676//1255 678//1255 684//1255
f 676//1256 684//1256 682//1256
f 685//1257 687//1257 693//1257
f 685//1258 693//1258 691//1258
f 694//1259 696//1259 690//1259
f 694//1260 690//1260 688//1260
f 674//1261 675//1261 687//1261
f 674//1262 687//1262 686//1262
f 689//1263 690//1263 678//1263
f 689//1264 678//1264 677//1264
f 692//1265 693//1265 681//1265
f 692//1266 681//1266 680//1266
f 683//1267 684//1267 696//1267
f 683//1268 696//1268 695//1268
f 675//1269 674//1269 673//1269
f 676//1270 677//1270 678//1270
f 679//1271 680//1271 681//1271
f 684//1272 683//1272 682//1272
f 685//1273 686//1273 687//1273
f 690//1274 689//1274 688//1274
f 693//1275 692//1275 691//1275
f 694//1276 695//1276 696//1276
