mtllib Cannon.mtl
o Cannon
usemtl CannonWhite
v -0.480000 -0.500000 -0.450000
v 0.480000 -0.500000 -0.450000
v 0.480000 -0.340000 -0.450000
v -0.480000 -0.340000 -0.450000
v -0.480000 -0.500000 0.450000
v 0.480000 -0.500000 0.450000
v 0.480000 -0.340000 0.450000
v -0.480000 -0.340000 0.450000
v 0.000000 -0.230000 -0.310000
v -0.016747 -0.145810 -0.310000
v -0.064437 -0.074437 -0.310000
v -0.135810 -0.026747 -0.310000
v -0.220000 -0.010000 -0.310000
v -0.304190 -0.026747 -0.310000
v -0.375563 -0.074437 -0.310000
v -0.423253 -0.145810 -0.310000
v -0.440000 -0.230000 -0.310000
v -0.423253 -0.314190 -0.310000
v -0.375563 -0.385563 -0.310000
v -0.304190 -0.433253 -0.310000
v -0.220000 -0.450000 -0.310000
v -0.135810 -0.433253 -0.310000
v -0.064437 -0.385563 -0.310000
v -0.016747 -0.314190 -0.310000
v 0.000000 -0.230000 0.310000
v -0.016747 -0.145810 0.310000
v -0.064437 -0.074437 0.310000
v -0.135810 -0.026747 0.310000
v -0.220000 -0.010000 0.310000
v -0.304190 -0.026747 0.310000
v -0.375563 -0.074437 0.310000
v -0.423253 -0.145810 0.310000
v -0.440000 -0.230000 0.310000
v -0.423253 -0.314190 0.310000
v -0.375563 -0.385563 0.310000
v -0.304190 -0.433253 0.310000
v -0.220000 -0.450000 0.310000
v -0.135810 -0.433253 0.310000
v -0.064437 -0.385563 0.310000
v -0.016747 -0.314190 0.310000
v 0.440000 -0.230000 -0.310000
v 0.423253 -0.145810 -0.310000
v 0.375563 -0.074437 -0.310000
v 0.304190 -0.026747 -0.310000
v 0.220000 -0.010000 -0.310000
v 0.135810 -0.026747 -0.310000
v 0.064437 -0.074437 -0.310000
v 0.016747 -0.145810 -0.310000
v 0.000000 -0.230000 -0.310000
v 0.016747 -0.314190 -0.310000
v 0.064437 -0.385563 -0.310000
v 0.135810 -0.433253 -0.310000
v 0.220000 -0.450000 -0.310000
v 0.304190 -0.433253 -0.310000
v 0.375563 -0.385563 -0.310000
v 0.423253 -0.314190 -0.310000
v 0.440000 -0.230000 0.310000
v 0.423253 -0.145810 0.310000
v 0.375563 -0.074437 0.310000
v 0.304190 -0.026747 0.310000
v 0.220000 -0.010000 0.310000
v 0.135810 -0.026747 0.310000
v 0.064437 -0.074437 0.310000
v 0.016747 -0.145810 0.310000
v 0.000000 -0.230000 0.310000
v 0.016747 -0.314190 0.310000
v 0.064437 -0.385563 0.310000
v 0.135810 -0.433253 0.310000
v 0.220000 -0.450000 0.310000
v 0.304190 -0.433253 0.310000
v 0.375563 -0.385563 0.310000
v 0.423253 -0.314190 0.310000
v -0.315233 0.038280 0.000000
v -0.306462 0.027754 0.068883
v -0.281482 -0.002221 0.127279
v -0.244098 -0.047083 0.166298
v -0.200000 -0.100000 0.180000
v -0.155902 -0.152917 0.166298
v -0.118518 -0.197779 0.127279
v -0.093538 -0.227754 0.068883
v -0.084767 -0.238280 0.000000
v -0.093538 -0.227754 -0.068883
v -0.118518 -0.197779 -0.127279
v -0.155902 -0.152917 -0.166298
v -0.200000 -0.100000 -0.180000
v -0.244098 -0.047083 -0.166298
v -0.281482 -0.002221 -0.127279
v -0.306462 0.027754 -0.068883
v 0.243972 0.465233 0.000000
v 0.251282 0.456462 0.057403
v 0.272098 0.431482 0.106066
v 0.303252 0.394098 0.138582
v 0.340000 0.350000 0.150000
v 0.376748 0.305902 0.138582
v 0.407902 0.268518 0.106066
v 0.428718 0.243538 0.057403
v 0.436028 0.234767 0.000000
v 0.428718 0.243538 -0.057403
v 0.407902 0.268518 -0.106066
v 0.376748 0.305902 -0.138582
v 0.340000 0.350000 -0.150000
v 0.303252 0.394098 -0.138582
v 0.272098 0.431482 -0.106066
v 0.251282 0.456462 -0.057403
v 0.169014 0.471138 0.000000
v 0.178985 0.459633 0.076537
v 0.207379 0.426871 0.141421
v 0.249874 0.377838 0.184776
v 0.300000 0.320000 0.200000
v 0.350126 0.262162 0.184776
v 0.392621 0.213129 0.141421
v 0.421015 0.180367 0.076537
v 0.430986 0.168862 0.000000
v 0.421015 0.180367 -0.076537
v 0.392621 0.213129 -0.141421
v 0.350126 0.262162 -0.184776
v 0.300000 0.320000 -0.200000
v 0.249874 0.377838 -0.184776
v 0.207379 0.426871 -0.141421
v 0.178985 0.459633 -0.076537
v 0.319014 0.601138 0.000000
v 0.328985 0.589633 0.076537
v 0.357379 0.556871 0.141421
v 0.399874 0.507838 0.184776
v 0.450000 0.450000 0.200000
v 0.500126 0.392162 0.184776
v 0.542621 0.343129 0.141421
v 0.571015 0.310367 0.076537
v 0.580986 0.298862 0.000000
v 0.571015 0.310367 -0.076537
v 0.542621 0.343129 -0.141421
v 0.500126 0.392162 -0.184776
v 0.450000 0.450000 -0.200000
v 0.399874 0.507838 -0.184776
v 0.357379 0.556871 -0.141421
v 0.328985 0.589633 -0.076537
vn 0.000000 0.000000 -1.000000
vn 0.000000 0.000000 1.000000
vn -1.000000 0.000000 0.000000
vn 1.000000 0.000000 0.000000
vn 0.000000 1.000000 0.000000
vn 0.000000 -1.000000 0.000000
vn 0.980785 0.195090 0.000000
vn 0.831470 0.555570 0.000000
vn 0.555570 0.831470 0.000000
vn 0.195090 0.980785 0.000000
vn -0.195090 0.980785 0.000000
vn -0.555570 0.831470 0.000000
vn -0.831470 0.555570 0.000000
vn -0.980785 0.195090 0.000000
vn -0.980785 -0.195090 0.000000
vn -0.831470 -0.555570 0.000000
vn -0.555570 -0.831470 0.000000
vn -0.195090 -0.980785 0.000000
vn 0.195090 -0.980785 0.000000
vn 0.555570 -0.831470 0.000000
vn 0.831470 -0.555570 0.000000
vn 0.980785 -0.195090 0.000000
vn 0.000000 0.000000 -1.000000
vn 0.000000 0.000000 1.000000
vn 0.980785 0.195090 0.000000
vn 0.831470 0.555570 0.000000
vn 0.555570 0.831470 0.000000
vn 0.195090 0.980785 0.000000
vn -0.195090 0.980785 0.000000
vn -0.555570 0.831470 0.000000
vn -0.831470 0.555570 0.000000
vn -0.980785 0.195090 0.000000
vn -0.980785 -0.195090 0.000000
vn -0.831470 -0.555570 0.000000
vn -0.555570 -0.831470 0.000000
vn -0.195090 -0.980785 0.000000
vn 0.195090 -0.980785 0.000000
vn 0.555570 -0.831470 0.000000
vn 0.831470 -0.555570 0.000000
vn 0.980785 -0.195090 0.000000
vn 0.000000 0.000000 -1.000000
vn 0.000000 0.000000 1.000000
vn -0.595205 0.779575 0.194920
vn -0.499699 0.664968 0.555084
vn -0.323227 0.453201 0.830742
vn -0.092656 0.176515 0.979927
vn 0.156913 -0.122967 0.979927
vn 0.387485 -0.399653 0.830742
vn 0.563957 -0.611420 0.555084
vn 0.659463 -0.726027 0.194920
vn 0.659463 -0.726027 -0.194920
vn 0.563957 -0.611420 -0.555084
vn 0.387485 -0.399653 -0.830742
vn 0.156913 -0.122967 -0.979927
vn -0.092656 0.176515 -0.979927
vn -0.323227 0.453201 -0.830742
vn -0.499699 0.664968 -0.555084
vn -0.595205 0.779575 -0.194920
vn -0.768221 -0.640184 0.000000
vn 0.768221 0.640184 -0.000000
vn -0.642346 0.741169 0.195090
vn -0.544555 0.628333 0.555570
vn -0.363860 0.419838 0.831470
vn -0.127771 0.147428 0.980785
vn 0.127771 -0.147428 0.980785
vn 0.363860 -0.419838 0.831470
vn 0.544555 -0.628333 0.555570
vn 0.642346 -0.741169 0.195090
vn 0.642346 -0.741169 -0.195090
vn 0.544555 -0.628333 -0.555570
vn 0.363860 -0.419838 -0.831470
vn 0.127771 -0.147428 -0.980785
vn -0.127771 0.147428 -0.980785
vn -0.363860 0.419838 -0.831470
vn -0.544555 0.628333 -0.555570
vn -0.642346 0.741169 -0.195090
vn -0.755689 -0.654931 0.000000
vn 0.755689 0.654931 -0.000000
f 1//1 4//1 3//1 2//1
f 5//2 6//2 7//2 8//2
f 1//3 5//3 8//3 4//3
f 2//4 3//4 7//4 6//4
f 4//5 8//5 7//5 3//5
f 1//6 2//6 6//6 5//6
f 9//7 10//7 26//7 25//7
f 10//8 11//8 27//8 26//8
f 11//9 12//9 28//9 27//9
f 12//10 13//10 29//10 28//10
f 13//11 14//11 30//11 29//11
f 14//12 15//12 31//12 30//12
f 15//13 16//13 32//13 31//13
f 16//14 17//14 33//14 32//14
f 17//15 18//15 34//15 33//15
f 18//16 19//16 35//16 34//16
f 19//17 20//17 36//17 35//17
f 20//18 21//18 37//18 36//18
f 21//19 22//19 38//19 37//19
f 22//20 23//20 39//20 38//20
f 23//21 24//21 40//21 39//21
f 24//22 9//22 25//22 40//22
f 24//23 23//23 22//23 21//23 20//23 19//23 18//23 17//23 16//23 15//23 14//23 13//23 12//23 11//23 10//23 9//23
f 25//24 26//24 27//24 28//24 29//24 30//24 31//24 32//24 33//24 34//24 35//24 36//24 37//24 38//24 39//24 40//24
f 41//25 42//25 58//25 57//25
f 42//26 43//26 59//26 58//26
f 43//27 44//27 60//27 59//27
f 44//28 45//28 61//28 60//28
f 45//29 46//29 62//29 61//29
f 46//30 47//30 63//30 62//30
f 47//31 48//31 64//31 63//31
f 48//32 49//32 65//32 64//32
f 49//33 50//33 66//33 65//33
f 50//34 51//34 67//34 66//34
f 51//35 52//35 68//35 67//35
f 52//36 53//36 69//36 68//36
f 53//37 54//37 70//37 69//37
f 54//38 55//38 71//38 70//38
f 55//39 56//39 72//39 71//39
f 56//40 41//40 57//40 72//40
f 56//41 55//41 54//41 53//41 52//41 51//41 50//41 49//41 48//41 47//41 46//41 45//41 44//41 43//41 42//41 41//41
f 57//42 58//42 59//42 60//42 61//42 62//42 63//42 64//42 65//42 66//42 67//42 68//42 69//42 70//42 71//42 72//42
f 73//43 74//43 90//43 89//43
f 74//44 75//44 91//44 90//44
f 75//45 76//45 92//45 91//45
f 76//46 77//46 93//46 92//46
f 77//47 78//47 94//47 93//47
f 78//48 79//48 95//48 94//48
f 79//49 80//49 96//49 95//49
f 80//50 81//50 97//50 96//50
f 81//51 82//51 98//51 97//51
f 82//52 83//52 99//52 98//52
f 83//53 84//53 100//53 99//53
f 84//54 85//54 101//54 100//54
f 85//55 86//55 102//55 101//55
f 86//56 87//56 103//56 102//56
f 87//57 88//57 104//57 103//57
f 88//58 73//58 89//58 104//58
f 88//59 87//59 86//59 85//59 84//59 83//59 82//59 81//59 80//59 79//59 78//59 77//59 76//59 75//59 74//59 73//59
f 89//60 90//60 91//60 92//60 93//60 94//60 95//60 96//60 97//60 98//60 99//60 100//60 101//60 102//60 103//60 104//60
f 105//61 106//61 122//61 121//61
f 106//62 107//62 123//62 122//62
f 107//63 108//63 124//63 123//63
f 108//64 109//64 125//64 124//64
f 109//65 110//65 126//65 125//65
f 110//66 111//66 127//66 126//66
f 111//67 112//67 128//67 127//67
f 112//68 113//68 129//68 128//68
f 113//69 114//69 130//69 129//69
f 114//70 115//70 131//70 130//70
f 115//71 116//71 132//71 131//71
f 116//72 117//72 133//72 132//72
f 117//73 118//73 134//73 133//73
f 118//74 119//74 135//74 134//74
f 119//75 120//75 136//75 135//75
f 120//76 105//76 121//76 136//76
f 120//77 119//77 118//77 117//77 116//77 115//77 114//77 113//77 112//77 111//77 110//77 109//77 108//77 107//77 106//77 105//77
f 121//78 122//78 123//78 124//78 125//78 126//78 127//78 128//78 129//78 130//78 131//78 132//78 133//78 134//78 135//78 136//78
