# Blender 4.4.3
# www.blender.org
mtllib PressurePlate.mtl
o PressurePlate
v 0.000000 -0.366853 0.222228
v 0.500000 -0.500000 -0.500000
v 0.000000 -0.394443 0.332588
v 0.500000 -0.450000 -0.500000
v 0.000000 -0.430491 0.392314
v 0.500000 -0.500000 0.500000
v 0.500000 -0.450000 0.500000
v 0.000000 -0.450000 0.400000
v -0.500000 -0.500000 -0.500000
v -0.015224 -0.351921 0.076537
v -0.029863 -0.357612 0.150132
v -0.500000 -0.450000 -0.500000
v -0.043355 -0.366853 0.217958
v -0.500000 -0.500000 0.500000
v -0.055180 -0.379289 0.277408
v -0.500000 -0.450000 0.500000
v -0.064885 -0.394443 0.326197
v -0.072096 -0.411732 0.362451
v -0.076537 -0.430491 0.384776
v -0.078036 -0.450000 0.392314
v -0.029863 -0.351921 0.072096
v -0.058579 -0.357612 0.141421
v -0.085043 -0.366853 0.205312
v -0.108239 -0.379289 0.261313
v -0.127276 -0.394443 0.307271
v -0.141421 -0.411732 0.341421
v -0.150132 -0.430491 0.362451
v -0.153073 -0.450000 0.369552
v -0.043355 -0.351921 0.064885
v -0.085043 -0.357612 0.127276
v -0.123463 -0.366853 0.184776
v -0.157139 -0.379289 0.235175
v -0.184776 -0.394443 0.276537
v -0.205312 -0.411732 0.307271
v -0.217958 -0.430491 0.326197
v -0.222228 -0.450000 0.332588
v -0.055180 -0.351921 0.055180
v -0.108239 -0.357612 0.108239
v -0.157139 -0.366853 0.157139
v -0.200000 -0.379289 0.200000
v -0.235175 -0.394443 0.235175
v -0.261313 -0.411732 0.261313
v -0.277408 -0.430491 0.277408
v -0.282843 -0.450000 0.282843
v -0.064885 -0.351921 0.043355
v -0.127276 -0.357612 0.085043
v -0.184776 -0.366853 0.123463
v -0.235175 -0.379289 0.157139
v -0.276537 -0.394443 0.184776
v -0.307271 -0.411732 0.205312
v -0.326197 -0.430491 0.217958
v -0.332588 -0.450000 0.222228
v 0.000000 -0.350000 0.000000
v -0.072096 -0.351921 0.029863
v -0.141421 -0.357612 0.058579
v -0.205312 -0.366853 0.085043
v -0.261313 -0.379289 0.108239
v -0.307271 -0.394443 0.127276
v -0.341422 -0.411732 0.141421
v -0.362451 -0.430491 0.150132
v -0.369552 -0.450000 0.153073
v -0.076537 -0.351921 0.015224
v -0.150132 -0.357612 0.029863
v -0.217958 -0.366853 0.043355
v -0.277408 -0.379289 0.055180
v -0.326197 -0.394443 0.064885
v -0.362451 -0.411732 0.072096
v -0.384776 -0.430491 0.076537
v -0.392314 -0.450000 0.078036
v -0.078036 -0.351921 -0.000000
v -0.153073 -0.357612 -0.000000
v -0.222228 -0.366853 -0.000000
v -0.282843 -0.379289 0.000000
v -0.332588 -0.394443 -0.000000
v -0.369552 -0.411732 0.000000
v -0.392314 -0.430491 -0.000000
v -0.400000 -0.450000 -0.000000
v -0.076537 -0.351921 -0.015224
v -0.150132 -0.357612 -0.029863
v -0.217958 -0.366853 -0.043355
v -0.277408 -0.379289 -0.055180
v -0.326197 -0.394443 -0.064885
v -0.362451 -0.411732 -0.072096
v -0.384776 -0.430491 -0.076537
v -0.392314 -0.450000 -0.078036
v -0.072096 -0.351921 -0.029863
v -0.141421 -0.357612 -0.058579
v -0.205312 -0.366853 -0.085043
v -0.261313 -0.379289 -0.108239
v -0.307271 -0.394443 -0.127276
v -0.341422 -0.411732 -0.141421
v -0.362451 -0.430491 -0.150132
v -0.369552 -0.450000 -0.153073
v -0.064885 -0.351921 -0.043355
v -0.127276 -0.357612 -0.085043
v -0.184776 -0.366853 -0.123463
v -0.235175 -0.379289 -0.157139
v -0.276537 -0.394443 -0.184776
v -0.307271 -0.411732 -0.205312
v -0.326197 -0.430491 -0.217958
v -0.332588 -0.450000 -0.222228
v -0.055180 -0.351921 -0.055180
v -0.108239 -0.357612 -0.108239
v -0.157139 -0.366853 -0.157139
v -0.200000 -0.379289 -0.200000
v -0.235175 -0.394443 -0.235175
v -0.261313 -0.411732 -0.261313
v -0.277408 -0.430491 -0.277408
v -0.282843 -0.450000 -0.282843
v -0.043355 -0.351921 -0.064885
v -0.085043 -0.357612 -0.127276
v -0.123463 -0.366853 -0.184776
v -0.157139 -0.379289 -0.235175
v -0.184776 -0.394443 -0.276537
v -0.205312 -0.411732 -0.307271
v -0.217958 -0.430491 -0.326197
v -0.222228 -0.450000 -0.332588
v -0.029863 -0.351921 -0.072096
v -0.058579 -0.357612 -0.141421
v -0.085043 -0.366853 -0.205312
v -0.108239 -0.379289 -0.261313
v -0.127276 -0.394443 -0.307271
v -0.141421 -0.411732 -0.341421
v -0.150132 -0.430491 -0.362451
v -0.153073 -0.450000 -0.369552
v -0.015224 -0.351921 -0.076537
v -0.029863 -0.357612 -0.150132
v -0.043355 -0.366853 -0.217958
v -0.055180 -0.379289 -0.277408
v -0.064885 -0.394443 -0.326197
v -0.072096 -0.411732 -0.362451
v -0.076537 -0.430491 -0.384776
v -0.078036 -0.450000 -0.392314
v 0.000000 -0.351921 -0.078036
v 0.000000 -0.357612 -0.153073
v 0.000000 -0.366853 -0.222228
v 0.000000 -0.379289 -0.282843
v 0.000000 -0.394443 -0.332588
v -0.000000 -0.411732 -0.369552
v 0.000000 -0.430491 -0.392314
v 0.000000 -0.450000 -0.400000
v 0.015224 -0.351921 -0.076537
v 0.029863 -0.357612 -0.150132
v 0.043355 -0.366853 -0.217958
v 0.055180 -0.379289 -0.277408
v 0.064885 -0.394443 -0.326197
v 0.072096 -0.411732 -0.362451
v 0.076537 -0.430491 -0.384776
v 0.078036 -0.450000 -0.392314
v 0.029863 -0.351921 -0.072096
v 0.058579 -0.357612 -0.141421
v 0.085043 -0.366853 -0.205312
v 0.108239 -0.379289 -0.261313
v 0.127276 -0.394443 -0.307271
v 0.141421 -0.411732 -0.341421
v 0.150132 -0.430491 -0.362451
v 0.153073 -0.450000 -0.369552
v 0.043355 -0.351921 -0.064885
v 0.085043 -0.357612 -0.127276
v 0.123463 -0.366853 -0.184776
v 0.157139 -0.379289 -0.235175
v 0.184776 -0.394443 -0.276537
v 0.205312 -0.411732 -0.307271
v 0.217958 -0.430491 -0.326197
v 0.222228 -0.450000 -0.332588
v 0.055180 -0.351921 -0.055180
v 0.108239 -0.357612 -0.108239
v 0.157139 -0.366853 -0.157139
v 0.200000 -0.379289 -0.200000
v 0.235175 -0.394443 -0.235175
v 0.261313 -0.411732 -0.261313
v 0.277408 -0.430491 -0.277408
v 0.282843 -0.450000 -0.282842
v 0.064885 -0.351921 -0.043355
v 0.127276 -0.357612 -0.085043
v 0.184776 -0.366853 -0.123463
v 0.235175 -0.379289 -0.157139
v 0.276537 -0.394443 -0.184776
v 0.307271 -0.411732 -0.205312
v 0.326197 -0.430491 -0.217958
v 0.332588 -0.450000 -0.222228
v 0.072096 -0.351921 -0.029863
v 0.141421 -0.357612 -0.058579
v 0.205312 -0.366853 -0.085043
v 0.261313 -0.379289 -0.108239
v 0.307271 -0.394443 -0.127276
v 0.341421 -0.411732 -0.141421
v 0.362451 -0.430491 -0.150132
v 0.369552 -0.450000 -0.153073
v 0.076537 -0.351921 -0.015224
v 0.150132 -0.357612 -0.029863
v 0.217958 -0.366853 -0.043354
v 0.277408 -0.379289 -0.055180
v 0.326197 -0.394443 -0.064885
v 0.362451 -0.411732 -0.072096
v 0.384776 -0.430491 -0.076537
v 0.392314 -0.450000 -0.078036
v 0.078036 -0.351921 0.000000
v 0.153073 -0.357612 0.000000
v 0.222228 -0.366853 0.000000
v 0.282843 -0.379289 0.000000
v 0.332588 -0.394443 0.000000
v 0.369552 -0.411732 0.000000
v 0.392314 -0.430491 0.000000
v 0.400000 -0.450000 0.000000
v 0.076537 -0.351921 0.015224
v 0.150132 -0.357612 0.029863
v 0.217958 -0.366853 0.043355
v 0.277408 -0.379289 0.055180
v 0.326197 -0.394443 0.064885
v 0.362451 -0.411732 0.072096
v 0.384776 -0.430491 0.076537
v 0.392314 -0.450000 0.078036
v 0.072096 -0.351921 0.029863
v 0.141421 -0.357612 0.058579
v 0.205312 -0.366853 0.085043
v 0.261313 -0.379289 0.108239
v 0.307271 -0.394443 0.127276
v 0.341421 -0.411732 0.141421
v 0.362451 -0.430491 0.150132
v 0.369552 -0.450000 0.153073
v 0.064885 -0.351921 0.043355
v 0.127276 -0.357612 0.085043
v 0.184776 -0.366853 0.123463
v 0.235175 -0.379289 0.157139
v 0.276537 -0.394443 0.184776
v 0.307271 -0.411732 0.205312
v 0.326197 -0.430491 0.217958
v 0.332588 -0.450000 0.222228
v 0.055180 -0.351921 0.055180
v 0.108239 -0.357612 0.108239
v 0.157139 -0.366853 0.157139
v 0.200000 -0.379289 0.200000
v 0.235175 -0.394443 0.235175
v 0.261313 -0.411732 0.261313
v 0.277408 -0.430491 0.277408
v 0.282842 -0.450000 0.282843
v 0.043355 -0.351921 0.064885
v 0.085043 -0.357612 0.127276
v 0.123463 -0.366853 0.184776
v 0.157139 -0.379289 0.235175
v 0.184776 -0.394443 0.276537
v 0.205312 -0.411732 0.307271
v 0.217958 -0.430491 0.326197
v 0.222228 -0.450000 0.332588
v 0.029863 -0.351921 0.072096
v 0.058579 -0.357612 0.141421
v 0.085043 -0.366853 0.205312
v 0.108239 -0.379289 0.261313
v 0.127276 -0.394443 0.307271
v 0.141421 -0.411732 0.341421
v 0.150132 -0.430491 0.362451
v 0.153073 -0.450000 0.369552
v 0.015224 -0.351921 0.076537
v 0.029863 -0.357612 0.150132
v 0.043354 -0.366853 0.217958
v 0.055180 -0.379289 0.277408
v 0.064885 -0.394443 0.326197
v 0.072096 -0.411732 0.362451
v 0.076537 -0.430491 0.384776
v 0.078036 -0.450000 0.392314
v -0.000000 -0.351921 0.078036
v -0.000000 -0.357612 0.153073
v -0.000000 -0.379289 0.282843
v -0.000000 -0.411732 0.369552
vn -0.0625 0.7702 0.6347
vn -0.0913 0.3650 0.9265
vn -0.0024 0.9997 0.0246
vn -0.0074 0.9971 0.0756
vn -0.0130 0.9911 0.1324
vn -0.0198 0.9794 0.2009
vn -0.0287 0.9562 0.2913
vn -0.0417 0.9050 0.4233
vn -0.0850 0.9562 0.2801
vn -0.1235 0.9050 0.4070
vn -0.1851 0.7702 0.6104
vn -0.2703 0.3650 0.8909
vn -0.0072 0.9997 0.0237
vn -0.0221 0.9971 0.0727
vn -0.0386 0.9911 0.1273
vn -0.0586 0.9794 0.1932
vn -0.0358 0.9971 0.0670
vn -0.0627 0.9911 0.1174
vn -0.0952 0.9794 0.1781
vn -0.1380 0.9562 0.2581
vn -0.2005 0.9050 0.3751
vn -0.3007 0.7702 0.5625
vn -0.4389 0.3650 0.8211
vn -0.0117 0.9997 0.0218
vn -0.2698 0.9050 0.3288
vn -0.4046 0.7702 0.4930
vn -0.5906 0.3650 0.7197
vn -0.0157 0.9997 0.0191
vn -0.0482 0.9971 0.0587
vn -0.0844 0.9911 0.1029
vn -0.1281 0.9794 0.1561
vn -0.1857 0.9562 0.2263
vn -0.1029 0.9911 0.0844
vn -0.1561 0.9794 0.1281
vn -0.2263 0.9562 0.1857
vn -0.3288 0.9050 0.2698
vn -0.4930 0.7702 0.4046
vn -0.7197 0.3650 0.5906
vn -0.0191 0.9997 0.0157
vn -0.0587 0.9971 0.0482
vn -0.5625 0.7702 0.3007
vn -0.8211 0.3650 0.4389
vn -0.0218 0.9997 0.0117
vn -0.0670 0.9971 0.0358
vn -0.1174 0.9911 0.0627
vn -0.1781 0.9794 0.0952
vn -0.2581 0.9562 0.1380
vn -0.3751 0.9050 0.2005
vn -0.1273 0.9911 0.0386
vn -0.1932 0.9794 0.0586
vn -0.2801 0.9562 0.0850
vn -0.4070 0.9050 0.1235
vn -0.6104 0.7702 0.1851
vn -0.8909 0.3650 0.2703
vn -0.0237 0.9997 0.0072
vn -0.0727 0.9971 0.0221
vn -0.6347 0.7702 0.0625
vn -0.9265 0.3650 0.0913
vn -0.0246 0.9997 0.0024
vn -0.0756 0.9971 0.0074
vn -0.1324 0.9911 0.0130
vn -0.2009 0.9794 0.0198
vn -0.2913 0.9562 0.0287
vn -0.4233 0.9050 0.0417
vn -0.2009 0.9794 -0.0198
vn -0.2913 0.9562 -0.0287
vn -0.4233 0.9050 -0.0417
vn -0.6347 0.7702 -0.0625
vn -0.9265 0.3650 -0.0913
vn -0.0246 0.9997 -0.0024
vn -0.0756 0.9971 -0.0074
vn -0.1324 0.9911 -0.0130
vn -0.8909 0.3650 -0.2703
vn -0.0237 0.9997 -0.0072
vn -0.0727 0.9971 -0.0221
vn -0.1273 0.9911 -0.0386
vn -0.1932 0.9794 -0.0586
vn -0.2801 0.9562 -0.0850
vn -0.4070 0.9050 -0.1235
vn -0.6104 0.7702 -0.1851
vn -0.1781 0.9794 -0.0952
vn -0.2581 0.9562 -0.1380
vn -0.3751 0.9050 -0.2005
vn -0.5625 0.7702 -0.3007
vn -0.8211 0.3650 -0.4389
vn -0.0218 0.9997 -0.0117
vn -0.0670 0.9971 -0.0358
vn -0.1174 0.9911 -0.0627
vn -0.7197 0.3650 -0.5906
vn -0.0191 0.9997 -0.0157
vn -0.0587 0.9971 -0.0482
vn -0.1029 0.9911 -0.0844
vn -0.1561 0.9794 -0.1281
vn -0.2263 0.9562 -0.1857
vn -0.3288 0.9050 -0.2698
vn -0.4930 0.7702 -0.4046
vn -0.1857 0.9562 -0.2263
vn -0.2698 0.9050 -0.3288
vn -0.4046 0.7702 -0.4930
vn -0.5906 0.3650 -0.7197
vn -0.0157 0.9997 -0.0191
vn -0.0482 0.9971 -0.0587
vn -0.0844 0.9911 -0.1029
vn -0.1281 0.9794 -0.1561
vn -0.0358 0.9971 -0.0670
vn -0.0627 0.9911 -0.1174
vn -0.0952 0.9794 -0.1781
vn -0.1380 0.9562 -0.2581
vn -0.2005 0.9050 -0.3751
vn -0.3007 0.7702 -0.5625
vn -0.4389 0.3650 -0.8211
vn -0.0117 0.9997 -0.0218
vn -0.1235 0.9050 -0.4070
vn -0.1851 0.7702 -0.6104
vn -0.2703 0.3650 -0.8909
vn -0.0072 0.9997 -0.0237
vn -0.0221 0.9971 -0.0727
vn -0.0386 0.9911 -0.1273
vn -0.0586 0.9794 -0.1932
vn -0.0850 0.9562 -0.2801
vn -0.0074 0.9971 -0.0756
vn -0.0130 0.9911 -0.1324
vn -0.0198 0.9794 -0.2009
vn -0.0287 0.9562 -0.2913
vn -0.0417 0.9050 -0.4233
vn -0.0625 0.7702 -0.6347
vn -0.0913 0.3650 -0.9265
vn -0.0024 0.9997 -0.0246
vn 0.0417 0.9050 -0.4233
vn 0.0625 0.7702 -0.6347
vn 0.0913 0.3650 -0.9265
vn 0.0024 0.9997 -0.0246
vn 0.0074 0.9971 -0.0756
vn 0.0130 0.9911 -0.1324
vn 0.0198 0.9794 -0.2009
vn 0.0287 0.9562 -0.2913
vn 0.0386 0.9911 -0.1273
vn 0.0586 0.9794 -0.1932
vn 0.0850 0.9562 -0.2801
vn 0.1235 0.9050 -0.4070
vn 0.1851 0.7702 -0.6104
vn 0.2703 0.3650 -0.8909
vn 0.0072 0.9997 -0.0237
vn 0.0221 0.9971 -0.0727
vn 0.3007 0.7702 -0.5625
vn 0.4389 0.3650 -0.8211
vn 0.0117 0.9997 -0.0218
vn 0.0358 0.9971 -0.0670
vn 0.0627 0.9911 -0.1174
vn 0.0952 0.9794 -0.1781
vn 0.1380 0.9562 -0.2581
vn 0.2005 0.9050 -0.3751
vn 0.0844 0.9911 -0.1029
vn 0.1281 0.9794 -0.1561
vn 0.1857 0.9562 -0.2263
vn 0.2698 0.9050 -0.3288
vn 0.4046 0.7702 -0.4930
vn 0.5906 0.3650 -0.7197
vn 0.0157 0.9997 -0.0191
vn 0.0482 0.9971 -0.0587
vn 0.4930 0.7702 -0.4046
vn 0.7197 0.3650 -0.5906
vn 0.0191 0.9997 -0.0157
vn 0.0587 0.9971 -0.0482
vn 0.1029 0.9911 -0.0844
vn 0.1561 0.9794 -0.1281
vn 0.2263 0.9562 -0.1857
vn 0.3288 0.9050 -0.2698
vn 0.1781 0.9794 -0.0952
vn 0.2581 0.9562 -0.1380
vn 0.3751 0.9050 -0.2005
vn 0.5625 0.7702 -0.3007
vn 0.8211 0.3650 -0.4389
vn 0.0218 0.9997 -0.0117
vn 0.0670 0.9971 -0.0358
vn 0.1174 0.9911 -0.0627
vn 0.8909 0.3650 -0.2703
vn 0.0237 0.9997 -0.0072
vn 0.0727 0.9971 -0.0221
vn 0.1273 0.9911 -0.0386
vn 0.1932 0.9794 -0.0586
vn 0.2801 0.9562 -0.0850
vn 0.4070 0.9050 -0.1235
vn 0.6104 0.7702 -0.1851
vn 0.2913 0.9562 -0.0287
vn 0.4233 0.9050 -0.0417
vn 0.6347 0.7702 -0.0625
vn 0.9265 0.3650 -0.0913
vn 0.0246 0.9997 -0.0024
vn 0.0756 0.9971 -0.0074
vn 0.1324 0.9911 -0.0130
vn 0.2009 0.9794 -0.0198
vn 0.0246 0.9997 0.0024
vn 0.0756 0.9971 0.0074
vn 0.1324 0.9911 0.0130
vn 0.2009 0.9794 0.0198
vn 0.2913 0.9562 0.0287
vn 0.4233 0.9050 0.0417
vn 0.6347 0.7702 0.0625
vn 0.9265 0.3650 0.0913
vn 0.2801 0.9562 0.0850
vn 0.4070 0.9050 0.1235
vn 0.6104 0.7702 0.1851
vn 0.8909 0.3650 0.2703
vn 0.0237 0.9997 0.0072
vn 0.0727 0.9971 0.0221
vn 0.1273 0.9911 0.0386
vn 0.1932 0.9794 0.0586
vn 0.0670 0.9971 0.0358
vn 0.1174 0.9911 0.0627
vn 0.1781 0.9794 0.0952
vn 0.2581 0.9562 0.1380
vn 0.3751 0.9050 0.2005
vn 0.5625 0.7702 0.3007
vn 0.8211 0.3650 0.4389
vn 0.0218 0.9997 0.0117
vn 0.3288 0.9050 0.2698
vn 0.4930 0.7702 0.4046
vn 0.7197 0.3650 0.5906
vn 0.0191 0.9997 0.0157
vn 0.0587 0.9971 0.0482
vn 0.1029 0.9911 0.0844
vn 0.1561 0.9794 0.1281
vn 0.2263 0.9562 0.1857
vn 0.0482 0.9971 0.0587
vn 0.0844 0.9911 0.1029
vn 0.1281 0.9794 0.1561
vn 0.1857 0.9562 0.2263
vn 0.2698 0.9050 0.3288
vn 0.4046 0.7702 0.4930
vn 0.5906 0.3650 0.7197
vn 0.0157 0.9997 0.0191
vn 0.2005 0.9050 0.3751
vn 0.3007 0.7702 0.5625
vn 0.4389 0.3650 0.8211
vn 0.0117 0.9997 0.0218
vn 0.0358 0.9971 0.0670
vn 0.0627 0.9911 0.1174
vn 0.0952 0.9794 0.1781
vn 0.1380 0.9562 0.2581
vn 0.0386 0.9911 0.1273
vn 0.0586 0.9794 0.1932
vn 0.0850 0.9562 0.2801
vn 0.1235 0.9050 0.4070
vn 0.1851 0.7702 0.6104
vn 0.2703 0.3650 0.8909
vn 0.0072 0.9997 0.0237
vn 0.0221 0.9971 0.0727
vn 0.0625 0.7702 0.6347
vn 0.0913 0.3650 0.9265
vn 0.0024 0.9997 0.0246
vn 0.0074 0.9971 0.0756
vn 0.0130 0.9911 0.1324
vn 0.0198 0.9794 0.2009
vn 0.0287 0.9562 0.2913
vn 0.0417 0.9050 0.4233
vn 1.0000 -0.0000 -0.0000
vn -0.0000 -0.0000 1.0000
vn -1.0000 -0.0000 -0.0000
vn -0.0000 -0.0000 -1.0000
vn -0.0000 -1.0000 -0.0000
vn -0.0000 1.0000 -0.0000
vn -0.1851 0.7702 0.6103
vt 0.956423 0.759760
vt 0.918079 0.734424
vt 0.950358 0.725399
vt 0.988071 0.715686
vt 0.994266 0.757012
vt 0.798589 0.772933
vt 0.776789 0.774918
vt 0.797800 0.768714
vt 0.820636 0.771010
vt 0.819074 0.762528
vt 0.843492 0.769010
vt 0.841149 0.756096
vt 0.867836 0.766919
vt 0.864547 0.749313
vt 0.893919 0.764862
vt 0.890078 0.742192
vt 0.923085 0.762502
vt 0.881568 0.720716
vt 0.907845 0.707610
vt 0.937984 0.692437
vt 0.973934 0.675401
vt 0.796189 0.764731
vt 0.815880 0.754497
vt 0.836321 0.743852
vt 0.857887 0.732720
vt 0.811167 0.747230
vt 0.829093 0.732843
vt 0.848109 0.717779
vt 0.869051 0.701180
vt 0.892415 0.683110
vt 0.919201 0.662125
vt 0.951836 0.637753
vt 0.793828 0.761138
vt 0.872286 0.662032
vt 0.894299 0.636095
vt 0.921863 0.604268
vt 0.790812 0.758076
vt 0.805081 0.741067
vt 0.819881 0.723425
vt 0.835713 0.704825
vt 0.852858 0.684466
vt 0.808983 0.715978
vt 0.820913 0.694517
vt 0.833692 0.671272
vt 0.848307 0.645295
vt 0.864767 0.615204
vt 0.884453 0.579010
vt 0.787256 0.755662
vt 0.797913 0.736219
vt 0.821457 0.633693
vt 0.831531 0.600946
vt 0.843421 0.561959
vt 0.783295 0.753987
vt 0.789958 0.732803
vt 0.796834 0.710822
vt 0.804290 0.687599
vt 0.812282 0.662021
vt 0.783930 0.708134
vt 0.786710 0.683827
vt 0.789439 0.657264
vt 0.792846 0.627683
vt 0.796230 0.593669
vt 0.800181 0.553349
vt 0.779082 0.753119
vt 0.781475 0.731007
vt 0.763672 0.627443
vt 0.760306 0.593506
vt 0.756301 0.553349
vt 0.774781 0.753091
vt 0.772805 0.730965
vt 0.770748 0.708017
vt 0.768707 0.683618
vt 0.766148 0.657081
vt 0.751008 0.686958
vt 0.743301 0.661468
vt 0.735071 0.632929
vt 0.725139 0.600373
vt 0.713403 0.561875
vt 0.770559 0.753904
vt 0.764303 0.732616
vt 0.757784 0.710486
vt 0.692059 0.613954
vt 0.673079 0.578550
vt 0.766576 0.755527
vt 0.756259 0.735837
vt 0.745562 0.715451
vt 0.734308 0.693701
vt 0.721781 0.670238
vt 0.708139 0.643895
vt 0.719246 0.703575
vt 0.702420 0.683039
vt 0.683904 0.659895
vt 0.662310 0.633701
vt 0.636827 0.602712
vt 0.762989 0.757895
vt 0.749037 0.740623
vt 0.734553 0.722701
vt 0.637008 0.658844
vt 0.605998 0.633435
vt 0.759934 0.760918
vt 0.742900 0.746722
vt 0.725177 0.731976
vt 0.706372 0.716200
vt 0.685977 0.699365
vt 0.663282 0.680299
vt 0.696469 0.731189
vt 0.672956 0.718569
vt 0.647037 0.704326
vt 0.617103 0.688425
vt 0.581751 0.669562
vt 0.757528 0.764479
vt 0.738014 0.753869
vt 0.717818 0.742902
vt 0.734677 0.761856
vt 0.712722 0.755028
vt 0.689456 0.747683
vt 0.664008 0.739985
vt 0.635806 0.731068
vt 0.603361 0.721315
vt 0.565024 0.709719
vt 0.755866 0.768440
vt 0.630019 0.759461
vt 0.596312 0.756233
vt 0.556469 0.752352
vt 0.755010 0.772647
vt 0.732964 0.770332
vt 0.710090 0.767918
vt 0.685828 0.765254
vt 0.659406 0.762697
vt 0.732942 0.778970
vt 0.710023 0.781081
vt 0.685713 0.783198
vt 0.659324 0.785852
vt 0.629888 0.788417
vt 0.596221 0.791834
vt 0.556412 0.795810
vt 0.754991 0.776938
vt 0.635411 0.816821
vt 0.603082 0.826742
vt 0.564843 0.838410
vt 0.755811 0.781150
vt 0.734542 0.787466
vt 0.712531 0.793993
vt 0.689107 0.800811
vt 0.663761 0.808563
vt 0.717498 0.806156
vt 0.695871 0.817412
vt 0.672542 0.829957
vt 0.646368 0.843583
vt 0.616618 0.859615
vt 0.581421 0.878513
vt 0.757424 0.785127
vt 0.737828 0.795462
vt 0.662327 0.867674
vt 0.636299 0.889191
vt 0.605493 0.914579
vt 0.759782 0.788712
vt 0.742604 0.802648
vt 0.724747 0.817120
vt 0.705741 0.832368
vt 0.685322 0.849213
vt 0.733993 0.826447
vt 0.718333 0.845101
vt 0.701604 0.865594
vt 0.682668 0.888173
vt 0.661357 0.914336
vt 0.636121 0.945226
vt 0.762794 0.791769
vt 0.748640 0.808807
vt 0.706601 0.904294
vt 0.690819 0.934091
vt 0.672113 0.969285
vt 0.766352 0.794169
vt 0.755800 0.813610
vt 0.744867 0.833792
vt 0.733157 0.855127
vt 0.720756 0.878474
vt 0.749641 0.862063
vt 0.742038 0.887363
vt 0.733199 0.915428
vt 0.723543 0.947704
vt 0.712077 0.985839
vt 0.770310 0.795829
vt 0.763736 0.816988
vt 0.756961 0.838863
vt 0.758265 0.954663
vt 0.754466 0.994266
vt 0.774512 0.796686
vt 0.772190 0.818692
vt 0.769798 0.841483
vt 0.767149 0.865649
vt 0.764628 0.891928
vt 0.761435 0.921153
vt 0.785012 0.865755
vt 0.787658 0.892001
vt 0.790221 0.921263
vt 0.793644 0.954714
vt 0.797643 0.994254
vt 0.778799 0.796707
vt 0.780802 0.818715
vt 0.782906 0.841550
vt 0.783008 0.795894
vt 0.789269 0.817124
vt 0.795766 0.839058
vt 0.802543 0.862380
vt 0.810242 0.887590
vt 0.818449 0.915764
vt 0.828316 0.947870
vt 0.839939 0.985822
vt 0.819070 0.855663
vt 0.831517 0.878874
vt 0.845037 0.904884
vt 0.860947 0.934413
vt 0.879722 0.969315
vt 0.786976 0.794276
vt 0.797236 0.813854
vt 0.807886 0.834121
vt 0.790551 0.791918
vt 0.804400 0.809099
vt 0.818823 0.826915
vt 0.833969 0.845866
vt 0.850673 0.866199
vt 0.868970 0.889060
vt 0.890286 0.914887
vt 0.915454 0.945398
vt 0.889347 0.868918
vt 0.915220 0.890073
vt 0.945763 0.915033
vt 0.793600 0.788910
vt 0.810544 0.803086
vt 0.828147 0.817721
vt 0.846676 0.833369
vt 0.866986 0.850062
vt 0.815402 0.795981
vt 0.835498 0.806905
vt 0.856713 0.818655
vt 0.879843 0.831090
vt 0.905415 0.845250
vt 0.934822 0.860964
vt 0.969489 0.879447
vt 0.796006 0.785365
vt 0.916617 0.818970
vt 0.948413 0.828716
vt 0.985752 0.840103
vt 0.797674 0.781418
vt 0.818789 0.788058
vt 0.840595 0.794877
vt 0.863718 0.802277
vt 0.888760 0.810016
vt 0.820515 0.779620
vt 0.843246 0.782090
vt 0.867464 0.784821
vt 0.893368 0.787665
vt 0.922626 0.791038
vt 0.955617 0.794565
vt 0.994019 0.798669
vt 0.798556 0.777222
vt 0.046268 0.613452
vt 0.083905 0.224321
vt 0.083906 0.586753
vt 0.046268 0.197622
vt 0.456413 0.170102
vt 0.494051 0.082678
vt 0.456413 0.640972
vt 0.494051 0.728397
vt 0.563585 0.455926
vt 0.007576 0.405537
vt 0.634273 0.222900
vt 0.602152 0.262040
vt 0.578283 0.306695
vt 0.602152 0.549034
vt 0.634273 0.588174
vt 0.578283 0.504379
vt 0.563585 0.355148
vt 0.558622 0.405537
vt 0.334721 0.039504
vt 0.357448 0.006694
vt 0.357448 0.804380
vt 0.334722 0.771571
vt 0.306031 0.743825
vt 0.306031 0.067249
vt 0.272479 0.088864
vt 0.272479 0.722210
vt 0.235355 0.707556
vt 0.235355 0.103518
vt 0.176568 0.691226
vt 0.176568 0.119848
vt 0.119410 0.135917
vt 0.119410 0.675157
vt 0.069235 0.653731
vt 0.069235 0.157343
vt 0.033501 0.188090
vt 0.033501 0.622984
vt 0.013757 0.580162
vt 0.013757 0.230912
vt 0.006928 0.285072
vt 0.006928 0.526002
vt 0.007158 0.466590
vt 0.007158 0.344484
s 0
usemtl マテリアル
f 5/1/1 18/2/1 19/3/1
f 5/1/2 20/4/2 8/5/2
f 262/6/3 53/7/3 10/8/3
f 263/9/4 10/8/4 11/10/4
f 1/11/5 11/10/5 13/12/5
f 264/13/6 13/12/6 15/14/6
f 3/15/7 15/14/7 17/16/7
f 265/17/8 17/16/8 18/2/8
f 15/14/9 25/18/9 17/16/9
f 17/16/10 26/19/10 18/2/10
f 19/3/11 26/19/11 27/20/11
f 19/3/12 28/21/12 20/4/12
f 10/8/13 53/7/13 21/22/13
f 10/8/14 22/23/14 11/10/14
f 11/10/15 23/24/15 13/12/15
f 13/12/16 24/25/16 15/14/16
f 21/22/17 30/26/17 22/23/17
f 22/23/18 31/27/18 23/24/18
f 23/24/19 32/28/19 24/25/19
f 24/25/20 33/29/20 25/18/20
f 25/18/21 34/30/21 26/19/21
f 26/19/22 35/31/22 27/20/22
f 27/20/23 36/32/23 28/21/23
f 21/22/24 53/7/24 29/33/24
f 33/29/25 42/34/25 34/30/25
f 35/31/26 42/34/26 43/35/26
f 44/36/27 35/31/27 43/35/27
f 29/33/28 53/7/28 37/37/28
f 29/33/29 38/38/29 30/26/29
f 30/26/30 39/39/30 31/27/30
f 31/27/31 40/40/31 32/28/31
f 32/28/32 41/41/32 33/29/32
f 38/38/33 47/42/33 39/39/33
f 39/39/34 48/43/34 40/40/34
f 41/41/35 48/43/35 49/44/35
f 41/41/36 50/45/36 42/34/36
f 43/35/37 50/45/37 51/46/37
f 44/36/38 51/46/38 52/47/38
f 37/37/39 53/7/39 45/48/39
f 37/37/40 46/49/40 38/38/40
f 51/46/41 59/50/41 60/51/41
f 52/47/42 60/51/42 61/52/42
f 45/48/43 53/7/43 54/53/43
f 45/48/44 55/54/44 46/49/44
f 46/49/45 56/55/45 47/42/45
f 47/42/46 57/56/46 48/43/46
f 49/44/47 57/56/47 58/57/47
f 49/44/48 59/50/48 50/45/48
f 55/54/49 64/58/49 56/55/49
f 56/55/50 65/59/50 57/56/50
f 58/57/51 65/59/51 66/60/51
f 58/57/52 67/61/52 59/50/52
f 60/51/53 67/61/53 68/62/53
f 61/52/54 68/62/54 69/63/54
f 54/53/55 53/7/55 62/64/55
f 55/54/56 62/64/56 63/65/56
f 68/62/57 75/66/57 76/67/57
f 69/63/58 76/67/58 77/68/58
f 62/64/59 53/7/59 70/69/59
f 63/65/60 70/69/60 71/70/60
f 63/65/61 72/71/61 64/58/61
f 64/58/62 73/72/62 65/59/62
f 66/60/63 73/72/63 74/73/63
f 66/60/64 75/66/64 67/61/64
f 72/71/65 81/74/65 73/72/65
f 74/73/66 81/74/66 82/75/66
f 74/73/67 83/76/67 75/66/67
f 76/67/68 83/76/68 84/77/68
f 77/68/69 84/77/69 85/78/69
f 70/69/70 53/7/70 78/79/70
f 70/69/71 79/80/71 71/70/71
f 71/70/72 80/81/72 72/71/72
f 85/78/73 92/82/73 93/83/73
f 78/79/74 53/7/74 86/84/74
f 78/79/75 87/85/75 79/80/75
f 80/81/76 87/85/76 88/86/76
f 80/81/77 89/87/77 81/74/77
f 82/75/78 89/87/78 90/88/78
f 82/75/79 91/89/79 83/76/79
f 84/77/80 91/89/80 92/82/80
f 88/86/81 97/90/81 89/87/81
f 90/88/82 97/90/82 98/91/82
f 90/88/83 99/92/83 91/89/83
f 92/82/84 99/92/84 100/93/84
f 93/83/85 100/93/85 101/94/85
f 86/84/86 53/7/86 94/95/86
f 86/84/87 95/96/87 87/85/87
f 88/86/88 95/96/88 96/97/88
f 101/94/89 108/98/89 109/99/89
f 94/95/90 53/7/90 102/100/90
f 94/95/91 103/101/91 95/96/91
f 95/96/92 104/102/92 96/97/92
f 96/97/93 105/103/93 97/90/93
f 98/91/94 105/103/94 106/104/94
f 98/91/95 107/105/95 99/92/95
f 100/93/96 107/105/96 108/98/96
f 106/104/97 113/106/97 114/107/97
f 106/104/98 115/108/98 107/105/98
f 108/98/99 115/108/99 116/109/99
f 109/99/100 116/109/100 117/110/100
f 102/100/101 53/7/101 110/111/101
f 103/101/102 110/111/102 111/112/102
f 104/102/103 111/112/103 112/113/103
f 104/102/104 113/106/104 105/103/104
f 110/111/105 119/114/105 111/112/105
f 111/112/106 120/115/106 112/113/106
f 112/113/107 121/116/107 113/106/107
f 114/107/108 121/116/108 122/117/108
f 114/107/109 123/118/109 115/108/109
f 116/109/110 123/118/110 124/119/110
f 117/110/111 124/119/111 125/120/111
f 110/111/112 53/7/112 118/121/112
f 122/117/113 131/122/113 123/118/113
f 124/119/114 131/122/114 132/123/114
f 125/120/115 132/123/115 133/124/115
f 118/121/116 53/7/116 126/125/116
f 118/121/117 127/126/117 119/114/117
f 119/114/118 128/127/118 120/115/118
f 120/115/119 129/128/119 121/116/119
f 122/117/120 129/128/120 130/129/120
f 126/125/121 135/130/121 127/126/121
f 128/127/122 135/130/122 136/131/122
f 128/127/123 137/132/123 129/128/123
f 130/129/124 137/132/124 138/133/124
f 130/129/125 139/134/125 131/122/125
f 132/123/126 139/134/126 140/135/126
f 133/124/127 140/135/127 141/136/127
f 126/125/128 53/7/128 134/137/128
f 138/133/129 147/138/129 139/134/129
f 140/135/130 147/138/130 148/139/130
f 141/136/131 148/139/131 149/140/131
f 134/137/132 53/7/132 142/141/132
f 134/137/133 143/142/133 135/130/133
f 135/130/134 144/143/134 136/131/134
f 136/131/135 145/144/135 137/132/135
f 138/133/136 145/144/136 146/145/136
f 143/142/137 152/146/137 144/143/137
f 144/143/138 153/147/138 145/144/138
f 146/145/139 153/147/139 154/148/139
f 146/145/140 155/149/140 147/138/140
f 148/139/141 155/149/141 156/150/141
f 149/140/142 156/150/142 157/151/142
f 142/141/143 53/7/143 150/152/143
f 143/142/144 150/152/144 151/153/144
f 156/150/145 163/154/145 164/155/145
f 157/151/146 164/155/146 165/156/146
f 150/152/147 53/7/147 158/157/147
f 151/153/148 158/157/148 159/158/148
f 151/153/149 160/159/149 152/146/149
f 152/146/150 161/160/150 153/147/150
f 154/148/151 161/160/151 162/161/151
f 154/148/152 163/154/152 155/149/152
f 159/158/153 168/162/153 160/159/153
f 160/159/154 169/163/154 161/160/154
f 162/161/155 169/163/155 170/164/155
f 162/161/156 171/165/156 163/154/156
f 164/155/157 171/165/157 172/166/157
f 165/156/158 172/166/158 173/167/158
f 158/157/159 53/7/159 166/168/159
f 158/157/160 167/169/160 159/158/160
f 172/166/161 179/170/161 180/171/161
f 173/167/162 180/171/162 181/172/162
f 166/168/163 53/7/163 174/173/163
f 166/168/164 175/174/164 167/169/164
f 167/169/165 176/175/165 168/162/165
f 168/162/166 177/176/166 169/163/166
f 170/164/167 177/176/167 178/177/167
f 170/164/168 179/170/168 171/165/168
f 176/175/169 185/178/169 177/176/169
f 177/176/170 186/179/170 178/177/170
f 178/177/171 187/180/171 179/170/171
f 180/171/172 187/180/172 188/181/172
f 181/172/173 188/181/173 189/182/173
f 174/173/174 53/7/174 182/183/174
f 174/173/175 183/184/175 175/174/175
f 175/174/176 184/185/176 176/175/176
f 189/182/177 196/186/177 197/187/177
f 182/183/178 53/7/178 190/188/178
f 182/183/179 191/189/179 183/184/179
f 183/184/180 192/190/180 184/185/180
f 184/185/181 193/191/181 185/178/181
f 186/179/182 193/191/182 194/192/182
f 186/179/183 195/193/183 187/180/183
f 188/181/184 195/193/184 196/186/184
f 194/192/185 201/194/185 202/195/185
f 194/192/186 203/196/186 195/193/186
f 196/186/187 203/196/187 204/197/187
f 197/187/188 204/197/188 205/198/188
f 190/188/189 53/7/189 198/199/189
f 190/188/190 199/200/190 191/189/190
f 192/190/191 199/200/191 200/201/191
f 192/190/192 201/194/192 193/191/192
f 198/199/193 53/7/193 206/202/193
f 198/199/194 207/203/194 199/200/194
f 200/201/195 207/203/195 208/204/195
f 200/201/196 209/205/196 201/194/196
f 202/195/197 209/205/197 210/206/197
f 202/195/198 211/207/198 203/196/198
f 204/197/199 211/207/199 212/208/199
f 205/198/200 212/208/200 213/209/200
f 210/206/201 217/210/201 218/211/201
f 210/206/202 219/212/202 211/207/202
f 212/208/203 219/212/203 220/213/203
f 213/209/204 220/213/204 221/214/204
f 206/202/205 53/7/205 214/215/205
f 206/202/206 215/216/206 207/203/206
f 208/204/207 215/216/207 216/217/207
f 208/204/208 217/210/208 209/205/208
f 215/216/209 222/218/209 223/219/209
f 215/216/210 224/220/210 216/217/210
f 216/217/211 225/221/211 217/210/211
f 218/211/212 225/221/212 226/222/212
f 218/211/213 227/223/213 219/212/213
f 220/213/214 227/223/214 228/224/214
f 221/214/215 228/224/215 229/225/215
f 214/215/216 53/7/216 222/218/216
f 226/222/217 235/226/217 227/223/217
f 228/224/218 235/226/218 236/227/218
f 229/225/219 236/227/219 237/228/219
f 222/218/220 53/7/220 230/229/220
f 222/218/221 231/230/221 223/219/221
f 224/220/222 231/230/222 232/231/222
f 224/220/223 233/232/223 225/221/223
f 226/222/224 233/232/224 234/233/224
f 230/229/225 239/234/225 231/230/225
f 232/231/226 239/234/226 240/235/226
f 232/231/227 241/236/227 233/232/227
f 234/233/228 241/236/228 242/237/228
f 234/233/229 243/238/229 235/226/229
f 236/227/230 243/238/230 244/239/230
f 237/228/231 244/239/231 245/240/231
f 230/229/232 53/7/232 238/241/232
f 242/237/233 251/242/233 243/238/233
f 244/239/234 251/242/234 252/243/234
f 245/240/235 252/243/235 253/244/235
f 238/241/236 53/7/236 246/245/236
f 239/234/237 246/245/237 247/246/237
f 239/234/238 248/247/238 240/235/238
f 240/235/239 249/248/239 241/236/239
f 242/237/240 249/248/240 250/249/240
f 248/247/241 255/250/241 256/251/241
f 248/247/242 257/252/242 249/248/242
f 250/249/243 257/252/243 258/253/243
f 250/249/244 259/254/244 251/242/244
f 252/243/245 259/254/245 260/255/245
f 253/244/246 260/255/246 261/256/246
f 246/245/247 53/7/247 254/257/247
f 246/245/248 255/250/248 247/246/248
f 260/255/249 265/17/249 5/1/249
f 261/256/250 5/1/250 8/5/250
f 254/257/251 53/7/251 262/6/251
f 255/250/252 262/6/252 263/9/252
f 256/251/253 263/9/253 1/11/253
f 257/252/254 1/11/254 264/13/254
f 258/253/255 264/13/255 3/15/255
f 259/254/256 3/15/256 265/17/256
f 4/258/257 6/259/257 2/260/257
f 7/261/258 14/262/258 6/259/258
f 16/263/259 9/264/259 14/262/259
f 12/265/260 2/260/260 9/264/260
f 14/262/261 2/260/261 6/259/261
f 85/266/262 12/265/262 16/263/262
f 7/261/262 4/258/262 205/267/262
f 5/1/1 265/17/1 18/2/1
f 5/1/2 19/3/2 20/4/2
f 263/9/4 262/6/4 10/8/4
f 1/11/5 263/9/5 11/10/5
f 264/13/6 1/11/6 13/12/6
f 3/15/7 264/13/7 15/14/7
f 265/17/8 3/15/8 17/16/8
f 15/14/9 24/25/9 25/18/9
f 17/16/10 25/18/10 26/19/10
f 19/3/263 18/2/263 26/19/263
f 19/3/12 27/20/12 28/21/12
f 10/8/14 21/22/14 22/23/14
f 11/10/15 22/23/15 23/24/15
f 13/12/16 23/24/16 24/25/16
f 21/22/17 29/33/17 30/26/17
f 22/23/18 30/26/18 31/27/18
f 23/24/19 31/27/19 32/28/19
f 24/25/20 32/28/20 33/29/20
f 25/18/21 33/29/21 34/30/21
f 26/19/22 34/30/22 35/31/22
f 27/20/23 35/31/23 36/32/23
f 33/29/25 41/41/25 42/34/25
f 35/31/26 34/30/26 42/34/26
f 44/36/27 36/32/27 35/31/27
f 29/33/29 37/37/29 38/38/29
f 30/26/30 38/38/30 39/39/30
f 31/27/31 39/39/31 40/40/31
f 32/28/32 40/40/32 41/41/32
f 38/38/33 46/49/33 47/42/33
f 39/39/34 47/42/34 48/43/34
f 41/41/35 40/40/35 48/43/35
f 41/41/36 49/44/36 50/45/36
f 43/35/37 42/34/37 50/45/37
f 44/36/38 43/35/38 51/46/38
f 37/37/40 45/48/40 46/49/40
f 51/46/41 50/45/41 59/50/41
f 52/47/42 51/46/42 60/51/42
f 45/48/44 54/53/44 55/54/44
f 46/49/45 55/54/45 56/55/45
f 47/42/46 56/55/46 57/56/46
f 49/44/47 48/43/47 57/56/47
f 49/44/48 58/57/48 59/50/48
f 55/54/49 63/65/49 64/58/49
f 56/55/50 64/58/50 65/59/50
f 58/57/51 57/56/51 65/59/51
f 58/57/52 66/60/52 67/61/52
f 60/51/53 59/50/53 67/61/53
f 61/52/54 60/51/54 68/62/54
f 55/54/56 54/53/56 62/64/56
f 68/62/57 67/61/57 75/66/57
f 69/63/58 68/62/58 76/67/58
f 63/65/60 62/64/60 70/69/60
f 63/65/61 71/70/61 72/71/61
f 64/58/62 72/71/62 73/72/62
f 66/60/63 65/59/63 73/72/63
f 66/60/64 74/73/64 75/66/64
f 72/71/65 80/81/65 81/74/65
f 74/73/66 73/72/66 81/74/66
f 74/73/67 82/75/67 83/76/67
f 76/67/68 75/66/68 83/76/68
f 77/68/69 76/67/69 84/77/69
f 70/69/71 78/79/71 79/80/71
f 71/70/72 79/80/72 80/81/72
f 85/78/73 84/77/73 92/82/73
f 78/79/75 86/84/75 87/85/75
f 80/81/76 79/80/76 87/85/76
f 80/81/77 88/86/77 89/87/77
f 82/75/78 81/74/78 89/87/78
f 82/75/79 90/88/79 91/89/79
f 84/77/80 83/76/80 91/89/80
f 88/86/81 96/97/81 97/90/81
f 90/88/82 89/87/82 97/90/82
f 90/88/83 98/91/83 99/92/83
f 92/82/84 91/89/84 99/92/84
f 93/83/85 92/82/85 100/93/85
f 86/84/87 94/95/87 95/96/87
f 88/86/88 87/85/88 95/96/88
f 101/94/89 100/93/89 108/98/89
f 94/95/91 102/100/91 103/101/91
f 95/96/92 103/101/92 104/102/92
f 96/97/93 104/102/93 105/103/93
f 98/91/94 97/90/94 105/103/94
f 98/91/95 106/104/95 107/105/95
f 100/93/96 99/92/96 107/105/96
f 106/104/97 105/103/97 113/106/97
f 106/104/98 114/107/98 115/108/98
f 108/98/99 107/105/99 115/108/99
f 109/99/100 108/98/100 116/109/100
f 103/101/102 102/100/102 110/111/102
f 104/102/103 103/101/103 111/112/103
f 104/102/104 112/113/104 113/106/104
f 110/111/105 118/121/105 119/114/105
f 111/112/106 119/114/106 120/115/106
f 112/113/107 120/115/107 121/116/107
f 114/107/108 113/106/108 121/116/108
f 114/107/109 122/117/109 123/118/109
f 116/109/110 115/108/110 123/118/110
f 117/110/111 116/109/111 124/119/111
f 122/117/113 130/129/113 131/122/113
f 124/119/114 123/118/114 131/122/114
f 125/120/115 124/119/115 132/123/115
f 118/121/117 126/125/117 127/126/117
f 119/114/118 127/126/118 128/127/118
f 120/115/119 128/127/119 129/128/119
f 122/117/120 121/116/120 129/128/120
f 126/125/121 134/137/121 135/130/121
f 128/127/122 127/126/122 135/130/122
f 128/127/123 136/131/123 137/132/123
f 130/129/124 129/128/124 137/132/124
f 130/129/125 138/133/125 139/134/125
f 132/123/126 131/122/126 139/134/126
f 133/124/127 132/123/127 140/135/127
f 138/133/129 146/145/129 147/138/129
f 140/135/130 139/134/130 147/138/130
f 141/136/131 140/135/131 148/139/131
f 134/137/133 142/141/133 143/142/133
f 135/130/134 143/142/134 144/143/134
f 136/131/135 144/143/135 145/144/135
f 138/133/136 137/132/136 145/144/136
f 143/142/137 151/153/137 152/146/137
f 144/143/138 152/146/138 153/147/138
f 146/145/139 145/144/139 153/147/139
f 146/145/140 154/148/140 155/149/140
f 148/139/141 147/138/141 155/149/141
f 149/140/142 148/139/142 156/150/142
f 143/142/144 142/141/144 150/152/144
f 156/150/145 155/149/145 163/154/145
f 157/151/146 156/150/146 164/155/146
f 151/153/148 150/152/148 158/157/148
f 151/153/149 159/158/149 160/159/149
f 152/146/150 160/159/150 161/160/150
f 154/148/151 153/147/151 161/160/151
f 154/148/152 162/161/152 163/154/152
f 159/158/153 167/169/153 168/162/153
f 160/159/154 168/162/154 169/163/154
f 162/161/155 161/160/155 169/163/155
f 162/161/156 170/164/156 171/165/156
f 164/155/157 163/154/157 171/165/157
f 165/156/158 164/155/158 172/166/158
f 158/157/160 166/168/160 167/169/160
f 172/166/161 171/165/161 179/170/161
f 173/167/162 172/166/162 180/171/162
f 166/168/164 174/173/164 175/174/164
f 167/169/165 175/174/165 176/175/165
f 168/162/166 176/175/166 177/176/166
f 170/164/167 169/163/167 177/176/167
f 170/164/168 178/177/168 179/170/168
f 176/175/169 184/185/169 185/178/169
f 177/176/170 185/178/170 186/179/170
f 178/177/171 186/179/171 187/180/171
f 180/171/172 179/170/172 187/180/172
f 181/172/173 180/171/173 188/181/173
f 174/173/175 182/183/175 183/184/175
f 175/174/176 183/184/176 184/185/176
f 189/182/177 188/181/177 196/186/177
f 182/183/179 190/188/179 191/189/179
f 183/184/180 191/189/180 192/190/180
f 184/185/181 192/190/181 193/191/181
f 186/179/182 185/178/182 193/191/182
f 186/179/183 194/192/183 195/193/183
f 188/181/184 187/180/184 195/193/184
f 194/192/185 193/191/185 201/194/185
f 194/192/186 202/195/186 203/196/186
f 196/186/187 195/193/187 203/196/187
f 197/187/188 196/186/188 204/197/188
f 190/188/190 198/199/190 199/200/190
f 192/190/191 191/189/191 199/200/191
f 192/190/192 200/201/192 201/194/192
f 198/199/194 206/202/194 207/203/194
f 200/201/195 199/200/195 207/203/195
f 200/201/196 208/204/196 209/205/196
f 202/195/197 201/194/197 209/205/197
f 202/195/198 210/206/198 211/207/198
f 204/197/199 203/196/199 211/207/199
f 205/198/200 204/197/200 212/208/200
f 210/206/201 209/205/201 217/210/201
f 210/206/202 218/211/202 219/212/202
f 212/208/203 211/207/203 219/212/203
f 213/209/204 212/208/204 220/213/204
f 206/202/206 214/215/206 215/216/206
f 208/204/207 207/203/207 215/216/207
f 208/204/208 216/217/208 217/210/208
f 215/216/209 214/215/209 222/218/209
f 215/216/210 223/219/210 224/220/210
f 216/217/211 224/220/211 225/221/211
f 218/211/212 217/210/212 225/221/212
f 218/211/213 226/222/213 227/223/213
f 220/213/214 219/212/214 227/223/214
f 221/214/215 220/213/215 228/224/215
f 226/222/217 234/233/217 235/226/217
f 228/224/218 227/223/218 235/226/218
f 229/225/219 228/224/219 236/227/219
f 222/218/221 230/229/221 231/230/221
f 224/220/222 223/219/222 231/230/222
f 224/220/223 232/231/223 233/232/223
f 226/222/224 225/221/224 233/232/224
f 230/229/225 238/241/225 239/234/225
f 232/231/226 231/230/226 239/234/226
f 232/231/227 240/235/227 241/236/227
f 234/233/228 233/232/228 241/236/228
f 234/233/229 242/237/229 243/238/229
f 236/227/230 235/226/230 243/238/230
f 237/228/231 236/227/231 244/239/231
f 242/237/233 250/249/233 251/242/233
f 244/239/234 243/238/234 251/242/234
f 245/240/235 244/239/235 252/243/235
f 239/234/237 238/241/237 246/245/237
f 239/234/238 247/246/238 248/247/238
f 240/235/239 248/247/239 249/248/239
f 242/237/240 241/236/240 249/248/240
f 248/247/241 247/246/241 255/250/241
f 248/247/242 256/251/242 257/252/242
f 250/249/243 249/248/243 257/252/243
f 250/249/244 258/253/244 259/254/244
f 252/243/245 251/242/245 259/254/245
f 253/244/246 252/243/246 260/255/246
f 246/245/248 254/257/248 255/250/248
f 260/255/249 259/254/249 265/17/249
f 261/256/250 260/255/250 5/1/250
f 255/250/252 254/257/252 262/6/252
f 256/251/253 255/250/253 263/9/253
f 257/252/254 256/251/254 1/11/254
f 258/253/255 257/252/255 264/13/255
f 259/254/256 258/253/256 3/15/256
f 4/258/257 7/261/257 6/259/257
f 7/261/258 16/263/258 14/262/258
f 16/263/259 12/265/259 9/264/259
f 12/265/260 4/258/260 2/260/260
f 14/262/261 9/264/261 2/260/261
f 16/263/262 44/268/262 52/269/262
f 16/263/262 52/269/262 61/270/262
f 101/271/262 109/272/262 12/265/262
f 93/273/262 101/271/262 12/265/262
f 16/263/262 61/270/262 69/274/262
f 16/263/262 69/274/262 77/275/262
f 85/266/262 93/273/262 12/265/262
f 16/263/262 77/275/262 85/266/262
f 36/276/262 44/277/262 16/263/262
f 12/265/262 109/278/262 117/279/262
f 12/265/262 117/279/262 125/280/262
f 28/281/262 36/276/262 16/263/262
f 20/282/262 28/281/262 16/263/262
f 12/265/262 125/280/262 133/283/262
f 12/265/262 133/283/262 141/284/262
f 20/282/262 16/263/262 7/261/262
f 8/285/262 20/282/262 7/261/262
f 4/258/262 12/265/262 141/284/262
f 4/258/262 141/284/262 149/286/262
f 261/287/262 8/285/262 7/261/262
f 253/288/262 261/287/262 7/261/262
f 4/258/262 149/286/262 157/289/262
f 4/258/262 157/289/262 165/290/262
f 245/291/262 253/288/262 7/261/262
f 237/292/262 245/291/262 7/261/262
f 4/258/262 165/290/262 173/293/262
f 4/258/262 173/293/262 181/294/262
f 229/295/262 237/292/262 7/261/262
f 221/296/262 229/295/262 7/261/262
f 4/258/262 181/294/262 189/297/262
f 4/258/262 189/297/262 197/298/262
f 213/299/262 221/296/262 7/261/262
f 4/258/262 197/298/262 205/267/262
f 205/267/262 213/299/262 7/261/262
