# Blender 4.4.3
# www.blender.org
mtllib GoalPost.mtl
o GoalPost
v 0.000000 -0.333706 0.277785
v 0.000000 -0.388886 0.415735
v 0.000000 0.500000 0.050000
v 0.000000 -0.460982 0.490393
v -0.200000 0.400000 0.025000
v -0.200000 0.400000 -0.025000
v 0.000000 -0.500000 0.500000
v -0.009755 0.500000 0.049039
v -0.019030 -0.303843 0.095671
v -0.037329 -0.315224 0.187665
v -0.019134 0.500000 0.046194
v -0.054193 -0.333706 0.272448
v -0.068975 -0.358579 0.346760
v -0.027779 0.500000 0.041573
v -0.081106 -0.388886 0.407747
v -0.035355 0.500000 0.035355
v -0.090120 -0.423463 0.453064
v -0.095671 -0.460982 0.480970
v -0.041573 0.500000 0.027779
v -0.097545 -0.500000 0.490393
v -0.037329 -0.303843 0.090120
v -0.046194 0.500000 0.019134
v -0.073223 -0.315224 0.176777
v -0.106304 -0.333706 0.256640
v -0.135299 -0.358579 0.326641
v -0.049039 0.500000 0.009755
v -0.159095 -0.388886 0.384089
v -0.176777 -0.423463 0.426777
v -0.050000 0.500000 0.000000
v -0.187665 -0.460982 0.453064
v -0.191342 -0.500000 0.461940
v -0.049039 0.500000 -0.009755
v -0.054193 -0.303843 0.081106
v -0.106304 -0.315224 0.159095
v -0.046194 0.500000 -0.019134
v -0.154329 -0.333706 0.230970
v -0.196424 -0.358579 0.293969
v -0.041573 0.500000 -0.027779
v -0.230970 -0.388886 0.345671
v -0.256640 -0.423463 0.384089
v -0.035355 0.500000 -0.035355
v -0.272448 -0.460982 0.407747
v -0.277785 -0.500000 0.415735
v -0.027779 0.500000 -0.041573
v -0.068975 -0.303843 0.068975
v -0.135299 -0.315224 0.135299
v -0.019134 0.500000 -0.046194
v -0.196424 -0.333706 0.196424
v -0.009755 0.500000 -0.049039
v -0.250000 -0.358579 0.250000
v -0.293969 -0.388886 0.293969
v 0.000000 0.500000 -0.050000
v -0.326641 -0.423463 0.326641
v -0.346760 -0.460982 0.346760
v 0.009755 0.500000 -0.049039
v -0.353553 -0.500000 0.353553
v -0.081106 -0.303843 0.054193
v -0.159095 -0.315224 0.106304
v 0.019134 0.500000 -0.046194
v -0.230970 -0.333706 0.154329
v -0.293969 -0.358579 0.196424
v 0.027779 0.500000 -0.041573
v -0.345671 -0.388886 0.230970
v -0.384089 -0.423463 0.256640
v 0.035355 0.500000 -0.035355
v -0.407747 -0.460982 0.272447
v -0.415735 -0.500000 0.277785
v 0.041573 0.500000 -0.027779
v -0.090120 -0.303843 0.037329
v 0.046194 0.500000 -0.019134
v -0.176777 -0.315224 0.073223
v -0.256640 -0.333706 0.106304
v 0.049039 0.500000 -0.009755
v -0.326641 -0.358579 0.135299
v -0.384089 -0.388886 0.159095
v 0.050000 0.500000 0.000000
v -0.426777 -0.423463 0.176777
v -0.453064 -0.460982 0.187665
v 0.049039 0.500000 0.009755
v -0.461940 -0.500000 0.191342
v -0.095671 -0.303843 0.019030
v 0.046194 0.500000 0.019134
v -0.187665 -0.315224 0.037329
v -0.272448 -0.333706 0.054193
v 0.041573 0.500000 0.027779
v -0.346760 -0.358579 0.068975
v -0.407746 -0.388886 0.081106
v 0.035355 0.500000 0.035355
v -0.453064 -0.423463 0.090120
v -0.480970 -0.460982 0.095671
v 0.027779 0.500000 0.041573
v -0.490393 -0.500000 0.097545
v 0.019134 0.500000 0.046194
v -0.097545 -0.303843 -0.000000
v -0.191342 -0.315224 -0.000000
v 0.009755 0.500000 0.049039
v -0.277785 -0.333706 -0.000000
v -0.353553 -0.358579 0.000000
v -0.415735 -0.388886 -0.000000
v -0.461940 -0.423463 0.000000
v -0.490393 -0.460982 -0.000000
v -0.500000 -0.500000 -0.000000
v -0.095671 -0.303843 -0.019030
v -0.187665 -0.315224 -0.037329
v -0.272447 -0.333706 -0.054193
v -0.346760 -0.358579 -0.068975
v -0.407746 -0.388886 -0.081106
v -0.453064 -0.423463 -0.090120
v -0.480970 -0.460982 -0.095671
v -0.490392 -0.500000 -0.097545
v -0.090120 -0.303843 -0.037329
v -0.176777 -0.315224 -0.073223
v -0.256640 -0.333706 -0.106304
v -0.326641 -0.358579 -0.135299
v -0.384089 -0.388886 -0.159095
v -0.426777 -0.423463 -0.176777
v -0.453064 -0.460982 -0.187665
v -0.461940 -0.500000 -0.191342
v -0.081106 -0.303843 -0.054193
v -0.159095 -0.315224 -0.106304
v -0.230970 -0.333706 -0.154329
v -0.293969 -0.358579 -0.196424
v -0.345671 -0.388886 -0.230970
v -0.384089 -0.423463 -0.256640
v -0.407746 -0.460982 -0.272448
v -0.415735 -0.500000 -0.277785
v -0.068975 -0.303843 -0.068975
v -0.135299 -0.315224 -0.135299
v -0.196424 -0.333706 -0.196424
v -0.250000 -0.358579 -0.250000
v -0.293969 -0.388886 -0.293969
v -0.326641 -0.423463 -0.326641
v -0.346760 -0.460982 -0.346760
v -0.353553 -0.500000 -0.353553
v -0.054193 -0.303843 -0.081106
v -0.106304 -0.315224 -0.159095
v -0.154329 -0.333706 -0.230970
v -0.196424 -0.358579 -0.293969
v -0.230970 -0.388886 -0.345671
v -0.256640 -0.423463 -0.384089
v -0.272447 -0.460982 -0.407746
v -0.277785 -0.500000 -0.415735
v -0.037329 -0.303843 -0.090120
v -0.073223 -0.315224 -0.176777
v -0.106304 -0.333706 -0.256640
v -0.135299 -0.358579 -0.326641
v -0.159095 -0.388886 -0.384089
v -0.176777 -0.423463 -0.426777
v -0.187665 -0.460982 -0.453064
v -0.191341 -0.500000 -0.461940
v -0.019030 -0.303843 -0.095671
v -0.037329 -0.315224 -0.187665
v -0.054193 -0.333706 -0.272447
v -0.068975 -0.358579 -0.346760
v -0.081106 -0.388886 -0.407746
v -0.090120 -0.423463 -0.453064
v -0.095671 -0.460982 -0.480970
v -0.097545 -0.500000 -0.490392
v 0.000000 -0.303843 -0.097545
v 0.000000 -0.315224 -0.191342
v 0.000000 -0.333706 -0.277785
v 0.000000 -0.358579 -0.353553
v 0.000000 -0.388886 -0.415735
v -0.000000 -0.423463 -0.461940
v 0.000000 -0.460982 -0.490392
v 0.000000 -0.500000 -0.500000
v 0.019030 -0.303843 -0.095671
v 0.037329 -0.315224 -0.187665
v 0.054193 -0.333706 -0.272447
v 0.068975 -0.358579 -0.346760
v 0.081106 -0.388886 -0.407746
v 0.090120 -0.423463 -0.453064
v 0.095671 -0.460982 -0.480970
v 0.097545 -0.500000 -0.490392
v 0.037329 -0.303843 -0.090120
v 0.073223 -0.315224 -0.176777
v 0.106304 -0.333706 -0.256640
v 0.135299 -0.358579 -0.326641
v 0.159095 -0.388886 -0.384089
v 0.176777 -0.423463 -0.426777
v 0.187665 -0.460982 -0.453064
v 0.191342 -0.500000 -0.461939
v 0.054193 -0.303843 -0.081106
v 0.106304 -0.315224 -0.159095
v 0.154329 -0.333706 -0.230970
v 0.196424 -0.358579 -0.293969
v 0.230970 -0.388886 -0.345671
v 0.256640 -0.423463 -0.384089
v 0.272448 -0.460982 -0.407746
v 0.277785 -0.500000 -0.415734
v 0.068975 -0.303843 -0.068975
v 0.135299 -0.315224 -0.135299
v 0.196424 -0.333706 -0.196424
v 0.250000 -0.358579 -0.250000
v 0.293969 -0.388886 -0.293969
v 0.326641 -0.423463 -0.326641
v 0.346760 -0.460982 -0.346760
v 0.353553 -0.500000 -0.353553
v 0.081106 -0.303843 -0.054193
v 0.159095 -0.315224 -0.106304
v 0.230970 -0.333706 -0.154329
v 0.293969 -0.358579 -0.196424
v 0.345671 -0.388886 -0.230970
v 0.384089 -0.423463 -0.256640
v 0.407746 -0.460982 -0.272447
v 0.415735 -0.500000 -0.277785
v 0.090120 -0.303843 -0.037329
v 0.176777 -0.315224 -0.073223
v 0.256640 -0.333706 -0.106304
v 0.326641 -0.358579 -0.135299
v 0.384089 -0.388886 -0.159095
v 0.426777 -0.423463 -0.176777
v 0.453064 -0.460982 -0.187665
v 0.461939 -0.500000 -0.191341
v 0.095671 -0.303843 -0.019030
v 0.187665 -0.315224 -0.037329
v 0.272447 -0.333706 -0.054193
v 0.346760 -0.358579 -0.068975
v 0.407746 -0.388886 -0.081106
v 0.453064 -0.423463 -0.090120
v 0.480970 -0.460982 -0.095671
v 0.490392 -0.500000 -0.097545
v 0.097545 -0.303843 0.000000
v 0.191342 -0.315224 0.000000
v 0.277785 -0.333706 0.000000
v 0.353553 -0.358579 0.000000
v 0.415735 -0.388886 0.000000
v 0.461940 -0.423463 0.000000
v 0.490392 -0.460982 0.000000
v 0.500000 -0.500000 0.000000
v 0.095671 -0.303843 0.019030
v 0.187665 -0.315224 0.037329
v 0.272447 -0.333706 0.054193
v 0.346760 -0.358579 0.068975
v 0.407746 -0.388886 0.081106
v 0.453064 -0.423463 0.090120
v 0.480970 -0.460982 0.095671
v 0.490392 -0.500000 0.097545
v 0.090120 -0.303843 0.037329
v 0.176777 -0.315224 0.073223
v 0.256640 -0.333706 0.106304
v 0.326641 -0.358579 0.135299
v 0.384089 -0.388886 0.159095
v 0.426776 -0.423463 0.176777
v 0.453063 -0.460982 0.187665
v 0.461939 -0.500000 0.191342
v 0.081106 -0.303843 0.054193
v 0.159095 -0.315224 0.106304
v 0.230970 -0.333706 0.154329
v 0.293969 -0.358579 0.196424
v 0.345671 -0.388886 0.230970
v 0.384089 -0.423463 0.256640
v 0.407746 -0.460982 0.272448
v 0.415734 -0.500000 0.277785
v 0.068975 -0.303843 0.068975
v 0.135299 -0.315224 0.135299
v 0.196423 -0.333706 0.196424
v 0.250000 -0.358579 0.250000
v 0.293969 -0.388886 0.293969
v 0.326641 -0.423463 0.326641
v 0.346760 -0.460982 0.346760
v 0.353553 -0.500000 0.353553
v 0.054193 -0.303843 0.081106
v 0.106304 -0.315224 0.159095
v 0.154329 -0.333706 0.230970
v 0.196424 -0.358579 0.293969
v 0.230970 -0.388886 0.345671
v 0.256640 -0.423463 0.384089
v 0.272447 -0.460982 0.407746
v 0.277785 -0.500000 0.415734
v 0.037329 -0.303843 0.090120
v 0.073223 -0.315224 0.176777
v 0.106304 -0.333706 0.256640
v 0.135299 -0.358579 0.326641
v 0.159095 -0.388886 0.384089
v 0.176777 -0.423463 0.426776
v 0.187665 -0.460982 0.453063
v 0.191341 -0.500000 0.461939
v 0.019030 -0.303843 0.095671
v 0.037329 -0.315224 0.187665
v 0.054193 -0.333706 0.272447
v 0.068975 -0.358579 0.346760
v 0.081106 -0.388886 0.407746
v 0.090120 -0.423463 0.453063
v 0.095671 -0.460982 0.480970
v 0.097545 -0.500000 0.490392
v -0.000000 -0.303843 0.097545
v -0.000000 -0.315224 0.191342
v -0.000000 -0.358579 0.353553
v -0.000000 -0.423463 0.461940
v -0.009755 -0.301970 0.049039
v -0.000000 -0.301970 0.050000
v -0.019134 -0.301970 0.046194
v -0.019134 -0.301970 0.046194
v -0.027779 -0.301970 0.041573
v -0.035355 -0.301970 0.035355
v -0.035355 -0.301970 0.035355
v -0.041573 -0.301970 0.027779
v -0.041573 -0.301970 0.027779
v -0.046194 -0.301970 0.019134
v -0.046194 -0.301970 0.019134
v -0.049039 -0.301970 0.009755
v -0.049039 -0.301970 0.009755
v -0.050000 -0.301970 0.000000
v -0.050000 -0.301970 -0.000000
v -0.049039 -0.301970 -0.009755
v -0.049039 -0.301970 -0.009755
v -0.046194 -0.301970 -0.019134
v -0.046194 -0.301970 -0.019134
v -0.041573 -0.301970 -0.027779
v -0.041573 -0.301970 -0.027779
v -0.035355 -0.301970 -0.035355
v -0.035355 -0.301970 -0.035355
v -0.027779 -0.301970 -0.041573
v -0.027779 -0.301970 -0.041573
v -0.019134 -0.301970 -0.046194
v -0.019134 -0.301970 -0.046194
v -0.009755 -0.301970 -0.049039
v -0.009755 -0.301970 -0.049039
v 0.000000 -0.301970 -0.050000
v 0.000000 -0.301970 -0.050000
v 0.009755 -0.301970 -0.049039
v 0.009755 -0.301970 -0.049039
v 0.019134 -0.301970 -0.046194
v 0.027779 -0.301970 -0.041573
v 0.019134 -0.301970 -0.046194
v 0.035355 -0.301970 -0.035355
v 0.035355 -0.301970 -0.035355
v 0.041573 -0.301970 -0.027779
v 0.041573 -0.301970 -0.027779
v 0.046194 -0.301970 -0.019134
v 0.046194 -0.301970 -0.019134
v 0.049039 -0.301970 -0.009755
v 0.049039 -0.301970 -0.009755
v 0.050000 -0.301970 0.000000
v 0.050000 -0.301970 0.000000
v 0.049039 -0.301970 0.009755
v 0.049039 -0.301970 0.009755
v 0.046194 -0.301970 0.019134
v 0.046194 -0.301970 0.019134
v 0.041573 -0.301970 0.027779
v 0.041573 -0.301970 0.027779
v 0.035355 -0.301970 0.035355
v 0.035355 -0.301970 0.035355
v 0.027779 -0.301970 0.041573
v 0.027779 -0.301970 0.041573
v 0.019134 -0.301970 0.046194
v 0.019134 -0.301970 0.046194
v 0.009755 -0.301970 0.049039
v 0.009755 -0.301970 0.049039
v 0.000000 -0.301970 0.050000
v 0.000000 -0.500000 0.000000
v -0.046194 0.323097 0.019134
v -0.046194 0.476903 0.019134
v -0.043059 0.321529 0.025000
v -0.043059 0.478471 0.025000
v -0.046194 0.323097 0.019134
v -0.046194 0.476903 0.019134
v -0.049039 0.324520 0.009755
v -0.049039 0.475480 0.009755
v -0.049039 0.324520 0.009755
v -0.049039 0.475480 0.009755
v -0.050000 0.325000 0.000000
v -0.050000 0.475000 0.000000
v -0.050000 0.325000 -0.000000
v -0.050000 0.475000 -0.000000
v -0.049039 0.324520 -0.009755
v -0.049039 0.475480 -0.009755
v -0.049039 0.324520 -0.009755
v -0.049039 0.475480 -0.009755
v -0.046194 0.323097 -0.019134
v -0.046194 0.476903 -0.019134
v -0.046194 0.323097 -0.019134
v -0.046194 0.476903 -0.019134
v -0.043059 0.321529 -0.025000
v -0.043059 0.478471 -0.025000
v 0.000000 0.500000 0.000000
vn -0.0119 0.9926 0.1204
vn -0.0206 0.9777 0.2090
vn -0.0307 0.9497 0.3117
vn -0.0431 0.8981 0.4377
vn -0.0589 0.7992 0.5981
vn -0.0782 0.6024 0.7943
vn -0.0952 0.2380 0.9666
vn -0.0039 0.9992 0.0394
vn -0.2819 0.2380 0.9294
vn -0.0115 0.9992 0.0379
vn -0.0351 0.9926 0.1158
vn -0.0610 0.9777 0.2010
vn -0.0909 0.9497 0.2998
vn -0.1277 0.8981 0.4209
vn -0.1745 0.7992 0.5751
vn -0.2317 0.6024 0.7638
vn -0.2073 0.8981 0.3879
vn -0.2833 0.7992 0.5300
vn -0.3763 0.6024 0.7039
vn -0.4579 0.2380 0.8566
vn -0.0000 -1.0000 -0.0000
vn -0.0571 0.9926 0.1067
vn -0.0990 0.9777 0.1852
vn -0.1477 0.9497 0.2763
vn -0.0768 0.9926 0.0936
vn -0.1333 0.9777 0.1624
vn -0.1987 0.9497 0.2422
vn -0.2790 0.8981 0.3400
vn -0.3813 0.7992 0.4646
vn -0.5064 0.6024 0.6170
vn -0.6162 0.2380 0.7508
vn 1.0000 -0.0000 -0.0000
vn -0.4646 0.7992 0.3813
vn -0.6170 0.6024 0.5064
vn -0.7508 0.2380 0.6162
vn -0.0306 0.9992 0.0251
vn -0.0936 0.9926 0.0768
vn -0.1624 0.9777 0.1333
vn -0.2422 0.9497 0.1987
vn -0.3400 0.8981 0.2790
vn -0.1067 0.9926 0.0571
vn -0.1852 0.9777 0.0990
vn -0.2763 0.9497 0.1477
vn -0.3879 0.8981 0.2073
vn -0.5300 0.7992 0.2833
vn -0.7039 0.6024 0.3763
vn -0.8566 0.2380 0.4579
vn -1.0000 -0.0000 -0.0000
vn -0.5751 0.7992 0.1745
vn -0.7638 0.6024 0.2317
vn -0.9294 0.2380 0.2819
vn 0.8548 0.5189 -0.0000
vn -0.1158 0.9926 0.0351
vn -0.2010 0.9777 0.0610
vn -0.2998 0.9497 0.0909
vn -0.4209 0.8981 0.1277
vn -0.2090 0.9777 0.0206
vn -0.3117 0.9497 0.0307
vn -0.4377 0.8981 0.0431
vn -0.5981 0.7992 0.0589
vn -0.7943 0.6024 0.0782
vn -0.9666 0.2380 0.0952
vn 0.8977 0.4407 -0.0000
vn -0.1204 0.9926 0.0119
vn -0.7943 0.6024 -0.0782
vn -0.9666 0.2380 -0.0952
vn -0.0394 0.9992 -0.0039
vn -0.1204 0.9926 -0.0119
vn -0.2090 0.9777 -0.0206
vn -0.3117 0.9497 -0.0307
vn -0.4377 0.8981 -0.0431
vn -0.5981 0.7992 -0.0589
vn -0.2010 0.9777 -0.0610
vn -0.2998 0.9497 -0.0909
vn -0.4209 0.8981 -0.1277
vn -0.5751 0.7992 -0.1745
vn -0.7638 0.6024 -0.2317
vn -0.9294 0.2380 -0.2819
vn -0.0379 0.9992 -0.0115
vn -0.1158 0.9926 -0.0351
vn -0.7039 0.6024 -0.3763
vn -0.8566 0.2380 -0.4579
vn -0.0349 0.9992 -0.0186
vn -0.1067 0.9926 -0.0571
vn -0.1852 0.9777 -0.0990
vn -0.2763 0.9497 -0.1477
vn -0.3879 0.8981 -0.2073
vn -0.5300 0.7992 -0.2833
vn -0.2422 0.9497 -0.1987
vn -0.3400 0.8981 -0.2790
vn -0.4646 0.7992 -0.3813
vn -0.6170 0.6024 -0.5064
vn -0.7508 0.2380 -0.6162
vn -0.0306 0.9992 -0.0251
vn -0.0936 0.9926 -0.0768
vn -0.1624 0.9777 -0.1333
vn -0.6162 0.2380 -0.7508
vn -0.0251 0.9992 -0.0306
vn -0.0768 0.9926 -0.0936
vn -0.1333 0.9777 -0.1624
vn -0.1987 0.9497 -0.2422
vn -0.2790 0.8981 -0.3400
vn -0.3813 0.7992 -0.4646
vn -0.5064 0.6024 -0.6170
vn -0.2073 0.8981 -0.3879
vn -0.2833 0.7992 -0.5300
vn -0.3763 0.6024 -0.7039
vn -0.4579 0.2380 -0.8566
vn -0.0186 0.9992 -0.0349
vn -0.0571 0.9926 -0.1067
vn -0.0990 0.9777 -0.1852
vn -0.1477 0.9497 -0.2763
vn -0.0115 0.9992 -0.0379
vn -0.0351 0.9926 -0.1158
vn -0.0610 0.9777 -0.2010
vn -0.0909 0.9497 -0.2998
vn -0.1277 0.8981 -0.4209
vn -0.1745 0.7992 -0.5751
vn -0.2317 0.6024 -0.7638
vn -0.2819 0.2380 -0.9294
vn -0.0431 0.8981 -0.4377
vn -0.0589 0.7992 -0.5981
vn -0.0782 0.6024 -0.7943
vn -0.0952 0.2380 -0.9666
vn -0.0039 0.9992 -0.0394
vn -0.0119 0.9926 -0.1204
vn -0.0206 0.9777 -0.2090
vn -0.0307 0.9497 -0.3117
vn 0.0119 0.9926 -0.1204
vn 0.0206 0.9777 -0.2090
vn 0.0307 0.9497 -0.3117
vn 0.0431 0.8981 -0.4377
vn 0.0589 0.7992 -0.5981
vn 0.0782 0.6024 -0.7943
vn 0.0952 0.2380 -0.9666
vn 0.0039 0.9992 -0.0394
vn 0.1745 0.7992 -0.5751
vn 0.2317 0.6024 -0.7638
vn 0.2819 0.2380 -0.9294
vn 0.0115 0.9992 -0.0379
vn 0.0351 0.9926 -0.1158
vn 0.0610 0.9777 -0.2010
vn 0.0909 0.9497 -0.2998
vn 0.1277 0.8981 -0.4209
vn 0.0571 0.9926 -0.1067
vn 0.0990 0.9777 -0.1852
vn 0.1477 0.9497 -0.2763
vn 0.2073 0.8981 -0.3879
vn 0.2833 0.7992 -0.5300
vn 0.3763 0.6024 -0.7039
vn 0.4579 0.2380 -0.8566
vn -0.0000 0.9988 -0.0499
vn 0.3813 0.7992 -0.4646
vn 0.5064 0.6024 -0.6170
vn 0.6162 0.2380 -0.7508
vn 0.0251 0.9992 -0.0306
vn 0.0768 0.9926 -0.0936
vn 0.1333 0.9777 -0.1624
vn 0.1987 0.9497 -0.2422
vn 0.2790 0.8981 -0.3400
vn 0.1624 0.9777 -0.1333
vn 0.2422 0.9497 -0.1987
vn 0.3400 0.8981 -0.2790
vn 0.4646 0.7992 -0.3813
vn 0.6170 0.6024 -0.5064
vn 0.7508 0.2380 -0.6162
vn 0.0306 0.9992 -0.0251
vn 0.0936 0.9926 -0.0768
vn 0.7039 0.6024 -0.3763
vn 0.8566 0.2380 -0.4579
vn 0.0349 0.9992 -0.0186
vn 0.1067 0.9926 -0.0571
vn 0.1852 0.9777 -0.0990
vn 0.2763 0.9497 -0.1477
vn 0.3879 0.8981 -0.2073
vn 0.5300 0.7992 -0.2833
vn 0.2998 0.9497 -0.0909
vn 0.4209 0.8981 -0.1277
vn 0.5751 0.7992 -0.1745
vn 0.7638 0.6024 -0.2317
vn 0.9294 0.2380 -0.2819
vn 0.0379 0.9992 -0.0115
vn 0.1158 0.9926 -0.0351
vn 0.2010 0.9777 -0.0610
vn 0.9666 0.2380 -0.0952
vn 0.0394 0.9992 -0.0039
vn 0.1204 0.9926 -0.0119
vn 0.2090 0.9777 -0.0206
vn 0.3117 0.9497 -0.0307
vn 0.4377 0.8981 -0.0431
vn 0.5981 0.7992 -0.0589
vn 0.7943 0.6024 -0.0782
vn 0.3117 0.9497 0.0307
vn 0.4377 0.8981 0.0431
vn 0.5981 0.7992 0.0589
vn 0.7943 0.6024 0.0782
vn 0.9666 0.2380 0.0952
vn 0.0394 0.9992 0.0039
vn 0.1204 0.9926 0.0119
vn 0.2090 0.9777 0.0206
vn 0.9294 0.2380 0.2819
vn 0.0163 0.9999 -0.0000
vn 0.1158 0.9926 0.0351
vn 0.2010 0.9777 0.0610
vn 0.2998 0.9497 0.0909
vn 0.4209 0.8981 0.1277
vn 0.5751 0.7992 0.1745
vn 0.7638 0.6024 0.2317
vn 0.3879 0.8981 0.2073
vn 0.5300 0.7992 0.2833
vn 0.7039 0.6024 0.3763
vn 0.8566 0.2380 0.4579
vn 0.0349 0.9992 0.0186
vn 0.1067 0.9926 0.0571
vn 0.1852 0.9777 0.0990
vn 0.2763 0.9497 0.1477
vn 0.0306 0.9992 0.0251
vn 0.0936 0.9926 0.0768
vn 0.1624 0.9777 0.1333
vn 0.2422 0.9497 0.1987
vn 0.3400 0.8981 0.2790
vn 0.4646 0.7992 0.3813
vn 0.6170 0.6024 0.5064
vn 0.7508 0.2380 0.6162
vn 0.2790 0.8981 0.3400
vn 0.3813 0.7992 0.4646
vn 0.5064 0.6024 0.6170
vn 0.6162 0.2380 0.7508
vn 0.0251 0.9992 0.0306
vn 0.0768 0.9926 0.0936
vn 0.1333 0.9777 0.1624
vn 0.1987 0.9497 0.2422
vn 0.0571 0.9926 0.1067
vn 0.0990 0.9777 0.1852
vn 0.1477 0.9497 0.2763
vn 0.2073 0.8981 0.3879
vn 0.2833 0.7992 0.5300
vn 0.3763 0.6024 0.7039
vn 0.4579 0.2380 0.8566
vn 0.0186 0.9992 0.0349
vn 0.1745 0.7992 0.5751
vn 0.2317 0.6024 0.7638
vn 0.2819 0.2380 0.9294
vn -0.0000 0.9983 0.0579
vn 0.0351 0.9926 0.1158
vn 0.0610 0.9777 0.2010
vn 0.0909 0.9497 0.2998
vn 0.1277 0.8981 0.4209
vn 0.0206 0.9777 0.2090
vn 0.0307 0.9497 0.3117
vn 0.0431 0.8981 0.4377
vn 0.0589 0.7992 0.5981
vn 0.0782 0.6024 0.7943
vn 0.0952 0.2380 0.9666
vn 0.0039 0.9992 0.0394
vn 0.0119 0.9926 0.1204
vn -0.0000 -0.0086 1.0000
vn -0.0000 -0.0000 1.0000
vn -0.4714 -0.0000 0.8819
vn -0.6344 -0.0000 0.7730
vn -0.7730 -0.0000 0.6344
vn -0.8819 -0.0000 0.4714
vn -0.9569 -0.0000 0.2903
vn -0.9952 -0.0000 0.0980
vn -0.9952 -0.0000 -0.0980
vn -0.9569 -0.0000 -0.2903
vn -0.8819 -0.0000 -0.4714
vn -0.7730 -0.0000 -0.6344
vn -0.6344 -0.0000 -0.7730
vn -0.4714 -0.0000 -0.8819
vn -0.2903 -0.0000 -0.9569
vn -0.0980 -0.0000 -0.9952
vn 0.0980 -0.0000 -0.9952
vn -0.0000 -0.0017 -1.0000
vn 0.4714 -0.0000 -0.8819
vn 0.6344 -0.0000 -0.7730
vn 0.7730 -0.0000 -0.6344
vn 0.8819 -0.0000 -0.4714
vn 0.9569 -0.0000 -0.2903
vn 0.9952 -0.0000 -0.0980
vn 0.9952 -0.0000 0.0980
vn 0.9569 -0.0000 0.2903
vn 0.8819 -0.0000 0.4714
vn 0.7730 -0.0000 0.6344
vn 0.6344 -0.0000 0.7730
vn 0.4714 -0.0000 0.8819
vn 0.2903 -0.0000 0.9569
vn 0.0980 -0.0000 0.9952
vn -0.0000 -0.0000 -1.0000
vn -0.4472 0.8944 -0.0000
vn -0.4472 -0.8944 -0.0000
vn -0.0000 1.0000 -0.0000
vn -0.0186 0.9992 0.0349
vn -0.0251 0.9992 0.0306
vn -0.0349 0.9992 0.0186
vn -0.0379 0.9992 0.0115
vn -0.0394 0.9992 0.0039
vn 0.9706 0.2406 -0.0000
vn -0.0000 0.9992 -0.0394
vn 0.0186 0.9992 -0.0349
vn -0.4132 -0.9106 -0.0000
vn 0.0394 0.9992 -0.0000
vn 0.0379 0.9992 0.0115
vn -0.0000 0.9997 0.0250
vn 0.0115 0.9992 0.0379
vn -0.0980 -0.0000 0.9952
vn -0.2903 -0.0000 0.9569
vn -1.0000 -0.0049 -0.0000
vn 0.2903 -0.0000 -0.9569
vn 0.6009 -0.0000 -0.7993
vn 0.4481 -0.0000 0.8940
vn 0.7080 -0.0000 0.7062
vn 0.9998 -0.0199 -0.0000
vt 0.757256 0.796271
vt 0.781232 0.803399
vt 0.757253 0.805792
vt 0.732996 0.793983
vt 0.733020 0.808259
vt 0.708409 0.791691
vt 0.708551 0.810813
vt 0.683772 0.789363
vt 0.683672 0.813385
vt 0.658379 0.787028
vt 0.658655 0.816008
vt 0.632275 0.784906
vt 0.632686 0.819031
vt 0.605805 0.821767
vt 0.605805 0.782584
vt 0.792833 0.802448
vt 0.781266 0.798596
vt 0.792886 0.799668
vt 0.613562 0.860250
vt 0.782146 0.808110
vt 0.793306 0.804767
vt 0.759101 0.815132
vt 0.735823 0.822272
vt 0.712481 0.829514
vt 0.688600 0.836888
vt 0.664335 0.844376
vt 0.639490 0.852404
vt 0.697824 0.859043
vt 0.675493 0.871013
vt 0.652763 0.883642
vt 0.628528 0.896821
vt 0.783966 0.812545
vt 0.793292 0.805007
vt 0.762745 0.823932
vt 0.741445 0.835438
vt 0.719922 0.847064
vt 0.768094 0.831818
vt 0.749385 0.847322
vt 0.730434 0.862947
vt 0.711254 0.878887
vt 0.691599 0.895024
vt 0.671597 0.911845
vt 0.650929 0.929378
vt 0.795540 0.809061
vt 0.795745 0.809115
vt 0.712072 0.915404
vt 0.695735 0.935796
vt 0.678899 0.956992
vt 0.589892 0.094803
vt 0.585429 0.084461
vt 0.586239 0.070558
vt 0.797415 0.810789
vt 0.786677 0.816522
vt 0.774861 0.838509
vt 0.759464 0.857409
vt 0.743874 0.876495
vt 0.728271 0.895729
vt 0.790082 0.819918
vt 0.782760 0.843809
vt 0.771377 0.865261
vt 0.759833 0.886876
vt 0.748141 0.909119
vt 0.736079 0.931457
vt 0.724054 0.954613
vt 0.711659 0.978667
vt 0.799227 0.812162
vt 0.799467 0.812235
vt 0.762806 0.942478
vt 0.755495 0.967537
vt 0.748006 0.993541
vt 0.794078 0.822576
vt 0.801477 0.813141
vt 0.801712 0.813160
vt 0.798512 0.824390
vt 0.791541 0.847480
vt 0.784562 0.870689
vt 0.777394 0.894211
vt 0.770289 0.918165
vt 0.798541 0.873493
vt 0.796070 0.897944
vt 0.793766 0.922788
vt 0.791144 0.948089
vt 0.788840 0.974094
vt 0.786542 1.001057
vt 0.803986 0.813553
vt 0.804229 0.813727
vt 0.803224 0.825377
vt 0.800874 0.849311
vt 0.820030 0.948083
vt 0.822821 0.974038
vt 0.825801 1.000934
vt 0.807139 0.814094
vt 0.810383 0.849293
vt 0.812796 0.873511
vt 0.815127 0.897955
vt 0.817692 0.922758
vt 0.819722 0.847489
vt 0.826773 0.870683
vt 0.833830 0.894230
vt 0.841150 0.918066
vt 0.848365 0.942452
vt 0.856143 0.967370
vt 0.864289 0.993175
vt 0.812759 0.824520
vt 0.809181 0.813363
vt 0.808043 0.825437
vt 0.875062 0.931406
vt 0.887533 0.954340
vt 0.900533 0.978074
vt 0.817170 0.822655
vt 0.809230 0.813441
vt 0.811518 0.812373
vt 0.828495 0.843809
vt 0.839957 0.865235
vt 0.851460 0.886949
vt 0.863240 0.908890
vt 0.867382 0.876406
vt 0.883096 0.895537
vt 0.899102 0.915359
vt 0.915791 0.935451
vt 0.933153 0.956211
vt 0.813707 0.811020
vt 0.811742 0.812377
vt 0.836366 0.838477
vt 0.851803 0.857315
vt 0.939861 0.911427
vt 0.960923 0.928412
vt 0.815374 0.809291
vt 0.821112 0.819948
vt 0.824436 0.816515
vt 0.843095 0.831753
vt 0.861811 0.847144
vt 0.880693 0.862782
vt 0.900146 0.878686
vt 0.919599 0.894991
vt 0.891344 0.846992
vt 0.913390 0.858739
vt 0.935703 0.870949
vt 0.958779 0.883149
vt 0.982743 0.895717
vt 0.816487 0.807547
vt 0.827037 0.812490
vt 0.848326 0.823802
vt 0.869740 0.835278
vt 0.817458 0.805187
vt 0.828812 0.808032
vt 0.816472 0.807341
vt 0.851919 0.814990
vt 0.875197 0.822093
vt 0.898676 0.829383
vt 0.922558 0.836602
vt 0.946820 0.844242
vt 0.971830 0.851721
vt 0.997780 0.859391
vt 0.902430 0.810669
vt 0.927252 0.813095
vt 0.952533 0.815869
vt 0.978519 0.818341
vt 1.005465 0.820820
vt 0.829684 0.803304
vt 0.817412 0.804993
vt 0.817875 0.802491
vt 0.853730 0.805651
vt 0.877995 0.808096
vt 0.853791 0.796139
vt 0.877959 0.793815
vt 0.902457 0.791567
vt 0.927280 0.789113
vt 0.952617 0.786911
vt 0.978586 0.784278
vt 1.005499 0.781470
vt 0.829747 0.798481
vt 0.817969 0.802098
vt 0.818165 0.799184
vt 0.947059 0.758473
vt 0.972016 0.750830
vt 0.997867 0.742836
vt 0.828884 0.793738
vt 0.818237 0.799004
vt 0.817710 0.796949
vt 0.851925 0.786791
vt 0.875209 0.779790
vt 0.898779 0.772821
vt 0.922641 0.765571
vt 0.827074 0.789288
vt 0.848269 0.777988
vt 0.869781 0.766563
vt 0.891517 0.755137
vt 0.913497 0.743368
vt 0.936058 0.731643
vt 0.959043 0.719277
vt 0.982839 0.706395
vt 0.817717 0.796726
vt 0.920022 0.707456
vt 0.940146 0.690837
vt 0.960965 0.673552
vt 0.815489 0.792661
vt 0.824423 0.785271
vt 0.816687 0.794661
vt 0.843032 0.770028
vt 0.861825 0.754679
vt 0.880927 0.739204
vt 0.900188 0.723366
vt 0.851749 0.744518
vt 0.867440 0.725635
vt 0.883220 0.706335
vt 0.899555 0.686853
vt 0.916035 0.666615
vt 0.933064 0.645587
vt 0.813593 0.790523
vt 0.815298 0.792605
vt 0.836281 0.763297
vt 0.875438 0.670640
vt 0.887627 0.647563
vt 0.900198 0.623602
vt 0.811526 0.789432
vt 0.817039 0.779131
vt 0.821035 0.781826
vt 0.828391 0.757941
vt 0.839840 0.736583
vt 0.851539 0.714966
vt 0.863239 0.692947
vt 0.833864 0.707604
vt 0.841014 0.683722
vt 0.848598 0.659457
vt 0.856016 0.634435
vt 0.863632 0.608471
vt 0.809574 0.788572
vt 0.812595 0.777282
vt 0.811419 0.789279
vt 0.819572 0.754307
vt 0.826627 0.731073
vt 0.822429 0.627757
vt 0.824786 0.600802
vt 0.807887 0.776354
vt 0.809387 0.788627
vt 0.806744 0.788070
vt 0.810216 0.752471
vt 0.812590 0.728259
vt 0.815082 0.703844
vt 0.817404 0.679029
vt 0.820076 0.653748
vt 0.795920 0.703854
vt 0.793330 0.679058
vt 0.790981 0.653744
vt 0.788177 0.627797
vt 0.785180 0.600906
vt 0.803984 0.787780
vt 0.803054 0.776305
vt 0.806478 0.787858
vt 0.800683 0.752423
vt 0.798273 0.728317
vt 0.754598 0.634556
vt 0.746367 0.608781
vt 0.801586 0.788229
vt 0.801396 0.788122
vt 0.791336 0.754331
vt 0.784226 0.731117
vt 0.777136 0.707604
vt 0.769728 0.683803
vt 0.762451 0.659444
vt 0.759449 0.714962
vt 0.747516 0.693081
vt 0.735597 0.670626
vt 0.723006 0.647767
vt 0.709867 0.624113
vt 0.799668 0.789094
vt 0.793859 0.779125
vt 0.782555 0.758044
vt 0.771002 0.736614
vt 0.797402 0.790741
vt 0.789919 0.781856
vt 0.799580 0.789259
vt 0.774636 0.763357
vt 0.759146 0.744635
vt 0.743553 0.725655
vt 0.727561 0.706528
vt 0.711463 0.686848
vt 0.694631 0.666903
vt 0.677102 0.646290
vt 0.730065 0.739247
vt 0.710636 0.723610
vt 0.690980 0.707469
vt 0.670565 0.691206
vt 0.649338 0.674425
vt 0.795857 0.792324
vt 0.786563 0.785309
vt 0.797247 0.790806
vt 0.767924 0.770132
vt 0.749086 0.754812
vt 0.783974 0.789359
vt 0.762662 0.778088
vt 0.741226 0.766761
vt 0.719494 0.755208
vt 0.697400 0.743651
vt 0.674918 0.731680
vt 0.651720 0.719718
vt 0.627634 0.707408
vt 0.794445 0.794600
vt 0.795821 0.792727
vt 0.663809 0.758519
vt 0.638785 0.751361
vt 0.612832 0.743954
vt 0.793525 0.796595
vt 0.793566 0.796788
vt 0.759129 0.786933
vt 0.735826 0.779991
vt 0.712188 0.772901
vt 0.688444 0.765872
vt 0.804595 0.092705
vt 0.763329 0.228741
vt 0.777263 0.087268
vt 0.749395 0.087268
vt 0.830341 0.103369
vt 0.873218 0.138557
vt 0.853512 0.118852
vt 0.782227 0.793872
vt 0.014671 0.221715
vt 0.598102 0.184801
vt 0.598964 0.194437
vt 0.596240 0.163631
vt 0.596580 0.146347
vt 0.018976 0.210674
vt 0.592417 0.128337
vt 0.013187 0.176666
vt 0.017340 0.195626
vt 0.011115 0.164376
vt 0.030328 0.149539
vt 0.014136 0.160783
vt 0.017769 0.146447
vt 0.022637 0.148989
vt 0.139109 0.110403
vt 0.577553 0.049994
vt 0.142495 0.119901
vt 0.011633 0.159502
vt 0.015001 0.145183
vt 0.017493 0.146444
vt 0.588828 0.018078
vt 0.131666 0.101632
vt 0.008924 0.634624
vt 0.017691 0.646213
vt 0.014815 0.646881
vt 0.590723 0.744907
vt 0.140370 0.709910
vt 0.141508 0.702292
vt 0.011429 0.634426
vt 0.021582 0.642711
vt 0.018026 0.646243
vt 0.590727 0.721376
vt 0.144166 0.689729
vt 0.145245 0.681225
vt 0.013937 0.634090
vt 0.031350 0.637187
vt 0.591770 0.682642
vt 0.014413 0.632667
vt 0.592297 0.671050
vt 0.592752 0.661369
vt 0.022173 0.615993
vt 0.593695 0.649502
vt 0.588766 0.636702
vt 0.034510 0.585061
vt 0.595639 0.627681
vt 0.596685 0.618012
vt 0.023076 0.573008
vt 0.597506 0.605678
vt 0.598211 0.595972
vt 0.026834 0.555956
vt 0.599363 0.583564
vt 0.600403 0.573862
vt 0.028260 0.534443
vt 0.601167 0.561401
vt 0.030140 0.514588
vt 0.603030 0.510503
vt 0.608631 0.529026
vt 0.035035 0.499301
vt 0.604362 0.500580
vt 0.030300 0.482411
vt 0.603685 0.485166
vt 0.042338 0.468542
vt 0.604381 0.463682
vt 0.604204 0.475398
vt 0.034130 0.449625
vt 0.604742 0.442513
vt 0.604902 0.453882
vt 0.042877 0.427532
vt 0.604929 0.421806
vt 0.604779 0.432718
vt 0.035095 0.401809
vt 0.604957 0.401570
vt 0.605264 0.412008
vt 0.031654 0.382337
vt 0.604708 0.381862
vt 0.604855 0.391768
vt 0.037416 0.353897
vt 0.604652 0.356877
vt 0.605063 0.372138
vt 0.033315 0.324753
vt 0.604618 0.328386
vt 0.604638 0.343131
vt 0.035528 0.312951
vt 0.603869 0.300491
vt 0.604164 0.314691
vt 0.038838 0.284525
vt 0.603369 0.270465
vt 0.602135 0.281620
vt 0.025584 0.270494
vt 0.602348 0.247803
vt 0.603016 0.260855
vt 0.024442 0.257658
vt 0.600761 0.221751
vt 0.601515 0.234251
vt 0.025821 0.244537
vt 0.606931 0.206017
vt 0.147735 0.032422
vt 0.064467 0.109382
vt 0.077649 0.038908
vt 0.077675 0.027563
vt 0.147557 0.024965
vt 0.148085 0.029568
vt 0.046732 0.101803
vt 0.045711 0.101305
vt 0.008214 0.008326
vt 0.066256 0.035136
vt 0.190901 0.056231
vt 0.178364 0.049529
vt 0.191967 0.053656
vt 0.192511 0.050923
vt 0.192511 0.048136
vt 0.191967 0.045403
vt 0.190901 0.042828
vt 0.189353 0.040511
vt 0.187382 0.038541
vt 0.185065 0.036992
vt 0.182490 0.035926
vt 0.179757 0.035382
vt 0.176970 0.035382
vt 0.174237 0.035926
vt 0.171663 0.036992
vt 0.169345 0.038540
vt 0.167375 0.040511
vt 0.165827 0.042828
vt 0.164760 0.045403
vt 0.164216 0.048136
vt 0.164216 0.050923
vt 0.164760 0.053656
vt 0.165827 0.056230
vt 0.167375 0.058548
vt 0.169345 0.060518
vt 0.171662 0.062066
vt 0.174237 0.063133
vt 0.176970 0.063677
vt 0.179757 0.063677
vt 0.182490 0.063133
vt 0.185065 0.062067
vt 0.187382 0.060518
vt 0.189353 0.058548
vt 0.722063 0.092705
vt 0.696316 0.103369
vt 0.673145 0.118852
vt 0.653440 0.138557
vt 0.637957 0.161728
vt 0.627293 0.187475
vt 0.621856 0.214807
vt 0.621856 0.242675
vt 0.627293 0.270007
vt 0.637957 0.295753
vt 0.653440 0.318924
vt 0.673145 0.338630
vt 0.696316 0.354112
vt 0.722063 0.364777
vt 0.749395 0.370213
vt 0.777263 0.370213
vt 0.804595 0.364777
vt 0.830341 0.354112
vt 0.853512 0.338630
vt 0.873218 0.318924
vt 0.888700 0.295753
vt 0.899365 0.270007
vt 0.904801 0.242675
vt 0.904801 0.214807
vt 0.899365 0.187475
vt 0.888700 0.161728
vt 0.794356 0.807055
vt 0.806956 0.813968
vt 0.813560 0.811216
vt 0.815259 0.809493
vt 0.813617 0.790742
vt 0.803811 0.787706
vt 0.798309 0.777241
vt 0.794402 0.794805
vt 0.793033 0.799274
vt 0.018158 0.232783
vt 0.604616 0.174066
vt 0.604114 0.110677
vt 0.148336 0.128340
vt 0.024322 0.148821
vt 0.592312 0.028284
vt 0.588922 0.037281
vt 0.138275 0.113471
vt 0.008924 0.158693
vt 0.137136 0.090343
vt 0.589895 0.007572
vt 0.014260 0.646464
vt 0.593594 0.732278
vt 0.588216 0.752273
vt 0.145190 0.666475
vt 0.589221 0.712741
vt 0.591011 0.692301
vt 0.591129 0.703099
vt 0.143441 0.661024
vt 0.143434 0.654247
vt 0.021627 0.642760
vt 0.602169 0.551680
vt 0.135064 0.008326
vt 0.138156 0.008601
vt 0.138939 0.008716
vt 0.142423 0.010808
vt 0.143074 0.011243
vt 0.145216 0.015346
vt 0.146722 0.018491
vt 0.147646 0.025803
vt 0.057819 0.109292
vt 0.057044 0.109190
vt 0.054283 0.108609
vt 0.052370 0.107445
vt 0.048851 0.105926
vt 0.048449 0.105255
vt 0.061645 0.109583
vt 0.046712 0.101754
s 0
usemtl マテリアル
f 288/1/1 9/2/1 10/3/1
f 1/4/2 10/3/2 12/5/2
f 289/6/3 12/5/3 13/7/3
f 2/8/4 13/7/4 15/9/4
f 290/10/5 15/9/5 17/11/5
f 4/12/6 17/11/6 18/13/6
f 4/12/7 20/14/7 7/15/7
f 291/16/8 287/17/8 292/18/8
f 18/13/9 31/19/9 20/14/9
f 21/20/10 291/16/10 293/21/10
f 9/2/11 23/22/11 10/3/11
f 10/3/12 24/23/12 12/5/12
f 12/5/13 25/24/13 13/7/13
f 13/7/14 27/25/14 15/9/14
f 15/9/15 28/26/15 17/11/15
f 18/13/16 28/26/16 30/27/16
f 25/24/17 39/28/17 27/25/17
f 27/25/18 40/29/18 28/26/18
f 28/26/19 42/30/19 30/27/19
f 30/27/20 43/31/20 31/19/20
f 33/32/21 293/21/21 294/33/21
f 21/20/22 34/34/22 23/22/22
f 23/22/23 36/35/23 24/23/23
f 24/23/24 37/36/24 25/24/24
f 33/32/25 46/37/25 34/34/25
f 34/34/26 48/38/26 36/35/26
f 36/35/27 50/39/27 37/36/27
f 37/36/28 51/40/28 39/28/28
f 39/28/29 53/41/29 40/29/29
f 42/30/30 53/41/30 54/42/30
f 43/31/31 54/42/31 56/43/31
f 33/32/32 296/44/32 297/45/32
f 51/40/33 64/46/33 53/41/33
f 54/42/34 64/46/34 66/47/34
f 56/43/35 66/47/35 67/48/35
f 297/49/32 298/50/32 299/51/32
f 299/52/36 45/53/36 297/45/36
f 45/53/37 58/54/37 46/37/37
f 46/37/38 60/55/38 48/38/38
f 48/38/39 61/56/39 50/39/39
f 51/40/40 61/56/40 63/57/40
f 57/58/41 71/59/41 58/54/41
f 58/54/42 72/60/42 60/55/42
f 60/55/43 74/61/43 61/56/43
f 63/57/44 74/61/44 75/62/44
f 63/57/45 77/63/45 64/46/45
f 66/47/46 77/63/46 78/64/46
f 67/48/47 78/64/47 80/65/47
f 57/58/48 300/66/48 301/67/48
f 75/62/49 89/68/49 77/63/49
f 78/64/50 89/68/50 90/69/50
f 80/65/51 90/69/51 92/70/51
f 69/71/52 302/72/52 303/73/52
f 71/59/53 81/74/53 83/75/53
f 71/59/54 84/76/54 72/60/54
f 72/60/55 86/77/55 74/61/55
f 75/62/56 86/77/56 87/78/56
f 83/75/57 97/79/57 84/76/57
f 84/76/58 98/80/58 86/77/58
f 87/78/59 98/80/59 99/81/59
f 87/78/60 100/82/60 89/68/60
f 90/69/61 100/82/61 101/83/61
f 92/70/62 101/83/62 102/84/62
f 81/74/63 304/85/63 305/86/63
f 83/75/64 94/87/64 95/88/64
f 101/83/65 108/89/65 109/90/65
f 102/84/66 109/90/66 110/91/66
f 307/92/67 94/87/67 305/86/67
f 94/87/68 104/93/68 95/88/68
f 95/88/69 105/94/69 97/79/69
f 97/79/70 106/95/70 98/80/70
f 99/81/71 106/95/71 107/96/71
f 99/81/72 108/89/72 100/82/72
f 105/94/73 112/97/73 113/98/73
f 105/94/74 114/99/74 106/95/74
f 107/96/75 114/99/75 115/100/75
f 107/96/76 116/101/76 108/89/76
f 109/90/77 116/101/77 117/102/77
f 110/91/78 117/102/78 118/103/78
f 111/104/79 307/92/79 308/105/79
f 103/106/80 112/97/80 104/93/80
f 117/102/81 124/107/81 125/108/81
f 118/103/82 125/108/82 126/109/82
f 119/110/83 309/111/83 310/112/83
f 111/104/84 120/113/84 112/97/84
f 113/98/85 120/113/85 121/114/85
f 113/98/86 122/115/86 114/99/86
f 115/100/87 122/115/87 123/116/87
f 115/100/88 124/107/88 116/101/88
f 121/114/89 130/117/89 122/115/89
f 123/116/90 130/117/90 131/118/90
f 123/116/91 132/119/91 124/107/91
f 125/108/92 132/119/92 133/120/92
f 126/109/93 133/120/93 134/121/93
f 313/122/94 119/110/94 311/123/94
f 119/110/95 128/124/95 120/113/95
f 120/113/96 129/125/96 121/114/96
f 134/121/97 141/126/97 142/127/97
f 315/128/98 127/129/98 313/122/98
f 128/124/99 135/130/99 136/131/99
f 129/125/100 136/131/100 137/132/100
f 129/125/101 138/133/101 130/117/101
f 131/118/102 138/133/102 139/134/102
f 131/118/103 140/135/103 132/119/103
f 133/120/104 140/135/104 141/126/104
f 139/134/105 146/136/105 147/137/105
f 139/134/106 148/138/106 140/135/106
f 141/126/107 148/138/107 149/139/107
f 142/127/108 149/139/108 150/140/108
f 316/141/109 143/142/109 315/128/109
f 135/130/110 144/143/110 136/131/110
f 136/131/111 145/144/111 137/132/111
f 137/132/112 146/136/112 138/133/112
f 318/145/113 151/146/113 317/147/113
f 143/142/114 152/148/114 144/143/114
f 144/143/115 153/149/115 145/144/115
f 145/144/116 154/150/116 146/136/116
f 147/137/117 154/150/117 155/151/117
f 147/137/118 156/152/118 148/138/118
f 149/139/119 156/152/119 157/153/119
f 150/140/120 157/153/120 158/154/120
f 155/151/121 162/155/121 163/156/121
f 155/151/122 164/157/122 156/152/122
f 157/153/123 164/157/123 165/158/123
f 158/154/124 165/158/124 166/159/124
f 159/160/125 319/161/125 321/162/125
f 151/146/126 160/163/126 152/148/126
f 153/149/127 160/163/127 161/164/127
f 153/149/128 162/155/128 154/150/128
f 159/160/129 168/165/129 160/163/129
f 160/163/130 169/166/130 161/164/130
f 161/164/131 170/167/131 162/155/131
f 163/156/132 170/167/132 171/168/132
f 163/156/133 172/169/133 164/157/133
f 165/158/134 172/169/134 173/170/134
f 166/159/135 173/170/135 174/171/135
f 167/172/136 320/173/136 323/174/136
f 171/168/137 180/175/137 172/169/137
f 173/170/138 180/175/138 181/176/138
f 174/171/139 181/176/139 182/177/139
f 175/178/140 322/179/140 324/180/140
f 168/165/141 175/178/141 176/181/141
f 168/165/142 177/182/142 169/166/142
f 169/166/143 178/183/143 170/167/143
f 171/168/144 178/183/144 179/184/144
f 176/181/145 183/185/145 184/186/145
f 176/181/146 185/187/146 177/182/146
f 177/182/147 186/188/147 178/183/147
f 179/184/148 186/188/148 187/189/148
f 179/184/149 188/190/149 180/175/149
f 181/176/150 188/190/150 189/191/150
f 182/177/151 189/191/151 190/192/151
f 326/193/152 183/185/152 324/180/152
f 187/189/153 196/194/153 188/190/153
f 189/191/154 196/194/154 197/195/154
f 190/192/155 197/195/155 198/196/155
f 327/197/156 191/198/156 325/199/156
f 183/185/157 192/200/157 184/186/157
f 184/186/158 193/201/158 185/187/158
f 185/187/159 194/202/159 186/188/159
f 187/189/160 194/202/160 195/203/160
f 192/200/161 201/204/161 193/201/161
f 193/201/162 202/205/162 194/202/162
f 195/203/163 202/205/163 203/206/163
f 195/203/164 204/207/164 196/194/164
f 197/195/165 204/207/165 205/208/165
f 198/196/166 205/208/166 206/209/166
f 330/210/167 191/198/167 328/211/167
f 191/198/168 200/212/168 192/200/168
f 205/208/169 212/213/169 213/214/169
f 206/209/170 213/214/170 214/215/170
f 331/216/171 207/217/171 330/210/171
f 199/218/172 208/219/172 200/212/172
f 200/212/173 209/220/173 201/204/173
f 201/204/174 210/221/174 202/205/174
f 202/205/175 211/222/175 203/206/175
f 203/206/176 212/213/176 204/207/176
f 209/220/177 218/223/177 210/221/177
f 211/222/178 218/223/178 219/224/178
f 211/222/179 220/225/179 212/213/179
f 213/214/180 220/225/180 221/226/180
f 214/215/181 221/226/181 222/227/181
f 333/228/182 215/229/182 332/230/182
f 207/217/183 216/231/183 208/219/183
f 208/219/184 217/232/184 209/220/184
f 222/227/185 229/233/185 230/234/185
f 223/235/186 334/236/186 336/237/186
f 215/229/187 224/238/187 216/231/187
f 217/232/188 224/238/188 225/239/188
f 217/232/189 226/240/189 218/223/189
f 219/224/190 226/240/190 227/241/190
f 219/224/191 228/242/191 220/225/191
f 221/226/192 228/242/192 229/233/192
f 225/239/193 234/243/193 226/240/193
f 227/241/194 234/243/194 235/244/194
f 227/241/195 236/245/195 228/242/195
f 229/233/196 236/245/196 237/246/196
f 230/234/197 237/246/197 238/247/197
f 338/248/198 231/249/198 335/250/198
f 223/235/199 232/251/199 224/238/199
f 225/239/200 232/251/200 233/252/200
f 238/247/201 245/253/201 246/254/201
f 231/249/202 340/255/202 339/256/202
f 231/249/203 240/257/203 232/251/203
f 233/252/204 240/257/204 241/258/204
f 233/252/205 242/259/205 234/243/205
f 235/244/206 242/259/206 243/260/206
f 235/244/207 244/261/207 236/245/207
f 237/246/208 244/261/208 245/253/208
f 243/260/209 250/262/209 251/263/209
f 243/260/210 252/264/210 244/261/210
f 245/253/211 252/264/211 253/265/211
f 246/254/212 253/265/212 254/266/212
f 342/267/213 247/268/213 339/256/213
f 240/257/214 247/268/214 248/269/214
f 240/257/215 249/270/215 241/258/215
f 241/258/216 250/262/216 242/259/216
f 344/271/217 255/272/217 341/273/217
f 247/268/218 256/274/218 248/269/218
f 249/270/219 256/274/219 257/275/219
f 249/270/220 258/276/220 250/262/220
f 251/263/221 258/276/221 259/277/221
f 251/263/222 260/278/222 252/264/222
f 253/265/223 260/278/223 261/279/223
f 254/266/224 261/279/224 262/280/224
f 259/277/225 266/281/225 267/282/225
f 259/277/226 268/283/226 260/278/226
f 261/279/227 268/283/227 269/284/227
f 262/280/228 269/284/228 270/285/228
f 346/286/229 263/287/229 343/288/229
f 255/272/230 264/289/230 256/274/230
f 257/275/231 264/289/231 265/290/231
f 257/275/232 266/281/232 258/276/232
f 264/289/233 271/291/233 272/292/233
f 264/289/234 273/293/234 265/290/234
f 265/290/235 274/294/235 266/281/235
f 267/282/236 274/294/236 275/295/236
f 267/282/237 276/296/237 268/283/237
f 269/284/238 276/296/238 277/297/238
f 270/285/239 277/297/239 278/298/239
f 348/299/240 271/291/240 345/300/240
f 275/295/241 284/301/241 276/296/241
f 277/297/242 284/301/242 285/302/242
f 278/298/243 285/302/243 286/303/243
f 271/291/244 350/304/244 349/305/244
f 271/291/245 280/306/245 272/292/245
f 273/293/246 280/306/246 281/307/246
f 273/293/247 282/308/247 274/294/247
f 275/295/248 282/308/248 283/309/248
f 281/307/249 288/1/249 1/4/249
f 282/308/250 1/4/250 289/6/250
f 283/309/251 289/6/251 2/8/251
f 284/301/252 2/8/252 290/10/252
f 285/302/253 290/10/253 4/12/253
f 142/310/21 352/311/21 134/312/21
f 134/312/21 352/311/21 126/313/21
f 150/314/21 352/311/21 142/310/21
f 166/315/21 352/311/21 158/316/21
f 158/316/21 352/311/21 150/314/21
f 286/303/254 4/12/254 7/15/254
f 292/18/255 279/317/255 349/305/255
f 280/306/256 287/17/256 288/1/256
f 8/318/257 292/319/257 351/320/257
f 293/321/258 8/318/258 294/322/258
f 11/323/259 295/324/259 294/322/259
f 16/325/260 295/324/260 14/326/260
f 297/49/261 16/325/261 298/50/261
f 299/51/262 19/327/262 356/328/262
f 22/329/263 360/330/263 358/331/263
f 359/332/263 300/333/263 353/334/263
f 26/335/264 364/336/264 362/337/264
f 303/338/48 359/332/48 361/339/48
f 29/340/265 368/341/265 366/342/265
f 305/343/48 363/344/48 365/345/48
f 32/346/266 372/347/266 370/348/266
f 307/349/48 367/350/48 369/351/48
f 372/347/267 35/352/267 376/353/267
f 311/354/268 38/355/268 312/356/268
f 313/357/269 41/358/269 314/359/269
f 315/360/270 44/361/270 316/362/270
f 317/363/271 47/364/271 318/365/271
f 319/366/272 49/367/272 321/368/272
f 320/369/273 52/370/273 323/371/273
f 55/372/274 326/373/274 324/374/274
f 59/375/275 325/376/275 326/373/275
f 62/377/276 327/378/276 325/376/276
f 65/379/277 329/380/277 328/381/277
f 68/382/278 331/383/278 330/384/278
f 70/385/279 333/386/279 332/387/279
f 73/388/280 336/389/280 334/390/280
f 76/391/281 338/392/281 335/393/281
f 79/394/282 340/395/282 337/396/282
f 82/397/283 342/398/283 339/399/283
f 85/400/284 344/401/284 341/402/284
f 88/403/285 346/404/285 343/405/285
f 91/406/286 348/407/286 345/408/286
f 93/409/287 350/410/287 347/411/287
f 96/412/288 351/320/288 349/413/288
f 376/414/289 375/415/289 6/416/289
f 5/417/290 368/418/290 372/419/290
f 357/420/291 355/421/291 6/416/291
f 356/422/258 5/423/258 355/421/258
f 91/424/292 377/425/292 93/426/292
f 96/427/292 93/426/292 377/425/292
f 96/427/292 377/425/292 3/428/292
f 8/429/292 3/428/292 377/425/292
f 11/430/292 8/429/292 377/425/292
f 14/431/292 11/430/292 377/425/292
f 16/432/292 14/431/292 377/425/292
f 19/433/292 16/432/292 377/425/292
f 22/434/292 19/433/292 377/425/292
f 26/435/292 22/434/292 377/425/292
f 29/436/292 26/435/292 377/425/292
f 32/437/292 29/436/292 377/425/292
f 35/438/292 32/437/292 377/425/292
f 38/439/292 35/438/292 377/425/292
f 41/440/292 38/439/292 377/425/292
f 44/441/292 41/440/292 377/425/292
f 47/442/292 44/441/292 377/425/292
f 49/443/292 47/442/292 377/425/292
f 52/444/292 49/443/292 377/425/292
f 55/445/292 52/444/292 377/425/292
f 59/446/292 55/445/292 377/425/292
f 62/447/292 59/446/292 377/425/292
f 65/448/292 62/447/292 377/425/292
f 68/449/292 65/448/292 377/425/292
f 70/450/292 68/449/292 377/425/292
f 73/451/292 70/450/292 377/425/292
f 76/452/292 73/451/292 377/425/292
f 79/453/292 76/452/292 377/425/292
f 82/454/292 79/453/292 377/425/292
f 85/455/292 82/454/292 377/425/292
f 91/424/292 88/456/292 377/425/292
f 88/456/292 85/455/292 377/425/292
f 126/313/21 352/311/21 118/457/21
f 118/457/21 352/311/21 110/458/21
f 110/458/21 352/311/21 102/459/21
f 102/459/21 352/311/21 92/460/21
f 92/460/21 352/311/21 80/461/21
f 80/461/21 352/311/21 67/462/21
f 67/462/21 352/311/21 56/463/21
f 56/463/21 352/311/21 43/464/21
f 43/464/21 352/311/21 31/465/21
f 31/465/21 352/311/21 20/466/21
f 20/466/21 352/311/21 7/467/21
f 286/468/21 7/467/21 352/311/21
f 286/468/21 352/311/21 278/469/21
f 278/469/21 352/311/21 270/470/21
f 270/470/21 352/311/21 262/471/21
f 262/471/21 352/311/21 254/472/21
f 254/472/21 352/311/21 246/473/21
f 246/473/21 352/311/21 238/474/21
f 238/474/21 352/311/21 230/475/21
f 230/475/21 352/311/21 222/476/21
f 222/476/21 352/311/21 214/477/21
f 214/477/21 352/311/21 206/478/21
f 206/478/21 352/311/21 198/479/21
f 198/479/21 352/311/21 190/480/21
f 190/480/21 352/311/21 182/481/21
f 182/481/21 352/311/21 174/482/21
f 166/315/21 174/482/21 352/311/21
f 288/1/1 287/17/1 9/2/1
f 1/4/2 288/1/2 10/3/2
f 289/6/3 1/4/3 12/5/3
f 2/8/4 289/6/4 13/7/4
f 290/10/5 2/8/5 15/9/5
f 4/12/6 290/10/6 17/11/6
f 4/12/7 18/13/7 20/14/7
f 291/16/8 9/2/8 287/17/8
f 18/13/9 30/27/9 31/19/9
f 21/20/10 9/2/10 291/16/10
f 9/2/11 21/20/11 23/22/11
f 10/3/12 23/22/12 24/23/12
f 12/5/13 24/23/13 25/24/13
f 13/7/14 25/24/14 27/25/14
f 15/9/15 27/25/15 28/26/15
f 18/13/16 17/11/16 28/26/16
f 25/24/17 37/36/17 39/28/17
f 27/25/18 39/28/18 40/29/18
f 28/26/19 40/29/19 42/30/19
f 30/27/20 42/30/20 43/31/20
f 294/33/293 295/483/293 33/32/293
f 33/32/293 21/20/293 293/21/293
f 21/20/22 33/32/22 34/34/22
f 23/22/23 34/34/23 36/35/23
f 24/23/24 36/35/24 37/36/24
f 33/32/25 45/53/25 46/37/25
f 34/34/26 46/37/26 48/38/26
f 36/35/27 48/38/27 50/39/27
f 37/36/28 50/39/28 51/40/28
f 39/28/29 51/40/29 53/41/29
f 42/30/30 40/29/30 53/41/30
f 43/31/31 42/30/31 54/42/31
f 297/45/294 45/53/294 33/32/294
f 33/32/294 295/483/294 296/44/294
f 51/40/33 63/57/33 64/46/33
f 54/42/34 53/41/34 64/46/34
f 56/43/35 54/42/35 66/47/35
f 299/52/36 57/58/36 45/53/36
f 45/53/37 57/58/37 58/54/37
f 46/37/38 58/54/38 60/55/38
f 48/38/39 60/55/39 61/56/39
f 51/40/40 50/39/40 61/56/40
f 57/58/41 69/71/41 71/59/41
f 58/54/42 71/59/42 72/60/42
f 60/55/43 72/60/43 74/61/43
f 63/57/44 61/56/44 74/61/44
f 63/57/45 75/62/45 77/63/45
f 66/47/46 64/46/46 77/63/46
f 67/48/47 66/47/47 78/64/47
f 301/67/295 69/71/295 57/58/295
f 57/58/295 299/52/295 300/66/295
f 75/62/49 87/78/49 89/68/49
f 78/64/50 77/63/50 89/68/50
f 80/65/51 78/64/51 90/69/51
f 303/73/296 81/74/296 69/71/296
f 69/71/296 301/67/296 302/72/296
f 71/59/53 69/71/53 81/74/53
f 71/59/54 83/75/54 84/76/54
f 72/60/55 84/76/55 86/77/55
f 75/62/56 74/61/56 86/77/56
f 83/75/57 95/88/57 97/79/57
f 84/76/58 97/79/58 98/80/58
f 87/78/59 86/77/59 98/80/59
f 87/78/60 99/81/60 100/82/60
f 90/69/61 89/68/61 100/82/61
f 92/70/62 90/69/62 101/83/62
f 305/86/297 94/87/297 81/74/297
f 81/74/297 303/73/297 304/85/297
f 83/75/64 81/74/64 94/87/64
f 101/83/65 100/82/65 108/89/65
f 102/84/66 101/83/66 109/90/66
f 305/86/298 306/484/298 307/92/298
f 307/92/67 103/106/67 94/87/67
f 94/87/68 103/106/68 104/93/68
f 95/88/69 104/93/69 105/94/69
f 97/79/70 105/94/70 106/95/70
f 99/81/71 98/80/71 106/95/71
f 99/81/72 107/96/72 108/89/72
f 105/94/73 104/93/73 112/97/73
f 105/94/74 113/98/74 114/99/74
f 107/96/75 106/95/75 114/99/75
f 107/96/76 115/100/76 116/101/76
f 109/90/77 108/89/77 116/101/77
f 110/91/78 109/90/78 117/102/78
f 308/105/292 309/111/292 111/104/292
f 111/104/79 103/106/79 307/92/79
f 103/106/80 111/104/80 112/97/80
f 117/102/81 116/101/81 124/107/81
f 118/103/82 117/102/82 125/108/82
f 310/112/292 311/123/292 119/110/292
f 119/110/83 111/104/83 309/111/83
f 111/104/84 119/110/84 120/113/84
f 113/98/85 112/97/85 120/113/85
f 113/98/86 121/114/86 122/115/86
f 115/100/87 114/99/87 122/115/87
f 115/100/88 123/116/88 124/107/88
f 121/114/89 129/125/89 130/117/89
f 123/116/90 122/115/90 130/117/90
f 123/116/91 131/118/91 132/119/91
f 125/108/92 124/107/92 132/119/92
f 126/109/93 125/108/93 133/120/93
f 311/123/21 312/485/21 313/122/21
f 313/122/94 127/129/94 119/110/94
f 119/110/95 127/129/95 128/124/95
f 120/113/96 128/124/96 129/125/96
f 134/121/97 133/120/97 141/126/97
f 313/122/21 314/486/21 315/128/21
f 315/128/98 135/130/98 127/129/98
f 128/124/99 127/129/99 135/130/99
f 129/125/100 128/124/100 136/131/100
f 129/125/101 137/132/101 138/133/101
f 131/118/102 130/117/102 138/133/102
f 131/118/103 139/134/103 140/135/103
f 133/120/104 132/119/104 140/135/104
f 139/134/105 138/133/105 146/136/105
f 139/134/106 147/137/106 148/138/106
f 141/126/107 140/135/107 148/138/107
f 142/127/108 141/126/108 149/139/108
f 316/141/292 317/147/292 143/142/292
f 143/142/109 135/130/109 315/128/109
f 135/130/110 143/142/110 144/143/110
f 136/131/111 144/143/111 145/144/111
f 137/132/112 145/144/112 146/136/112
f 318/145/152 319/161/152 151/146/152
f 151/146/113 143/142/113 317/147/113
f 143/142/114 151/146/114 152/148/114
f 144/143/115 152/148/115 153/149/115
f 145/144/116 153/149/116 154/150/116
f 147/137/117 146/136/117 154/150/117
f 147/137/118 155/151/118 156/152/118
f 149/139/119 148/138/119 156/152/119
f 150/140/120 149/139/120 157/153/120
f 155/151/121 154/150/121 162/155/121
f 155/151/122 163/156/122 164/157/122
f 157/153/123 156/152/123 164/157/123
f 158/154/124 157/153/124 165/158/124
f 321/162/299 320/173/299 159/160/299
f 159/160/125 151/146/125 319/161/125
f 151/146/126 159/160/126 160/163/126
f 153/149/127 152/148/127 160/163/127
f 153/149/128 161/164/128 162/155/128
f 159/160/129 167/172/129 168/165/129
f 160/163/130 168/165/130 169/166/130
f 161/164/131 169/166/131 170/167/131
f 163/156/132 162/155/132 170/167/132
f 163/156/133 171/168/133 172/169/133
f 165/158/134 164/157/134 172/169/134
f 166/159/135 165/158/135 173/170/135
f 323/174/289 322/179/289 167/172/289
f 167/172/136 159/160/136 320/173/136
f 171/168/137 179/184/137 180/175/137
f 173/170/138 172/169/138 180/175/138
f 174/171/139 173/170/139 181/176/139
f 175/178/140 167/172/140 322/179/140
f 168/165/141 167/172/141 175/178/141
f 168/165/142 176/181/142 177/182/142
f 169/166/143 177/182/143 178/183/143
f 171/168/144 170/167/144 178/183/144
f 176/181/145 175/178/145 183/185/145
f 176/181/146 184/186/146 185/187/146
f 177/182/147 185/187/147 186/188/147
f 179/184/148 178/183/148 186/188/148
f 179/184/149 187/189/149 188/190/149
f 181/176/150 180/175/150 188/190/150
f 182/177/151 181/176/151 189/191/151
f 326/193/300 325/199/300 183/185/300
f 183/185/300 175/178/300 324/180/300
f 187/189/153 195/203/153 196/194/153
f 189/191/154 188/190/154 196/194/154
f 190/192/155 189/191/155 197/195/155
f 327/197/292 328/211/292 191/198/292
f 191/198/156 183/185/156 325/199/156
f 183/185/157 191/198/157 192/200/157
f 184/186/158 192/200/158 193/201/158
f 185/187/159 193/201/159 194/202/159
f 187/189/160 186/188/160 194/202/160
f 192/200/161 200/212/161 201/204/161
f 193/201/162 201/204/162 202/205/162
f 195/203/163 194/202/163 202/205/163
f 195/203/164 203/206/164 204/207/164
f 197/195/165 196/194/165 204/207/165
f 198/196/166 197/195/166 205/208/166
f 328/211/301 329/487/301 330/210/301
f 330/210/167 199/218/167 191/198/167
f 191/198/168 199/218/168 200/212/168
f 205/208/169 204/207/169 212/213/169
f 206/209/170 205/208/170 213/214/170
f 331/216/292 332/230/292 207/217/292
f 207/217/171 199/218/171 330/210/171
f 199/218/172 207/217/172 208/219/172
f 200/212/173 208/219/173 209/220/173
f 201/204/174 209/220/174 210/221/174
f 202/205/175 210/221/175 211/222/175
f 203/206/176 211/222/176 212/213/176
f 209/220/177 217/232/177 218/223/177
f 211/222/178 210/221/178 218/223/178
f 211/222/179 219/224/179 220/225/179
f 213/214/180 212/213/180 220/225/180
f 214/215/181 213/214/181 221/226/181
f 333/228/292 334/236/292 215/229/292
f 215/229/182 207/217/182 332/230/182
f 207/217/183 215/229/183 216/231/183
f 208/219/184 216/231/184 217/232/184
f 222/227/185 221/226/185 229/233/185
f 336/237/302 335/250/302 223/235/302
f 223/235/186 215/229/186 334/236/186
f 215/229/187 223/235/187 224/238/187
f 217/232/188 216/231/188 224/238/188
f 217/232/189 225/239/189 226/240/189
f 219/224/190 218/223/190 226/240/190
f 219/224/191 227/241/191 228/242/191
f 221/226/192 220/225/192 228/242/192
f 225/239/193 233/252/193 234/243/193
f 227/241/194 226/240/194 234/243/194
f 227/241/195 235/244/195 236/245/195
f 229/233/196 228/242/196 236/245/196
f 230/234/197 229/233/197 237/246/197
f 338/248/292 337/488/292 231/249/292
f 231/249/198 223/235/198 335/250/198
f 223/235/199 231/249/199 232/251/199
f 225/239/200 224/238/200 232/251/200
f 238/247/201 237/246/201 245/253/201
f 339/256/303 239/489/303 231/249/303
f 231/249/303 337/488/303 340/255/303
f 231/249/203 239/489/203 240/257/203
f 233/252/204 232/251/204 240/257/204
f 233/252/205 241/258/205 242/259/205
f 235/244/206 234/243/206 242/259/206
f 235/244/207 243/260/207 244/261/207
f 237/246/208 236/245/208 244/261/208
f 243/260/209 242/259/209 250/262/209
f 243/260/210 251/263/210 252/264/210
f 245/253/211 244/261/211 252/264/211
f 246/254/212 245/253/212 253/265/212
f 342/267/292 341/273/292 247/268/292
f 247/268/213 239/489/213 339/256/213
f 240/257/214 239/489/214 247/268/214
f 240/257/215 248/269/215 249/270/215
f 241/258/216 249/270/216 250/262/216
f 344/271/292 343/288/292 255/272/292
f 255/272/217 247/268/217 341/273/217
f 247/268/218 255/272/218 256/274/218
f 249/270/219 248/269/219 256/274/219
f 249/270/220 257/275/220 258/276/220
f 251/263/221 250/262/221 258/276/221
f 251/263/222 259/277/222 260/278/222
f 253/265/223 252/264/223 260/278/223
f 254/266/224 253/265/224 261/279/224
f 259/277/225 258/276/225 266/281/225
f 259/277/226 267/282/226 268/283/226
f 261/279/227 260/278/227 268/283/227
f 262/280/228 261/279/228 269/284/228
f 346/286/304 345/300/304 263/287/304
f 263/287/229 255/272/229 343/288/229
f 255/272/230 263/287/230 264/289/230
f 257/275/231 256/274/231 264/289/231
f 257/275/232 265/290/232 266/281/232
f 264/289/233 263/287/233 271/291/233
f 264/289/234 272/292/234 273/293/234
f 265/290/235 273/293/235 274/294/235
f 267/282/236 266/281/236 274/294/236
f 267/282/237 275/295/237 276/296/237
f 269/284/238 268/283/238 276/296/238
f 270/285/239 269/284/239 277/297/239
f 348/299/304 347/490/304 271/291/304
f 271/291/240 263/287/240 345/300/240
f 275/295/241 283/309/241 284/301/241
f 277/297/242 276/296/242 284/301/242
f 278/298/243 277/297/243 285/302/243
f 349/305/305 279/317/305 271/291/305
f 271/291/305 347/490/305 350/304/305
f 271/291/245 279/317/245 280/306/245
f 273/293/246 272/292/246 280/306/246
f 273/293/247 281/307/247 282/308/247
f 275/295/248 274/294/248 282/308/248
f 281/307/249 280/306/249 288/1/249
f 282/308/250 281/307/250 1/4/250
f 283/309/251 282/308/251 289/6/251
f 284/301/252 283/309/252 2/8/252
f 285/302/253 284/301/253 290/10/253
f 286/303/254 285/302/254 4/12/254
f 349/305/292 351/491/292 292/18/292
f 292/18/255 287/17/255 279/317/255
f 280/306/256 279/317/256 287/17/256
f 351/320/306 3/492/306 8/318/306
f 8/318/306 291/493/306 292/319/306
f 293/321/307 291/493/307 8/318/307
f 8/318/307 11/323/307 294/322/307
f 11/323/259 14/326/259 295/324/259
f 16/325/260 296/494/260 295/324/260
f 297/49/48 296/494/48 16/325/48
f 16/325/261 19/327/261 298/50/261
f 355/495/262 353/334/262 300/333/262
f 299/51/48 298/50/48 19/327/48
f 355/495/262 300/333/262 299/51/262
f 22/329/262 354/496/262 356/328/262
f 356/328/262 355/495/262 299/51/262
f 19/327/262 22/329/262 356/328/262
f 22/329/263 26/335/263 360/330/263
f 358/331/292 354/496/292 22/329/292
f 359/332/263 302/497/263 301/498/263
f 359/332/308 301/498/308 300/333/308
f 353/334/292 357/499/292 359/332/292
f 26/335/264 29/500/264 364/336/264
f 362/337/292 360/330/292 26/335/292
f 361/339/264 363/501/264 304/502/264
f 303/338/48 302/497/48 359/332/48
f 361/339/264 304/502/264 303/338/264
f 29/340/265 32/346/265 368/341/265
f 366/342/48 364/503/48 29/340/48
f 365/345/265 367/350/265 306/504/265
f 305/343/48 304/505/48 363/344/48
f 365/345/265 306/504/265 305/343/265
f 32/346/266 35/352/266 372/347/266
f 370/348/292 368/341/292 32/346/292
f 369/351/266 371/506/266 308/507/266
f 307/349/48 306/504/48 367/350/48
f 369/351/266 308/507/266 307/349/266
f 38/355/267 310/508/267 309/509/267
f 38/355/48 309/509/48 308/507/48
f 371/506/292 373/510/292 375/511/292
f 308/507/267 371/506/267 375/511/267
f 38/355/267 308/507/267 375/511/267
f 38/355/267 375/511/267 376/353/267
f 35/352/267 38/355/267 376/353/267
f 376/353/292 374/512/292 372/347/292
f 311/354/48 310/508/48 38/355/48
f 38/355/268 41/358/268 312/356/268
f 313/357/289 312/356/289 41/358/289
f 41/358/269 44/361/269 314/359/269
f 315/360/289 314/359/289 44/361/289
f 44/361/270 47/364/270 316/362/270
f 317/363/289 316/362/289 47/364/289
f 47/364/271 49/367/271 318/365/271
f 319/366/289 318/365/289 49/367/289
f 49/367/272 52/370/272 321/368/272
f 320/369/289 321/368/289 52/370/289
f 52/370/273 55/372/273 323/371/273
f 322/513/289 323/371/289 55/372/289
f 55/372/309 59/375/309 326/373/309
f 324/374/309 322/513/309 55/372/309
f 59/375/275 62/377/275 325/376/275
f 62/377/276 65/379/276 327/378/276
f 328/381/32 327/378/32 65/379/32
f 65/379/277 68/382/277 329/380/277
f 330/384/32 329/380/32 68/382/32
f 68/382/278 70/385/278 331/383/278
f 332/387/310 331/383/310 70/385/310
f 70/385/279 73/388/279 333/386/279
f 334/390/32 333/386/32 73/388/32
f 73/388/280 76/391/280 336/389/280
f 335/393/32 336/389/32 76/391/32
f 76/391/281 79/394/281 338/392/281
f 337/396/32 338/392/32 79/394/32
f 79/394/282 82/397/282 340/395/282
f 339/399/32 340/395/32 82/397/32
f 82/397/283 85/400/283 342/398/283
f 341/402/32 342/398/32 85/400/32
f 85/400/284 88/403/284 344/401/284
f 343/405/311 344/401/311 88/403/311
f 88/403/285 91/406/285 346/404/285
f 345/408/312 346/404/312 91/406/312
f 91/406/286 93/409/286 348/407/286
f 347/411/258 348/407/258 93/409/258
f 93/409/287 96/412/287 350/410/287
f 349/413/258 350/410/258 96/412/258
f 96/412/288 3/492/288 351/320/288
f 376/414/290 6/416/290 5/417/290
f 356/514/292 354/515/292 358/516/292
f 5/417/290 356/514/290 358/516/290
f 372/419/290 376/414/290 5/417/290
f 358/516/292 360/517/292 362/518/292
f 5/417/290 358/516/290 362/518/290
f 5/417/290 362/518/290 364/519/290
f 5/417/48 364/519/48 366/520/48
f 368/418/292 370/521/292 372/419/292
f 5/417/290 366/520/290 368/418/290
f 369/522/21 367/523/21 365/524/21
f 363/525/313 361/526/313 359/527/313
f 355/421/291 5/423/291 6/416/291
f 6/416/291 375/415/291 371/528/291
f 6/416/291 371/528/291 369/522/291
f 6/416/291 369/522/291 365/524/291
f 6/416/32 365/524/32 363/525/32
f 6/416/291 363/525/291 359/527/291
f 357/420/292 353/529/292 355/421/292
f 6/416/291 359/527/291 357/420/291
