# Blender 4.5.8 LTS
# www.blender.org
mtllib Thorn.mtl
o Thorn
v -0.375000 -0.500000 0.125000
v -0.399386 -0.500000 0.122598
v -0.422835 -0.500000 0.115485
v -0.444446 -0.500000 0.103934
v -0.463388 -0.500000 0.088388
v -0.478934 -0.500000 0.069446
v -0.490485 -0.500000 0.047835
v -0.497598 -0.500000 0.024386
v -0.500000 -0.500000 0.000000
v -0.497598 -0.500000 -0.024386
v -0.490485 -0.500000 -0.047835
v -0.478934 -0.500000 -0.069446
v -0.463388 -0.500000 -0.088388
v -0.444446 -0.500000 -0.103934
v -0.422835 -0.500000 -0.115485
v -0.399386 -0.500000 -0.122598
v -0.375000 -0.500000 -0.125000
v -0.350614 -0.500000 -0.122598
v -0.327165 -0.500000 -0.115485
v -0.305554 -0.500000 -0.103934
v -0.286612 -0.500000 -0.088388
v -0.271066 -0.500000 -0.069446
v -0.259515 -0.500000 -0.047835
v -0.252402 -0.500000 -0.024386
v -0.250000 -0.500000 0.000000
v -0.252402 -0.500000 0.024386
v -0.259515 -0.500000 0.047835
v -0.271066 -0.500000 0.069446
v -0.286612 -0.500000 0.088388
v -0.305554 -0.500000 0.103934
v -0.327165 -0.500000 0.115485
v -0.350614 -0.500000 0.122598
v -0.375000 0.200000 0.000000
v -0.125000 -0.500000 0.125000
v -0.149386 -0.500000 0.122598
v -0.172835 -0.500000 0.115485
v -0.194446 -0.500000 0.103934
v -0.213388 -0.500000 0.088388
v -0.228934 -0.500000 0.069446
v -0.240485 -0.500000 0.047835
v -0.247598 -0.500000 0.024386
v -0.250000 -0.500000 0.000000
v -0.247598 -0.500000 -0.024386
v -0.240485 -0.500000 -0.047835
v -0.228934 -0.500000 -0.069446
v -0.213388 -0.500000 -0.088388
v -0.194446 -0.500000 -0.103934
v -0.172835 -0.500000 -0.115485
v -0.149386 -0.500000 -0.122598
v -0.125000 -0.500000 -0.125000
v -0.100614 -0.500000 -0.122598
v -0.077165 -0.500000 -0.115485
v -0.055554 -0.500000 -0.103934
v -0.036612 -0.500000 -0.088388
v -0.021066 -0.500000 -0.069446
v -0.009515 -0.500000 -0.047835
v -0.002402 -0.500000 -0.024386
v 0.000000 -0.500000 0.000000
v -0.002402 -0.500000 0.024386
v -0.009515 -0.500000 0.047835
v -0.021066 -0.500000 0.069446
v -0.036612 -0.500000 0.088388
v -0.055554 -0.500000 0.103934
v -0.077165 -0.500000 0.115485
v -0.100614 -0.500000 0.122598
v -0.125000 0.200000 0.000000
v 0.125000 -0.500000 0.125000
v 0.100614 -0.500000 0.122598
v 0.077165 -0.500000 0.115485
v 0.055554 -0.500000 0.103934
v 0.036612 -0.500000 0.088388
v 0.021066 -0.500000 0.069446
v 0.009515 -0.500000 0.047835
v 0.002402 -0.500000 0.024386
v 0.000000 -0.500000 0.000000
v 0.002402 -0.500000 -0.024386
v 0.009515 -0.500000 -0.047835
v 0.021066 -0.500000 -0.069446
v 0.036612 -0.500000 -0.088388
v 0.055554 -0.500000 -0.103934
v 0.077165 -0.500000 -0.115485
v 0.100614 -0.500000 -0.122598
v 0.125000 -0.500000 -0.125000
v 0.149386 -0.500000 -0.122598
v 0.172835 -0.500000 -0.115485
v 0.194446 -0.500000 -0.103934
v 0.213388 -0.500000 -0.088388
v 0.228934 -0.500000 -0.069446
v 0.240485 -0.500000 -0.047835
v 0.247598 -0.500000 -0.024386
v 0.250000 -0.500000 0.000000
v 0.247598 -0.500000 0.024386
v 0.240485 -0.500000 0.047835
v 0.228934 -0.500000 0.069446
v 0.213388 -0.500000 0.088388
v 0.194446 -0.500000 0.103934
v 0.172835 -0.500000 0.115485
v 0.149386 -0.500000 0.122598
v 0.125000 0.200000 0.000000
v 0.375000 -0.500000 0.125000
v 0.350614 -0.500000 0.122598
v 0.327165 -0.500000 0.115485
v 0.305554 -0.500000 0.103934
v 0.286612 -0.500000 0.088388
v 0.271066 -0.500000 0.069446
v 0.259515 -0.500000 0.047835
v 0.252402 -0.500000 0.024386
v 0.250000 -0.500000 0.000000
v 0.252402 -0.500000 -0.024386
v 0.259515 -0.500000 -0.047835
v 0.271066 -0.500000 -0.069446
v 0.286612 -0.500000 -0.088388
v 0.305554 -0.500000 -0.103934
v 0.327165 -0.500000 -0.115485
v 0.350614 -0.500000 -0.122598
v 0.375000 -0.500000 -0.125000
v 0.399386 -0.500000 -0.122598
v 0.422835 -0.500000 -0.115485
v 0.444446 -0.500000 -0.103934
v 0.463388 -0.500000 -0.088388
v 0.478934 -0.500000 -0.069446
v 0.490485 -0.500000 -0.047835
v 0.497598 -0.500000 -0.024386
v 0.500000 -0.500000 0.000000
v 0.497598 -0.500000 0.024386
v 0.490485 -0.500000 0.047835
v 0.478934 -0.500000 0.069446
v 0.463388 -0.500000 0.088388
v 0.444446 -0.500000 0.103934
v 0.422835 -0.500000 0.115485
v 0.399386 -0.500000 0.122598
v 0.375000 0.200000 0.000000
vn -0.0965 0.1750 0.9798
vn -0.2858 0.1750 0.9422
vn -0.4641 0.1750 0.8683
vn -0.6246 0.1750 0.7611
vn -0.7611 0.1750 0.6246
vn -0.8683 0.1750 0.4641
vn -0.9422 0.1750 0.2858
vn -0.9798 0.1750 0.0965
vn -0.9798 0.1750 -0.0965
vn -0.9422 0.1750 -0.2858
vn -0.8683 0.1750 -0.4641
vn -0.7611 0.1750 -0.6246
vn -0.6246 0.1750 -0.7611
vn -0.4641 0.1750 -0.8683
vn -0.2858 0.1750 -0.9422
vn -0.0965 0.1750 -0.9798
vn 0.0965 0.1750 -0.9798
vn 0.2858 0.1750 -0.9422
vn 0.4641 0.1750 -0.8683
vn 0.6246 0.1750 -0.7611
vn 0.7611 0.1750 -0.6246
vn 0.8683 0.1750 -0.4641
vn 0.9422 0.1750 -0.2858
vn 0.9798 0.1750 -0.0965
vn 0.9798 0.1750 0.0965
vn 0.9422 0.1750 0.2858
vn 0.8683 0.1750 0.4641
vn 0.7611 0.1750 0.6246
vn 0.6246 0.1750 0.7611
vn 0.4641 0.1750 0.8683
vn -0.0000 -1.0000 -0.0000
vn 0.2858 0.1750 0.9422
vn 0.0965 0.1750 0.9798
vt 0.150278 0.999734
vt 0.166667 0.833333
vt 0.183056 0.999734
vt 0.215204 0.993339
vt 0.245487 0.980796
vt 0.272741 0.962585
vt 0.295918 0.939407
vt 0.314129 0.912154
vt 0.326672 0.881871
vt 0.333067 0.849722
vt 0.333067 0.816944
vt 0.326672 0.784796
vt 0.314129 0.754513
vt 0.295918 0.727259
vt 0.272741 0.704082
vt 0.245487 0.685871
vt 0.215204 0.673328
vt 0.183056 0.666933
vt 0.150278 0.666933
vt 0.118130 0.673328
vt 0.087847 0.685871
vt 0.060593 0.704082
vt 0.037415 0.727259
vt 0.019205 0.754513
vt 0.006661 0.784796
vt 0.000266 0.816944
vt 0.000266 0.849722
vt 0.006661 0.881871
vt 0.019205 0.912153
vt 0.037415 0.939407
vt 0.060593 0.962585
vt 0.087846 0.980795
vt 0.333067 0.150278
vt 0.150278 0.000266
vt 0.000266 0.183056
vt 0.118129 0.993339
vt 0.483611 0.999734
vt 0.500000 0.833333
vt 0.516389 0.999734
vt 0.548537 0.993339
vt 0.578820 0.980796
vt 0.606074 0.962585
vt 0.629252 0.939407
vt 0.647462 0.912154
vt 0.660006 0.881871
vt 0.666400 0.849722
vt 0.666400 0.816944
vt 0.660006 0.784796
vt 0.647462 0.754513
vt 0.629252 0.727259
vt 0.606074 0.704082
vt 0.578820 0.685871
vt 0.548537 0.673328
vt 0.516389 0.666933
vt 0.483611 0.666933
vt 0.451463 0.673328
vt 0.421180 0.685871
vt 0.393926 0.704082
vt 0.370748 0.727259
vt 0.352538 0.754513
vt 0.339994 0.784796
vt 0.333600 0.816944
vt 0.333600 0.849722
vt 0.339994 0.881871
vt 0.352538 0.912153
vt 0.370748 0.939407
vt 0.393926 0.962585
vt 0.421180 0.980795
vt 0.483611 0.000266
vt 0.333600 0.183056
vt 0.516389 0.333067
vt 0.451463 0.993339
vt 0.999734 0.183056
vt 0.833333 0.166667
vt 0.999734 0.150278
vt 0.993339 0.118130
vt 0.980796 0.087847
vt 0.962585 0.060593
vt 0.939407 0.037415
vt 0.912154 0.019205
vt 0.881871 0.006661
vt 0.849722 0.000266
vt 0.816944 0.000266
vt 0.784796 0.006661
vt 0.754513 0.019204
vt 0.727259 0.037415
vt 0.704082 0.060593
vt 0.685871 0.087846
vt 0.673328 0.118129
vt 0.666933 0.150278
vt 0.666933 0.183056
vt 0.673328 0.215204
vt 0.685871 0.245487
vt 0.704082 0.272741
vt 0.727259 0.295918
vt 0.754513 0.314129
vt 0.784796 0.326672
vt 0.816944 0.333067
vt 0.849722 0.333067
vt 0.881871 0.326672
vt 0.912153 0.314129
vt 0.939407 0.295918
vt 0.962585 0.272741
vt 0.980796 0.245487
vt 0.333067 0.483611
vt 0.150278 0.333600
vt 0.000266 0.516389
vt 0.993339 0.215204
vt 0.999734 0.516389
vt 0.833333 0.500000
vt 0.999734 0.483611
vt 0.993339 0.451463
vt 0.980796 0.421180
vt 0.962585 0.393926
vt 0.939408 0.370748
vt 0.912154 0.352538
vt 0.881871 0.339994
vt 0.849723 0.333600
vt 0.816944 0.333600
vt 0.784796 0.339994
vt 0.754513 0.352538
vt 0.727259 0.370748
vt 0.704082 0.393926
vt 0.685871 0.421180
vt 0.673328 0.451463
vt 0.666933 0.483611
vt 0.666933 0.516389
vt 0.673328 0.548537
vt 0.685871 0.578820
vt 0.704082 0.606074
vt 0.727259 0.629252
vt 0.754513 0.647462
vt 0.784796 0.660006
vt 0.816944 0.666400
vt 0.849722 0.666400
vt 0.881871 0.660006
vt 0.912153 0.647462
vt 0.939407 0.629252
vt 0.962585 0.606074
vt 0.980796 0.578820
vt 0.666400 0.483611
vt 0.483611 0.333600
vt 0.333600 0.516389
vt 0.993339 0.548537
vt 0.006661 0.215204
vt 0.019205 0.245487
vt 0.037415 0.272741
vt 0.060593 0.295918
vt 0.087847 0.314129
vt 0.118129 0.326672
vt 0.150278 0.333067
vt 0.183056 0.333067
vt 0.215204 0.326672
vt 0.245487 0.314129
vt 0.272741 0.295918
vt 0.295918 0.272741
vt 0.314129 0.245487
vt 0.326672 0.215204
vt 0.333067 0.183056
vt 0.326672 0.118129
vt 0.314129 0.087847
vt 0.295918 0.060593
vt 0.272741 0.037415
vt 0.245487 0.019205
vt 0.215204 0.006661
vt 0.183056 0.000266
vt 0.118129 0.006661
vt 0.087846 0.019205
vt 0.060593 0.037415
vt 0.037415 0.060593
vt 0.019204 0.087847
vt 0.006661 0.118130
vt 0.000266 0.150278
vt 0.548537 0.326672
vt 0.578820 0.314129
vt 0.606074 0.295918
vt 0.629252 0.272741
vt 0.647462 0.245487
vt 0.660006 0.215204
vt 0.666400 0.183056
vt 0.666400 0.150278
vt 0.660006 0.118129
vt 0.647462 0.087846
vt 0.629252 0.060593
vt 0.606074 0.037415
vt 0.578820 0.019205
vt 0.548537 0.006661
vt 0.516389 0.000266
vt 0.451463 0.006661
vt 0.421180 0.019205
vt 0.393926 0.037415
vt 0.370748 0.060593
vt 0.352538 0.087847
vt 0.339994 0.118130
vt 0.333600 0.150278
vt 0.339994 0.215204
vt 0.352538 0.245487
vt 0.370748 0.272741
vt 0.393926 0.295918
vt 0.421180 0.314129
vt 0.451463 0.326672
vt 0.483611 0.333067
vt 0.006661 0.548537
vt 0.019205 0.578820
vt 0.037415 0.606074
vt 0.060593 0.629252
vt 0.087847 0.647462
vt 0.118129 0.660006
vt 0.150278 0.666400
vt 0.183056 0.666400
vt 0.215204 0.660006
vt 0.245487 0.647462
vt 0.272741 0.629252
vt 0.295918 0.606074
vt 0.314129 0.578820
vt 0.326672 0.548537
vt 0.333067 0.516389
vt 0.326672 0.451463
vt 0.314129 0.421180
vt 0.295918 0.393926
vt 0.272741 0.370748
vt 0.245487 0.352538
vt 0.215204 0.339994
vt 0.183056 0.333600
vt 0.118129 0.339994
vt 0.087846 0.352538
vt 0.060593 0.370748
vt 0.037415 0.393926
vt 0.019204 0.421180
vt 0.006661 0.451463
vt 0.000266 0.483611
vt 0.339994 0.548537
vt 0.352538 0.578820
vt 0.370748 0.606074
vt 0.393926 0.629252
vt 0.421180 0.647462
vt 0.451463 0.660006
vt 0.483611 0.666400
vt 0.516389 0.666400
vt 0.548537 0.660006
vt 0.578820 0.647462
vt 0.606074 0.629252
vt 0.629252 0.606074
vt 0.647462 0.578820
vt 0.660006 0.548537
vt 0.666400 0.516389
vt 0.660006 0.451463
vt 0.647462 0.421180
vt 0.629252 0.393926
vt 0.606074 0.370748
vt 0.578820 0.352538
vt 0.548537 0.339994
vt 0.516389 0.333600
vt 0.451463 0.339994
vt 0.421180 0.352538
vt 0.393926 0.370748
vt 0.370748 0.393926
vt 0.352538 0.421180
vt 0.339994 0.451463
vt 0.333600 0.483611
s 0
usemtl マテリアル
f 1/1/1 33/2/1 2/3/1
f 2/3/2 33/2/2 3/4/2
f 3/4/3 33/2/3 4/5/3
f 4/5/4 33/2/4 5/6/4
f 5/6/5 33/2/5 6/7/5
f 6/7/6 33/2/6 7/8/6
f 7/8/7 33/2/7 8/9/7
f 8/9/8 33/2/8 9/10/8
f 9/10/9 33/2/9 10/11/9
f 10/11/10 33/2/10 11/12/10
f 11/12/11 33/2/11 12/13/11
f 12/13/12 33/2/12 13/14/12
f 13/14/13 33/2/13 14/15/13
f 14/15/14 33/2/14 15/16/14
f 15/16/15 33/2/15 16/17/15
f 16/17/16 33/2/16 17/18/16
f 17/18/17 33/2/17 18/19/17
f 18/19/18 33/2/18 19/20/18
f 19/20/19 33/2/19 20/21/19
f 20/21/20 33/2/20 21/22/20
f 21/22/21 33/2/21 22/23/21
f 22/23/22 33/2/22 23/24/22
f 23/24/23 33/2/23 24/25/23
f 24/25/24 33/2/24 25/26/24
f 25/26/25 33/2/25 26/27/25
f 26/27/26 33/2/26 27/28/26
f 27/28/27 33/2/27 28/29/27
f 28/29/28 33/2/28 29/30/28
f 29/30/29 33/2/29 30/31/29
f 30/31/30 33/2/30 31/32/30
f 16/33/31 24/34/31 32/35/31
f 31/32/32 33/2/32 32/36/32
f 32/36/33 33/2/33 1/1/33
f 34/37/1 66/38/1 35/39/1
f 35/39/2 66/38/2 36/40/2
f 36/40/3 66/38/3 37/41/3
f 37/41/4 66/38/4 38/42/4
f 38/42/5 66/38/5 39/43/5
f 39/43/6 66/38/6 40/44/6
f 40/44/7 66/38/7 41/45/7
f 41/45/8 66/38/8 42/46/8
f 42/46/9 66/38/9 43/47/9
f 43/47/10 66/38/10 44/48/10
f 44/48/11 66/38/11 45/49/11
f 45/49/12 66/38/12 46/50/12
f 46/50/13 66/38/13 47/51/13
f 47/51/14 66/38/14 48/52/14
f 48/52/15 66/38/15 49/53/15
f 49/53/16 66/38/16 50/54/16
f 50/54/17 66/38/17 51/55/17
f 51/55/18 66/38/18 52/56/18
f 52/56/19 66/38/19 53/57/19
f 53/57/20 66/38/20 54/58/20
f 54/58/21 66/38/21 55/59/21
f 55/59/22 66/38/22 56/60/22
f 56/60/23 66/38/23 57/61/23
f 57/61/24 66/38/24 58/62/24
f 58/62/25 66/38/25 59/63/25
f 59/63/26 66/38/26 60/64/26
f 60/64/27 66/38/27 61/65/27
f 61/65/28 66/38/28 62/66/28
f 62/66/29 66/38/29 63/67/29
f 63/67/30 66/38/30 64/68/30
f 49/69/31 57/70/31 65/71/31
f 64/68/32 66/38/32 65/72/32
f 65/72/33 66/38/33 34/37/33
f 67/73/1 99/74/1 68/75/1
f 68/75/2 99/74/2 69/76/2
f 69/76/3 99/74/3 70/77/3
f 70/77/4 99/74/4 71/78/4
f 71/78/5 99/74/5 72/79/5
f 72/79/6 99/74/6 73/80/6
f 73/80/7 99/74/7 74/81/7
f 74/81/8 99/74/8 75/82/8
f 75/82/9 99/74/9 76/83/9
f 76/83/10 99/74/10 77/84/10
f 77/84/11 99/74/11 78/85/11
f 78/85/12 99/74/12 79/86/12
f 79/86/13 99/74/13 80/87/13
f 80/87/14 99/74/14 81/88/14
f 81/88/15 99/74/15 82/89/15
f 82/89/16 99/74/16 83/90/16
f 83/90/17 99/74/17 84/91/17
f 84/91/18 99/74/18 85/92/18
f 85/92/19 99/74/19 86/93/19
f 86/93/20 99/74/20 87/94/20
f 87/94/21 99/74/21 88/95/21
f 88/95/22 99/74/22 89/96/22
f 89/96/23 99/74/23 90/97/23
f 90/97/24 99/74/24 91/98/24
f 91/98/25 99/74/25 92/99/25
f 92/99/26 99/74/26 93/100/26
f 93/100/27 99/74/27 94/101/27
f 94/101/28 99/74/28 95/102/28
f 95/102/29 99/74/29 96/103/29
f 96/103/30 99/74/30 97/104/30
f 82/105/31 90/106/31 98/107/31
f 97/104/32 99/74/32 98/108/32
f 98/108/33 99/74/33 67/73/33
f 100/109/1 132/110/1 101/111/1
f 101/111/2 132/110/2 102/112/2
f 102/112/3 132/110/3 103/113/3
f 103/113/4 132/110/4 104/114/4
f 104/114/5 132/110/5 105/115/5
f 105/115/6 132/110/6 106/116/6
f 106/116/7 132/110/7 107/117/7
f 107/117/8 132/110/8 108/118/8
f 108/118/9 132/110/9 109/119/9
f 109/119/10 132/110/10 110/120/10
f 110/120/11 132/110/11 111/121/11
f 111/121/12 132/110/12 112/122/12
f 112/122/13 132/110/13 113/123/13
f 113/123/14 132/110/14 114/124/14
f 114/124/15 132/110/15 115/125/15
f 115/125/16 132/110/16 116/126/16
f 116/126/17 132/110/17 117/127/17
f 117/127/18 132/110/18 118/128/18
f 118/128/19 132/110/19 119/129/19
f 119/129/20 132/110/20 120/130/20
f 120/130/21 132/110/21 121/131/21
f 121/131/22 132/110/22 122/132/22
f 122/132/23 132/110/23 123/133/23
f 123/133/24 132/110/24 124/134/24
f 124/134/25 132/110/25 125/135/25
f 125/135/26 132/110/26 126/136/26
f 126/136/27 132/110/27 127/137/27
f 127/137/28 132/110/28 128/138/28
f 128/138/29 132/110/29 129/139/29
f 129/139/30 132/110/30 130/140/30
f 115/141/31 123/142/31 131/143/31
f 130/140/32 132/110/32 131/144/32
f 131/144/33 132/110/33 100/109/33
f 32/35/31 1/145/31 2/146/31
f 2/146/31 3/147/31 4/148/31
f 4/148/31 5/149/31 6/150/31
f 6/150/31 7/151/31 8/152/31
f 8/152/31 9/153/31 10/154/31
f 10/154/31 11/155/31 12/156/31
f 12/156/31 13/157/31 14/158/31
f 14/158/31 15/159/31 16/33/31
f 16/33/31 17/160/31 18/161/31
f 18/161/31 19/162/31 20/163/31
f 20/163/31 21/164/31 22/165/31
f 22/165/31 23/166/31 24/34/31
f 24/34/31 25/167/31 26/168/31
f 26/168/31 27/169/31 28/170/31
f 28/170/31 29/171/31 30/172/31
f 30/172/31 31/173/31 32/35/31
f 32/35/31 2/146/31 4/148/31
f 4/148/31 6/150/31 8/152/31
f 8/152/31 10/154/31 12/156/31
f 12/156/31 14/158/31 16/33/31
f 16/33/31 18/161/31 20/163/31
f 20/163/31 22/165/31 24/34/31
f 24/34/31 26/168/31 28/170/31
f 28/170/31 30/172/31 32/35/31
f 32/35/31 4/148/31 8/152/31
f 8/152/31 12/156/31 16/33/31
f 16/33/31 20/163/31 24/34/31
f 24/34/31 28/170/31 32/35/31
f 32/35/31 8/152/31 16/33/31
f 65/71/31 34/174/31 35/175/31
f 35/175/31 36/176/31 37/177/31
f 37/177/31 38/178/31 39/179/31
f 39/179/31 40/180/31 41/181/31
f 41/181/31 42/182/31 43/183/31
f 43/183/31 44/184/31 45/185/31
f 45/185/31 46/186/31 47/187/31
f 47/187/31 48/188/31 49/69/31
f 49/69/31 50/189/31 51/190/31
f 51/190/31 52/191/31 53/192/31
f 53/192/31 54/193/31 55/194/31
f 55/194/31 56/195/31 57/70/31
f 57/70/31 58/196/31 59/197/31
f 59/197/31 60/198/31 61/199/31
f 61/199/31 62/200/31 63/201/31
f 63/201/31 64/202/31 65/71/31
f 65/71/31 35/175/31 37/177/31
f 37/177/31 39/179/31 41/181/31
f 41/181/31 43/183/31 45/185/31
f 45/185/31 47/187/31 49/69/31
f 49/69/31 51/190/31 53/192/31
f 53/192/31 55/194/31 57/70/31
f 57/70/31 59/197/31 61/199/31
f 61/199/31 63/201/31 65/71/31
f 65/71/31 37/177/31 41/181/31
f 41/181/31 45/185/31 49/69/31
f 49/69/31 53/192/31 57/70/31
f 57/70/31 61/199/31 65/71/31
f 65/71/31 41/181/31 49/69/31
f 98/107/31 67/203/31 68/204/31
f 68/204/31 69/205/31 70/206/31
f 70/206/31 71/207/31 72/208/31
f 72/208/31 73/209/31 74/210/31
f 74/210/31 75/211/31 76/212/31
f 76/212/31 77/213/31 78/214/31
f 78/214/31 79/215/31 80/216/31
f 80/216/31 81/217/31 82/105/31
f 82/105/31 83/218/31 84/219/31
f 84/219/31 85/220/31 86/221/31
f 86/221/31 87/222/31 88/223/31
f 88/223/31 89/224/31 90/106/31
f 90/106/31 91/225/31 92/226/31
f 92/226/31 93/227/31 94/228/31
f 94/228/31 95/229/31 96/230/31
f 96/230/31 97/231/31 98/107/31
f 98/107/31 68/204/31 70/206/31
f 70/206/31 72/208/31 74/210/31
f 74/210/31 76/212/31 78/214/31
f 78/214/31 80/216/31 82/105/31
f 82/105/31 84/219/31 86/221/31
f 86/221/31 88/223/31 90/106/31
f 90/106/31 92/226/31 94/228/31
f 94/228/31 96/230/31 98/107/31
f 98/107/31 70/206/31 74/210/31
f 74/210/31 78/214/31 82/105/31
f 82/105/31 86/221/31 90/106/31
f 90/106/31 94/228/31 98/107/31
f 98/107/31 74/210/31 82/105/31
f 131/143/31 100/232/31 101/233/31
f 101/233/31 102/234/31 103/235/31
f 103/235/31 104/236/31 105/237/31
f 105/237/31 106/238/31 107/239/31
f 107/239/31 108/240/31 109/241/31
f 109/241/31 110/242/31 111/243/31
f 111/243/31 112/244/31 113/245/31
f 113/245/31 114/246/31 115/141/31
f 115/141/31 116/247/31 117/248/31
f 117/248/31 118/249/31 119/250/31
f 119/250/31 120/251/31 121/252/31
f 121/252/31 122/253/31 123/142/31
f 123/142/31 124/254/31 125/255/31
f 125/255/31 126/256/31 127/257/31
f 127/257/31 128/258/31 129/259/31
f 129/259/31 130/260/31 131/143/31
f 131/143/31 101/233/31 103/235/31
f 103/235/31 105/237/31 107/239/31
f 107/239/31 109/241/31 111/243/31
f 111/243/31 113/245/31 115/141/31
f 115/141/31 117/248/31 119/250/31
f 119/250/31 121/252/31 123/142/31
f 123/142/31 125/255/31 127/257/31
f 127/257/31 129/259/31 131/143/31
f 131/143/31 103/235/31 107/239/31
f 107/239/31 111/243/31 115/141/31
f 115/141/31 119/250/31 123/142/31
f 123/142/31 127/257/31 131/143/31
f 131/143/31 107/239/31 115/141/31
