# Blender 4.4.3
# www.blender.org
mtllib Venct.mtl
o Vent
v 0.000000 -0.084265 0.111114
v 0.000000 -0.472221 0.249441
v 0.000000 -0.222215 0.166294
v 0.000000 -0.490245 0.294236
v 0.000000 -0.402455 0.196157
v 0.000000 -0.500000 0.300000
v -0.021677 -0.084265 0.108979
v -0.027590 -0.146447 0.138704
v -0.032442 -0.222215 0.163099
v -0.036048 -0.308658 0.181226
v -0.041385 -0.464645 0.208056
v -0.038268 -0.402455 0.192388
v -0.048664 -0.472221 0.244648
v -0.054072 -0.480866 0.271838
v -0.057403 -0.490245 0.288582
v -0.042522 -0.084265 0.102656
v -0.058527 -0.500000 0.294236
v -0.054120 -0.146447 0.130656
v -0.063638 -0.222215 0.153636
v -0.070711 -0.308658 0.170711
v -0.075066 -0.402455 0.181226
v -0.081179 -0.464645 0.195985
v -0.095457 -0.472221 0.230453
v -0.061732 -0.084265 0.092388
v -0.106066 -0.480866 0.256066
v -0.078570 -0.146447 0.117588
v -0.112599 -0.490245 0.271838
v -0.092388 -0.222215 0.138268
v -0.102656 -0.308658 0.153636
v -0.114805 -0.500000 0.277164
v -0.108979 -0.402455 0.163099
v -0.078570 -0.084265 0.078570
v -0.117854 -0.464645 0.176381
v -0.100000 -0.146447 0.100000
v -0.138582 -0.472221 0.207403
v -0.117588 -0.222215 0.117588
v -0.153984 -0.480866 0.230453
v -0.130656 -0.308658 0.130656
v -0.163469 -0.490245 0.244648
v -0.138704 -0.402455 0.138704
v -0.166671 -0.500000 0.249441
v -0.092388 -0.084265 0.061732
v -0.117588 -0.146447 0.078570
v -0.138268 -0.222215 0.092388
v -0.150000 -0.464645 0.150000
v -0.153636 -0.308658 0.102656
v -0.176381 -0.472221 0.176381
v -0.163099 -0.402455 0.108979
v -0.195985 -0.480866 0.195985
v -0.102656 -0.084265 0.042522
v -0.208056 -0.490245 0.208056
v -0.212132 -0.500000 0.212132
v -0.130656 -0.146447 0.054120
v -0.153636 -0.222215 0.063638
v -0.170711 -0.308658 0.070711
v -0.181226 -0.402455 0.075066
v -0.176381 -0.464645 0.117854
v -0.207403 -0.472221 0.138582
v -0.108979 -0.084265 0.021677
v -0.230453 -0.480866 0.153984
v -0.138704 -0.146447 0.027590
v -0.244648 -0.490245 0.163469
v -0.163099 -0.222215 0.032442
v -0.249441 -0.500000 0.166671
v -0.181226 -0.308658 0.036048
v -0.192388 -0.402455 0.038268
v -0.111114 -0.084265 -0.000000
v -0.141421 -0.146447 0.000000
v -0.195985 -0.464645 0.081179
v -0.166294 -0.222215 -0.000000
v -0.230453 -0.472221 0.095457
v -0.184776 -0.308658 0.000000
v -0.256066 -0.480866 0.106066
v -0.196157 -0.402455 -0.000000
v -0.271838 -0.490245 0.112599
v -0.277164 -0.500000 0.114805
v -0.108979 -0.084265 -0.021677
v -0.138704 -0.146447 -0.027590
v -0.163099 -0.222215 -0.032442
v -0.181226 -0.308658 -0.036048
v -0.192388 -0.402455 -0.038268
v -0.208056 -0.464645 0.041385
v -0.244648 -0.472221 0.048663
v -0.102656 -0.084265 -0.042522
v -0.271838 -0.480866 0.054072
v -0.130656 -0.146447 -0.054120
v -0.288582 -0.490245 0.057403
v -0.294236 -0.500000 0.058527
v -0.153636 -0.222215 -0.063638
v -0.170711 -0.308658 -0.070711
v -0.181226 -0.402455 -0.075066
v -0.092388 -0.084265 -0.061732
v -0.212132 -0.464645 0.000000
v -0.117588 -0.146447 -0.078570
v -0.249441 -0.472221 -0.000000
v -0.277164 -0.480866 0.000000
v -0.138268 -0.222215 -0.092388
v -0.294236 -0.490245 -0.000000
v -0.153636 -0.308658 -0.102656
v -0.163099 -0.402455 -0.108979
v -0.300000 -0.500000 -0.000000
v -0.078570 -0.084265 -0.078570
v -0.100000 -0.146447 -0.100000
v -0.208056 -0.464645 -0.041385
v -0.117588 -0.222215 -0.117588
v -0.244648 -0.472221 -0.048664
v -0.130656 -0.308658 -0.130656
v -0.271838 -0.480866 -0.054072
v -0.138704 -0.402455 -0.138704
v -0.288582 -0.490245 -0.057403
v -0.061732 -0.084265 -0.092388
v -0.294236 -0.500000 -0.058527
v -0.078570 -0.146447 -0.117588
v -0.092388 -0.222215 -0.138268
v -0.102656 -0.308658 -0.153636
v -0.195985 -0.464645 -0.081179
v -0.108979 -0.402455 -0.163099
v -0.230453 -0.472221 -0.095457
v -0.042521 -0.084265 -0.102656
v -0.256066 -0.480866 -0.106066
v -0.054120 -0.146447 -0.130656
v -0.271838 -0.490245 -0.112599
v -0.277164 -0.500000 -0.114805
v -0.063638 -0.222215 -0.153636
v -0.070711 -0.308658 -0.170711
v -0.075066 -0.402455 -0.181226
v -0.176381 -0.464645 -0.117854
v -0.021677 -0.084265 -0.108979
v -0.207403 -0.472221 -0.138582
v -0.027590 -0.146447 -0.138704
v -0.230453 -0.480866 -0.153984
v -0.032442 -0.222215 -0.163099
v -0.244648 -0.490245 -0.163469
v -0.036048 -0.308658 -0.181226
v -0.038268 -0.402455 -0.192388
v -0.249441 -0.500000 -0.166671
v 0.000000 -0.084265 -0.111114
v 0.000000 -0.146447 -0.141421
v 0.000000 -0.222215 -0.166294
v -0.150000 -0.464645 -0.150000
v -0.000000 -0.308658 -0.184776
v -0.176381 -0.472221 -0.176381
v 0.000000 -0.402455 -0.196157
v -0.195985 -0.480866 -0.195984
v -0.208056 -0.490245 -0.208056
v -0.212132 -0.500000 -0.212132
v 0.021677 -0.084265 -0.108979
v 0.027590 -0.146447 -0.138704
v 0.032442 -0.222215 -0.163099
v 0.036048 -0.308658 -0.181226
v -0.117854 -0.464645 -0.176381
v 0.038268 -0.402455 -0.192388
v -0.138582 -0.472221 -0.207403
v -0.153984 -0.480866 -0.230453
v 0.042522 -0.084265 -0.102656
v -0.163469 -0.490245 -0.244648
v 0.054120 -0.146447 -0.130656
v -0.166671 -0.500000 -0.249441
v 0.063638 -0.222215 -0.153636
v 0.070711 -0.308658 -0.170711
v 0.075066 -0.402455 -0.181225
v -0.081179 -0.464645 -0.195984
v 0.061732 -0.084265 -0.092388
v -0.095457 -0.472221 -0.230453
v 0.078570 -0.146447 -0.117588
v -0.106066 -0.480866 -0.256066
v 0.092388 -0.222215 -0.138268
v -0.112599 -0.490245 -0.271838
v 0.102656 -0.308658 -0.153636
v -0.114805 -0.500000 -0.277164
v 0.108979 -0.402455 -0.163099
v 0.078570 -0.084265 -0.078569
v 0.100000 -0.146447 -0.100000
v -0.041385 -0.464645 -0.208056
v 0.117588 -0.222215 -0.117588
v -0.048663 -0.472221 -0.244648
v 0.130656 -0.308658 -0.130656
v 0.138704 -0.402455 -0.138704
v -0.054072 -0.480866 -0.271838
v -0.057402 -0.490245 -0.288582
v -0.058527 -0.500000 -0.294236
v 0.092388 -0.084265 -0.061732
v 0.117588 -0.146447 -0.078570
v 0.138268 -0.222215 -0.092388
v 0.153636 -0.308658 -0.102656
v 0.000000 -0.464645 -0.212132
v 0.163099 -0.402455 -0.108979
v 0.000000 -0.472221 -0.249441
v -0.000000 -0.480866 -0.277164
v 0.102656 -0.084265 -0.042521
v 0.000000 -0.490245 -0.294236
v 0.130656 -0.146447 -0.054120
v 0.000000 -0.500000 -0.300000
v 0.153636 -0.222215 -0.063638
v 0.170711 -0.308658 -0.070711
v 0.181226 -0.402455 -0.075066
v 0.041385 -0.464645 -0.208056
v 0.108979 -0.084265 -0.021677
v 0.138704 -0.146447 -0.027590
v 0.048664 -0.472221 -0.244648
v 0.163099 -0.222215 -0.032442
v 0.054072 -0.480866 -0.271838
v 0.181226 -0.308658 -0.036048
v 0.057403 -0.490245 -0.288582
v 0.192388 -0.402455 -0.038268
v 0.058527 -0.500000 -0.294235
v 0.111114 -0.084265 0.000000
v 0.141421 -0.146447 0.000000
v 0.166294 -0.222215 0.000000
v 0.081179 -0.464645 -0.195984
v 0.184776 -0.308658 0.000000
v 0.095457 -0.472221 -0.230453
v 0.106066 -0.480866 -0.256066
v 0.196157 -0.402455 0.000000
v 0.112599 -0.490245 -0.271838
v 0.114805 -0.500000 -0.277164
v 0.108979 -0.084265 0.021677
v 0.138704 -0.146447 0.027590
v 0.163099 -0.222215 0.032442
v 0.181226 -0.308658 0.036048
v 0.117854 -0.464645 -0.176381
v 0.192388 -0.402455 0.038268
v 0.138582 -0.472221 -0.207402
v 0.153984 -0.480866 -0.230453
v 0.102656 -0.084265 0.042522
v 0.163469 -0.490245 -0.244648
v 0.130656 -0.146447 0.054120
v 0.166671 -0.500000 -0.249441
v 0.153636 -0.222215 0.063638
v 0.170711 -0.308658 0.070711
v 0.181225 -0.402455 0.075066
v 0.150000 -0.464645 -0.150000
v 0.092388 -0.084265 0.061732
v 0.176381 -0.472221 -0.176381
v 0.117588 -0.146447 0.078570
v 0.195984 -0.480866 -0.195984
v 0.138268 -0.222215 0.092388
v 0.208056 -0.490245 -0.208056
v 0.153636 -0.308658 0.102656
v 0.212132 -0.500000 -0.212132
v 0.163099 -0.402455 0.108979
v 0.078569 -0.084265 0.078569
v 0.100000 -0.146447 0.100000
v 0.117588 -0.222215 0.117588
v 0.176381 -0.464645 -0.117854
v 0.130656 -0.308658 0.130656
v 0.207403 -0.472221 -0.138582
v 0.230453 -0.480866 -0.153984
v 0.138704 -0.402455 0.138704
v 0.244648 -0.490245 -0.163468
v 0.061732 -0.084265 0.092388
v 0.249441 -0.500000 -0.166671
v 0.078570 -0.146447 0.117588
v 0.092388 -0.222215 0.138268
v 0.102656 -0.308658 0.153636
v 0.108979 -0.402455 0.163099
v 0.195985 -0.464645 -0.081179
v 0.230453 -0.472221 -0.095457
v 0.042521 -0.084265 0.102656
v 0.256066 -0.480866 -0.106066
v 0.271838 -0.490245 -0.112599
v 0.054120 -0.146447 0.130656
v 0.277164 -0.500000 -0.114805
v 0.063638 -0.222215 0.153636
v 0.070711 -0.308658 0.170711
v 0.075066 -0.402455 0.181225
v 0.021677 -0.084265 0.108979
v 0.208056 -0.464645 -0.041385
v 0.244648 -0.472221 -0.048663
v 0.027590 -0.146447 0.138704
v 0.271838 -0.480866 -0.054072
v 0.032442 -0.222215 0.163099
v 0.288582 -0.490245 -0.057402
v 0.036048 -0.308658 0.181225
v 0.294235 -0.500000 -0.058527
v 0.038268 -0.402455 0.192388
v -0.000000 -0.146447 0.141421
v -0.000000 -0.308658 0.184776
v 0.212132 -0.464645 0.000000
v 0.249441 -0.472221 0.000000
v -0.021677 -0.401540 0.108979
v 0.000000 -0.401540 0.111114
v 0.277164 -0.480866 0.000000
v 0.294236 -0.490245 0.000000
v -0.042522 -0.401540 0.102656
v 0.300000 -0.500000 0.000000
v -0.061732 -0.401540 0.092388
v -0.078570 -0.401540 0.078570
v -0.092388 -0.401540 0.061732
v -0.102656 -0.401540 0.042522
v 0.208056 -0.464645 0.041385
v -0.108979 -0.401540 0.021677
v 0.244648 -0.472221 0.048664
v -0.111114 -0.401540 -0.000000
v 0.271838 -0.480866 0.054072
v -0.108979 -0.401540 -0.021677
v -0.102656 -0.401540 -0.042522
v 0.288582 -0.490245 0.057403
v 0.294235 -0.500000 0.058527
v -0.092388 -0.401540 -0.061732
v -0.078570 -0.401540 -0.078570
v -0.061732 -0.401540 -0.092388
v -0.042521 -0.401540 -0.102656
v -0.021677 -0.401540 -0.108979
v 0.195985 -0.464645 0.081179
v 0.000000 -0.401540 -0.111114
v 0.230453 -0.472221 0.095457
v 0.021677 -0.401540 -0.108979
v 0.256066 -0.480866 0.106066
v 0.042522 -0.401540 -0.102656
v 0.271838 -0.490245 0.112599
v 0.061732 -0.401540 -0.092388
v 0.277164 -0.500000 0.114805
v 0.078570 -0.401540 -0.078569
v 0.092388 -0.401540 -0.061732
v 0.102656 -0.401540 -0.042521
v 0.176381 -0.464645 0.117854
v 0.108979 -0.401540 -0.021677
v 0.111114 -0.401540 0.000000
v 0.207402 -0.472221 0.138582
v 0.230453 -0.480866 0.153984
v 0.108979 -0.401540 0.021677
v 0.102656 -0.401540 0.042522
v 0.244648 -0.490245 0.163469
v 0.092388 -0.401540 0.061732
v 0.249441 -0.500000 0.166671
v 0.078569 -0.401540 0.078569
v 0.061732 -0.401540 0.092388
v 0.042521 -0.401540 0.102656
v 0.021677 -0.401540 0.108979
v 0.150000 -0.464645 0.150000
v 0.176381 -0.472221 0.176381
v -0.000000 -0.401540 0.000000
v 0.195984 -0.480866 0.195984
v 0.208056 -0.490245 0.208056
v 0.212132 -0.500000 0.212132
v 0.117854 -0.464645 0.176381
v 0.138582 -0.472221 0.207402
v 0.153984 -0.480866 0.230453
v 0.163468 -0.490245 0.244648
v 0.166671 -0.500000 0.249441
v 0.081179 -0.464645 0.195984
v 0.095457 -0.472221 0.230453
v 0.106066 -0.480866 0.256066
v 0.112599 -0.490245 0.271838
v 0.114805 -0.500000 0.277164
v 0.041385 -0.464645 0.208056
v 0.048663 -0.472221 0.244648
v 0.054072 -0.480866 0.271838
v 0.057402 -0.490245 0.288582
v 0.058527 -0.500000 0.294235
v -0.000000 -0.464645 0.212132
v -0.000000 -0.480866 0.277164
v 0.000000 -0.500000 0.000000
v -0.000000 -0.462841 0.198945
v -0.038812 -0.462841 0.195122
v -0.038812 -0.462841 0.195122
v -0.076133 -0.462841 0.183801
v -0.076133 -0.462841 0.183801
v -0.110528 -0.462841 0.165417
v -0.110528 -0.462841 0.165417
v -0.140675 -0.462841 0.140675
v -0.140675 -0.462841 0.140675
v -0.165417 -0.462841 0.110528
v -0.165417 -0.462841 0.110528
v -0.183801 -0.462841 0.076133
v -0.183801 -0.462841 0.076133
v -0.195122 -0.462841 0.038812
v -0.195122 -0.462841 0.038812
v -0.198945 -0.462841 -0.000000
v -0.198945 -0.462841 -0.000000
v -0.195122 -0.462841 -0.038812
v -0.195122 -0.462841 -0.038812
v -0.183801 -0.462841 -0.076133
v -0.183801 -0.462841 -0.076133
v -0.165417 -0.462841 -0.110528
v -0.165417 -0.462841 -0.110528
v -0.140675 -0.462841 -0.140675
v -0.140675 -0.462841 -0.140675
v -0.110528 -0.462841 -0.165417
v -0.110528 -0.462841 -0.165417
v -0.076133 -0.462841 -0.183801
v -0.076133 -0.462841 -0.183801
v -0.038812 -0.462841 -0.195122
v -0.038812 -0.462841 -0.195122
v 0.000000 -0.462841 -0.198945
v 0.000000 -0.462841 -0.198945
v 0.038812 -0.462841 -0.195122
v 0.038812 -0.462841 -0.195122
v 0.076133 -0.462841 -0.183801
v 0.076133 -0.462841 -0.183801
v 0.110528 -0.462841 -0.165417
v 0.110528 -0.462841 -0.165417
v 0.140675 -0.462841 -0.140675
v 0.140675 -0.462841 -0.140675
v 0.165417 -0.462841 -0.110528
v 0.165417 -0.462841 -0.110528
v 0.183801 -0.462841 -0.076133
v 0.183801 -0.462841 -0.076133
v 0.195122 -0.462841 -0.038812
v 0.195122 -0.462841 -0.038812
v 0.198945 -0.462841 0.000000
v 0.198945 -0.462841 0.000000
v 0.195122 -0.462841 0.038812
v 0.195122 -0.462841 0.038812
v 0.183801 -0.462841 0.076133
v 0.183801 -0.462841 0.076133
v 0.165417 -0.462841 0.110528
v 0.165417 -0.462841 0.110528
v 0.140675 -0.462841 0.140675
v 0.140675 -0.462841 0.140675
v 0.110528 -0.462841 0.165417
v 0.110528 -0.462841 0.165417
v 0.076133 -0.462841 0.183801
v 0.076133 -0.462841 0.183801
v 0.038812 -0.462841 0.195122
v 0.038812 -0.462841 0.195122
v 0.000000 -0.462841 0.198945
vn -0.0474 0.8754 0.4810
vn -0.0845 0.5069 0.8578
vn -0.0133 0.9907 0.1355
vn -0.0196 0.9798 0.1990
vn -0.0293 0.9543 0.2975
vn -0.0868 0.9543 0.2861
vn -0.1403 0.8754 0.4625
vn -0.2502 0.5069 0.8249
vn -0.0395 0.9907 0.1303
vn -0.0580 0.9798 0.1913
vn -0.0642 0.9907 0.1201
vn -0.0943 0.9798 0.1763
vn -0.1409 0.9543 0.2637
vn -0.2278 0.8754 0.4262
vn -0.4063 0.5069 0.7602
vn -0.3066 0.8754 0.3736
vn -0.5468 0.5069 0.6663
vn -0.0864 0.9907 0.1053
vn -0.1268 0.9798 0.1546
vn -0.1897 0.9543 0.2311
vn -0.1053 0.9907 0.0864
vn -0.1546 0.9798 0.1268
vn -0.2311 0.9543 0.1897
vn -0.3736 0.8754 0.3066
vn -0.6663 0.5069 0.5468
vn -0.4263 0.8754 0.2278
vn -0.7602 0.5069 0.4063
vn -0.1201 0.9907 0.0642
vn -0.1763 0.9798 0.0943
vn -0.2637 0.9543 0.1409
vn 0.2251 -0.7479 0.6245
vn -0.1913 0.9798 0.0580
vn -0.2861 0.9543 0.0868
vn -0.4625 0.8754 0.1403
vn -0.8249 0.5069 0.2502
vn -0.8578 0.5069 0.0845
vn 0.3191 0.9477 -0.0000
vn -0.1990 0.9798 0.0196
vn -0.2975 0.9543 0.0293
vn -0.4810 0.8754 0.0474
vn -0.0762 0.9971 -0.0000
vn -0.1990 0.9798 -0.0196
vn -0.2975 0.9543 -0.0293
vn -0.4810 0.8754 -0.0474
vn -0.8578 0.5069 -0.0845
vn -0.8249 0.5069 -0.2502
vn -0.1303 0.9907 -0.0395
vn -0.1913 0.9798 -0.0580
vn -0.2861 0.9543 -0.0868
vn -0.4625 0.8754 -0.1403
vn -0.1763 0.9798 -0.0943
vn -0.2637 0.9543 -0.1409
vn -0.4262 0.8754 -0.2278
vn -0.7602 0.5069 -0.4063
vn 0.0290 0.9990 -0.0350
vn -0.4513 0.8924 -0.0000
vn -0.1546 0.9798 -0.1268
vn -0.2311 0.9543 -0.1897
vn -0.3736 0.8754 -0.3066
vn -0.6663 0.5069 -0.5468
vn -0.1897 0.9543 -0.2311
vn -0.3066 0.8754 -0.3736
vn -0.5468 0.5069 -0.6663
vn 0.4352 0.9003 0.0005
vn -0.1268 0.9798 -0.1546
vn 0.0134 0.9980 -0.0614
vn -0.0943 0.9798 -0.1763
vn -0.1409 0.9543 -0.2637
vn -0.2278 0.8754 -0.4263
vn -0.4063 0.5069 -0.7602
vn -0.0868 0.9543 -0.2861
vn -0.1403 0.8754 -0.4625
vn -0.2502 0.5069 -0.8249
vn -0.0618 0.9971 -0.0434
vn -0.0580 0.9798 -0.1913
vn -0.2423 0.9552 -0.1700
vn -0.0196 0.9798 -0.1990
vn -0.0293 0.9543 -0.2975
vn -0.0474 0.8754 -0.4810
vn -0.0845 0.5069 -0.8578
vn 0.0474 0.8754 -0.4810
vn 0.0845 0.5069 -0.8578
vn 0.0487 -0.9979 0.0426
vn 0.0196 0.9798 -0.1990
vn 0.0293 0.9543 -0.2975
vn -0.0000 -0.1292 -0.9916
vn 0.0580 0.9798 -0.1913
vn 0.0868 0.9543 -0.2861
vn 0.1403 0.8754 -0.4625
vn 0.2502 0.5069 -0.8249
vn 0.2278 0.8754 -0.4262
vn 0.4063 0.5069 -0.7602
vn 0.0433 0.9929 -0.1108
vn 0.0943 0.9798 -0.1763
vn 0.1409 0.9543 -0.2637
vn -0.3413 -0.5213 -0.7821
vn 0.1268 0.9798 -0.1546
vn 0.1897 0.9543 -0.2311
vn 0.3066 0.8754 -0.3736
vn 0.5468 0.5069 -0.6663
vn 0.6663 0.5069 -0.5468
vn 0.1053 0.9907 -0.0864
vn 0.1546 0.9798 -0.1268
vn 0.2311 0.9543 -0.1897
vn 0.3736 0.8754 -0.3066
vn 0.1763 0.9798 -0.0943
vn 0.2637 0.9543 -0.1409
vn 0.4263 0.8754 -0.2278
vn 0.7602 0.5069 -0.4063
vn -0.0375 0.9990 0.0245
vn -0.3483 -0.7717 -0.5322
vn 0.1913 0.9798 -0.0580
vn 0.2861 0.9543 -0.0868
vn 0.4625 0.8754 -0.1403
vn 0.8249 0.5069 -0.2502
vn 0.1990 0.9798 -0.0196
vn 0.2975 0.9543 -0.0293
vn 0.4810 0.8754 -0.0474
vn 0.8578 0.5069 -0.0845
vn 0.6742 0.7376 0.0377
vn 0.0167 0.9999 -0.0000
vn 0.1990 0.9798 0.0196
vn 0.2975 0.9543 0.0293
vn 0.4810 0.8754 0.0474
vn 0.8578 0.5069 0.0845
vn 0.2861 0.9543 0.0868
vn 0.4625 0.8754 0.1403
vn 0.8249 0.5069 0.2502
vn 0.9590 0.2778 0.0554
vn 0.1913 0.9798 0.0580
vn -0.6606 0.7486 0.0560
vn 0.1763 0.9798 0.0943
vn 0.2637 0.9543 0.1409
vn 0.4263 0.8754 0.2278
vn 0.7602 0.5069 0.4063
vn 0.2311 0.9543 0.1897
vn 0.3736 0.8754 0.3066
vn 0.6663 0.5069 0.5468
vn 0.5768 -0.8169 -0.0000
vn 0.1546 0.9798 0.1268
vn 0.2780 0.9606 -0.0004
vn 0.1268 0.9798 0.1546
vn 0.1897 0.9543 0.2311
vn 0.3066 0.8754 0.3736
vn -0.0000 -1.0000 -0.0000
vn 0.5468 0.5069 0.6663
vn 0.2278 0.8754 0.4263
vn 0.4063 0.5069 0.7602
vn 0.0642 0.9907 0.1201
vn 0.0943 0.9798 0.1763
vn 0.1409 0.9543 0.2637
vn 0.0919 -0.9937 0.0645
vn 0.0580 0.9798 0.1913
vn 0.0868 0.9543 0.2861
vn 0.1403 0.8754 0.4625
vn 0.2502 0.5069 0.8249
vn 0.0845 0.5069 0.8578
vn -0.0131 0.9994 -0.0310
vn 0.0196 0.9798 0.1990
vn 0.0293 0.9543 0.2975
vn 0.0474 0.8754 0.4810
vn -0.0882 0.4364 0.8954
vn -0.0932 0.3105 0.9460
vn -0.0959 0.2081 0.9734
vn -0.0973 0.1199 0.9880
vn -0.0979 0.0459 0.9941
vn -0.2612 0.4364 0.8610
vn -0.2759 0.3105 0.9096
vn -0.2839 0.2081 0.9360
vn -0.2882 0.1199 0.9500
vn -0.2900 0.0459 0.9559
vn -0.4481 0.3105 0.8383
vn -0.4611 0.2081 0.8626
vn -0.4680 0.1199 0.8756
vn -0.4709 0.0459 0.8810
vn -0.4241 0.4364 0.7935
vn -0.5708 0.4364 0.6955
vn -0.6030 0.3105 0.7348
vn -0.6205 0.2081 0.7561
vn -0.6298 0.1199 0.7674
vn -0.6337 0.0459 0.7722
vn -0.7561 0.2081 0.6205
vn -0.7674 0.1199 0.6298
vn -0.8338 0.5521 -0.0000
vn -0.6955 0.4364 0.5708
vn -0.7348 0.3105 0.6030
vn -0.7935 0.4364 0.4241
vn -0.8383 0.3105 0.4481
vn -0.8626 0.2081 0.4611
vn -0.8756 0.1199 0.4680
vn -0.3397 0.1409 0.9299
vn -0.9360 0.2081 0.2839
vn -0.9500 0.1199 0.2882
vn -0.9749 0.2226 -0.0000
vn -0.8610 0.4364 0.2612
vn -0.9096 0.3105 0.2759
vn -0.8954 0.4364 0.0882
vn -0.9460 0.3105 0.0932
vn -0.9734 0.2081 0.0959
vn -0.9880 0.1199 0.0973
vn -0.9956 0.0942 -0.0000
vn -0.9880 0.1199 -0.0973
vn -0.8759 -0.0202 0.4821
vn -0.8954 0.4364 -0.0882
vn -0.9460 0.3105 -0.0932
vn -0.9734 0.2081 -0.0959
vn -0.8610 0.4364 -0.2612
vn -0.9096 0.3105 -0.2759
vn -0.9360 0.2081 -0.2839
vn -0.9500 0.1199 -0.2882
vn -0.8070 0.3265 0.4921
vn -0.6588 0.1102 -0.7442
vn -0.7935 0.4364 -0.4241
vn -0.8383 0.3105 -0.4481
vn -0.8626 0.2081 -0.4611
vn -0.8756 0.1199 -0.4680
vn -0.6955 0.4364 -0.5708
vn -0.7348 0.3105 -0.6030
vn -0.7561 0.2081 -0.6205
vn -0.7674 0.1199 -0.6298
vn -0.8800 -0.0917 -0.4661
vn -0.5308 -0.1120 -0.8401
vn -0.5708 0.4364 -0.6955
vn -0.6030 0.3105 -0.7348
vn -0.6205 0.2081 -0.7561
vn -0.6298 0.1199 -0.7674
vn -0.4481 0.3105 -0.8383
vn -0.4611 0.2081 -0.8626
vn -0.4680 0.1199 -0.8756
vn -0.5300 -0.1241 -0.8389
vn -0.4241 0.4364 -0.7935
vn -0.2612 0.4364 -0.8610
vn -0.2759 0.3105 -0.9096
vn -0.2839 0.2081 -0.9360
vn -0.2882 0.1199 -0.9500
vn -0.3072 -0.1184 -0.9443
vn -0.0932 0.3105 -0.9460
vn -0.0959 0.2081 -0.9734
vn -0.0973 0.1199 -0.9880
vn -0.0000 0.7438 -0.6685
vn -0.0882 0.4364 -0.8954
vn 0.0882 0.4364 -0.8954
vn 0.0932 0.3105 -0.9460
vn 0.0959 0.2081 -0.9734
vn 0.0973 0.1199 -0.9880
vn -0.0000 0.0041 -1.0000
vn 0.2839 0.2081 -0.9360
vn 0.2882 0.1199 -0.9500
vn 0.4106 0.1371 -0.9015
vn 0.2612 0.4364 -0.8610
vn 0.2759 0.3105 -0.9096
vn 0.4241 0.4364 -0.7935
vn 0.4481 0.3105 -0.8383
vn 0.4611 0.2081 -0.8626
vn 0.4680 0.1199 -0.8756
vn 0.5341 0.0088 -0.8454
vn 0.6298 0.1199 -0.7674
vn 0.7787 -0.5116 -0.3632
vn 0.5708 0.4364 -0.6955
vn 0.6030 0.3105 -0.7348
vn 0.6205 0.2081 -0.7561
vn 0.6955 0.4364 -0.5708
vn 0.7348 0.3105 -0.6030
vn 0.7561 0.2081 -0.6205
vn 0.7674 0.1199 -0.6298
vn 0.7722 0.0459 -0.6337
vn 0.8756 0.1199 -0.4680
vn 0.8810 0.0459 -0.4709
vn 0.7935 0.4364 -0.4241
vn 0.8383 0.3105 -0.4481
vn 0.8626 0.2081 -0.4611
vn 0.8610 0.4364 -0.2612
vn 0.9096 0.3105 -0.2759
vn 0.9360 0.2081 -0.2839
vn 0.9500 0.1199 -0.2882
vn 0.9559 0.0459 -0.2900
vn 0.9941 0.0459 -0.0979
vn 0.8954 0.4364 -0.0882
vn 0.9460 0.3105 -0.0932
vn 0.9734 0.2081 -0.0959
vn 0.9880 0.1199 -0.0973
vn 0.8954 0.4364 0.0882
vn 0.9460 0.3105 0.0932
vn 0.9734 0.2081 0.0959
vn 0.9880 0.1199 0.0973
vn 0.9941 0.0459 0.0979
vn 0.9559 0.0459 0.2900
vn 0.8610 0.4364 0.2612
vn 0.9096 0.3105 0.2759
vn 0.9360 0.2081 0.2839
vn 0.9500 0.1199 0.2882
vn 0.8383 0.3105 0.4481
vn 0.8626 0.2081 0.4611
vn 0.8756 0.1199 0.4680
vn 0.8810 0.0459 0.4709
vn 0.7935 0.4364 0.4241
vn 0.6955 0.4364 0.5708
vn 0.7348 0.3105 0.6030
vn 0.7561 0.2081 0.6205
vn 0.7674 0.1199 0.6298
vn 0.7722 0.0459 0.6337
vn 0.6205 0.2081 0.7561
vn 0.6298 0.1199 0.7674
vn 0.6337 0.0459 0.7722
vn 0.5708 0.4364 0.6955
vn 0.6030 0.3105 0.7348
vn 0.4241 0.4364 0.7935
vn 0.4481 0.3105 0.8383
vn 0.4611 0.2081 0.8626
vn 0.4680 0.1199 0.8756
vn 0.4709 0.0459 0.8810
vn 0.2839 0.2081 0.9360
vn 0.2882 0.1199 0.9500
vn 0.2900 0.0459 0.9559
vn 0.2612 0.4364 0.8610
vn 0.2759 0.3105 0.9096
vn 0.0882 0.4364 0.8954
vn 0.0932 0.3105 0.9460
vn 0.0959 0.2081 0.9734
vn 0.0973 0.1199 0.9880
vn 0.0979 0.0459 0.9941
vn 0.0980 -0.0000 0.9952
vn -0.9569 -0.0000 -0.2903
vn 0.7730 -0.0000 -0.6344
vn 0.2903 -0.0000 0.9569
vn 0.6344 -0.0000 -0.7730
vn 0.9569 -0.0000 0.2903
vn -0.8819 -0.0000 0.4714
vn -0.7730 -0.0000 0.6344
vn 0.8819 -0.0000 0.4714
vn -0.6344 -0.0000 -0.7730
vn -0.2903 -0.0000 0.9569
vn -0.7730 -0.0000 -0.6344
vn 0.9569 -0.0000 -0.2903
vn -0.0980 -0.0000 0.9952
vn 0.0980 -0.0000 -0.9952
vn -0.9569 -0.0000 0.2903
vn 0.8819 -0.0000 -0.4714
vn 0.7730 -0.0000 0.6344
vn 0.4714 -0.0000 0.8819
vn -0.0980 -0.0000 -0.9952
vn -0.9952 -0.0000 0.0980
vn 0.4714 -0.0000 -0.8819
vn 0.6344 -0.0000 0.7730
vn -0.2903 -0.0000 -0.9569
vn 0.2903 -0.0000 -0.9569
vn -0.6344 -0.0000 0.7730
vn -0.4714 -0.0000 -0.8819
vn 0.9952 -0.0000 0.0980
vn -0.4714 -0.0000 0.8819
vn -0.9952 -0.0000 -0.0980
vn 0.9952 -0.0000 -0.0980
vn -0.8819 -0.0000 -0.4714
vn -0.0000 1.0000 -0.0000
vn -0.2278 0.8754 0.4263
vn -0.0000 -0.0000 -1.0000
vn 0.1084 -0.0160 0.9940
vn -0.4262 0.8754 0.2278
vn -0.1758 0.9584 0.2249
vn -0.1303 0.9907 0.0395
vn -0.1355 0.9907 0.0133
vn -0.1355 0.9907 -0.0133
vn -0.1114 0.9933 -0.0310
vn -0.1201 0.9907 -0.0642
vn -0.1053 0.9907 -0.0864
vn -0.0864 0.9907 -0.1053
vn -0.0642 0.9907 -0.1201
vn -0.0395 0.9907 -0.1303
vn -0.0133 0.9907 -0.1355
vn 0.0133 0.9907 -0.1355
vn 0.0395 0.9907 -0.1303
vn 0.0642 0.9907 -0.1201
vn 0.0864 0.9907 -0.1053
vn 0.2093 0.9744 -0.0821
vn 0.4262 0.8754 -0.2278
vn 0.1201 0.9907 -0.0642
vn 0.1303 0.9907 -0.0395
vn 0.1355 0.9907 -0.0133
vn 0.1355 0.9907 0.0133
vn 0.1303 0.9907 0.0395
vn 0.1201 0.9907 0.0642
vn 0.4262 0.8754 0.2278
vn 0.1053 0.9907 0.0864
vn 0.0864 0.9907 0.1053
vn 0.2278 0.8754 0.4262
vn 0.0952 0.9900 0.1041
vn 0.0395 0.9907 0.1303
vn -0.0000 0.9908 0.1355
vn 0.0133 0.9907 0.1355
vn -0.0000 0.7682 0.6402
vn -1.0000 0.0017 -0.0000
vn -0.7722 0.0459 0.6337
vn -0.8810 0.0459 0.4709
vn -0.9559 0.0459 0.2900
vn -0.9941 0.0459 0.0979
vn -0.9941 0.0459 -0.0979
vn -0.9559 0.0459 -0.2900
vn -0.8810 0.0459 -0.4709
vn -0.7722 0.0459 -0.6337
vn -0.6337 0.0459 -0.7722
vn -0.4709 0.0459 -0.8810
vn -0.2900 0.0459 -0.9559
vn -0.0979 0.0459 -0.9941
vn 0.0979 0.0459 -0.9941
vn 0.2900 0.0459 -0.9559
vn 0.4709 0.0459 -0.8810
vn 0.6337 0.0459 -0.7722
vn 0.9563 0.0688 -0.2842
vn 0.8756 0.0331 -0.4818
vn 0.9404 0.0440 0.3373
vn 0.9989 0.0461 -0.0000
vn 0.9549 0.0424 0.2938
vn 0.9470 0.0362 0.3193
vn 0.9991 0.0427 -0.0000
vn 0.7144 0.0344 0.6989
vn 0.6635 0.0551 0.7462
vn 0.5141 0.0539 0.8560
vn 0.3456 0.0389 0.9376
vt 0.852178 0.968008
vt 0.869545 0.944820
vt 0.873886 0.965278
vt 0.878701 0.988913
vt 0.852949 0.991881
vt 0.862003 0.905235
vt 0.851224 0.911791
vt 0.850962 0.906613
vt 0.851389 0.928364
vt 0.863103 0.910496
vt 0.866041 0.926867
vt 0.851632 0.946898
vt 0.886613 0.939593
vt 0.894608 0.958842
vt 0.903651 0.981486
vt 0.869439 0.903070
vt 0.879829 0.922453
vt 0.879941 0.897146
vt 0.873623 0.906588
vt 0.869440 0.903062
vt 0.892369 0.915768
vt 0.902343 0.931367
vt 0.913714 0.948696
vt 0.927250 0.969656
vt 0.916396 0.920426
vt 0.930820 0.935437
vt 0.947781 0.953029
vt 0.889064 0.891372
vt 0.882624 0.901122
vt 0.903793 0.906958
vt 0.900007 0.886363
vt 0.892109 0.894845
vt 0.889067 0.891369
vt 0.913485 0.896128
vt 0.928266 0.907064
vt 0.945163 0.919174
vt 0.964881 0.933299
vt 0.937503 0.891735
vt 0.956303 0.900554
vt 0.978228 0.910886
vt 0.906187 0.876395
vt 0.896147 0.883417
vt 0.921078 0.883678
vt 0.909950 0.866090
vt 0.901649 0.874147
vt 0.901657 0.874144
vt 0.926049 0.870170
vt 0.943724 0.874986
vt 0.963853 0.880185
vt 0.987359 0.886360
vt 0.967521 0.858700
vt 0.991881 0.860441
vt 0.911805 0.854885
vt 0.905340 0.864973
vt 0.905340 0.864968
vt 0.928408 0.855913
vt 0.946707 0.857334
vt 0.911654 0.843407
vt 0.907029 0.854549
vt 0.907029 0.854544
vt 0.928043 0.841397
vt 0.946318 0.839375
vt 0.967119 0.836804
vt 0.991535 0.833960
vt 0.962583 0.815256
vt 0.986223 0.807810
vt 0.909159 0.832726
vt 0.906654 0.843991
vt 0.924877 0.827355
vt 0.942517 0.821787
vt 0.904498 0.822695
vt 0.919015 0.814163
vt 0.935367 0.805152
vt 0.953976 0.794790
vt 0.976012 0.782873
vt 0.904348 0.834175
vt 0.904349 0.834168
vt 0.897916 0.813076
vt 0.900287 0.825275
vt 0.900285 0.825271
vt 0.910590 0.802129
vt 0.925033 0.790034
vt 0.941483 0.776128
vt 0.961092 0.760014
vt 0.911830 0.777058
vt 0.925424 0.760009
vt 0.941790 0.740116
vt 0.889552 0.805638
vt 0.894017 0.816351
vt 0.894015 0.816345
vt 0.899925 0.791901
vt 0.879719 0.799525
vt 0.886729 0.809629
vt 0.886725 0.809627
vt 0.887271 0.783887
vt 0.896134 0.766779
vt 0.906256 0.747136
vt 0.918604 0.724064
vt 0.878492 0.759692
vt 0.884605 0.738158
vt 0.892246 0.712698
vt 0.868773 0.795316
vt 0.877578 0.803923
vt 0.877574 0.803921
vt 0.873120 0.778405
vt 0.856884 0.793203
vt 0.867494 0.800141
vt 0.867489 0.800139
vt 0.857928 0.775775
vt 0.859543 0.756201
vt 0.861264 0.733613
vt 0.863664 0.706751
vt 0.840101 0.756587
vt 0.837194 0.733877
vt 0.834037 0.706751
vt 0.845166 0.793808
vt 0.856463 0.798436
vt 0.856457 0.798433
vt 0.842506 0.776290
vt 0.833393 0.796754
vt 0.845964 0.798812
vt 0.845959 0.798812
vt 0.827305 0.779916
vt 0.820948 0.760935
vt 0.813431 0.739093
vt 0.804686 0.712927
vt 0.802933 0.769127
vt 0.791056 0.749148
vt 0.776996 0.725178
vt 0.822300 0.801962
vt 0.835130 0.801574
vt 0.835125 0.801576
vt 0.813010 0.786538
vt 0.812278 0.809170
vt 0.824970 0.806401
vt 0.824965 0.806404
vt 0.800251 0.795913
vt 0.786885 0.780853
vt 0.771129 0.763668
vt 0.752327 0.743051
vt 0.754609 0.782027
vt 0.731901 0.765755
vt 0.804203 0.818066
vt 0.815804 0.813210
vt 0.789733 0.807620
vt 0.773577 0.795608
vt 0.781891 0.821166
vt 0.763601 0.812757
vt 0.742262 0.803399
vt 0.716696 0.792229
vt 0.798310 0.828347
vt 0.808533 0.821168
vt 0.808528 0.821172
vt 0.794305 0.840008
vt 0.803026 0.830410
vt 0.803023 0.830414
vt 0.776903 0.836113
vt 0.757361 0.831579
vt 0.734627 0.826819
vt 0.707395 0.821226
vt 0.792896 0.851728
vt 0.775089 0.851599
vt 0.755115 0.851178
vt 0.732014 0.851196
vt 0.704377 0.851377
vt 0.799531 0.841228
vt 0.799528 0.841234
vt 0.793790 0.864004
vt 0.798022 0.851755
vt 0.798022 0.851760
vt 0.776415 0.867182
vt 0.756912 0.870734
vt 0.734471 0.875434
vt 0.707692 0.881279
vt 0.762596 0.889333
vt 0.741796 0.898432
vt 0.717063 0.909556
vt 0.796956 0.875313
vt 0.799090 0.863052
vt 0.799088 0.863059
vt 0.780799 0.881954
vt 0.802344 0.885696
vt 0.801816 0.873311
vt 0.801816 0.873317
vt 0.788018 0.895401
vt 0.771852 0.906214
vt 0.753550 0.919209
vt 0.731905 0.934969
vt 0.784203 0.920716
vt 0.769094 0.936932
vt 0.751378 0.956470
vt 0.809738 0.894772
vt 0.806721 0.882825
vt 0.806723 0.882831
vt 0.797725 0.907021
vt 0.818673 0.902108
vt 0.813397 0.891018
vt 0.813400 0.891024
vt 0.809440 0.916359
vt 0.799032 0.932309
vt 0.787628 0.950953
vt 0.602425 0.876863
vt 0.498154 0.845233
vt 0.606592 0.855913
vt 0.774440 0.973259
vt 0.529784 0.949504
vt 0.508834 0.953671
vt 0.815657 0.940636
vt 0.808255 0.960859
vt 0.487474 0.953671
vt 0.799905 0.984817
vt 0.594251 0.896597
vt 0.582383 0.914358
vt 0.567279 0.929462
vt 0.828660 0.907261
vt 0.821473 0.897744
vt 0.549519 0.941329
vt 0.822600 0.923055
vt 0.446789 0.941329
vt 0.429029 0.929462
vt 0.839931 0.910731
vt 0.830448 0.902656
vt 0.830453 0.902659
vt 0.413924 0.914358
vt 0.836846 0.927044
vt 0.402057 0.896597
vt 0.833441 0.945558
vt 0.393883 0.876863
vt 0.830070 0.966504
vt 0.389716 0.855913
vt 0.826512 0.990957
vt 0.466524 0.949504
vt 0.402057 0.793868
vt 0.393883 0.813602
vt 0.840903 0.905666
vt 0.840908 0.905669
vt 0.389716 0.834552
vt 0.606592 0.834552
vt 0.602425 0.813602
vt 0.594250 0.793868
vt 0.582383 0.776107
vt 0.567279 0.761003
vt 0.549519 0.749136
vt 0.529784 0.740962
vt 0.508834 0.736794
vt 0.487474 0.736794
vt 0.466524 0.740962
vt 0.446789 0.749136
vt 0.429029 0.761003
vt 0.413924 0.776107
vt 0.177981 0.832767
vt 0.152549 0.698761
vt 0.162464 0.697691
vt 0.148219 0.534701
vt 0.136511 0.535617
vt 0.124006 0.348629
vt 0.137095 0.347950
vt 0.115359 0.144181
vt 0.129394 0.143696
vt 0.111028 0.011335
vt 0.125391 0.010876
vt 0.170051 0.833732
vt 0.142627 0.699958
vt 0.124788 0.536640
vt 0.110899 0.349387
vt 0.101320 0.144732
vt 0.096536 0.011843
vt 0.110896 0.011341
vt 0.113047 0.537771
vt 0.097773 0.350223
vt 0.087271 0.145339
vt 0.082175 0.012380
vt 0.162133 0.834814
vt 0.132698 0.701286
vt 0.154228 0.836013
vt 0.122760 0.702745
vt 0.101287 0.539011
vt 0.084627 0.351137
vt 0.073205 0.145991
vt 0.067682 0.012975
vt 0.082041 0.012388
vt 0.071457 0.352129
vt 0.059131 0.146706
vt 0.053058 0.013617
vt 0.053193 0.013610
vt 0.146339 0.837332
vt 0.112812 0.704337
vt 0.089506 0.540361
vt 0.138467 0.838770
vt 0.102854 0.706063
vt 0.077701 0.541820
vt 0.058264 0.353197
vt 0.045042 0.147468
vt 0.038560 0.014201
vt 0.038698 0.014289
vt 0.065880 0.543387
vt 0.045044 0.354343
vt 0.030932 0.148289
vt 0.024060 0.014924
vt 0.024194 0.014916
vt 0.130613 0.840329
vt 0.092877 0.707926
vt 0.122779 0.842011
vt 0.082897 0.709927
vt 0.054026 0.545067
vt 0.031795 0.355565
vt 0.016805 0.149162
vt 0.009557 0.015685
vt 0.009692 0.015678
vt 0.450962 0.355311
vt 0.451634 0.148340
vt 0.465714 0.149202
vt 0.458434 0.015560
vt 0.458562 0.015656
vt 0.368500 0.843816
vt 0.390487 0.707709
vt 0.400481 0.709698
vt 0.417222 0.543095
vt 0.429074 0.544752
vt 0.437727 0.354109
vt 0.360681 0.842015
vt 0.380508 0.705861
vt 0.405392 0.541547
vt 0.424517 0.352984
vt 0.437562 0.147527
vt 0.443998 0.014760
vt 0.444127 0.014839
vt 0.429550 0.014072
vt 0.429684 0.014078
vt 0.352840 0.840338
vt 0.370547 0.704149
vt 0.393579 0.540108
vt 0.411331 0.351934
vt 0.423500 0.146770
vt 0.344979 0.838782
vt 0.360591 0.702572
vt 0.381797 0.538779
vt 0.398172 0.350961
vt 0.409452 0.146057
vt 0.415100 0.013364
vt 0.415230 0.013431
vt 0.400643 0.012762
vt 0.400777 0.012767
vt 0.337101 0.837345
vt 0.350645 0.701128
vt 0.370037 0.537560
vt 0.385034 0.350065
vt 0.395413 0.145403
vt 0.340708 0.699816
vt 0.358296 0.536448
vt 0.371916 0.349247
vt 0.381385 0.144802
vt 0.386180 0.012206
vt 0.386314 0.012211
vt 0.329206 0.836027
vt 0.321296 0.834827
vt 0.330779 0.698633
vt 0.346573 0.535445
vt 0.358821 0.348505
vt 0.367365 0.144258
vt 0.371715 0.011698
vt 0.371849 0.011702
vt 0.334860 0.534549
vt 0.345741 0.347840
vt 0.353354 0.143761
vt 0.357248 0.011184
vt 0.357379 0.011243
vt 0.313373 0.833744
vt 0.320862 0.697579
vt 0.305439 0.832777
vt 0.310947 0.696652
vt 0.323165 0.533761
vt 0.332676 0.347253
vt 0.339347 0.143328
vt 0.342775 0.010776
vt 0.342910 0.010779
vt 0.319619 0.346746
vt 0.325348 0.142950
vt 0.328298 0.010419
vt 0.328432 0.010421
vt 0.297494 0.831925
vt 0.301035 0.695849
vt 0.311483 0.533080
vt 0.289537 0.831194
vt 0.291130 0.695175
vt 0.299811 0.532505
vt 0.306575 0.346316
vt 0.311354 0.142631
vt 0.313818 0.010115
vt 0.313953 0.010117
vt 0.297365 0.142362
vt 0.299336 0.009818
vt 0.299468 0.009866
vt 0.281575 0.830570
vt 0.281229 0.694626
vt 0.288147 0.532037
vt 0.293536 0.345967
vt 0.273607 0.830060
vt 0.271331 0.694201
vt 0.276489 0.531675
vt 0.280506 0.345694
vt 0.283377 0.142152
vt 0.284983 0.009623
vt 0.269390 0.141995
vt 0.270493 0.009449
vt 0.284851 0.009581
vt 0.265634 0.829663
vt 0.261436 0.693900
vt 0.264837 0.531420
vt 0.267480 0.345502
vt 0.257658 0.829379
vt 0.251544 0.693722
vt 0.253187 0.531270
vt 0.254456 0.345390
vt 0.255405 0.141898
vt 0.256004 0.009372
vt 0.270360 0.009448
vt 0.241418 0.141863
vt 0.241512 0.009299
vt 0.255871 0.009330
vt 0.249680 0.829208
vt 0.241651 0.693663
vt 0.241540 0.531226
vt 0.241434 0.345358
vt 0.241700 0.829158
vt 0.231759 0.693733
vt 0.229893 0.531289
vt 0.228411 0.345404
vt 0.227430 0.141884
vt 0.227020 0.009334
vt 0.241379 0.009300
vt 0.213440 0.141968
vt 0.212526 0.009377
vt 0.226887 0.009297
vt 0.233720 0.829212
vt 0.221867 0.693926
vt 0.218244 0.531457
vt 0.215386 0.345530
vt 0.206591 0.531732
vt 0.202358 0.345735
vt 0.199446 0.142107
vt 0.198027 0.009480
vt 0.212392 0.009337
vt 0.225742 0.829378
vt 0.211973 0.694242
vt 0.217767 0.829657
vt 0.202076 0.694682
vt 0.194936 0.532112
vt 0.189323 0.346020
vt 0.185449 0.142310
vt 0.183532 0.009672
vt 0.197895 0.009482
vt 0.176281 0.346384
vt 0.171445 0.142567
vt 0.169033 0.009885
vt 0.183399 0.009633
vt 0.201833 0.830563
vt 0.192180 0.695244
vt 0.183272 0.532600
vt 0.182279 0.695934
vt 0.171600 0.533194
vt 0.163230 0.346827
vt 0.157436 0.142888
vt 0.154530 0.010139
vt 0.168899 0.009842
vt 0.150168 0.347349
vt 0.143420 0.143263
vt 0.140031 0.010501
vt 0.154398 0.010144
vt 0.193874 0.831183
vt 0.172374 0.696749
vt 0.159918 0.533894
vt 0.185923 0.831917
vt 0.139897 0.010461
vt 0.544134 0.716447
vt 0.552045 0.025023
vt 0.552045 0.716447
vt 0.623249 0.716447
vt 0.631160 0.025023
vt 0.631160 0.716447
vt 0.710275 0.716447
vt 0.718186 0.025023
vt 0.718186 0.716447
vt 0.536222 0.716447
vt 0.544134 0.025023
vt 0.702363 0.716447
vt 0.710275 0.025023
vt 0.496665 0.716447
vt 0.504576 0.025023
vt 0.504576 0.716447
vt 0.591603 0.716447
vt 0.599514 0.025023
vt 0.599514 0.716447
vt 0.583691 0.716447
vt 0.591603 0.025023
vt 0.512488 0.025023
vt 0.512488 0.716447
vt 0.646983 0.716447
vt 0.654895 0.025023
vt 0.654895 0.716447
vt 0.559957 0.716447
vt 0.567868 0.025023
vt 0.567868 0.716447
vt 0.639072 0.716447
vt 0.646983 0.025023
vt 0.726098 0.716447
vt 0.734009 0.025023
vt 0.734009 0.716447
vt 0.559957 0.025023
vt 0.678629 0.716447
vt 0.686540 0.025023
vt 0.686540 0.716447
vt 0.607426 0.025023
vt 0.607426 0.716447
vt 0.726098 0.025023
vt 0.520399 0.025023
vt 0.520399 0.716447
vt 0.528311 0.716447
vt 0.536222 0.025023
vt 0.670717 0.716447
vt 0.678629 0.025023
vt 0.615337 0.025023
vt 0.615337 0.716447
vt 0.694452 0.716447
vt 0.702363 0.025023
vt 0.528311 0.025023
vt 0.662806 0.716447
vt 0.670717 0.025023
vt 0.694452 0.025023
vt 0.575780 0.716447
vt 0.583691 0.025023
vt 0.662806 0.025023
vt 0.488753 0.716447
vt 0.496665 0.025023
vt 0.575780 0.025023
vt 0.623249 0.025023
vt 0.741921 0.025023
vt 0.741921 0.716447
vt 0.639072 0.025023
vt 0.691022 0.788302
vt 0.652403 0.776586
vt 0.692566 0.780542
vt 0.692566 0.772631
vt 0.691022 0.764871
vt 0.687995 0.757562
vt 0.683599 0.750984
vt 0.678005 0.745390
vt 0.671427 0.740994
vt 0.664118 0.737967
vt 0.656358 0.736423
vt 0.648447 0.736423
vt 0.640687 0.737967
vt 0.633378 0.740994
vt 0.626800 0.745390
vt 0.621205 0.750984
vt 0.616810 0.757562
vt 0.613782 0.764871
vt 0.612239 0.772631
vt 0.612239 0.780542
vt 0.613782 0.788302
vt 0.616810 0.795611
vt 0.621205 0.802189
vt 0.626800 0.807783
vt 0.633378 0.812179
vt 0.640687 0.815206
vt 0.648447 0.816750
vt 0.656358 0.816750
vt 0.664118 0.815206
vt 0.671427 0.812179
vt 0.678005 0.807783
vt 0.683599 0.802189
vt 0.687995 0.795611
vt 0.862000 0.905223
vt 0.879950 0.897127
vt 0.896143 0.883421
vt 0.906650 0.843997
vt 0.815810 0.813207
vt 0.821469 0.897738
vt 0.850956 0.906613
vt 0.125525 0.010870
vt 0.096535 0.011829
vt 0.067549 0.012982
vt 0.114974 0.843816
vt 0.472855 0.016414
vt 0.209797 0.830050
vt 0.488753 0.025023
s 0
usemtl マテリアル
f 4/1/1 14/2/1 15/3/1
f 4/1/2 17/4/2 6/5/2
f 356/6/3 352/7/3 355/8/3
f 2/9/4 11/10/4 13/11/4
f 353/12/5 13/11/5 14/2/5
f 13/11/6 25/13/6 14/2/6
f 15/3/7 25/13/7 27/14/7
f 15/3/8 30/15/8 17/4/8
f 11/10/9 356/6/9 358/16/9
f 11/10/10 23/17/10 13/11/10
f 360/18/11 22/19/11 359/20/11
f 22/19/12 35/21/12 23/17/12
f 23/17/13 37/22/13 25/13/13
f 25/13/14 39/23/14 27/14/14
f 27/14/15 41/24/15 30/15/15
f 39/23/16 49/25/16 51/26/16
f 41/24/17 51/26/17 52/27/17
f 362/28/18 33/29/18 360/18/18
f 33/29/19 47/30/19 35/21/19
f 35/21/20 49/25/20 37/22/20
f 57/31/21 45/32/21 363/33/21
f 47/30/22 57/31/22 58/34/22
f 47/30/23 60/35/23 49/25/23
f 51/26/24 60/35/24 62/36/24
f 52/27/25 62/36/25 64/37/25
f 62/36/26 73/38/26 75/39/26
f 64/37/27 75/39/27 76/40/27
f 69/41/28 57/31/28 365/42/28
f 58/34/29 69/41/29 71/43/29
f 58/34/30 73/38/30 60/35/30
f 82/44/31 366/45/31 367/46/31
f 71/43/32 82/44/32 83/47/32
f 71/43/33 85/48/33 73/38/33
f 75/39/34 85/48/34 87/49/34
f 76/40/35 87/49/35 88/50/35
f 88/50/36 98/51/36 101/52/36
f 93/53/37 368/54/37 369/55/37
f 83/47/38 93/53/38 95/56/38
f 83/47/39 96/57/39 85/48/39
f 87/49/40 96/57/40 98/51/40
f 104/58/41 370/59/41 371/60/41
f 95/56/42 104/58/42 106/61/42
f 95/56/43 108/62/43 96/57/43
f 98/51/44 108/62/44 110/63/44
f 101/52/45 110/63/45 112/64/45
f 112/64/46 122/65/46 123/66/46
f 116/67/47 104/58/47 373/68/47
f 106/61/48 116/67/48 118/69/48
f 106/61/49 120/70/49 108/62/49
f 110/63/50 120/70/50 122/65/50
f 118/69/51 127/71/51 129/72/51
f 118/69/52 131/73/52 120/70/52
f 122/65/53 131/73/53 133/74/53
f 123/66/54 133/74/54 136/75/54
f 127/71/55 374/76/55 375/77/55
f 140/78/56 376/79/56 377/80/56
f 129/72/57 140/78/57 142/81/57
f 129/72/58 144/82/58 131/73/58
f 133/74/59 144/82/59 145/83/59
f 136/75/60 145/83/60 146/84/60
f 142/81/61 154/85/61 144/82/61
f 145/83/62 154/85/62 156/86/62
f 146/84/63 156/86/63 158/87/63
f 151/88/64 378/89/64 379/90/64
f 142/81/65 151/88/65 153/91/65
f 162/92/66 380/93/66 381/94/66
f 153/91/67 162/92/67 164/95/67
f 153/91/68 166/96/68 154/85/68
f 156/86/69 166/96/69 168/97/69
f 158/87/70 168/97/70 170/98/70
f 164/95/71 179/99/71 166/96/71
f 168/97/72 179/99/72 180/100/72
f 170/98/73 180/100/73 181/101/73
f 174/102/74 382/103/74 383/104/74
f 164/95/75 174/102/75 176/105/75
f 186/106/76 384/107/76 385/108/76
f 176/105/77 186/106/77 188/109/77
f 176/105/78 189/110/78 179/99/78
f 180/100/79 189/110/79 191/111/79
f 181/101/80 191/111/80 193/112/80
f 191/111/81 202/113/81 204/114/81
f 193/112/82 204/114/82 206/115/82
f 197/116/83 386/117/83 387/118/83
f 188/109/84 197/116/84 200/119/84
f 188/109/85 202/113/85 189/110/85
f 210/120/86 388/121/86 389/122/86
f 200/119/87 210/120/87 212/123/87
f 200/119/88 213/124/88 202/113/88
f 204/114/89 213/124/89 215/125/89
f 206/115/90 215/125/90 216/126/90
f 215/125/91 224/127/91 226/128/91
f 216/126/92 226/128/92 228/129/92
f 221/130/93 390/131/93 391/132/93
f 212/123/94 221/130/94 223/133/94
f 212/123/95 224/127/95 213/124/95
f 232/134/96 392/135/96 393/136/96
f 223/133/97 232/134/97 234/137/97
f 223/133/98 236/138/98 224/127/98
f 226/128/99 236/138/99 238/139/99
f 228/129/100 238/139/100 240/140/100
f 240/140/101 250/141/101 252/142/101
f 245/143/102 232/134/102 395/144/102
f 234/137/103 245/143/103 247/145/103
f 234/137/104 248/146/104 236/138/104
f 238/139/105 248/146/105 250/141/105
f 245/143/106 258/147/106 247/145/106
f 247/145/107 260/148/107 248/146/107
f 250/141/108 260/148/108 261/149/108
f 252/142/109 261/149/109 263/150/109
f 257/151/110 396/152/110 397/153/110
f 268/154/111 398/155/111 399/156/111
f 258/147/112 268/154/112 269/157/112
f 258/147/113 271/158/113 260/148/113
f 261/149/114 271/158/114 273/159/114
f 263/150/115 273/159/115 275/160/115
f 269/157/116 279/161/116 280/162/116
f 269/157/117 283/163/117 271/158/117
f 273/159/118 283/163/118 284/164/118
f 275/160/119 284/164/119 286/165/119
f 279/161/120 400/166/120 401/167/120
f 291/168/121 402/169/121 403/170/121
f 280/162/122 291/168/122 293/171/122
f 280/162/123 295/172/123 283/163/123
f 284/164/124 295/172/124 298/173/124
f 286/165/125 298/173/125 299/174/125
f 293/171/126 309/175/126 295/172/126
f 298/173/127 309/175/127 311/176/127
f 299/174/128 311/176/128 313/177/128
f 305/178/129 404/179/129 405/180/129
f 293/171/130 305/178/130 307/181/130
f 317/182/131 406/183/131 407/184/131
f 307/181/132 317/182/132 320/185/132
f 307/181/133 321/186/133 309/175/133
f 311/176/134 321/186/134 324/187/134
f 313/177/135 324/187/135 326/188/135
f 320/185/136 334/189/136 321/186/136
f 324/187/137 334/189/137 335/190/137
f 326/188/138 335/190/138 336/191/138
f 331/192/139 408/193/139 409/194/139
f 320/185/140 331/192/140 332/195/140
f 337/196/141 410/197/141 411/198/141
f 332/195/142 337/196/142 338/199/142
f 332/195/143 339/200/143 334/189/143
f 335/190/144 339/200/144 340/201/144
f 351/202/145 354/203/145 346/204/145
f 336/191/146 340/201/146 341/205/146
f 52/206/145 64/207/145 354/203/145
f 340/201/147 344/208/147 345/209/147
f 64/207/145 76/210/145 354/203/145
f 341/205/148 345/209/148 346/211/148
f 354/203/145 351/202/145 6/212/145
f 17/213/145 30/214/145 354/203/145
f 6/212/145 17/213/145 354/203/145
f 342/215/149 337/196/149 413/216/149
f 30/214/145 41/217/145 354/203/145
f 338/199/150 342/215/150 343/218/150
f 41/217/145 52/206/145 354/203/145
f 338/199/151 344/208/151 339/200/151
f 101/219/145 112/220/145 354/203/145
f 347/221/152 414/222/152 415/223/152
f 112/220/145 123/224/145 354/203/145
f 343/218/153 347/221/153 348/225/153
f 123/224/145 136/226/145 354/203/145
f 343/218/154 349/227/154 344/208/154
f 146/228/145 354/203/145 136/226/145
f 345/209/155 349/227/155 350/229/155
f 146/228/145 158/230/145 354/203/145
f 346/211/156 350/229/156 351/231/156
f 76/210/145 88/232/145 354/203/145
f 88/232/145 101/219/145 354/203/145
f 193/233/145 354/203/145 181/234/145
f 351/231/157 4/1/157 6/5/157
f 352/7/158 416/235/158 417/236/158
f 348/225/159 352/7/159 2/9/159
f 158/230/145 170/237/145 354/203/145
f 349/227/160 2/9/160 353/12/160
f 170/237/145 181/234/145 354/203/145
f 350/229/161 353/12/161 4/1/161
f 346/204/145 354/203/145 341/238/145
f 336/239/145 341/238/145 354/203/145
f 326/240/145 336/239/145 354/203/145
f 313/241/145 326/240/145 354/203/145
f 299/242/145 313/241/145 354/203/145
f 299/242/145 354/203/145 286/243/145
f 275/244/145 286/243/145 354/203/145
f 275/244/145 354/203/145 263/245/145
f 252/246/145 263/245/145 354/203/145
f 240/247/145 252/246/145 354/203/145
f 228/248/145 240/247/145 354/203/145
f 216/249/145 228/248/145 354/203/145
f 206/250/145 216/249/145 354/203/145
f 193/233/145 206/250/145 354/203/145
f 1/251/162 8/252/162 277/253/162
f 3/254/163 8/252/163 9/255/163
f 3/254/164 10/256/164 278/257/164
f 278/257/165 12/258/165 5/259/165
f 12/258/166 356/260/166 355/261/166
f 7/262/167 18/263/167 8/252/167
f 8/252/168 19/264/168 9/255/168
f 9/255/169 20/265/169 10/256/169
f 12/258/170 20/265/170 21/266/170
f 12/258/171 358/267/171 357/268/171
f 18/263/172 28/269/172 19/264/172
f 19/264/173 29/270/173 20/265/173
f 20/265/174 31/271/174 21/266/174
f 21/266/175 360/272/175 358/267/175
f 16/273/176 26/274/176 18/263/176
f 24/275/177 34/276/177 26/274/177
f 26/274/178 36/277/178 28/269/178
f 28/269/179 38/278/179 29/270/179
f 29/270/180 40/279/180 31/271/180
f 40/279/181 362/280/181 361/281/181
f 36/277/182 46/282/182 38/278/182
f 38/278/183 48/283/183 40/279/183
f 40/279/184 365/284/184 364/285/184
f 32/286/185 43/287/185 34/276/185
f 34/276/186 44/288/186 36/277/186
f 42/289/187 53/290/187 43/287/187
f 43/287/188 54/291/188 44/288/188
f 44/288/189 55/292/189 46/282/189
f 46/282/190 56/293/190 48/283/190
f 48/283/191 367/294/191 366/295/191
f 55/292/192 63/296/192 65/297/192
f 55/292/193 66/298/193 56/293/193
f 56/293/194 369/299/194 368/300/194
f 50/301/195 61/302/195 53/290/195
f 54/291/196 61/302/196 63/296/196
f 59/303/197 68/304/197 61/302/197
f 61/302/198 70/305/198 63/296/198
f 63/296/199 72/306/199 65/297/199
f 65/297/200 74/307/200 66/298/200
f 66/298/201 371/308/201 370/309/201
f 72/310/202 81/311/202 74/312/202
f 74/312/203 373/313/203 372/314/203
f 67/315/204 78/316/204 68/317/204
f 68/317/205 79/318/205 70/319/205
f 70/319/206 80/320/206 72/310/206
f 77/321/207 86/322/207 78/316/207
f 78/316/208 89/323/208 79/318/208
f 79/318/209 90/324/209 80/320/209
f 80/320/210 91/325/210 81/311/210
f 81/311/211 375/326/211 374/327/211
f 91/325/212 377/328/212 376/329/212
f 84/330/213 94/331/213 86/322/213
f 89/323/214 94/331/214 97/332/214
f 89/323/215 99/333/215 90/324/215
f 90/324/216 100/334/216 91/325/216
f 92/335/217 103/336/217 94/331/217
f 94/331/218 105/337/218 97/332/218
f 97/332/219 107/338/219 99/333/219
f 99/333/220 109/339/220 100/334/220
f 100/334/221 379/340/221 378/341/221
f 109/339/222 381/342/222 380/343/222
f 102/344/223 113/345/223 103/336/223
f 103/336/224 114/346/224 105/337/224
f 105/337/225 115/347/225 107/338/225
f 107/338/226 117/348/226 109/339/226
f 114/346/227 121/349/227 124/350/227
f 114/346/228 125/351/228 115/347/228
f 115/347/229 126/352/229 117/348/229
f 117/348/230 383/353/230 382/354/230
f 111/355/231 121/349/231 113/345/231
f 119/356/232 130/357/232 121/349/232
f 121/349/233 132/358/233 124/350/233
f 124/350/234 134/359/234 125/351/234
f 126/352/235 134/359/235 135/360/235
f 126/352/236 385/361/236 384/362/236
f 130/357/237 139/363/237 132/358/237
f 132/358/238 141/364/238 134/359/238
f 135/360/239 141/364/239 143/365/239
f 135/360/240 387/366/240 386/367/240
f 128/368/241 138/369/241 130/357/241
f 137/370/242 148/371/242 138/369/242
f 138/369/243 149/372/243 139/363/243
f 139/363/244 150/373/244 141/364/244
f 141/364/245 152/374/245 143/365/245
f 143/365/246 389/375/246 388/376/246
f 149/372/247 160/377/247 150/373/247
f 150/373/248 161/378/248 152/374/248
f 152/374/249 391/379/249 390/380/249
f 147/381/250 157/382/250 148/371/250
f 148/371/251 159/383/251 149/372/251
f 155/384/252 165/385/252 157/382/252
f 157/382/253 167/386/253 159/383/253
f 159/383/254 169/387/254 160/377/254
f 160/377/255 171/388/255 161/378/255
f 161/378/256 393/389/256 392/390/256
f 169/387/257 178/391/257 171/388/257
f 171/388/258 395/392/258 394/393/258
f 163/394/259 173/395/259 165/385/259
f 165/385/260 175/396/260 167/386/260
f 167/386/261 177/397/261 169/387/261
f 172/398/262 183/399/262 173/395/262
f 173/395/263 184/400/263 175/396/263
f 175/396/264 185/401/264 177/397/264
f 177/397/265 187/402/265 178/391/265
f 187/402/266 396/403/266 395/392/266
f 185/401/267 196/404/267 187/402/267
f 196/404/268 398/405/268 397/406/268
f 182/407/269 192/408/269 183/399/269
f 184/400/270 192/408/270 194/409/270
f 184/400/271 195/410/271 185/401/271
f 190/411/272 199/412/272 192/408/272
f 194/409/273 199/412/273 201/413/273
f 195/410/274 201/413/274 203/414/274
f 195/410/275 205/415/275 196/404/275
f 205/415/276 400/416/276 399/417/276
f 214/418/277 402/419/277 401/420/277
f 198/421/278 208/422/278 199/412/278
f 201/413/279 208/422/279 209/423/279
f 201/413/280 211/424/280 203/414/280
f 203/414/281 214/418/281 205/415/281
f 207/425/282 218/426/282 208/422/282
f 208/422/283 219/427/283 209/423/283
f 209/423/284 220/428/284 211/424/284
f 211/424/285 222/429/285 214/418/285
f 222/429/286 404/430/286 403/431/286
f 231/432/287 406/433/287 405/434/287
f 217/435/288 227/436/288 218/426/288
f 218/426/289 229/437/289 219/427/289
f 219/427/290 230/438/290 220/428/290
f 220/428/291 231/432/291 222/429/291
f 227/436/292 237/439/292 229/437/292
f 229/437/293 239/440/293 230/438/293
f 230/438/294 241/441/294 231/432/294
f 241/441/295 408/442/295 407/443/295
f 225/444/296 235/445/296 227/436/296
f 233/446/297 243/447/297 235/445/297
f 235/445/298 244/448/298 237/439/298
f 237/439/299 246/449/299 239/440/299
f 239/440/300 249/450/300 241/441/300
f 249/450/301 410/451/301 409/452/301
f 244/448/302 255/453/302 246/449/302
f 246/449/303 256/454/303 249/450/303
f 256/454/304 412/455/304 411/456/304
f 243/447/305 251/457/305 253/458/305
f 243/447/306 254/459/306 244/448/306
f 251/457/307 262/460/307 253/458/307
f 253/458/308 264/461/308 254/459/308
f 254/459/309 265/462/309 255/453/309
f 255/453/310 266/463/310 256/454/310
f 266/463/311 414/464/311 413/465/311
f 264/461/312 274/466/312 265/462/312
f 265/462/313 276/467/313 266/463/313
f 276/467/314 416/468/314 415/469/314
f 259/470/315 270/471/315 262/460/315
f 264/461/316 270/471/316 272/472/316
f 267/473/317 277/253/317 270/471/317
f 270/471/318 3/254/318 272/472/318
f 272/472/319 278/257/319 274/466/319
f 274/466/320 5/259/320 276/467/320
f 5/259/321 417/474/321 276/467/321
f 128/475/322 306/476/322 137/477/322
f 217/478/323 323/479/323 225/480/323
f 32/481/324 289/482/324 42/483/324
f 119/484/325 304/485/325 128/475/325
f 24/486/326 288/487/326 32/481/326
f 77/488/327 297/489/327 84/490/327
f 182/491/328 316/492/328 190/493/328
f 172/494/329 315/495/329 182/491/329
f 84/490/330 300/496/330 92/497/330
f 242/498/331 328/499/331 251/500/331
f 147/501/332 310/502/332 155/503/332
f 233/504/333 327/505/333 242/498/333
f 50/506/334 292/507/334 59/508/334
f 137/477/335 308/509/335 147/501/335
f 1/510/336 281/511/336 7/512/336
f 190/493/337 318/513/337 198/514/337
f 42/483/338 290/515/338 50/506/338
f 92/497/339 301/516/339 102/517/339
f 111/518/340 303/519/340 119/484/340
f 267/520/341 282/521/341 1/510/341
f 198/514/342 319/522/342 207/523/342
f 16/524/343 287/525/343 24/486/343
f 102/517/344 302/526/344 111/518/344
f 259/527/345 330/528/345 267/520/345
f 7/512/346 285/529/346 16/524/346
f 163/530/347 314/531/347 172/494/347
f 251/500/348 329/532/348 259/527/348
f 67/533/349 296/534/349 77/488/349
f 155/503/350 312/535/350 163/530/350
f 207/523/351 322/536/351 217/478/351
f 59/508/352 294/537/352 67/538/352
f 225/480/353 325/539/353 233/504/353
f 319/540/354 333/541/354 322/542/354
f 322/542/354 333/541/354 323/543/354
f 323/543/354 333/541/354 325/544/354
f 325/544/354 333/541/354 327/545/354
f 327/545/354 333/541/354 328/546/354
f 328/546/354 333/541/354 329/547/354
f 329/547/354 333/541/354 330/548/354
f 330/548/354 333/541/354 282/549/354
f 282/549/354 333/541/354 281/550/354
f 281/550/354 333/541/354 285/551/354
f 285/551/354 333/541/354 287/552/354
f 287/552/354 333/541/354 288/553/354
f 288/553/354 333/541/354 289/554/354
f 289/554/354 333/541/354 290/555/354
f 292/556/354 333/541/354 294/557/354
f 290/555/354 333/541/354 292/556/354
f 294/557/354 333/541/354 296/558/354
f 297/559/354 296/558/354 333/541/354
f 297/559/354 333/541/354 300/560/354
f 301/561/354 300/560/354 333/541/354
f 301/561/354 333/541/354 302/562/354
f 302/562/354 333/541/354 303/563/354
f 303/563/354 333/541/354 304/564/354
f 304/564/354 333/541/354 306/565/354
f 306/565/354 333/541/354 308/566/354
f 308/566/354 333/541/354 310/567/354
f 310/567/354 333/541/354 312/568/354
f 312/568/354 333/541/354 314/569/354
f 314/569/354 333/541/354 315/570/354
f 315/570/354 333/541/354 316/571/354
f 319/540/354 318/572/354 333/541/354
f 318/572/354 316/571/354 333/541/354
f 4/1/1 353/12/1 14/2/1
f 4/1/2 15/3/2 17/4/2
f 356/6/3 11/10/3 352/7/3
f 2/9/4 352/7/4 11/10/4
f 353/12/5 2/9/5 13/11/5
f 13/11/6 23/17/6 25/13/6
f 15/3/7 14/2/7 25/13/7
f 15/3/8 27/14/8 30/15/8
f 358/16/354 359/20/354 22/19/354
f 358/16/9 22/19/9 11/10/9
f 356/6/354 357/573/354 358/16/354
f 11/10/10 22/19/10 23/17/10
f 360/18/11 33/29/11 22/19/11
f 22/19/12 33/29/12 35/21/12
f 23/17/13 35/21/13 37/22/13
f 25/13/355 37/22/355 39/23/355
f 27/14/15 39/23/15 41/24/15
f 39/23/16 37/22/16 49/25/16
f 41/24/17 39/23/17 51/26/17
f 362/28/18 45/32/18 33/29/18
f 360/18/356 361/574/356 362/28/356
f 33/29/19 45/32/19 47/30/19
f 35/21/20 47/30/20 49/25/20
f 363/33/21 364/575/21 57/31/21
f 45/32/357 362/28/357 363/33/357
f 47/30/22 45/32/22 57/31/22
f 47/30/23 58/34/23 60/35/23
f 51/26/24 49/25/24 60/35/24
f 52/27/25 51/26/25 62/36/25
f 62/36/358 60/35/358 73/38/358
f 64/37/27 62/36/27 75/39/27
f 365/42/28 366/45/28 69/41/28
f 57/31/359 364/575/359 365/42/359
f 58/34/29 57/31/29 69/41/29
f 58/34/30 71/43/30 73/38/30
f 367/46/360 368/54/360 82/44/360
f 82/44/360 69/41/360 366/45/360
f 71/43/32 69/41/32 82/44/32
f 71/43/33 83/47/33 85/48/33
f 75/39/34 73/38/34 85/48/34
f 76/40/35 75/39/35 87/49/35
f 88/50/36 87/49/36 98/51/36
f 369/55/361 370/59/361 93/53/361
f 93/53/361 82/44/361 368/54/361
f 83/47/38 82/44/38 93/53/38
f 83/47/39 95/56/39 96/57/39
f 87/49/40 85/48/40 96/57/40
f 371/60/362 372/576/362 104/58/362
f 104/58/362 93/53/362 370/59/362
f 95/56/42 93/53/42 104/58/42
f 95/56/43 106/61/43 108/62/43
f 98/51/44 96/57/44 108/62/44
f 101/52/45 98/51/45 110/63/45
f 112/64/46 110/63/46 122/65/46
f 373/68/47 374/76/47 116/67/47
f 104/58/363 372/576/363 373/68/363
f 106/61/48 104/58/48 116/67/48
f 106/61/49 118/69/49 120/70/49
f 110/63/50 108/62/50 120/70/50
f 118/69/51 116/67/51 127/71/51
f 118/69/52 129/72/52 131/73/52
f 122/65/53 120/70/53 131/73/53
f 123/66/54 122/65/54 133/74/54
f 375/77/364 376/79/364 127/71/364
f 127/71/364 116/67/364 374/76/364
f 377/80/365 378/89/365 140/78/365
f 140/78/365 127/71/365 376/79/365
f 129/72/57 127/71/57 140/78/57
f 129/72/58 142/81/58 144/82/58
f 133/74/59 131/73/59 144/82/59
f 136/75/60 133/74/60 145/83/60
f 142/81/61 153/91/61 154/85/61
f 145/83/62 144/82/62 154/85/62
f 146/84/63 145/83/63 156/86/63
f 379/90/366 380/93/366 151/88/366
f 151/88/366 140/78/366 378/89/366
f 142/81/65 140/78/65 151/88/65
f 381/94/367 382/103/367 162/92/367
f 162/92/367 151/88/367 380/93/367
f 153/91/67 151/88/67 162/92/67
f 153/91/68 164/95/68 166/96/68
f 156/86/69 154/85/69 166/96/69
f 158/87/70 156/86/70 168/97/70
f 164/95/71 176/105/71 179/99/71
f 168/97/72 166/96/72 179/99/72
f 170/98/73 168/97/73 180/100/73
f 383/104/368 384/107/368 174/102/368
f 174/102/368 162/92/368 382/103/368
f 164/95/75 162/92/75 174/102/75
f 385/108/369 386/117/369 186/106/369
f 186/106/369 174/102/369 384/107/369
f 176/105/77 174/102/77 186/106/77
f 176/105/78 188/109/78 189/110/78
f 180/100/79 179/99/79 189/110/79
f 181/101/80 180/100/80 191/111/80
f 191/111/81 189/110/81 202/113/81
f 193/112/82 191/111/82 204/114/82
f 387/118/370 388/121/370 197/116/370
f 197/116/370 186/106/370 386/117/370
f 188/109/84 186/106/84 197/116/84
f 188/109/85 200/119/85 202/113/85
f 389/122/371 390/131/371 210/120/371
f 210/120/371 197/116/371 388/121/371
f 200/119/87 197/116/87 210/120/87
f 200/119/88 212/123/88 213/124/88
f 204/114/89 202/113/89 213/124/89
f 206/115/90 204/114/90 215/125/90
f 215/125/91 213/124/91 224/127/91
f 216/126/92 215/125/92 226/128/92
f 391/132/372 392/135/372 221/130/372
f 221/130/372 210/120/372 390/131/372
f 212/123/94 210/120/94 221/130/94
f 212/123/95 223/133/95 224/127/95
f 393/136/373 394/577/373 232/134/373
f 232/134/373 221/130/373 392/135/373
f 223/133/97 221/130/97 232/134/97
f 223/133/98 234/137/98 236/138/98
f 226/128/99 224/127/99 236/138/99
f 228/129/100 226/128/100 238/139/100
f 240/140/101 238/139/101 250/141/101
f 395/144/102 396/152/102 245/143/102
f 232/134/374 394/577/374 395/144/374
f 234/137/103 232/134/103 245/143/103
f 234/137/104 247/145/104 248/146/104
f 238/139/105 236/138/105 248/146/105
f 245/143/106 257/151/106 258/147/106
f 247/145/107 258/147/107 260/148/107
f 250/141/375 248/146/375 260/148/375
f 252/142/109 250/141/109 261/149/109
f 397/153/376 398/155/376 257/151/376
f 257/151/376 245/143/376 396/152/376
f 399/156/377 400/166/377 268/154/377
f 268/154/377 257/151/377 398/155/377
f 258/147/112 257/151/112 268/154/112
f 258/147/113 269/157/113 271/158/113
f 261/149/114 260/148/114 271/158/114
f 263/150/115 261/149/115 273/159/115
f 269/157/116 268/154/116 279/161/116
f 269/157/117 280/162/117 283/163/117
f 273/159/118 271/158/118 283/163/118
f 275/160/119 273/159/119 284/164/119
f 401/167/378 402/169/378 279/161/378
f 279/161/378 268/154/378 400/166/378
f 403/170/379 404/179/379 291/168/379
f 291/168/379 279/161/379 402/169/379
f 280/162/122 279/161/122 291/168/122
f 280/162/123 293/171/123 295/172/123
f 284/164/124 283/163/124 295/172/124
f 286/165/125 284/164/125 298/173/125
f 293/171/126 307/181/126 309/175/126
f 298/173/127 295/172/127 309/175/127
f 299/174/128 298/173/128 311/176/128
f 405/180/380 406/183/380 305/178/380
f 305/178/380 291/168/380 404/179/380
f 293/171/130 291/168/130 305/178/130
f 407/184/381 408/193/381 317/182/381
f 317/182/381 305/178/381 406/183/381
f 307/181/132 305/178/132 317/182/132
f 307/181/133 320/185/133 321/186/133
f 311/176/382 309/175/382 321/186/382
f 313/177/135 311/176/135 324/187/135
f 320/185/136 332/195/136 334/189/136
f 324/187/137 321/186/137 334/189/137
f 326/188/138 324/187/138 335/190/138
f 409/194/383 410/197/383 331/192/383
f 331/192/383 317/182/383 408/193/383
f 320/185/140 317/182/140 331/192/140
f 411/198/384 412/578/384 337/196/384
f 337/196/384 331/192/384 410/197/384
f 332/195/142 331/192/142 337/196/142
f 332/195/143 338/199/143 339/200/143
f 335/190/144 334/189/144 339/200/144
f 336/191/146 335/190/146 340/201/146
f 340/201/385 339/200/385 344/208/385
f 341/205/148 340/201/148 345/209/148
f 413/216/149 414/222/149 342/215/149
f 337/196/386 412/578/386 413/216/386
f 338/199/150 337/196/150 342/215/150
f 338/199/151 343/218/151 344/208/151
f 415/223/387 416/235/387 347/221/387
f 347/221/387 342/215/387 414/222/387
f 343/218/153 342/215/153 347/221/153
f 343/218/154 348/225/154 349/227/154
f 345/209/155 344/208/155 349/227/155
f 346/211/156 345/209/156 350/229/156
f 351/231/157 350/229/157 4/1/157
f 418/579/388 355/8/388 352/7/388
f 352/7/389 347/221/389 416/235/389
f 417/236/389 418/579/389 352/7/389
f 348/225/159 347/221/159 352/7/159
f 349/227/160 348/225/160 2/9/160
f 350/229/161 349/227/161 353/12/161
f 1/251/162 7/262/162 8/252/162
f 3/254/163 277/253/163 8/252/163
f 3/254/164 9/255/164 10/256/164
f 278/257/165 10/256/165 12/258/165
f 418/580/166 5/259/166 12/258/166
f 355/261/390 418/580/390 12/258/390
f 12/258/354 357/268/354 356/260/354
f 7/262/167 16/273/167 18/263/167
f 8/252/168 18/263/168 19/264/168
f 9/255/169 19/264/169 20/265/169
f 12/258/170 10/256/170 20/265/170
f 12/258/171 21/266/171 358/267/171
f 18/263/172 26/274/172 28/269/172
f 19/264/173 28/269/173 29/270/173
f 20/265/174 29/270/174 31/271/174
f 21/266/175 31/271/175 361/281/175
f 21/266/354 361/281/354 360/272/354
f 360/272/354 359/581/354 358/267/354
f 16/273/176 24/275/176 26/274/176
f 24/275/177 32/286/177 34/276/177
f 26/274/178 34/276/178 36/277/178
f 28/269/179 36/277/179 38/278/179
f 29/270/180 38/278/180 40/279/180
f 361/281/181 31/271/181 40/279/181
f 40/279/391 363/582/391 362/280/391
f 36/277/182 44/288/182 46/282/182
f 38/278/183 46/282/183 48/283/183
f 364/285/392 363/582/392 40/279/392
f 40/279/392 48/283/392 365/284/392
f 32/286/185 42/289/185 43/287/185
f 34/276/186 43/287/186 44/288/186
f 42/289/187 50/301/187 53/290/187
f 43/287/188 53/290/188 54/291/188
f 44/288/189 54/291/189 55/292/189
f 46/282/190 55/292/190 56/293/190
f 366/295/393 365/284/393 48/283/393
f 48/283/393 56/293/393 367/294/393
f 55/292/192 54/291/192 63/296/192
f 55/292/193 65/297/193 66/298/193
f 368/300/394 367/294/394 56/293/394
f 56/293/394 66/298/394 369/299/394
f 50/301/195 59/303/195 61/302/195
f 54/291/196 53/290/196 61/302/196
f 59/303/197 67/583/197 68/304/197
f 61/302/198 68/304/198 70/305/198
f 63/296/199 70/305/199 72/306/199
f 65/297/200 72/306/200 74/307/200
f 370/309/395 369/299/395 66/298/395
f 66/298/395 74/307/395 371/308/395
f 72/310/202 80/320/202 81/311/202
f 372/314/396 371/584/396 74/312/396
f 74/312/396 81/311/396 373/313/396
f 67/315/204 77/321/204 78/316/204
f 68/317/205 78/316/205 79/318/205
f 70/319/206 79/318/206 80/320/206
f 77/321/207 84/330/207 86/322/207
f 78/316/208 86/322/208 89/323/208
f 79/318/209 89/323/209 90/324/209
f 80/320/210 90/324/210 91/325/210
f 374/327/397 373/313/397 81/311/397
f 81/311/397 91/325/397 375/326/397
f 376/329/398 375/326/398 91/325/398
f 91/325/398 100/334/398 377/328/398
f 84/330/213 92/335/213 94/331/213
f 89/323/214 86/322/214 94/331/214
f 89/323/215 97/332/215 99/333/215
f 90/324/216 99/333/216 100/334/216
f 92/335/217 102/344/217 103/336/217
f 94/331/218 103/336/218 105/337/218
f 97/332/219 105/337/219 107/338/219
f 99/333/220 107/338/220 109/339/220
f 378/341/399 377/328/399 100/334/399
f 100/334/399 109/339/399 379/340/399
f 380/343/400 379/340/400 109/339/400
f 109/339/400 117/348/400 381/342/400
f 102/344/223 111/355/223 113/345/223
f 103/336/224 113/345/224 114/346/224
f 105/337/225 114/346/225 115/347/225
f 107/338/226 115/347/226 117/348/226
f 114/346/227 113/345/227 121/349/227
f 114/346/228 124/350/228 125/351/228
f 115/347/229 125/351/229 126/352/229
f 382/354/401 381/342/401 117/348/401
f 117/348/401 126/352/401 383/353/401
f 111/355/231 119/356/231 121/349/231
f 119/356/232 128/368/232 130/357/232
f 121/349/233 130/357/233 132/358/233
f 124/350/234 132/358/234 134/359/234
f 126/352/235 125/351/235 134/359/235
f 384/362/402 383/353/402 126/352/402
f 126/352/402 135/360/402 385/361/402
f 130/357/237 138/369/237 139/363/237
f 132/358/238 139/363/238 141/364/238
f 135/360/239 134/359/239 141/364/239
f 386/367/403 385/361/403 135/360/403
f 135/360/403 143/365/403 387/366/403
f 128/368/241 137/370/241 138/369/241
f 137/370/242 147/381/242 148/371/242
f 138/369/243 148/371/243 149/372/243
f 139/363/244 149/372/244 150/373/244
f 141/364/245 150/373/245 152/374/245
f 388/376/404 387/366/404 143/365/404
f 143/365/404 152/374/404 389/375/404
f 149/372/247 159/383/247 160/377/247
f 150/373/248 160/377/248 161/378/248
f 390/380/405 389/375/405 152/374/405
f 152/374/405 161/378/405 391/379/405
f 147/381/250 155/384/250 157/382/250
f 148/371/251 157/382/251 159/383/251
f 155/384/252 163/394/252 165/385/252
f 157/382/253 165/385/253 167/386/253
f 159/383/254 167/386/254 169/387/254
f 160/377/255 169/387/255 171/388/255
f 392/390/406 391/379/406 161/378/406
f 161/378/406 171/388/406 393/389/406
f 169/387/257 177/397/257 178/391/257
f 394/393/407 393/389/407 171/388/407
f 171/388/407 178/391/407 395/392/407
f 163/394/259 172/398/259 173/395/259
f 165/385/260 173/395/260 175/396/260
f 167/386/261 175/396/261 177/397/261
f 172/398/262 182/407/262 183/399/262
f 173/395/263 183/399/263 184/400/263
f 175/396/264 184/400/264 185/401/264
f 177/397/265 185/401/265 187/402/265
f 395/392/266 178/391/266 187/402/266
f 187/402/408 397/406/408 396/403/408
f 185/401/267 195/410/267 196/404/267
f 397/406/268 187/402/268 196/404/268
f 196/404/409 399/417/409 398/405/409
f 182/407/269 190/411/269 192/408/269
f 184/400/270 183/399/270 192/408/270
f 184/400/271 194/409/271 195/410/271
f 190/411/272 198/421/272 199/412/272
f 194/409/273 192/408/273 199/412/273
f 195/410/274 194/409/274 201/413/274
f 195/410/275 203/414/275 205/415/275
f 399/417/276 196/404/276 205/415/276
f 205/415/410 401/420/410 400/416/410
f 401/420/277 205/415/277 214/418/277
f 214/418/411 403/431/411 402/419/411
f 198/421/278 207/425/278 208/422/278
f 201/413/279 199/412/279 208/422/279
f 201/413/280 209/423/280 211/424/280
f 203/414/281 211/424/281 214/418/281
f 207/425/282 217/435/282 218/426/282
f 208/422/283 218/426/283 219/427/283
f 209/423/284 219/427/284 220/428/284
f 211/424/285 220/428/285 222/429/285
f 403/431/286 214/418/286 222/429/286
f 222/429/412 405/434/412 404/430/412
f 405/434/287 222/429/287 231/432/287
f 231/432/413 407/443/413 406/433/413
f 217/435/288 225/444/288 227/436/288
f 218/426/289 227/436/289 229/437/289
f 219/427/290 229/437/290 230/438/290
f 220/428/291 230/438/291 231/432/291
f 227/436/292 235/445/292 237/439/292
f 229/437/293 237/439/293 239/440/293
f 230/438/294 239/440/294 241/441/294
f 407/443/295 231/432/295 241/441/295
f 241/441/414 409/452/414 408/442/414
f 225/444/296 233/446/296 235/445/296
f 233/446/297 242/585/297 243/447/297
f 235/445/298 243/447/298 244/448/298
f 237/439/299 244/448/299 246/449/299
f 239/440/300 246/449/300 249/450/300
f 409/452/301 241/441/301 249/450/301
f 249/450/415 411/456/415 410/451/415
f 244/448/302 254/459/302 255/453/302
f 246/449/303 255/453/303 256/454/303
f 411/456/304 249/450/304 256/454/304
f 256/454/416 413/465/416 412/455/416
f 243/447/305 242/585/305 251/457/305
f 243/447/306 253/458/306 254/459/306
f 251/457/307 259/470/307 262/460/307
f 253/458/308 262/460/308 264/461/308
f 254/459/309 264/461/309 265/462/309
f 255/453/310 265/462/310 266/463/310
f 413/465/311 256/454/311 266/463/311
f 266/463/417 415/469/417 414/464/417
f 264/461/312 272/472/312 274/466/312
f 265/462/313 274/466/313 276/467/313
f 415/469/314 266/463/314 276/467/314
f 276/467/418 417/474/418 416/468/418
f 259/470/315 267/473/315 270/471/315
f 264/461/316 262/460/316 270/471/316
f 267/473/317 1/251/317 277/253/317
f 270/471/318 277/253/318 3/254/318
f 272/472/319 3/254/319 278/257/319
f 274/466/320 278/257/320 5/259/320
f 5/259/321 418/580/321 417/474/321
f 128/475/322 304/485/322 306/476/322
f 217/478/323 322/536/323 323/479/323
f 32/481/324 288/487/324 289/482/324
f 119/484/325 303/519/325 304/485/325
f 24/486/326 287/525/326 288/487/326
f 77/488/327 296/534/327 297/489/327
f 182/491/328 315/495/328 316/492/328
f 172/494/329 314/531/329 315/495/329
f 84/490/330 297/489/330 300/496/330
f 242/498/331 327/505/331 328/499/331
f 147/501/332 308/509/332 310/502/332
f 233/504/333 325/539/333 327/505/333
f 50/506/334 290/515/334 292/507/334
f 137/477/335 306/476/335 308/509/335
f 1/510/336 282/521/336 281/511/336
f 190/493/337 316/492/337 318/513/337
f 42/483/338 289/482/338 290/515/338
f 92/497/339 300/496/339 301/516/339
f 111/518/340 302/526/340 303/519/340
f 267/520/341 330/528/341 282/521/341
f 198/514/342 318/513/342 319/522/342
f 16/524/343 285/529/343 287/525/343
f 102/517/344 301/516/344 302/526/344
f 259/527/345 329/532/345 330/528/345
f 7/512/346 281/511/346 285/529/346
f 163/530/347 312/535/347 314/531/347
f 251/500/348 328/499/348 329/532/348
f 67/533/349 294/586/349 296/534/349
f 155/503/350 310/502/350 312/535/350
f 207/523/351 319/522/351 322/536/351
f 59/508/352 292/507/352 294/537/352
f 225/480/353 323/479/353 325/539/353
