# Blender 4.5.8 LTS
# www.blender.org
mtllib Door_Top.mtl
o Door_Top
v 0.050000 0.250000 -0.500000
v 0.050000 -0.250000 -0.500000
v 0.060000 -0.250000 -0.387500
v 0.060000 -0.083333 -0.362500
v 0.060000 -0.225000 -0.112500
v 0.060000 -0.083333 -0.137500
v 0.060000 -0.083333 -0.112500
v 0.060000 -0.225000 -0.362500
v 0.060000 -0.225000 -0.137500
v 0.060000 -0.060000 -0.387500
v -0.060000 -0.250000 -0.387500
v 0.050000 0.083333 -0.375000
v -0.060000 -0.083333 -0.362500
v -0.060000 -0.225000 -0.112500
v -0.060000 -0.083333 -0.137500
v -0.060000 -0.083333 -0.112500
v -0.060000 -0.225000 -0.362500
v -0.060000 -0.225000 -0.137500
v -0.060000 -0.060000 -0.387500
v 0.060000 -0.250000 0.387500
v 0.060000 -0.083333 0.362500
v 0.060000 -0.225000 0.112500
v 0.060000 -0.083333 0.137500
v 0.060000 -0.083333 0.112500
v 0.060000 -0.225000 0.362500
v 0.060000 -0.225000 0.137500
v 0.060000 -0.060000 0.387500
v -0.060000 -0.250000 0.387500
v -0.060000 -0.083333 0.362500
v -0.060000 -0.225000 0.112500
v -0.060000 -0.083333 0.137500
v -0.060000 -0.083333 0.112500
v -0.060000 -0.225000 0.362500
v -0.060000 -0.225000 0.137500
v -0.060000 -0.060000 0.387500
v 0.025000 0.083333 -0.375000
v -0.050000 0.250000 -0.500000
v -0.050000 -0.250000 -0.500000
v -0.050000 0.083333 -0.375000
v -0.025000 0.083333 -0.375000
v 0.050000 0.250000 0.500000
v 0.050000 -0.250000 0.500000
v 0.050000 0.083333 0.375000
v 0.025000 0.083333 0.375000
v -0.050000 0.250000 0.500000
v -0.050000 -0.250000 0.500000
v -0.050000 0.083333 0.375000
v -0.025000 0.083333 0.375000
v 0.050000 -0.060000 -0.387500
v 0.050000 -0.060000 -0.375000
v 0.050000 -0.250000 -0.387500
v 0.025000 -0.060000 -0.375000
v 0.025000 -0.083333 -0.362500
v 0.025000 -0.083333 -0.137500
v 0.025000 -0.083333 -0.112500
v 0.025000 -0.225000 -0.362500
v 0.025000 -0.225000 -0.137500
v 0.025000 -0.225000 -0.112500
v -0.050000 -0.060000 -0.387500
v -0.050000 -0.060000 -0.375000
v -0.050000 -0.250000 -0.387500
v -0.025000 -0.060000 -0.375000
v -0.025000 -0.083333 -0.362500
v -0.025000 -0.083333 -0.137500
v -0.025000 -0.083333 -0.112500
v -0.025000 -0.225000 -0.362500
v -0.025000 -0.225000 -0.137500
v -0.025000 -0.225000 -0.112500
v 0.050000 -0.060000 0.387500
v 0.050000 -0.060000 0.375000
v 0.050000 -0.250000 0.387500
v 0.025000 -0.060000 0.375000
v 0.025000 -0.083333 0.362500
v 0.025000 -0.083333 0.137500
v 0.025000 -0.083333 0.112500
v 0.025000 -0.225000 0.362500
v 0.025000 -0.225000 0.137500
v 0.025000 -0.225000 0.112500
v -0.050000 -0.060000 0.387500
v -0.050000 -0.060000 0.375000
v -0.050000 -0.250000 0.387500
v -0.025000 -0.060000 0.375000
v -0.025000 -0.083333 0.362500
v -0.025000 -0.083333 0.137500
v -0.025000 -0.083333 0.112500
v -0.025000 -0.225000 0.362500
v -0.025000 -0.225000 0.137500
v -0.025000 -0.225000 0.112500
vn 1.0000 -0.0000 -0.0000
vn -1.0000 -0.0000 -0.0000
vn -0.0000 -0.0000 1.0000
vn -0.0000 -0.0000 -1.0000
vn -0.0000 -1.0000 -0.0000
vn -0.0000 1.0000 -0.0000
vn -0.0001 1.0000 -0.0000
vt 0.258434 0.006370
vt 0.121208 0.092771
vt 0.121208 0.006370
vt 0.271431 0.152410
vt 0.357832 0.015184
vt 0.357832 0.152410
vt 0.814193 0.733861
vt 0.800983 0.675309
vt 0.784211 0.692788
vt 0.005244 0.268374
vt 0.142470 0.181973
vt 0.142470 0.268374
vt 0.005202 0.005202
vt 0.994788 0.902251
vt 0.818519 0.783268
vt 0.385523 0.422653
vt 0.529096 0.551077
vt 0.764483 0.714478
vt 0.709086 0.674791
vt 0.705480 0.680080
vt 0.818668 0.738225
vt 0.760893 0.741904
vt 0.747064 0.764430
vt 0.301507 0.367515
vt 0.164281 0.453917
vt 0.164281 0.367515
vt 0.189222 0.215307
vt 0.776423 0.739580
vt 0.235385 0.204103
vt 0.250611 0.184809
vt 0.968113 0.932252
vt 0.809166 0.900125
vt 0.868775 0.837579
vt 0.443506 0.370890
vt 0.552372 0.491107
vt 0.451311 0.385307
vt 0.399005 0.421309
vt 0.525678 0.541601
vt 0.532253 0.556643
vt 0.454353 0.349179
vt 0.225832 0.190712
vt 0.602483 0.499521
vt 0.191523 0.157329
vt 0.039384 0.073157
vt 0.926182 0.875069
vt 0.697350 0.688366
vt 0.146296 0.162081
vt 0.171642 0.228462
vt 0.193783 0.212022
vt 0.145784 0.281371
vt 0.008558 0.367772
vt 0.008558 0.281371
vt 0.215332 0.232630
vt 0.697930 0.689429
vt 0.767789 0.713626
vt 0.745494 0.697308
vt 0.564506 0.549499
vt 0.752057 0.689033
vt 0.266636 0.257285
vt 0.271249 0.254199
vt 0.282034 0.242829
vt 0.561573 0.501039
vt 0.573071 0.515980
vt 0.682036 0.691308
vt 0.564700 0.528288
vt 0.694650 0.676131
vt 0.548022 0.562543
vt 0.514603 0.537908
vt 0.775661 0.723587
vt 0.714826 0.671395
vt 0.751875 0.674857
vt 0.633670 0.532839
vt 0.627636 0.515675
vt 0.685683 0.684925
vt 0.573193 0.583702
vt 0.679079 0.681832
vt 0.584812 0.488775
vt 0.735647 0.655607
vt 0.553151 0.578009
vt 0.263632 0.260256
vt 0.239442 0.263314
vt 0.353451 0.392644
vt 0.360467 0.408420
vt 0.295718 0.248148
vt 0.406886 0.343884
vt 0.303542 0.252164
vt 0.401518 0.432921
vt 0.253958 0.280400
vt 0.424912 0.349717
vt 0.465328 0.367726
vt 0.275282 0.244609
vt 0.211404 0.195192
vt 0.435138 0.324519
vt 0.285121 0.227332
vt 0.263853 0.213518
vt 0.261417 0.276752
vt 0.369624 0.382766
vt 0.376478 0.402122
vt 0.413209 0.427627
vt 0.264464 0.283937
vt 0.416786 0.319387
vt 0.258434 0.092771
vt 0.271431 0.015184
vt 0.005244 0.181973
vt 0.704540 0.676772
vt 0.301507 0.453917
vt 0.190521 0.176541
vt 0.908504 0.994798
vt 0.778931 0.709326
vt 0.258083 0.263856
vt 0.145784 0.367772
vt 0.220213 0.220551
s 0
usemtl Material
f 54/1/1 56/2/1 53/3/1
f 85/4/2 68/5/2 88/6/2
f 12/7/3 52/8/3 50/9/3
f 86/10/2 84/11/2 87/12/2
f 45/13/2 37/14/2 39/15/2
f 24/16/1 7/17/1 10/18/1
f 37/14/4 2/19/4 38/20/4
f 40/21/3 60/22/3 62/23/3
f 75/24/1 58/25/1 55/26/1
f 12/7/5 44/27/5 36/28/5
f 44/27/4 70/29/4 72/30/4
f 63/31/2 67/32/2 64/33/2
f 22/34/6 58/35/6 78/36/6
f 30/37/6 68/38/6 14/39/6
f 32/40/2 35/41/2 16/42/2
f 44/27/1 52/8/1 36/28/1
f 62/23/2 48/43/2 40/21/2
f 37/14/6 41/44/6 1/45/6
f 48/43/5 39/15/5 40/21/5
f 30/37/2 14/39/2 11/46/2
f 47/47/4 82/48/4 80/49/4
f 73/50/1 77/51/1 74/52/1
f 70/29/6 27/53/6 50/9/6
f 10/18/4 51/54/4 49/55/4
f 4/56/5 54/57/5 53/58/5
f 41/44/3 46/59/3 42/60/3
f 20/61/1 5/62/1 22/34/1
f 9/63/6 56/64/6 57/65/6
f 7/17/3 58/35/3 5/62/3
f 4/56/3 56/64/3 8/66/3
f 9/63/4 54/57/4 6/67/4
f 35/41/6 80/49/6 60/22/6
f 24/16/5 55/68/5 7/17/5
f 11/46/4 59/69/4 61/70/4
f 13/71/5 64/72/5 15/73/5
f 41/44/1 12/7/1 1/45/1
f 17/74/6 67/75/6 66/76/6
f 14/39/3 65/77/3 16/42/3
f 17/74/3 63/78/3 13/71/3
f 15/73/4 67/75/4 18/79/4
f 27/53/3 71/80/3 20/61/3
f 21/81/5 74/82/5 23/83/5
f 25/84/6 77/85/6 76/86/6
f 24/16/4 78/36/4 75/87/4
f 21/81/4 76/86/4 73/88/4
f 26/89/3 74/82/3 77/85/3
f 32/40/5 65/77/5 85/90/5
f 35/41/3 81/91/3 79/92/3
f 31/93/5 83/94/5 29/95/5
f 33/96/6 87/97/6 34/98/6
f 30/37/4 85/90/4 88/99/4
f 33/96/4 83/94/4 86/100/4
f 31/93/3 87/97/3 84/101/3
f 71/80/5 81/91/5 61/70/5
f 54/1/1 57/102/1 56/2/1
f 85/4/2 65/103/2 68/5/2
f 12/7/3 36/28/3 52/8/3
f 86/10/2 83/104/2 84/11/2
f 47/47/2 80/49/2 79/92/2
f 79/92/2 81/91/2 46/59/2
f 37/14/2 38/20/2 61/70/2
f 59/69/2 60/22/2 39/15/2
f 37/14/2 61/70/2 59/69/2
f 79/92/2 46/59/2 45/13/2
f 47/47/2 79/92/2 45/13/2
f 37/14/2 59/69/2 39/15/2
f 39/15/2 47/47/2 45/13/2
f 27/53/1 20/61/1 25/84/1
f 27/53/1 25/84/1 21/81/1
f 8/66/1 3/105/1 10/18/1
f 4/56/1 8/66/1 10/18/1
f 10/18/1 27/53/1 21/81/1
f 23/83/1 26/89/1 22/34/1
f 10/18/1 21/81/1 23/83/1
f 6/67/1 4/56/1 10/18/1
f 5/62/1 9/63/1 6/67/1
f 7/17/1 5/62/1 6/67/1
f 23/83/1 22/34/1 24/16/1
f 7/17/1 6/67/1 10/18/1
f 10/18/1 23/83/1 24/16/1
f 37/14/4 1/45/4 2/19/4
f 40/21/3 39/15/3 60/22/3
f 75/24/1 78/106/1 58/25/1
f 12/7/5 43/107/5 44/27/5
f 44/27/4 43/107/4 70/29/4
f 63/31/2 66/108/2 67/32/2
f 22/34/6 5/62/6 58/35/6
f 30/37/6 88/99/6 68/38/6
f 32/40/2 30/37/2 34/98/2
f 32/40/2 34/98/2 31/93/2
f 18/79/2 14/39/2 16/42/2
f 15/73/2 18/79/2 16/42/2
f 11/46/2 17/74/2 13/71/2
f 19/109/2 11/46/2 13/71/2
f 33/96/2 28/110/2 35/41/2
f 29/95/2 33/96/2 35/41/2
f 35/41/2 19/109/2 13/71/2
f 35/41/2 13/71/2 15/73/2
f 31/93/2 29/95/2 35/41/2
f 32/40/2 31/93/2 35/41/2
f 35/41/2 15/73/2 16/42/2
f 44/27/1 72/30/1 52/8/1
f 62/23/2 82/48/2 48/43/2
f 37/14/6 45/13/6 41/44/6
f 48/43/5 47/47/5 39/15/5
f 18/79/2 17/74/2 11/46/2
f 11/46/2 28/110/2 33/96/2
f 11/46/2 33/96/2 34/98/2
f 14/39/2 18/79/2 11/46/2
f 11/46/2 34/98/2 30/37/2
f 47/47/4 48/43/4 82/48/4
f 73/50/1 76/111/1 77/51/1
f 70/29/6 69/112/6 27/53/6
f 27/53/6 10/18/6 49/55/6
f 50/9/6 52/8/6 72/30/6
f 27/53/6 49/55/6 50/9/6
f 50/9/6 72/30/6 70/29/6
f 10/18/4 3/105/4 51/54/4
f 4/56/5 6/67/5 54/57/5
f 41/44/3 45/13/3 46/59/3
f 26/89/1 25/84/1 20/61/1
f 20/61/1 3/105/1 8/66/1
f 20/61/1 8/66/1 9/63/1
f 22/34/1 26/89/1 20/61/1
f 20/61/1 9/63/1 5/62/1
f 9/63/6 8/66/6 56/64/6
f 7/17/3 55/68/3 58/35/3
f 4/56/3 53/58/3 56/64/3
f 9/63/4 57/65/4 54/57/4
f 59/69/6 19/109/6 35/41/6
f 35/41/6 79/92/6 80/49/6
f 80/49/6 82/48/6 62/23/6
f 60/22/7 59/69/7 35/41/7
f 80/49/6 62/23/6 60/22/6
f 24/16/5 75/87/5 55/68/5
f 11/46/4 19/109/4 59/69/4
f 13/71/5 63/78/5 64/72/5
f 41/44/1 42/60/1 71/80/1
f 69/112/1 70/29/1 43/107/1
f 41/44/1 71/80/1 69/112/1
f 51/54/1 2/19/1 1/45/1
f 12/7/1 50/9/1 49/55/1
f 49/55/1 51/54/1 1/45/1
f 41/44/1 69/112/1 43/107/1
f 12/7/1 49/55/1 1/45/1
f 41/44/1 43/107/1 12/7/1
f 17/74/6 18/79/6 67/75/6
f 14/39/3 68/38/3 65/77/3
f 17/74/3 66/76/3 63/78/3
f 15/73/4 64/72/4 67/75/4
f 27/53/3 69/112/3 71/80/3
f 21/81/5 73/88/5 74/82/5
f 25/84/6 26/89/6 77/85/6
f 24/16/4 22/34/4 78/36/4
f 21/81/4 25/84/4 76/86/4
f 26/89/3 23/83/3 74/82/3
f 32/40/5 16/42/5 65/77/5
f 35/41/3 28/110/3 81/91/3
f 31/93/5 84/101/5 83/94/5
f 33/96/6 86/100/6 87/97/6
f 30/37/4 32/40/4 85/90/4
f 33/96/4 29/95/4 83/94/4
f 31/93/3 34/98/3 87/97/3
f 38/20/5 2/19/5 51/54/5
f 51/54/5 3/105/5 20/61/5
f 71/80/5 42/60/5 46/59/5
f 51/54/5 20/61/5 71/80/5
f 61/70/5 38/20/5 51/54/5
f 28/110/5 11/46/5 61/70/5
f 71/80/5 46/59/5 81/91/5
f 81/91/5 28/110/5 61/70/5
f 61/70/5 51/54/5 71/80/5
