# Blender 4.5.8 LTS
# www.blender.org
mtllib Door_Middle.mtl
o Door_Middle
v 0.050000 -0.250000 -0.500000
v 0.050000 0.250000 -0.500000
v 0.050000 -0.250000 -0.375000
v 0.050000 0.250000 -0.375000
v 0.025000 -0.250000 -0.375000
v 0.025000 0.250000 -0.375000
v -0.050000 -0.250000 -0.500000
v -0.050000 0.250000 -0.500000
v -0.050000 -0.250000 -0.375000
v -0.050000 0.250000 -0.375000
v -0.025000 -0.250000 -0.375000
v -0.025000 0.250000 -0.375000
v 0.050000 -0.250000 0.500000
v 0.050000 0.250000 0.500000
v 0.050000 -0.250000 0.375000
v 0.050000 0.250000 0.375000
v 0.025000 -0.250000 0.375000
v 0.025000 0.250000 0.375000
v -0.050000 -0.250000 0.500000
v -0.050000 0.250000 0.500000
v -0.050000 -0.250000 0.375000
v -0.050000 0.250000 0.375000
v -0.025000 -0.250000 0.375000
v -0.025000 0.250000 0.375000
vn -0.0000 -0.0000 1.0000
vn 1.0000 -0.0000 -0.0000
vn -0.0000 -0.0000 -1.0000
vn -1.0000 -0.0000 -0.0000
vn -0.0000 1.0000 -0.0000
vn -0.0000 -1.0000 -0.0000
vt 0.541667 0.031250
vt 0.458333 0.031250
vt 0.541667 0.000000
vt 0.458333 0.000000
vt 0.458333 1.000000
vt 0.541667 1.000000
s 0
usemtl Material.001
f 4/1/1 5/2/1 3/2/1
f 2/3/2 3/2/2 1/4/2
f 7/5/3 2/6/3 1/5/3
f 11/2/1 10/1/1 9/2/1
f 9/2/4 8/3/4 7/4/4
f 17/2/2 6/1/2 18/1/2
f 12/1/4 23/2/4 24/1/4
f 17/2/3 16/1/3 15/2/3
f 15/2/2 14/3/2 13/4/2
f 22/1/3 23/2/3 21/2/3
f 20/3/4 21/2/4 19/4/4
f 12/1/5 18/1/5 6/1/5
f 17/2/6 13/4/6 23/2/6
f 20/6/1 13/5/1 14/6/1
f 4/1/1 6/1/1 5/2/1
f 2/3/2 4/1/2 3/2/2
f 7/5/3 8/6/3 2/6/3
f 11/2/1 12/1/1 10/1/1
f 9/2/4 10/1/4 8/3/4
f 17/2/2 5/2/2 6/1/2
f 12/1/4 11/2/4 23/2/4
f 17/2/3 18/1/3 16/1/3
f 15/2/2 16/1/2 14/3/2
f 22/1/3 24/1/3 23/2/3
f 20/3/4 22/1/4 21/2/4
f 4/1/5 2/3/5 8/6/5
f 8/6/5 10/1/5 12/1/5
f 24/1/5 22/1/5 20/6/5
f 24/1/5 20/6/5 14/3/5
f 14/3/5 16/1/5 18/1/5
f 6/1/5 4/1/5 8/6/5
f 24/1/5 14/3/5 18/1/5
f 6/1/5 8/6/5 12/1/5
f 12/1/5 24/1/5 18/1/5
f 7/4/6 1/4/6 3/2/6
f 7/4/6 3/2/6 5/2/6
f 11/2/6 9/2/6 7/4/6
f 19/4/6 21/2/6 23/2/6
f 11/2/6 7/4/6 5/2/6
f 13/4/6 19/4/6 23/2/6
f 23/2/6 11/2/6 5/2/6
f 17/2/6 15/2/6 13/4/6
f 23/2/6 5/2/6 17/2/6
f 20/6/1 19/5/1 13/5/1
