# Blender 4.5.8 LTS
# www.blender.org
mtllib Door_Bottom.mtl
o Door_Bottom
v 0.050000 -0.250000 -0.500000
v 0.050000 0.250000 -0.500000
v 0.050000 0.250000 -0.375000
v 0.050000 -0.083333 -0.375000
v 0.025000 0.250000 -0.375000
v 0.025000 -0.083333 -0.375000
v -0.050000 -0.250000 -0.500000
v -0.050000 0.250000 -0.500000
v -0.050000 0.250000 -0.375000
v -0.050000 -0.083333 -0.375000
v -0.025000 0.250000 -0.375000
v -0.025000 -0.083333 -0.375000
v 0.050000 -0.250000 0.500000
v 0.050000 0.250000 0.500000
v 0.050000 0.250000 0.375000
v 0.050000 -0.083333 0.375000
v 0.025000 0.250000 0.375000
v 0.025000 -0.083333 0.375000
v -0.050000 -0.250000 0.500000
v -0.050000 0.250000 0.500000
v -0.050000 0.250000 0.375000
v -0.050000 -0.083333 0.375000
v -0.025000 0.250000 0.375000
v -0.025000 -0.083333 0.375000
vn -0.0000 1.0000 -0.0000
vn 1.0000 -0.0000 -0.0000
vn -1.0000 -0.0000 -0.0000
vn -0.0000 -0.0000 1.0000
vn -0.0000 -1.0000 -0.0000
vn -0.0000 -0.0000 -1.0000
vt 0.402778 0.031250
vt 0.375000 0.000000
vt 0.458333 0.031250
vt 0.125000 0.750000
vt 0.375000 1.000000
vt 0.458333 1.000000
vt 0.458333 0.000000
s 0
usemtl Material.002
f 24/1/1 10/1/1 22/1/1
f 16/1/2 13/2/2 1/2/2
f 23/3/3 12/1/3 24/1/3
f 3/3/4 6/1/4 4/1/4
f 19/4/5 1/4/5 13/4/5
f 10/1/3 7/2/3 19/2/3
f 4/1/1 18/1/1 16/1/1
f 6/1/2 17/3/2 18/1/2
f 12/1/4 9/3/4 10/1/4
f 7/5/6 2/6/6 1/5/6
f 18/1/6 15/3/6 16/1/6
f 21/3/6 24/1/6 22/1/6
f 23/3/1 14/7/1 17/3/1
f 20/6/4 13/5/4 14/6/4
f 24/1/1 12/1/1 10/1/1
f 16/1/2 15/3/2 14/7/2
f 1/2/2 2/7/2 3/3/2
f 1/2/2 3/3/2 4/1/2
f 16/1/2 14/7/2 13/2/2
f 1/2/2 4/1/2 16/1/2
f 23/3/3 11/3/3 12/1/3
f 3/3/4 5/3/4 6/1/4
f 19/4/5 7/4/5 1/4/5
f 10/1/3 9/3/3 8/7/3
f 19/2/3 20/7/3 21/3/3
f 19/2/3 21/3/3 22/1/3
f 10/1/3 8/7/3 7/2/3
f 19/2/3 22/1/3 10/1/3
f 4/1/1 6/1/1 18/1/1
f 6/1/2 5/3/2 17/3/2
f 12/1/4 11/3/4 9/3/4
f 7/5/6 8/6/6 2/6/6
f 18/1/6 17/3/6 15/3/6
f 21/3/6 23/3/6 24/1/6
f 5/3/1 3/3/1 2/7/1
f 2/7/1 8/7/1 9/3/1
f 2/7/1 9/3/1 11/3/1
f 5/3/1 2/7/1 11/3/1
f 23/3/1 21/3/1 20/7/1
f 5/3/1 11/3/1 23/3/1
f 14/7/1 15/3/1 17/3/1
f 17/3/1 5/3/1 23/3/1
f 23/3/1 20/7/1 14/7/1
f 20/6/4 19/5/4 13/5/4
