mtllib WhiteMaterial.mtl
usemtl WhiteMaterial
v 5.000000 0.000000 0.000000
v 3.117449 0.000000 3.909157
v -1.112605 0.000000 4.874640
v -4.504844 0.000000 2.169419
v -4.504844 0.000000 -2.169419
v -1.112605 0.000000 -4.874640
v 3.117449 0.000000 -3.909157
v 0.000000 7.000000 0.000000
v -0.300000 0.000000 1.000000
v -1.617786 0.000000 3.736410
v -4.578823 0.000000 4.412248
v -6.953391 0.000000 2.518593
v -6.953391 0.000000 -0.518593
v -4.578823 0.000000 -2.412248
v -1.617786 0.000000 -1.736410
v -3.800000 4.800000 1.000000
v 7.800000 0.000000 1.500000
v 6.369261 0.000000 4.470960
v 3.154420 0.000000 5.204726
v 0.576318 0.000000 3.148758
v 0.576318 0.000000 -0.148758
v 3.154420 0.000000 -2.204726
v 6.369261 0.000000 -1.470960
v 4.000000 5.300000 1.500000
vn 0.000000 -1.000000 0.000000
vn 0.757637 0.541169 0.364859
vn 0.187121 0.541169 0.819830
vn -0.524301 0.541169 0.657453
vn -0.840914 0.541169 0.000000
vn -0.524301 0.541169 -0.657453
vn 0.187121 0.541169 -0.819830
vn 0.757637 0.541169 -0.364859
vn 0.000000 -1.000000 0.000000
vn 0.753009 0.549069 0.362630
vn 0.185978 0.549069 0.814822
vn -0.521098 0.549069 0.653437
vn -0.835777 0.549069 0.000000
vn -0.521098 0.549069 -0.653437
vn 0.185978 0.549069 -0.814822
vn 0.753009 0.549069 -0.362630
vn 0.000000 -1.000000 0.000000
vn 0.756800 0.542611 0.364455
vn 0.186914 0.542611 0.818924
vn -0.523722 0.542611 0.656726
vn -0.839984 0.542611 0.000000
vn -0.523722 0.542611 -0.656726
vn 0.186914 0.542611 -0.818924
vn 0.756800 0.542611 -0.364455
f 1//1 2//1 3//1 4//1 5//1 6//1 7//1
f 2//2 1//2 8//2
f 3//3 2//3 8//3
f 4//4 3//4 8//4
f 5//5 4//5 8//5
f 6//6 5//6 8//6
f 7//7 6//7 8//7
f 1//8 7//8 8//8
f 9//9 10//9 11//9 12//9 13//9 14//9 15//9
f 10//10 9//10 16//10
f 11//11 10//11 16//11
f 12//12 11//12 16//12
f 13//13 12//13 16//13
f 14//14 13//14 16//14
f 15//15 14//15 16//15
f 9//16 15//16 16//16
f 17//17 18//17 19//17 20//17 21//17 22//17 23//17
f 18//18 17//18 24//18
f 19//19 18//19 24//19
f 20//20 19//20 24//20
f 21//21 20//21 24//21
f 22//22 21//22 24//22
f 23//23 22//23 24//23
f 17//24 23//24 24//24
