mtllib WhiteMaterial.mtl
usemtl WhiteMaterial
v -2.250000 6.830843 0.050000
v -1.023581 6.576504 0.035627
v -1.363819 6.562914 0.878157
v -2.014222 6.586737 1.264054
v -2.749663 6.334771 0.898593
v -3.160896 6.323477 0.393404
v -3.403366 6.638210 -0.523786
v -2.821490 6.415013 -0.848694
v -2.001415 6.378073 -0.947567
v -1.524176 6.372727 -0.670521
v -0.588286 5.350000 -0.016136
v -1.254259 5.350000 1.114146
v -2.158971 5.350000 1.675376
v -3.282681 5.350000 1.472620
v -3.766460 5.350000 0.759028
v -3.563199 5.350000 -0.287176
v -3.158455 5.350000 -1.429189
v -1.973999 5.350000 -1.371816
v -0.769680 5.350000 -0.983360
v -1.139007 4.236409 -0.026023
v -1.305095 4.077448 0.902374
v -1.941308 4.199392 1.158426
v -2.953737 4.180089 0.984584
v -3.425784 4.122036 0.404158
v -3.243684 4.291830 -0.313754
v -2.797408 4.208412 -0.951782
v -2.082511 4.094309 -1.194471
v -1.413778 4.224029 -0.704019
v -2.250000 3.846223 0.050000
v -1.050000 7.612042 -0.250000
v 0.318708 7.323029 -0.358855
v -0.229391 7.138115 0.609196
v -0.905934 7.044336 0.834811
v -1.539199 7.071807 0.759522
v -2.095009 7.043539 0.072156
v -1.977226 6.990816 -0.722812
v -1.644457 6.997687 -1.112710
v -0.771205 7.100760 -1.366478
v -0.185379 7.085730 -0.986419
v 0.595993 5.950000 -0.191162
v 0.299509 5.950000 0.718082
v -0.716257 5.950000 1.205394
v -2.073213 5.950000 1.221250
v -2.859976 5.950000 0.322251
v -2.600303 5.950000 -0.766634
v -1.902103 5.950000 -1.659900
v -0.738261 5.950000 -1.654236
v 0.254119 5.950000 -1.365191
v -0.028009 4.927184 -0.291072
v -0.305913 4.931796 0.445035
v -0.881612 4.878367 0.808320
v -1.473865 4.868168 0.745339
v -2.008432 4.879335 0.227212
v -2.235047 4.664943 -0.747027
v -1.716868 4.693115 -1.315386
v -0.849310 4.750261 -1.432834
v -0.117410 4.819740 -0.888564
v -1.050000 4.332302 -0.250000
v 0.350000 7.910894 0.050000
v 1.488755 7.389273 0.084345
v 1.306376 7.561221 0.947020
v 0.617185 7.565014 1.337585
v -0.210995 7.339643 0.984134
v -0.889992 7.565862 0.490355
v -0.979826 7.667821 -0.441710
v -0.194561 7.470680 -1.042479
v 0.466029 7.372933 -1.066923
v 1.445315 7.593384 -0.727795
v 2.111449 6.250000 0.100078
v 1.606199 6.250000 1.104656
v 0.614984 6.250000 1.625542
v -0.633803 6.250000 1.636462
v -1.227552 6.250000 0.546285
v -1.301812 6.250000 -0.359459
v -0.472915 6.250000 -1.550881
v 0.765604 6.250000 -1.656351
v 1.863114 6.250000 -1.289302
v 1.499736 5.095941 -0.049791
v 1.341671 4.929531 0.921910
v 0.596478 4.958311 1.317955
v -0.299609 4.914900 1.216405
v -1.003754 4.853531 0.392749
v -0.815029 4.992818 -0.422457
v -0.144361 5.001844 -1.096081
v 0.640817 4.836489 -1.333271
v 1.325683 5.023978 -0.692409
v 0.350000 4.568051 0.050000
v 1.750000 7.545726 -0.150000
v 2.994860 7.094941 -0.164145
v 2.521234 6.913206 0.581850
v 2.087378 7.053071 1.004797
v 1.286433 6.973547 0.873457
v 0.489472 7.150226 0.168837
v 0.766184 6.865362 -0.401131
v 1.029318 7.134337 -1.213080
v 1.804348 6.916913 -1.215528
v 2.468632 6.881736 -0.890302
v 3.237523 5.850000 -0.140940
v 3.130687 5.850000 0.954201
v 1.936724 5.850000 1.444775
v 0.800818 5.850000 1.243405
v 0.281787 5.850000 0.246960
v 0.143202 5.850000 -0.673642
v 1.072296 5.850000 -1.719269
v 2.004426 5.850000 -1.650572
v 2.845373 5.850000 -1.180693
v 3.045008 4.544569 0.014638
v 2.568945 4.673678 0.694430
v 1.881184 4.757372 0.934724
v 1.235218 4.811807 0.751578
v 0.745968 4.773162 0.239230
v 0.472076 4.532719 -0.469591
v 0.998152 4.571130 -1.184520
v 1.978576 4.831817 -1.142194
v 2.776862 4.505160 -1.018417
v 1.750000 4.254680 -0.150000
v 2.650000 6.613177 0.150000
v 3.688950 6.243825 0.250765
v 3.397230 6.122954 0.691748
v 2.776536 6.266358 1.208824
v 2.311469 6.073568 0.955306
v 1.816978 6.058935 0.359390
v 1.796421 6.122671 -0.200321
v 2.144316 6.283096 -0.807800
v 2.833041 6.141178 -0.773207
v 3.393301 6.210546 -0.534622
v 3.988136 5.200000 0.194659
v 3.724798 5.200000 1.035954
v 2.941800 5.200000 1.356162
v 2.027897 5.200000 1.184468
v 1.222221 5.200000 0.628933
v 1.496240 5.200000 -0.385244
v 1.841423 5.200000 -1.181482
v 2.864362 5.200000 -1.422258
v 3.736530 5.200000 -0.916598
v 3.667160 4.175552 0.028023
v 3.354283 4.211695 0.843348
v 2.803335 4.101389 1.237857
v 2.117182 4.322628 0.847057
v 1.863344 4.364636 0.431077
v 1.826272 4.332939 -0.120677
v 2.068901 4.188427 -0.678012
v 2.707795 4.330254 -0.717824
v 3.374522 4.131585 -0.635226
v 2.650000 3.994074 0.150000
v -2.750000 5.980252 0.200000
v -1.741563 5.659213 0.160420
v -2.152145 5.522180 0.835033
v -2.658116 5.528618 1.073800
v -3.122848 5.532514 0.999884
v -3.542037 5.475027 0.430970
v -3.566870 5.533361 -0.136229
v -3.268726 5.555943 -0.542736
v -2.617835 5.564603 -0.705003
v -1.885852 5.696339 -0.389978
v -1.246710 4.650000 0.093214
v -1.632713 4.650000 1.194373
v -2.628507 4.650000 1.514332
v -3.406984 4.650000 1.529993
v -4.077483 4.650000 0.495860
v -4.145840 4.650000 -0.155441
v -3.392581 4.650000 -1.114682
v -2.308403 4.650000 -1.235815
v -1.732122 4.650000 -0.552685
v -1.822726 3.722693 0.207764
v -2.056502 3.687880 0.866885
v -2.666612 3.719604 1.126652
v -3.300670 3.591300 1.104217
v -3.760513 3.600570 0.483139
v -3.503508 3.831655 -0.119239
v -3.198713 3.783989 -0.540697
v -2.657784 3.830850 -0.613943
v -2.108271 3.729459 -0.459985
v -2.750000 3.416175 0.200000
v -1.350000 6.146187 0.450000
v -0.450668 5.554245 0.544131
v -0.546796 5.818682 1.298930
v -1.017421 5.813857 1.565327
v -1.894504 5.610452 1.241191
v -2.342380 5.668396 0.678719
v -2.401306 5.763692 0.082489
v -1.872416 5.794198 -0.567973
v -1.226673 5.707875 -0.600662
v -0.655522 5.639092 -0.254275
v -0.044356 4.650000 0.446854
v -0.045323 4.650000 1.460120
v -0.974221 4.650000 1.873796
v -1.983441 4.650000 1.934439
v -2.568793 4.650000 1.043291
v -2.702588 4.650000 -0.142467
v -2.108479 4.650000 -0.906647
v -1.096259 4.650000 -0.996389
v -0.407201 4.650000 -0.498161
v -0.373715 3.670813 0.374674
v -0.402315 3.458035 1.172962
v -1.117881 3.708155 1.362794
v -1.771193 3.707901 1.292703
v -2.520351 3.437809 0.765729
v -2.457800 3.437749 -0.042274
v -1.862038 3.602334 -0.464014
v -1.189636 3.536696 -0.651693
v -0.578142 3.579124 -0.292301
v -1.350000 3.306544 0.450000
v 0.250000 6.355325 0.550000
v 1.507446 6.157727 0.576581
v 1.056656 5.991497 1.285304
v 0.466655 5.874501 1.500112
v -0.469469 6.083752 1.490017
v -0.784034 6.029469 1.004394
v -0.886350 6.135495 0.065070
v -0.317333 5.934116 -0.314598
v 0.354999 6.027899 -0.573001
v 1.229079 6.077031 -0.103305
v 1.734063 4.900000 0.410522
v 1.405902 4.900000 1.320638
v 0.493094 4.900000 1.914123
v -0.389316 4.900000 1.827673
v -1.356643 4.900000 1.171733
v -1.293567 4.900000 0.105656
v -0.508390 4.900000 -0.688116
v 0.455391 4.900000 -1.123303
v 1.614456 4.900000 -0.401674
v 1.418942 3.725058 0.668592
v 1.054305 3.892901 1.156087
v 0.427589 3.765529 1.670485
v -0.445105 3.664695 1.571179
v -0.962834 3.641003 0.887800
v -0.820383 3.740626 0.104548
v -0.222730 3.803607 -0.439245
v 0.555419 3.675193 -0.636116
v 1.051981 3.855884 -0.118585
v 0.250000 3.514841 0.550000
v 1.650000 5.975580 0.500000
v 2.780746 5.784564 0.593003
v 2.391713 5.594973 1.085522
v 1.871677 5.533548 1.355287
v 1.249603 5.571567 1.330041
v 0.762159 5.568007 0.733399
v 0.541718 5.799466 0.195072
v 1.290959 5.540217 -0.314602
v 1.799697 5.818528 -0.658900
v 2.438697 5.705194 -0.200994
v 3.149051 4.650000 0.574696
v 2.931507 4.650000 1.344221
v 1.781165 4.650000 1.906385
v 0.936678 4.650000 1.858617
v 0.057895 4.650000 0.859141
v 0.156150 4.650000 0.084198
v 0.820334 4.650000 -0.928378
v 2.067880 4.650000 -0.865989
v 2.981548 4.650000 -0.398611
v 2.630585 3.664392 0.400623
v 2.289600 3.718177 1.177647
v 1.849841 3.594370 1.536541
v 1.134737 3.545360 1.477104
v 0.700133 3.604215 0.937514
v 0.839678 3.783352 0.192661
v 1.171015 3.543750 -0.497177
v 1.891432 3.731944 -0.385741
v 2.348321 3.744538 -0.076375
v 1.650000 3.306110 0.500000
v -0.450000 6.637615 -0.950000
v 0.454636 6.354687 -0.959578
v 0.289173 6.342272 -0.450227
v -0.399237 6.358947 -0.042471
v -0.939931 6.421616 -0.110950
v -1.225950 6.279665 -0.656325
v -1.174621 6.249854 -1.288660
v -0.858891 6.447429 -1.859766
v -0.283357 6.346175 -1.830546
v 0.102060 6.251563 -1.531148
v 0.896823 5.450000 -0.854432
v 0.384304 5.450000 -0.203453
v -0.281614 5.450000 0.492020
v -1.220563 5.450000 0.128646
v -1.600921 5.450000 -0.512562
v -1.495877 5.450000 -1.227032
v -0.927583 5.450000 -2.073434
v -0.267843 5.450000 -2.191491
v 0.745704 5.450000 -1.720630
v 0.518801 4.480017 -0.902133
v 0.260382 4.517329 -0.345656
v -0.358677 4.512935 -0.017396
v -0.798645 4.567905 -0.139729
v -1.339399 4.510935 -0.648651
v -1.318258 4.480407 -1.381553
v -0.909095 4.564139 -1.707616
v -0.214260 4.487545 -1.883138
v 0.190717 4.586853 -1.528363
v -0.450000 4.288578 -0.950000
v 1.050000 6.659587 -0.900000
v 2.045022 6.345444 -0.928974
v 1.776158 6.250356 -0.367706
v 1.262115 6.267146 -0.007720
v 0.695896 6.232067 -0.092130
v 0.333774 6.126593 -0.599805
v 0.122554 6.370858 -1.326610
v 0.506659 6.292422 -1.670026
v 1.210059 6.234399 -1.769795
v 1.792236 6.300502 -1.493750
v 2.273987 5.350000 -0.970843
v 2.178775 5.350000 0.050784
v 1.136864 5.350000 0.487437
v 0.342598 5.350000 0.356836
v -0.346327 5.350000 -0.581070
v -0.150076 5.350000 -1.231607
v 0.343718 5.350000 -1.944867
v 1.386848 5.350000 -2.133186
v 1.895565 5.350000 -1.675933
v 2.041425 4.354221 -0.993018
v 1.745173 4.335750 -0.161462
v 1.301142 4.509725 -0.098134
v 0.676682 4.454823 -0.086381
v 0.229004 4.448167 -0.526813
v 0.160619 4.407819 -1.210977
v 0.599978 4.444007 -1.686323
v 1.107822 4.320682 -1.927693
v 1.810510 4.340995 -1.563112
v 1.050000 4.216331 -0.900000
vn 0.203188 0.974246 0.097767
vn 0.136458 0.975996 0.169739
vn -0.425082 0.867887 0.257057
vn -0.380049 0.878419 0.289729
vn -0.334677 0.860632 0.383801
vn 0.081660 0.883723 -0.460831
vn -0.009076 0.909706 -0.415153
vn 0.217896 0.908011 -0.357824
vn 0.182608 0.902566 -0.389910
vn 0.828715 0.273509 0.488287
vn 0.915162 0.155056 0.372070
vn 0.504681 0.208578 0.837730
vn 0.514737 0.215723 0.829764
vn -0.167698 0.328738 0.929413
vn -0.508818 0.622203 0.594951
vn -0.616390 0.618048 0.487936
vn -0.669920 0.587313 0.454171
vn -0.864110 0.474477 -0.167883
vn -0.936070 0.172463 0.306642
vn -0.512423 -0.093217 -0.853659
vn -0.849636 0.432949 -0.301122
vn 0.042764 0.467681 -0.882862
vn -0.094051 0.377626 -0.921169
vn 0.473819 0.346690 -0.809507
vn 0.272626 0.459664 -0.845213
vn 0.774438 0.615753 -0.145239
vn 0.739960 0.288266 -0.607752
vn 0.791325 -0.395486 0.466256
vn 0.984097 -0.066710 0.164630
vn 0.340270 -0.167573 0.925276
vn 0.507352 -0.271474 0.817860
vn -0.160346 -0.429598 0.888670
vn -0.146222 -0.415602 0.897716
vn -0.675718 -0.437492 0.593302
vn -0.770674 -0.364801 0.522477
vn -0.959273 -0.212273 -0.186372
vn -0.916405 -0.269271 -0.296134
vn -0.811145 -0.231435 -0.537105
vn -0.863433 -0.401049 -0.306012
vn 0.044883 -0.373313 -0.926619
vn -0.334490 -0.103390 -0.936711
vn 0.603841 -0.162398 -0.780387
vn 0.283862 -0.380709 -0.880047
vn 0.839834 -0.519491 -0.157503
vn 0.845709 -0.415266 -0.335157
vn 0.323298 -0.940651 -0.103222
vn -0.054018 -0.946964 0.316767
vn -0.035536 -0.949298 0.312364
vn -0.157912 -0.961571 0.224600
vn -0.300722 -0.908207 -0.291079
vn -0.364156 -0.921616 -0.134218
vn -0.226027 -0.949043 -0.219613
vn 0.292469 -0.944604 -0.148945
vn 0.322303 -0.939813 -0.113458
vn 0.219885 0.927699 0.301703
vn 0.030505 0.887255 0.460269
vn -0.016939 0.884956 0.465367
vn -0.390760 0.876902 0.279909
vn -0.504681 0.853253 -0.131362
vn -0.403752 0.853451 -0.329553
vn -0.233074 0.860817 -0.452405
vn 0.250630 0.902350 -0.350640
vn 0.149628 0.879075 -0.452590
vn 0.926569 0.224023 0.302133
vn 0.768033 0.388552 0.509071
vn 0.282675 0.211579 0.935590
vn 0.404298 0.355455 0.842731
vn 0.011060 0.322445 0.946524
vn -0.089615 0.415265 0.905276
vn -0.668952 0.532074 0.519038
vn -0.623138 0.560627 0.545342
vn -0.823977 0.531460 -0.196498
vn -0.844123 0.512024 -0.159024
vn -0.688173 0.436376 -0.579649
vn -0.700337 0.458125 -0.547402
vn 0.004316 0.462107 -0.886814
vn -0.296241 0.223710 -0.928545
vn 0.534955 0.219341 -0.815912
vn 0.257048 0.393797 -0.882525
vn 0.870672 0.421484 -0.253537
vn 0.763212 0.075760 -0.641691
vn 0.811533 -0.520951 0.264622
vn 0.782860 -0.545661 0.298973
vn 0.497704 -0.488185 0.716914
vn 0.401496 -0.372045 0.836889
vn 0.010950 -0.348911 0.937092
vn -0.087374 -0.441291 0.893100
vn -0.575688 -0.574775 0.581565
vn -0.628935 -0.549076 0.550415
vn -0.777037 -0.601561 -0.185304
vn -0.926565 -0.259203 0.272566
vn -0.716588 -0.213808 -0.663919
vn -0.757726 -0.274010 -0.592259
vn 0.004695 -0.263704 -0.964592
vn -0.121261 -0.169272 -0.978081
vn 0.596906 -0.198697 -0.777317
vn 0.250441 -0.444916 -0.859843
vn 0.880910 -0.397738 -0.256519
vn 0.854662 -0.518023 -0.034726
vn 0.499332 -0.844457 0.193804
vn 0.327001 -0.860016 0.391717
vn -0.033928 -0.885955 0.462528
vn -0.338483 -0.881122 0.330231
vn -0.366643 -0.887071 0.280494
vn -0.180568 -0.960392 -0.212230
vn 0.017418 -0.943650 -0.330487
vn 0.291095 -0.916482 -0.274453
vn 0.503858 -0.860140 0.079285
vn 0.416976 0.904241 -0.092080
vn 0.135986 0.963499 0.230603
vn -0.371142 0.874606 0.311958
vn -0.067447 0.868698 0.490729
vn -0.223686 0.966317 0.127265
vn -0.038668 0.933370 -0.356827
vn 0.117508 0.899420 -0.420994
vn -0.050537 0.897730 -0.437638
vn 0.402737 0.892571 0.202783
vn 0.800811 0.443262 0.402767
vn 0.958796 0.237905 0.155281
vn 0.482658 0.212507 0.849636
vn 0.456749 0.189562 0.869164
vn 0.008541 0.213887 0.976821
vn -0.448102 0.580756 0.679653
vn -0.345774 0.577097 0.739865
vn -0.852850 0.238525 0.464492
vn -0.964786 0.250860 0.079101
vn -0.966862 0.226416 0.117955
vn -0.591286 0.087774 -0.801671
vn -0.755468 0.391176 -0.525595
vn -0.077827 0.398382 -0.913912
vn 0.037286 0.472222 -0.880691
vn 0.182845 0.494731 -0.849593
vn 0.284248 0.443654 -0.849926
vn 0.920293 0.354970 -0.164492
vn 0.874674 0.479088 0.073621
vn 0.788743 -0.469592 0.396697
vn 0.969865 -0.211122 0.121610
vn 0.452428 -0.210565 0.866586
vn 0.454560 -0.212493 0.864998
vn 0.008505 -0.231758 0.972736
vn -0.091397 -0.319611 0.943131
vn -0.692887 -0.368445 0.619803
vn -0.862232 -0.189812 0.469603
vn -0.982768 -0.166357 0.080575
vn -0.903214 -0.336368 -0.266572
vn -0.687796 -0.231845 -0.687884
vn -0.755704 -0.390500 -0.525759
vn -0.079175 -0.359616 -0.929735
vn -0.319579 -0.184233 -0.929477
vn 0.697986 -0.217561 -0.682263
vn 0.271882 -0.514968 -0.812951
vn 0.874384 -0.459377 -0.156286
vn 0.877650 -0.440741 -0.188356
vn 0.409220 -0.908090 -0.088949
vn 0.108257 -0.955859 0.273157
vn 0.013266 -0.956391 0.291786
vn -0.152686 -0.967285 0.202602
vn -0.254260 -0.941831 -0.219785
vn -0.239912 -0.937672 -0.251424
vn -0.268374 -0.933556 -0.237589
vn 0.353620 -0.929363 -0.106008
vn 0.416447 -0.909093 -0.010991
vn 0.314863 0.856682 0.408604
vn 0.486135 0.846023 0.218901
vn -0.158323 0.890656 0.426223
vn -0.173432 0.891000 0.419572
vn -0.373554 0.744438 -0.553416
vn -0.580725 0.810142 0.080176
vn 0.234773 0.842339 -0.485125
vn 0.277986 0.833410 -0.477652
vn 0.297498 0.836019 -0.461050
vn 0.976727 0.192159 0.095284
vn 0.635827 0.553029 0.538407
vn 0.665186 0.555887 0.498515
vn 0.364943 0.279127 0.888203
vn -0.163065 0.356815 0.919833
vn -0.186271 0.378979 0.906465
vn -0.527463 0.462609 0.712584
vn -0.874435 0.167041 0.455478
vn -0.975368 0.164618 0.146829
vn -0.623179 0.535367 -0.570115
vn -0.837357 0.538702 -0.092912
vn -0.727422 0.230402 -0.646353
vn 0.068348 0.367796 -0.927391
vn 0.107246 0.392578 -0.913445
vn 0.418619 0.409112 -0.810793
vn 0.449104 0.390217 -0.803764
vn 0.856117 0.403493 -0.322890
vn 0.781515 0.141004 -0.607744
vn 0.986301 -0.133985 0.096217
vn 0.687274 -0.453510 0.567435
vn 0.275149 -0.330746 0.902718
vn 0.346432 -0.411201 0.843148
vn -0.159135 -0.410949 0.897662
vn -0.274714 -0.503119 0.819392
vn -0.591093 -0.533795 0.604708
vn -0.827501 -0.359797 0.431031
vn -0.909314 -0.392951 0.136886
vn -0.900629 -0.162411 0.403100
vn -0.765769 -0.280805 -0.578573
vn -0.727808 -0.228215 -0.646695
vn 0.067735 -0.388229 -0.919070
vn 0.156243 -0.444398 -0.882099
vn -0.043598 -0.445401 -0.894269
vn 0.483691 -0.129097 -0.865666
vn 0.931877 -0.089883 -0.351463
vn 0.955443 -0.169686 -0.241527
vn 0.172130 -0.938658 0.298818
vn 0.035058 -0.908359 0.416719
vn -0.196592 -0.880315 0.431738
vn -0.312000 -0.877536 0.364125
vn -0.290091 -0.866585 0.406052
vn -0.167272 -0.970217 -0.175213
vn 0.248123 -0.861124 -0.443735
vn -0.249759 -0.810894 -0.529217
vn 0.220836 -0.975103 -0.020123
vn 0.268565 0.868888 0.415820
vn 0.404370 0.882356 0.240692
vn -0.507104 0.799308 0.322416
vn -0.453776 0.816702 0.356489
vn -0.530029 0.840127 0.115135
vn -0.483449 0.874162 -0.046014
vn 0.203639 0.887500 -0.413369
vn 0.077402 0.893846 -0.441642
vn 0.344657 0.923415 -0.168870
vn 0.924196 0.249348 0.289287
vn 0.679875 0.455599 0.574630
vn 0.629144 0.457612 0.628307
vn 0.372103 0.183388 0.909895
vn -0.183588 0.106568 0.977210
vn -0.558742 0.375374 0.739528
vn -0.714812 0.385157 0.583694
vn -0.475643 0.545823 0.689812
vn -0.832686 0.505980 -0.224983
vn -0.952662 0.296165 0.068716
vn -0.848665 0.354737 -0.392339
vn -0.853682 0.366420 -0.370086
vn -0.212735 0.371317 -0.903807
vn 0.156972 0.564207 -0.810574
vn 0.267536 0.553034 -0.789036
vn 0.449092 0.445323 -0.774599
vn 0.900906 0.383092 -0.203980
vn 0.895761 0.275499 -0.348873
vn 0.901434 -0.328330 0.282162
vn 0.854715 -0.387703 0.345180
vn 0.589554 -0.361767 0.722184
vn 0.374477 -0.145806 0.915701
vn -0.184013 -0.082283 0.979474
vn -0.546206 -0.348514 0.761707
vn -0.833795 -0.270032 0.481528
vn -0.480150 -0.533435 0.696349
vn -0.798624 -0.561818 -0.215779
vn -0.939506 -0.332516 0.082227
vn -0.869162 -0.413566 -0.271146
vn -0.850609 -0.374813 -0.368754
vn -0.201937 -0.472412 -0.857933
vn 0.093658 -0.636749 -0.765362
vn -0.087145 -0.617474 -0.781749
vn 0.466054 -0.369610 -0.803854
vn 0.909080 -0.362227 -0.205830
vn 0.897926 -0.219256 -0.381648
vn 0.187858 -0.975402 0.115329
vn 0.238436 -0.969177 0.062000
vn -0.376739 -0.915155 0.143381
vn -0.380594 -0.914094 0.139934
vn -0.401445 -0.912436 0.079390
vn -0.397636 -0.915293 0.064221
vn 0.182935 -0.920785 -0.344513
vn -0.224052 -0.903654 -0.364981
vn 0.174280 -0.984628 -0.011624
vn 0.295830 0.884892 0.359794
vn 0.214355 0.876718 0.430602
vn -0.066335 0.883536 0.463642
vn -0.465257 0.846976 0.257229
vn -0.511512 0.852201 0.110041
vn -0.389673 0.890108 -0.236352
vn -0.118786 0.895612 -0.428683
vn 0.015137 0.909472 -0.415491
vn 0.302779 0.952941 -0.015096
vn 0.863559 0.403275 0.302714
vn 0.634103 0.585661 0.504891
vn 0.366719 0.532658 0.762753
vn 0.274954 0.438322 0.855730
vn 0.017976 0.448620 0.893542
vn -0.127722 0.540603 0.831526
vn -0.714205 0.514804 0.474224
vn -0.723503 0.506451 0.469096
vn -0.832465 0.547145 0.087372
vn -0.833703 0.544412 0.092492
vn -0.719013 0.482139 -0.500562
vn -0.704179 0.445374 -0.552968
vn -0.093413 0.540606 -0.836074
vn -0.223613 0.431554 -0.873933
vn 0.245760 0.547421 -0.799958
vn 0.747647 0.207922 -0.630708
vn 0.782211 0.206336 -0.587853
vn 0.874518 0.442088 -0.199438
vn 0.828511 -0.478770 0.290428
vn 0.842178 -0.464285 0.274181
vn 0.334131 -0.432266 0.837558
vn 0.283117 -0.378748 0.881133
vn 0.018562 -0.385209 0.922643
vn 0.041854 -0.369177 0.928416
vn -0.767838 -0.303916 0.563968
vn -0.812064 -0.251658 0.526517
vn -0.952159 -0.288801 0.099935
vn -0.671661 -0.549195 -0.497248
vn -0.696868 -0.566444 -0.439905
vn -0.678739 -0.505207 -0.532991
vn -0.091668 -0.564313 -0.820456
vn -0.058354 -0.587724 -0.806955
vn 0.100191 -0.628377 -0.771430
vn 0.715152 -0.352977 -0.603295
vn 0.745493 -0.361041 -0.560259
vn 0.779879 -0.526293 -0.338827
vn 0.312814 -0.947861 0.060885
vn 0.079935 -0.949412 0.303689
vn 0.179804 -0.939531 0.291466
vn -0.152040 -0.983515 0.097891
vn -0.280026 -0.850278 -0.445660
vn -0.408970 -0.891483 -0.194938
vn 0.015977 -0.891646 -0.452451
vn -0.035985 -0.888797 -0.456887
vn 0.311716 -0.939381 -0.142815
vn 0.552685 0.805980 -0.211981
vn 0.130134 0.960162 0.247292
vn -0.334822 0.871055 0.359386
vn -0.336812 0.870896 0.357908
vn -0.391957 0.901630 0.182846
vn -0.279108 0.942713 -0.182731
vn 0.104420 0.922160 -0.372447
vn 0.310192 0.889776 -0.334784
vn 0.552909 0.831522 -0.053499
vn 0.912182 0.409785 0.000871
vn 0.919789 0.391895 -0.020157
vn 0.465284 0.313806 0.827670
vn 0.393997 0.249108 0.884710
vn 0.057954 0.257773 0.964466
vn -0.398302 0.560798 0.725852
vn -0.662617 0.477710 0.576830
vn -0.780695 0.357143 0.512801
vn -0.961471 0.252594 0.108487
vn -0.963207 0.233795 0.132563
vn -0.742437 0.319756 -0.588679
vn -0.746415 0.325759 -0.580298
vn -0.084279 0.298759 -0.950600
vn -0.000586 0.350303 -0.936636
vn 0.515643 0.355234 -0.779693
vn 0.553569 0.327757 -0.765596
vn 0.888422 0.307159 -0.341116
vn 0.889113 0.419261 -0.183573
vn 0.947799 -0.318868 0.000905
vn 0.959791 -0.277895 -0.039685
vn 0.155518 -0.275140 0.948742
vn 0.355306 -0.487060 0.797828
vn 0.052540 -0.482407 0.874370
vn -0.087117 -0.574167 0.814090
vn -0.317173 -0.581680 0.749032
vn -0.825434 -0.157134 0.542188
vn -0.991577 -0.065245 0.111884
vn -0.976184 -0.203364 -0.075556
vn -0.535783 -0.176436 -0.825716
vn -0.721279 -0.406582 -0.560756
vn -0.080785 -0.403978 -0.911195
vn -0.283091 -0.261918 -0.922636
vn 0.499362 -0.294194 -0.814916
vn 0.568532 -0.241906 -0.786290
vn 0.912143 -0.212928 -0.350224
vn 0.924657 -0.293096 -0.243115
vn 0.324157 -0.916916 -0.232784
vn -0.191806 -0.879417 0.435702
vn -0.043810 -0.910288 0.411650
vn 0.016973 -0.899382 0.436835
vn -0.113783 -0.993467 -0.008734
vn 0.031938 -0.945556 -0.323889
vn -0.156357 -0.962027 -0.223735
vn 0.171543 -0.969059 -0.177474
vn 0.350930 -0.936163 0.021135
vn 0.141170 0.940101 0.310292
vn -0.011559 0.891126 0.453609
vn 0.195069 0.892314 0.407092
vn -0.272137 0.959782 0.068994
vn -0.243390 0.960498 0.134927
vn 0.017940 0.894162 -0.447383
vn -0.241440 0.925327 -0.292366
vn 0.091665 0.958255 -0.270822
vn 0.156419 0.971275 -0.179324
vn 0.933485 0.123755 0.336587
vn 0.782971 0.268689 0.561037
vn 0.316006 0.131529 0.939596
vn 0.511059 0.347808 0.786033
vn -0.089890 0.387369 0.917532
vn 0.051609 0.277166 0.959435
vn -0.840310 0.095324 0.533660
vn -0.519799 0.377094 0.766557
vn -0.893816 0.445304 -0.052883
vn -0.939331 0.314128 0.137773
vn -0.514237 0.141705 -0.845860
vn -0.663392 0.359584 -0.656209
vn -0.381408 0.375561 -0.844679
vn -0.377588 0.378671 -0.845006
vn 0.408659 0.429330 -0.805403
vn 0.492700 0.361923 -0.791365
vn 0.930595 0.339430 -0.137043
vn 0.895076 0.212998 -0.391754
vn 0.926190 -0.175054 0.333957
vn 0.690773 -0.344991 0.635464
vn 0.637436 -0.335846 0.693458
vn 0.533292 -0.206944 0.820228
vn -0.095458 -0.203741 0.974360
vn -0.088115 -0.198693 0.976093
vn -0.792387 -0.089506 0.603417
vn -0.527684 -0.340556 0.778185
vn -0.956435 -0.286407 -0.056588
vn -0.904974 -0.369152 -0.211541
vn -0.635073 -0.258502 -0.727914
vn -0.672101 -0.326022 -0.664823
vn -0.392620 -0.299667 -0.869511
vn -0.285020 -0.374277 -0.882429
vn 0.740849 -0.195140 -0.642700
vn 0.469900 -0.457772 -0.754744
vn 0.858596 -0.496815 -0.126440
vn 0.836550 -0.321767 -0.443453
vn 0.122128 -0.906771 0.403548
vn 0.319801 -0.934165 0.158315
vn 0.089435 -0.974890 0.203938
vn -0.077351 -0.992655 0.093016
vn -0.143673 -0.978109 -0.150538
vn -0.107983 -0.967020 -0.230676
vn -0.204921 -0.961564 -0.182760
vn 0.369600 -0.928694 -0.030380
vn 0.195831 -0.948517 -0.248931
vn 0.115124 0.893163 0.434749
vn 0.118232 0.894305 0.431555
vn 0.036171 0.891581 0.451415
vn -0.341061 0.899444 0.273273
vn -0.263199 0.842501 0.470019
vn -0.011934 0.884058 -0.467224
vn -0.563866 0.805561 -0.182004
vn 0.242441 0.965054 -0.099466
vn 0.177899 0.968639 -0.173465
vn 0.919656 0.294346 0.259987
vn 0.572710 0.504116 0.646429
vn 0.372938 0.437094 0.818453
vn 0.390278 0.458143 0.798616
vn -0.047814 0.532142 0.845304
vn -0.004694 0.498727 0.866746
vn -0.658197 0.530105 0.534570
vn -0.624891 0.554651 0.549430
vn -0.795992 0.596834 -0.100924
vn -0.856420 0.243351 0.455329
vn -0.486300 0.244050 -0.839019
vn -0.646517 0.634175 -0.424073
vn 0.041644 0.552120 -0.832724
vn -0.566407 0.016033 -0.823970
vn 0.592010 0.270418 -0.759209
vn 0.422692 0.372209 -0.826312
vn 0.867605 0.474308 -0.149312
vn 0.868553 0.288455 -0.403001
vn 0.841658 -0.484767 0.237936
vn 0.735953 -0.571786 0.362540
vn 0.620556 -0.530684 0.577308
vn 0.422119 -0.275164 0.863771
vn -0.053245 -0.333262 0.941330
vn -0.055241 -0.334788 0.940673
vn -0.752085 -0.331568 0.569589
vn -0.694441 -0.380712 0.610582
vn -0.843655 -0.526122 -0.106967
vn -0.734763 -0.615257 -0.285624
vn -0.766779 -0.623741 -0.151648
vn -0.754163 -0.431890 -0.494681
vn 0.046791 -0.349864 -0.935631
vn 0.256247 -0.486258 -0.835398
vn 0.502433 -0.474621 -0.722700
vn 0.384397 -0.536250 -0.751449
vn 0.788573 -0.599779 -0.135711
vn 0.789609 -0.323248 -0.521564
vn 0.354352 -0.909241 0.218439
vn 0.396090 -0.901508 0.174343
vn 0.044529 -0.964666 0.259686
vn -0.255356 -0.961579 0.100790
vn -0.403985 -0.869316 -0.284755
vn -0.519967 -0.852920 0.046500
vn 0.287089 -0.891530 -0.350363
vn 0.266777 -0.894977 -0.357557
vn 0.295197 -0.898242 -0.325607
vn 0.297503 0.947184 0.119729
vn 0.187885 0.941824 0.278689
vn 0.074034 0.954479 0.288943
vn -0.423168 0.905945 -0.013873
vn -0.441796 0.893718 -0.077996
vn -0.484132 0.874302 0.034819
vn 0.180112 0.943489 -0.278186
vn 0.391361 0.893169 -0.221553
vn 0.278125 0.900587 -0.334049
vn 0.714912 0.414847 0.562853
vn 0.933396 0.184619 0.307713
vn 0.494215 0.280284 0.822917
vn 0.645995 0.447320 0.618543
vn -0.322595 0.448424 0.833576
vn -0.091137 0.263162 0.960437
vn -0.866255 0.340382 0.365707
vn -0.776241 0.430613 0.460458
vn -0.911543 0.388753 -0.134018
vn -0.926422 0.364970 -0.092407
vn -0.871416 0.321447 -0.370549
vn -0.817574 0.173899 -0.548937
vn -0.171924 0.217655 -0.960765
vn 0.112367 0.372906 -0.921040
vn 0.630075 0.299473 -0.716464
vn 0.368748 0.483733 -0.793743
vn 0.757411 0.639427 -0.132140
vn 0.779976 0.318631 -0.538621
vn 0.744652 -0.319037 0.586267
vn 0.887007 -0.182525 0.424150
vn 0.460707 -0.193289 0.866250
vn 0.662246 -0.399179 0.634103
vn -0.325716 -0.430754 0.841641
vn -0.291563 -0.403348 0.867353
vn -0.575082 -0.477234 0.664476
vn -0.820692 -0.299106 0.486826
vn -0.958812 -0.246592 -0.140968
vn -0.984003 -0.176909 -0.021015
vn -0.624444 0.010076 -0.781004
vn -0.805903 -0.240269 -0.541101
vn -0.162970 -0.379490 -0.910730
vn -0.264776 -0.307554 -0.913950
vn 0.672901 -0.191459 -0.714526
vn 0.380878 -0.427520 -0.819853
vn 0.817766 -0.557588 -0.142669
vn 0.823931 -0.297380 -0.482393
vn 0.184465 -0.971204 0.150782
vn 0.123851 -0.967465 0.220616
vn -0.187477 -0.950690 0.247067
vn -0.148588 -0.952857 0.264547
vn -0.231607 -0.972222 0.033816
vn -0.054503 -0.948526 -0.311973
vn -0.167351 -0.954751 -0.245854
vn 0.331228 -0.936395 -0.115983
vn 0.199508 -0.943258 -0.265444
vn 0.295440 0.908531 0.295443
vn 0.264140 0.904438 0.334996
vn -0.118745 0.898189 0.423268
vn -0.527561 0.824404 0.205030
vn -0.434550 0.808014 0.397844
vn -0.126258 0.927080 -0.352962
vn 0.012144 0.899217 -0.437335
vn 0.097996 0.901075 -0.422446
vn 0.289336 0.935254 -0.203925
vn 0.971376 0.219622 0.090529
vn 0.727141 0.528694 0.437891
vn 0.495131 0.538367 0.681913
vn 0.353112 0.406673 0.842573
vn -0.141873 0.485200 0.862817
vn -0.157979 0.497443 0.852991
vn -0.745027 0.514495 0.424534
vn -0.654024 0.584351 0.480404
vn -0.736160 0.639334 -0.222082
vn -0.895737 0.271946 0.351710
vn -0.651037 0.103892 -0.751902
vn -0.785733 0.294489 -0.543967
vn -0.169321 0.302795 -0.937894
vn -0.101759 0.360614 -0.927147
vn 0.350890 0.415048 -0.839412
vn 0.653522 0.210403 -0.727076
vn 0.866194 0.183269 -0.464887
vn 0.883590 0.220610 -0.413037
vn 0.969365 -0.228406 0.090342
vn 0.854708 -0.427132 0.295012
vn 0.050529 -0.225215 0.972998
vn 0.336209 -0.493333 0.802238
vn -0.131712 -0.583966 0.801021
vn 0.054501 -0.426640 0.902778
vn -0.593358 -0.523981 0.611040
vn -0.726989 -0.431661 0.533999
vn -0.810711 -0.531913 -0.244572
vn -0.944386 -0.308955 0.112616
vn -0.702333 -0.246226 -0.667908
vn -0.764700 -0.367373 -0.529406
vn -0.168657 -0.314304 -0.934220
vn -0.440258 -0.059512 -0.895897
vn 0.447324 -0.290155 -0.845997
vn 0.662075 -0.138172 -0.736591
vn 0.874080 -0.126136 -0.469120
vn 0.908966 -0.204194 -0.363437
vn 0.140279 -0.989716 0.027991
vn -0.282491 -0.868926 0.406406
vn 0.088978 -0.944057 0.317553
vn -0.181481 -0.963044 0.199022
vn -0.236700 -0.968221 0.080759
vn -0.138272 -0.969654 -0.201624
vn -0.284731 -0.951962 -0.112681
vn 0.078660 -0.992237 -0.096325
vn 0.134778 -0.990371 -0.031614
f 1//1 3//1 2//1
f 1//2 4//2 3//2
f 1//3 5//3 4//3
f 1//4 6//4 5//4
f 1//5 7//5 6//5
f 1//6 8//6 7//6
f 1//7 9//7 8//7
f 1//8 10//8 9//8
f 1//9 2//9 10//9
f 2//10 12//10 11//10
f 2//11 3//11 12//11
f 3//12 4//12 12//12
f 4//13 13//13 12//13
f 4//14 14//14 13//14
f 4//15 5//15 14//15
f 5//16 6//16 14//16
f 6//17 15//17 14//17
f 6//18 16//18 15//18
f 6//19 7//19 16//19
f 7//20 8//20 16//20
f 8//21 17//21 16//21
f 8//22 18//22 17//22
f 8//23 9//23 18//23
f 9//24 10//24 18//24
f 10//25 19//25 18//25
f 10//26 11//26 19//26
f 10//27 2//27 11//27
f 11//28 12//28 20//28
f 12//29 21//29 20//29
f 12//30 22//30 21//30
f 12//31 13//31 22//31
f 13//32 14//32 22//32
f 14//33 23//33 22//33
f 14//34 24//34 23//34
f 14//35 15//35 24//35
f 15//36 16//36 24//36
f 16//37 25//37 24//37
f 16//38 26//38 25//38
f 16//39 17//39 26//39
f 17//40 18//40 26//40
f 18//41 27//41 26//41
f 18//42 28//42 27//42
f 18//43 19//43 28//43
f 19//44 11//44 28//44
f 11//45 20//45 28//45
f 20//46 21//46 29//46
f 21//47 22//47 29//47
f 22//48 23//48 29//48
f 23//49 24//49 29//49
f 24//50 25//50 29//50
f 25//51 26//51 29//51
f 26//52 27//52 29//52
f 27//53 28//53 29//53
f 28//54 20//54 29//54
f 30//55 32//55 31//55
f 30//56 33//56 32//56
f 30//57 34//57 33//57
f 30//58 35//58 34//58
f 30//59 36//59 35//59
f 30//60 37//60 36//60
f 30//61 38//61 37//61
f 30//62 39//62 38//62
f 30//63 31//63 39//63
f 31//64 41//64 40//64
f 31//65 32//65 41//65
f 32//66 33//66 41//66
f 33//67 42//67 41//67
f 33//68 43//68 42//68
f 33//69 34//69 43//69
f 34//70 35//70 43//70
f 35//71 44//71 43//71
f 35//72 45//72 44//72
f 35//73 36//73 45//73
f 36//74 37//74 45//74
f 37//75 46//75 45//75
f 37//76 47//76 46//76
f 37//77 38//77 47//77
f 38//78 39//78 47//78
f 39//79 48//79 47//79
f 39//80 40//80 48//80
f 39//81 31//81 40//81
f 40//82 41//82 49//82
f 41//83 50//83 49//83
f 41//84 51//84 50//84
f 41//85 42//85 51//85
f 42//86 43//86 51//86
f 43//87 52//87 51//87
f 43//88 53//88 52//88
f 43//89 44//89 53//89
f 44//90 45//90 53//90
f 45//91 54//91 53//91
f 45//92 55//92 54//92
f 45//93 46//93 55//93
f 46//94 47//94 55//94
f 47//95 56//95 55//95
f 47//96 57//96 56//96
f 47//97 48//97 57//97
f 48//98 40//98 57//98
f 40//99 49//99 57//99
f 49//100 50//100 58//100
f 50//101 51//101 58//101
f 51//102 52//102 58//102
f 52//103 53//103 58//103
f 53//104 54//104 58//104
f 54//105 55//105 58//105
f 55//106 56//106 58//106
f 56//107 57//107 58//107
f 57//108 49//108 58//108
f 59//109 61//109 60//109
f 59//110 62//110 61//110
f 59//111 63//111 62//111
f 59//112 64//112 63//112
f 59//113 65//113 64//113
f 59//114 66//114 65//114
f 59//115 67//115 66//115
f 59//116 68//116 67//116
f 59//117 60//117 68//117
f 60//118 70//118 69//118
f 60//119 61//119 70//119
f 61//120 62//120 70//120
f 62//121 71//121 70//121
f 62//122 72//122 71//122
f 62//123 63//123 72//123
f 63//124 64//124 72//124
f 64//125 73//125 72//125
f 64//126 74//126 73//126
f 64//127 65//127 74//127
f 65//128 66//128 74//128
f 66//129 75//129 74//129
f 66//130 76//130 75//130
f 66//131 67//131 76//131
f 67//132 68//132 76//132
f 68//133 77//133 76//133
f 68//134 69//134 77//134
f 68//135 60//135 69//135
f 69//136 70//136 78//136
f 70//137 79//137 78//137
f 70//138 80//138 79//138
f 70//139 71//139 80//139
f 71//140 72//140 80//140
f 72//141 81//141 80//141
f 72//142 82//142 81//142
f 72//143 73//143 82//143
f 73//144 74//144 82//144
f 74//145 83//145 82//145
f 74//146 84//146 83//146
f 74//147 75//147 84//147
f 75//148 76//148 84//148
f 76//149 85//149 84//149
f 76//150 86//150 85//150
f 76//151 77//151 86//151
f 77//152 69//152 86//152
f 69//153 78//153 86//153
f 78//154 79//154 87//154
f 79//155 80//155 87//155
f 80//156 81//156 87//156
f 81//157 82//157 87//157
f 82//158 83//158 87//158
f 83//159 84//159 87//159
f 84//160 85//160 87//160
f 85//161 86//161 87//161
f 86//162 78//162 87//162
f 88//163 90//163 89//163
f 88//164 91//164 90//164
f 88//165 92//165 91//165
f 88//166 93//166 92//166
f 88//167 94//167 93//167
f 88//168 95//168 94//168
f 88//169 96//169 95//169
f 88//170 97//170 96//170
f 88//171 89//171 97//171
f 89//172 99//172 98//172
f 89//173 90//173 99//173
f 90//174 91//174 99//174
f 91//175 100//175 99//175
f 91//176 101//176 100//176
f 91//177 92//177 101//177
f 92//178 93//178 101//178
f 93//179 102//179 101//179
f 93//180 103//180 102//180
f 93//181 94//181 103//181
f 94//182 95//182 103//182
f 95//183 104//183 103//183
f 95//184 105//184 104//184
f 95//185 96//185 105//185
f 96//186 97//186 105//186
f 97//187 106//187 105//187
f 97//188 98//188 106//188
f 97//189 89//189 98//189
f 98//190 99//190 107//190
f 99//191 108//191 107//191
f 99//192 109//192 108//192
f 99//193 100//193 109//193
f 100//194 101//194 109//194
f 101//195 110//195 109//195
f 101//196 111//196 110//196
f 101//197 102//197 111//197
f 102//198 103//198 111//198
f 103//199 112//199 111//199
f 103//200 113//200 112//200
f 103//201 104//201 113//201
f 104//202 105//202 113//202
f 105//203 114//203 113//203
f 105//204 115//204 114//204
f 105//205 106//205 115//205
f 106//206 98//206 115//206
f 98//207 107//207 115//207
f 107//208 108//208 116//208
f 108//209 109//209 116//209
f 109//210 110//210 116//210
f 110//211 111//211 116//211
f 111//212 112//212 116//212
f 112//213 113//213 116//213
f 113//214 114//214 116//214
f 114//215 115//215 116//215
f 115//216 107//216 116//216
f 117//217 119//217 118//217
f 117//218 120//218 119//218
f 117//219 121//219 120//219
f 117//220 122//220 121//220
f 117//221 123//221 122//221
f 117//222 124//222 123//222
f 117//223 125//223 124//223
f 117//224 126//224 125//224
f 117//225 118//225 126//225
f 118//226 128//226 127//226
f 118//227 119//227 128//227
f 119//228 120//228 128//228
f 120//229 129//229 128//229
f 120//230 130//230 129//230
f 120//231 121//231 130//231
f 121//232 122//232 130//232
f 122//233 131//233 130//233
f 122//234 132//234 131//234
f 122//235 123//235 132//235
f 123//236 124//236 132//236
f 124//237 133//237 132//237
f 124//238 134//238 133//238
f 124//239 125//239 134//239
f 125//240 126//240 134//240
f 126//241 135//241 134//241
f 126//242 127//242 135//242
f 126//243 118//243 127//243
f 127//244 128//244 136//244
f 128//245 137//245 136//245
f 128//246 138//246 137//246
f 128//247 129//247 138//247
f 129//248 130//248 138//248
f 130//249 139//249 138//249
f 130//250 140//250 139//250
f 130//251 131//251 140//251
f 131//252 132//252 140//252
f 132//253 141//253 140//253
f 132//254 142//254 141//254
f 132//255 133//255 142//255
f 133//256 134//256 142//256
f 134//257 143//257 142//257
f 134//258 144//258 143//258
f 134//259 135//259 144//259
f 135//260 127//260 144//260
f 127//261 136//261 144//261
f 136//262 137//262 145//262
f 137//263 138//263 145//263
f 138//264 139//264 145//264
f 139//265 140//265 145//265
f 140//266 141//266 145//266
f 141//267 142//267 145//267
f 142//268 143//268 145//268
f 143//269 144//269 145//269
f 144//270 136//270 145//270
f 146//271 148//271 147//271
f 146//272 149//272 148//272
f 146//273 150//273 149//273
f 146//274 151//274 150//274
f 146//275 152//275 151//275
f 146//276 153//276 152//276
f 146//277 154//277 153//277
f 146//278 155//278 154//278
f 146//279 147//279 155//279
f 147//280 157//280 156//280
f 147//281 148//281 157//281
f 148//282 149//282 157//282
f 149//283 158//283 157//283
f 149//284 159//284 158//284
f 149//285 150//285 159//285
f 150//286 151//286 159//286
f 151//287 160//287 159//287
f 151//288 161//288 160//288
f 151//289 152//289 161//289
f 152//290 153//290 161//290
f 153//291 162//291 161//291
f 153//292 163//292 162//292
f 153//293 154//293 163//293
f 154//294 155//294 163//294
f 155//295 164//295 163//295
f 155//296 156//296 164//296
f 155//297 147//297 156//297
f 156//298 157//298 165//298
f 157//299 166//299 165//299
f 157//300 167//300 166//300
f 157//301 158//301 167//301
f 158//302 159//302 167//302
f 159//303 168//303 167//303
f 159//304 169//304 168//304
f 159//305 160//305 169//305
f 160//306 161//306 169//306
f 161//307 170//307 169//307
f 161//308 171//308 170//308
f 161//309 162//309 171//309
f 162//310 163//310 171//310
f 163//311 172//311 171//311
f 163//312 173//312 172//312
f 163//313 164//313 173//313
f 164//314 156//314 173//314
f 156//315 165//315 173//315
f 165//316 166//316 174//316
f 166//317 167//317 174//317
f 167//318 168//318 174//318
f 168//319 169//319 174//319
f 169//320 170//320 174//320
f 170//321 171//321 174//321
f 171//322 172//322 174//322
f 172//323 173//323 174//323
f 173//324 165//324 174//324
f 175//325 177//325 176//325
f 175//326 178//326 177//326
f 175//327 179//327 178//327
f 175//328 180//328 179//328
f 175//329 181//329 180//329
f 175//330 182//330 181//330
f 175//331 183//331 182//331
f 175//332 184//332 183//332
f 175//333 176//333 184//333
f 176//334 186//334 185//334
f 176//335 177//335 186//335
f 177//336 178//336 186//336
f 178//337 187//337 186//337
f 178//338 188//338 187//338
f 178//339 179//339 188//339
f 179//340 180//340 188//340
f 180//341 189//341 188//341
f 180//342 190//342 189//342
f 180//343 181//343 190//343
f 181//344 182//344 190//344
f 182//345 191//345 190//345
f 182//346 192//346 191//346
f 182//347 183//347 192//347
f 183//348 184//348 192//348
f 184//349 193//349 192//349
f 184//350 185//350 193//350
f 184//351 176//351 185//351
f 185//352 186//352 194//352
f 186//353 195//353 194//353
f 186//354 196//354 195//354
f 186//355 187//355 196//355
f 187//356 188//356 196//356
f 188//357 197//357 196//357
f 188//358 198//358 197//358
f 188//359 189//359 198//359
f 189//360 190//360 198//360
f 190//361 199//361 198//361
f 190//362 200//362 199//362
f 190//363 191//363 200//363
f 191//364 192//364 200//364
f 192//365 201//365 200//365
f 192//366 202//366 201//366
f 192//367 193//367 202//367
f 193//368 185//368 202//368
f 185//369 194//369 202//369
f 194//370 195//370 203//370
f 195//371 196//371 203//371
f 196//372 197//372 203//372
f 197//373 198//373 203//373
f 198//374 199//374 203//374
f 199//375 200//375 203//375
f 200//376 201//376 203//376
f 201//377 202//377 203//377
f 202//378 194//378 203//378
f 204//379 206//379 205//379
f 204//380 207//380 206//380
f 204//381 208//381 207//381
f 204//382 209//382 208//382
f 204//383 210//383 209//383
f 204//384 211//384 210//384
f 204//385 212//385 211//385
f 204//386 213//386 212//386
f 204//387 205//387 213//387
f 205//388 215//388 214//388
f 205//389 206//389 215//389
f 206//390 207//390 215//390
f 207//391 216//391 215//391
f 207//392 217//392 216//392
f 207//393 208//393 217//393
f 208//394 209//394 217//394
f 209//395 218//395 217//395
f 209//396 219//396 218//396
f 209//397 210//397 219//397
f 210//398 211//398 219//398
f 211//399 220//399 219//399
f 211//400 221//400 220//400
f 211//401 212//401 221//401
f 212//402 213//402 221//402
f 213//403 222//403 221//403
f 213//404 214//404 222//404
f 213//405 205//405 214//405
f 214//406 215//406 223//406
f 215//407 224//407 223//407
f 215//408 225//408 224//408
f 215//409 216//409 225//409
f 216//410 217//410 225//410
f 217//411 226//411 225//411
f 217//412 227//412 226//412
f 217//413 218//413 227//413
f 218//414 219//414 227//414
f 219//415 228//415 227//415
f 219//416 229//416 228//416
f 219//417 220//417 229//417
f 220//418 221//418 229//418
f 221//419 230//419 229//419
f 221//420 231//420 230//420
f 221//421 222//421 231//421
f 222//422 214//422 231//422
f 214//423 223//423 231//423
f 223//424 224//424 232//424
f 224//425 225//425 232//425
f 225//426 226//426 232//426
f 226//427 227//427 232//427
f 227//428 228//428 232//428
f 228//429 229//429 232//429
f 229//430 230//430 232//430
f 230//431 231//431 232//431
f 231//432 223//432 232//432
f 233//433 235//433 234//433
f 233//434 236//434 235//434
f 233//435 237//435 236//435
f 233//436 238//436 237//436
f 233//437 239//437 238//437
f 233//438 240//438 239//438
f 233//439 241//439 240//439
f 233//440 242//440 241//440
f 233//441 234//441 242//441
f 234//442 244//442 243//442
f 234//443 235//443 244//443
f 235//444 236//444 244//444
f 236//445 245//445 244//445
f 236//446 246//446 245//446
f 236//447 237//447 246//447
f 237//448 238//448 246//448
f 238//449 247//449 246//449
f 238//450 248//450 247//450
f 238//451 239//451 248//451
f 239//452 240//452 248//452
f 240//453 249//453 248//453
f 240//454 250//454 249//454
f 240//455 241//455 250//455
f 241//456 242//456 250//456
f 242//457 251//457 250//457
f 242//458 243//458 251//458
f 242//459 234//459 243//459
f 243//460 244//460 252//460
f 244//461 253//461 252//461
f 244//462 254//462 253//462
f 244//463 245//463 254//463
f 245//464 246//464 254//464
f 246//465 255//465 254//465
f 246//466 256//466 255//466
f 246//467 247//467 256//467
f 247//468 248//468 256//468
f 248//469 257//469 256//469
f 248//470 258//470 257//470
f 248//471 249//471 258//471
f 249//472 250//472 258//472
f 250//473 259//473 258//473
f 250//474 260//474 259//474
f 250//475 251//475 260//475
f 251//476 243//476 260//476
f 243//477 252//477 260//477
f 252//478 253//478 261//478
f 253//479 254//479 261//479
f 254//480 255//480 261//480
f 255//481 256//481 261//481
f 256//482 257//482 261//482
f 257//483 258//483 261//483
f 258//484 259//484 261//484
f 259//485 260//485 261//485
f 260//486 252//486 261//486
f 262//487 264//487 263//487
f 262//488 265//488 264//488
f 262//489 266//489 265//489
f 262//490 267//490 266//490
f 262//491 268//491 267//491
f 262//492 269//492 268//492
f 262//493 270//493 269//493
f 262//494 271//494 270//494
f 262//495 263//495 271//495
f 263//496 273//496 272//496
f 263//497 264//497 273//497
f 264//498 265//498 273//498
f 265//499 274//499 273//499
f 265//500 275//500 274//500
f 265//501 266//501 275//501
f 266//502 267//502 275//502
f 267//503 276//503 275//503
f 267//504 277//504 276//504
f 267//505 268//505 277//505
f 268//506 269//506 277//506
f 269//507 278//507 277//507
f 269//508 279//508 278//508
f 269//509 270//509 279//509
f 270//510 271//510 279//510
f 271//511 280//511 279//511
f 271//512 272//512 280//512
f 271//513 263//513 272//513
f 272//514 273//514 281//514
f 273//515 282//515 281//515
f 273//516 283//516 282//516
f 273//517 274//517 283//517
f 274//518 275//518 283//518
f 275//519 284//519 283//519
f 275//520 285//520 284//520
f 275//521 276//521 285//521
f 276//522 277//522 285//522
f 277//523 286//523 285//523
f 277//524 287//524 286//524
f 277//525 278//525 287//525
f 278//526 279//526 287//526
f 279//527 288//527 287//527
f 279//528 289//528 288//528
f 279//529 280//529 289//529
f 280//530 272//530 289//530
f 272//531 281//531 289//531
f 281//532 282//532 290//532
f 282//533 283//533 290//533
f 283//534 284//534 290//534
f 284//535 285//535 290//535
f 285//536 286//536 290//536
f 286//537 287//537 290//537
f 287//538 288//538 290//538
f 288//539 289//539 290//539
f 289//540 281//540 290//540
f 291//541 293//541 292//541
f 291//542 294//542 293//542
f 291//543 295//543 294//543
f 291//544 296//544 295//544
f 291//545 297//545 296//545
f 291//546 298//546 297//546
f 291//547 299//547 298//547
f 291//548 300//548 299//548
f 291//549 292//549 300//549
f 292//550 302//550 301//550
f 292//551 293//551 302//551
f 293//552 294//552 302//552
f 294//553 303//553 302//553
f 294//554 304//554 303//554
f 294//555 295//555 304//555
f 295//556 296//556 304//556
f 296//557 305//557 304//557
f 296//558 306//558 305//558
f 296//559 297//559 306//559
f 297//560 298//560 306//560
f 298//561 307//561 306//561
f 298//562 308//562 307//562
f 298//563 299//563 308//563
f 299//564 300//564 308//564
f 300//565 309//565 308//565
f 300//566 301//566 309//566
f 300//567 292//567 301//567
f 301//568 302//568 310//568
f 302//569 311//569 310//569
f 302//570 312//570 311//570
f 302//571 303//571 312//571
f 303//572 304//572 312//572
f 304//573 313//573 312//573
f 304//574 314//574 313//574
f 304//575 305//575 314//575
f 305//576 306//576 314//576
f 306//577 315//577 314//577
f 306//578 316//578 315//578
f 306//579 307//579 316//579
f 307//580 308//580 316//580
f 308//581 317//581 316//581
f 308//582 318//582 317//582
f 308//583 309//583 318//583
f 309//584 301//584 318//584
f 301//585 310//585 318//585
f 310//586 311//586 319//586
f 311//587 312//587 319//587
f 312//588 313//588 319//588
f 313//589 314//589 319//589
f 314//590 315//590 319//590
f 315//591 316//591 319//591
f 316//592 317//592 319//592
f 317//593 318//593 319//593
f 318//594 310//594 319//594
