mtllib WhiteMaterial.mtl
usemtl WhiteMaterial
v 0.000000 0.010906 -0.479876
v -0.372278 0.054156 -0.298122
v -0.464223 0.056626 0.108125
v -0.206598 0.016455 0.432951
v 0.206598 -0.036107 0.431756
v 0.464223 -0.061479 0.105440
v 0.372278 -0.040556 -0.300274
v 0.280000 2.208180 -0.309907
v 0.000792 2.240617 -0.173591
v -0.068167 2.242469 0.131093
v 0.125051 2.212341 0.374713
v 0.434949 2.172920 0.373817
v 0.628167 2.153891 0.129080
v 0.559208 2.169583 -0.175206
v 0.280000 2.212915 -0.309768
v 0.002482 2.161148 -0.175996
v -0.066060 2.138638 0.127956
v 0.125989 2.162334 0.373206
v 0.434011 2.214394 0.375074
v 0.626060 2.255615 0.132156
v 0.557518 2.254956 -0.172628
v -0.050000 4.158251 -0.109852
v -0.227303 4.125178 -0.024386
v -0.271094 4.110796 0.169805
v -0.148396 4.125936 0.326492
v 0.048396 4.159196 0.327686
v 0.171094 4.185532 0.172488
v 0.127303 4.185111 -0.022235
v -0.058329 4.150000 -0.129861
v -0.150023 3.979117 -0.032625
v -0.166398 3.936912 0.179541
v -0.095123 4.055167 0.346871
v 0.010130 4.244833 0.343363
v 0.070104 4.363088 0.171658
v 0.039637 4.320883 -0.038947
v -1.853998 5.150000 0.060067
v -1.898011 5.067976 0.106740
v -1.905871 5.047718 0.208580
v -1.871659 5.104480 0.288898
v -1.821137 5.195520 0.287214
v -1.792350 5.252282 0.204796
v -1.806974 5.232024 0.103705
v -0.013315 4.150000 0.387496
v 0.090396 3.975388 0.270664
v 0.088386 3.932262 0.040378
v -0.017832 4.053098 -0.129950
v -0.148273 4.246902 -0.112061
v -0.204713 4.367738 0.080575
v -0.144651 4.324612 0.302899
v 1.717663 5.350000 0.008794
v 1.767598 5.265928 -0.047458
v 1.766630 5.245163 -0.158336
v 1.715488 5.303343 -0.240346
v 1.652683 5.396657 -0.231733
v 1.625509 5.454837 -0.138983
v 1.654427 5.434072 -0.031938
v 0.050000 3.561151 -0.139741
v -0.137186 3.569984 -0.048870
v -0.183417 3.563768 0.154103
v -0.053880 3.547185 0.316335
v 0.153880 3.532722 0.315663
v 0.283417 3.531269 0.152592
v 0.237186 3.543921 -0.050082
v 0.200000 5.705111 0.090119
v 0.114207 5.709159 0.131768
v 0.093017 5.706311 0.224797
v 0.152388 5.698710 0.299154
v 0.247612 5.692081 0.298845
v 0.306983 5.691415 0.224104
v 0.285793 5.697214 0.131212
v 0.126338 2.600000 0.247200
v 0.320552 2.508785 0.279206
v 0.484230 2.486256 0.138615
v 0.494118 2.549379 -0.068705
v 0.342772 2.650621 -0.186637
v 0.144156 2.713744 -0.126377
v 0.047834 2.691215 0.066699
v 0.988535 4.450000 0.728880
v 1.066221 4.413514 0.741682
v 1.131692 4.404503 0.685446
v 1.135647 4.429752 0.602518
v 1.075109 4.470248 0.555345
v 0.995663 4.495497 0.579449
v 0.957134 4.486486 0.656679
vn -0.126222 -0.991746 -0.022540
vn 0.126222 0.991746 0.022540
vn -0.423759 0.123412 -0.897328
vn -0.959839 0.176208 -0.218310
vn -0.768514 0.132671 0.625927
vn 0.006145 0.025584 0.999654
vn 0.780803 -0.064413 0.621447
vn 0.972128 -0.069551 -0.223895
vn 0.436048 0.014039 -0.899814
vn 0.166754 -0.985364 -0.035372
vn -0.166754 0.985364 0.035372
vn -0.436914 0.018304 -0.899317
vn -0.969450 -0.095998 -0.225721
vn -0.779390 -0.094173 0.619421
vn -0.009852 0.022406 0.999700
vn 0.759686 0.165951 0.628759
vn 0.949746 0.228371 -0.214077
vn 0.417209 0.162661 -0.894135
vn 0.873786 -0.485437 -0.029126
vn -0.873786 0.485437 0.029126
vn -0.289735 -0.351165 -0.890358
vn -0.529243 -0.823421 -0.204644
vn -0.407571 -0.654875 0.636416
vn -0.016340 0.027556 0.999487
vn 0.349845 0.709987 0.611169
vn 0.415238 0.878534 -0.236127
vn 0.130599 0.406277 -0.904369
vn -0.819504 -0.561945 0.112389
vn 0.819504 0.561945 -0.112389
vn 0.411662 -0.325138 0.851363
vn 0.620335 -0.771897 0.139139
vn 0.398270 -0.612451 -0.682851
vn -0.087313 0.033135 -0.995630
vn -0.470760 0.678721 -0.563670
vn -0.463328 0.838167 0.287755
vn -0.070613 0.391408 0.917504
vn -0.069523 -0.996503 -0.046349
vn 0.069523 0.996503 0.046349
vn -0.428429 0.125904 -0.894761
vn -0.967370 0.131948 -0.216297
vn -0.775024 0.079309 0.626935
vn 0.003769 0.007624 0.999964
vn 0.782562 -0.029125 0.621891
vn 0.974908 -0.003267 -0.222586
vn 0.435966 0.065728 -0.897560
vn -0.368114 -0.884429 -0.286842
vn 0.368114 0.884429 0.286842
vn -0.226830 -0.145038 0.963074
vn 0.565977 -0.397005 0.722535
vn 0.950465 -0.307079 -0.048162
vn 0.637105 0.057023 -0.768665
vn -0.138136 0.421125 -0.896422
vn -0.791485 0.511051 -0.335228
vn -0.830958 0.259085 0.492325
f 7//1 6//1 5//1 4//1 3//1 2//1 1//1
f 8//2 9//2 10//2 11//2 12//2 13//2 14//2
f 1//3 2//3 9//3 8//3
f 2//4 3//4 10//4 9//4
f 3//5 4//5 11//5 10//5
f 4//6 5//6 12//6 11//6
f 5//7 6//7 13//7 12//7
f 6//8 7//8 14//8 13//8
f 7//9 1//9 8//9 14//9
f 21//10 20//10 19//10 18//10 17//10 16//10 15//10
f 22//11 23//11 24//11 25//11 26//11 27//11 28//11
f 15//12 16//12 23//12 22//12
f 16//13 17//13 24//13 23//13
f 17//14 18//14 25//14 24//14
f 18//15 19//15 26//15 25//15
f 19//16 20//16 27//16 26//16
f 20//17 21//17 28//17 27//17
f 21//18 15//18 22//18 28//18
f 35//19 34//19 33//19 32//19 31//19 30//19 29//19
f 36//20 37//20 38//20 39//20 40//20 41//20 42//20
f 29//21 30//21 37//21 36//21
f 30//22 31//22 38//22 37//22
f 31//23 32//23 39//23 38//23
f 32//24 33//24 40//24 39//24
f 33//25 34//25 41//25 40//25
f 34//26 35//26 42//26 41//26
f 35//27 29//27 36//27 42//27
f 49//28 48//28 47//28 46//28 45//28 44//28 43//28
f 50//29 51//29 52//29 53//29 54//29 55//29 56//29
f 43//30 44//30 51//30 50//30
f 44//31 45//31 52//31 51//31
f 45//32 46//32 53//32 52//32
f 46//33 47//33 54//33 53//33
f 47//34 48//34 55//34 54//34
f 48//35 49//35 56//35 55//35
f 49//36 43//36 50//36 56//36
f 63//37 62//37 61//37 60//37 59//37 58//37 57//37
f 64//38 65//38 66//38 67//38 68//38 69//38 70//38
f 57//39 58//39 65//39 64//39
f 58//40 59//40 66//40 65//40
f 59//41 60//41 67//41 66//41
f 60//42 61//42 68//42 67//42
f 61//43 62//43 69//43 68//43
f 62//44 63//44 70//44 69//44
f 63//45 57//45 64//45 70//45
f 77//46 76//46 75//46 74//46 73//46 72//46 71//46
f 78//47 79//47 80//47 81//47 82//47 83//47 84//47
f 71//48 72//48 79//48 78//48
f 72//49 73//49 80//49 79//49
f 73//50 74//50 81//50 80//50
f 74//51 75//51 82//51 81//51
f 75//52 76//52 83//52 82//52
f 76//53 77//53 84//53 83//53
f 77//54 71//54 78//54 84//54
