# Blender 4.5.8 LTS
# www.blender.org
mtllib SwingingBridgeChain.mtl
o SwingingBridgeChain
v 0.000000 -0.500000 0.050000
v 0.000000 0.500000 0.050000
v -0.009755 -0.500000 0.049039
v -0.009755 0.500000 0.049039
v -0.019134 -0.500000 0.046194
v -0.019134 0.500000 0.046194
v -0.027779 -0.500000 0.041573
v -0.027779 0.500000 0.041573
v -0.035355 -0.500000 0.035355
v -0.035355 0.500000 0.035355
v -0.041573 -0.500000 0.027779
v -0.041573 0.500000 0.027779
v -0.046194 -0.500000 0.019134
v -0.046194 0.500000 0.019134
v -0.049039 -0.500000 0.009755
v -0.049039 0.500000 0.009755
v -0.050000 -0.500000 0.000000
v -0.050000 0.500000 0.000000
v -0.049039 -0.500000 -0.009755
v -0.049039 0.500000 -0.009755
v -0.046194 -0.500000 -0.019134
v -0.046194 0.500000 -0.019134
v -0.041573 -0.500000 -0.027779
v -0.041573 0.500000 -0.027779
v -0.035355 -0.500000 -0.035355
v -0.035355 0.500000 -0.035355
v -0.027779 -0.500000 -0.041573
v -0.027779 0.500000 -0.041573
v -0.019134 -0.500000 -0.046194
v -0.019134 0.500000 -0.046194
v -0.009755 -0.500000 -0.049039
v -0.009755 0.500000 -0.049039
v 0.000000 -0.500000 -0.050000
v 0.000000 0.500000 -0.050000
v 0.009755 -0.500000 -0.049039
v 0.009755 0.500000 -0.049039
v 0.019134 -0.500000 -0.046194
v 0.019134 0.500000 -0.046194
v 0.027779 -0.500000 -0.041573
v 0.027779 0.500000 -0.041573
v 0.035355 -0.500000 -0.035355
v 0.035355 0.500000 -0.035355
v 0.041573 -0.500000 -0.027779
v 0.041573 0.500000 -0.027779
v 0.046194 -0.500000 -0.019134
v 0.046194 0.500000 -0.019134
v 0.049039 -0.500000 -0.009755
v 0.049039 0.500000 -0.009755
v 0.050000 -0.500000 0.000000
v 0.050000 0.500000 0.000000
v 0.049039 -0.500000 0.009755
v 0.049039 0.500000 0.009755
v 0.046194 -0.500000 0.019134
v 0.046194 0.500000 0.019134
v 0.041573 -0.500000 0.027779
v 0.041573 0.500000 0.027779
v 0.035355 -0.500000 0.035355
v 0.035355 0.500000 0.035355
v 0.027779 -0.500000 0.041573
v 0.027779 0.500000 0.041573
v 0.019134 -0.500000 0.046194
v 0.019134 0.500000 0.046194
v 0.009755 -0.500000 0.049039
v 0.009755 0.500000 0.049039
vn -0.0980 -0.0000 0.9952
vn -0.2903 -0.0000 0.9569
vn -0.4714 -0.0000 0.8819
vn -0.6344 -0.0000 0.7730
vn -0.7730 -0.0000 0.6344
vn -0.8819 -0.0000 0.4714
vn -0.9569 -0.0000 0.2903
vn -0.9952 -0.0000 0.0980
vn -0.9952 -0.0000 -0.0980
vn -0.9569 -0.0000 -0.2903
vn -0.8819 -0.0000 -0.4714
vn -0.7730 -0.0000 -0.6344
vn -0.6344 -0.0000 -0.7730
vn -0.4714 -0.0000 -0.8819
vn -0.2903 -0.0000 -0.9569
vn -0.0980 -0.0000 -0.9952
vn 0.0980 -0.0000 -0.9952
vn 0.2903 -0.0000 -0.9569
vn 0.4714 -0.0000 -0.8819
vn 0.6344 -0.0000 -0.7730
vn 0.7730 -0.0000 -0.6344
vn 0.8819 -0.0000 -0.4714
vn 0.9569 -0.0000 -0.2903
vn 0.9952 -0.0000 -0.0980
vn 0.9952 -0.0000 0.0980
vn 0.9569 -0.0000 0.2903
vn 0.8819 -0.0000 0.4714
vn 0.7730 -0.0000 0.6344
vn 0.6344 -0.0000 0.7730
vn 0.4714 -0.0000 0.8819
vn -0.0000 1.0000 -0.0000
vn 0.2903 -0.0000 0.9569
vn 0.0980 -0.0000 0.9952
vn -0.0000 -1.0000 -0.0000
vt 0.500000 0.000166
vt 0.000166 0.031406
vt 0.000166 0.000166
vt 0.500000 0.031406
vt 0.000166 0.062645
vt 0.500000 0.062645
vt 0.000166 0.093885
vt 0.500000 0.093885
vt 0.000166 0.125125
vt 0.500000 0.125125
vt 0.000166 0.156364
vt 0.500000 0.156364
vt 0.000166 0.187604
vt 0.500000 0.187604
vt 0.000166 0.218843
vt 0.500000 0.218843
vt 0.000166 0.250083
vt 0.500000 0.250083
vt 0.000166 0.281323
vt 0.500000 0.281323
vt 0.000166 0.312562
vt 0.500000 0.312562
vt 0.000166 0.343802
vt 0.500000 0.343802
vt 0.000166 0.375041
vt 0.500000 0.375041
vt 0.000166 0.406281
vt 0.500000 0.406281
vt 0.000166 0.437521
vt 0.500000 0.437521
vt 0.000166 0.468760
vt 0.500000 0.468760
vt 0.000166 0.500000
vt 0.500000 0.500000
vt 0.000166 0.531240
vt 0.500000 0.531240
vt 0.000166 0.562479
vt 0.500000 0.562479
vt 0.000166 0.593719
vt 0.500000 0.593719
vt 0.000166 0.624958
vt 0.500000 0.624958
vt 0.000166 0.656198
vt 0.500000 0.656198
vt 0.000166 0.687438
vt 0.500000 0.687438
vt 0.000166 0.718677
vt 0.500000 0.718677
vt 0.000166 0.749917
vt 0.500000 0.749917
vt 0.000166 0.781156
vt 0.500000 0.781156
vt 0.000166 0.812396
vt 0.500000 0.812396
vt 0.000166 0.843636
vt 0.500000 0.843636
vt 0.000166 0.874875
vt 0.500000 0.874875
vt 0.000166 0.906115
vt 0.500000 0.906115
vt 0.000166 0.937355
vt 0.509508 0.786438
vt 0.669452 0.487204
vt 0.968687 0.647148
vt 0.500000 0.937355
vt 0.000166 0.968594
vt 0.500000 0.968594
vt 0.000166 0.999834
vt 0.715581 0.000166
vt 0.500332 0.262448
vt 0.762614 0.477696
vt 0.977862 0.693277
vt 0.977862 0.740310
vt 0.968687 0.786439
vt 0.950688 0.829891
vt 0.924558 0.868997
vt 0.891301 0.902254
vt 0.852195 0.928384
vt 0.808742 0.946383
vt 0.762614 0.955558
vt 0.715581 0.955558
vt 0.669452 0.946383
vt 0.626000 0.928384
vt 0.586893 0.902254
vt 0.553636 0.868997
vt 0.527507 0.829891
vt 0.500332 0.740310
vt 0.500332 0.693277
vt 0.509508 0.647148
vt 0.527507 0.603696
vt 0.553637 0.564590
vt 0.586894 0.531332
vt 0.626000 0.505203
vt 0.715581 0.478028
vt 0.762614 0.478028
vt 0.808743 0.487204
vt 0.852195 0.505203
vt 0.891301 0.531333
vt 0.924558 0.564590
vt 0.950688 0.603696
vt 0.500000 0.999834
vt 0.808743 0.468520
vt 0.852195 0.450522
vt 0.891301 0.424392
vt 0.924558 0.391135
vt 0.950688 0.352029
vt 0.968687 0.308576
vt 0.977862 0.262447
vt 0.977862 0.215415
vt 0.968687 0.169286
vt 0.950688 0.125833
vt 0.924558 0.086727
vt 0.891301 0.053470
vt 0.852195 0.027340
vt 0.808742 0.009342
vt 0.762614 0.000166
vt 0.669452 0.009342
vt 0.626000 0.027340
vt 0.586893 0.053470
vt 0.553636 0.086727
vt 0.527507 0.125834
vt 0.509508 0.169286
vt 0.500332 0.215415
vt 0.509508 0.308576
vt 0.527507 0.352029
vt 0.553636 0.391135
vt 0.586894 0.424392
vt 0.626000 0.450522
vt 0.669452 0.468521
vt 0.715581 0.477696
s 0
usemtl マテリアル
f 2/1/1 3/2/1 1/3/1
f 4/4/2 5/5/2 3/2/2
f 6/6/3 7/7/3 5/5/3
f 8/8/4 9/9/4 7/7/4
f 10/10/5 11/11/5 9/9/5
f 12/12/6 13/13/6 11/11/6
f 14/14/7 15/15/7 13/13/7
f 16/16/8 17/17/8 15/15/8
f 18/18/9 19/19/9 17/17/9
f 20/20/10 21/21/10 19/19/10
f 22/22/11 23/23/11 21/21/11
f 24/24/12 25/25/12 23/23/12
f 26/26/13 27/27/13 25/25/13
f 28/28/14 29/29/14 27/27/14
f 30/30/15 31/31/15 29/29/15
f 32/32/16 33/33/16 31/31/16
f 34/34/17 35/35/17 33/33/17
f 36/36/18 37/37/18 35/35/18
f 38/38/19 39/39/19 37/37/19
f 40/40/20 41/41/20 39/39/20
f 42/42/21 43/43/21 41/41/21
f 44/44/22 45/45/22 43/43/22
f 46/46/23 47/47/23 45/45/23
f 48/48/24 49/49/24 47/47/24
f 50/50/25 51/51/25 49/49/25
f 52/52/26 53/53/26 51/51/26
f 54/54/27 55/55/27 53/53/27
f 56/56/28 57/57/28 55/55/28
f 58/58/29 59/59/29 57/57/29
f 60/60/30 61/61/30 59/59/30
f 38/62/31 22/63/31 6/64/31
f 62/65/32 63/66/32 61/61/32
f 64/67/33 1/68/33 63/66/33
f 31/69/34 47/70/34 63/71/34
f 2/1/1 4/4/1 3/2/1
f 4/4/2 6/6/2 5/5/2
f 6/6/3 8/8/3 7/7/3
f 8/8/4 10/10/4 9/9/4
f 10/10/5 12/12/5 11/11/5
f 12/12/6 14/14/6 13/13/6
f 14/14/7 16/16/7 15/15/7
f 16/16/8 18/18/8 17/17/8
f 18/18/9 20/20/9 19/19/9
f 20/20/10 22/22/10 21/21/10
f 22/22/11 24/24/11 23/23/11
f 24/24/12 26/26/12 25/25/12
f 26/26/13 28/28/13 27/27/13
f 28/28/14 30/30/14 29/29/14
f 30/30/15 32/32/15 31/31/15
f 32/32/16 34/34/16 33/33/16
f 34/34/17 36/36/17 35/35/17
f 36/36/18 38/38/18 37/37/18
f 38/38/19 40/40/19 39/39/19
f 40/40/20 42/42/20 41/41/20
f 42/42/21 44/44/21 43/43/21
f 44/44/22 46/46/22 45/45/22
f 46/46/23 48/48/23 47/47/23
f 48/48/24 50/50/24 49/49/24
f 50/50/25 52/52/25 51/51/25
f 52/52/26 54/54/26 53/53/26
f 54/54/27 56/56/27 55/55/27
f 56/56/28 58/58/28 57/57/28
f 58/58/29 60/60/29 59/59/29
f 60/60/30 62/65/30 61/61/30
f 6/64/31 4/72/31 2/73/31
f 2/73/31 64/74/31 62/75/31
f 62/75/31 60/76/31 58/77/31
f 58/77/31 56/78/31 54/79/31
f 54/79/31 52/80/31 50/81/31
f 50/81/31 48/82/31 46/83/31
f 46/83/31 44/84/31 42/85/31
f 42/85/31 40/86/31 38/62/31
f 38/62/31 36/87/31 34/88/31
f 34/88/31 32/89/31 30/90/31
f 30/90/31 28/91/31 26/92/31
f 26/92/31 24/93/31 22/63/31
f 22/63/31 20/94/31 18/95/31
f 18/95/31 16/96/31 14/97/31
f 14/97/31 12/98/31 10/99/31
f 10/99/31 8/100/31 6/64/31
f 6/64/31 2/73/31 62/75/31
f 62/75/31 58/77/31 54/79/31
f 54/79/31 50/81/31 46/83/31
f 46/83/31 42/85/31 38/62/31
f 38/62/31 34/88/31 30/90/31
f 30/90/31 26/92/31 22/63/31
f 22/63/31 18/95/31 14/97/31
f 14/97/31 10/99/31 6/64/31
f 6/64/31 62/75/31 54/79/31
f 54/79/31 46/83/31 38/62/31
f 38/62/31 30/90/31 22/63/31
f 22/63/31 14/97/31 6/64/31
f 6/64/31 54/79/31 38/62/31
f 62/65/32 64/67/32 63/66/32
f 64/67/33 2/101/33 1/68/33
f 63/71/34 1/102/34 3/103/34
f 3/103/34 5/104/34 7/105/34
f 7/105/34 9/106/34 11/107/34
f 11/107/34 13/108/34 15/109/34
f 15/109/34 17/110/34 19/111/34
f 19/111/34 21/112/34 23/113/34
f 23/113/34 25/114/34 27/115/34
f 27/115/34 29/116/34 31/69/34
f 31/69/34 33/117/34 35/118/34
f 35/118/34 37/119/34 39/120/34
f 39/120/34 41/121/34 43/122/34
f 43/122/34 45/123/34 47/70/34
f 47/70/34 49/124/34 51/125/34
f 51/125/34 53/126/34 55/127/34
f 55/127/34 57/128/34 59/129/34
f 59/129/34 61/130/34 63/71/34
f 63/71/34 3/103/34 7/105/34
f 7/105/34 11/107/34 15/109/34
f 15/109/34 19/111/34 23/113/34
f 23/113/34 27/115/34 31/69/34
f 31/69/34 35/118/34 39/120/34
f 39/120/34 43/122/34 47/70/34
f 47/70/34 51/125/34 55/127/34
f 55/127/34 59/129/34 63/71/34
f 63/71/34 7/105/34 15/109/34
f 15/109/34 23/113/34 31/69/34
f 31/69/34 39/120/34 47/70/34
f 47/70/34 55/127/34 63/71/34
f 63/71/34 15/109/34 31/69/34
