# Perfect Cute Slime Mesh
# Vertices: 425, Faces: 768

v 0.0 1.2 0.0
v 0.0 1.2 0.0
v 0.0 1.2 0.0
v 0.0 1.2 0.0
v 0.0 1.2 0.0
v 0.0 1.2 0.0
v 0.0 1.2 0.0
v -0.0 1.2 0.0
v -0.0 1.2 0.0
v -0.0 1.2 0.0
v -0.0 1.2 0.0
v -0.0 1.2 0.0
v -0.0 1.2 0.0
v -0.0 1.2 -0.0
v -0.0 1.2 -0.0
v -0.0 1.2 -0.0
v -0.0 1.2 -0.0
v -0.0 1.2 -0.0
v -0.0 1.2 -0.0
v 0.0 1.2 -0.0
v 0.0 1.2 -0.0
v 0.0 1.2 -0.0
v 0.0 1.2 -0.0
v 0.0 1.2 -0.0
v 0.0 1.2 -0.0
v 0.0646 1.1753 0.0
v 0.0624 1.1753 0.0167
v 0.0559 1.1753 0.0323
v 0.0457 1.1753 0.0457
v 0.0323 1.1753 0.0559
v 0.0167 1.1753 0.0624
v 0.0 1.1753 0.0646
v -0.0167 1.1753 0.0624
v -0.0323 1.1753 0.0559
v -0.0457 1.1753 0.0457
v -0.0559 1.1753 0.0323
v -0.0624 1.1753 0.0167
v -0.0646 1.1753 0.0
v -0.0624 1.1753 -0.0167
v -0.0559 1.1753 -0.0323
v -0.0457 1.1753 -0.0457
v -0.0323 1.1753 -0.0559
v -0.0167 1.1753 -0.0624
v -0.0 1.1753 -0.0646
v 0.0167 1.1753 -0.0624
v 0.0323 1.1753 -0.0559
v 0.0457 1.1753 -0.0457
v 0.0559 1.1753 -0.0323
v 0.0624 1.1753 -0.0167
v 0.0646 1.1753 -0.0
v 0.1449 1.1021 0.0
v 0.14 1.1021 0.0375
v 0.1255 1.1021 0.0724
v 0.1025 1.1021 0.1025
v 0.0724 1.1021 0.1255
v 0.0375 1.1021 0.14
v 0.0 1.1021 0.1449
v -0.0375 1.1021 0.14
v -0.0724 1.1021 0.1255
v -0.1025 1.1021 0.1025
v -0.1255 1.1021 0.0724
v -0.14 1.1021 0.0375
v -0.1449 1.1021 0.0
v -0.14 1.1021 -0.0375
v -0.1255 1.1021 -0.0724
v -0.1025 1.1021 -0.1025
v -0.0724 1.1021 -0.1255
v -0.0375 1.1021 -0.14
v -0.0 1.1021 -0.1449
v 0.0375 1.1021 -0.14
v 0.0724 1.1021 -0.1255
v 0.1025 1.1021 -0.1025
v 0.1255 1.1021 -0.0724
v 0.14 1.1021 -0.0375
v 0.1449 1.1021 -0.0
v 0.2533 0.9833 0.0
v 0.2446 0.9833 0.0655
v 0.2193 0.9833 0.1266
v 0.1791 0.9833 0.1791
v 0.1266 0.9833 0.2193
v 0.0655 0.9833 0.2446
v 0.0 0.9833 0.2533
v -0.0655 0.9833 0.2446
v -0.1266 0.9833 0.2193
v -0.1791 0.9833 0.1791
v -0.2193 0.9833 0.1266
v -0.2446 0.9833 0.0655
v -0.2533 0.9833 0.0
v -0.2446 0.9833 -0.0655
v -0.2193 0.9833 -0.1266
v -0.1791 0.9833 -0.1791
v -0.1266 0.9833 -0.2193
v -0.0655 0.9833 -0.2446
v -0.0 0.9833 -0.2533
v 0.0655 0.9833 -0.2446
v 0.1266 0.9833 -0.2193
v 0.1791 0.9833 -0.1791
v 0.2193 0.9833 -0.1266
v 0.2446 0.9833 -0.0655
v 0.2533 0.9833 -0.0
v 0.3958 0.8234 0.0
v 0.3823 0.8234 0.1024
v 0.3428 0.8234 0.1979
v 0.2799 0.8234 0.2799
v 0.1979 0.8234 0.3428
v 0.1024 0.8234 0.3823
v 0.0 0.8234 0.3958
v -0.1024 0.8234 0.3823
v -0.1979 0.8234 0.3428
v -0.2799 0.8234 0.2799
v -0.3428 0.8234 0.1979
v -0.3823 0.8234 0.1024
v -0.3958 0.8234 0.0
v -0.3823 0.8234 -0.1024
v -0.3428 0.8234 -0.1979
v -0.2799 0.8234 -0.2799
v -0.1979 0.8234 -0.3428
v -0.1024 0.8234 -0.3823
v -0.0 0.8234 -0.3958
v 0.1024 0.8234 -0.3823
v 0.1979 0.8234 -0.3428
v 0.2799 0.8234 -0.2799
v 0.3428 0.8234 -0.1979
v 0.3823 0.8234 -0.1024
v 0.3958 0.8234 -0.0
v 0.5707 0.6286 0.0
v 0.5513 0.6286 0.1477
v 0.4943 0.6286 0.2854
v 0.4036 0.6286 0.4036
v 0.2854 0.6286 0.4943
v 0.1477 0.6286 0.5513
v 0.0 0.6286 0.5707
v -0.1477 0.6286 0.5513
v -0.2854 0.6286 0.4943
v -0.4036 0.6286 0.4036
v -0.4943 0.6286 0.2854
v -0.5513 0.6286 0.1477
v -0.5707 0.6286 0.0
v -0.5513 0.6286 -0.1477
v -0.4943 0.6286 -0.2854
v -0.4036 0.6286 -0.4036
v -0.2854 0.6286 -0.4943
v -0.1477 0.6286 -0.5513
v -0.0 0.6286 -0.5707
v 0.1477 0.6286 -0.5513
v 0.2854 0.6286 -0.4943
v 0.4036 0.6286 -0.4036
v 0.4943 0.6286 -0.2854
v 0.5513 0.6286 -0.1477
v 0.5707 0.6286 -0.0
v 0.7677 0.4063 0.0
v 0.7415 0.4063 0.1987
v 0.6648 0.4063 0.3838
v 0.5428 0.4063 0.5428
v 0.3838 0.4063 0.6648
v 0.1987 0.4063 0.7415
v 0.0 0.4063 0.7677
v -0.1987 0.4063 0.7415
v -0.3838 0.4063 0.6648
v -0.5428 0.4063 0.5428
v -0.6648 0.4063 0.3838
v -0.7415 0.4063 0.1987
v -0.7677 0.4063 0.0
v -0.7415 0.4063 -0.1987
v -0.6648 0.4063 -0.3838
v -0.5428 0.4063 -0.5428
v -0.3838 0.4063 -0.6648
v -0.1987 0.4063 -0.7415
v -0.0 0.4063 -0.7677
v 0.1987 0.4063 -0.7415
v 0.3838 0.4063 -0.6648
v 0.5428 0.4063 -0.5428
v 0.6648 0.4063 -0.3838
v 0.7415 0.4063 -0.1987
v 0.7677 0.4063 -0.0
v 1.226 0.1561 0.0
v 1.1842 0.1561 0.3173
v 1.0617 0.1561 0.613
v 0.8669 0.1561 0.8669
v 0.613 0.1561 1.0617
v 0.3173 0.1561 1.1842
v 0.0 0.1561 1.226
v -0.3173 0.1561 1.1842
v -0.613 0.1561 1.0617
v -0.8669 0.1561 0.8669
v -1.0617 0.1561 0.613
v -1.1842 0.1561 0.3173
v -1.226 0.1561 0.0
v -1.1842 0.1561 -0.3173
v -1.0617 0.1561 -0.613
v -0.8669 0.1561 -0.8669
v -0.613 0.1561 -1.0617
v -0.3173 0.1561 -1.1842
v -0.0 0.1561 -1.226
v 0.3173 0.1561 -1.1842
v 0.613 0.1561 -1.0617
v 0.8669 0.1561 -0.8669
v 1.0617 0.1561 -0.613
v 1.1842 0.1561 -0.3173
v 1.226 0.1561 -0.0
v 1.25 0.0 0.0
v 1.2074 0.0 0.3235
v 1.0825 0.0 0.625
v 0.8839 0.0 0.8839
v 0.625 0.0 1.0825
v 0.3235 0.0 1.2074
v 0.0 0.0 1.25
v -0.3235 0.0 1.2074
v -0.625 0.0 1.0825
v -0.8839 0.0 0.8839
v -1.0825 0.0 0.625
v -1.2074 0.0 0.3235
v -1.25 0.0 0.0
v -1.2074 0.0 -0.3235
v -1.0825 0.0 -0.625
v -0.8839 0.0 -0.8839
v -0.625 0.0 -1.0825
v -0.3235 0.0 -1.2074
v -0.0 0.0 -1.25
v 0.3235 0.0 -1.2074
v 0.625 0.0 -1.0825
v 0.8839 0.0 -0.8839
v 1.0825 0.0 -0.625
v 1.2074 0.0 -0.3235
v 1.25 0.0 -0.0
v 1.226 -0.1561 0.0
v 1.1842 -0.1561 0.3173
v 1.0617 -0.1561 0.613
v 0.8669 -0.1561 0.8669
v 0.613 -0.1561 1.0617
v 0.3173 -0.1561 1.1842
v 0.0 -0.1561 1.226
v -0.3173 -0.1561 1.1842
v -0.613 -0.1561 1.0617
v -0.8669 -0.1561 0.8669
v -1.0617 -0.1561 0.613
v -1.1842 -0.1561 0.3173
v -1.226 -0.1561 0.0
v -1.1842 -0.1561 -0.3173
v -1.0617 -0.1561 -0.613
v -0.8669 -0.1561 -0.8669
v -0.613 -0.1561 -1.0617
v -0.3173 -0.1561 -1.1842
v -0.0 -0.1561 -1.226
v 0.3173 -0.1561 -1.1842
v 0.613 -0.1561 -1.0617
v 0.8669 -0.1561 -0.8669
v 1.0617 -0.1561 -0.613
v 1.1842 -0.1561 -0.3173
v 1.226 -0.1561 -0.0
v 1.1548 -0.3061 0.0
v 1.1155 -0.3061 0.2989
v 1.0001 -0.3061 0.5774
v 0.8166 -0.3061 0.8166
v 0.5774 -0.3061 1.0001
v 0.2989 -0.3061 1.1155
v 0.0 -0.3061 1.1548
v -0.2989 -0.3061 1.1155
v -0.5774 -0.3061 1.0001
v -0.8166 -0.3061 0.8166
v -1.0001 -0.3061 0.5774
v -1.1155 -0.3061 0.2989
v -1.1548 -0.3061 0.0
v -1.1155 -0.3061 -0.2989
v -1.0001 -0.3061 -0.5774
v -0.8166 -0.3061 -0.8166
v -0.5774 -0.3061 -1.0001
v -0.2989 -0.3061 -1.1155
v -0.0 -0.3061 -1.1548
v 0.2989 -0.3061 -1.1155
v 0.5774 -0.3061 -1.0001
v 0.8166 -0.3061 -0.8166
v 1.0001 -0.3061 -0.5774
v 1.1155 -0.3061 -0.2989
v 1.1548 -0.3061 -0.0
v 0.9562 -0.4389 0.0
v 0.9236 -0.4389 0.2475
v 0.8281 -0.4389 0.4781
v 0.6761 -0.4389 0.6761
v 0.4781 -0.4389 0.8281
v 0.2475 -0.4389 0.9236
v 0.0 -0.4389 0.9562
v -0.2475 -0.4389 0.9236
v -0.4781 -0.4389 0.8281
v -0.6761 -0.4389 0.6761
v -0.8281 -0.4389 0.4781
v -0.9236 -0.4389 0.2475
v -0.9562 -0.4389 0.0
v -0.9236 -0.4389 -0.2475
v -0.8281 -0.4389 -0.4781
v -0.6761 -0.4389 -0.6761
v -0.4781 -0.4389 -0.8281
v -0.2475 -0.4389 -0.9236
v -0.0 -0.4389 -0.9562
v 0.2475 -0.4389 -0.9236
v 0.4781 -0.4389 -0.8281
v 0.6761 -0.4389 -0.6761
v 0.8281 -0.4389 -0.4781
v 0.9236 -0.4389 -0.2475
v 0.9562 -0.4389 -0.0
v 0.8132 -0.4768 0.0
v 0.7855 -0.4768 0.2105
v 0.7042 -0.4768 0.4066
v 0.575 -0.4768 0.575
v 0.4066 -0.4768 0.7042
v 0.2105 -0.4768 0.7855
v 0.0 -0.4768 0.8132
v -0.2105 -0.4768 0.7855
v -0.4066 -0.4768 0.7042
v -0.575 -0.4768 0.575
v -0.7042 -0.4768 0.4066
v -0.7855 -0.4768 0.2105
v -0.8132 -0.4768 0.0
v -0.7855 -0.4768 -0.2105
v -0.7042 -0.4768 -0.4066
v -0.575 -0.4768 -0.575
v -0.4066 -0.4768 -0.7042
v -0.2105 -0.4768 -0.7855
v -0.0 -0.4768 -0.8132
v 0.2105 -0.4768 -0.7855
v 0.4066 -0.4768 -0.7042
v 0.575 -0.4768 -0.575
v 0.7042 -0.4768 -0.4066
v 0.7855 -0.4768 -0.2105
v 0.8132 -0.4768 -0.0
v 0.6389 -0.5079 0.0
v 0.6171 -0.5079 0.1654
v 0.5533 -0.5079 0.3195
v 0.4518 -0.5079 0.4518
v 0.3195 -0.5079 0.5533
v 0.1654 -0.5079 0.6171
v 0.0 -0.5079 0.6389
v -0.1654 -0.5079 0.6171
v -0.3195 -0.5079 0.5533
v -0.4518 -0.5079 0.4518
v -0.5533 -0.5079 0.3195
v -0.6171 -0.5079 0.1654
v -0.6389 -0.5079 0.0
v -0.6171 -0.5079 -0.1654
v -0.5533 -0.5079 -0.3195
v -0.4518 -0.5079 -0.4518
v -0.3195 -0.5079 -0.5533
v -0.1654 -0.5079 -0.6171
v -0.0 -0.5079 -0.6389
v 0.1654 -0.5079 -0.6171
v 0.3195 -0.5079 -0.5533
v 0.4518 -0.5079 -0.4518
v 0.5533 -0.5079 -0.3195
v 0.6171 -0.5079 -0.1654
v 0.6389 -0.5079 -0.0
v 0.4401 -0.531 0.0
v 0.4251 -0.531 0.1139
v 0.3811 -0.531 0.22
v 0.3112 -0.531 0.3112
v 0.22 -0.531 0.3811
v 0.1139 -0.531 0.4251
v 0.0 -0.531 0.4401
v -0.1139 -0.531 0.4251
v -0.22 -0.531 0.3811
v -0.3112 -0.531 0.3112
v -0.3811 -0.531 0.22
v -0.4251 -0.531 0.1139
v -0.4401 -0.531 0.0
v -0.4251 -0.531 -0.1139
v -0.3811 -0.531 -0.22
v -0.3112 -0.531 -0.3112
v -0.22 -0.531 -0.3811
v -0.1139 -0.531 -0.4251
v -0.0 -0.531 -0.4401
v 0.1139 -0.531 -0.4251
v 0.22 -0.531 -0.3811
v 0.3112 -0.531 -0.3112
v 0.3811 -0.531 -0.22
v 0.4251 -0.531 -0.1139
v 0.4401 -0.531 -0.0
v 0.2244 -0.5452 0.0
v 0.2167 -0.5452 0.0581
v 0.1943 -0.5452 0.1122
v 0.1586 -0.5452 0.1586
v 0.1122 -0.5452 0.1943
v 0.0581 -0.5452 0.2167
v 0.0 -0.5452 0.2244
v -0.0581 -0.5452 0.2167
v -0.1122 -0.5452 0.1943
v -0.1586 -0.5452 0.1586
v -0.1943 -0.5452 0.1122
v -0.2167 -0.5452 0.0581
v -0.2244 -0.5452 0.0
v -0.2167 -0.5452 -0.0581
v -0.1943 -0.5452 -0.1122
v -0.1586 -0.5452 -0.1586
v -0.1122 -0.5452 -0.1943
v -0.0581 -0.5452 -0.2167
v -0.0 -0.5452 -0.2244
v 0.0581 -0.5452 -0.2167
v 0.1122 -0.5452 -0.1943
v 0.1586 -0.5452 -0.1586
v 0.1943 -0.5452 -0.1122
v 0.2167 -0.5452 -0.0581
v 0.2244 -0.5452 -0.0
v 0.0 -0.55 0.0
v 0.0 -0.55 0.0
v 0.0 -0.55 0.0
v 0.0 -0.55 0.0
v 0.0 -0.55 0.0
v 0.0 -0.55 0.0
v 0.0 -0.55 0.0
v -0.0 -0.55 0.0
v -0.0 -0.55 0.0
v -0.0 -0.55 0.0
v -0.0 -0.55 0.0
v -0.0 -0.55 0.0
v -0.0 -0.55 0.0
v -0.0 -0.55 -0.0
v -0.0 -0.55 -0.0
v -0.0 -0.55 -0.0
v -0.0 -0.55 -0.0
v -0.0 -0.55 -0.0
v -0.0 -0.55 -0.0
v 0.0 -0.55 -0.0
v 0.0 -0.55 -0.0
v 0.0 -0.55 -0.0
v 0.0 -0.55 -0.0
v 0.0 -0.55 -0.0
v 0.0 -0.55 -0.0

vt 0.0 1.0
vt 0.0417 1.0
vt 0.0833 1.0
vt 0.125 1.0
vt 0.1667 1.0
vt 0.2083 1.0
vt 0.25 1.0
vt 0.2917 1.0
vt 0.3333 1.0
vt 0.375 1.0
vt 0.4167 1.0
vt 0.4583 1.0
vt 0.5 1.0
vt 0.5417 1.0
vt 0.5833 1.0
vt 0.625 1.0
vt 0.6667 1.0
vt 0.7083 1.0
vt 0.75 1.0
vt 0.7917 1.0
vt 0.8333 1.0
vt 0.875 1.0
vt 0.9167 1.0
vt 0.9583 1.0
vt 1.0 1.0
vt 0.0 0.9375
vt 0.0417 0.9375
vt 0.0833 0.9375
vt 0.125 0.9375
vt 0.1667 0.9375
vt 0.2083 0.9375
vt 0.25 0.9375
vt 0.2917 0.9375
vt 0.3333 0.9375
vt 0.375 0.9375
vt 0.4167 0.9375
vt 0.4583 0.9375
vt 0.5 0.9375
vt 0.5417 0.9375
vt 0.5833 0.9375
vt 0.625 0.9375
vt 0.6667 0.9375
vt 0.7083 0.9375
vt 0.75 0.9375
vt 0.7917 0.9375
vt 0.8333 0.9375
vt 0.875 0.9375
vt 0.9167 0.9375
vt 0.9583 0.9375
vt 1.0 0.9375
vt 0.0 0.875
vt 0.0417 0.875
vt 0.0833 0.875
vt 0.125 0.875
vt 0.1667 0.875
vt 0.2083 0.875
vt 0.25 0.875
vt 0.2917 0.875
vt 0.3333 0.875
vt 0.375 0.875
vt 0.4167 0.875
vt 0.4583 0.875
vt 0.5 0.875
vt 0.5417 0.875
vt 0.5833 0.875
vt 0.625 0.875
vt 0.6667 0.875
vt 0.7083 0.875
vt 0.75 0.875
vt 0.7917 0.875
vt 0.8333 0.875
vt 0.875 0.875
vt 0.9167 0.875
vt 0.9583 0.875
vt 1.0 0.875
vt 0.0 0.8125
vt 0.0417 0.8125
vt 0.0833 0.8125
vt 0.125 0.8125
vt 0.1667 0.8125
vt 0.2083 0.8125
vt 0.25 0.8125
vt 0.2917 0.8125
vt 0.3333 0.8125
vt 0.375 0.8125
vt 0.4167 0.8125
vt 0.4583 0.8125
vt 0.5 0.8125
vt 0.5417 0.8125
vt 0.5833 0.8125
vt 0.625 0.8125
vt 0.6667 0.8125
vt 0.7083 0.8125
vt 0.75 0.8125
vt 0.7917 0.8125
vt 0.8333 0.8125
vt 0.875 0.8125
vt 0.9167 0.8125
vt 0.9583 0.8125
vt 1.0 0.8125
vt 0.0 0.75
vt 0.0417 0.75
vt 0.0833 0.75
vt 0.125 0.75
vt 0.1667 0.75
vt 0.2083 0.75
vt 0.25 0.75
vt 0.2917 0.75
vt 0.3333 0.75
vt 0.375 0.75
vt 0.4167 0.75
vt 0.4583 0.75
vt 0.5 0.75
vt 0.5417 0.75
vt 0.5833 0.75
vt 0.625 0.75
vt 0.6667 0.75
vt 0.7083 0.75
vt 0.75 0.75
vt 0.7917 0.75
vt 0.8333 0.75
vt 0.875 0.75
vt 0.9167 0.75
vt 0.9583 0.75
vt 1.0 0.75
vt 0.0 0.6875
vt 0.0417 0.6875
vt 0.0833 0.6875
vt 0.125 0.6875
vt 0.1667 0.6875
vt 0.2083 0.6875
vt 0.25 0.6875
vt 0.2917 0.6875
vt 0.3333 0.6875
vt 0.375 0.6875
vt 0.4167 0.6875
vt 0.4583 0.6875
vt 0.5 0.6875
vt 0.5417 0.6875
vt 0.5833 0.6875
vt 0.625 0.6875
vt 0.6667 0.6875
vt 0.7083 0.6875
vt 0.75 0.6875
vt 0.7917 0.6875
vt 0.8333 0.6875
vt 0.875 0.6875
vt 0.9167 0.6875
vt 0.9583 0.6875
vt 1.0 0.6875
vt 0.0 0.625
vt 0.0417 0.625
vt 0.0833 0.625
vt 0.125 0.625
vt 0.1667 0.625
vt 0.2083 0.625
vt 0.25 0.625
vt 0.2917 0.625
vt 0.3333 0.625
vt 0.375 0.625
vt 0.4167 0.625
vt 0.4583 0.625
vt 0.5 0.625
vt 0.5417 0.625
vt 0.5833 0.625
vt 0.625 0.625
vt 0.6667 0.625
vt 0.7083 0.625
vt 0.75 0.625
vt 0.7917 0.625
vt 0.8333 0.625
vt 0.875 0.625
vt 0.9167 0.625
vt 0.9583 0.625
vt 1.0 0.625
vt 0.0 0.5625
vt 0.0417 0.5625
vt 0.0833 0.5625
vt 0.125 0.5625
vt 0.1667 0.5625
vt 0.2083 0.5625
vt 0.25 0.5625
vt 0.2917 0.5625
vt 0.3333 0.5625
vt 0.375 0.5625
vt 0.4167 0.5625
vt 0.4583 0.5625
vt 0.5 0.5625
vt 0.5417 0.5625
vt 0.5833 0.5625
vt 0.625 0.5625
vt 0.6667 0.5625
vt 0.7083 0.5625
vt 0.75 0.5625
vt 0.7917 0.5625
vt 0.8333 0.5625
vt 0.875 0.5625
vt 0.9167 0.5625
vt 0.9583 0.5625
vt 1.0 0.5625
vt 0.0 0.5
vt 0.0417 0.5
vt 0.0833 0.5
vt 0.125 0.5
vt 0.1667 0.5
vt 0.2083 0.5
vt 0.25 0.5
vt 0.2917 0.5
vt 0.3333 0.5
vt 0.375 0.5
vt 0.4167 0.5
vt 0.4583 0.5
vt 0.5 0.5
vt 0.5417 0.5
vt 0.5833 0.5
vt 0.625 0.5
vt 0.6667 0.5
vt 0.7083 0.5
vt 0.75 0.5
vt 0.7917 0.5
vt 0.8333 0.5
vt 0.875 0.5
vt 0.9167 0.5
vt 0.9583 0.5
vt 1.0 0.5
vt 0.0 0.4375
vt 0.0417 0.4375
vt 0.0833 0.4375
vt 0.125 0.4375
vt 0.1667 0.4375
vt 0.2083 0.4375
vt 0.25 0.4375
vt 0.2917 0.4375
vt 0.3333 0.4375
vt 0.375 0.4375
vt 0.4167 0.4375
vt 0.4583 0.4375
vt 0.5 0.4375
vt 0.5417 0.4375
vt 0.5833 0.4375
vt 0.625 0.4375
vt 0.6667 0.4375
vt 0.7083 0.4375
vt 0.75 0.4375
vt 0.7917 0.4375
vt 0.8333 0.4375
vt 0.875 0.4375
vt 0.9167 0.4375
vt 0.9583 0.4375
vt 1.0 0.4375
vt 0.0 0.375
vt 0.0417 0.375
vt 0.0833 0.375
vt 0.125 0.375
vt 0.1667 0.375
vt 0.2083 0.375
vt 0.25 0.375
vt 0.2917 0.375
vt 0.3333 0.375
vt 0.375 0.375
vt 0.4167 0.375
vt 0.4583 0.375
vt 0.5 0.375
vt 0.5417 0.375
vt 0.5833 0.375
vt 0.625 0.375
vt 0.6667 0.375
vt 0.7083 0.375
vt 0.75 0.375
vt 0.7917 0.375
vt 0.8333 0.375
vt 0.875 0.375
vt 0.9167 0.375
vt 0.9583 0.375
vt 1.0 0.375
vt 0.0 0.3125
vt 0.0417 0.3125
vt 0.0833 0.3125
vt 0.125 0.3125
vt 0.1667 0.3125
vt 0.2083 0.3125
vt 0.25 0.3125
vt 0.2917 0.3125
vt 0.3333 0.3125
vt 0.375 0.3125
vt 0.4167 0.3125
vt 0.4583 0.3125
vt 0.5 0.3125
vt 0.5417 0.3125
vt 0.5833 0.3125
vt 0.625 0.3125
vt 0.6667 0.3125
vt 0.7083 0.3125
vt 0.75 0.3125
vt 0.7917 0.3125
vt 0.8333 0.3125
vt 0.875 0.3125
vt 0.9167 0.3125
vt 0.9583 0.3125
vt 1.0 0.3125
vt 0.0 0.25
vt 0.0417 0.25
vt 0.0833 0.25
vt 0.125 0.25
vt 0.1667 0.25
vt 0.2083 0.25
vt 0.25 0.25
vt 0.2917 0.25
vt 0.3333 0.25
vt 0.375 0.25
vt 0.4167 0.25
vt 0.4583 0.25
vt 0.5 0.25
vt 0.5417 0.25
vt 0.5833 0.25
vt 0.625 0.25
vt 0.6667 0.25
vt 0.7083 0.25
vt 0.75 0.25
vt 0.7917 0.25
vt 0.8333 0.25
vt 0.875 0.25
vt 0.9167 0.25
vt 0.9583 0.25
vt 1.0 0.25
vt 0.0 0.1875
vt 0.0417 0.1875
vt 0.0833 0.1875
vt 0.125 0.1875
vt 0.1667 0.1875
vt 0.2083 0.1875
vt 0.25 0.1875
vt 0.2917 0.1875
vt 0.3333 0.1875
vt 0.375 0.1875
vt 0.4167 0.1875
vt 0.4583 0.1875
vt 0.5 0.1875
vt 0.5417 0.1875
vt 0.5833 0.1875
vt 0.625 0.1875
vt 0.6667 0.1875
vt 0.7083 0.1875
vt 0.75 0.1875
vt 0.7917 0.1875
vt 0.8333 0.1875
vt 0.875 0.1875
vt 0.9167 0.1875
vt 0.9583 0.1875
vt 1.0 0.1875
vt 0.0 0.125
vt 0.0417 0.125
vt 0.0833 0.125
vt 0.125 0.125
vt 0.1667 0.125
vt 0.2083 0.125
vt 0.25 0.125
vt 0.2917 0.125
vt 0.3333 0.125
vt 0.375 0.125
vt 0.4167 0.125
vt 0.4583 0.125
vt 0.5 0.125
vt 0.5417 0.125
vt 0.5833 0.125
vt 0.625 0.125
vt 0.6667 0.125
vt 0.7083 0.125
vt 0.75 0.125
vt 0.7917 0.125
vt 0.8333 0.125
vt 0.875 0.125
vt 0.9167 0.125
vt 0.9583 0.125
vt 1.0 0.125
vt 0.0 0.0625
vt 0.0417 0.0625
vt 0.0833 0.0625
vt 0.125 0.0625
vt 0.1667 0.0625
vt 0.2083 0.0625
vt 0.25 0.0625
vt 0.2917 0.0625
vt 0.3333 0.0625
vt 0.375 0.0625
vt 0.4167 0.0625
vt 0.4583 0.0625
vt 0.5 0.0625
vt 0.5417 0.0625
vt 0.5833 0.0625
vt 0.625 0.0625
vt 0.6667 0.0625
vt 0.7083 0.0625
vt 0.75 0.0625
vt 0.7917 0.0625
vt 0.8333 0.0625
vt 0.875 0.0625
vt 0.9167 0.0625
vt 0.9583 0.0625
vt 1.0 0.0625
vt 0.0 0.0
vt 0.0417 0.0
vt 0.0833 0.0
vt 0.125 0.0
vt 0.1667 0.0
vt 0.2083 0.0
vt 0.25 0.0
vt 0.2917 0.0
vt 0.3333 0.0
vt 0.375 0.0
vt 0.4167 0.0
vt 0.4583 0.0
vt 0.5 0.0
vt 0.5417 0.0
vt 0.5833 0.0
vt 0.625 0.0
vt 0.6667 0.0
vt 0.7083 0.0
vt 0.75 0.0
vt 0.7917 0.0
vt 0.8333 0.0
vt 0.875 0.0
vt 0.9167 0.0
vt 0.9583 0.0
vt 1.0 0.0

vn 0.0 1.0 0.0
vn 0.0 1.0 0.0
vn 0.0 1.0 0.0
vn 0.0 1.0 0.0
vn 0.0 1.0 0.0
vn 0.0 1.0 0.0
vn 0.0 1.0 0.0
vn -0.0 1.0 0.0
vn -0.0 1.0 0.0
vn -0.0 1.0 0.0
vn -0.0 1.0 0.0
vn -0.0 1.0 0.0
vn -0.0 1.0 0.0
vn -0.0 1.0 -0.0
vn -0.0 1.0 -0.0
vn -0.0 1.0 -0.0
vn -0.0 1.0 -0.0
vn -0.0 1.0 -0.0
vn -0.0 1.0 -0.0
vn 0.0 1.0 -0.0
vn 0.0 1.0 -0.0
vn 0.0 1.0 -0.0
vn 0.0 1.0 -0.0
vn 0.0 1.0 -0.0
vn 0.0 1.0 -0.0
vn 0.0549 0.9985 0.0
vn 0.053 0.9985 0.0142
vn 0.0475 0.9985 0.0274
vn 0.0388 0.9985 0.0388
vn 0.0274 0.9985 0.0475
vn 0.0142 0.9985 0.053
vn 0.0 0.9985 0.0549
vn -0.0142 0.9985 0.053
vn -0.0274 0.9985 0.0475
vn -0.0388 0.9985 0.0388
vn -0.0475 0.9985 0.0274
vn -0.053 0.9985 0.0142
vn -0.0549 0.9985 0.0
vn -0.053 0.9985 -0.0142
vn -0.0475 0.9985 -0.0274
vn -0.0388 0.9985 -0.0388
vn -0.0274 0.9985 -0.0475
vn -0.0142 0.9985 -0.053
vn -0.0 0.9985 -0.0549
vn 0.0142 0.9985 -0.053
vn 0.0274 0.9985 -0.0475
vn 0.0388 0.9985 -0.0388
vn 0.0475 0.9985 -0.0274
vn 0.053 0.9985 -0.0142
vn 0.0549 0.9985 -0.0
vn 0.1303 0.9915 0.0
vn 0.1259 0.9915 0.0337
vn 0.1129 0.9915 0.0652
vn 0.0922 0.9915 0.0922
vn 0.0652 0.9915 0.1129
vn 0.0337 0.9915 0.1259
vn 0.0 0.9915 0.1303
vn -0.0337 0.9915 0.1259
vn -0.0652 0.9915 0.1129
vn -0.0922 0.9915 0.0922
vn -0.1129 0.9915 0.0652
vn -0.1259 0.9915 0.0337
vn -0.1303 0.9915 0.0
vn -0.1259 0.9915 -0.0337
vn -0.1129 0.9915 -0.0652
vn -0.0922 0.9915 -0.0922
vn -0.0652 0.9915 -0.1129
vn -0.0337 0.9915 -0.1259
vn -0.0 0.9915 -0.1303
vn 0.0337 0.9915 -0.1259
vn 0.0652 0.9915 -0.1129
vn 0.0922 0.9915 -0.0922
vn 0.1129 0.9915 -0.0652
vn 0.1259 0.9915 -0.0337
vn 0.1303 0.9915 -0.0
vn 0.2494 0.9684 0.0
vn 0.2409 0.9684 0.0646
vn 0.216 0.9684 0.1247
vn 0.1764 0.9684 0.1764
vn 0.1247 0.9684 0.216
vn 0.0646 0.9684 0.2409
vn 0.0 0.9684 0.2494
vn -0.0646 0.9684 0.2409
vn -0.1247 0.9684 0.216
vn -0.1764 0.9684 0.1764
vn -0.216 0.9684 0.1247
vn -0.2409 0.9684 0.0646
vn -0.2494 0.9684 0.0
vn -0.2409 0.9684 -0.0646
vn -0.216 0.9684 -0.1247
vn -0.1764 0.9684 -0.1764
vn -0.1247 0.9684 -0.216
vn -0.0646 0.9684 -0.2409
vn -0.0 0.9684 -0.2494
vn 0.0646 0.9684 -0.2409
vn 0.1247 0.9684 -0.216
vn 0.1764 0.9684 -0.1764
vn 0.216 0.9684 -0.1247
vn 0.2409 0.9684 -0.0646
vn 0.2494 0.9684 -0.0
vn 0.4332 0.9013 0.0
vn 0.4185 0.9013 0.1121
vn 0.3752 0.9013 0.2166
vn 0.3064 0.9013 0.3064
vn 0.2166 0.9013 0.3752
vn 0.1121 0.9013 0.4185
vn 0.0 0.9013 0.4332
vn -0.1121 0.9013 0.4185
vn -0.2166 0.9013 0.3752
vn -0.3064 0.9013 0.3064
vn -0.3752 0.9013 0.2166
vn -0.4185 0.9013 0.1121
vn -0.4332 0.9013 0.0
vn -0.4185 0.9013 -0.1121
vn -0.3752 0.9013 -0.2166
vn -0.3064 0.9013 -0.3064
vn -0.2166 0.9013 -0.3752
vn -0.1121 0.9013 -0.4185
vn -0.0 0.9013 -0.4332
vn 0.1121 0.9013 -0.4185
vn 0.2166 0.9013 -0.3752
vn 0.3064 0.9013 -0.3064
vn 0.3752 0.9013 -0.2166
vn 0.4185 0.9013 -0.1121
vn 0.4332 0.9013 -0.0
vn 0.6722 0.7404 0.0
vn 0.6493 0.7404 0.174
vn 0.5822 0.7404 0.3361
vn 0.4753 0.7404 0.4753
vn 0.3361 0.7404 0.5822
vn 0.174 0.7404 0.6493
vn 0.0 0.7404 0.6722
vn -0.174 0.7404 0.6493
vn -0.3361 0.7404 0.5822
vn -0.4753 0.7404 0.4753
vn -0.5822 0.7404 0.3361
vn -0.6493 0.7404 0.174
vn -0.6722 0.7404 0.0
vn -0.6493 0.7404 -0.174
vn -0.5822 0.7404 -0.3361
vn -0.4753 0.7404 -0.4753
vn -0.3361 0.7404 -0.5822
vn -0.174 0.7404 -0.6493
vn -0.0 0.7404 -0.6722
vn 0.174 0.7404 -0.6493
vn 0.3361 0.7404 -0.5822
vn 0.4753 0.7404 -0.4753
vn 0.5822 0.7404 -0.3361
vn 0.6493 0.7404 -0.174
vn 0.6722 0.7404 -0.0
vn 0.8838 0.4678 0.0
vn 0.8537 0.4678 0.2288
vn 0.7654 0.4678 0.4419
vn 0.625 0.4678 0.625
vn 0.4419 0.4678 0.7654
vn 0.2288 0.4678 0.8537
vn 0.0 0.4678 0.8838
vn -0.2288 0.4678 0.8537
vn -0.4419 0.4678 0.7654
vn -0.625 0.4678 0.625
vn -0.7654 0.4678 0.4419
vn -0.8537 0.4678 0.2288
vn -0.8838 0.4678 0.0
vn -0.8537 0.4678 -0.2288
vn -0.7654 0.4678 -0.4419
vn -0.625 0.4678 -0.625
vn -0.4419 0.4678 -0.7654
vn -0.2288 0.4678 -0.8537
vn -0.0 0.4678 -0.8838
vn 0.2288 0.4678 -0.8537
vn 0.4419 0.4678 -0.7654
vn 0.625 0.4678 -0.625
vn 0.7654 0.4678 -0.4419
vn 0.8537 0.4678 -0.2288
vn 0.8838 0.4678 -0.0
vn 0.992 0.1263 0.0
vn 0.9582 0.1263 0.2567
vn 0.8591 0.1263 0.496
vn 0.7014 0.1263 0.7014
vn 0.496 0.1263 0.8591
vn 0.2567 0.1263 0.9582
vn 0.0 0.1263 0.992
vn -0.2567 0.1263 0.9582
vn -0.496 0.1263 0.8591
vn -0.7014 0.1263 0.7014
vn -0.8591 0.1263 0.496
vn -0.9582 0.1263 0.2567
vn -0.992 0.1263 0.0
vn -0.9582 0.1263 -0.2567
vn -0.8591 0.1263 -0.496
vn -0.7014 0.1263 -0.7014
vn -0.496 0.1263 -0.8591
vn -0.2567 0.1263 -0.9582
vn -0.0 0.1263 -0.992
vn 0.2567 0.1263 -0.9582
vn 0.496 0.1263 -0.8591
vn 0.7014 0.1263 -0.7014
vn 0.8591 0.1263 -0.496
vn 0.9582 0.1263 -0.2567
vn 0.992 0.1263 -0.0
vn 1.0 0.0 0.0
vn 0.9659 0.0 0.2588
vn 0.866 0.0 0.5
vn 0.7071 0.0 0.7071
vn 0.5 0.0 0.866
vn 0.2588 0.0 0.9659
vn 0.0 0.0 1.0
vn -0.2588 0.0 0.9659
vn -0.5 0.0 0.866
vn -0.7071 0.0 0.7071
vn -0.866 0.0 0.5
vn -0.9659 0.0 0.2588
vn -1.0 0.0 0.0
vn -0.9659 0.0 -0.2588
vn -0.866 0.0 -0.5
vn -0.7071 0.0 -0.7071
vn -0.5 0.0 -0.866
vn -0.2588 0.0 -0.9659
vn -0.0 0.0 -1.0
vn 0.2588 0.0 -0.9659
vn 0.5 0.0 -0.866
vn 0.7071 0.0 -0.7071
vn 0.866 0.0 -0.5
vn 0.9659 0.0 -0.2588
vn 1.0 0.0 -0.0
vn 0.992 -0.1263 0.0
vn 0.9582 -0.1263 0.2567
vn 0.8591 -0.1263 0.496
vn 0.7014 -0.1263 0.7014
vn 0.496 -0.1263 0.8591
vn 0.2567 -0.1263 0.9582
vn 0.0 -0.1263 0.992
vn -0.2567 -0.1263 0.9582
vn -0.496 -0.1263 0.8591
vn -0.7014 -0.1263 0.7014
vn -0.8591 -0.1263 0.496
vn -0.9582 -0.1263 0.2567
vn -0.992 -0.1263 0.0
vn -0.9582 -0.1263 -0.2567
vn -0.8591 -0.1263 -0.496
vn -0.7014 -0.1263 -0.7014
vn -0.496 -0.1263 -0.8591
vn -0.2567 -0.1263 -0.9582
vn -0.0 -0.1263 -0.992
vn 0.2567 -0.1263 -0.9582
vn 0.496 -0.1263 -0.8591
vn 0.7014 -0.1263 -0.7014
vn 0.8591 -0.1263 -0.496
vn 0.9582 -0.1263 -0.2567
vn 0.992 -0.1263 -0.0
vn 0.9666 -0.2562 0.0
vn 0.9337 -0.2562 0.2502
vn 0.8371 -0.2562 0.4833
vn 0.6835 -0.2562 0.6835
vn 0.4833 -0.2562 0.8371
vn 0.2502 -0.2562 0.9337
vn 0.0 -0.2562 0.9666
vn -0.2502 -0.2562 0.9337
vn -0.4833 -0.2562 0.8371
vn -0.6835 -0.2562 0.6835
vn -0.8371 -0.2562 0.4833
vn -0.9337 -0.2562 0.2502
vn -0.9666 -0.2562 0.0
vn -0.9337 -0.2562 -0.2502
vn -0.8371 -0.2562 -0.4833
vn -0.6835 -0.2562 -0.6835
vn -0.4833 -0.2562 -0.8371
vn -0.2502 -0.2562 -0.9337
vn -0.0 -0.2562 -0.9666
vn 0.2502 -0.2562 -0.9337
vn 0.4833 -0.2562 -0.8371
vn 0.6835 -0.2562 -0.6835
vn 0.8371 -0.2562 -0.4833
vn 0.9337 -0.2562 -0.2502
vn 0.9666 -0.2562 -0.0
vn 0.9088 -0.4172 0.0
vn 0.8779 -0.4172 0.2352
vn 0.7871 -0.4172 0.4544
vn 0.6426 -0.4172 0.6426
vn 0.4544 -0.4172 0.7871
vn 0.2352 -0.4172 0.8779
vn 0.0 -0.4172 0.9088
vn -0.2352 -0.4172 0.8779
vn -0.4544 -0.4172 0.7871
vn -0.6426 -0.4172 0.6426
vn -0.7871 -0.4172 0.4544
vn -0.8779 -0.4172 0.2352
vn -0.9088 -0.4172 0.0
vn -0.8779 -0.4172 -0.2352
vn -0.7871 -0.4172 -0.4544
vn -0.6426 -0.4172 -0.6426
vn -0.4544 -0.4172 -0.7871
vn -0.2352 -0.4172 -0.8779
vn -0.0 -0.4172 -0.9088
vn 0.2352 -0.4172 -0.8779
vn 0.4544 -0.4172 -0.7871
vn 0.6426 -0.4172 -0.6426
vn 0.7871 -0.4172 -0.4544
vn 0.8779 -0.4172 -0.2352
vn 0.9088 -0.4172 -0.0
vn 0.8627 -0.5058 0.0
vn 0.8333 -0.5058 0.2233
vn 0.7471 -0.5058 0.4313
vn 0.61 -0.5058 0.61
vn 0.4313 -0.5058 0.7471
vn 0.2233 -0.5058 0.8333
vn 0.0 -0.5058 0.8627
vn -0.2233 -0.5058 0.8333
vn -0.4313 -0.5058 0.7471
vn -0.61 -0.5058 0.61
vn -0.7471 -0.5058 0.4313
vn -0.8333 -0.5058 0.2233
vn -0.8627 -0.5058 0.0
vn -0.8333 -0.5058 -0.2233
vn -0.7471 -0.5058 -0.4313
vn -0.61 -0.5058 -0.61
vn -0.4313 -0.5058 -0.7471
vn -0.2233 -0.5058 -0.8333
vn -0.0 -0.5058 -0.8627
vn 0.2233 -0.5058 -0.8333
vn 0.4313 -0.5058 -0.7471
vn 0.61 -0.5058 -0.61
vn 0.7471 -0.5058 -0.4313
vn 0.8333 -0.5058 -0.2233
vn 0.8627 -0.5058 -0.0
vn 0.7828 -0.6223 0.0
vn 0.7561 -0.6223 0.2026
vn 0.6779 -0.6223 0.3914
vn 0.5535 -0.6223 0.5535
vn 0.3914 -0.6223 0.6779
vn 0.2026 -0.6223 0.7561
vn 0.0 -0.6223 0.7828
vn -0.2026 -0.6223 0.7561
vn -0.3914 -0.6223 0.6779
vn -0.5535 -0.6223 0.5535
vn -0.6779 -0.6223 0.3914
vn -0.7561 -0.6223 0.2026
vn -0.7828 -0.6223 0.0
vn -0.7561 -0.6223 -0.2026
vn -0.6779 -0.6223 -0.3914
vn -0.5535 -0.6223 -0.5535
vn -0.3914 -0.6223 -0.6779
vn -0.2026 -0.6223 -0.7561
vn -0.0 -0.6223 -0.7828
vn 0.2026 -0.6223 -0.7561
vn 0.3914 -0.6223 -0.6779
vn 0.5535 -0.6223 -0.5535
vn 0.6779 -0.6223 -0.3914
vn 0.7561 -0.6223 -0.2026
vn 0.7828 -0.6223 -0.0
vn 0.6381 -0.7699 0.0
vn 0.6164 -0.7699 0.1652
vn 0.5526 -0.7699 0.3191
vn 0.4512 -0.7699 0.4512
vn 0.3191 -0.7699 0.5526
vn 0.1652 -0.7699 0.6164
vn 0.0 -0.7699 0.6381
vn -0.1652 -0.7699 0.6164
vn -0.3191 -0.7699 0.5526
vn -0.4512 -0.7699 0.4512
vn -0.5526 -0.7699 0.3191
vn -0.6164 -0.7699 0.1652
vn -0.6381 -0.7699 0.0
vn -0.6164 -0.7699 -0.1652
vn -0.5526 -0.7699 -0.3191
vn -0.4512 -0.7699 -0.4512
vn -0.3191 -0.7699 -0.5526
vn -0.1652 -0.7699 -0.6164
vn -0.0 -0.7699 -0.6381
vn 0.1652 -0.7699 -0.6164
vn 0.3191 -0.7699 -0.5526
vn 0.4512 -0.7699 -0.4512
vn 0.5526 -0.7699 -0.3191
vn 0.6164 -0.7699 -0.1652
vn 0.6381 -0.7699 -0.0
vn 0.3805 -0.9248 0.0
vn 0.3676 -0.9248 0.0985
vn 0.3296 -0.9248 0.1903
vn 0.2691 -0.9248 0.2691
vn 0.1903 -0.9248 0.3296
vn 0.0985 -0.9248 0.3676
vn 0.0 -0.9248 0.3805
vn -0.0985 -0.9248 0.3676
vn -0.1903 -0.9248 0.3296
vn -0.2691 -0.9248 0.2691
vn -0.3296 -0.9248 0.1903
vn -0.3676 -0.9248 0.0985
vn -0.3805 -0.9248 0.0
vn -0.3676 -0.9248 -0.0985
vn -0.3296 -0.9248 -0.1903
vn -0.2691 -0.9248 -0.2691
vn -0.1903 -0.9248 -0.3296
vn -0.0985 -0.9248 -0.3676
vn -0.0 -0.9248 -0.3805
vn 0.0985 -0.9248 -0.3676
vn 0.1903 -0.9248 -0.3296
vn 0.2691 -0.9248 -0.2691
vn 0.3296 -0.9248 -0.1903
vn 0.3676 -0.9248 -0.0985
vn 0.3805 -0.9248 -0.0
vn 0.0 -1.0 0.0
vn 0.0 -1.0 0.0
vn 0.0 -1.0 0.0
vn 0.0 -1.0 0.0
vn 0.0 -1.0 0.0
vn 0.0 -1.0 0.0
vn 0.0 -1.0 0.0
vn -0.0 -1.0 0.0
vn -0.0 -1.0 0.0
vn -0.0 -1.0 0.0
vn -0.0 -1.0 0.0
vn -0.0 -1.0 0.0
vn -0.0 -1.0 0.0
vn -0.0 -1.0 -0.0
vn -0.0 -1.0 -0.0
vn -0.0 -1.0 -0.0
vn -0.0 -1.0 -0.0
vn -0.0 -1.0 -0.0
vn -0.0 -1.0 -0.0
vn 0.0 -1.0 -0.0
vn 0.0 -1.0 -0.0
vn 0.0 -1.0 -0.0
vn 0.0 -1.0 -0.0
vn 0.0 -1.0 -0.0
vn 0.0 -1.0 -0.0

f 1/1/1 27/27/27 26/26/26
f 1/1/1 2/2/2 27/27/27
f 2/2/2 28/28/28 27/27/27
f 2/2/2 3/3/3 28/28/28
f 3/3/3 29/29/29 28/28/28
f 3/3/3 4/4/4 29/29/29
f 4/4/4 30/30/30 29/29/29
f 4/4/4 5/5/5 30/30/30
f 5/5/5 31/31/31 30/30/30
f 5/5/5 6/6/6 31/31/31
f 6/6/6 32/32/32 31/31/31
f 6/6/6 7/7/7 32/32/32
f 7/7/7 33/33/33 32/32/32
f 7/7/7 8/8/8 33/33/33
f 8/8/8 34/34/34 33/33/33
f 8/8/8 9/9/9 34/34/34
f 9/9/9 35/35/35 34/34/34
f 9/9/9 10/10/10 35/35/35
f 10/10/10 36/36/36 35/35/35
f 10/10/10 11/11/11 36/36/36
f 11/11/11 37/37/37 36/36/36
f 11/11/11 12/12/12 37/37/37
f 12/12/12 38/38/38 37/37/37
f 12/12/12 13/13/13 38/38/38
f 13/13/13 39/39/39 38/38/38
f 13/13/13 14/14/14 39/39/39
f 14/14/14 40/40/40 39/39/39
f 14/14/14 15/15/15 40/40/40
f 15/15/15 41/41/41 40/40/40
f 15/15/15 16/16/16 41/41/41
f 16/16/16 42/42/42 41/41/41
f 16/16/16 17/17/17 42/42/42
f 17/17/17 43/43/43 42/42/42
f 17/17/17 18/18/18 43/43/43
f 18/18/18 44/44/44 43/43/43
f 18/18/18 19/19/19 44/44/44
f 19/19/19 45/45/45 44/44/44
f 19/19/19 20/20/20 45/45/45
f 20/20/20 46/46/46 45/45/45
f 20/20/20 21/21/21 46/46/46
f 21/21/21 47/47/47 46/46/46
f 21/21/21 22/22/22 47/47/47
f 22/22/22 48/48/48 47/47/47
f 22/22/22 23/23/23 48/48/48
f 23/23/23 49/49/49 48/48/48
f 23/23/23 24/24/24 49/49/49
f 24/24/24 50/50/50 49/49/49
f 24/24/24 25/25/25 50/50/50
f 26/26/26 52/52/52 51/51/51
f 26/26/26 27/27/27 52/52/52
f 27/27/27 53/53/53 52/52/52
f 27/27/27 28/28/28 53/53/53
f 28/28/28 54/54/54 53/53/53
f 28/28/28 29/29/29 54/54/54
f 29/29/29 55/55/55 54/54/54
f 29/29/29 30/30/30 55/55/55
f 30/30/30 56/56/56 55/55/55
f 30/30/30 31/31/31 56/56/56
f 31/31/31 57/57/57 56/56/56
f 31/31/31 32/32/32 57/57/57
f 32/32/32 58/58/58 57/57/57
f 32/32/32 33/33/33 58/58/58
f 33/33/33 59/59/59 58/58/58
f 33/33/33 34/34/34 59/59/59
f 34/34/34 60/60/60 59/59/59
f 34/34/34 35/35/35 60/60/60
f 35/35/35 61/61/61 60/60/60
f 35/35/35 36/36/36 61/61/61
f 36/36/36 62/62/62 61/61/61
f 36/36/36 37/37/37 62/62/62
f 37/37/37 63/63/63 62/62/62
f 37/37/37 38/38/38 63/63/63
f 38/38/38 64/64/64 63/63/63
f 38/38/38 39/39/39 64/64/64
f 39/39/39 65/65/65 64/64/64
f 39/39/39 40/40/40 65/65/65
f 40/40/40 66/66/66 65/65/65
f 40/40/40 41/41/41 66/66/66
f 41/41/41 67/67/67 66/66/66
f 41/41/41 42/42/42 67/67/67
f 42/42/42 68/68/68 67/67/67
f 42/42/42 43/43/43 68/68/68
f 43/43/43 69/69/69 68/68/68
f 43/43/43 44/44/44 69/69/69
f 44/44/44 70/70/70 69/69/69
f 44/44/44 45/45/45 70/70/70
f 45/45/45 71/71/71 70/70/70
f 45/45/45 46/46/46 71/71/71
f 46/46/46 72/72/72 71/71/71
f 46/46/46 47/47/47 72/72/72
f 47/47/47 73/73/73 72/72/72
f 47/47/47 48/48/48 73/73/73
f 48/48/48 74/74/74 73/73/73
f 48/48/48 49/49/49 74/74/74
f 49/49/49 75/75/75 74/74/74
f 49/49/49 50/50/50 75/75/75
f 51/51/51 77/77/77 76/76/76
f 51/51/51 52/52/52 77/77/77
f 52/52/52 78/78/78 77/77/77
f 52/52/52 53/53/53 78/78/78
f 53/53/53 79/79/79 78/78/78
f 53/53/53 54/54/54 79/79/79
f 54/54/54 80/80/80 79/79/79
f 54/54/54 55/55/55 80/80/80
f 55/55/55 81/81/81 80/80/80
f 55/55/55 56/56/56 81/81/81
f 56/56/56 82/82/82 81/81/81
f 56/56/56 57/57/57 82/82/82
f 57/57/57 83/83/83 82/82/82
f 57/57/57 58/58/58 83/83/83
f 58/58/58 84/84/84 83/83/83
f 58/58/58 59/59/59 84/84/84
f 59/59/59 85/85/85 84/84/84
f 59/59/59 60/60/60 85/85/85
f 60/60/60 86/86/86 85/85/85
f 60/60/60 61/61/61 86/86/86
f 61/61/61 87/87/87 86/86/86
f 61/61/61 62/62/62 87/87/87
f 62/62/62 88/88/88 87/87/87
f 62/62/62 63/63/63 88/88/88
f 63/63/63 89/89/89 88/88/88
f 63/63/63 64/64/64 89/89/89
f 64/64/64 90/90/90 89/89/89
f 64/64/64 65/65/65 90/90/90
f 65/65/65 91/91/91 90/90/90
f 65/65/65 66/66/66 91/91/91
f 66/66/66 92/92/92 91/91/91
f 66/66/66 67/67/67 92/92/92
f 67/67/67 93/93/93 92/92/92
f 67/67/67 68/68/68 93/93/93
f 68/68/68 94/94/94 93/93/93
f 68/68/68 69/69/69 94/94/94
f 69/69/69 95/95/95 94/94/94
f 69/69/69 70/70/70 95/95/95
f 70/70/70 96/96/96 95/95/95
f 70/70/70 71/71/71 96/96/96
f 71/71/71 97/97/97 96/96/96
f 71/71/71 72/72/72 97/97/97
f 72/72/72 98/98/98 97/97/97
f 72/72/72 73/73/73 98/98/98
f 73/73/73 99/99/99 98/98/98
f 73/73/73 74/74/74 99/99/99
f 74/74/74 100/100/100 99/99/99
f 74/74/74 75/75/75 100/100/100
f 76/76/76 102/102/102 101/101/101
f 76/76/76 77/77/77 102/102/102
f 77/77/77 103/103/103 102/102/102
f 77/77/77 78/78/78 103/103/103
f 78/78/78 104/104/104 103/103/103
f 78/78/78 79/79/79 104/104/104
f 79/79/79 105/105/105 104/104/104
f 79/79/79 80/80/80 105/105/105
f 80/80/80 106/106/106 105/105/105
f 80/80/80 81/81/81 106/106/106
f 81/81/81 107/107/107 106/106/106
f 81/81/81 82/82/82 107/107/107
f 82/82/82 108/108/108 107/107/107
f 82/82/82 83/83/83 108/108/108
f 83/83/83 109/109/109 108/108/108
f 83/83/83 84/84/84 109/109/109
f 84/84/84 110/110/110 109/109/109
f 84/84/84 85/85/85 110/110/110
f 85/85/85 111/111/111 110/110/110
f 85/85/85 86/86/86 111/111/111
f 86/86/86 112/112/112 111/111/111
f 86/86/86 87/87/87 112/112/112
f 87/87/87 113/113/113 112/112/112
f 87/87/87 88/88/88 113/113/113
f 88/88/88 114/114/114 113/113/113
f 88/88/88 89/89/89 114/114/114
f 89/89/89 115/115/115 114/114/114
f 89/89/89 90/90/90 115/115/115
f 90/90/90 116/116/116 115/115/115
f 90/90/90 91/91/91 116/116/116
f 91/91/91 117/117/117 116/116/116
f 91/91/91 92/92/92 117/117/117
f 92/92/92 118/118/118 117/117/117
f 92/92/92 93/93/93 118/118/118
f 93/93/93 119/119/119 118/118/118
f 93/93/93 94/94/94 119/119/119
f 94/94/94 120/120/120 119/119/119
f 94/94/94 95/95/95 120/120/120
f 95/95/95 121/121/121 120/120/120
f 95/95/95 96/96/96 121/121/121
f 96/96/96 122/122/122 121/121/121
f 96/96/96 97/97/97 122/122/122
f 97/97/97 123/123/123 122/122/122
f 97/97/97 98/98/98 123/123/123
f 98/98/98 124/124/124 123/123/123
f 98/98/98 99/99/99 124/124/124
f 99/99/99 125/125/125 124/124/124
f 99/99/99 100/100/100 125/125/125
f 101/101/101 127/127/127 126/126/126
f 101/101/101 102/102/102 127/127/127
f 102/102/102 128/128/128 127/127/127
f 102/102/102 103/103/103 128/128/128
f 103/103/103 129/129/129 128/128/128
f 103/103/103 104/104/104 129/129/129
f 104/104/104 130/130/130 129/129/129
f 104/104/104 105/105/105 130/130/130
f 105/105/105 131/131/131 130/130/130
f 105/105/105 106/106/106 131/131/131
f 106/106/106 132/132/132 131/131/131
f 106/106/106 107/107/107 132/132/132
f 107/107/107 133/133/133 132/132/132
f 107/107/107 108/108/108 133/133/133
f 108/108/108 134/134/134 133/133/133
f 108/108/108 109/109/109 134/134/134
f 109/109/109 135/135/135 134/134/134
f 109/109/109 110/110/110 135/135/135
f 110/110/110 136/136/136 135/135/135
f 110/110/110 111/111/111 136/136/136
f 111/111/111 137/137/137 136/136/136
f 111/111/111 112/112/112 137/137/137
f 112/112/112 138/138/138 137/137/137
f 112/112/112 113/113/113 138/138/138
f 113/113/113 139/139/139 138/138/138
f 113/113/113 114/114/114 139/139/139
f 114/114/114 140/140/140 139/139/139
f 114/114/114 115/115/115 140/140/140
f 115/115/115 141/141/141 140/140/140
f 115/115/115 116/116/116 141/141/141
f 116/116/116 142/142/142 141/141/141
f 116/116/116 117/117/117 142/142/142
f 117/117/117 143/143/143 142/142/142
f 117/117/117 118/118/118 143/143/143
f 118/118/118 144/144/144 143/143/143
f 118/118/118 119/119/119 144/144/144
f 119/119/119 145/145/145 144/144/144
f 119/119/119 120/120/120 145/145/145
f 120/120/120 146/146/146 145/145/145
f 120/120/120 121/121/121 146/146/146
f 121/121/121 147/147/147 146/146/146
f 121/121/121 122/122/122 147/147/147
f 122/122/122 148/148/148 147/147/147
f 122/122/122 123/123/123 148/148/148
f 123/123/123 149/149/149 148/148/148
f 123/123/123 124/124/124 149/149/149
f 124/124/124 150/150/150 149/149/149
f 124/124/124 125/125/125 150/150/150
f 126/126/126 152/152/152 151/151/151
f 126/126/126 127/127/127 152/152/152
f 127/127/127 153/153/153 152/152/152
f 127/127/127 128/128/128 153/153/153
f 128/128/128 154/154/154 153/153/153
f 128/128/128 129/129/129 154/154/154
f 129/129/129 155/155/155 154/154/154
f 129/129/129 130/130/130 155/155/155
f 130/130/130 156/156/156 155/155/155
f 130/130/130 131/131/131 156/156/156
f 131/131/131 157/157/157 156/156/156
f 131/131/131 132/132/132 157/157/157
f 132/132/132 158/158/158 157/157/157
f 132/132/132 133/133/133 158/158/158
f 133/133/133 159/159/159 158/158/158
f 133/133/133 134/134/134 159/159/159
f 134/134/134 160/160/160 159/159/159
f 134/134/134 135/135/135 160/160/160
f 135/135/135 161/161/161 160/160/160
f 135/135/135 136/136/136 161/161/161
f 136/136/136 162/162/162 161/161/161
f 136/136/136 137/137/137 162/162/162
f 137/137/137 163/163/163 162/162/162
f 137/137/137 138/138/138 163/163/163
f 138/138/138 164/164/164 163/163/163
f 138/138/138 139/139/139 164/164/164
f 139/139/139 165/165/165 164/164/164
f 139/139/139 140/140/140 165/165/165
f 140/140/140 166/166/166 165/165/165
f 140/140/140 141/141/141 166/166/166
f 141/141/141 167/167/167 166/166/166
f 141/141/141 142/142/142 167/167/167
f 142/142/142 168/168/168 167/167/167
f 142/142/142 143/143/143 168/168/168
f 143/143/143 169/169/169 168/168/168
f 143/143/143 144/144/144 169/169/169
f 144/144/144 170/170/170 169/169/169
f 144/144/144 145/145/145 170/170/170
f 145/145/145 171/171/171 170/170/170
f 145/145/145 146/146/146 171/171/171
f 146/146/146 172/172/172 171/171/171
f 146/146/146 147/147/147 172/172/172
f 147/147/147 173/173/173 172/172/172
f 147/147/147 148/148/148 173/173/173
f 148/148/148 174/174/174 173/173/173
f 148/148/148 149/149/149 174/174/174
f 149/149/149 175/175/175 174/174/174
f 149/149/149 150/150/150 175/175/175
f 151/151/151 177/177/177 176/176/176
f 151/151/151 152/152/152 177/177/177
f 152/152/152 178/178/178 177/177/177
f 152/152/152 153/153/153 178/178/178
f 153/153/153 179/179/179 178/178/178
f 153/153/153 154/154/154 179/179/179
f 154/154/154 180/180/180 179/179/179
f 154/154/154 155/155/155 180/180/180
f 155/155/155 181/181/181 180/180/180
f 155/155/155 156/156/156 181/181/181
f 156/156/156 182/182/182 181/181/181
f 156/156/156 157/157/157 182/182/182
f 157/157/157 183/183/183 182/182/182
f 157/157/157 158/158/158 183/183/183
f 158/158/158 184/184/184 183/183/183
f 158/158/158 159/159/159 184/184/184
f 159/159/159 185/185/185 184/184/184
f 159/159/159 160/160/160 185/185/185
f 160/160/160 186/186/186 185/185/185
f 160/160/160 161/161/161 186/186/186
f 161/161/161 187/187/187 186/186/186
f 161/161/161 162/162/162 187/187/187
f 162/162/162 188/188/188 187/187/187
f 162/162/162 163/163/163 188/188/188
f 163/163/163 189/189/189 188/188/188
f 163/163/163 164/164/164 189/189/189
f 164/164/164 190/190/190 189/189/189
f 164/164/164 165/165/165 190/190/190
f 165/165/165 191/191/191 190/190/190
f 165/165/165 166/166/166 191/191/191
f 166/166/166 192/192/192 191/191/191
f 166/166/166 167/167/167 192/192/192
f 167/167/167 193/193/193 192/192/192
f 167/167/167 168/168/168 193/193/193
f 168/168/168 194/194/194 193/193/193
f 168/168/168 169/169/169 194/194/194
f 169/169/169 195/195/195 194/194/194
f 169/169/169 170/170/170 195/195/195
f 170/170/170 196/196/196 195/195/195
f 170/170/170 171/171/171 196/196/196
f 171/171/171 197/197/197 196/196/196
f 171/171/171 172/172/172 197/197/197
f 172/172/172 198/198/198 197/197/197
f 172/172/172 173/173/173 198/198/198
f 173/173/173 199/199/199 198/198/198
f 173/173/173 174/174/174 199/199/199
f 174/174/174 200/200/200 199/199/199
f 174/174/174 175/175/175 200/200/200
f 176/176/176 202/202/202 201/201/201
f 176/176/176 177/177/177 202/202/202
f 177/177/177 203/203/203 202/202/202
f 177/177/177 178/178/178 203/203/203
f 178/178/178 204/204/204 203/203/203
f 178/178/178 179/179/179 204/204/204
f 179/179/179 205/205/205 204/204/204
f 179/179/179 180/180/180 205/205/205
f 180/180/180 206/206/206 205/205/205
f 180/180/180 181/181/181 206/206/206
f 181/181/181 207/207/207 206/206/206
f 181/181/181 182/182/182 207/207/207
f 182/182/182 208/208/208 207/207/207
f 182/182/182 183/183/183 208/208/208
f 183/183/183 209/209/209 208/208/208
f 183/183/183 184/184/184 209/209/209
f 184/184/184 210/210/210 209/209/209
f 184/184/184 185/185/185 210/210/210
f 185/185/185 211/211/211 210/210/210
f 185/185/185 186/186/186 211/211/211
f 186/186/186 212/212/212 211/211/211
f 186/186/186 187/187/187 212/212/212
f 187/187/187 213/213/213 212/212/212
f 187/187/187 188/188/188 213/213/213
f 188/188/188 214/214/214 213/213/213
f 188/188/188 189/189/189 214/214/214
f 189/189/189 215/215/215 214/214/214
f 189/189/189 190/190/190 215/215/215
f 190/190/190 216/216/216 215/215/215
f 190/190/190 191/191/191 216/216/216
f 191/191/191 217/217/217 216/216/216
f 191/191/191 192/192/192 217/217/217
f 192/192/192 218/218/218 217/217/217
f 192/192/192 193/193/193 218/218/218
f 193/193/193 219/219/219 218/218/218
f 193/193/193 194/194/194 219/219/219
f 194/194/194 220/220/220 219/219/219
f 194/194/194 195/195/195 220/220/220
f 195/195/195 221/221/221 220/220/220
f 195/195/195 196/196/196 221/221/221
f 196/196/196 222/222/222 221/221/221
f 196/196/196 197/197/197 222/222/222
f 197/197/197 223/223/223 222/222/222
f 197/197/197 198/198/198 223/223/223
f 198/198/198 224/224/224 223/223/223
f 198/198/198 199/199/199 224/224/224
f 199/199/199 225/225/225 224/224/224
f 199/199/199 200/200/200 225/225/225
f 201/201/201 227/227/227 226/226/226
f 201/201/201 202/202/202 227/227/227
f 202/202/202 228/228/228 227/227/227
f 202/202/202 203/203/203 228/228/228
f 203/203/203 229/229/229 228/228/228
f 203/203/203 204/204/204 229/229/229
f 204/204/204 230/230/230 229/229/229
f 204/204/204 205/205/205 230/230/230
f 205/205/205 231/231/231 230/230/230
f 205/205/205 206/206/206 231/231/231
f 206/206/206 232/232/232 231/231/231
f 206/206/206 207/207/207 232/232/232
f 207/207/207 233/233/233 232/232/232
f 207/207/207 208/208/208 233/233/233
f 208/208/208 234/234/234 233/233/233
f 208/208/208 209/209/209 234/234/234
f 209/209/209 235/235/235 234/234/234
f 209/209/209 210/210/210 235/235/235
f 210/210/210 236/236/236 235/235/235
f 210/210/210 211/211/211 236/236/236
f 211/211/211 237/237/237 236/236/236
f 211/211/211 212/212/212 237/237/237
f 212/212/212 238/238/238 237/237/237
f 212/212/212 213/213/213 238/238/238
f 213/213/213 239/239/239 238/238/238
f 213/213/213 214/214/214 239/239/239
f 214/214/214 240/240/240 239/239/239
f 214/214/214 215/215/215 240/240/240
f 215/215/215 241/241/241 240/240/240
f 215/215/215 216/216/216 241/241/241
f 216/216/216 242/242/242 241/241/241
f 216/216/216 217/217/217 242/242/242
f 217/217/217 243/243/243 242/242/242
f 217/217/217 218/218/218 243/243/243
f 218/218/218 244/244/244 243/243/243
f 218/218/218 219/219/219 244/244/244
f 219/219/219 245/245/245 244/244/244
f 219/219/219 220/220/220 245/245/245
f 220/220/220 246/246/246 245/245/245
f 220/220/220 221/221/221 246/246/246
f 221/221/221 247/247/247 246/246/246
f 221/221/221 222/222/222 247/247/247
f 222/222/222 248/248/248 247/247/247
f 222/222/222 223/223/223 248/248/248
f 223/223/223 249/249/249 248/248/248
f 223/223/223 224/224/224 249/249/249
f 224/224/224 250/250/250 249/249/249
f 224/224/224 225/225/225 250/250/250
f 226/226/226 252/252/252 251/251/251
f 226/226/226 227/227/227 252/252/252
f 227/227/227 253/253/253 252/252/252
f 227/227/227 228/228/228 253/253/253
f 228/228/228 254/254/254 253/253/253
f 228/228/228 229/229/229 254/254/254
f 229/229/229 255/255/255 254/254/254
f 229/229/229 230/230/230 255/255/255
f 230/230/230 256/256/256 255/255/255
f 230/230/230 231/231/231 256/256/256
f 231/231/231 257/257/257 256/256/256
f 231/231/231 232/232/232 257/257/257
f 232/232/232 258/258/258 257/257/257
f 232/232/232 233/233/233 258/258/258
f 233/233/233 259/259/259 258/258/258
f 233/233/233 234/234/234 259/259/259
f 234/234/234 260/260/260 259/259/259
f 234/234/234 235/235/235 260/260/260
f 235/235/235 261/261/261 260/260/260
f 235/235/235 236/236/236 261/261/261
f 236/236/236 262/262/262 261/261/261
f 236/236/236 237/237/237 262/262/262
f 237/237/237 263/263/263 262/262/262
f 237/237/237 238/238/238 263/263/263
f 238/238/238 264/264/264 263/263/263
f 238/238/238 239/239/239 264/264/264
f 239/239/239 265/265/265 264/264/264
f 239/239/239 240/240/240 265/265/265
f 240/240/240 266/266/266 265/265/265
f 240/240/240 241/241/241 266/266/266
f 241/241/241 267/267/267 266/266/266
f 241/241/241 242/242/242 267/267/267
f 242/242/242 268/268/268 267/267/267
f 242/242/242 243/243/243 268/268/268
f 243/243/243 269/269/269 268/268/268
f 243/243/243 244/244/244 269/269/269
f 244/244/244 270/270/270 269/269/269
f 244/244/244 245/245/245 270/270/270
f 245/245/245 271/271/271 270/270/270
f 245/245/245 246/246/246 271/271/271
f 246/246/246 272/272/272 271/271/271
f 246/246/246 247/247/247 272/272/272
f 247/247/247 273/273/273 272/272/272
f 247/247/247 248/248/248 273/273/273
f 248/248/248 274/274/274 273/273/273
f 248/248/248 249/249/249 274/274/274
f 249/249/249 275/275/275 274/274/274
f 249/249/249 250/250/250 275/275/275
f 251/251/251 277/277/277 276/276/276
f 251/251/251 252/252/252 277/277/277
f 252/252/252 278/278/278 277/277/277
f 252/252/252 253/253/253 278/278/278
f 253/253/253 279/279/279 278/278/278
f 253/253/253 254/254/254 279/279/279
f 254/254/254 280/280/280 279/279/279
f 254/254/254 255/255/255 280/280/280
f 255/255/255 281/281/281 280/280/280
f 255/255/255 256/256/256 281/281/281
f 256/256/256 282/282/282 281/281/281
f 256/256/256 257/257/257 282/282/282
f 257/257/257 283/283/283 282/282/282
f 257/257/257 258/258/258 283/283/283
f 258/258/258 284/284/284 283/283/283
f 258/258/258 259/259/259 284/284/284
f 259/259/259 285/285/285 284/284/284
f 259/259/259 260/260/260 285/285/285
f 260/260/260 286/286/286 285/285/285
f 260/260/260 261/261/261 286/286/286
f 261/261/261 287/287/287 286/286/286
f 261/261/261 262/262/262 287/287/287
f 262/262/262 288/288/288 287/287/287
f 262/262/262 263/263/263 288/288/288
f 263/263/263 289/289/289 288/288/288
f 263/263/263 264/264/264 289/289/289
f 264/264/264 290/290/290 289/289/289
f 264/264/264 265/265/265 290/290/290
f 265/265/265 291/291/291 290/290/290
f 265/265/265 266/266/266 291/291/291
f 266/266/266 292/292/292 291/291/291
f 266/266/266 267/267/267 292/292/292
f 267/267/267 293/293/293 292/292/292
f 267/267/267 268/268/268 293/293/293
f 268/268/268 294/294/294 293/293/293
f 268/268/268 269/269/269 294/294/294
f 269/269/269 295/295/295 294/294/294
f 269/269/269 270/270/270 295/295/295
f 270/270/270 296/296/296 295/295/295
f 270/270/270 271/271/271 296/296/296
f 271/271/271 297/297/297 296/296/296
f 271/271/271 272/272/272 297/297/297
f 272/272/272 298/298/298 297/297/297
f 272/272/272 273/273/273 298/298/298
f 273/273/273 299/299/299 298/298/298
f 273/273/273 274/274/274 299/299/299
f 274/274/274 300/300/300 299/299/299
f 274/274/274 275/275/275 300/300/300
f 276/276/276 302/302/302 301/301/301
f 276/276/276 277/277/277 302/302/302
f 277/277/277 303/303/303 302/302/302
f 277/277/277 278/278/278 303/303/303
f 278/278/278 304/304/304 303/303/303
f 278/278/278 279/279/279 304/304/304
f 279/279/279 305/305/305 304/304/304
f 279/279/279 280/280/280 305/305/305
f 280/280/280 306/306/306 305/305/305
f 280/280/280 281/281/281 306/306/306
f 281/281/281 307/307/307 306/306/306
f 281/281/281 282/282/282 307/307/307
f 282/282/282 308/308/308 307/307/307
f 282/282/282 283/283/283 308/308/308
f 283/283/283 309/309/309 308/308/308
f 283/283/283 284/284/284 309/309/309
f 284/284/284 310/310/310 309/309/309
f 284/284/284 285/285/285 310/310/310
f 285/285/285 311/311/311 310/310/310
f 285/285/285 286/286/286 311/311/311
f 286/286/286 312/312/312 311/311/311
f 286/286/286 287/287/287 312/312/312
f 287/287/287 313/313/313 312/312/312
f 287/287/287 288/288/288 313/313/313
f 288/288/288 314/314/314 313/313/313
f 288/288/288 289/289/289 314/314/314
f 289/289/289 315/315/315 314/314/314
f 289/289/289 290/290/290 315/315/315
f 290/290/290 316/316/316 315/315/315
f 290/290/290 291/291/291 316/316/316
f 291/291/291 317/317/317 316/316/316
f 291/291/291 292/292/292 317/317/317
f 292/292/292 318/318/318 317/317/317
f 292/292/292 293/293/293 318/318/318
f 293/293/293 319/319/319 318/318/318
f 293/293/293 294/294/294 319/319/319
f 294/294/294 320/320/320 319/319/319
f 294/294/294 295/295/295 320/320/320
f 295/295/295 321/321/321 320/320/320
f 295/295/295 296/296/296 321/321/321
f 296/296/296 322/322/322 321/321/321
f 296/296/296 297/297/297 322/322/322
f 297/297/297 323/323/323 322/322/322
f 297/297/297 298/298/298 323/323/323
f 298/298/298 324/324/324 323/323/323
f 298/298/298 299/299/299 324/324/324
f 299/299/299 325/325/325 324/324/324
f 299/299/299 300/300/300 325/325/325
f 301/301/301 327/327/327 326/326/326
f 301/301/301 302/302/302 327/327/327
f 302/302/302 328/328/328 327/327/327
f 302/302/302 303/303/303 328/328/328
f 303/303/303 329/329/329 328/328/328
f 303/303/303 304/304/304 329/329/329
f 304/304/304 330/330/330 329/329/329
f 304/304/304 305/305/305 330/330/330
f 305/305/305 331/331/331 330/330/330
f 305/305/305 306/306/306 331/331/331
f 306/306/306 332/332/332 331/331/331
f 306/306/306 307/307/307 332/332/332
f 307/307/307 333/333/333 332/332/332
f 307/307/307 308/308/308 333/333/333
f 308/308/308 334/334/334 333/333/333
f 308/308/308 309/309/309 334/334/334
f 309/309/309 335/335/335 334/334/334
f 309/309/309 310/310/310 335/335/335
f 310/310/310 336/336/336 335/335/335
f 310/310/310 311/311/311 336/336/336
f 311/311/311 337/337/337 336/336/336
f 311/311/311 312/312/312 337/337/337
f 312/312/312 338/338/338 337/337/337
f 312/312/312 313/313/313 338/338/338
f 313/313/313 339/339/339 338/338/338
f 313/313/313 314/314/314 339/339/339
f 314/314/314 340/340/340 339/339/339
f 314/314/314 315/315/315 340/340/340
f 315/315/315 341/341/341 340/340/340
f 315/315/315 316/316/316 341/341/341
f 316/316/316 342/342/342 341/341/341
f 316/316/316 317/317/317 342/342/342
f 317/317/317 343/343/343 342/342/342
f 317/317/317 318/318/318 343/343/343
f 318/318/318 344/344/344 343/343/343
f 318/318/318 319/319/319 344/344/344
f 319/319/319 345/345/345 344/344/344
f 319/319/319 320/320/320 345/345/345
f 320/320/320 346/346/346 345/345/345
f 320/320/320 321/321/321 346/346/346
f 321/321/321 347/347/347 346/346/346
f 321/321/321 322/322/322 347/347/347
f 322/322/322 348/348/348 347/347/347
f 322/322/322 323/323/323 348/348/348
f 323/323/323 349/349/349 348/348/348
f 323/323/323 324/324/324 349/349/349
f 324/324/324 350/350/350 349/349/349
f 324/324/324 325/325/325 350/350/350
f 326/326/326 352/352/352 351/351/351
f 326/326/326 327/327/327 352/352/352
f 327/327/327 353/353/353 352/352/352
f 327/327/327 328/328/328 353/353/353
f 328/328/328 354/354/354 353/353/353
f 328/328/328 329/329/329 354/354/354
f 329/329/329 355/355/355 354/354/354
f 329/329/329 330/330/330 355/355/355
f 330/330/330 356/356/356 355/355/355
f 330/330/330 331/331/331 356/356/356
f 331/331/331 357/357/357 356/356/356
f 331/331/331 332/332/332 357/357/357
f 332/332/332 358/358/358 357/357/357
f 332/332/332 333/333/333 358/358/358
f 333/333/333 359/359/359 358/358/358
f 333/333/333 334/334/334 359/359/359
f 334/334/334 360/360/360 359/359/359
f 334/334/334 335/335/335 360/360/360
f 335/335/335 361/361/361 360/360/360
f 335/335/335 336/336/336 361/361/361
f 336/336/336 362/362/362 361/361/361
f 336/336/336 337/337/337 362/362/362
f 337/337/337 363/363/363 362/362/362
f 337/337/337 338/338/338 363/363/363
f 338/338/338 364/364/364 363/363/363
f 338/338/338 339/339/339 364/364/364
f 339/339/339 365/365/365 364/364/364
f 339/339/339 340/340/340 365/365/365
f 340/340/340 366/366/366 365/365/365
f 340/340/340 341/341/341 366/366/366
f 341/341/341 367/367/367 366/366/366
f 341/341/341 342/342/342 367/367/367
f 342/342/342 368/368/368 367/367/367
f 342/342/342 343/343/343 368/368/368
f 343/343/343 369/369/369 368/368/368
f 343/343/343 344/344/344 369/369/369
f 344/344/344 370/370/370 369/369/369
f 344/344/344 345/345/345 370/370/370
f 345/345/345 371/371/371 370/370/370
f 345/345/345 346/346/346 371/371/371
f 346/346/346 372/372/372 371/371/371
f 346/346/346 347/347/347 372/372/372
f 347/347/347 373/373/373 372/372/372
f 347/347/347 348/348/348 373/373/373
f 348/348/348 374/374/374 373/373/373
f 348/348/348 349/349/349 374/374/374
f 349/349/349 375/375/375 374/374/374
f 349/349/349 350/350/350 375/375/375
f 351/351/351 377/377/377 376/376/376
f 351/351/351 352/352/352 377/377/377
f 352/352/352 378/378/378 377/377/377
f 352/352/352 353/353/353 378/378/378
f 353/353/353 379/379/379 378/378/378
f 353/353/353 354/354/354 379/379/379
f 354/354/354 380/380/380 379/379/379
f 354/354/354 355/355/355 380/380/380
f 355/355/355 381/381/381 380/380/380
f 355/355/355 356/356/356 381/381/381
f 356/356/356 382/382/382 381/381/381
f 356/356/356 357/357/357 382/382/382
f 357/357/357 383/383/383 382/382/382
f 357/357/357 358/358/358 383/383/383
f 358/358/358 384/384/384 383/383/383
f 358/358/358 359/359/359 384/384/384
f 359/359/359 385/385/385 384/384/384
f 359/359/359 360/360/360 385/385/385
f 360/360/360 386/386/386 385/385/385
f 360/360/360 361/361/361 386/386/386
f 361/361/361 387/387/387 386/386/386
f 361/361/361 362/362/362 387/387/387
f 362/362/362 388/388/388 387/387/387
f 362/362/362 363/363/363 388/388/388
f 363/363/363 389/389/389 388/388/388
f 363/363/363 364/364/364 389/389/389
f 364/364/364 390/390/390 389/389/389
f 364/364/364 365/365/365 390/390/390
f 365/365/365 391/391/391 390/390/390
f 365/365/365 366/366/366 391/391/391
f 366/366/366 392/392/392 391/391/391
f 366/366/366 367/367/367 392/392/392
f 367/367/367 393/393/393 392/392/392
f 367/367/367 368/368/368 393/393/393
f 368/368/368 394/394/394 393/393/393
f 368/368/368 369/369/369 394/394/394
f 369/369/369 395/395/395 394/394/394
f 369/369/369 370/370/370 395/395/395
f 370/370/370 396/396/396 395/395/395
f 370/370/370 371/371/371 396/396/396
f 371/371/371 397/397/397 396/396/396
f 371/371/371 372/372/372 397/397/397
f 372/372/372 398/398/398 397/397/397
f 372/372/372 373/373/373 398/398/398
f 373/373/373 399/399/399 398/398/398
f 373/373/373 374/374/374 399/399/399
f 374/374/374 400/400/400 399/399/399
f 374/374/374 375/375/375 400/400/400
f 376/376/376 402/402/402 401/401/401
f 376/376/376 377/377/377 402/402/402
f 377/377/377 403/403/403 402/402/402
f 377/377/377 378/378/378 403/403/403
f 378/378/378 404/404/404 403/403/403
f 378/378/378 379/379/379 404/404/404
f 379/379/379 405/405/405 404/404/404
f 379/379/379 380/380/380 405/405/405
f 380/380/380 406/406/406 405/405/405
f 380/380/380 381/381/381 406/406/406
f 381/381/381 407/407/407 406/406/406
f 381/381/381 382/382/382 407/407/407
f 382/382/382 408/408/408 407/407/407
f 382/382/382 383/383/383 408/408/408
f 383/383/383 409/409/409 408/408/408
f 383/383/383 384/384/384 409/409/409
f 384/384/384 410/410/410 409/409/409
f 384/384/384 385/385/385 410/410/410
f 385/385/385 411/411/411 410/410/410
f 385/385/385 386/386/386 411/411/411
f 386/386/386 412/412/412 411/411/411
f 386/386/386 387/387/387 412/412/412
f 387/387/387 413/413/413 412/412/412
f 387/387/387 388/388/388 413/413/413
f 388/388/388 414/414/414 413/413/413
f 388/388/388 389/389/389 414/414/414
f 389/389/389 415/415/415 414/414/414
f 389/389/389 390/390/390 415/415/415
f 390/390/390 416/416/416 415/415/415
f 390/390/390 391/391/391 416/416/416
f 391/391/391 417/417/417 416/416/416
f 391/391/391 392/392/392 417/417/417
f 392/392/392 418/418/418 417/417/417
f 392/392/392 393/393/393 418/418/418
f 393/393/393 419/419/419 418/418/418
f 393/393/393 394/394/394 419/419/419
f 394/394/394 420/420/420 419/419/419
f 394/394/394 395/395/395 420/420/420
f 395/395/395 421/421/421 420/420/420
f 395/395/395 396/396/396 421/421/421
f 396/396/396 422/422/422 421/421/421
f 396/396/396 397/397/397 422/422/422
f 397/397/397 423/423/423 422/422/422
f 397/397/397 398/398/398 423/423/423
f 398/398/398 424/424/424 423/423/423
f 398/398/398 399/399/399 424/424/424
f 399/399/399 425/425/425 424/424/424
f 399/399/399 400/400/400 425/425/425
